<?xml version="1.0" encoding="UTF-8"?>
<svg version="1.1" xmlns="http://www.w3.org/2000/svg" width="225" height="253">
<path d="M0 0 C74.25 0 148.5 0 225 0 C225 83.49 225 166.98 225 253 C150.75 253 76.5 253 0 253 C0 169.51 0 86.02 0 0 Z " fill="#4B7625" transform="translate(0,0)"/>
<path d="M0 0 C2.33512354 3.79629001 2.75534473 7.88266588 3.3671875 12.2109375 C3.61578513 13.86590048 3.86448657 15.52084788 4.11328125 17.17578125 C4.49336977 19.75950721 4.87045901 22.343633 5.24462891 24.92822266 C6.79572511 35.56812629 8.69479401 45.7511194 12 56 C12.85980469 55.05640625 13.71960938 54.1128125 14.60546875 53.140625 C21.02395523 46.15227717 27.48080645 39.35334746 34.6472168 33.12207031 C37.41784789 30.66663931 39.66029109 28.19236172 41.74609375 25.15625 C42.48988281 24.1146875 43.23367187 23.073125 44 22 C44.66 22 45.32 22 46 22 C46.2475 21.154375 46.495 20.30875 46.75 19.4375 C48.13973627 15.61572526 49.91120838 12.48131937 52 9 C52.66 9 53.32 9 54 9 C54.54312294 15.38169451 52.80394205 19.33774583 50 25 C44.00616228 37.0657757 44.00616228 37.0657757 39.62890625 49.76953125 C38.72222492 52.98515262 37.44254094 56.01212594 36.16015625 59.09375 C35.25754456 61.35483787 34.42293728 63.60928517 33.62109375 65.90625 C29.64214791 77.2241404 26.15879441 84.70205989 15.3671875 90.87109375 C13.22705783 91.89171664 11.31633895 92.53566477 9 93 C9.58910156 93.80824219 10.17820313 94.61648437 10.78515625 95.44921875 C11.53667969 96.51785156 12.28820312 97.58648437 13.0625 98.6875 C13.81660156 99.74324219 14.57070312 100.79898438 15.34765625 101.88671875 C17 105 17 105 16.99609375 107.64453125 C14.64724477 113.19886824 9.95997005 115.28267678 4.75 117.75 C4.1003125 118.06582031 3.450625 118.38164063 2.78125 118.70703125 C1.19106299 119.47873965 -0.40399229 120.24040275 -2 121 C-1.34 121.99 -0.68 122.98 0 124 C0.56506377 126.48345528 1.06282863 128.93217178 1.5 131.4375 C2.33509291 136.50826688 2.33509291 136.50826688 4.15625 141.28515625 C5 143 5 143 4 146 C2.35 144.35 0.7 142.7 -1 141 C-1.33 141.99 -1.66 142.98 -2 144 C-1.34 144 -0.68 144 0 144 C0.01981934 144.67579102 0.03963867 145.35158203 0.06005859 146.04785156 C0.15543238 149.11562044 0.26506165 152.18271998 0.375 155.25 C0.4059375 156.31347656 0.436875 157.37695312 0.46875 158.47265625 C0.50742188 159.49746094 0.54609375 160.52226562 0.5859375 161.578125 C0.63306885 162.99206543 0.63306885 162.99206543 0.68115234 164.43457031 C1.19235878 168.54770754 2.52094601 170.52094601 5.4375 173.4375 C7.85093108 175.85093108 9.44809867 177.97787637 11 181 C11 181.66 11 182.32 11 183 C12.65 183.66 14.3 184.32 16 185 C16 185.66 16 186.32 16 187 C14.68 187 13.36 187 12 187 C12.144375 188.18078125 12.28875 189.3615625 12.4375 190.578125 C12.62512371 192.13540177 12.81261687 193.69269427 13 195.25 C13.09539062 196.02730469 13.19078125 196.80460938 13.2890625 197.60546875 C13.42441406 198.73662109 13.42441406 198.73662109 13.5625 199.890625 C13.64628906 200.58188477 13.73007813 201.27314453 13.81640625 201.98535156 C13.99844086 203.98289097 14 205.99418339 14 208 C15.65 208 17.3 208 19 208 C20.25433458 211.76300374 20.10695422 215.27210909 20.0625 219.1875 C20.05798828 219.93708984 20.05347656 220.68667969 20.04882812 221.45898438 C20.03706354 223.30602383 20.01912865 225.15302213 20 227 C19.01 227.33 18.02 227.66 17 228 C16.67 227.34 16.34 226.68 16 226 C14.35 226.33 12.7 226.66 11 227 C11.33 225.35 11.66 223.7 12 222 C12.66 222 13.32 222 14 222 C6.15168909 202.90509696 6.15168909 202.90509696 -2.85546875 184.34375 C-4 182 -4 182 -4 180 C-4.80050781 179.74992188 -5.60101563 179.49984375 -6.42578125 179.2421875 C-10.77451412 177.7308246 -14.96956432 175.96542936 -19.1875 174.125 C-20.39696289 173.61646484 -20.39696289 173.61646484 -21.63085938 173.09765625 C-29.20516586 169.78586472 -29.20516586 169.78586472 -31 166 C-31.48387608 162.6647113 -31.19612315 159.35860892 -31 156 C-30.95359375 154.72189453 -30.95359375 154.72189453 -30.90625 153.41796875 C-30.8546875 152.62003906 -30.803125 151.82210937 -30.75 151 C-30.70359375 150.278125 -30.6571875 149.55625 -30.609375 148.8125 C-30 147 -30 147 -28.0625 145.8515625 C-27.381875 145.57054687 -26.70125 145.28953125 -26 145 C-24.29078411 143.4587688 -24.29078411 143.4587688 -23 142 C-20.10067643 144.39509338 -19.49831724 146.31245243 -19 150 C-18.54625 149.505 -18.0925 149.01 -17.625 148.5 C-16 147 -16 147 -14 147 C-13.83246763 144.70839646 -13.66599948 142.41671509 -13.5 140.125 C-13.4071875 138.84882813 -13.314375 137.57265625 -13.21875 136.2578125 C-13.10123196 134.50763316 -13 132.75412035 -13 131 C-13.66 130.67 -14.32 130.34 -15 130 C-14.938125 129.319375 -14.87625 128.63875 -14.8125 127.9375 C-14.83338093 124.82658637 -14.83338093 124.82658637 -16.5625 121.625 C-18.19462365 117.50920992 -17.9561375 115.25915793 -17 111 C-14.525 110.505 -14.525 110.505 -12 110 C-11.79503906 109.31292969 -11.59007813 108.62585938 -11.37890625 107.91796875 C-11.10949219 107.01691406 -10.84007813 106.11585937 -10.5625 105.1875 C-10.29566406 104.29417969 -10.02882813 103.40085937 -9.75390625 102.48046875 C-9.19612127 100.64526945 -8.60655425 98.81966274 -8 97 C-8.928125 97.20625 -9.85625 97.4125 -10.8125 97.625 C-14 98 -14 98 -17 96 C-17.75 93.9375 -17.75 93.9375 -18 92 C-17.505 91.505 -17.505 91.505 -17 91 C-17.66 90.67 -18.32 90.34 -19 90 C-19 89.01 -19 88.02 -19 87 C-19.99 86.67 -20.98 86.34 -22 86 C-20.9375 84 -20.9375 84 -19 82 C-15.4375 81.75 -15.4375 81.75 -12 82 C-11.34 82 -10.68 82 -10 82 C-9.67 81.67 -9.34 81.34 -9 81 C-10.051875 80.938125 -11.10375 80.87625 -12.1875 80.8125 C-16.75244948 79.83964191 -18.2931137 78.77323546 -21 75 C-21.35201103 71.53855822 -21.56935594 69.13871188 -20 66 C-20.66 66 -21.32 66 -22 66 C-22.70304222 64.27709395 -23.38683491 62.54632534 -24.0625 60.8125 C-24.44535156 59.84957031 -24.82820313 58.88664062 -25.22265625 57.89453125 C-26.07311603 54.72774384 -26.03414157 53.08675589 -25 50 C-22.80623676 47.52498507 -20.97084139 45.4854207 -18 44 C-15.6670134 43.95977609 -13.33293334 43.95679753 -11 44 C-10.731875 43.195625 -10.46375 42.39125 -10.1875 41.5625 C-9.795625 40.716875 -9.40375 39.87125 -9 39 C-7.515 38.505 -7.515 38.505 -6 38 C-5.89042969 37.34257813 -5.78085938 36.68515625 -5.66796875 36.0078125 C-5.50941406 35.05648437 -5.35085937 34.10515625 -5.1875 33.125 C-5.00703125 32.03960937 -4.8265625 30.95421875 -4.640625 29.8359375 C-4.17516976 27.04888236 -3.70633155 24.26251494 -3.234375 21.4765625 C-3.03678589 20.30456299 -3.03678589 20.30456299 -2.83520508 19.10888672 C-2.57595769 17.57122665 -2.31543998 16.03378005 -2.0534668 14.49658203 C-1.24278248 9.67528456 -0.57666808 4.85499602 0 0 Z " fill="#FAE58F" transform="translate(115,8)"/>
<path d="M0 0 C1.093125 0.0825 2.18625 0.165 3.3125 0.25 C3.3125 1.24 3.3125 2.23 3.3125 3.25 C1.3325 3.91 -0.6475 4.57 -2.6875 5.25 C-2.6875 5.91 -2.6875 6.57 -2.6875 7.25 C-1.429375 7.188125 -0.17125 7.12625 1.125 7.0625 C5.02972035 7.05558899 5.02972035 7.05558899 7.3125 8.625 C8.3125 10.25 8.3125 10.25 8.3125 12.25 C10.2925 11.92 12.2725 11.59 14.3125 11.25 C14.3125 10.59 14.3125 9.93 14.3125 9.25 C18.10629058 10.74041773 19.99593758 12.94062512 22.3125 16.25 C22.3125 16.91 22.3125 17.57 22.3125 18.25 C22.89 18.29125 23.4675 18.3325 24.0625 18.375 C27.44467727 19.69029116 28.46117458 22.22616848 30.3125 25.25 C30.9725 25.91 31.6325 26.57 32.3125 27.25 C28.58783026 31.37348715 25.01138161 33.72454339 20 36.0625 C19.35482422 36.37380859 18.70964844 36.68511719 18.04492188 37.00585938 C16.47190656 37.76323712 14.89280874 38.50796058 13.3125 39.25 C13.9725 40.24 14.6325 41.23 15.3125 42.25 C15.87756377 44.73345528 16.37532863 47.18217178 16.8125 49.6875 C17.64759291 54.75826688 17.64759291 54.75826688 19.46875 59.53515625 C20.3125 61.25 20.3125 61.25 19.3125 64.25 C16.8375 61.775 16.8375 61.775 14.3125 59.25 C13.9825 60.24 13.6525 61.23 13.3125 62.25 C13.9725 62.25 14.6325 62.25 15.3125 62.25 C15.33231934 62.92579102 15.35213867 63.60158203 15.37255859 64.29785156 C15.46793238 67.36562044 15.57756165 70.43271998 15.6875 73.5 C15.7184375 74.56347656 15.749375 75.62695312 15.78125 76.72265625 C15.81992188 77.74746094 15.85859375 78.77226562 15.8984375 79.828125 C15.94556885 81.24206543 15.94556885 81.24206543 15.99365234 82.68457031 C16.50485878 86.79770754 17.83344601 88.77094601 20.75 91.6875 C23.16343108 94.10093108 24.76059867 96.22787637 26.3125 99.25 C26.3125 99.91 26.3125 100.57 26.3125 101.25 C27.9625 101.91 29.6125 102.57 31.3125 103.25 C31.3125 103.91 31.3125 104.57 31.3125 105.25 C29.9925 105.25 28.6725 105.25 27.3125 105.25 C27.456875 106.43078125 27.60125 107.6115625 27.75 108.828125 C27.93762371 110.38540177 28.12511687 111.94269427 28.3125 113.5 C28.40789062 114.27730469 28.50328125 115.05460937 28.6015625 115.85546875 C28.69179687 116.60957031 28.78203125 117.36367187 28.875 118.140625 C28.95878906 118.83188477 29.04257813 119.52314453 29.12890625 120.23535156 C29.31094086 122.23289097 29.3125 124.24418339 29.3125 126.25 C30.9625 126.25 32.6125 126.25 34.3125 126.25 C35.56683458 130.01300374 35.41945422 133.52210909 35.375 137.4375 C35.37048828 138.18708984 35.36597656 138.93667969 35.36132812 139.70898438 C35.34956354 141.55602383 35.33162865 143.40302213 35.3125 145.25 C34.3225 145.58 33.3325 145.91 32.3125 146.25 C31.9825 145.59 31.6525 144.93 31.3125 144.25 C29.6625 144.58 28.0125 144.91 26.3125 145.25 C26.6425 143.6 26.9725 141.95 27.3125 140.25 C27.9725 140.25 28.6325 140.25 29.3125 140.25 C21.46418909 121.15509696 21.46418909 121.15509696 12.45703125 102.59375 C11.3125 100.25 11.3125 100.25 11.3125 98.25 C10.11173828 97.87488281 10.11173828 97.87488281 8.88671875 97.4921875 C4.53798588 95.9808246 0.34293568 94.21542936 -3.875 92.375 C-5.08446289 91.86646484 -5.08446289 91.86646484 -6.31835938 91.34765625 C-13.89266586 88.03586472 -13.89266586 88.03586472 -15.6875 84.25 C-16.17137608 80.9147113 -15.88362315 77.60860892 -15.6875 74.25 C-15.6565625 73.39792969 -15.625625 72.54585938 -15.59375 71.66796875 C-15.5421875 70.87003906 -15.490625 70.07210937 -15.4375 69.25 C-15.36789063 68.1671875 -15.36789063 68.1671875 -15.296875 67.0625 C-14.6875 65.25 -14.6875 65.25 -12.75 64.1015625 C-12.069375 63.82054687 -11.38875 63.53953125 -10.6875 63.25 C-8.97828411 61.7087688 -8.97828411 61.7087688 -7.6875 60.25 C-4.78817643 62.64509338 -4.18581724 64.56245243 -3.6875 68.25 C-3.23375 67.755 -2.78 67.26 -2.3125 66.75 C-0.6875 65.25 -0.6875 65.25 1.3125 65.25 C1.48003237 62.95839646 1.64650052 60.66671509 1.8125 58.375 C1.95171875 56.46074219 1.95171875 56.46074219 2.09375 54.5078125 C2.21126804 52.75763316 2.3125 51.00412035 2.3125 49.25 C1.6525 48.92 0.9925 48.59 0.3125 48.25 C0.4053125 47.2290625 0.4053125 47.2290625 0.5 46.1875 C0.47911907 43.07658637 0.47911907 43.07658637 -1.25 39.875 C-2.88212365 35.75920992 -2.6436375 33.50915793 -1.6875 29.25 C-0.0375 28.92 1.6125 28.59 3.3125 28.25 C3.51746094 27.56292969 3.72242187 26.87585938 3.93359375 26.16796875 C4.20300781 25.26691406 4.47242187 24.36585937 4.75 23.4375 C5.01683594 22.54417969 5.28367187 21.65085937 5.55859375 20.73046875 C6.11637873 18.89526945 6.70594575 17.06966274 7.3125 15.25 C6.384375 15.45625 5.45625 15.6625 4.5 15.875 C1.3125 16.25 1.3125 16.25 -1.6875 14.25 C-2.4375 12.1875 -2.4375 12.1875 -2.6875 10.25 C-2.3575 9.92 -2.0275 9.59 -1.6875 9.25 C-2.3475 8.92 -3.0075 8.59 -3.6875 8.25 C-3.6875 7.26 -3.6875 6.27 -3.6875 5.25 C-4.6775 4.92 -5.6675 4.59 -6.6875 4.25 C-4.79150483 0.68106792 -4.16790733 0.28256999 0 0 Z " fill="#C7A083" transform="translate(99.6875,89.75)"/>
<path d="M0 0 C0.66 0 1.32 0 2 0 C2.54312294 6.38169451 0.80394205 10.33774583 -2 16 C-7.99383772 28.0657757 -7.99383772 28.0657757 -12.37109375 40.76953125 C-13.27777508 43.98515262 -14.55745906 47.01212594 -15.83984375 50.09375 C-16.74245544 52.35483787 -17.57706272 54.60928517 -18.37890625 56.90625 C-22.35160105 68.20635967 -25.8892136 75.64509371 -36.53515625 81.96875 C-39.29345928 83.12277853 -41.04105097 83.38446871 -44 83 C-46.00348966 81.33752986 -48.00334402 79.67067133 -50 78 C-53.22433127 77.126062 -53.22433127 77.126062 -56 77 C-56.9296661 74.06797615 -57.46283201 71.96356836 -56.09375 69.11328125 C-52.83195656 64.36975847 -52.83195656 64.36975847 -49.75 63 C-48.88375 62.505 -48.88375 62.505 -48 62 C-47.25823993 58.47486472 -47.25823993 58.47486472 -47 55 C-46.505 54.505 -46.505 54.505 -46 54 C-45.76518307 51.81707226 -45.58636677 49.62796826 -45.4375 47.4375 C-45.35371094 46.23996094 -45.26992187 45.04242188 -45.18359375 43.80859375 C-45.12300781 42.88175781 -45.06242187 41.95492187 -45 41 C-44.01 41 -43.02 41 -42 41 C-41.34 42.98 -40.68 44.96 -40 47 C-38.71029297 45.58460937 -38.71029297 45.58460937 -37.39453125 44.140625 C-30.97604477 37.15227717 -24.51919355 30.35334746 -17.3527832 24.12207031 C-14.58215211 21.66663931 -12.33970891 19.19236172 -10.25390625 16.15625 C-9.51011719 15.1146875 -8.76632813 14.073125 -8 13 C-7.34 13 -6.68 13 -6 13 C-5.7525 12.154375 -5.505 11.30875 -5.25 10.4375 C-3.86026373 6.61572526 -2.08879162 3.48131937 0 0 Z " fill="#99C5DE" transform="translate(167,17)"/>
<path d="M0 0 C1.65 0 3.3 0 5 0 C5 0.99 5 1.98 5 3 C5.46728348 4.63549217 5.93774932 6.27019142 6.4296875 7.8984375 C7.30278151 11.11572914 7.8587538 14.38668449 8.4375 17.66796875 C8.90568191 20.0349624 8.90568191 20.0349624 10.125 22.11328125 C11 24 11 24 10 27 C8.35 25.35 6.7 23.7 5 22 C4.67 22.99 4.34 23.98 4 25 C4.66 25 5.32 25 6 25 C6.01981934 25.67579102 6.03963867 26.35158203 6.06005859 27.04785156 C6.15543238 30.11562044 6.26506165 33.18271998 6.375 36.25 C6.4059375 37.31347656 6.436875 38.37695312 6.46875 39.47265625 C6.50742188 40.49746094 6.54609375 41.52226562 6.5859375 42.578125 C6.6173584 43.52075195 6.6487793 44.46337891 6.68115234 45.43457031 C7.19235878 49.54770754 8.52094601 51.52094601 11.4375 54.4375 C13.85093108 56.85093108 15.44809867 58.97787637 17 62 C17 62.66 17 63.32 17 64 C18.65 64.66 20.3 65.32 22 66 C22 66.66 22 67.32 22 68 C20.68 68 19.36 68 18 68 C18.144375 69.18078125 18.28875 70.3615625 18.4375 71.578125 C18.62512371 73.13540177 18.81261687 74.69269427 19 76.25 C19.09539062 77.02730469 19.19078125 77.80460937 19.2890625 78.60546875 C19.37929687 79.35957031 19.46953125 80.11367187 19.5625 80.890625 C19.64628906 81.58188477 19.73007813 82.27314453 19.81640625 82.98535156 C19.99844086 84.98289097 20 86.99418339 20 89 C21.65 89 23.3 89 25 89 C26.25433458 92.76300374 26.10695422 96.27210909 26.0625 100.1875 C26.05798828 100.93708984 26.05347656 101.68667969 26.04882812 102.45898438 C26.03706354 104.30602383 26.01912865 106.15302213 26 108 C24.515 108.495 24.515 108.495 23 109 C22.505 108.01 22.505 108.01 22 107 C19.525 107.495 19.525 107.495 17 108 C17.33 106.35 17.66 104.7 18 103 C18.66 103 19.32 103 20 103 C19.73445313 102.38253906 19.46890625 101.76507813 19.1953125 101.12890625 C17.49106355 97.04244071 15.90745955 93.10605359 15.0625 88.75 C13.47728555 80.83808147 11.08086023 72.35469414 6 66 C5.835 65.29875 5.67 64.5975 5.5 63.875 C5.11426598 61.59876637 5.11426598 61.59876637 2 60 C-0.48120815 55.78071782 -1.732737 51.70721783 -2.75 46.9375 C-3.01296875 45.75027344 -3.2759375 44.56304687 -3.546875 43.33984375 C-4.20169386 38.51337715 -3.69584902 36.04377353 -1 32 C-1.0950739 29.9519572 -1.0950739 29.9519572 -2 28 C-2.52078125 27.57847656 -3.0415625 27.15695313 -3.578125 26.72265625 C-5 25 -5 25 -5.00390625 22.37109375 C-4.85824219 21.40300781 -4.71257812 20.43492187 -4.5625 19.4375 C-4.09371282 16.5788499 -4.09371282 16.5788499 -4 14 C-4.66 13.34 -5.32 12.68 -6 12 C-6.4140625 9.8359375 -6.4140625 9.8359375 -6.625 7.375 C-6.69976562 6.55773437 -6.77453125 5.74046875 -6.8515625 4.8984375 C-6.90054688 4.27195313 -6.94953125 3.64546875 -7 3 C-4.69 2.34 -2.38 1.68 0 1 C0 0.67 0 0.34 0 0 Z " fill="#A6CD65" transform="translate(109,127)"/>
<path d="M0 0 C2.89932357 2.39509338 3.50168276 4.31245243 4 8 C4.45375 7.505 4.9075 7.01 5.375 6.5 C7 5 7 5 9 5 C9 3.35 9 1.7 9 0 C12.35915158 1.43963639 14.71624938 3.12416589 17 6 C16.81367553 9.07435378 15.75085936 10.37371096 14 13 C14.42366794 20.76724552 15.86949005 30.30827779 20 37 C20.99 37.66 21.98 38.32 23 39 C24.11057754 41.32211668 25.06351938 43.60723014 26 46 C26.85120898 48.04290155 27.70558445 50.08448555 28.5625 52.125 C29.37832042 54.08195241 30.19099082 56.04022199 31 58 C31.37769531 58.88816406 31.75539062 59.77632812 32.14453125 60.69140625 C33.09888992 63.26686732 33.15569576 65.27532427 33 68 C29.73904595 63.10856893 27.41430934 57.7311646 24.875 52.4375 C24.31167969 51.27541016 23.74835938 50.11332031 23.16796875 48.91601562 C22.63558594 47.80806641 22.10320312 46.70011719 21.5546875 45.55859375 C21.06468262 44.54079834 20.57467773 43.52300293 20.06982422 42.47436523 C19 40 19 40 19 38 C17.79923828 37.62488281 17.79923828 37.62488281 16.57421875 37.2421875 C12.22548588 35.7308246 8.03043568 33.96542936 3.8125 32.125 C3.00619141 31.78597656 2.19988281 31.44695312 1.36914062 31.09765625 C-6.20516586 27.78586472 -6.20516586 27.78586472 -8 24 C-8.48387608 20.6647113 -8.19612315 17.35860892 -8 14 C-7.9690625 13.14792969 -7.938125 12.29585937 -7.90625 11.41796875 C-7.8546875 10.62003906 -7.803125 9.82210937 -7.75 9 C-7.70359375 8.278125 -7.6571875 7.55625 -7.609375 6.8125 C-7 5 -7 5 -5.0625 3.8515625 C-4.381875 3.57054687 -3.70125 3.28953125 -3 3 C-1.29078411 1.4587688 -1.29078411 1.4587688 0 0 Z " fill="#A97C64" transform="translate(92,150)"/>
<path d="M0 0 C1.4540625 0.0309375 1.4540625 0.0309375 2.9375 0.0625 C5.8125 6.6875 5.8125 6.6875 6.9375 10.0625 C5.9475 10.0625 4.9575 10.0625 3.9375 10.0625 C4.22947266 10.85914063 4.22947266 10.85914063 4.52734375 11.671875 C5.07632634 14.87165926 4.34786592 17.1923534 3.5 20.3125 C3.06880859 21.92898437 3.06880859 21.92898437 2.62890625 23.578125 C2.40074219 24.39796875 2.17257813 25.2178125 1.9375 26.0625 C0.9475 25.4025 -0.0425 24.7425 -1.0625 24.0625 C-1.3925 24.3925 -1.7225 24.7225 -2.0625 25.0625 C-1.0725 25.7225 -0.0825 26.3825 0.9375 27.0625 C0.6075 28.3825 0.2775 29.7025 -0.0625 31.0625 C-0.3925 30.0725 -0.7225 29.0825 -1.0625 28.0625 C-1.64 28.536875 -2.2175 29.01125 -2.8125 29.5 C-4.98832084 31.0109867 -6.48852448 31.60286151 -9.0625 32.0625 C-8.7325 33.0525 -8.4025 34.0425 -8.0625 35.0625 C-6.5775 34.5675 -6.5775 34.5675 -5.0625 34.0625 C-1.875 35 -1.875 35 0.9375 36.0625 C0.4575 40.6225 0.4575 40.6225 -1.6875 42.4375 C-5.18718938 43.35847089 -7.57017754 42.98153223 -11.0625 42.0625 C-14 39.9375 -14 39.9375 -16.0625 37.0625 C-16.41451103 33.60105822 -16.63185594 31.20121188 -15.0625 28.0625 C-15.7225 28.0625 -16.3825 28.0625 -17.0625 28.0625 C-17.76554222 26.33959395 -18.44933491 24.60882534 -19.125 22.875 C-19.50785156 21.91207031 -19.89070313 20.94914062 -20.28515625 19.95703125 C-21.13561603 16.79024384 -21.09664157 15.14925589 -20.0625 12.0625 C-17.86873676 9.58748507 -16.03334139 7.5479207 -13.0625 6.0625 C-10.7295134 6.02227609 -8.39543334 6.01929753 -6.0625 6.0625 C-5.753125 5.258125 -5.44375 4.45375 -5.125 3.625 C-3.65286145 0.07454819 -3.65286145 0.07454819 0 0 Z " fill="#D09C55" transform="translate(110.0625,45.9375)"/>
<path d="M0 0 C3 1 3 1 4 3 C4.99 2.34 5.98 1.68 7 1 C7.99 1 8.98 1 10 1 C10.12375 1.5775 10.2475 2.155 10.375 2.75 C10.89962189 4.99586765 10.89962189 4.99586765 12.03125 6.8046875 C13.92744018 11.10169912 13.32197711 15.58702328 12 20 C8.45707375 24.09171665 2.97807351 27.45140751 -2.375 28.4375 C-6.16232685 27.80627886 -8.09067879 25.43433 -11 23 C-14.22433127 22.126062 -14.22433127 22.126062 -17 22 C-17.8125 19.4375 -17.8125 19.4375 -18 16 C-16.61938689 13.41907773 -14.8985496 11.22044902 -13 9 C-12.67 10.32 -12.34 11.64 -12 13 C-12.66 13 -13.32 13 -14 13 C-14 13.99 -14 14.98 -14 16 C-12.35 15.67 -10.7 15.34 -9 15 C-8.67 13.35 -8.34 11.7 -8 10 C-6.68 10 -5.36 10 -4 10 C-3.855625 9.38125 -3.71125 8.7625 -3.5625 8.125 C-3 6 -3 6 -2 4 C-1.34 4 -0.68 4 0 4 C0 2.68 0 1.36 0 0 Z " fill="#8BBDDA" transform="translate(128,72)"/>
<path d="M0 0 C0.99 0.33 1.98 0.66 3 1 C3.01981934 1.61520508 3.03963867 2.23041016 3.06005859 2.86425781 C3.15549727 5.65992542 3.26509955 8.4548651 3.375 11.25 C3.4059375 12.21808594 3.436875 13.18617188 3.46875 14.18359375 C3.50742188 15.11816406 3.54609375 16.05273438 3.5859375 17.015625 C3.6173584 17.87446289 3.6487793 18.73330078 3.68115234 19.61816406 C4.2153122 23.60841181 5.60514953 25.60514953 8.4375 28.4375 C10.85093108 30.85093108 12.44809867 32.97787637 14 36 C14 36.66 14 37.32 14 38 C15.65 38.66 17.3 39.32 19 40 C19 40.66 19 41.32 19 42 C17.68 42 16.36 42 15 42 C15.47337332 45.62578134 15.95467791 49.25046578 16.4375 52.875 C16.57220703 53.90753906 16.70691406 54.94007813 16.84570312 56.00390625 C16.97783203 56.99003906 17.10996094 57.97617188 17.24609375 58.9921875 C17.36654053 59.90339355 17.4869873 60.81459961 17.61108398 61.75341797 C17.89362951 64.02733424 17.89362951 64.02733424 19 66 C19.04022391 68.3329866 19.04320247 70.66706666 19 73 C14.28750601 69.1443231 13.80379441 63.43657028 13.2109375 57.72265625 C13.0703125 56.24088542 12.9296875 54.75911458 12.7890625 53.27734375 C12.34149466 48.96371582 11.78114635 45.00757928 10 41 C9.01 40.67 8.02 40.34 7 40 C7 39.01 7 38.02 7 37 C6.34 37 5.68 37 5 37 C1.56749879 34.57426012 -0.28832071 31.81472243 -2 28 C-3.17977161 20.75302708 -3.07528203 13.32522772 -3 6 C-2.34 5.67 -1.68 5.34 -1 5 C-0.34444881 2.47266765 -0.34444881 2.47266765 0 0 Z " fill="#D5A890" transform="translate(112,153)"/>
<path d="M0 0 C1.5 1.3125 1.5 1.3125 3 3 C3 3.99 3 4.98 3 6 C4.32 6.33 5.64 6.66 7 7 C6.34 7.66 5.68 8.32 5 9 C5.33 9.99 5.66 10.98 6 12 C9.97754128 12.73334429 9.97754128 12.73334429 14 13 C13.71517632 14.41805831 13.42181856 15.83440379 13.125 17.25 C12.96257812 18.03890625 12.80015625 18.8278125 12.6328125 19.640625 C11.9974487 22.00951224 11.30017441 23.91972094 10 26 C7.375 26.75 7.375 26.75 5 27 C4.68511263 32.03819786 5.34821887 35.48617811 7.26953125 40.140625 C8.15164888 42.38601533 8.58165813 44.62939608 9 47 C9.33 47.66 9.66 48.32 10 49 C10.23333333 55.53333333 10.23333333 55.53333333 9 58 C8.34 58 7.68 58 7 58 C6.814375 56.4840625 6.814375 56.4840625 6.625 54.9375 C6.1022137 51.04258691 6.1022137 51.04258691 4.9375 47.5625 C3.86228293 43.47667514 3.85246808 40.20465983 4 36 C3.01 35.67 2.02 35.34 1 35 C0.80467039 33.2300132 0.61901118 31.45895721 0.4375 29.6875 C0.33308594 28.70136719 0.22867188 27.71523437 0.12109375 26.69921875 C0 24 0 24 1 21 C1.66 21 2.32 21 3 21 C2.89592083 17.59919423 2.89592083 17.59919423 2 14 C-0.4251788 12.00916823 -0.4251788 12.00916823 -3 11 C-2.83628906 11.69480469 -2.67257813 12.38960937 -2.50390625 13.10546875 C-1.95904004 16.2352816 -1.90261517 19.13798083 -1.9375 22.3125 C-1.94652344 23.38113281 -1.95554687 24.44976562 -1.96484375 25.55078125 C-1.97644531 26.35902344 -1.98804687 27.16726562 -2 28 C-2.33 28 -2.66 28 -3 28 C-5.18713932 7.45651278 -5.18713932 7.45651278 0 0 Z " fill="#45552C" transform="translate(93,92)"/>
<path d="M0 0 C0.66 0 1.32 0 2 0 C2.54312294 6.38169451 0.80394205 10.33774583 -2 16 C-3.36628716 18.8067586 -4.71770373 21.62038631 -6.0625 24.4375 C-6.41658936 25.17532715 -6.77067871 25.9131543 -7.13549805 26.67333984 C-9.39114889 31.45670119 -11.16864525 36.13412021 -12.33203125 41.3125 C-12.55246094 41.869375 -12.77289063 42.42625 -13 43 C-14.485 43.495 -14.485 43.495 -16 44 C-16 41.36 -16 38.72 -16 36 C-19.3 35.67 -22.6 35.34 -26 35 C-24.62586868 30.64095009 -22.74217187 28.58176972 -19.25 25.6875 C-15.24364089 22.23693637 -12.09636145 18.81812041 -9.15625 14.43359375 C-8.7746875 13.96050781 -8.393125 13.48742188 -8 13 C-7.34 13 -6.68 13 -6 13 C-5.7525 12.154375 -5.505 11.30875 -5.25 10.4375 C-3.86026373 6.61572526 -2.08879162 3.48131937 0 0 Z " fill="#F1F8F8" transform="translate(167,17)"/>
<path d="M0 0 C0.66 0.66 1.32 1.32 2 2 C1.34 2 0.68 2 0 2 C0 1.34 0 0.68 0 0 Z M-1 2 C-0.67 2 -0.34 2 0 2 C0.92265159 5.73489364 1.07976378 9.29349147 1.13891602 13.13061523 C1.12431432 21.42096816 1.12431432 21.42096816 5.0625 28.4375 C6.031875 29.283125 7.00125 30.12875 8 31 C8 31.66 8 32.32 8 33 C8.66 33 9.32 33 10 33 C10.33 33.99 10.66 34.98 11 36 C11.474375 36.474375 11.94875 36.94875 12.4375 37.4375 C15.46464133 40.46464133 16.26922597 43.67993197 16.78125 47.84375 C16.90113281 48.76027344 17.02101563 49.67679688 17.14453125 50.62109375 C17.38151042 52.54036458 17.61848958 54.45963542 17.85546875 56.37890625 C17.97535156 57.29542969 18.09523438 58.21195313 18.21875 59.15625 C18.32123047 59.98962891 18.42371094 60.82300781 18.52929688 61.68164062 C19.0146329 64.0720716 19.81216738 65.88043831 21 68 C21.07427838 64.65747276 21.06546953 62.1964086 20 59 C21.65 59 23.3 59 25 59 C26.25433458 62.76300374 26.10695422 66.27210909 26.0625 70.1875 C26.05798828 70.93708984 26.05347656 71.68667969 26.04882812 72.45898438 C26.03706354 74.30602383 26.01912865 76.15302213 26 78 C24.515 78.495 24.515 78.495 23 79 C22.505 78.01 22.505 78.01 22 77 C19.525 77.495 19.525 77.495 17 78 C17.33 76.35 17.66 74.7 18 73 C18.66 73 19.32 73 20 73 C19.73445313 72.38253906 19.46890625 71.76507813 19.1953125 71.12890625 C17.49106355 67.04244071 15.90745955 63.10605359 15.0625 58.75 C13.47728555 50.83808147 11.08086023 42.35469414 6 36 C5.835 35.29875 5.67 34.5975 5.5 33.875 C5.11426598 31.59876637 5.11426598 31.59876637 2 30 C-0.48120815 25.78071782 -1.732737 21.70721783 -2.75 16.9375 C-3.01296875 15.75027344 -3.2759375 14.56304687 -3.546875 13.33984375 C-4.20169386 8.51337715 -3.69584902 6.04377353 -1 2 Z " fill="#C5957A" transform="translate(109,157)"/>
<path d="M0 0 C4.875 1.875 4.875 1.875 6 3 C6.04092937 5.33297433 6.04241723 7.66705225 6 10 C5.34 10 4.68 10 4 10 C4.11341637 12.31309705 4.24103807 14.62550185 4.375 16.9375 C4.44460937 18.22527344 4.51421875 19.51304688 4.5859375 20.83984375 C4.72257812 21.88269531 4.85921875 22.92554688 5 24 C5.66 24.33 6.32 24.66 7 25 C7.5625 27.00390625 7.5625 27.00390625 8 29.5625 C8.58921014 32.84056596 9.24293558 36.03854009 10.125 39.25 C10.92301534 42.67006574 11.17450581 45.50988374 11 49 C10.01 49.495 10.01 49.495 9 50 C7.35 48.35 5.7 46.7 4 45 C2.68 45.66 1.36 46.32 0 47 C-1.29032727 43.12901819 -1.14286046 39.46321748 -1.1328125 35.4296875 C-1.13376923 34.59285431 -1.13472595 33.75602112 -1.13571167 32.89382935 C-1.13639173 31.1269727 -1.13454957 29.36011355 -1.13037109 27.59326172 C-1.12500696 24.87852423 -1.13032883 22.16395118 -1.13671875 19.44921875 C-1.1360582 17.73437463 -1.13477752 16.01953062 -1.1328125 14.3046875 C-1.13483673 13.48805634 -1.13686096 12.67142517 -1.13894653 11.83004761 C-1.11495964 6.11495964 -1.11495964 6.11495964 0 5 C0.04063832 3.33382885 0.042721 1.66611905 0 0 Z " fill="#344D27" transform="translate(90,103)"/>
<path d="M0 0 C0.33 0.66 0.66 1.32 1 2 C3.11846285 2.68729254 3.11846285 2.68729254 5.5625 3.125 C6.38878906 3.29257812 7.21507812 3.46015625 8.06640625 3.6328125 C8.70449219 3.75398438 9.34257812 3.87515625 10 4 C12.13130095 11.80880013 10.36919272 18.10385122 7.75 25.5 C7.28194946 26.82692871 7.28194946 26.82692871 6.80444336 28.18066406 C4.21401138 35.13755655 4.21401138 35.13755655 1 38 C1.76795035 34.04095497 2.64991306 30.11559159 3.5625 26.1875 C3.83191406 25.02605469 4.10132813 23.86460938 4.37890625 22.66796875 C4.58386719 21.78753906 4.78882813 20.90710938 5 20 C4.34 20 3.68 20 3 20 C3.33 18.02 3.66 16.04 4 14 C3.01 15.485 3.01 15.485 2 17 C1.34 17.99 0.68 18.98 0 20 C-1 19 -1 19 -1.0625 16.4375 C-1.041875 15.633125 -1.02125 14.82875 -1 14 C-1.33 14.33 -1.66 14.66 -2 15 C-3.66617115 15.04063832 -5.33388095 15.042721 -7 15 C-7 16.98 -7 18.96 -7 21 C-9.61889148 19.14495187 -9.99745565 18.0129762 -10.625 14.8125 C-9.73904849 9.40819577 -6.80809883 6.75101812 -3 3 C-2.42894531 2.42765625 -1.85789063 1.8553125 -1.26953125 1.265625 C-0.85058594 0.84796875 -0.43164062 0.4303125 0 0 Z " fill="#B3DEF2" transform="translate(141,49)"/>
<path d="M0 0 C1.4540625 0.0309375 1.4540625 0.0309375 2.9375 0.0625 C5.8125 6.6875 5.8125 6.6875 6.9375 10.0625 C5.9475 10.0625 4.9575 10.0625 3.9375 10.0625 C4.22947266 10.85914063 4.22947266 10.85914063 4.52734375 11.671875 C5.07632634 14.87165926 4.34786592 17.1923534 3.5 20.3125 C3.06880859 21.92898437 3.06880859 21.92898437 2.62890625 23.578125 C2.40074219 24.39796875 2.17257813 25.2178125 1.9375 26.0625 C1.2775 25.7325 0.6175 25.4025 -0.0625 25.0625 C-0.46979228 22.74093403 -0.80688677 20.4056213 -1.0625 18.0625 C-1.3925 19.7125 -1.7225 21.3625 -2.0625 23.0625 C-2.7225 22.7325 -3.3825 22.4025 -4.0625 22.0625 C-3.4025 18.7625 -2.7425 15.4625 -2.0625 12.0625 C-3.0525 11.7325 -4.0425 11.4025 -5.0625 11.0625 C-5.0625 13.3725 -5.0625 15.6825 -5.0625 18.0625 C-5.3925 18.0625 -5.7225 18.0625 -6.0625 18.0625 C-6.3925 15.4225 -6.7225 12.7825 -7.0625 10.0625 C-7.7225 10.7225 -8.3825 11.3825 -9.0625 12.0625 C-9.0625 11.0725 -9.0625 10.0825 -9.0625 9.0625 C-10.0525 9.0625 -11.0425 9.0625 -12.0625 9.0625 C-12.0625 10.0525 -12.0625 11.0425 -12.0625 12.0625 C-13.7125 11.7325 -15.3625 11.4025 -17.0625 11.0625 C-15.67439751 17.28664458 -15.67439751 17.28664458 -13.0625 23.0625 C-13.7225 23.7225 -14.3825 24.3825 -15.0625 25.0625 C-15.7225 26.0525 -16.3825 27.0425 -17.0625 28.0625 C-17.76554222 26.33959395 -18.44933491 24.60882534 -19.125 22.875 C-19.50785156 21.91207031 -19.89070313 20.94914062 -20.28515625 19.95703125 C-21.13561603 16.79024384 -21.09664157 15.14925589 -20.0625 12.0625 C-17.86873676 9.58748507 -16.03334139 7.5479207 -13.0625 6.0625 C-10.7295134 6.02227609 -8.39543334 6.01929753 -6.0625 6.0625 C-5.753125 5.258125 -5.44375 4.45375 -5.125 3.625 C-3.65286145 0.07454819 -3.65286145 0.07454819 0 0 Z " fill="#F1BC6B" transform="translate(110.0625,45.9375)"/>
<path d="M0 0 C2.13023887 3.59764855 2.67008815 7.11273405 3.32421875 11.21484375 C3.43474075 11.90759903 3.54526276 12.60035431 3.65913391 13.31410217 C3.89013841 14.77519768 4.11770432 16.23684048 4.34204102 17.69897461 C4.68606926 19.92822903 5.04643498 22.15442359 5.40820312 24.38085938 C5.63120367 25.80453195 5.85324102 27.2283558 6.07421875 28.65234375 C6.27619873 29.94132568 6.47817871 31.23030762 6.6862793 32.55834961 C6.97340064 35.70819358 6.8273689 37.97331437 6 41 C5.319375 40.525625 4.63875 40.05125 3.9375 39.5625 C0.57777397 37.77541169 -2.24871792 37.45510254 -6 37 C-5.88930176 36.44763672 -5.77860352 35.89527344 -5.66455078 35.32617188 C-3.32700132 23.58247907 -1.28019078 11.90914322 0 0 Z " fill="#9DCFEA" transform="translate(115,8)"/>
<path d="M0 0 C0.33 0 0.66 0 1 0 C1.33 3.96 1.66 7.92 2 12 C2.99 12.33 3.98 12.66 5 13 C5.763125 12.21625 6.52625 11.4325 7.3125 10.625 C10 8 10 8 13 6 C11.125 11.75 11.125 11.75 10 14 C11.65 14 13.3 14 15 14 C15.66 15.32 16.32 16.64 17 18 C15.02 18.33 13.04 18.66 11 19 C11.66 19.61875 12.32 20.2375 13 20.875 C15 23 15 23 15 25 C9.12288378 25.48975968 4.90388227 24.37071448 0 21 C-3.77712575 15.33431137 -2.24136083 7.4826621 -1 1 C-0.67 0.67 -0.34 0.34 0 0 Z " fill="#A87452" transform="translate(86,156)"/>
<path d="M0 0 C0 1.32 0 2.64 0 4 C0.97839844 3.91298828 0.97839844 3.91298828 1.9765625 3.82421875 C6.44478367 3.59355837 9.23234874 3.56349242 13.1875 5.8125 C17.27931774 9.85768733 20.05865903 15.10281891 23 20 C23.66 20.99 24.32 21.98 25 23 C25 23.99 25 24.98 25 26 C21.58841744 24.86280581 20.88145399 23.95657056 19 21 C19 20.34 19 19.68 19 19 C18.40445313 18.9175 17.80890625 18.835 17.1953125 18.75 C14.34057692 17.77471667 13.55819458 16.46751037 11.875 14 C9.89926624 10.97716106 9.89926624 10.97716106 7 9 C7 9.66 7 10.32 7 11 C5.02 11.33 3.04 11.66 1 12 C0.67 11.360625 0.34 10.72125 0 10.0625 C-3.02329832 6.9447236 -5.73656724 7.27956936 -10 7 C-10 6.34 -10 5.68 -10 5 C-8.3203125 3.7109375 -8.3203125 3.7109375 -6.125 2.375 C-5.40570313 1.92898437 -4.68640625 1.48296875 -3.9453125 1.0234375 C-2 0 -2 0 0 0 Z " fill="#F0C5A5" transform="translate(107,90)"/>
<path d="M0 0 C1.75 0.125 1.75 0.125 4 1 C6.125 3.9375 6.125 3.9375 8 7 C8.66 7.66 9.32 8.32 10 9 C5.30242923 14.66948197 -1.21788919 18.27900483 -8.5390625 19.3828125 C-12.76360589 19.48171485 -16.18899941 18.96696804 -20 17 C-19.34 15.35 -18.68 13.7 -18 12 C-17.278125 12.309375 -16.55625 12.61875 -15.8125 12.9375 C-12.00064831 14.4138916 -12.00064831 14.4138916 -8 15 C-5.30566683 13.12802546 -5.30566683 13.12802546 -3 11 C-2.34 11 -1.68 11 -1 11 C-0.34 9.68 0.32 8.36 1 7 C1.66 7 2.32 7 3 7 C2.01 4.69 1.02 2.38 0 0 Z " fill="#CFA882" transform="translate(122,108)"/>
<path d="M0 0 C3.11795477 1.27916093 4.59959667 2.13287081 6.4375 5 C6.18800911 8.05329332 5.67532314 11.76217686 3.4375 14 C0.3652059 14.49231488 -2.50275092 14.5937625 -5.5625 14 C-8.125 11 -8.125 11 -9.5625 8 C-7.83545542 3.60388653 -4.99108505 0 0 0 Z " fill="#B0C8D4" transform="translate(115.5625,105)"/>
<path d="M0 0 C0.33 0 0.66 0 1 0 C1.01981934 0.58491211 1.03963867 1.16982422 1.06005859 1.77246094 C1.15553481 4.43208025 1.26512142 7.09093838 1.375 9.75 C1.4059375 10.67039063 1.436875 11.59078125 1.46875 12.5390625 C1.50742188 13.42851562 1.54609375 14.31796875 1.5859375 15.234375 C1.6173584 16.05131836 1.6487793 16.86826172 1.68115234 17.70996094 C2.22825989 21.63941634 3.64695981 23.64695981 6.4375 26.4375 C8.85093108 28.85093108 10.44809867 30.97787637 12 34 C12 34.66 12 35.32 12 36 C13.65 36.66 15.3 37.32 17 38 C17 38.66 17 39.32 17 40 C15.68 40 14.36 40 13 40 C13 42.97 13 45.94 13 49 C12.67 49 12.34 49 12 49 C11.81824219 48.34773438 11.63648437 47.69546875 11.44921875 47.0234375 C8.92531472 37.96666301 8.92531472 37.96666301 3.4375 30.5 C-1.13343145 25.81186518 -1.2384258 20.70596375 -1.22460938 14.4609375 C-1.21236328 13.56632813 -1.20011719 12.67171875 -1.1875 11.75 C-1.18685547 10.83992187 -1.18621094 9.92984375 -1.18554688 8.9921875 C-1.14074248 2.28148496 -1.14074248 2.28148496 0 0 Z " fill="#F2E4D3" transform="translate(114,155)"/>
<path d="M0 0 C2.31 0 4.62 0 7 0 C7.33 1.65 7.66 3.3 8 5 C8.66 4.67 9.32 4.34 10 4 C10 4.99 10 5.98 10 7 C10.33 7.99 10.66 8.98 11 10 C10.96336778 12.29374037 10.84956782 14.58669914 10.6875 16.875 C10.56955078 18.69644531 10.56955078 18.69644531 10.44921875 20.5546875 C10.03581531 23.72531215 9.3420639 26.11867097 8 29 C7.01 28.67 6.02 28.34 5 28 C5 29.32 5 30.64 5 32 C3.68 31.67 2.36 31.34 1 31 C1 30.01 1 29.02 1 28 C-0.43750191 26.31201173 -0.43750191 26.31201173 -2 25 C-1.34 25 -0.68 25 0 25 C0.33 24.01 0.66 23.02 1 22 C1.33 23.32 1.66 24.64 2 26 C2.50636607 24.25183142 3.00484619 22.50137737 3.5 20.75 C3.91765625 19.28820312 3.91765625 19.28820312 4.34375 17.796875 C5.15228866 14.82976587 5.15228866 14.82976587 5 11 C5.99 11 6.98 11 8 11 C7.525625 10.443125 7.05125 9.88625 6.5625 9.3125 C5 7 5 7 4.5625 4.375 C4.24928429 1.82191056 4.24928429 1.82191056 1.9375 0.6875 C1.298125 0.460625 0.65875 0.23375 0 0 Z " fill="#F2D37B" transform="translate(109,45)"/>
<path d="M0 0 C1.03444249 2.57861025 2.05272284 5.16174635 3.0625 7.75 C3.35705078 8.47960937 3.65160156 9.20921875 3.95507812 9.9609375 C4.22900391 10.66992188 4.50292969 11.37890625 4.78515625 12.109375 C5.04176025 12.75874023 5.29836426 13.40810547 5.56274414 14.07714844 C6.08330284 16.36632786 5.72364304 17.79256664 5 20 C4.01 20 3.02 20 2 20 C1.319375 20.185625 0.63875 20.37125 -0.0625 20.5625 C-2 21 -2 21 -4 20 C-4 18.35 -4 16.7 -4 15 C-2.35 15.33 -0.7 15.66 1 16 C1 15.01 1 14.02 1 13 C0.40703125 12.90847656 -0.1859375 12.81695312 -0.796875 12.72265625 C-3.52534657 11.82767887 -4.47125041 10.66093699 -6.25 8.4375 C-6.77078125 7.79683594 -7.2915625 7.15617188 -7.828125 6.49609375 C-8.21484375 6.00238281 -8.6015625 5.50867188 -9 5 C-7.68 5 -6.36 5 -5 5 C-5 4.34 -5 3.68 -5 3 C-5.99 2.67 -6.98 2.34 -8 2 C-4.77208445 -0.1519437 -3.71599191 -0.20086443 0 0 Z " fill="#A6BF70" transform="translate(136,190)"/>
<path d="M0 0 C0.66 0.33 1.32 0.66 2 1 C2 2.65 2 4.3 2 6 C2.66 4.35 3.32 2.7 4 1 C4.99 1 5.98 1 7 1 C6.49396008 3.16874252 6.00016187 4.99967627 5 7 C5.66 7 6.32 7 7 7 C7.34484718 11.59796235 6.49786373 14.79050343 4.80078125 18.96484375 C3.63726207 21.92188518 2.83024443 24.93448209 2 28 C1.67 28 1.34 28 1 28 C1.01160156 27.39671875 1.02320313 26.7934375 1.03515625 26.171875 C1.04417969 25.37265625 1.05320313 24.5734375 1.0625 23.75 C1.07410156 22.96109375 1.08570313 22.1721875 1.09765625 21.359375 C1.00153761 19.03714857 0.84012695 17.1699279 0 15 C-0.99 14.67 -1.98 14.34 -3 14 C-2.34 14 -1.68 14 -1 14 C-1 13.01 -1 12.02 -1 11 C-1.99 11 -2.98 11 -4 11 C-3.67 9.68 -3.34 8.36 -3 7 C-3 7.66 -3 8.32 -3 9 C-2.34 9 -1.68 9 -1 9 C-1 7.35 -1 5.7 -1 4 C-2.32 4 -3.64 4 -5 4 C-5 3.34 -5 2.68 -5 2 C-3.35 2 -1.7 2 0 2 C0 1.34 0 0.68 0 0 Z " fill="#A0CEE6" transform="translate(139,62)"/>
<path d="M0 0 C0.33 0.66 0.66 1.32 1 2 C3.11846285 2.68729254 3.11846285 2.68729254 5.5625 3.125 C6.38878906 3.29257812 7.21507812 3.46015625 8.06640625 3.6328125 C8.70449219 3.75398438 9.34257812 3.87515625 10 4 C9.67 5.65 9.34 7.3 9 9 C8.67 8.34 8.34 7.68 8 7 C8.33 6.34 8.66 5.68 9 5 C7.700625 5.12375 6.40125 5.2475 5.0625 5.375 C4.33160156 5.44460937 3.60070312 5.51421875 2.84765625 5.5859375 C2.23792969 5.72257812 1.62820312 5.85921875 1 6 C0.67 6.66 0.34 7.32 0 8 C1.32 7.67 2.64 7.34 4 7 C4 8.65 4 10.3 4 12 C2.02 12 0.04 12 -2 12 C-2.33 12.99 -2.66 13.98 -3 15 C-4.32 15 -5.64 15 -7 15 C-7 16.98 -7 18.96 -7 21 C-9.61889148 19.14495187 -9.99745565 18.0129762 -10.625 14.8125 C-9.73904849 9.40819577 -6.80809883 6.75101812 -3 3 C-2.42894531 2.42765625 -1.85789063 1.8553125 -1.26953125 1.265625 C-0.85058594 0.84796875 -0.43164062 0.4303125 0 0 Z " fill="#B8DFF0" transform="translate(141,49)"/>
<path d="M0 0 C2.89932357 2.39509338 3.50168276 4.31245243 4 8 C4.45375 7.505 4.9075 7.01 5.375 6.5 C7 5 7 5 9 5 C9 3.35 9 1.7 9 0 C12.35915158 1.43963639 14.71624938 3.12416589 17 6 C17 8.96930008 16.00273133 9.99682814 14.0625 12.25 C12 14 12 14 10 14 C9.67 12.35 9.34 10.7 9 9 C7.02 9.33 5.04 9.66 3 10 C3 9.34 3 8.68 3 8 C0.69 8 -1.62 8 -4 8 C-3.40138258 5.64828869 -2.73075648 3.3140622 -2 1 C-1.34 0.67 -0.68 0.34 0 0 Z " fill="#93643F" transform="translate(92,150)"/>
<path d="M0 0 C0.66 0 1.32 0 2 0 C2.19551338 1.60320974 2.38111983 3.20762986 2.5625 4.8125 C2.66691406 5.70582031 2.77132812 6.59914063 2.87890625 7.51953125 C3 10 3 10 2 13 C2.99 13.99 3.98 14.98 5 16 C4.34 16.33 3.68 16.66 3 17 C3 18.65 3 20.3 3 22 C1.68 22.33 0.36 22.66 -1 23 C-2.5625 21.3125 -2.5625 21.3125 -4 19 C-3.6875 16.375 -3.6875 16.375 -3 14 C-2.83462035 11.95348697 -2.83462035 11.95348697 -4 10.25 C-5.26713458 7.39894719 -5.1402539 5.08558586 -5 2 C-2.525 2.495 -2.525 2.495 0 3 C0 2.01 0 1.02 0 0 Z " fill="#B68060" transform="translate(98,55)"/>
<path d="M0 0 C3 1 3 1 4 3 C4.99 2.34 5.98 1.68 7 1 C7.99 1 8.98 1 10 1 C11 5 11 5 12 9 C11.01 9 10.02 9 9 9 C9 9.99 9 10.98 9 12 C6.525 11.01 6.525 11.01 4 10 C4 10.66 4 11.32 4 12 C1.69 12.33 -0.62 12.66 -3 13 C-3.625 10.1875 -3.625 10.1875 -4 7 C-3.34 6.01 -2.68 5.02 -2 4 C-1.34 4 -0.68 4 0 4 C0 2.68 0 1.36 0 0 Z " fill="#89C3E1" transform="translate(128,72)"/>
<path d="M0 0 C0.96003573 2.8801072 1.07845802 4.58599883 1 7.5625 C0.87044355 10.91281982 0.87044355 10.91281982 2 14 C3.32 13.34 4.64 12.68 6 12 C6.99 13.485 6.99 13.485 8 15 C8.66 14.67 9.32 14.34 10 14 C12 17 12 17 12 20 C11.34 20 10.68 20 10 20 C9.67 20.99 9.34 21.98 9 23 C8.34 23 7.68 23 7 23 C6.01 20.69 5.02 18.38 4 16 C3.01 16 2.02 16 1 16 C0.67 16.99 0.34 17.98 0 19 C-2.0625 19.6875 -2.0625 19.6875 -4 20 C-4 8.625 -4 8.625 -2 4.3125 C-1.62875 3.50425781 -1.2575 2.69601563 -0.875 1.86328125 C-0.58625 1.24839844 -0.2975 0.63351563 0 0 Z " fill="#445B32" transform="translate(89,135)"/>
<path d="M0 0 C1.9451 2.91765 2.45276317 4.62537285 3 8 C3.33 7.01 3.66 6.02 4 5 C5.32 5 6.64 5 8 5 C8 6.65 8 8.3 8 10 C7.34 10 6.68 10 6 10 C5.731875 10.639375 5.46375 11.27875 5.1875 11.9375 C4 14 4 14 1 15 C0.67 14.01 0.34 13.02 0 12 C-0.66 11.67 -1.32 11.34 -2 11 C-2 12.32 -2 13.64 -2 15 C-3.32 15.33 -4.64 15.66 -6 16 C-6.85524192 13.07144433 -7.19396303 11.50004816 -6.07421875 8.61328125 C-5.61660156 7.85402344 -5.15898438 7.09476562 -4.6875 6.3125 C-4.23761719 5.54550781 -3.78773437 4.77851562 -3.32421875 3.98828125 C-2 2 -2 2 0 0 Z " fill="#A9D4EB" transform="translate(130,61)"/>
<path d="M0 0 C0.33 0.99 0.66 1.98 1 3 C-0.95531865 4.9822267 -2.91405666 6.96085116 -4.875 8.9375 C-5.43058594 9.50146484 -5.98617187 10.06542969 -6.55859375 10.64648438 C-10.7734375 14.88671875 -10.7734375 14.88671875 -13 16 C-11.68 16.33 -10.36 16.66 -9 17 C-9 16.34 -9 15.68 -9 15 C-8.01 14.67 -7.02 14.34 -6 14 C-6 15.65 -6 17.3 -6 19 C-4.35 18.34 -2.7 17.68 -1 17 C-1.42188459 18.8161982 -1.86299165 20.62794073 -2.3125 22.4375 C-2.55613281 23.44683594 -2.79976562 24.45617187 -3.05078125 25.49609375 C-3.36402344 26.32238281 -3.67726562 27.14867188 -4 28 C-4.99 28.33 -5.98 28.66 -7 29 C-7 26.36 -7 23.72 -7 21 C-10.3 20.67 -13.6 20.34 -17 20 C-15.62013031 15.61371033 -13.68023078 13.50016412 -10.1875 10.5625 C-6.36356627 7.25322016 -3.07874355 4.00236662 0 0 Z " fill="#E1EDED" transform="translate(158,32)"/>
<path d="M0 0 C0.47050781 0.42152344 0.94101563 0.84304687 1.42578125 1.27734375 C2.35970703 2.09912109 2.35970703 2.09912109 3.3125 2.9375 C4.23482422 3.75541016 4.23482422 3.75541016 5.17578125 4.58984375 C7.05241958 6.20081559 7.05241958 6.20081559 10 7 C10 7.99 10 8.98 10 10 C8.68 10 7.36 10 6 10 C5.67 11.32 5.34 12.64 5 14 C6.65 14.33 8.3 14.66 10 15 C8.125 18.875 8.125 18.875 7 20 C5.33382885 20.04063832 3.66611905 20.042721 2 20 C1.66361334 17.41703099 1.3307835 14.83368737 1 12.25 C0.90460938 11.52039063 0.80921875 10.79078125 0.7109375 10.0390625 C0.27978452 6.65143196 0 3.42145141 0 0 Z " fill="#4B8636" transform="translate(127,196)"/>
<path d="M0 0 C1.32 0 2.64 0 4 0 C3.67 2.97 3.34 5.94 3 9 C2.34 9 1.68 9 1 9 C0.67 9.66 0.34 10.32 0 11 C-1.4375 12.625 -1.4375 12.625 -3 14 C-3.66 14 -4.32 14 -5 14 C-5.12375 13.360625 -5.2475 12.72125 -5.375 12.0625 C-5.58125 11.381875 -5.7875 10.70125 -6 10 C-6.66 9.67 -7.32 9.34 -8 9 C-6.68 8.34 -5.36 7.68 -4 7 C-4 6.34 -4 5.68 -4 5 C-8.455 6.485 -8.455 6.485 -13 8 C-12.67 6.68 -12.34 5.36 -12 4 C-8.535 3.505 -8.535 3.505 -5 3 C-5 2.34 -5 1.68 -5 1 C-2.525 1.99 -2.525 1.99 0 3 C0 2.01 0 1.02 0 0 Z " fill="#80B5D7" transform="translate(137,81)"/>
<path d="M0 0 C3.10000819 1.06478542 3.97462191 1.95797481 5.703125 4.8203125 C6.21359375 5.91085938 6.7240625 7.00140625 7.25 8.125 C8.03117187 9.76855469 8.03117187 9.76855469 8.828125 11.4453125 C9.40820312 12.70988281 9.40820312 12.70988281 10 14 C10.33 14 10.66 14 11 14 C11.13277344 15.20398438 11.26554688 16.40796875 11.40234375 17.6484375 C11.5805302 19.22398085 11.7589265 20.79950047 11.9375 22.375 C12.02451172 23.1690625 12.11152344 23.963125 12.20117188 24.78125 C12.6038935 29.02255001 12.6038935 29.02255001 14 33 C14.04022391 35.3329866 14.04320247 37.66706666 14 40 C9.28750601 36.1443231 8.80379441 30.43657028 8.2109375 24.72265625 C8.0703125 23.24088542 7.9296875 21.75911458 7.7890625 20.27734375 C7.34149466 15.96371582 6.78114635 12.00757928 5 8 C4.01 7.67 3.02 7.34 2 7 C2 6.01 2 5.02 2 4 C1.34 4 0.68 4 0 4 C0 2.68 0 1.36 0 0 Z " fill="#DBCAAE" transform="translate(117,186)"/>
<path d="M0 0 C1.65 0 3.3 0 5 0 C6.25433458 3.76300374 6.10695422 7.27210909 6.0625 11.1875 C6.05798828 11.93708984 6.05347656 12.68667969 6.04882812 13.45898438 C6.03706354 15.30602383 6.01912865 17.15302213 6 19 C5.01 19.33 4.02 19.66 3 20 C2.67 19.34 2.34 18.68 2 18 C0.35 18.33 -1.3 18.66 -3 19 C-2.67 17.35 -2.34 15.7 -2 14 C-0.68 13.67 0.64 13.34 2 13 C1.85851011 11.3954444 1.71164314 9.79136233 1.5625 8.1875 C1.48128906 7.29417969 1.40007812 6.40085938 1.31640625 5.48046875 C1.06510233 2.87256441 1.06510233 2.87256441 0 0 Z " fill="#A8AA87" transform="translate(129,216)"/>
<path d="M0 0 C0.99 0 1.98 0 3 0 C2.67 1.32 2.34 2.64 2 4 C2.763125 3.773125 3.52625 3.54625 4.3125 3.3125 C7 3 7 3 8.875 4 C10.68711068 7.2215301 9.94349922 9.54050286 9 13 C7 14.3125 7 14.3125 5 15 C4.67 15.66 4.34 16.32 4 17 C4 16.34 4 15.68 4 15 C3.01 14.67 2.02 14.34 1 14 C0.83165067 12.22932584 0.66538091 10.45845388 0.5 8.6875 C0.4071875 7.70136719 0.314375 6.71523437 0.21875 5.69921875 C0 3 0 3 0 0 Z " fill="#A76D49" transform="translate(86,154)"/>
<path d="M0 0 C0 0.99 0 1.98 0 3 C-0.66 3 -1.32 3 -2 3 C-1.67 4.65 -1.34 6.3 -1 8 C0.093125 7.938125 1.18625 7.87625 2.3125 7.8125 C6 8 6 8 7.9375 9.5 C8.288125 9.995 8.63875 10.49 9 11 C6.69 11.33 4.38 11.66 2 12 C2.11458693 13.43836751 2.24209116 14.87570966 2.375 16.3125 C2.44460937 17.11300781 2.51421875 17.91351563 2.5859375 18.73828125 C2.89564426 21.27224441 2.89564426 21.27224441 5 24 C4.7578125 26.26171875 4.7578125 26.26171875 4.125 28.6875 C3.92132813 29.49574219 3.71765625 30.30398437 3.5078125 31.13671875 C3.34023437 31.75160156 3.17265625 32.36648437 3 33 C2.34 32.67 1.68 32.34 1 32 C1 28.37 1 24.74 1 21 C0.34 20.67 -0.32 20.34 -1 20 C-0.9071875 18.9790625 -0.9071875 18.9790625 -0.8125 17.9375 C-0.83338093 14.82658637 -0.83338093 14.82658637 -2.5625 11.625 C-4.19462365 7.50920992 -3.9561375 5.25915793 -3 1 C-2.01 0.67 -1.02 0.34 0 0 Z " fill="#7F9148" transform="translate(101,118)"/>
<path d="M0 0 C6.68661582 2.04313261 9.48144844 7.55591825 13.25 13.125 C13.95640625 14.15882812 14.6628125 15.19265625 15.390625 16.2578125 C17 19 17 19 17 22 C13.58841744 20.86280581 12.88145399 19.95657056 11 17 C11 16.34 11 15.68 11 15 C10.39414063 14.89945313 9.78828125 14.79890625 9.1640625 14.6953125 C5.40649239 13.48800658 3.85232107 10.3315598 2 7 C1.11838831 4.66259874 0.54936211 2.44715847 0 0 Z " fill="#F2E1CA" transform="translate(115,94)"/>
<path d="M0 0 C0 0.99 0 1.98 0 3 C0.99 3 1.98 3 3 3 C4.25 10.625 4.25 10.625 2 14 C1.83300768 17.12521833 1.83300768 17.12521833 2 20 C0.68 20 -0.64 20 -2 20 C-2.1875 17.6875 -2.1875 17.6875 -2 15 C-0.5625 13.4375 -0.5625 13.4375 1 12 C1.71447643 9.89667109 1.71447643 9.89667109 2 8 C1.05125 7.855625 0.1025 7.71125 -0.875 7.5625 C-4 7 -4 7 -6 6 C-6.33 6.66 -6.66 7.32 -7 8 C-7.33 6.68 -7.66 5.36 -8 4 C-2.25 0 -2.25 0 0 0 Z " fill="#EED6C4" transform="translate(109,74)"/>
<path d="M0 0 C2.97 0.495 2.97 0.495 6 1 C5.34 1.66 4.68 2.32 4 3 C3.01 3 2.02 3 1 3 C0.68511263 8.03819786 1.34821887 11.48617811 3.26953125 16.140625 C4.15164888 18.38601533 4.58165813 20.62939608 5 23 C5.33 23.66 5.66 24.32 6 25 C6.23333333 31.53333333 6.23333333 31.53333333 5 34 C4.34 34 3.68 34 3 34 C2.87625 32.989375 2.7525 31.97875 2.625 30.9375 C2.10434561 27.07301533 2.10434561 27.07301533 1.00390625 23.73046875 C-0.03297919 19.87745087 -0.440404 16.3528405 -0.6875 12.375 C-0.77386719 11.10398437 -0.86023438 9.83296875 -0.94921875 8.5234375 C-0.99339449 5.45832105 -0.7526994 2.95420364 0 0 Z " fill="#586632" transform="translate(97,116)"/>
<path d="M0 0 C3.53103646 5.88506076 3.14149528 12.79581991 3.0625 19.4375 C3.05798828 20.16904297 3.05347656 20.90058594 3.04882812 21.65429688 C3.03718148 23.43623419 3.01925191 25.21812863 3 27 C2.01 27 1.02 27 0 27 C-1.87663669 20.29772609 -2.06545979 14.37141334 -1.0625 7.5625 C-0.96259766 6.83095703 -0.86269531 6.09941406 -0.75976562 5.34570312 C-0.51502767 3.56261231 -0.25872147 1.78111558 0 0 Z " fill="#85BCDB" transform="translate(115,8)"/>
<path d="M0 0 C0.99 0.495 0.99 0.495 2 1 C2.33 1.99 2.66 2.98 3 4 C3.99 4.66 4.98 5.32 6 6 C7.11057754 8.32211668 8.06351938 10.60723014 9 13 C9.85120898 15.04290155 10.70558445 17.08448555 11.5625 19.125 C12.37832042 21.08195241 13.19099082 23.04022199 14 25 C14.37769531 25.88816406 14.75539063 26.77632812 15.14453125 27.69140625 C16.09888992 30.26686732 16.15569576 32.27532427 16 35 C12.95204867 30.428073 10.73443573 25.45610526 8.34985352 20.51269531 C7.44273495 18.63583131 6.52720098 16.76322932 5.61132812 14.890625 C5.03705078 13.70210937 4.46277344 12.51359375 3.87109375 11.2890625 C3.34443115 10.20318848 2.81776855 9.11731445 2.27514648 7.99853516 C1.1230166 5.28927625 0.44107276 2.89905403 0 0 Z " fill="#A97A5A" transform="translate(109,183)"/>
<path d="M0 0 C0.99 0.33 1.98 0.66 3 1 C4.72347879 5.76491196 5.5587782 10.68592998 6.4375 15.66796875 C6.90568191 18.0349624 6.90568191 18.0349624 8.125 20.11328125 C9 22 9 22 8 25 C6.35 23.35 4.7 21.7 3 20 C2.34 20.66 1.68 21.32 1 22 C0.34 20.68 -0.32 19.36 -1 18 C-0.01 16.515 -0.01 16.515 1 15 C1.33 15 1.66 15 2 15 C2 10.71 2 6.42 2 2 C1.34 2 0.68 2 0 2 C0 1.34 0 0.68 0 0 Z " fill="#B1D69C" transform="translate(111,129)"/>
<path d="M0 0 C6.46850394 0.61023622 6.46850394 0.61023622 8.875 2.375 C10 4 10 4 11 7 C12.29355827 8.37195574 13.62298702 9.71182656 15 11 C14.67 11.99 14.34 12.98 14 14 C9.71 12.02 5.42 10.04 1 8 C1 7.67 1 7.34 1 7 C2.65 7 4.3 7 6 7 C4.60667426 3.63279613 3.0210714 2.0140476 0 0 Z " fill="#955F3A" transform="translate(95,174)"/>
<path d="M0 0 C0.33 0.99 0.66 1.98 1 3 C1.66 3 2.32 3 3 3 C3.22174933 4.45635371 3.42698698 5.91522956 3.625 7.375 C3.74101563 8.18710938 3.85703125 8.99921875 3.9765625 9.8359375 C3.98429687 10.55007812 3.99203125 11.26421875 4 12 C3.34 12.66 2.68 13.32 2 14 C1.34 13.67 0.68 13.34 0 13 C0 14.32 0 15.64 0 17 C-1.32 16.67 -2.64 16.34 -4 16 C-4 15.01 -4 14.02 -4 13 C-5.43750191 11.31201173 -5.43750191 11.31201173 -7 10 C-6.34 10 -5.68 10 -5 10 C-4.67 9.01 -4.34 8.02 -4 7 C-3.67 8.32 -3.34 9.64 -3 11 C-2.01 7.37 -1.02 3.74 0 0 Z " fill="#F0CE92" transform="translate(114,60)"/>
<path d="M0 0 C1.49739583 1.26953125 2.99479167 2.5390625 4.4921875 3.80859375 C6.00594079 5.0878152 6.00594079 5.0878152 8 6 C8 6.66 8 7.32 8 8 C7.01 8 6.02 8 5 8 C5.19464844 8.50015625 5.38929687 9.0003125 5.58984375 9.515625 C6.17827851 13.07985843 5.33403984 16.27642913 4.5625 19.75 C4.41490234 20.44738281 4.26730469 21.14476562 4.11523438 21.86328125 C3.75131967 23.5772021 3.37670932 25.28884581 3 27 C2.67 27 2.34 27 2 27 C2 19.41 2 11.82 2 4 C1.34 4 0.68 4 0 4 C0 2.68 0 1.36 0 0 Z " fill="#586D2F" transform="translate(113,148)"/>
<path d="M0 0 C1.59785089 3.19570179 0.77115111 6.61364076 0 10 C-0.99 11.485 -0.99 11.485 -2 13 C-2.33 13.66 -2.66 14.32 -3 15 C-3.7115625 15.61875 -3.7115625 15.61875 -4.4375 16.25 C-6.87921112 18.98471645 -8 22.33533738 -8 26 C-8 26.99 -8 27.98 -8 29 C-10.5 30.6875 -10.5 30.6875 -13 32 C-10.3060795 20.8314546 -5.16540517 10.22251494 0 0 Z " fill="#A2B361" transform="translate(167,26)"/>
<path d="M0 0 C0.99 0.495 0.99 0.495 2 1 C2 2.65 2 4.3 2 6 C2.66 4.35 3.32 2.7 4 1 C4.99 1 5.98 1 7 1 C6.49396008 3.16874252 6.00016187 4.99967627 5 7 C5.66 7 6.32 7 7 7 C7.3125 9.8125 7.3125 9.8125 7 13 C4.5 14.875 4.5 14.875 2 16 C1.66666667 14.66666667 1.33333333 13.33333333 1 12 C0.814375 11.4225 0.62875 10.845 0.4375 10.25 C-0.22871543 6.82374921 -0.05811653 3.48699202 0 0 Z " fill="#8BBFDC" transform="translate(139,62)"/>
<path d="M0 0 C-0.33 0.66 -0.66 1.32 -1 2 C-0.7018576 3.34164079 -0.35858516 4.67323492 0 6 C0.3496418 8.33094534 0.68554487 10.66404762 1 13 C-2.59905908 12.44449305 -3.99909799 11.25112752 -6.25 8.4375 C-6.77078125 7.79683594 -7.2915625 7.15617188 -7.828125 6.49609375 C-8.21484375 6.00238281 -8.6015625 5.50867188 -9 5 C-7.68 5 -6.36 5 -5 5 C-5 4.34 -5 3.68 -5 3 C-5.99 2.67 -6.98 2.34 -8 2 C-4.77208445 -0.1519437 -3.71599191 -0.20086443 0 0 Z " fill="#879752" transform="translate(136,190)"/>
<path d="M0 0 C4.875 1.875 4.875 1.875 6 3 C6.04092937 5.33297433 6.04241723 7.66705225 6 10 C5.34 10 4.68 10 4 10 C3.67 13.3 3.34 16.6 3 20 C0.86835225 15.73670449 0.57166358 12.38798276 0.375 7.75 C0.33632812 7.00492187 0.29765625 6.25984375 0.2578125 5.4921875 C0.16394892 3.6618476 0.08090282 1.83095857 0 0 Z " fill="#314923" transform="translate(90,103)"/>
<path d="M0 0 C0.33 0.66 0.66 1.32 1 2 C3.11846285 2.68729254 3.11846285 2.68729254 5.5625 3.125 C6.80193359 3.37636719 6.80193359 3.37636719 8.06640625 3.6328125 C8.70449219 3.75398438 9.34257812 3.87515625 10 4 C9.67 5.65 9.34 7.3 9 9 C8.67 8.34 8.34 7.68 8 7 C8.33 6.34 8.66 5.68 9 5 C7.700625 5.12375 6.40125 5.2475 5.0625 5.375 C4.33160156 5.44460937 3.60070312 5.51421875 2.84765625 5.5859375 C2.23792969 5.72257812 1.62820312 5.85921875 1 6 C0.67 6.66 0.34 7.32 0 8 C1.32 7.67 2.64 7.34 4 7 C3.67 7.99 3.34 8.98 3 10 C1.0625 10.75 1.0625 10.75 -1 11 C-1.66 10.67 -2.32 10.34 -3 10 C-3 9.34 -3 8.68 -3 8 C-3.66 8 -4.32 8 -5 8 C-4.45773019 4.20411134 -2.79872437 2.52788007 0 0 Z " fill="#C6E5F0" transform="translate(141,49)"/>
<path d="M0 0 C-0.66 1.32 -1.32 2.64 -2 4 C-2 2.68 -2 1.36 -2 0 C-2.66 0 -3.32 0 -4 0 C-4.2475 0.66 -4.495 1.32 -4.75 2 C-6.31817045 5.76360907 -8.14505046 9.3711424 -10 13 C-10.66 13 -11.32 13 -12 13 C-12.33 13.99 -12.66 14.98 -13 16 C-13.99 15.34 -14.98 14.68 -16 14 C-16.66 14.66 -17.32 15.32 -18 16 C-18 14.35 -18 12.7 -18 11 C-17.34 10.67 -16.68 10.34 -16 10 C-16 10.66 -16 11.32 -16 12 C-15.360625 11.505 -14.72125 11.01 -14.0625 10.5 C-12 9 -12 9 -11 9 C-10.71125 8.2575 -10.4225 7.515 -10.125 6.75 C-6.7131952 -1.58996728 -6.7131952 -1.58996728 0 0 Z " fill="#7E9A3E" transform="translate(171,17)"/>
<path d="M0 0 C2.43320057 1.53273944 3.79275292 2.47583152 4.86547852 5.18896484 C5.03490967 6.02121582 5.20434082 6.8534668 5.37890625 7.7109375 C5.57806641 8.62617188 5.77722656 9.54140625 5.98242188 10.484375 C6.17384766 11.43828125 6.36527344 12.3921875 6.5625 13.375 C8.22045962 21.58750832 8.22045962 21.58750832 12 29 C12 29.99 12 30.98 12 32 C11.34 32 10.68 32 10 32 C7.47915344 26.82369857 5.66070712 21.98616416 4.5703125 16.3359375 C3.71000487 12.81221172 2.26597144 9.57360681 0.8046875 6.26171875 C0 4 0 4 0 0 Z " fill="#C49373" transform="translate(119,197)"/>
<path d="M0 0 C0.33 0 0.66 0 1 0 C2.8849413 7.00629124 4.39700836 13.76410027 5 21 C3.0390625 20.16015625 3.0390625 20.16015625 1 19 C0.375 16.4375 0.375 16.4375 0 14 C-0.66 13.67 -1.32 13.34 -2 13 C-1.34 13 -0.68 13 0 13 C-0.66 9.37 -1.32 5.74 -2 2 C-1.34 2 -0.68 2 0 2 C0 1.34 0 0.68 0 0 Z " fill="#AA7354" transform="translate(104,162)"/>
<path d="M0 0 C0.66 0 1.32 0 2 0 C3.25 7.625 3.25 7.625 1 11 C-1.4375 10.625 -1.4375 10.625 -4 10 C-5.35439668 7.29120665 -5.06501451 4.99066732 -5 2 C-2.525 2.495 -2.525 2.495 0 3 C0 2.01 0 1.02 0 0 Z " fill="#C38143" transform="translate(98,55)"/>
<path d="M0 0 C0.33 0 0.66 0 1 0 C1.07347656 1.17755859 1.07347656 1.17755859 1.1484375 2.37890625 C1.5620036 8.19022303 2.11782148 13.478943 4 19 C2.35 19.33 0.7 19.66 -1 20 C-3.65782867 14.68434267 -2.08909397 6.68749074 -1 1 C-0.67 0.67 -0.34 0.34 0 0 Z " fill="#A67D64" transform="translate(86,156)"/>
<path d="M0 0 C0.66 0 1.32 0 2 0 C2.66 0.99 3.32 1.98 4 3 C6.19454681 3.57993699 6.19454681 3.57993699 8.625 3.6875 C9.44226563 3.75324219 10.25953125 3.81898437 11.1015625 3.88671875 C11.72804688 3.92410156 12.35453125 3.96148437 13 4 C10.8125 6.5625 10.8125 6.5625 8 9 C5.4375 8.9375 5.4375 8.9375 3 8 C2.2575 7.731875 1.515 7.46375 0.75 7.1875 C-1 6 -1 6 -1.875 4 C-1.91625 3.34 -1.9575 2.68 -2 2 C-1.34 1.34 -0.68 0.68 0 0 Z " fill="#718240" transform="translate(106,115)"/>
<path d="M0 0 C2.97 0 5.94 0 9 0 C8.505 0.70125 8.01 1.4025 7.5 2.125 C5.8063319 5.37119719 5.74837685 7.39340156 6 11 C5.01 11.495 5.01 11.495 4 12 C3.67 11.34 3.34 10.68 3 10 C2.34 10 1.68 10 1 10 C0.37542727 6.56484998 0 3.50935186 0 0 Z " fill="#74983B" transform="translate(112,0)"/>
<path d="M0 0 C1.65 0.33 3.3 0.66 5 1 C5 1.66 5 2.32 5 3 C5.66 3 6.32 3 7 3 C7 2.01 7 1.02 7 0 C7.99 0 8.98 0 10 0 C10.33 1.65 10.66 3.3 11 5 C10.01 5 9.02 5 8 5 C8.33 5.99 8.66 6.98 9 8 C6.8125 8.3125 6.8125 8.3125 4 8 C1.1875 5.5 1.1875 5.5 -1 3 C-0.67 2.01 -0.34 1.02 0 0 Z " fill="#74A7C8" transform="translate(119,92)"/>
<path d="M0 0 C2.64 0.66 5.28 1.32 8 2 C7.51812367 6.57782516 7.51812367 6.57782516 5.3125 8.375 C2.28902419 9.19215562 0.02252556 8.68693763 -3 8 C-2.67 7.01 -2.34 6.02 -2 5 C-0.02 5 1.96 5 4 5 C4 4.34 4 3.68 4 3 C1.69 3.33 -0.62 3.66 -3 4 C-2.67 3.34 -2.34 2.68 -2 2 C-1.34 2 -0.68 2 0 2 C0 1.34 0 0.68 0 0 Z " fill="#CD9272" transform="translate(103,80)"/>
<path d="M0 0 C3.53267429 3.6932504 4.40024497 8.06487292 5 13 C4.625 16.375 4.625 16.375 4 19 C4 19.99 4 20.98 4 22 C1.9375 20.6875 1.9375 20.6875 0 18 C0.0301369 15.08533129 0.3807237 12.3388146 0.8359375 9.4609375 C0.89007813 8.64882812 0.94421875 7.83671875 1 7 C0.34 6.34 -0.32 5.68 -1 5 C-0.625 2.375 -0.625 2.375 0 0 Z " fill="#9AAE5B" transform="translate(104,134)"/>
<path d="M0 0 C0.66 0 1.32 0 2 0 C0.9141314 6.08086416 -0.86303113 11.72079219 -3 17.5 C-3.26119629 18.21865234 -3.52239258 18.93730469 -3.79150391 19.67773438 C-5.75588962 24.87794481 -5.75588962 24.87794481 -8 26 C-6.6904456 18.79745081 -4.35196095 11.91476518 -2 5 C-1.34 5 -0.68 5 0 5 C0 3.35 0 1.7 0 0 Z " fill="#C8D9D1" transform="translate(150,61)"/>
<path d="M0 0 C1.5 1.3125 1.5 1.3125 3 3 C3 3.99 3 4.98 3 6 C4.32 6.33 5.64 6.66 7 7 C6.34 7.66 5.68 8.32 5 9 C5.33 9.99 5.66 10.98 6 12 C5.01 12 4.02 12 3 12 C2.67 11.01 2.34 10.02 2 9 C1.34 9 0.68 9 0 9 C0 8.34 0 7.68 0 7 C-0.66 7 -1.32 7 -2 7 C-2 7.99 -2 8.98 -2 10 C-2.66 10 -3.32 10 -4 10 C-3.29445932 6.33118845 -1.72264494 3.29549466 0 0 Z " fill="#5B6C3A" transform="translate(93,92)"/>
<path d="M0 0 C2 2 2 2 2 3 C2.66 3.33 3.32 3.66 4 4 C2.3125 6 2.3125 6 0 8 C-2.625 8.125 -2.625 8.125 -5 8 C-5.66 8.66 -6.32 9.32 -7 10 C-10.125 9.625 -10.125 9.625 -13 9 C-10.87044345 7.26480578 -9.08599078 6.03224654 -6.5 5.0625 C-3.63596266 3.84528413 -2.06550009 2.2950001 0 0 Z " fill="#9DC3DA" transform="translate(124,85)"/>
<path d="M0 0 C1.26237731 3.78713193 0.67558873 6.25651933 0.0625 10.1875 C-0.13214844 11.45980469 -0.32679687 12.73210937 -0.52734375 14.04296875 C-0.68332031 15.01878906 -0.83929688 15.99460938 -1 17 C-0.34 17.33 0.32 17.66 1 18 C-0.65 18.66 -2.3 19.32 -4 20 C-4 8.625 -4 8.625 -2 4.3125 C-1.62875 3.50425781 -1.2575 2.69601563 -0.875 1.86328125 C-0.58625 1.24839844 -0.2975 0.63351563 0 0 Z " fill="#50693F" transform="translate(89,135)"/>
<path d="M0 0 C0.28875 1.2375 0.5775 2.475 0.875 3.75 C1.61334794 6.72448742 2.44474933 9.333856 4 12 C3.34 12.66 2.68 13.32 2 14 C1.01 15.485 1.01 15.485 0 17 C-0.70304222 15.27709395 -1.38683491 13.54632534 -2.0625 11.8125 C-2.44535156 10.84957031 -2.82820313 9.88664062 -3.22265625 8.89453125 C-4.0631264 5.76494141 -4.03471657 4.04997606 -3 1 C-1 0 -1 0 0 0 Z " fill="#C0966F" transform="translate(93,57)"/>
<path d="M0 0 C0.66 0.33 1.32 0.66 2 1 C2.4140625 3.28515625 2.4140625 3.28515625 2.625 6.0625 C2.69976562 6.98160156 2.77453125 7.90070313 2.8515625 8.84765625 C2.90054688 9.55792969 2.94953125 10.26820312 3 11 C2.01 11.495 2.01 11.495 1 12 C1 11.34 1 10.68 1 10 C0.34 10 -0.32 10 -1 10 C-0.67 8.02 -0.34 6.04 0 4 C-0.99 5.485 -0.99 5.485 -2 7 C-2.99 8.485 -2.99 8.485 -4 10 C-5 9 -5 9 -5.0625 6.4375 C-5.041875 5.633125 -5.02125 4.82875 -5 4 C-5.33 4.33 -5.66 4.66 -6 5 C-6.33 3.68 -6.66 2.36 -7 1 C-4.69 1.33 -2.38 1.66 0 2 C0 1.34 0 0.68 0 0 Z " fill="#A5D5ED" transform="translate(145,59)"/>
<path d="M0 0 C0.268125 0.598125 0.53625 1.19625 0.8125 1.8125 C1.98493467 3.97224808 3.19369282 5.35790256 5 7 C4.67 7.66 4.34 8.32 4 9 C3.34 8.67 2.68 8.34 2 8 C2 9.65 2 11.3 2 13 C-1 12 -1 12 -2.25 10.3125 C-3.25583628 7.21117147 -2.81530283 5.1253275 -2 2 C-1.34 1.34 -0.68 0.68 0 0 Z " fill="#ACC16C" transform="translate(110,145)"/>
<path d="M0 0 C2 0 2 0 4.125 2 C4.74375 2.66 5.3625 3.32 6 4 C6.33 3.34 6.66 2.68 7 2 C8.00842453 3.43160268 9.00647891 4.87051453 10 6.3125 C10.8353125 7.51326172 10.8353125 7.51326172 11.6875 8.73828125 C13 11 13 11 13 14 C9.58841744 12.86280581 8.88145399 11.95657056 7 9 C7 8.34 7 7.68 7 7 C6.401875 6.9175 5.80375 6.835 5.1875 6.75 C2.37067727 5.78423221 1.52200868 4.51131433 0 2 C0 1.34 0 0.68 0 0 Z " fill="#EDD7BA" transform="translate(119,102)"/>
<path d="M0 0 C0.33 0 0.66 0 1 0 C1 1.65 1 3.3 1 5 C3.31 5 5.62 5 8 5 C7.67 5.66 7.34 6.32 7 7 C8.98 7 10.96 7 13 7 C13 7.66 13 8.32 13 9 C12.236875 9.12375 11.47375 9.2475 10.6875 9.375 C7.79732864 9.88102792 7.79732864 9.88102792 5 12 C2.5 9.9375 2.5 9.9375 0 7 C-0.3125 3.1875 -0.3125 3.1875 0 0 Z " fill="#BE8F75" transform="translate(94,76)"/>
<path d="M0 0 C2.58789062 2.29492188 2.58789062 2.29492188 5.17578125 4.58984375 C7.05241958 6.20081559 7.05241958 6.20081559 10 7 C10 7.99 10 8.98 10 10 C8.68 10 7.36 10 6 10 C5.67 9.01 5.34 8.02 5 7 C4.67 7.66 4.34 8.32 4 9 C3.34 9 2.68 9 2 9 C1.67 10.32 1.34 11.64 1 13 C0.67 8.71 0.34 4.42 0 0 Z " fill="#51742D" transform="translate(127,196)"/>
<path d="M0 0 C0.99 0.33 1.98 0.66 3 1 C2.67 1.99 2.34 2.98 2 4 C1.77199313 7.26682113 1.81484022 10.53853257 1.8125 13.8125 C1.80025391 14.70259766 1.78800781 15.59269531 1.77539062 16.50976562 C1.7643881 21.45723382 2.19070732 25.33016553 4 30 C4 30.99 4 31.98 4 33 C0.29791227 29.0897499 -0.48836338 26.73789496 -0.390625 21.38671875 C-0.37773438 20.13955078 -0.36484375 18.89238281 -0.3515625 17.60742188 C-0.31804687 16.31384766 -0.28453125 15.02027344 -0.25 13.6875 C-0.23195313 12.37458984 -0.21390625 11.06167969 -0.1953125 9.70898438 C-0.14822786 6.47191512 -0.08247042 3.23632947 0 0 Z " fill="#E5BFA8" transform="translate(112,153)"/>
<path d="M0 0 C0.66 0 1.32 0 2 0 C2.66 1.65 3.32 3.3 4 5 C2.02 5.99 2.02 5.99 0 7 C0 7.99 0 8.98 0 10 C-1.98 10 -3.96 10 -6 10 C-6 8.02 -6 6.04 -6 4 C-5.34 4.66 -4.68 5.32 -4 6 C-3.01 6 -2.02 6 -1 6 C-1.020625 5.195625 -1.04125 4.39125 -1.0625 3.5625 C-1 1 -1 1 0 0 Z " fill="#D3AC99" transform="translate(101,71)"/>
<path d="M0 0 C0.66 0 1.32 0 2 0 C2.12375 0.639375 2.2475 1.27875 2.375 1.9375 C2.684375 2.9584375 2.684375 2.9584375 3 4 C3.66 4.33 4.32 4.66 5 5 C5.33 3.35 5.66 1.7 6 0 C6.75 1.6875 6.75 1.6875 7 4 C5.1875 6.75 5.1875 6.75 3 9 C2.34 9 1.68 9 1 9 C0.34 9.66 -0.32 10.32 -1 11 C-1.33 8.69 -1.66 6.38 -2 4 C-1.34 4 -0.68 4 0 4 C0 2.68 0 1.36 0 0 Z " fill="#F0E7DB" transform="translate(114,73)"/>
<path d="M0 0 C0.66 0 1.32 0 2 0 C2.33 0.99 2.66 1.98 3 3 C3.474375 3.474375 3.94875 3.94875 4.4375 4.4375 C7.77175905 7.77175905 8.29668809 11.15363323 8.625 15.75 C8.69976562 16.73484375 8.77453125 17.7196875 8.8515625 18.734375 C8.90054688 19.48203125 8.94953125 20.2296875 9 21 C6.69801153 18.69801153 6.63923003 17.80961089 6.125 14.6875 C5.28403667 10.48268335 3.81442883 8.26836896 1 5 C0.25 2.1875 0.25 2.1875 0 0 Z " fill="#D2A48B" transform="translate(117,190)"/>
<path d="M0 0 C2.7972908 2.06756277 3.02692273 3.14440371 3.6875 6.6875 C3.790625 7.780625 3.89375 8.87375 4 10 C3.67 9.34 3.34 8.68 3 8 C0.69 8 -1.62 8 -4 8 C-3.40138258 5.64828869 -2.73075648 3.3140622 -2 1 C-1.34 0.67 -0.68 0.34 0 0 Z " fill="#8D522E" transform="translate(92,150)"/>
<path d="M0 0 C4.00532512 0.52321815 5.64792782 2.39707295 8.25 5.375 C8.95640625 6.16648437 9.6628125 6.95796875 10.390625 7.7734375 C12 10 12 10 12 13 C10 15.1875 10 15.1875 8 17 C7.34 16.67 6.68 16.34 6 16 C6.4125 14.7625 6.825 13.525 7.25 12.25 C7.85196526 10.08879456 7.85196526 10.08879456 8 8 C6.16567234 5.24850851 4.8679432 4.2893144 1.75 3.25 C1.1725 3.1675 0.595 3.085 0 3 C0 2.01 0 1.02 0 0 Z " fill="#7A7E3E" transform="translate(113,102)"/>
<path d="M0 0 C2.97 0 5.94 0 9 0 C8.67 1.98 8.34 3.96 8 6 C7.01 5.67 6.02 5.34 5 5 C4.67 6.32 4.34 7.64 4 9 C4 8.01 4 7.02 4 6 C3.01 6 2.02 6 1 6 C0.67 4.02 0.34 2.04 0 0 Z " fill="#63622E" transform="translate(98,105)"/>
<path d="M0 0 C0.33 0 0.66 0 1 0 C1.55977553 3.45565722 2.09472085 6.91470383 2.625 10.375 C2.78484375 11.35984375 2.9446875 12.3446875 3.109375 13.359375 C3.25117187 14.30039062 3.39296875 15.24140625 3.5390625 16.2109375 C3.67521973 17.08024902 3.81137695 17.94956055 3.95166016 18.84521484 C3.9676123 19.55629395 3.98356445 20.26737305 4 21 C3.34 21.66 2.68 22.32 2 23 C0.68 21.68 -0.64 20.36 -2 19 C-1.01 18.34 -0.02 17.68 1 17 C0.835 15.865625 0.67 14.73125 0.5 13.5625 C-0.07576084 9.02939706 -0.09505266 4.56252762 0 0 Z " fill="#BCDAD8" transform="translate(118,26)"/>
<path d="M0 0 C0.66 0 1.32 0 2 0 C2.25 6.625 2.25 6.625 0 10 C-1.96752828 11.06246527 -3.96587579 12.07137808 -6 13 C-4.58707905 8.1725201 -2.57025846 4.2837641 0 0 Z " fill="#EDEFEB" transform="translate(167,17)"/>
<path d="M0 0 C0.33 0.99 0.66 1.98 1 3 C1.66 3 2.32 3 3 3 C4.5912689 7.873261 5.21192221 11.80790596 5 17 C1.86779571 14.4372874 0.95439383 11.89099023 0 8 C-0.15041492 5.30708781 -0.09314515 2.70120925 0 0 Z " fill="#DDBB9C" transform="translate(126,209)"/>
<path d="M0 0 C2.12508244 3.18762365 2.5020163 5.26512223 3 9 C3.66 9 4.32 9 5 9 C4.34 11.31 3.68 13.62 3 16 C2.34 16 1.68 16 1 16 C-0.88354586 12.12211147 -1.00945535 10.13876693 0 6 C0.03772913 4.0003559 0.04649906 1.99945939 0 0 Z " fill="#5E732F" transform="translate(90,65)"/>
<path d="M0 0 C1.65 0 3.3 0 5 0 C6.2062252 3.61867559 6.10816918 6.92506251 6.0625 10.6875 C6.05798828 11.38939453 6.05347656 12.09128906 6.04882812 12.81445312 C6.03706927 14.54300538 6.01913454 16.27151365 6 18 C5.67 18 5.34 18 5 18 C5 15.03 5 12.06 5 9 C4.34 9 3.68 9 3 9 C2 6 1 3 0 0 Z " fill="#B7CB7A" transform="translate(129,216)"/>
<path d="M0 0 C1.65 0 3.3 0 5 0 C3.515 1.98 3.515 1.98 2 4 C2.66 4 3.32 4 4 4 C4.22134176 6.12368444 4.42670007 8.24904024 4.625 10.375 C4.74101563 11.55835938 4.85703125 12.74171875 4.9765625 13.9609375 C4.98429687 14.96382812 4.99203125 15.96671875 5 17 C4.34 17.66 3.68 18.32 3 19 C2.855625 17.96875 2.71125 16.9375 2.5625 15.875 C2.08331327 12.57393587 1.55967722 9.28810366 1 6 C0.66666667 4 0.33333333 2 0 0 Z " fill="#9FC57B" transform="translate(109,127)"/>
<path d="M0 0 C0.33 1.65 0.66 3.3 1 5 C0.01 5.495 0.01 5.495 -1 6 C-1.72159424 7.64363134 -2.39351421 9.31050386 -3 11 C-3.33 11 -3.66 11 -4 11 C-4.309375 9.88625 -4.61875 8.7725 -4.9375 7.625 C-5.82326483 4.2054845 -5.82326483 4.2054845 -7 2 C-4.35261084 0.5393715 -3.10551666 0 0 0 Z " fill="#6A822C" transform="translate(119,126)"/>
<path d="M0 0 C0.33 1.32 0.66 2.64 1 4 C0.34 4 -0.32 4 -1 4 C-1 4.99 -1 5.98 -1 7 C-0.01 7.33 0.98 7.66 2 8 C-3.75 7.125 -3.75 7.125 -6 6 C-6.33 6.66 -6.66 7.32 -7 8 C-7.33 6.68 -7.66 5.36 -8 4 C-2.25 0 -2.25 0 0 0 Z " fill="#E4C2AE" transform="translate(109,74)"/>
<path d="M0 0 C0.66 0.33 1.32 0.66 2 1 C1.57781184 2.6498275 1.13675575 4.29483665 0.6875 5.9375 C0.44386719 6.85402344 0.20023438 7.77054688 -0.05078125 8.71484375 C-0.36402344 9.46894531 -0.67726562 10.22304688 -1 11 C-1.99 11.33 -2.98 11.66 -4 12 C-4.22893297 8.96663814 -4.36475845 6.02534949 -4 3 C-2 0.9375 -2 0.9375 0 0 Z " fill="#D8E7E0" transform="translate(155,49)"/>
<path d="M0 0 C2.88437779 1.29299694 4.87219421 2.65941363 7 5 C6.67 5.66 6.34 6.32 6 7 C4 6 4 6 3 5 C2.67 6.65 2.34 8.3 2 10 C1.01 9.67 0.02 9.34 -1 9 C-0.34 9 0.32 9 1 9 C1 8.01 1 7.02 1 6 C0.01 5.67 -0.98 5.34 -2 5 C-1.125 1.125 -1.125 1.125 0 0 Z " fill="#8FB4C8" transform="translate(115,105)"/>
<path d="M0 0 C-0.33 0.66 -0.66 1.32 -1 2 C-2.65 2 -4.3 2 -6 2 C-6 3.32 -6 4.64 -6 6 C-8.97 5.505 -8.97 5.505 -12 5 C-12 6.65 -12 8.3 -12 10 C-12.33 10 -12.66 10 -13 10 C-13.375 7.25 -13.375 7.25 -13 4 C-8.80358831 0.11064282 -5.61184926 -0.44894794 0 0 Z " fill="#D49E66" transform="translate(104,52)"/>
<path d="M0 0 C2.31 0.33 4.62 0.66 7 1 C7.99 4.3 8.98 7.6 10 11 C7.03 10.01 4.06 9.02 1 8 C1 7.67 1 7.34 1 7 C2.65 7 4.3 7 6 7 C4.60667426 3.63279613 3.0210714 2.0140476 0 0 Z " fill="#9A6943" transform="translate(95,174)"/>
<path d="M0 0 C0.639375 0.639375 1.27875 1.27875 1.9375 1.9375 C5.91930882 4.61912635 9.294792 4.79498004 14 5 C12.25 7.0625 12.25 7.0625 10 9 C8.0625 8.75 8.0625 8.75 6 8 C4.33376361 7.96213099 2.66602403 7.95372155 1 8 C1.020625 7.236875 1.04125 6.47375 1.0625 5.6875 C1.12942841 2.89814214 1.12942841 2.89814214 0 0 Z " fill="#726433" transform="translate(94,83)"/>
<path d="M0 0 C2.56616632 3.84924948 2.55097676 6.4349304 3 11 C2.34 11 1.68 11 1 11 C1 15.29 1 19.58 1 24 C0.67 24 0.34 24 0 24 C-0.19632025 20.3754207 -0.38055978 16.75032733 -0.5625 13.125 C-0.64661133 11.57619141 -0.64661133 11.57619141 -0.73242188 9.99609375 C-0.78076172 9.00996094 -0.82910156 8.02382813 -0.87890625 7.0078125 C-0.9260376 6.09660645 -0.97316895 5.18540039 -1.02172852 4.24658203 C-1 2 -1 2 0 0 Z " fill="#DEE3C1" transform="translate(121,47)"/>
<path d="M0 0 C-0.99 1.485 -0.99 1.485 -2 3 C-2 3.99 -2 4.98 -2 6 C-2.99 6.66 -3.98 7.32 -5 8 C-6.98 4.535 -6.98 4.535 -9 1 C-2.25 -1.125 -2.25 -1.125 0 0 Z " fill="#73843B" transform="translate(132,99)"/>
<path d="M0 0 C1.32 0 2.64 0 4 0 C4.12375 0.7425 4.2475 1.485 4.375 2.25 C4.95486701 4.80141485 5.73708739 6.7267573 7 9 C4.36 8.01 1.72 7.02 -1 6 C-1.042721 4.33388095 -1.04063832 2.66617115 -1 1 C-0.67 0.67 -0.34 0.34 0 0 Z " fill="#CC944A" transform="translate(110,47)"/>
<path d="M0 0 C0.33 2.97 0.66 5.94 1 9 C-1.3125 9.625 -1.3125 9.625 -4 10 C-4.99 9.34 -5.98 8.68 -7 8 C-5.68 7.34 -4.36 6.68 -3 6 C-3.33 4.35 -3.66 2.7 -4 1 C-1 0 -1 0 0 0 Z " fill="#92C8E6" transform="translate(119,35)"/>
<path d="M0 0 C0.66 0.33 1.32 0.66 2 1 C0.48903853 4.54712346 -1.58832135 6.85663515 -4.3125 9.5625 C-5.07175781 10.32691406 -5.83101562 11.09132813 -6.61328125 11.87890625 C-8.95039844 13.95591874 -11.27113077 15.48825474 -14 17 C-12.49055027 13.15776433 -10.23156958 11.48004177 -7 9 C-3.98531292 6.19563993 -1.56543178 3.84242345 0 0 Z " fill="#99A867" transform="translate(155,32)"/>
<path d="M0 0 C0.99 1.32 1.98 2.64 3 4 C2 6 2 6 0 8 C-2.625 7.625 -2.625 7.625 -5 7 C-5 5.35 -5 3.7 -5 2 C-2.525 2.495 -2.525 2.495 0 3 C0 2.01 0 1.02 0 0 Z " fill="#90A27D" transform="translate(137,203)"/>
<path d="M0 0 C0.33 0.66 0.66 1.32 1 2 C0.06553465 4.03144641 -0.93224776 6.03533587 -2 8 C-0.35 8 1.3 8 3 8 C3.66 9.32 4.32 10.64 5 12 C0.545 11.01 0.545 11.01 -4 10 C-3.38461538 3.47692308 -3.38461538 3.47692308 -1.4375 1.0625 C-0.7259375 0.5365625 -0.7259375 0.5365625 0 0 Z " fill="#D2BDA7" transform="translate(98,162)"/>
<path d="M0 0 C0.66 0.66 1.32 1.32 2 2 C1.65775391 2.83144531 1.65775391 2.83144531 1.30859375 3.6796875 C1.02113281 4.40414062 0.73367187 5.12859375 0.4375 5.875 C0.14746094 6.59429687 -0.14257812 7.31359375 -0.44140625 8.0546875 C-1.2537118 10.05649404 -1.2537118 10.05649404 0 12 C-1.65 12.33 -3.3 12.66 -5 13 C-5.37078652 7.43820225 -5.37078652 7.43820225 -3.625 5.375 C-3.08875 4.92125 -2.5525 4.4675 -2 4 C-0.82425289 1.90010348 -0.82425289 1.90010348 0 0 Z " fill="#AEA266" transform="translate(104,114)"/>
<path d="M0 0 C0.66 0.33 1.32 0.66 2 1 C1.34 2.98 0.68 4.96 0 7 C-2.64 7 -5.28 7 -8 7 C-8 6.34 -8 5.68 -8 5 C-6.3203125 3.67578125 -6.3203125 3.67578125 -4.125 2.3125 C-3.40570313 1.85488281 -2.68640625 1.39726563 -1.9453125 0.92578125 C-1.30335937 0.62027344 -0.66140625 0.31476563 0 0 Z " fill="#E6B699" transform="translate(105,90)"/>
<path d="M0 0 C0 0.66 0 1.32 0 2 C-0.99 2 -1.98 2 -3 2 C-3 3.98 -3 5.96 -3 8 C-5.31 8.66 -7.62 9.32 -10 10 C-9.67 8.68 -9.34 7.36 -9 6 C-8.34 6 -7.68 6 -7 6 C-6.9175 5.38125 -6.835 4.7625 -6.75 4.125 C-6 2 -6 2 -4.0625 0.75 C-2 0 -2 0 0 0 Z " fill="#ACCFE5" transform="translate(123,79)"/>
<path d="M0 0 C0.99 0.33 1.98 0.66 3 1 C3.20674944 6.78898419 2.59162079 11.42932723 1 17 C0.67 17 0.34 17 0 17 C0 11.39 0 5.78 0 0 Z " fill="#7A9B54" transform="translate(115,158)"/>
<path d="M0 0 C0.33 0 0.66 0 1 0 C1.12117188 0.60328125 1.24234375 1.2065625 1.3671875 1.828125 C1.53476563 2.62734375 1.70234375 3.4265625 1.875 4.25 C2.03742188 5.03890625 2.19984375 5.8278125 2.3671875 6.640625 C2.91075382 9.02675211 2.91075382 9.02675211 4.1328125 11.109375 C5 13 5 13 4 16 C0.38860104 13.44559585 0.38860104 13.44559585 -1 11 C-1.14751428 7.24892268 -0.65257202 3.68929329 0 0 Z " fill="#C7E2B3" transform="translate(115,138)"/>
<path d="M0 0 C3.91402949 1.26941497 5.79072873 2.51167694 8 6 C1.9453125 6.1953125 1.9453125 6.1953125 0 6 C-0.66 5.34 -1.32 4.68 -2 4 C-1.34 2.68 -0.68 1.36 0 0 Z " fill="#E2C7A8" transform="translate(104,120)"/>
<path d="M0 0 C2.97 0.495 2.97 0.495 6 1 C5.34 1.66 4.68 2.32 4 3 C3.01 3 2.02 3 1 3 C0.63736141 8.8022175 1.74315457 12.63999211 4 18 C1 17 1 17 -0.1875 14.875 C-1.61662196 9.81810691 -1.22767075 5.06414183 0 0 Z " fill="#677B39" transform="translate(97,116)"/>
<path d="M0 0 C-0.33 0.66 -0.66 1.32 -1 2 C-1.99 2.33 -2.98 2.66 -4 3 C-4.33 3.99 -4.66 4.98 -5 6 C-2.36 5.67 0.28 5.34 3 5 C3 5.66 3 6.32 3 7 C-3.625 8.25 -3.625 8.25 -7 6 C-7.6875 3.875 -7.6875 3.875 -8 2 C-4.77208445 -0.1519437 -3.71599191 -0.20086443 0 0 Z " fill="#93A44F" transform="translate(105,98)"/>
<path d="M0 0 C1.5625 1.25 1.5625 1.25 3 3 C2.625 5.0625 2.625 5.0625 2 7 C2.33 7.66 2.66 8.32 3 9 C0.625 8.75 0.625 8.75 -2 8 C-3.3125 5.9375 -3.3125 5.9375 -4 4 C-2.68 2.68 -1.36 1.36 0 0 Z " fill="#9ABAC9" transform="translate(111,110)"/>
<path d="M0 0 C0.99 0.66 1.98 1.32 3 2 C2.67 3.32 2.34 4.64 2 6 C-0.31 6 -2.62 6 -5 6 C-4.75 4.125 -4.75 4.125 -4 2 C-1.9375 0.75 -1.9375 0.75 0 0 Z " fill="#B8C96A" transform="translate(105,98)"/>
<path d="M0 0 C0.33 0 0.66 0 1 0 C1.05451714 2.04136395 1.09302485 4.08315856 1.125 6.125 C1.14820312 7.26195313 1.17140625 8.39890625 1.1953125 9.5703125 C0.99672109 13.05757767 0.2524801 15.7553862 -1 19 C-1.99 18.67 -2.98 18.34 -4 18 C-3.67 16.35 -3.34 14.7 -3 13 C-2.01 12.67 -1.02 12.34 0 12 C0 8.04 0 4.08 0 0 Z " fill="#F5E4AC" transform="translate(120,59)"/>
<path d="M0 0 C0.99 0.33 1.98 0.66 3 1 C2.49396008 3.16874252 2.00016187 4.99967627 1 7 C1.66 7 2.32 7 3 7 C3 8.98 3 10.96 3 13 C1.68 12.34 0.36 11.68 -1 11 C-1.14285714 3.57142857 -1.14285714 3.57142857 0 0 Z " fill="#94C8E2" transform="translate(143,62)"/>
<path d="M0 0 C0.33 0 0.66 0 1 0 C1.09579384 8.07861415 1.12513633 15.98340366 0 24 C-0.33 24 -0.66 24 -1 24 C-1.16852247 22.39602723 -1.33474886 20.7918131 -1.5 19.1875 C-1.5928125 18.29417969 -1.685625 17.40085938 -1.78125 16.48046875 C-2 14 -2 14 -2 11 C-1.67 10.67 -1.34 10.34 -1 10 C-0.76712992 8.31816052 -0.58735834 6.6287584 -0.4375 4.9375 C-0.31181641 3.55884766 -0.31181641 3.55884766 -0.18359375 2.15234375 C-0.12300781 1.44207031 -0.06242187 0.73179687 0 0 Z " fill="#3B6121" transform="translate(84,149)"/>
<path d="M0 0 C0.66 0.66 1.32 1.32 2 2 C2.66 1.34 3.32 0.68 4 0 C3.34 3.3 2.68 6.6 2 10 C1.34 9.01 0.68 8.02 0 7 C-0.33 8.65 -0.66 10.3 -1 12 C-1.66 11.67 -2.32 11.34 -3 11 C-2.01 7.37 -1.02 3.74 0 0 Z " fill="#F6D37D" transform="translate(109,57)"/>
<path d="M0 0 C3.36591866 1.44253657 5.51047079 3.33264727 8 6 C7.67 6.66 7.34 7.32 7 8 C6.01 7.67 5.02 7.34 4 7 C3.67 6.01 3.34 5.02 3 4 C2.34 5.32 1.68 6.64 1 8 C0.34 8 -0.32 8 -1 8 C-0.67 5.36 -0.34 2.72 0 0 Z " fill="#8C5E36" transform="translate(101,150)"/>
<path d="M0 0 C2.64 0.33 5.28 0.66 8 1 C8 2.32 8 3.64 8 5 C6.35 5.33 4.7 5.66 3 6 C0 2.25 0 2.25 0 0 Z " fill="#F7D1B1" transform="translate(105,96)"/>
<path d="M0 0 C1.953125 1.14453125 1.953125 1.14453125 4 3 C4.609375 5.69921875 4.609375 5.69921875 4.75 8.6875 C4.80671875 9.68136719 4.8634375 10.67523438 4.921875 11.69921875 C4.94765625 12.45847656 4.9734375 13.21773437 5 14 C1.96047287 9.4407093 0 5.52837581 0 0 Z " fill="#BF8B6C" transform="translate(119,197)"/>
<path d="M0 0 C3.1875 -0.3125 3.1875 -0.3125 6 0 C6 0.66 6 1.32 6 2 C5.01 2 4.02 2 3 2 C2.67 3.65 2.34 5.3 2 7 C-0.475 6.01 -0.475 6.01 -3 5 C-1.875 2.5 -1.875 2.5 0 0 Z " fill="#DDAB6D" transform="translate(107,46)"/>
<path d="M0 0 C0.33 0 0.66 0 1 0 C0.979375 1.093125 0.95875 2.18625 0.9375 3.3125 C0.81455548 6.94384191 0.81455548 6.94384191 2 10 C1.01 10.99 0.02 11.98 -1 13 C0.32 13.33 1.64 13.66 3 14 C1.02 14 -0.96 14 -3 14 C-2.01 9.38 -1.02 4.76 0 0 Z " fill="#AED1DF" transform="translate(112,31)"/>
<path d="M0 0 C2.48044315 3.72066472 2.44381173 6.86540474 2.625 11.1875 C2.66367188 11.93708984 2.70234375 12.68667969 2.7421875 13.45898438 C2.83628216 15.30559199 2.91922319 17.1527619 3 19 C2.67 19 2.34 19 2 19 C1.46678738 16.77376199 0.94889881 14.54384996 0.4375 12.3125 C0.14746094 11.07113281 -0.14257812 9.82976562 -0.44140625 8.55078125 C-0.96241956 5.23888546 -0.91852996 3.18139847 0 0 Z " fill="#BE8C6F" transform="translate(106,162)"/>
<path d="M0 0 C1.4540625 0.0309375 1.4540625 0.0309375 2.9375 0.0625 C2.2775 2.3725 1.6175 4.6825 0.9375 7.0625 C-0.3825 6.7325 -1.7025 6.4025 -3.0625 6.0625 C-3.44468767 4.40635343 -3.77645102 2.73792976 -4.0625 1.0625 C-3.0625 0.0625 -3.0625 0.0625 0 0 Z " fill="#A3C257" transform="translate(106.0625,128.9375)"/>
<path d="M0 0 C3.7952131 1.49097658 5.61042731 3.75700849 8 7 C7.67 7.66 7.34 8.32 7 9 C6.278125 8.175 5.55625 7.35 4.8125 6.5 C2.29055167 3.79508461 2.29055167 3.79508461 -0.625 3.625 C-3.14042413 3.95547527 -3.14042413 3.95547527 -6 5 C-6 4.34 -6 3.68 -6 3 C-4.02 2.67 -2.04 2.34 0 2 C0 1.34 0 0.68 0 0 Z " fill="#DFB08F" transform="translate(114,99)"/>
<path d="M0 0 C0.66 0 1.32 0 2 0 C0.60724746 3.3772445 -0.82273931 4.87070305 -3.9375 6.75 C-4.62714844 7.17796875 -5.31679687 7.6059375 -6.02734375 8.046875 C-8 9 -8 9 -11 9 C-11 8.34 -11 7.68 -11 7 C-9.39125 6.38125 -9.39125 6.38125 -7.75 5.75 C-4.45490223 4.3587365 -2.44823644 2.62958728 0 0 Z " fill="#9EBEC2" transform="translate(138,90)"/>
<path d="M0 0 C0.66 0.66 1.32 1.32 2 2 C-0.95668756 6.47726973 -3.05848696 9.59983652 -8 12 C-8.66 11.34 -9.32 10.68 -10 10 C-8.906875 9.278125 -7.81375 8.55625 -6.6875 7.8125 C-3.54589128 5.58666387 -1.70635567 3.51308521 0 0 Z " fill="#889646" transform="translate(142,87)"/>
<path d="M0 0 C0.66 0.33 1.32 0.66 2 1 C1.01 5.62 0.02 10.24 -1 15 C-1.66 14.67 -2.32 14.34 -3 14 C-2.40380045 9.13103697 -1.43023178 4.67209049 0 0 Z " fill="#BE934C" transform="translate(113,57)"/>
<path d="M0 0 C1.95387664 3.90775329 2.34762234 5.99687587 2.625 10.25 C2.69976562 11.32765625 2.77453125 12.4053125 2.8515625 13.515625 C2.92503906 14.74539062 2.92503906 14.74539062 3 16 C2.34 14.68 1.68 13.36 1 12 C0.34 12.66 -0.32 13.32 -1 14 C-0.67 9.38 -0.34 4.76 0 0 Z " fill="#B9D7D9" transform="translate(115,8)"/>
<path d="M0 0 C1.9451 2.91765 2.45276317 4.62537285 3 8 C2.01 8.495 2.01 8.495 1 9 C0.34786708 11.02463255 0.34786708 11.02463255 0 13 C0.99 13.33 1.98 13.66 3 14 C1.68 14 0.36 14 -1 14 C-1.33 12.02 -1.66 10.04 -2 8 C-1.34 8 -0.68 8 0 8 C0 5.36 0 2.72 0 0 Z " fill="#52793D" transform="translate(126,222)"/>
<path d="M0 0 C4 4.625 4 4.625 4 8 C0.2047869 6.50902342 -1.61042731 4.24299151 -4 1 C-2.68 0.67 -1.36 0.34 0 0 Z " fill="#C69E86" transform="translate(131,194)"/>
<path d="M0 0 C2.64 0.66 5.28 1.32 8 2 C8 3.32 8 4.64 8 6 C7.01 5.67 6.02 5.34 5 5 C5 4.34 5 3.68 5 3 C2.36 3.33 -0.28 3.66 -3 4 C-2.67 3.34 -2.34 2.68 -2 2 C-1.34 2 -0.68 2 0 2 C0 1.34 0 0.68 0 0 Z " fill="#D9AA8D" transform="translate(103,80)"/>
<path d="M0 0 C0.99 0.495 0.99 0.495 2 1 C2.95358994 4.55543799 3.25378196 8.15198615 3.5625 11.8125 C3.64628906 12.78832031 3.73007813 13.76414062 3.81640625 14.76953125 C3.87699219 15.50558594 3.93757813 16.24164062 4 17 C3.34 17.33 2.68 17.66 2 18 C1.6603981 16.12612523 1.32861309 14.25083303 1 12.375 C0.7215625 10.80878906 0.7215625 10.80878906 0.4375 9.2109375 C0.01284203 6.09425135 -0.07545206 3.14069188 0 0 Z " fill="#7F9E42" transform="translate(117,13)"/>
<path d="M0 0 C0.66 0.33 1.32 0.66 2 1 C1.67 3.64 1.34 6.28 1 9 C-0.32 9.33 -1.64 9.66 -3 10 C-2.67 7.69 -2.34 5.38 -2 3 C-1.34 3 -0.68 3 0 3 C0 2.01 0 1.02 0 0 Z " fill="#44852B" transform="translate(131,202)"/>
<path d="M0 0 C1.65 0.33 3.3 0.66 5 1 C4.34 1.66 3.68 2.32 3 3 C2.31822002 5.65719837 2.31822002 5.65719837 1.875 8.625 C1.70742187 9.62789062 1.53984375 10.63078125 1.3671875 11.6640625 C1.24601562 12.43492188 1.12484375 13.20578125 1 14 C0.34 13.67 -0.32 13.34 -1 13 C-0.67 8.71 -0.34 4.42 0 0 Z " fill="#556131" transform="translate(95,114)"/>
<path d="M0 0 C1.32 0.66 2.64 1.32 4 2 C3.67 2.66 3.34 3.32 3 4 C2.34 4 1.68 4 1 4 C0.67 4.99 0.34 5.98 0 7 C-0.99 6.34 -1.98 5.68 -3 5 C-3.66 5.66 -4.32 6.32 -5 7 C-5 5.35 -5 3.7 -5 2 C-4.34 1.67 -3.68 1.34 -3 1 C-3 1.66 -3 2.32 -3 3 C-2.01 2.01 -1.02 1.02 0 0 Z " fill="#8DA34E" transform="translate(158,26)"/>
<path d="M0 0 C0.33 0 0.66 0 1 0 C1 1.65 1 3.3 1 5 C1.66 5 2.32 5 3 5 C3.33 8.3 3.66 11.6 4 15 C3.01 15.33 2.02 15.66 1 16 C1.020625 14.88625 1.04125 13.7725 1.0625 12.625 C1.26380718 9.16784079 1.26380718 9.16784079 0 7 C-0.04022391 4.6670134 -0.04320247 2.33293334 0 0 Z " fill="#A2A15B" transform="translate(131,220)"/>
<path d="M0 0 C2.125 0.375 2.125 0.375 4 1 C1.53846154 5.8 1.53846154 5.8 -1.1875 6.8125 C-1.785625 6.874375 -2.38375 6.93625 -3 7 C-2.25 2.25 -2.25 2.25 0 0 Z " fill="#9E6945" transform="translate(105,157)"/>
<path d="M0 0 C0.66 0.33 1.32 0.66 2 1 C2.28571429 8.42857143 2.28571429 8.42857143 0 12 C-0.66 12 -1.32 12 -2 12 C-3.125 8.25 -3.125 8.25 -2 6 C-1.34 6 -0.68 6 0 6 C0 4.02 0 2.04 0 0 Z " fill="#9BC667" transform="translate(110,134)"/>
<path d="M0 0 C0.66 0 1.32 0 2 0 C3.38232443 1.62626404 4.71937515 3.2925002 6 5 C3.69 5.33 1.38 5.66 -1 6 C-1.625 4.125 -1.625 4.125 -2 2 C-1.34 1.34 -0.68 0.68 0 0 Z " fill="#566E2A" transform="translate(106,115)"/>
<path d="M0 0 C0.99 0.33 1.98 0.66 3 1 C3.6875 3.3125 3.6875 3.3125 4 6 C2.5625 7.8125 2.5625 7.8125 1 9 C0.63877119 7.68942607 0.28619689 6.37646376 -0.0625 5.0625 C-0.35833984 3.96615234 -0.35833984 3.96615234 -0.66015625 2.84765625 C-0.77230469 2.23792969 -0.88445312 1.62820312 -1 1 C-0.67 0.67 -0.34 0.34 0 0 Z " fill="#A0633A" transform="translate(92,157)"/>
<path d="M0 0 C2.31 0.33 4.62 0.66 7 1 C7.33 2.32 7.66 3.64 8 5 C7.01 5.495 7.01 5.495 6 6 C6 5.01 6 4.02 6 3 C4.68 3.99 3.36 4.98 2 6 C1.34 4.02 0.68 2.04 0 0 Z " fill="#A3785A" transform="translate(103,71)"/>
<path d="M0 0 C3.875 1.875 3.875 1.875 5 3 C5.04063832 4.66617115 5.042721 6.33388095 5 8 C4.01 7.67 3.02 7.34 2 7 C2 6.01 2 5.02 2 4 C1.34 4 0.68 4 0 4 C0 2.68 0 1.36 0 0 Z " fill="#E8BFA7" transform="translate(117,186)"/>
<path d="M0 0 C1.74627478 2.61941217 2.38722388 4.03824877 3 7 C1.02 7 -0.96 7 -3 7 C-1.125 1.125 -1.125 1.125 0 0 Z " fill="#506F2D" transform="translate(99,163)"/>
<path d="M0 0 C-0.99 1.485 -0.99 1.485 -2 3 C-1.67 3.99 -1.34 4.98 -1 6 C-1.99 6 -2.98 6 -4 6 C-4.33 5.01 -4.66 4.02 -5 3 C-5.66 3 -6.32 3 -7 3 C-7 2.34 -7 1.68 -7 1 C-4.53721199 -0.231394 -2.7204945 -0.07159196 0 0 Z " fill="#617437" transform="translate(100,98)"/>
<path d="M0 0 C1.65 0.33 3.3 0.66 5 1 C4.67 2.65 4.34 4.3 4 6 C2.68 5.34 1.36 4.68 0 4 C0 2.68 0 1.36 0 0 Z " fill="#73ACD3" transform="translate(119,92)"/>
<path d="M0 0 C0.99 0 1.98 0 3 0 C3.33 2.31 3.66 4.62 4 7 C3.34 6.34 2.68 5.68 2 5 C1.67 7.31 1.34 9.62 1 12 C0.67 12 0.34 12 0 12 C0 8.04 0 4.08 0 0 Z " fill="#ACCFD8" transform="translate(122,58)"/>
<path d="M0 0 C0.99 0.33 1.98 0.66 3 1 C3 1.66 3 2.32 3 3 C3.99 3 4.98 3 6 3 C6 3.66 6 4.32 6 5 C3.69 5.33 1.38 5.66 -1 6 C-0.67 4.02 -0.34 2.04 0 0 Z " fill="#A7CEE8" transform="translate(126,79)"/>
<path d="M0 0 C1.32 0.33 2.64 0.66 4 1 C4.33 2.65 4.66 4.3 5 6 C4.01 6.33 3.02 6.66 2 7 C0 2.25 0 2.25 0 0 Z " fill="#9F6D55" transform="translate(94,70)"/>
<path d="M0 0 C1.32 1.32 2.64 2.64 4 4 C3.67 4.66 3.34 5.32 3 6 C1.35 5.67 -0.3 5.34 -2 5 C-2.33 3.68 -2.66 2.36 -3 1 C-2.01 1.495 -2.01 1.495 -1 2 C-0.67 1.34 -0.34 0.68 0 0 Z " fill="#B5773B" transform="translate(96,60)"/>
<path d="M0 0 C3.59905908 0.55550695 4.99909799 1.74887248 7.25 4.5625 C8.03117187 5.52349609 8.03117187 5.52349609 8.828125 6.50390625 C9.21484375 6.99761719 9.6015625 7.49132812 10 8 C7.53199953 6.84826645 5.95216435 5.95216435 4 4 C1.93125966 3.3574765 1.93125966 3.3574765 0 3 C0 2.01 0 1.02 0 0 Z " fill="#B27F5B" transform="translate(113,102)"/>
<path d="M0 0 C0.66 0.33 1.32 0.66 2 1 C1.67 4.63 1.34 8.26 1 12 C0.01 12 -0.98 12 -2 12 C-1.34 8.04 -0.68 4.08 0 0 Z " fill="#71904F" transform="translate(113,12)"/>
<path d="M0 0 C0 0.99 0 1.98 0 3 C-2.63259597 5.41914224 -4.59428799 6.86476266 -8 8 C-8 7.01 -8 6.02 -8 5 C-7.05125 4.54625 -6.1025 4.0925 -5.125 3.625 C-1.99686321 2.19761746 -1.99686321 2.19761746 0 0 Z " fill="#7D9136" transform="translate(130,118)"/>
<path d="M0 0 C0.99 0 1.98 0 3 0 C3 1.32 3 2.64 3 4 C3.99 4 4.98 4 6 4 C6 4.66 6 5.32 6 6 C3.03 5.505 3.03 5.505 0 5 C0 3.35 0 1.7 0 0 Z " fill="#414822" transform="translate(96,107)"/>
<path d="M0 0 C1.32 0 2.64 0 4 0 C3.8864371 1.64666203 3.75882619 3.29236082 3.625 4.9375 C3.52058594 6.31228516 3.52058594 6.31228516 3.4140625 7.71484375 C3.27742187 8.46894531 3.14078125 9.22304687 3 10 C2.01 10.495 2.01 10.495 1 11 C1.01160156 10.37351562 1.02320313 9.74703125 1.03515625 9.1015625 C1.04417969 8.28429687 1.05320313 7.46703125 1.0625 6.625 C1.07990234 5.40683594 1.07990234 5.40683594 1.09765625 4.1640625 C1.14466334 1.95062858 1.14466334 1.95062858 0 0 Z " fill="#9DBDD0" transform="translate(139,79)"/>
<path d="M0 0 C0 0.66 0 1.32 0 2 C-1.1446875 2.185625 -1.1446875 2.185625 -2.3125 2.375 C-5.20267136 2.88102792 -5.20267136 2.88102792 -8 5 C-8.66 3.68 -9.32 2.36 -10 1 C-2.25 0 -2.25 0 0 0 Z " fill="#B17251" transform="translate(107,83)"/>
<path d="M0 0 C-0.33 0.99 -0.66 1.98 -1 3 C-0.01 3.99 0.98 4.98 2 6 C-1.79588866 5.45773019 -3.47211993 3.79872437 -6 1 C-4 0 -4 0 0 0 Z " fill="#BA8252" transform="translate(101,65)"/>
<path d="M0 0 C2.12508244 3.18762365 2.5020163 5.26512223 3 9 C2.01 9 1.02 9 0 9 C-1.10844919 5.67465243 -0.84454356 3.37817425 0 0 Z " fill="#86C4E6" transform="translate(115,26)"/>
<path d="M0 0 C1.65 0 3.3 0 5 0 C5 0.99 5 1.98 5 3 C4.34 3 3.68 3 3 3 C2.67 3.99 2.34 4.98 2 6 C1.34 6 0.68 6 0 6 C0 4.02 0 2.04 0 0 Z " fill="#566338" transform="translate(96,152)"/>
<path d="M0 0 C0.66 0.33 1.32 0.66 2 1 C-0.31 3.64 -2.62 6.28 -5 9 C-5.66 8.67 -6.32 8.34 -7 8 C-5.50902342 4.2047869 -3.24299151 2.38957269 0 0 Z " fill="#E2D4CC" transform="translate(113,105)"/>
<path d="M0 0 C2 2 2 2 2 3 C2.66 3.33 3.32 3.66 4 4 C3.34 4.66 2.68 5.32 2 6 C-0.125 5.625 -0.125 5.625 -2 5 C-2 2 -2 2 0 0 Z " fill="#A9CBE2" transform="translate(124,85)"/>
<path d="M0 0 C0.99 0 1.98 0 3 0 C3 0.99 3 1.98 3 3 C2.34 3 1.68 3 1 3 C1.33 4.32 1.66 5.64 2 7 C1.01 7 0.02 7 -1 7 C-1.625 4.625 -1.625 4.625 -2 2 C-1.34 1.34 -0.68 0.68 0 0 Z " fill="#69B5D8" transform="translate(135,73)"/>
<path d="M0 0 C4 4.75 4 4.75 4 7 C1.03 6.505 1.03 6.505 -2 6 C-1.34 5.67 -0.68 5.34 0 5 C0 3.35 0 1.7 0 0 Z " fill="#9FCBDD" transform="translate(130,66)"/>
<path d="M0 0 C0.66 0 1.32 0 2 0 C2.33 0.99 2.66 1.98 3 3 C2.34 3.99 1.68 4.98 1 6 C1.66 6 2.32 6 3 6 C2.67 7.32 2.34 8.64 2 10 C-0.4294516 6.3558226 -0.16179575 4.28758728 0 0 Z " fill="#64832A" transform="translate(116,137)"/>
<path d="M0 0 C0.99 0.33 1.98 0.66 3 1 C2.67 2.65 2.34 4.3 2 6 C0.68 6 -0.64 6 -2 6 C-1.125 1.125 -1.125 1.125 0 0 Z " fill="#77B6D6" transform="translate(129,76)"/>
<path d="M0 0 C1.9375 0.5625 1.9375 0.5625 4 2 C4.75 5.625 4.75 5.625 5 9 C2.38952199 7.694761 2.31933577 6.64173426 1.375 3.9375 C1.11460937 3.20402344 0.85421875 2.47054687 0.5859375 1.71484375 C0.39257812 1.14894531 0.19921875 0.58304688 0 0 Z " fill="#B4CA7F" transform="translate(133,191)"/>
<path d="M0 0 C3 3.625 3 3.625 3 7 C1.68 6.34 0.36 5.68 -1 5 C-0.67 3.35 -0.34 1.7 0 0 Z " fill="#8EAF4E" transform="translate(104,134)"/>
<path d="M0 0 C1.75 0.0625 1.75 0.0625 4 1 C5.59501537 3.24164322 6.74543018 5.53566643 8 8 C6 8 6 8 4.4921875 6.50390625 C3.69167969 5.54291016 3.69167969 5.54291016 2.875 4.5625 C2.33617188 3.92441406 1.79734375 3.28632812 1.2421875 2.62890625 C0 1 0 1 0 0 Z " fill="#E1B597" transform="translate(122,108)"/>
<path d="M0 0 C1.32 0 2.64 0 4 0 C4 0.99 4 1.98 4 3 C1.69 3.33 -0.62 3.66 -3 4 C-3.33 3.34 -3.66 2.68 -4 2 C-2.68 2.33 -1.36 2.66 0 3 C0 2.01 0 1.02 0 0 Z " fill="#77AACF" transform="translate(137,81)"/>
<path d="M0 0 C0.66 0 1.32 0 2 0 C2.66 1.65 3.32 3.3 4 5 C2.68 5.33 1.36 5.66 0 6 C-0.38218767 4.34385343 -0.71395102 2.67542976 -1 1 C-0.67 0.67 -0.34 0.34 0 0 Z " fill="#CF9675" transform="translate(101,71)"/>
<path d="M0 0 C-0.33 0.66 -0.66 1.32 -1 2 C-3.64860427 2.59355614 -6.29197322 2.74209269 -9 3 C-9 2.34 -9 1.68 -9 1 C-6.04335481 -0.4783226 -3.25770263 -0.06032783 0 0 Z " fill="#CCB272" transform="translate(104,52)"/>
<path d="M0 0 C1.32 0 2.64 0 4 0 C4.33 1.65 4.66 3.3 5 5 C3.35 5 1.7 5 0 5 C0 3.35 0 1.7 0 0 Z " fill="#D99E54" transform="translate(110,47)"/>
<path d="M0 0 C0.99 0.33 1.98 0.66 3 1 C2.6875 2.9375 2.6875 2.9375 2 5 C1.01 5.33 0.02 5.66 -1 6 C-1.33 5.01 -1.66 4.02 -2 3 C-1.34 2.01 -0.68 1.02 0 0 Z " fill="#768C45" transform="translate(107,41)"/>
<path d="M0 0 C0.99 1.32 1.98 2.64 3 4 C2.67 4.66 2.34 5.32 2 6 C-0.5625 6.625 -0.5625 6.625 -3 7 C-1.125 1.125 -1.125 1.125 0 0 Z " fill="#A9DCF3" transform="translate(114,37)"/>
<path d="M0 0 C0.66 0 1.32 0 2 0 C2.125 3.375 2.125 3.375 2 7 C1.34 7.66 0.68 8.32 0 9 C-1.125 2.25 -1.125 2.25 0 0 Z " fill="#CAD4B6" transform="translate(167,17)"/>
<path d="M0 0 C0.99 0 1.98 0 3 0 C2.67 3.63 2.34 7.26 2 11 C1.67 11 1.34 11 1 11 C0 3.375 0 3.375 0 0 Z " fill="#986D51" transform="translate(86,154)"/>
<path d="M0 0 C1.98 0.495 1.98 0.495 4 1 C3.34 2.98 2.68 4.96 2 7 C0.4375 5.1875 0.4375 5.1875 -1 3 C-0.67 2.01 -0.34 1.02 0 0 Z " fill="#ACD288" transform="translate(111,144)"/>
<path d="M0 0 C0.66 0 1.32 0 2 0 C1.67 2.64 1.34 5.28 1 8 C0.34 8 -0.32 8 -1 8 C-1.04241723 5.66705225 -1.04092937 3.33297433 -1 1 C-0.67 0.67 -0.34 0.34 0 0 Z " fill="#566A29" transform="translate(88,122)"/>
<path d="M0 0 C0.66 0.66 1.32 1.32 2 2 C1.34 3.98 0.68 5.96 0 8 C-0.99 8 -1.98 8 -3 8 C-1.125 2.25 -1.125 2.25 0 0 Z " fill="#95B56F" transform="translate(104,114)"/>
</svg>
