<?xml version="1.0" standalone="no"?>
<!DOCTYPE svg PUBLIC "-//W3C//DTD SVG 20010904//EN"
 "http://www.w3.org/TR/2001/REC-SVG-20010904/DTD/svg10.dtd">
<svg version="1.0" xmlns="http://www.w3.org/2000/svg"
 width="685.000000pt" height="450.000000pt" viewBox="0 0 685.000000 450.000000"
 preserveAspectRatio="xMidYMid meet">

<g transform="translate(0.000000,450.000000) scale(0.100000,-0.100000)"
fill="#000000" stroke="none">
<path d="M2754 4331 c9 -13 -30 -43 -206 -160 l-168 -111 0 -60 c0 -33 4 -60
10 -60 14 0 13 -123 -2 -138 -17 -17 -18 -90 -2 -96 9 -3 14 -22 14 -49 0 -40
-4 -47 -37 -70 -39 -26 -209 -121 -247 -138 -54 -24 -101 -59 -104 -77 -2 -10
-53 -68 -115 -128 -113 -110 -477 -468 -1084 -1066 -182 -181 -339 -329 -347
-330 -58 -6 -96 -3 -100 7 -2 7 -14 15 -26 18 -17 4 -24 1 -27 -14 -5 -18 -11
-20 -57 -14 -28 4 -59 11 -69 17 -9 5 -21 7 -26 4 -4 -3 -31 -2 -59 3 -29 4
-52 4 -52 0 0 -5 -9 -9 -19 -9 -10 0 -22 -7 -25 -16 -3 -9 -6 -198 -6 -421 l0
-406 20 26 c11 14 73 68 138 120 64 52 155 127 202 166 47 39 109 87 137 107
30 19 67 57 85 85 18 27 35 44 37 38 3 -10 -8 -28 -54 -88 -50 -66 -397 -424
-449 -462 -21 -16 -33 -29 -25 -29 25 0 131 90 320 271 240 230 285 269 199
169 -225 -260 -329 -366 -463 -473 -71 -57 -149 -127 -141 -127 3 0 26 12 52
26 l47 26 -55 -51 c-45 -42 -52 -53 -40 -61 8 -5 19 -10 23 -10 5 0 56 32 115
72 59 39 136 91 172 114 l65 42 118 5 119 5 -7 -36 c-5 -20 -7 -50 -6 -67 1
-16 -4 -56 -11 -88 l-12 -57 -81 -31 c-44 -17 -111 -44 -148 -61 -38 -16 -75
-27 -83 -24 -10 4 -13 2 -8 -7 16 -29 49 -57 66 -57 12 0 18 -7 18 -24 0 -27
24 -53 35 -36 3 5 1 10 -5 10 -6 0 -8 10 -4 27 9 36 14 41 50 49 27 5 31 2 47
-31 17 -36 17 -38 0 -59 -10 -11 -22 -24 -28 -28 -13 -10 -95 -10 -95 0 0 4
-31 6 -70 4 -51 -3 -70 -1 -70 8 0 14 38 50 52 50 17 0 7 30 -16 45 -23 15
-29 13 -132 -33 -108 -48 -109 -49 -112 -85 -3 -34 -1 -37 22 -37 34 0 38 -11
15 -46 -10 -16 -19 -37 -19 -46 0 -10 -4 -18 -10 -18 -6 0 -10 -58 -10 -155
l0 -155 1403 0 1404 0 18 43 c33 79 35 88 35 130 0 23 -6 63 -14 88 -12 40
-12 55 6 139 20 96 20 131 3 136 -12 4 -70 -133 -85 -201 -9 -41 -46 -147 -57
-164 -8 -13 -43 53 -63 120 -19 63 -27 76 -37 67 -10 -8 -20 -5 -39 13 -27 26
-27 54 2 174 15 59 60 311 71 392 9 68 20 69 104 7 40 -31 95 -69 120 -86 36
-23 49 -39 59 -71 7 -23 20 -62 30 -87 10 -25 24 -72 30 -105 7 -33 16 -78 21
-100 14 -67 9 -84 -10 -40 -10 22 -28 49 -40 59 -11 11 -21 27 -21 37 0 10 -5
21 -12 25 -7 5 -9 1 -5 -12 4 -10 25 -72 47 -136 53 -158 102 -348 96 -374 -3
-12 -15 -24 -26 -27 -11 -3 -20 -10 -20 -16 0 -8 141 -11 485 -11 l485 0 14
33 c8 17 19 44 25 59 10 27 31 39 31 18 0 -6 10 -33 23 -60 20 -44 25 -50 54
-50 28 0 32 3 36 33 l3 32 8 -32 9 -33 488 0 c269 0 489 2 489 5 0 7 -61 99
-90 137 -21 28 -26 53 -11 63 16 9 170 -45 191 -67 31 -34 26 -48 -12 -38 -18
5 -46 11 -62 14 -17 3 -40 18 -52 33 -12 15 -25 25 -30 21 -4 -4 8 -25 27 -46
19 -21 45 -57 59 -80 l25 -41 751 -1 c664 0 755 2 783 16 19 9 42 13 60 9 28
-6 28 -5 34 47 4 29 7 95 7 146 0 73 -3 92 -14 92 -28 0 -46 -12 -46 -32 0
-15 -5 -18 -20 -13 -19 6 -26 -7 -21 -38 2 -14 -33 -67 -44 -67 -7 0 -11 26
-10 73 2 92 29 155 80 187 42 26 43 53 3 58 -23 3 -30 -2 -41 -30 -8 -18 -21
-39 -29 -46 -14 -11 -16 -9 -14 18 2 31 2 31 -33 25 -20 -3 -47 -9 -60 -12
-16 -4 -22 -2 -20 6 5 15 41 35 84 48 30 9 30 9 27 75 -3 63 -1 71 33 122 20
31 35 63 33 73 -3 15 -9 13 -36 -16 -18 -19 -35 -31 -38 -28 -9 9 23 75 42 85
18 10 18 11 0 30 -23 26 -14 56 24 79 40 23 46 43 15 43 -35 0 -31 12 17 60
l41 42 13 -23 c11 -21 13 3 14 164 0 143 -3 187 -12 187 -10 0 -10 2 0 8 10 7
12 93 10 411 l-3 403 -70 25 c-38 14 -83 29 -100 33 -50 14 -95 34 -95 43 0 4
-5 5 -10 2 -16 -10 -50 5 -50 21 0 8 5 14 10 14 6 0 10 4 10 8 0 7 -55 9 -68
3 -1 0 2 -10 8 -21 9 -17 8 -20 -9 -20 -26 0 -51 10 -51 21 0 5 7 9 16 9 28 0
8 25 -21 26 -32 1 -54 -14 -48 -33 3 -8 -4 -10 -21 -7 -19 3 -24 1 -20 -10 3
-8 0 -17 -7 -22 -9 -5 -10 -2 -6 9 4 10 2 17 -5 17 -7 0 -6 5 2 15 13 15 3 15
-77 -1 -16 -3 -23 0 -23 12 0 10 -6 14 -14 11 -8 -3 -16 -1 -18 5 -2 6 -20 10
-39 8 -18 -1 -49 -3 -66 -3 -21 0 -33 -6 -33 -14 0 -7 -11 -13 -26 -13 -14 0
-23 -4 -19 -10 3 -5 -1 -10 -9 -10 -20 0 -21 -19 -1 -26 11 -5 12 -11 4 -25
-5 -10 -14 -19 -19 -19 -14 0 -38 52 -33 70 4 12 2 12 -5 2 -5 -7 -13 -12 -18
-11 -5 2 -25 -5 -44 -13 -22 -11 -28 -17 -17 -17 11 -1 17 -7 14 -13 -2 -7 -9
-12 -15 -11 -5 1 -13 -4 -16 -12 -4 -11 3 -15 26 -15 17 0 29 -3 26 -6 -9 -9
-222 -11 -244 -3 -11 4 21 8 74 8 l93 1 -20 29 c-12 16 -21 34 -21 40 0 5 -13
33 -30 61 -16 28 -30 54 -30 59 0 4 -7 22 -15 39 -20 40 -40 43 -295 37 -113
-2 -209 -4 -215 -4 -119 -1 -691 12 -695 15 -3 3 210 4 473 2 314 -2 477 0
477 7 -1 6 -16 37 -35 70 -35 60 -52 95 -80 160 l-15 35 -187 2 c-104 1 -151
4 -105 5 45 2 82 7 82 11 0 4 -7 16 -15 26 -8 11 -15 29 -15 40 0 12 -12 41
-26 66 -15 25 -27 52 -28 60 -1 8 -7 26 -13 40 -10 24 -14 25 -124 28 -63 2
-116 7 -119 13 -4 5 -21 55 -40 111 -18 57 -39 118 -47 136 l-14 32 -107 0
-107 0 -42 88 c-23 48 -55 108 -72 135 l-31 47 -95 0 c-91 0 -97 1 -119 26
-19 23 -24 25 -37 12 -16 -16 -40 -12 -52 8 -4 8 -15 14 -22 14 -8 0 -15 7
-15 16 0 11 -6 14 -21 9 -15 -5 -20 -3 -17 6 8 23 45 22 58 0 6 -12 19 -21 30
-21 10 0 20 -4 22 -10 2 -5 9 -6 16 -1 7 4 10 15 6 24 -3 9 -9 15 -13 13 -12
-8 0 159 12 169 18 15 17 95 -1 95 -12 0 -14 12 -9 60 5 44 3 60 -6 60 -6 0
-1 11 13 23 20 17 24 28 19 52 -3 17 -2 40 2 52 5 14 4 25 -3 29 -7 4 -85 12
-175 17 -162 10 -163 10 -163 34 0 17 -6 23 -22 23 -18 0 -20 -2 -9 -9 12 -8
12 -12 3 -24 -9 -11 -30 -14 -75 -12 -34 1 -92 3 -129 4 -58 1 -68 4 -68 19
-1 16 -1 16 -10 0 -9 -15 -25 -16 -138 -11 -70 3 -133 11 -141 17 -11 8 -15 8
-19 -2 -3 -9 -35 -11 -140 -6 -76 3 -139 9 -142 13 -3 4 -13 11 -24 14 -14 6
-17 3 -12 -8 4 -10 -1 -15 -14 -15 -11 0 -20 7 -20 15 0 8 -5 15 -11 15 -5 0
-8 -4 -5 -9z m96 -56 c0 -14 -4 -25 -9 -25 -4 0 -6 11 -3 25 2 14 6 25 8 25 2
0 4 -11 4 -25z m-33 -7 c-3 -8 -6 -5 -6 6 -1 11 2 17 5 13 3 -3 4 -12 1 -19z
m10 -64 c-3 -3 -12 -4 -19 -1 -8 3 -5 6 6 6 11 1 17 -2 13 -5z m10 -71 c-3
-10 -5 -4 -5 12 0 17 2 24 5 18 2 -7 2 -21 0 -30z m-60 -33 c2 -11 -6 -24 -17
-30 -19 -10 -20 -9 -14 17 12 49 24 55 31 13z m356 2 c-6 -24 -24 -25 -31 -2
-3 7 0 10 7 6 6 -4 14 0 17 9 9 23 14 13 7 -13z m633 3 c-3 -8 -1 -15 4 -15 6
0 10 -7 10 -15 0 -8 7 -15 16 -15 10 0 14 6 10 15 -3 8 -1 15 4 15 6 0 10 -7
10 -15 0 -8 5 -15 10 -15 6 0 10 -5 10 -11 0 -13 -92 -5 -118 10 -11 7 -13 10
-3 11 9 0 11 8 7 25 -6 22 -3 25 20 25 19 0 25 -4 20 -15z m-826 -10 c0 -8 -4
-15 -10 -15 -5 0 -10 7 -10 15 0 8 5 15 10 15 6 0 10 -7 10 -15z m627 -17 c-3
-7 -5 -2 -5 12 0 14 2 19 5 13 2 -7 2 -19 0 -25z m-727 14 c0 -5 -7 -17 -15
-28 -14 -18 -14 -17 -4 9 12 27 19 34 19 19z m330 4 c0 -2 -7 -7 -16 -10 -8
-3 -12 -2 -9 4 6 10 25 14 25 6z m157 -18 c-3 -8 -6 -5 -6 6 -1 11 2 17 5 13
3 -3 4 -12 1 -19z m316 6 c8 -8 -3 -34 -14 -34 -5 0 -9 9 -9 20 0 19 11 26 23
14z m283 -31 c1 -24 -3 -31 -17 -30 -13 1 -17 9 -16 34 3 45 32 41 33 -4z
m-1106 -63 c0 -5 -5 -10 -11 -10 -5 0 -7 5 -4 10 3 6 8 10 11 10 2 0 4 -4 4
-10z m-339 -69 c7 11 9 11 9 -3 0 -10 -7 -18 -15 -18 -9 0 -15 9 -14 23 1 19
2 19 6 3 4 -15 7 -16 14 -5z m512 -164 c13 -3 6 -5 -15 -6 -21 0 -38 4 -38 10
0 5 5 7 10 4 6 -3 11 2 11 12 1 16 2 16 6 1 2 -9 14 -19 26 -21z m-163 3 c8
-5 11 -12 7 -17 -5 -4 -11 -3 -15 3 -4 6 -14 14 -22 17 -13 5 -13 5 0 6 8 0
22 -3 30 -9z m93 3 c4 -4 -7 -13 -24 -20 -37 -16 -49 -16 -49 -3 0 6 3 9 8 9
4 -1 14 -1 22 0 13 1 13 2 0 11 -12 8 -10 10 11 10 14 0 29 -3 32 -7z m150
-23 c6 -23 -3 -26 -21 -8 -9 9 -12 9 -12 -1 0 -7 -4 -10 -10 -6 -14 9 0 35 20
35 10 0 20 -9 23 -20z m26 6 c7 -8 8 -17 3 -20 -6 -3 -12 3 -15 14 -6 24 -4
25 12 6z m106 -6 c3 -5 1 -10 -4 -10 -6 0 -11 5 -11 10 0 6 2 10 4 10 3 0 8
-4 11 -10z m448 -7 c-7 -2 -19 -2 -25 0 -7 3 -2 5 12 5 14 0 19 -2 13 -5z
m-938 -103 c3 -5 1 -10 -4 -10 -6 0 -11 5 -11 10 0 6 2 10 4 10 3 0 8 -4 11
-10z m1304 -40 c11 -24 11 -24 -3 -6 -9 11 -16 24 -16 30 0 12 5 7 19 -24z
m-1619 -500 c0 -5 -7 -7 -15 -4 -10 4 -15 0 -15 -11 0 -9 -5 -15 -11 -13 -6 2
-9 8 -7 13 2 5 -10 13 -27 16 -24 5 -19 7 23 8 28 0 52 -3 52 -9z m50 6 c0 -2
-9 -6 -20 -9 -11 -3 -18 -1 -14 4 5 9 34 13 34 5z m150 -7 c0 -7 -11 -9 -30
-5 -22 4 -32 1 -36 -9 -8 -20 -34 -19 -34 0 0 8 -7 15 -16 15 -10 0 -14 -6
-10 -15 3 -8 1 -15 -4 -15 -6 0 -10 9 -10 20 0 18 7 20 70 20 45 0 70 -4 70
-11z m230 -3 c0 -2 -7 -6 -15 -10 -8 -3 -15 -1 -15 4 0 6 7 10 15 10 8 0 15
-2 15 -4z m667 -122 c-3 -3 -12 -4 -19 -1 -8 3 -5 6 6 6 11 1 17 -2 13 -5z
m-54 -101 c-7 -2 -21 -2 -30 0 -10 3 -4 5 12 5 17 0 24 -2 18 -5z m-1313 -47
c0 -3 -4 -8 -10 -11 -5 -3 -10 -1 -10 4 0 6 5 11 10 11 6 0 10 -2 10 -4z m166
-16 c0 -11 -7 -20 -15 -20 -8 0 -11 3 -8 7 4 3 2 12 -4 20 -9 10 -7 13 8 13
12 0 19 -7 19 -20z m166 5 c-3 -11 -22 -10 -72 4 -33 9 -32 9 20 8 31 -1 54
-6 52 -12z m38 5 c0 -5 -4 -10 -10 -10 -5 0 -10 5 -10 10 0 6 5 10 10 10 6 0
10 -4 10 -10z m50 -10 c0 -5 -4 -10 -10 -10 -5 0 -10 5 -10 10 0 6 5 10 10 10
6 0 10 -4 10 -10z m30 0 c0 -5 -2 -10 -4 -10 -3 0 -8 5 -11 10 -3 6 -1 10 4
10 6 0 11 -4 11 -10z m327 -6 c-3 -3 -12 -4 -19 -1 -8 3 -5 6 6 6 11 1 17 -2
13 -5z m-847 -24 c0 -5 -8 -10 -17 -10 -15 0 -16 2 -3 10 19 12 20 12 20 0z
m37 -6 c-3 -3 -12 -4 -19 -1 -8 3 -5 6 6 6 11 1 17 -2 13 -5z m1236 -74 c3
-11 1 -20 -4 -20 -5 0 -9 9 -9 20 0 11 2 20 4 20 2 0 6 -9 9 -20z m157 16 c0
-3 -4 -8 -10 -11 -5 -3 -10 -1 -10 4 0 6 5 11 10 11 6 0 10 -2 10 -4z m260
-80 c0 -3 -4 -8 -10 -11 -5 -3 -10 -1 -10 4 0 6 5 11 10 11 6 0 10 -2 10 -4z
m-1600 -31 c0 -8 -4 -15 -10 -15 -5 0 -10 7 -10 15 0 8 5 15 10 15 6 0 10 -7
10 -15z m1397 -1 c-3 -3 -12 -4 -19 -1 -8 3 -5 6 6 6 11 1 17 -2 13 -5z
m-1489 -83 c4 -28 -13 -20 -21 9 -3 14 -1 20 6 17 7 -2 14 -14 15 -26z m152
15 c0 -2 -3 -11 -6 -20 -9 -23 -24 -20 -24 4 0 11 7 20 15 20 8 0 15 -2 15 -4z
m90 -11 c0 -8 -2 -15 -4 -15 -2 0 -6 7 -10 15 -3 8 -1 15 4 15 6 0 10 -7 10
-15z m60 11 c0 -3 -4 -8 -10 -11 -5 -3 -10 -1 -10 4 0 6 5 11 10 11 6 0 10 -2
10 -4z m90 0 c0 -9 -30 -14 -35 -6 -4 6 3 10 14 10 12 0 21 -2 21 -4z m944
-12 c3 -8 2 -12 -4 -9 -6 3 -10 10 -10 16 0 14 7 11 14 -7z m279 -31 c-7 -2
-19 -2 -25 0 -7 3 -2 5 12 5 14 0 19 -2 13 -5z m-1536 -9 c-3 -3 -12 -4 -19
-1 -8 3 -5 6 6 6 11 1 17 -2 13 -5z m1436 -101 c-13 -2 -33 -2 -45 0 -13 2 -3
4 22 4 25 0 35 -2 23 -4z m137 -3 c0 -5 -7 -7 -15 -4 -8 4 -15 8 -15 10 0 2 7
4 15 4 8 0 15 -4 15 -10z m127 -26 c-3 -3 -12 -4 -19 -1 -8 3 -5 6 6 6 11 1
17 -2 13 -5z m106 -1 c-7 -2 -19 -2 -25 0 -7 3 -2 5 12 5 14 0 19 -2 13 -5z
m-488 -33 c3 -5 1 -10 -4 -10 -6 0 -11 5 -11 10 0 6 2 10 4 10 3 0 8 -4 11
-10z m91 -69 c2 -11 -3 -9 -17 8 -10 13 -19 28 -19 33 0 15 34 -23 36 -41z
m2631 27 c-3 -8 -6 -5 -6 6 -1 11 2 17 5 13 3 -3 4 -12 1 -19z m-2677 -43 c0
-5 -5 -3 -10 5 -5 8 -10 20 -10 25 0 6 5 3 10 -5 5 -8 10 -19 10 -25z m-1172
20 c-7 -7 -690 -6 -697 0 -2 3 155 5 349 5 194 0 351 -2 348 -5z m202 -6 c0
-13 -37 -16 -53 -4 -14 10 -11 12 18 12 19 0 35 -4 35 -8z m4117 -5 c6 -17
-47 -28 -61 -13 -8 9 -7 10 7 6 11 -4 17 -1 17 9 0 17 31 16 37 -2z m-2834
-11 c-7 -2 -21 -2 -30 0 -10 3 -4 5 12 5 17 0 24 -2 18 -5z m64 1 c-3 -3 -12
-4 -19 -1 -8 3 -5 6 6 6 11 1 17 -2 13 -5z m1600 0 c-7 -7 -858 -7 -865 1 -3
3 192 5 433 5 241 0 436 -3 432 -6z m139 -2 c-5 -8 -106 -5 -115 4 -2 2 24 4
58 4 34 0 60 -4 57 -8z m341 2 c-3 -3 -12 -4 -19 -1 -8 3 -5 6 6 6 11 1 17 -2
13 -5z m499 -38 c16 -17 19 -56 3 -56 -5 0 -7 -5 -4 -10 4 -6 4 -18 1 -27 -5
-12 -9 -13 -21 -3 -8 7 -12 17 -9 22 4 5 -4 8 -16 6 -17 -2 -24 3 -26 17 -4
26 23 55 44 48 10 -4 13 -2 8 5 -10 17 2 15 20 -2z m124 4 c0 -5 -4 -10 -10
-10 -5 0 -10 5 -10 10 0 6 5 10 10 10 6 0 10 -4 10 -10z m-2953 -16 c-3 -3
-12 -4 -19 -1 -8 3 -5 6 6 6 11 1 17 -2 13 -5z m130 0 c-3 -3 -12 -4 -19 -1
-8 3 -5 6 6 6 11 1 17 -2 13 -5z m256 -31 c-7 -2 -21 -2 -30 0 -10 3 -4 5 12
5 17 0 24 -2 18 -5z m2497 -3 c0 -5 -4 -10 -10 -10 -5 0 -10 5 -10 10 0 6 5
10 10 10 6 0 10 -4 10 -10z m-3050 -20 c0 -5 -2 -10 -4 -10 -3 0 -8 5 -11 10
-3 6 -1 10 4 10 6 0 11 -4 11 -10z m320 -6 c0 -2 -9 -4 -20 -4 -11 0 -20 4
-20 9 0 5 9 7 20 4 11 -3 20 -7 20 -9z m2210 12 c0 -2 -7 -6 -15 -10 -8 -3
-15 -1 -15 4 0 6 7 10 15 10 8 0 15 -2 15 -4z m-2107 -13 c-7 -2 -19 -2 -25 0
-7 3 -2 5 12 5 14 0 19 -2 13 -5z m2522 -23 c-3 -5 -12 -10 -18 -10 -7 0 -6 4
3 10 19 12 23 12 15 0z m-2658 -10 c-16 -5 -38 -5 -50 0 -17 7 -10 9 28 9 43
-1 46 -2 22 -9z m18 -20 c3 -5 1 -10 -4 -10 -6 0 -11 5 -11 10 0 6 2 10 4 10
3 0 8 -4 11 -10z m-588 -25 c24 -21 25 -24 9 -25 -20 0 -56 27 -56 42 0 15 18
8 47 -17z m74 -61 c12 -14 11 -16 -5 -13 -11 2 -21 10 -24 17 -5 17 13 15 29
-4z m-20 -31 c13 -16 12 -17 -3 -4 -17 13 -22 21 -14 21 2 0 10 -8 17 -17z
m378 -14 c9 -27 9 -30 -4 -19 -8 7 -15 21 -15 31 0 28 7 23 19 -12z m-2225 13
c6 -10 -51 -8 -61 1 -3 4 8 7 25 7 17 0 33 -4 36 -8z m2646 -38 c0 -4 -9 1
-20 11 -11 10 -20 23 -20 28 0 6 9 1 20 -11 11 -12 20 -24 20 -28z m1754 26
c88 0 157 -2 154 -5 -3 -3 -154 -6 -337 -6 -227 0 -331 -3 -331 -11 0 -7 -4
-7 -12 0 -8 5 -121 13 -263 17 -137 4 -252 9 -255 12 -3 3 195 3 440 -1 245
-3 517 -6 604 -6z m501 -5 c6 -2 -69 -3 -165 -2 -140 1 -156 2 -80 6 90 6 224
3 245 -4z m-2522 -70 c52 -70 54 -75 32 -75 -8 0 -15 4 -15 10 0 9 -25 42 -56
74 -12 12 -34 51 -34 60 0 17 31 -13 73 -69z m2782 58 c25 -12 35 -23 35 -40
0 -13 -4 -23 -10 -23 -5 0 -10 -17 -11 -37 l0 -38 -13 30 c-7 17 -18 44 -23
60 -6 17 -14 38 -18 48 -9 21 -5 21 40 0z m-2495 -33 c0 -5 -2 -10 -4 -10 -3
0 -8 5 -11 10 -3 6 -1 10 4 10 6 0 11 -4 11 -10z m2570 0 c0 -5 -4 -10 -9 -10
-6 0 -13 5 -16 10 -3 6 1 10 9 10 9 0 16 -4 16 -10z m-3310 -35 c7 -9 8 -15 2
-15 -5 0 -12 7 -16 15 -3 8 -4 15 -2 15 2 0 9 -7 16 -15z m813 8 c-7 -2 -19
-2 -25 0 -7 3 -2 5 12 5 14 0 19 -2 13 -5z m2533 -20 c-7 -7 -26 7 -26 19 0 6
6 6 15 -2 9 -7 13 -15 11 -17z m-161 -4 c-4 -5 -13 -9 -22 -9 -13 0 -13 3 -3
15 13 15 35 11 25 -6z m-3119 -120 c54 -50 138 -121 187 -156 48 -36 87 -68
87 -72 0 -9 56 -50 130 -96 30 -19 64 -41 75 -50 10 -8 37 -16 60 -16 30 -2
33 -3 12 -6 -29 -5 -28 -23 3 -23 10 0 20 -6 23 -13 2 -7 21 -21 42 -32 20
-11 65 -46 98 -79 37 -35 50 -51 32 -41 -28 17 -110 82 -144 114 -9 8 -30 20
-49 28 -18 7 -65 38 -104 68 -39 30 -75 55 -79 55 -5 0 -28 13 -52 30 -24 16
-72 42 -105 58 -48 23 -89 58 -196 166 -126 128 -149 156 -128 156 5 0 53 -41
108 -91z m3344 70 c13 -24 6 -53 -12 -47 -6 2 -20 -4 -31 -15 -10 -10 -21 -17
-23 -14 -3 2 9 19 27 36 25 26 29 34 19 46 -8 10 -9 15 -2 15 6 0 16 -9 22
-21z m-2529 -252 c9 -16 8 -17 -8 -9 -27 15 -218 221 -221 240 -3 17 209 -198
229 -231z m-44 237 c-3 -3 -12 -4 -19 -1 -8 3 -5 6 6 6 11 1 17 -2 13 -5z
m2299 -26 c-7 -34 -38 -68 -44 -48 -2 6 2 17 8 26 7 8 10 17 7 21 -8 8 12 33
25 33 6 0 8 -13 4 -32z m-1750 -80 c18 -36 38 -69 44 -73 11 -7 92 -175 121
-251 11 -29 32 -69 47 -90 25 -36 27 -43 19 -86 -5 -27 -13 -48 -17 -48 -5 0
-27 24 -51 53 -66 80 -92 105 -106 100 -11 -4 -48 62 -44 80 1 5 -8 22 -19 38
-12 16 -19 29 -16 29 11 0 112 -63 134 -83 12 -11 22 -18 22 -15 0 11 -67 156
-91 198 -15 25 -30 56 -34 69 -4 14 -27 57 -50 97 -24 40 -41 75 -37 78 11 12
45 -30 78 -96z m749 92 c13 -6 15 -9 5 -9 -8 0 -22 4 -30 9 -18 12 -2 12 25 0z
m-2358 -39 c50 -22 111 -45 134 -51 56 -15 119 -47 119 -61 0 -6 -9 -8 -21 -4
-12 4 -38 8 -58 9 -36 2 -251 102 -281 132 -26 25 10 17 107 -25z m641 -43
c10 0 23 -1 29 -1 7 1 11 -3 8 -7 -7 -11 20 -31 36 -27 8 2 11 2 6 0 -18 -11
8 -23 51 -25 44 -1 44 -2 10 -5 -21 -2 -38 -8 -38 -14 0 -9 14 -13 38 -10 6 1
12 -5 12 -12 0 -8 7 -17 15 -21 8 -3 15 -10 15 -16 0 -12 -36 4 -58 27 -7 7
-22 13 -33 13 -10 0 -19 4 -19 9 0 5 -13 12 -30 16 -16 4 -28 12 -27 18 1 6
-7 13 -19 15 -13 2 -25 16 -34 40 -22 64 -22 68 0 35 12 -18 29 -34 38 -35z
m1817 52 c3 -5 -3 -10 -14 -10 -12 0 -21 5 -21 10 0 6 6 10 14 10 8 0 18 -4
21 -10z m1225 0 c0 -5 -8 -18 -19 -29 -21 -21 -45 -13 -35 12 3 9 10 15 14 12
5 -3 11 -1 15 5 8 13 25 13 25 0z m-1385 -10 c-3 -5 -12 -7 -20 -3 -21 7 -19
13 6 13 11 0 18 -4 14 -10z m1117 -53 c7 5 33 9 58 7 25 -2 62 -3 83 -3 21 -1
36 -5 32 -10 -3 -6 -38 -8 -78 -5 -39 2 -66 1 -59 -2 6 -3 12 -10 12 -15 0
-14 -53 -10 -74 6 -11 8 -33 15 -49 15 -16 0 -26 4 -22 10 3 6 15 10 26 10 10
0 19 6 19 13 0 6 9 1 19 -13 14 -18 22 -21 33 -13z m-1373 -3 c2 -2 -37 -4
-87 -4 -50 0 -93 4 -96 9 -6 8 174 3 183 -5z m1261 -16 c0 -15 5 -30 10 -33
12 -7 14 -45 2 -45 -40 0 -79 48 -52 65 6 3 10 10 10 14 0 4 -242 8 -537 9
-631 1 -748 4 -548 12 77 3 359 5 627 5 l488 0 0 -27z m-4710 -4 c0 -2 -7 -4
-15 -4 -8 0 -15 4 -15 10 0 5 7 7 15 4 8 -4 15 -8 15 -10z m160 6 c12 -8 11
-10 -7 -10 -13 0 -23 5 -23 10 0 13 11 13 30 0z m187 -2 c-2 -7 -11 -12 -21
-10 -19 3 -22 -14 -3 -21 6 -3 4 -6 -7 -6 -10 -1 -25 7 -32 17 -13 16 -13 16
-14 -3 0 -17 -2 -18 -10 -5 -9 13 -12 13 -24 -3 -11 -14 -16 -15 -22 -6 -4 8
-2 15 6 17 9 3 5 9 -11 18 -22 12 -15 13 59 14 63 0 83 -3 79 -12z m33 2 c0
-5 -4 -10 -10 -10 -5 0 -10 5 -10 10 0 6 5 10 10 10 6 0 10 -4 10 -10z m55 0
c-3 -5 -12 -10 -20 -10 -8 0 -17 5 -20 10 -4 6 5 10 20 10 15 0 24 -4 20 -10z
m85 0 c0 -5 -14 -8 -30 -7 -44 5 -49 17 -7 17 21 0 37 -4 37 -10z m87 4 c-3
-3 -12 -4 -19 -1 -8 3 -5 6 6 6 11 1 17 -2 13 -5z m243 -19 c0 -16 -6 -25 -15
-25 -8 0 -15 7 -15 15 0 17 0 17 -93 20 -107 5 -92 15 21 15 l102 0 0 -25z
m133 18 c-7 -2 -13 -11 -13 -20 0 -12 -2 -12 -16 2 -9 9 -22 14 -29 12 -6 -3
-18 -1 -26 4 -9 6 5 8 41 8 30 0 49 -3 43 -6z m209 -25 c-9 -9 -12 -7 -12 12
0 19 3 21 12 12 9 -9 9 -15 0 -24z m3915 -1 c17 -15 20 -24 13 -43 -6 -14 -6
-26 1 -29 17 -11 -2 -25 -27 -19 -14 4 -24 2 -24 -5 0 -6 -5 -11 -10 -11 -6 0
-4 12 4 28 9 18 11 33 5 43 -5 8 -9 27 -9 42 0 30 8 29 47 -6z m-5064 3 c-3
-11 -7 -20 -8 -20 -1 0 -5 9 -8 20 -3 12 0 20 8 20 8 0 11 -8 8 -20z m3894
-26 c-3 -3 -12 -4 -19 -1 -8 3 -5 6 6 6 11 1 17 -2 13 -5z m714 -16 c10 -13
18 -28 19 -34 0 -6 11 -32 25 -58 15 -28 20 -46 13 -44 -7 3 -24 27 -38 55
-14 27 -33 57 -42 67 -10 10 -18 22 -18 27 0 16 21 9 41 -13z m-2591 -16 c0
-15 -2 -15 -10 -2 -13 20 -13 33 0 25 6 -3 10 -14 10 -23z m250 -74 c40 -29
15 -31 -29 -2 -23 14 -41 28 -41 29 0 7 48 -12 70 -27z m-544 -35 c-10 -10
-19 5 -10 18 6 11 8 11 12 0 2 -7 1 -15 -2 -18z m2882 8 c3 -8 -1 -12 -9 -9
-7 2 -15 10 -17 17 -3 8 1 12 9 9 7 -2 15 -10 17 -17z m373 -14 c-16 -16 -26
0 -10 19 9 11 15 12 17 4 2 -6 -1 -17 -7 -23z m-4881 13 c0 -5 -2 -10 -4 -10
-3 0 -8 5 -11 10 -3 6 -1 10 4 10 6 0 11 -4 11 -10z m2491 -9 c-12 -8 -12 -12
-2 -25 8 -9 10 -16 7 -16 -4 0 2 -14 14 -30 30 -42 20 -60 -13 -25 -18 20 -25
36 -21 51 3 12 1 25 -5 28 -19 12 -12 26 12 26 17 0 19 -2 8 -9z m-434 -7 c-3
-3 -12 -4 -19 -1 -8 3 -5 6 6 6 11 1 17 -2 13 -5z m56 -1 c-7 -2 -21 -2 -30 0
-10 3 -4 5 12 5 17 0 24 -2 18 -5z m1803 -6 c3 -3 -8 -13 -25 -22 -17 -9 -31
-11 -31 -5 0 5 -3 9 -7 9 -19 -3 -33 2 -33 12 0 6 7 9 15 6 8 -4 17 -2 20 3 5
9 52 7 61 -3z m154 -7 c0 -11 -6 -20 -13 -20 -19 0 -27 10 -20 26 8 21 33 17
33 -6z m-1240 0 c0 -5 -2 -10 -4 -10 -3 0 -8 5 -11 10 -3 6 -1 10 4 10 6 0 11
-4 11 -10z m1753 -31 c29 -34 34 -44 15 -33 -7 4 3 -7 22 -24 19 -16 32 -33
27 -38 -4 -4 0 -15 8 -24 22 -25 9 -50 -27 -50 -28 0 -29 2 -23 30 6 26 2 34
-19 51 -19 15 -26 30 -26 54 0 22 -7 37 -22 48 -22 15 -22 16 -3 16 11 1 33
-13 48 -30z m-3983 -5 c0 -8 -4 -14 -10 -14 -5 0 -10 9 -10 21 0 11 5 17 10
14 6 -3 10 -13 10 -21z m1545 6 c3 -6 -1 -7 -9 -4 -18 7 -21 14 -7 14 6 0 13
-4 16 -10z m2785 -10 c0 -5 -4 -10 -9 -10 -6 0 -13 5 -16 10 -3 6 1 10 9 10 9
0 16 -4 16 -10z m-4775 -10 c3 -5 1 -10 -4 -10 -6 0 -11 5 -11 10 0 6 2 10 4
10 3 0 8 -4 11 -10z m3118 3 c-7 -2 -19 -2 -25 0 -7 3 -2 5 12 5 14 0 19 -2
13 -5z m509 -1 c-16 -11 -421 -12 -447 -1 -11 4 88 8 220 8 132 0 234 -3 227
-7z m61 1 c-7 -2 -21 -2 -30 0 -10 3 -4 5 12 5 17 0 24 -2 18 -5z m121 -2 c4
-6 -15 -9 -44 -8 -66 1 -74 13 -10 16 27 1 51 -3 54 -8z m139 2 c-18 -2 -48
-2 -65 0 -18 2 -4 4 32 4 36 0 50 -2 33 -4z m386 2 c-7 -7 -340 -8 -347 -1 -3
3 75 6 173 6 98 0 176 -2 174 -5z m224 -2 c-18 -2 -48 -2 -65 0 -18 2 -4 4 32
4 36 0 50 -2 33 -4z m270 0 c-7 -2 -19 -2 -25 0 -7 3 -2 5 12 5 14 0 19 -2 13
-5z m-4278 -23 c6 -2 -6 -6 -25 -9 -19 -4 -34 -11 -33 -17 1 -6 -5 -11 -13
-11 -8 0 -13 6 -10 14 7 18 -90 18 -98 1 -5 -10 -7 -10 -12 0 -3 6 -24 13 -47
13 l-42 2 40 6 c37 5 216 6 240 1z m381 -12 c-16 -9 -36 -3 -36 11 0 5 12 6
26 3 22 -4 24 -6 10 -14z m-847 -1 c-8 -8 -18 -12 -24 -9 -5 4 -257 6 -560 6
-405 0 -475 1 -265 5 691 14 863 13 849 -2z m163 -12 c-2 -14 -9 -25 -14 -25
-6 0 -8 9 -5 20 3 10 0 21 -7 24 -6 2 -1 5 10 5 17 1 20 -4 16 -24z m-1461
-13 c-13 -9 -43 -28 -65 -41 -41 -24 -41 -24 -21 -2 20 23 82 60 100 60 6 0
-1 -8 -14 -17z m5760 -19 c13 -15 12 -15 -8 -4 -24 12 -29 21 -14 21 5 0 15
-7 22 -17z m-253 -22 c2 -13 -1 -28 -7 -34 -5 -5 -7 -23 -4 -38 7 -38 -11 -38
-26 -1 -11 26 -8 70 6 95 9 15 28 1 31 -22z m-3541 13 c-3 -3 -12 -4 -19 -1
-8 3 -5 6 6 6 11 1 17 -2 13 -5z m1917 -9 c3 -8 1 -15 -4 -15 -6 0 -10 7 -10
15 0 8 2 15 4 15 2 0 6 -7 10 -15z m2139 -52 c20 -13 37 -25 37 -28 0 -19 -37
-75 -56 -84 -13 -6 -24 -19 -24 -30 0 -10 -7 -24 -15 -31 -13 -11 -16 -8 -21
19 -4 17 -10 31 -15 31 -12 0 11 50 34 77 20 22 20 22 -3 41 -25 20 -20 45 8
35 9 -4 34 -17 55 -30z m-578 -3 c-5 -8 -11 -8 -17 -2 -6 6 -7 16 -3 22 5 8
11 8 17 2 6 -6 7 -16 3 -22z m-5570 10 c-3 -5 -11 -10 -16 -10 -6 0 -7 5 -4
10 3 6 11 10 16 10 6 0 7 -4 4 -10z m540 0 c-3 -5 -11 -10 -16 -10 -6 0 -7 5
-4 10 3 6 11 10 16 10 6 0 7 -4 4 -10z m3595 -11 c0 -6 -4 -7 -10 -4 -5 3 -10
11 -10 16 0 6 5 7 10 4 6 -3 10 -11 10 -16z m-1001 -40 c18 -22 30 -43 27 -46
-7 -7 -86 66 -86 79 0 20 28 4 59 -33z m-3194 11 c-3 -5 -12 -10 -18 -10 -7 0
-6 4 3 10 19 12 23 12 15 0z m575 -24 c0 -5 -7 -3 -15 4 -8 7 -12 17 -9 22 7
10 24 -9 24 -26z m3567 28 c-3 -3 -12 -4 -19 -1 -8 3 -5 6 6 6 11 1 17 -2 13
-5z m-2987 -28 c0 -8 -4 -18 -10 -21 -5 -3 -10 3 -10 14 0 12 5 21 10 21 6 0
10 -6 10 -14z m2834 -2 c9 -24 7 -54 -4 -54 -6 0 -20 6 -33 13 -12 6 -23 12
-23 12 -1 0 -5 10 -8 23 -7 20 -4 22 27 22 23 0 37 -6 41 -16z m1666 -33 c-3
-46 -1 -51 30 -51 33 0 35 2 19 32 -8 14 -8 23 0 31 7 7 11 7 11 1 0 -22 39
-52 62 -47 18 4 20 3 8 -6 -12 -9 -10 -11 13 -11 15 0 27 5 27 10 0 6 5 10 11
10 5 0 7 -4 4 -10 -4 -6 14 -10 48 -10 70 0 94 -22 57 -51 -14 -10 -32 -21
-41 -24 -24 -8 -31 -45 -12 -63 50 -50 -76 1 -134 54 -43 40 -48 41 -33 13 9
-16 8 -24 -5 -39 -23 -25 -32 -99 -14 -111 10 -6 10 -9 2 -9 -29 0 -19 -17 75
-116 33 -35 33 -35 16 -62 -37 -56 -24 -131 33 -192 37 -41 43 -86 19 -155
-15 -43 -12 -65 11 -65 21 0 12 -34 -10 -38 -26 -5 -49 18 -44 44 3 18 -6 12
-44 -27 -26 -27 -52 -49 -58 -49 -6 0 -16 12 -21 26 -9 24 -14 25 -50 19 -30
-5 -40 -3 -40 7 0 17 20 48 20 31 0 -15 9 -16 29 -4 13 8 13 12 1 26 -18 22
-14 148 6 186 19 37 18 62 -4 89 l-18 23 -42 -53 c-24 -29 -47 -73 -53 -97 -6
-23 -15 -40 -20 -37 -5 3 -7 9 -4 14 3 4 7 41 9 81 l3 74 -9 -55 c-12 -66 -33
-117 -42 -101 -4 6 -14 11 -22 11 -10 0 -14 -14 -14 -57 -1 -50 -2 -56 -14
-40 -7 9 -20 17 -29 17 -20 0 -27 37 -25 127 2 69 0 73 -36 118 -34 41 -82 73
-93 62 -4 -4 20 -65 38 -97 43 -78 62 -132 67 -189 l5 -64 -28 7 c-29 7 -30 2
-11 -44 4 -9 -9 -31 -35 -57 -45 -47 -59 -53 -59 -24 0 11 -5 23 -10 26 -6 4
-10 16 -9 28 4 41 -1 55 -19 59 -10 3 -27 23 -37 44 -9 21 -26 57 -36 78 -11
22 -19 46 -19 53 0 7 -10 29 -21 50 -12 21 -23 56 -24 77 -2 24 -9 42 -19 48
-10 6 -16 22 -16 47 0 21 -3 40 -6 44 -6 6 -114 -70 -114 -80 0 -2 4 -2 9 2 6
3 15 -3 20 -14 13 -23 -1 -71 -21 -72 -10 0 -10 -2 -1 -5 7 -3 22 0 33 6 34
18 38 1 6 -25 -25 -20 -27 -25 -16 -46 7 -12 17 -28 21 -33 39 -48 90 -118
111 -151 26 -42 45 -139 29 -149 -14 -9 -51 57 -51 93 0 37 -21 41 -42 9 -14
-21 -18 -17 -130 123 -134 168 -182 232 -204 275 -16 31 -16 32 25 93 23 33
46 61 51 61 6 0 10 -16 10 -35 0 -42 18 -81 54 -114 24 -23 26 -23 26 -5 0 10
-7 64 -17 120 -16 99 -16 102 4 135 13 22 27 34 41 33 11 0 19 3 17 7 -3 4 2
9 10 13 8 3 15 12 15 21 0 8 4 15 9 15 14 0 20 -37 8 -49 -8 -8 -6 -11 6 -11
13 0 17 9 17 40 0 48 10 51 30 7 11 -24 24 -34 53 -41 20 -5 37 -14 37 -19 0
-5 9 -20 19 -33 14 -18 20 -20 24 -10 3 7 0 19 -6 25 -6 6 -7 11 -3 11 5 0 -2
9 -15 21 -16 14 -18 19 -7 15 23 -7 37 14 44 68 l7 47 91 -3 c86 -3 91 -4 94
-26 5 -33 32 -40 54 -13 10 13 16 27 13 31 -3 4 31 10 74 11 71 4 83 7 109 32
30 29 77 47 100 39 7 -2 12 -16 12 -31z m305 9 c-6 -9 -9 -9 -16 1 -10 17 0
34 13 21 6 -6 7 -16 3 -22z m-1307 -5 c-3 -3 -9 2 -12 12 -6 14 -5 15 5 6 7
-7 10 -15 7 -18z m-1719 -1 c123 -18 143 -30 119 -72 -8 -15 -21 -58 -28 -97
-17 -96 -26 -109 -39 -60 -21 76 -26 62 -28 -75 -2 -114 0 -139 12 -144 29
-11 11 -66 -22 -66 -13 0 -110 46 -198 95 -44 24 -173 89 -314 159 -33 16 -48
31 -62 64 -11 24 -19 52 -19 62 0 10 -4 22 -10 25 -17 10 -11 25 10 25 13 0
20 -7 20 -20 0 -14 7 -20 22 -20 17 0 19 3 10 12 -20 20 -13 35 16 35 259 -2
594 5 581 13 -22 13 -238 50 -292 50 -50 0 -77 7 -77 21 0 14 183 10 299 -7z
m2406 5 c11 -17 -1 -21 -15 -4 -8 9 -8 15 -2 15 6 0 14 -5 17 -11z m-3277 -36
c12 -5 17 -33 6 -33 -4 0 -28 12 -55 26 -56 31 -56 52 -1 28 20 -9 43 -18 50
-21z m1127 7 c7 -30 46 -60 78 -60 19 0 64 -36 56 -45 -4 -3 -34 1 -67 9 -87
23 -92 20 -26 -15 32 -18 72 -45 88 -60 l29 -29 -12 -95 c-12 -91 -9 -162 9
-194 6 -11 9 -10 13 5 15 51 18 86 9 97 -5 7 -7 41 -3 80 l6 68 60 -83 c78
-106 114 -183 97 -206 -6 -9 -18 -30 -27 -47 -8 -16 -26 -43 -38 -59 l-24 -30
-36 23 c-28 17 -37 30 -42 61 -8 46 -25 63 -25 26 0 -14 -4 -26 -9 -26 -5 0
-12 35 -16 78 -4 42 -12 85 -17 95 -5 10 -15 46 -23 80 -9 45 -15 57 -19 42
-4 -11 -17 -40 -29 -65 l-22 -45 -5 62 c-3 34 -8 64 -11 68 -7 6 -37 -66 -65
-153 -22 -70 -42 -66 -66 13 -20 64 -14 128 16 187 10 18 14 56 12 118 l-2 91
34 -6 c18 -3 40 -9 49 -12 13 -5 14 0 8 25 -4 19 -3 32 3 32 6 0 13 -14 17
-30z m1746 5 c20 -20 34 -25 77 -25 28 0 52 -2 52 -5 0 -2 -5 -16 -12 -30 -11
-26 -51 -35 -63 -15 -3 6 -18 10 -32 10 -27 0 -83 51 -83 76 0 22 36 16 61
-11z m-4221 0 c0 -8 -4 -15 -10 -15 -5 0 -10 7 -10 15 0 8 5 15 10 15 6 0 10
-7 10 -15z m2560 -37 c0 -14 -19 1 -31 25 -12 22 -12 22 10 3 11 -11 21 -23
21 -28z m2967 20 c-3 -8 -6 -5 -6 6 -1 11 2 17 5 13 3 -3 4 -12 1 -19z m-195
-36 c-18 -45 -35 -56 -30 -19 3 20 38 70 45 63 2 -1 -5 -21 -15 -44z m-1862
28 c0 -5 11 -10 24 -10 15 0 37 -13 55 -32 32 -34 38 -48 21 -48 -5 0 -10 5
-10 10 0 6 -7 10 -15 10 -9 0 -18 6 -21 13 -3 8 -20 20 -39 27 -32 13 -49 40
-25 40 6 0 10 -4 10 -10z m623 -9 c-3 -11 -15 -29 -28 -41 l-23 -21 -11 32
c-6 18 -11 33 -11 35 0 1 15 5 33 7 17 2 35 5 39 5 3 1 4 -7 1 -17z m-1134
-65 c9 -12 1 -9 -24 9 -20 16 -41 37 -47 49 -9 16 -4 14 24 -9 19 -17 41 -38
47 -49z m930 -16 c13 0 19 -48 8 -59 -8 -8 -6 -11 7 -11 13 0 17 5 13 20 -3
11 -1 20 3 20 5 0 11 -10 13 -22 3 -13 5 13 4 57 l0 80 28 3 c36 5 44 -4 51
-61 6 -40 3 -53 -20 -88 -15 -22 -30 -56 -33 -75 -3 -18 -21 -51 -40 -73 l-34
-41 -62 49 -62 49 0 111 c0 61 1 111 1 111 10 0 74 -70 74 -80 0 -11 3 -11 11
-3 9 9 9 20 -1 43 -7 17 -10 33 -6 37 3 3 6 -1 6 -10 0 -29 20 -19 22 11 1 15
3 6 5 -20 2 -27 8 -48 12 -48z m-2442 54 c41 -21 56 -24 99 -19 50 6 52 6 57
-22 3 -15 8 -38 12 -50 12 -37 7 -35 -172 56 -35 17 -63 38 -63 46 0 21 12 19
67 -11z m1989 -14 c90 -45 114 -64 96 -82 -7 -7 -28 -1 -72 21 -34 18 -64 30
-66 29 -2 -2 3 -32 11 -66 11 -47 27 -78 66 -127 39 -50 50 -71 47 -92 -4 -25
-5 -26 -13 -8 -5 11 -19 31 -32 44 -37 38 -83 113 -83 135 0 27 -31 139 -41
151 -11 11 -12 35 -2 35 3 0 44 -18 89 -40z m-2722 -18 c22 -3 26 -7 20 -20
-4 -9 -7 -63 -5 -119 1 -65 -2 -103 -8 -103 -15 0 -38 52 -33 73 2 10 -1 24
-8 32 -6 7 -13 53 -16 102 -5 78 -4 85 8 63 8 -16 24 -26 42 -28z m2576 38 c0
-5 -7 -10 -15 -10 -8 0 -15 5 -15 10 0 6 7 10 15 10 8 0 15 -4 15 -10z m-2724
-40 c5 1 12 -9 16 -22 l6 -23 1 23 c1 22 31 33 31 11 0 -23 -44 -165 -54 -175
-6 -6 -81 -36 -166 -67 -85 -31 -172 -63 -192 -71 -20 -9 -39 -12 -42 -7 -6 9
31 129 46 148 5 6 46 32 91 57 45 26 93 56 107 67 l25 20 -32 -4 c-18 -2 -31
-1 -28 2 9 8 78 32 118 41 21 4 41 10 44 14 4 3 10 1 13 -5 4 -6 11 -10 16 -9z
m609 -45 c-70 -36 -134 -65 -141 -65 -9 0 -14 12 -14 38 0 20 -3 47 -6 59 -6
22 -4 22 87 26 52 1 118 4 148 5 l54 2 -128 -65z m2125 49 c0 -8 -4 -12 -10
-9 -5 3 -10 10 -10 16 0 5 5 9 10 9 6 0 10 -7 10 -16z m-3223 0 c-3 -3 -12 -4
-19 -1 -8 3 -5 6 6 6 11 1 17 -2 13 -5z m281 -1 c-10 -2 -18 -8 -18 -13 0 -5
-17 -12 -37 -16 -21 -4 -43 -14 -49 -22 -7 -9 -19 -13 -33 -9 -12 3 -34 -1
-49 -9 -15 -8 -34 -14 -43 -14 -9 0 -28 -9 -41 -20 -14 -10 -28 -17 -31 -14
-3 4 -53 -8 -111 -25 -58 -17 -111 -31 -117 -31 -19 0 1 18 28 25 16 3 42 13
58 20 156 71 305 119 362 116 28 -1 54 3 58 8 3 6 14 10 23 10 15 -1 15 -2 0
-6z m-358 -21 c0 -8 -156 -63 -177 -62 -7 0 -10 11 -9 28 3 26 5 27 82 33 43
3 85 6 92 7 6 1 12 -1 12 -6z m-254 -29 c-19 -81 -51 -109 -51 -45 0 16 -3 34
-7 38 -19 19 -7 34 28 34 34 0 36 -1 30 -27z m3086 10 c10 -9 18 -23 18 -31 0
-12 -6 -10 -25 8 -38 35 -31 58 7 23z m-3843 3 c-2 -2 -37 -29 -78 -60 -67
-51 -91 -64 -91 -52 0 10 145 116 158 116 9 0 13 -2 11 -4z m491 -58 c-35 -73
-40 -111 -8 -55 12 20 25 37 28 37 3 0 3 -24 0 -52 -4 -46 -8 -53 -29 -56 -18
-3 -22 0 -18 12 4 9 2 16 -3 16 -6 0 -10 -9 -10 -20 0 -10 -9 -24 -20 -30 -14
-8 -20 -8 -20 0 0 6 -11 26 -25 44 -20 26 -24 43 -23 92 0 32 2 61 4 65 1 3
37 6 78 7 l76 3 -30 -63z m3605 -21 c22 -20 36 -39 33 -43 -4 -3 -34 21 -68
55 -61 62 -83 96 -32 50 15 -14 45 -42 67 -62z m-1755 50 c0 -7 -6 -21 -14
-32 -7 -11 -32 -77 -56 -147 -24 -71 -47 -128 -52 -128 -4 0 -8 17 -8 38 0 60
-14 70 -39 29 -28 -45 -71 -172 -71 -208 0 -32 -15 -46 -24 -23 -3 9 -6 42 -6
75 0 63 -5 70 -26 42 -12 -16 -14 -14 -10 19 2 20 0 74 -4 120 -12 127 -10
132 68 156 37 11 99 32 137 46 80 28 105 31 105 13z m2250 3 c0 -5 -7 -10 -15
-10 -8 0 -15 5 -15 10 0 6 7 10 15 10 8 0 15 -4 15 -10z m-3299 -26 c-19 -8
-36 -12 -39 -9 -6 6 37 24 58 24 8 0 0 -6 -19 -15z m4854 -97 c52 -52 95 -99
95 -106 0 -14 -9 -9 -56 26 -18 13 -36 23 -40 22 -23 -4 -38 4 -79 42 -36 33
-45 48 -45 75 0 24 5 34 15 34 8 0 58 -42 110 -93z m-1597 49 c2 -15 0 -35 -4
-44 -6 -14 -8 -13 -14 8 -5 14 -8 36 -9 48 -1 33 23 22 27 -12z m-614 8 c23
-23 19 -40 -4 -19 -11 10 -20 22 -20 27 0 12 7 10 24 -8z m-2776 -9 c-8 -8
-320 -114 -335 -115 -7 0 -13 4 -13 8 0 4 71 31 158 59 144 47 204 62 190 48z
m3436 -11 c8 -20 6 -102 -2 -132 -15 -50 -27 -24 -30 61 -3 71 -1 87 11 87 8
0 18 -7 21 -16z m1811 -21 c7 -21 -27 -53 -56 -53 -32 0 -22 37 16 58 27 15
32 15 40 -5z m-2375 -64 c17 -28 29 -53 27 -56 -4 -4 -67 92 -67 102 0 13 11
0 40 -46z m170 6 c11 -13 10 -14 -4 -9 -9 3 -16 10 -16 15 0 13 6 11 20 -6z
m-2624 -33 c-2 -15 -7 -43 -10 -63 -6 -34 -9 -36 -74 -57 -86 -27 -333 -84
-339 -78 -4 4 37 27 147 82 25 12 94 52 154 88 60 36 114 62 118 60 5 -3 7
-18 4 -32z m-432 6 c-29 -95 -41 -113 -95 -139 -76 -37 -214 -97 -230 -101
-23 -5 -12 74 14 95 12 10 30 25 40 32 24 20 249 134 265 134 9 1 11 -6 6 -21z
m566 -19 c0 -11 -4 -17 -10 -14 -5 3 -10 15 -10 26 0 11 5 17 10 14 6 -3 10
-15 10 -26z m2230 -42 c0 -6 -9 -2 -20 8 -11 10 -17 22 -13 28 6 10 33 -19 33
-36z m884 28 c3 -8 13 -15 23 -15 13 0 14 -3 6 -11 -9 -9 -18 -8 -37 5 -15 9
-26 21 -26 26 0 16 27 12 34 -5z m-2834 -42 c0 -27 -3 -34 -11 -26 -7 7 -9 23
-5 37 9 37 16 32 16 -11z m2288 25 c7 -7 12 -16 12 -20 0 -15 -15 -8 -28 12
-13 22 -3 27 16 8z m-1425 -45 l37 -23 0 -85 c0 -57 8 -115 24 -178 13 -51 27
-129 31 -174 7 -71 5 -84 -8 -89 -15 -5 -15 -8 0 -30 13 -20 14 -30 5 -49 -22
-47 -35 -31 -45 55 -10 80 -85 431 -115 535 -11 38 -18 73 -16 77 6 9 26 -1
87 -39z m1247 15 c39 -42 44 -64 6 -29 -32 31 -45 51 -31 51 2 0 14 -10 25
-22z m-3563 -14 c7 -18 -4 -31 -32 -36 -12 -2 -21 4 -23 16 -7 32 43 50 55 20z
m4383 -35 c0 -5 -7 -9 -15 -9 -15 0 -20 12 -9 23 8 8 24 -1 24 -14z m-1549
-17 c75 -38 79 -41 72 -57 -7 -19 -32 -19 -94 1 -49 16 -71 46 -54 73 9 16 16
14 76 -17z m-390 -69 c-3 -65 -16 -99 -25 -73 -15 38 -43 150 -39 154 3 2 19
-2 36 -9 31 -13 32 -15 28 -72z m1923 36 c19 -20 31 -27 36 -19 4 7 10 0 13
-17 3 -16 0 -34 -8 -43 -7 -8 -15 -50 -18 -92 -6 -81 -13 -106 -28 -91 -5 5
-1 34 7 67 13 51 13 60 1 75 -16 17 -49 151 -38 151 3 0 19 -14 35 -31z
m-3344 -5 c0 -9 -14 -21 -32 -27 -43 -16 -116 -53 -207 -107 -67 -40 -74 -43
-86 -27 -12 16 -13 16 -18 -4 -5 -19 -8 -20 -21 -9 -20 16 -21 50 -1 50 8 0
23 5 33 11 30 19 296 127 315 128 9 1 17 -6 17 -15z m430 12 c0 -3 -4 -8 -10
-11 -5 -3 -10 -1 -10 4 0 6 5 11 10 11 6 0 10 -2 10 -4z m1560 -22 c0 -16 -16
-19 -25 -4 -8 13 4 32 16 25 5 -4 9 -13 9 -21z m-463 -14 c10 -11 23 -20 29
-20 7 0 22 -8 34 -18 19 -16 22 -24 16 -55 -4 -23 -13 -37 -22 -37 -9 0 -14
-8 -13 -22 5 -52 -1 -88 -15 -88 -9 0 -13 -11 -12 -32 0 -18 -3 -33 -9 -33 -5
0 -10 25 -11 55 0 30 -6 84 -13 120 -29 150 -25 179 16 130z m3087 1 c10 -11
15 -25 11 -30 -9 -16 -22 -13 -29 7 -3 9 -9 23 -12 30 -9 19 11 14 30 -7z
m-2304 -13 c8 -13 25 -42 37 -65 23 -41 23 -42 4 -53 -29 -15 -30 -14 -33 33
l-3 42 -38 -40 c-21 -22 -37 -33 -35 -25 8 37 42 130 47 130 4 0 13 -10 21
-22z m627 -3 c8 -22 -6 -33 -17 -15 -13 20 -12 30 0 30 6 0 13 -7 17 -15z
m564 -72 c54 -72 52 -98 -4 -46 -24 22 -49 42 -55 44 -7 2 -15 21 -19 43 -6
37 -5 38 16 25 12 -8 40 -37 62 -66z m-1524 42 c-1 -5 -13 -9 -27 -7 -30 4
-34 7 -26 20 8 13 56 0 53 -13z m-1557 -37 c0 -28 -3 -49 -6 -45 -7 7 -12 79
-7 90 9 17 13 4 13 -45z m2820 -37 c0 -5 3 -24 6 -42 5 -32 5 -33 -10 -15 -18
22 -22 66 -6 66 6 0 10 -4 10 -9z m-3650 -11 c0 -5 -7 -10 -16 -10 -8 0 -12 5
-9 10 3 6 10 10 16 10 5 0 9 -4 9 -10z m-1222 -47 c-3 -18 -72 -57 -89 -51 -4
2 1 18 12 36 16 24 28 32 51 32 23 0 29 -4 26 -17z m77 7 c-3 -5 -15 -10 -26
-10 -11 0 -17 5 -14 10 3 6 15 10 26 10 11 0 17 -4 14 -10z m165 -24 c0 -30
-19 -45 -65 -53 -35 -6 -36 -5 -33 22 2 22 11 31 38 41 51 18 60 17 60 -10z
m3730 4 c-14 -10 -27 -17 -29 -15 -8 8 22 35 38 35 12 0 10 -5 -9 -20z m-2883
-4 c1 -1 -1 -12 -4 -25 -4 -15 -21 -30 -51 -42 -25 -11 -46 -18 -47 -17 -12
14 -35 71 -31 75 16 16 119 23 133 9z m506 -76 c-6 -6 -100 -36 -174 -56 -11
-3 -21 8 -32 38 -10 23 -14 45 -9 49 9 9 148 47 187 51 28 3 30 1 33 -36 2
-21 0 -42 -5 -46z m2477 43 c40 -63 40 -80 -1 -56 -17 10 -47 31 -66 48 l-36
29 29 13 c42 18 42 18 74 -34z m-3160 -32 c0 -53 -13 -73 -28 -44 -13 26 -3
93 14 93 10 0 14 -14 14 -49z m4570 8 c0 -5 -7 -9 -15 -9 -15 0 -20 12 -9 23
8 8 24 -1 24 -14z m-3438 -34 c-11 -21 -25 -4 -16 20 4 10 10 13 16 7 7 -7 7
-16 0 -27z m3206 1 c29 -43 27 -90 -4 -94 -15 -2 -23 4 -28 20 -8 32 -8 108 2
108 4 0 17 -15 30 -34z m-5278 -7 c0 -14 -38 -49 -55 -49 -8 0 -15 7 -15 15 0
22 -27 18 -44 -6 -8 -12 -20 -19 -26 -17 -7 2 0 17 19 37 26 28 36 32 61 28
16 -4 32 -2 35 3 7 12 25 4 25 -11z m2358 -41 l-13 -23 -3 23 c-2 13 -1 31 3
40 6 16 7 16 16 0 7 -12 6 -25 -3 -40z m-2128 -9 c0 -12 -29 -38 -42 -39 -10
0 -10 34 -1 43 11 11 43 8 43 -4z m1389 -84 l0 -85 -73 0 -73 0 -7 41 c-4 22
-4 45 0 50 4 7 126 70 151 78 1 1 2 -37 2 -84z m-439 50 c0 -14 -4 -25 -9 -25
-12 0 -23 29 -15 41 10 18 24 9 24 -16z m4531 2 c-13 -13 -26 -3 -16 12 3 6
11 8 17 5 6 -4 6 -10 -1 -17z m-1781 -68 c0 -32 -4 -59 -8 -59 -4 0 -15 20
-24 44 -14 39 -15 46 -1 65 22 32 33 16 33 -50z m2271 18 c-17 -17 -22 -2 -9
29 11 28 12 29 16 5 2 -13 -1 -28 -7 -34z m-6124 -9 c-3 -7 -5 -2 -5 12 0 14
2 19 5 13 2 -7 2 -19 0 -25z m3123 22 c0 -5 -4 -10 -10 -10 -5 0 -10 5 -10 10
0 6 5 10 10 10 6 0 10 -4 10 -10z m794 -21 c9 -45 7 -69 -4 -69 -9 0 -30 61
-30 88 0 26 28 10 34 -19z m-647 13 c14 -9 14 -72 1 -72 -28 0 -44 20 -40 49
4 31 16 38 39 23z m-1277 -21 c0 -20 -13 -35 -23 -25 -7 8 4 44 14 44 5 0 9
-9 9 -19z m3960 -13 c0 -5 -7 -8 -15 -8 -15 0 -20 21 -8 33 7 7 23 -11 23 -25z
m-1930 2 c0 -5 -4 -10 -9 -10 -6 0 -13 5 -16 10 -3 6 1 10 9 10 9 0 16 -4 16
-10z m1059 1 c9 -6 10 -10 2 -16 -15 -8 -41 1 -41 15 0 12 20 13 39 1z m1221
0 c0 -12 -20 -25 -27 -18 -7 7 6 27 18 27 5 0 9 -4 9 -9z m-340 -29 c0 -5 -7
-17 -15 -28 -14 -19 -14 -19 -15 2 0 11 3 24 7 27 9 10 23 9 23 -1z m-6115
-12 c-3 -5 -10 -10 -16 -10 -5 0 -9 5 -9 10 0 6 7 10 16 10 8 0 12 -4 9 -10z
m3562 -32 c-2 -32 -27 -54 -27 -23 0 16 17 55 24 55 3 0 4 -14 3 -32z m-3367
-23 c0 -8 -2 -15 -4 -15 -2 0 -6 7 -10 15 -3 8 -1 15 4 15 6 0 10 -7 10 -15z"/>
<path d="M6395 2150 c-3 -5 -1 -10 4 -10 6 0 11 5 11 10 0 6 -2 10 -4 10 -3 0
-8 -4 -11 -10z"/>
<path d="M6350 1053 c0 -13 29 -38 35 -31 3 3 -4 13 -15 23 -11 10 -20 13 -20
8z"/>
<path d="M5890 1014 c0 -8 5 -12 10 -9 6 3 10 10 10 16 0 5 -4 9 -10 9 -5 0
-10 -7 -10 -16z"/>
<path d="M5895 969 c-4 -6 -5 -12 -2 -15 7 -7 37 7 37 17 0 13 -27 11 -35 -2z"/>
<path d="M6142 915 c-7 -25 -12 -53 -11 -63 1 -24 38 58 39 86 0 37 -15 25
-28 -23z"/>
<path d="M5415 650 c-3 -5 -2 -10 4 -10 5 0 13 5 16 10 3 6 2 10 -4 10 -5 0
-13 -4 -16 -10z"/>
<path d="M3298 923 c7 -3 16 -2 19 1 4 3 -2 6 -13 5 -11 0 -14 -3 -6 -6z"/>
<path d="M6607 2314 c3 -8 12 -13 20 -10 8 3 17 6 19 6 2 0 4 5 4 10 0 6 -11
10 -25 10 -18 0 -23 -4 -18 -16z"/>
<path d="M0 700 c0 -5 18 -14 41 -20 22 -6 48 -14 57 -17 9 -3 15 -4 12 0 -11
12 -110 46 -110 37z"/>
<path d="M6826 543 c-12 -12 -6 -33 9 -33 8 0 15 6 15 14 0 17 -14 28 -24 19z"/>
<path d="M2935 259 c-12 -18 -55 -202 -55 -231 0 -27 2 -28 50 -28 48 0 49 1
45 28 -2 15 -10 61 -17 102 -6 41 -11 90 -10 108 2 33 -2 40 -13 21z"/>
</g>
</svg>
