<?xml version="1.0" standalone="no"?>
<!DOCTYPE svg PUBLIC "-//W3C//DTD SVG 20010904//EN"
 "http://www.w3.org/TR/2001/REC-SVG-20010904/DTD/svg10.dtd">
<svg version="1.0" xmlns="http://www.w3.org/2000/svg"
 width="643.000000pt" height="375.000000pt" viewBox="0 0 643.000000 375.000000"
 preserveAspectRatio="xMidYMid meet">

<g transform="translate(0.000000,375.000000) scale(0.100000,-0.100000)"
fill="#000000" stroke="none">
<path d="M20 3736 c0 -10 17 -15 63 -18 69 -4 90 -1 81 14 -12 18 234 -15 314
-43 31 -11 82 -22 112 -25 30 -3 58 -8 62 -10 4 -3 8 0 8 6 0 16 42 1 57 -20
8 -12 26 -18 52 -18 22 0 49 -6 60 -11 11 -6 34 -11 51 -11 17 0 43 -6 58 -14
15 -7 57 -17 94 -21 94 -9 96 -25 4 -25 -41 0 -78 -5 -81 -10 -4 -6 11 -17 32
-26 79 -31 80 -32 28 -29 -28 1 -60 5 -72 9 -29 9 -25 -16 7 -42 23 -19 23
-20 5 -19 -12 1 -20 -4 -20 -13 0 -8 -9 -17 -20 -20 -15 -5 -21 -15 -22 -45
-1 -22 -9 -45 -17 -51 -13 -9 -13 -13 1 -27 15 -15 15 -16 -4 -11 -12 3 -24 1
-27 -5 -4 -6 -2 -11 4 -11 6 0 8 -4 5 -10 -6 -10 7 -14 34 -11 7 2 10 -2 6 -8
-3 -6 -2 -11 4 -11 5 0 18 -3 28 -7 15 -6 16 -4 6 9 -11 13 -6 14 47 12 33 -2
65 -6 70 -9 17 -10 90 7 90 22 0 8 4 11 10 8 6 -3 7 1 4 9 -4 11 0 16 10 16 9
0 16 4 16 8 0 15 64 9 95 -8 17 -9 31 -26 33 -39 2 -12 9 -20 15 -19 7 1 21
-3 32 -9 39 -21 136 -37 154 -26 14 9 25 7 47 -8 16 -10 38 -19 50 -19 11 0
30 -10 42 -23 l22 -23 -50 -21 c-28 -12 -54 -23 -58 -24 -23 -9 -148 -84 -192
-116 -85 -61 -111 -88 -37 -37 37 25 71 43 74 40 4 -3 2 -11 -4 -17 -6 -6 -9
-18 -6 -26 5 -12 1 -14 -14 -9 -13 4 -29 -1 -46 -15 -15 -11 -27 -18 -27 -14
0 3 -10 -5 -22 -18 -29 -30 -88 -71 -88 -61 0 5 15 24 32 43 18 18 27 31 20
27 -54 -31 -187 -216 -178 -249 2 -9 1 -15 -3 -12 -12 7 -43 -105 -48 -173 -3
-42 1 -72 10 -92 11 -21 12 -30 3 -34 -7 -3 -6 -8 4 -15 12 -8 12 -11 1 -11
-7 0 -11 -6 -7 -15 3 -8 1 -15 -4 -15 -5 0 -7 -7 -4 -15 4 -8 1 -15 -4 -15 -7
0 -8 -11 -1 -32 5 -18 6 -42 3 -53 -5 -19 -4 -19 7 -2 6 11 9 30 6 43 -2 13
-1 24 3 24 5 0 11 27 15 61 7 58 9 61 31 56 32 -6 42 11 13 21 -20 8 -20 9 -4
15 13 6 15 10 6 21 -9 10 -8 15 4 20 9 3 13 10 10 16 -3 6 1 17 9 26 9 8 16
22 16 30 0 8 5 13 12 12 7 -2 15 12 19 32 5 26 7 29 7 10 1 -23 -9 -106 -23
-190 -3 -19 -6 -49 -6 -67 -1 -25 -5 -31 -20 -28 -10 2 -23 -4 -29 -13 -8 -13
-9 -5 -4 29 4 30 2 49 -5 54 -8 5 -10 -1 -5 -20 4 -15 2 -30 -3 -34 -7 -4 -7
-15 -1 -31 9 -24 10 -24 23 -7 7 10 16 14 19 9 3 -5 -5 -14 -17 -21 -57 -31
-145 -188 -154 -276 -6 -60 15 -152 28 -120 6 16 8 12 8 -17 1 -24 -4 -38 -11
-38 -9 0 -8 -4 2 -10 12 -8 13 -11 1 -19 -9 -6 -10 -11 -2 -15 12 -8 18 11 36
125 16 103 20 46 5 -68 -14 -98 -19 -115 -30 -88 -8 18 -9 17 -9 -6 -1 -14
-11 -34 -22 -45 -36 -32 -79 -116 -79 -154 0 -44 10 -81 20 -75 4 2 5 -8 3
-23 -2 -15 -6 -52 -8 -82 -2 -30 -4 -57 -5 -60 -2 -3 -3 -29 -4 -59 0 -32 -6
-56 -13 -58 -7 -3 -9 4 -6 18 4 15 3 20 -5 15 -8 -5 -10 -1 -6 9 6 14 1 16
-23 12 -44 -7 -64 -20 -102 -66 -37 -44 -51 -51 -47 -23 4 25 -16 52 -38 52
-11 0 -30 -10 -43 -22 l-23 -21 0 27 c0 36 -21 30 -39 -12 -14 -31 -31 -43
-31 -22 0 6 -9 10 -20 10 -11 0 -20 6 -20 13 -1 6 -7 -1 -15 -18 -13 -30 -13
-30 -15 -5 l-1 25 -11 -22 c-11 -24 -37 -30 -53 -14 -6 5 -28 11 -50 13 l-40
3 -3 65 c-5 106 -36 115 -68 18 -19 -58 -32 -49 -31 20 0 80 -39 83 -67 5 -10
-26 -19 -54 -21 -60 -3 -9 -18 -11 -50 -6 l-45 6 0 -557 0 -556 1996 0 c1349
0 1993 3 1989 10 -4 6 -11 8 -16 5 -5 -4 -20 6 -34 21 -21 23 -25 24 -25 8 0
-18 -1 -17 -14 1 -15 23 -29 135 -18 151 13 20 88 25 137 8 26 -8 53 -13 61
-10 9 3 12 1 9 -4 -3 -6 -18 -10 -33 -10 -25 -1 -26 -1 -7 -12 10 -6 40 -10
66 -9 26 1 50 -3 54 -9 3 -6 11 -8 16 -5 5 4 9 1 9 -4 0 -23 2 -26 23 -38 12
-7 16 -12 9 -13 -7 0 -11 -4 -7 -9 3 -5 2 -12 -3 -15 -5 -3 -7 -19 -4 -36 l4
-30 1109 0 1109 0 -1 448 c-1 246 -5 436 -8 422 l-7 -25 -7 28 c-7 26 -9 27
-24 12 -13 -13 -14 -21 -4 -41 6 -15 16 -22 23 -18 7 4 8 3 4 -4 -4 -7 -14
-12 -22 -12 -8 0 -14 -6 -14 -14 0 -8 -7 -16 -15 -20 -9 -3 -15 0 -15 9 0 8
-4 15 -9 15 -5 0 -4 -15 2 -35 6 -19 14 -35 19 -35 4 0 8 -9 8 -20 0 -11 4
-20 8 -20 5 0 14 -12 21 -26 10 -22 9 -25 -6 -22 -11 2 -17 11 -15 22 3 14 -1
17 -12 13 -9 -4 -16 -2 -16 3 0 6 -7 10 -15 10 -8 0 -15 -6 -15 -14 0 -26 12
-46 27 -46 8 0 11 -4 8 -10 -3 -5 -18 -10 -32 -10 -21 0 -24 2 -13 15 15 19
-2 45 -30 45 -14 0 -17 -5 -12 -22 3 -13 10 -26 16 -30 7 -5 7 -8 -2 -8 -7 0
-17 12 -23 27 -6 15 -15 33 -20 40 -13 14 -39 6 -39 -13 0 -7 -6 -11 -14 -8
-10 4 -16 -3 -19 -23 -4 -28 -4 -27 -6 4 0 17 -5 43 -11 57 -8 21 -6 26 13 32
12 4 25 12 29 18 6 8 8 7 8 -1 0 -7 9 -13 21 -13 15 0 19 4 15 16 -3 9 -6 22
-6 29 0 9 -11 13 -35 12 -19 -1 -35 -6 -35 -11 0 -5 -7 -3 -15 4 -8 7 -15 20
-15 29 0 10 3 12 8 5 9 -14 72 -6 72 10 0 7 3 7 8 -1 10 -16 50 -5 55 16 4 14
5 14 6 -2 1 -14 10 -17 52 -16 46 2 50 4 45 23 -3 12 -6 24 -6 29 0 10 -58 9
-64 -2 -3 -4 -22 -7 -42 -4 -33 3 -35 2 -30 -19 l6 -23 -11 22 c-17 33 -49 30
-50 -4 l-1 -28 -10 28 c-12 33 -26 35 -38 4 -9 -22 -9 -22 -9 -1 -1 12 -7 40
-15 62 l-15 41 32 5 c18 3 95 12 171 21 77 8 142 18 145 21 6 7 -135 -3 -179
-12 -18 -4 -21 -3 -10 4 8 5 38 12 65 16 132 17 125 14 125 52 0 19 -4 34 -10
34 -12 0 -31 -35 -23 -44 3 -3 2 -6 -4 -6 -6 0 -13 9 -16 21 -6 23 -27 17 -27
-7 0 -8 -4 -14 -10 -14 -5 0 -10 7 -10 15 0 8 -9 15 -20 15 -17 0 -19 -3 -11
-18 8 -14 6 -19 -5 -19 -7 0 -14 7 -14 15 0 9 -7 13 -20 9 -11 -3 -22 -2 -25
2 -2 4 1 8 8 9 7 1 26 4 42 7 17 3 56 11 88 17 35 6 57 16 57 24 0 16 -23 31
-27 18 -2 -6 -24 -9 -48 -7 -27 2 -45 -1 -45 -7 0 -6 -10 -10 -22 -9 -40 4
-59 -1 -53 -11 10 -16 -23 -24 -40 -10 -13 10 -15 9 -15 -11 l0 -24 -13 25
c-7 14 -22 26 -34 28 -26 4 -72 -27 -73 -48 0 -10 -7 -7 -20 10 -18 23 -20 24
-21 5 -1 -11 -1 -25 0 -31 1 -7 -16 -14 -36 -18 -21 -3 -56 -8 -78 -11 -43 -7
-57 -15 -37 -22 6 -3 12 -12 13 -21 0 -11 2 -13 6 -4 4 10 8 10 21 0 12 -10
16 -10 19 0 3 6 10 9 16 5 12 -8 17 -9 40 -12 6 -1 1 -8 -13 -15 -14 -8 -29
-12 -33 -9 -5 3 -13 0 -18 -8 -6 -11 -12 -10 -28 5 -16 15 -32 17 -89 14 -46
-3 -72 0 -80 8 -9 10 -9 14 1 18 9 3 9 7 -1 14 -8 5 -13 12 -12 16 4 17 -7 27
-23 21 -11 -5 -17 -18 -17 -37 l0 -31 -55 6 c-50 5 -55 4 -55 -14 0 -10 -6
-19 -14 -19 -16 0 -47 75 -43 104 3 25 -39 36 -150 37 l-83 2 -1 36 c-2 67 -8
118 -19 145 -5 15 -10 51 -10 79 0 29 -5 71 -10 94 -6 24 -15 75 -20 114 -19
136 -60 195 -190 278 -181 116 -468 201 -845 251 -474 62 -483 62 -747 61
l-128 -1 0 -40 c0 -29 -4 -40 -15 -40 -8 0 -15 -9 -15 -20 0 -11 -6 -20 -12
-20 -7 0 -14 -13 -15 -30 l-2 -29 111 0 c61 0 113 -3 117 -7 3 -3 -57 -4 -134
0 -77 3 -144 5 -150 5 -5 0 -59 -1 -120 -3 -81 -2 -84 -2 -11 1 98 4 98 4 94
28 -3 13 0 26 6 29 7 3 7 5 -1 5 -7 1 -13 10 -13 20 0 14 -5 18 -20 14 -11 -3
-20 0 -20 6 0 5 -7 8 -16 4 -11 -4 -12 -8 -4 -13 9 -5 9 -9 1 -14 -6 -4 -15
-5 -20 -2 -5 4 -11 0 -14 -6 -3 -10 -7 -10 -20 1 -10 7 -17 9 -17 3 0 -5 -11
-9 -25 -9 -18 0 -25 5 -25 18 0 12 5 16 14 13 8 -3 16 -2 19 3 3 4 -6 9 -19 9
-22 2 -24 -2 -24 -42 0 -26 -5 -44 -11 -44 -6 0 -9 -7 -5 -15 3 -9 0 -15 -9
-15 -8 0 -15 8 -15 17 0 15 -1 15 -12 1 -15 -18 -114 -33 -123 -19 -3 5 3 12
12 14 12 3 9 5 -8 6 -15 0 -32 7 -39 15 -6 8 -17 13 -23 10 -7 -2 -37 20 -67
51 -53 54 -90 70 -90 40 0 -9 -6 -15 -12 -14 -7 1 -26 -3 -41 -9 -38 -16 -50
-15 -43 3 3 8 1 15 -4 15 -6 0 -10 -6 -10 -12 0 -9 -3 -9 -9 1 -7 11 -10 10
-13 -5 -8 -32 -34 39 -54 146 -14 75 -24 102 -46 128 -24 29 -27 36 -16 49 8
10 14 47 15 92 0 42 4 98 8 124 5 38 3 47 -7 41 -10 -5 -11 -4 -1 7 28 29 15
44 -36 44 -27 0 -47 -3 -45 -7 3 -4 -1 -5 -9 -2 -8 3 -20 22 -26 42 -7 20 -15
43 -17 50 -3 7 2 12 11 12 16 0 16 2 1 25 -9 14 -14 30 -11 35 3 5 -1 20 -9
32 -17 28 -5 68 21 68 18 1 53 22 53 33 0 3 11 18 25 33 14 15 25 22 25 15 0
-6 5 -11 10 -11 6 0 25 -6 43 -13 18 -8 37 -15 42 -17 6 -2 16 -10 23 -17 19
-19 32 -16 32 7 0 20 -5 22 -85 38 -31 6 -41 13 -43 30 -2 12 -12 27 -23 32
-10 6 -19 17 -19 25 0 8 -9 15 -19 15 -11 0 -22 4 -25 8 -3 5 -24 9 -48 10
-23 1 -47 7 -52 12 -6 6 -20 10 -32 10 -24 0 -81 26 -76 35 1 3 -9 16 -23 29
-30 28 -31 34 -4 38 20 3 19 6 -15 41 -41 43 -45 57 -16 57 13 0 18 5 14 15
-4 8 -10 12 -15 9 -5 -3 -9 2 -9 11 0 10 -25 28 -67 47 -38 18 -72 37 -76 44
-4 8 -22 20 -41 29 -18 9 -48 29 -67 44 l-34 29 55 -4 c41 -2 59 -8 72 -25 16
-18 22 -20 48 -10 19 6 28 6 25 1 -14 -23 6 -50 36 -50 17 0 40 -5 51 -11 16
-9 23 -8 29 2 5 9 9 10 9 3 0 -7 6 -14 14 -17 19 -8 57 3 50 14 -3 5 6 9 20 9
14 0 26 -4 26 -10 0 -5 5 -10 11 -10 5 0 7 5 4 10 -10 15 28 12 64 -6 17 -9
40 -17 49 -18 9 -2 17 -9 17 -17 0 -8 10 -25 23 -39 32 -36 28 -49 -13 -46
-20 2 -38 -1 -41 -5 -3 -5 1 -9 9 -9 8 0 20 -6 26 -14 7 -8 20 -12 31 -9 29 8
99 -27 92 -45 -3 -9 -1 -13 5 -9 7 5 9 0 6 -13 -3 -11 -9 -20 -13 -20 -11 0
-22 -62 -13 -71 14 -14 64 2 61 19 -2 13 11 19 60 28 49 9 62 9 62 -1 0 -16
46 -25 59 -12 7 7 8 1 2 -21 -5 -18 -9 -32 -8 -33 1 0 19 -2 40 -5 29 -4 37
-1 37 11 0 14 3 14 28 1 23 -12 30 -12 47 0 27 20 38 17 25 -5 -8 -16 -5 -23
18 -39 18 -13 33 -17 47 -11 30 12 46 10 43 -3 -2 -7 2 -14 7 -15 6 -1 9 8 7
21 -3 24 23 48 67 59 26 6 61 -11 61 -30 0 -7 8 -13 18 -13 10 0 24 -6 31 -12
10 -11 15 -9 26 6 13 17 12 23 -7 49 -12 17 -17 27 -10 23 7 -4 12 -3 12 2 0
6 9 8 20 5 12 -3 20 0 20 7 0 7 15 11 43 10 78 -3 90 -1 83 16 -3 8 -2 13 2
10 4 -2 38 -7 75 -11 57 -6 68 -4 73 10 5 12 14 14 34 10 19 -4 31 -1 41 11 8
10 10 15 4 12 -5 -3 -17 2 -27 11 -15 15 -15 16 8 17 15 1 25 -5 29 -16 10
-31 37 -33 62 -4 23 27 33 92 12 79 -6 -4 -5 2 3 14 7 12 16 21 19 21 4 0 9 7
13 15 3 9 0 15 -8 15 -8 0 -16 -9 -19 -21 -4 -14 -10 -18 -18 -13 -7 4 -36 8
-64 8 -44 1 -51 -2 -53 -19 0 -11 -6 -21 -12 -23 -5 -2 -8 -8 -4 -13 3 -5 -2
-9 -10 -9 -21 0 -20 -17 2 -29 15 -9 15 -12 2 -21 -19 -12 -80 -2 -100 17 -13
12 -13 13 1 8 12 -4 18 1 23 19 3 14 12 23 19 21 6 -2 21 2 32 11 19 14 19 16
3 28 -16 12 -11 38 8 38 5 0 31 10 57 21 36 17 49 29 54 50 3 15 9 27 13 27
10 0 8 20 -3 38 -5 8 -3 12 8 12 14 0 14 3 -1 26 -17 25 -17 26 12 49 28 23
53 30 102 27 12 0 20 3 17 8 -3 4 13 6 34 3 32 -4 42 -2 52 15 10 16 17 18 31
11 14 -7 20 -6 25 6 6 16 24 16 69 -2 12 -4 15 -3 10 6 -5 8 -3 11 5 10 20 -4
59 11 59 22 0 5 -763 9 -1975 9 -1691 0 -1975 -2 -1975 -14z m1736 -301 c30
-30 44 -32 44 -6 0 17 5 16 60 -11 33 -17 60 -35 60 -40 0 -6 -8 -7 -17 -3
-33 14 -71 17 -77 6 -4 -6 0 -11 8 -11 8 0 22 -12 29 -27 13 -24 12 -28 -11
-50 -14 -13 -34 -23 -46 -23 -17 -1 -14 -5 14 -20 48 -26 16 -25 -107 3 -7 2
-16 6 -19 10 -4 4 -18 7 -32 7 -14 0 -42 5 -63 12 -31 9 -38 15 -37 34 2 22 3
22 33 6 16 -10 46 -18 65 -18 19 -1 53 -4 75 -8 38 -6 39 -6 10 5 -43 17 -57
30 -52 51 3 10 1 21 -4 24 -5 3 -9 12 -9 20 0 11 6 13 21 9 l22 -7 -22 31 -22
31 26 0 c14 0 37 -11 51 -25z m-96 -51 c0 -2 -7 -4 -15 -4 -8 0 -15 4 -15 10
0 5 7 7 15 4 8 -4 15 -8 15 -10z m-300 -19 c17 -21 6 -30 -13 -11 -11 11 -17
12 -19 4 -3 -7 -9 -8 -18 -3 -11 7 -10 10 6 16 28 11 30 11 44 -6z m25 -49
c50 -21 43 -28 -10 -9 -43 14 -56 23 -35 23 6 0 26 -7 45 -14z m270 4 c3 -5 1
-10 -4 -10 -6 0 -11 5 -11 10 0 6 2 10 4 10 3 0 8 -4 11 -10z m345 -34 c0 -11
-19 -15 -25 -6 -3 5 1 10 9 10 9 0 16 -2 16 -4z m-110 -15 c0 -5 14 -14 32
-20 17 -6 28 -14 25 -17 -9 -10 -65 16 -71 32 -3 8 -1 14 4 14 6 0 10 -4 10
-9z m1140 -24 c0 -11 -1 -18 -3 -16 -1 2 -10 14 -21 26 -17 21 -17 21 3 16 13
-3 21 -13 21 -26z m-2109 6 c13 -16 12 -17 -3 -4 -10 7 -18 15 -18 17 0 8 8 3
21 -13z m69 -23 c0 -5 -2 -10 -4 -10 -3 0 -8 5 -11 10 -3 6 -1 10 4 10 6 0 11
-4 11 -10z m555 -38 c-3 -3 -11 0 -18 7 -9 10 -8 11 6 5 10 -3 15 -9 12 -12z
m286 -85 c-10 -9 -11 -8 -5 6 3 10 9 15 12 12 3 -3 0 -11 -7 -18z m448 -23 c2
-2 -5 -4 -16 -4 -12 0 -23 7 -27 15 -5 13 -2 14 17 4 12 -6 24 -13 26 -15z
m-549 2 c0 -2 -7 -7 -16 -10 -8 -3 -12 -2 -9 4 6 10 25 14 25 6z m157 -48 c-3
-8 -6 -5 -6 6 -1 11 2 17 5 13 3 -3 4 -12 1 -19z m-17 -7 c0 -5 -9 -11 -20
-14 -22 -6 -29 18 -7 26 14 5 27 -1 27 -12z m151 -21 c7 0 10 -12 7 -30 -3
-16 -1 -30 4 -30 16 0 7 -16 -9 -16 -10 -1 -26 -4 -35 -9 -15 -6 -18 -2 -18
24 0 20 5 31 14 31 9 0 12 -7 9 -22 -4 -19 -3 -20 6 -8 15 21 13 40 -4 40 -16
0 -19 17 -8 46 6 15 7 15 14 -4 5 -12 14 -22 20 -22z m-456 8 c-22 -11 -43
-25 -46 -30 -3 -5 -10 -9 -15 -9 -5 1 -26 -10 -47 -24 -21 -14 -37 -19 -35
-13 5 13 155 98 173 97 6 0 -8 -9 -30 -21z m220 1 c4 -6 13 -8 20 -5 7 2 16
-2 19 -10 5 -13 10 -13 41 0 21 9 48 13 66 9 l29 -6 -5 -96 c-3 -53 -7 -105
-9 -116 -3 -11 -5 -33 -5 -48 -1 -19 -5 -26 -13 -21 -8 5 -9 -9 -5 -54 5 -47
4 -62 -6 -62 -7 0 -22 -7 -33 -15 -18 -14 -17 -14 9 -5 16 5 30 10 33 10 7 0
4 -80 -3 -80 -5 0 -18 -3 -30 -6 -20 -5 -23 -2 -24 22 -2 27 -2 27 -6 4 -8
-44 -63 -70 -63 -30 0 23 0 23 -34 10 -16 -6 -26 -17 -26 -30 0 -16 -11 -26
-22 -18 -2 1 -14 -4 -27 -11 -24 -13 -24 -13 -17 20 4 19 7 73 6 120 0 48 2
99 6 115 6 25 8 26 15 9 7 -18 8 -17 8 5 1 14 8 38 16 54 8 15 15 36 15 46 0
17 5 18 40 10 3 0 -4 -7 -14 -15 -18 -14 -19 -15 -2 -15 12 0 16 -5 12 -15 -3
-8 -1 -15 4 -15 6 0 10 6 10 14 0 7 10 20 21 28 26 17 18 58 -11 58 -14 0 -20
9 -23 38 l-4 37 -1 -42 c-2 -40 -20 -63 -50 -63 -13 0 -23 43 -12 54 4 4 6 15
3 22 -8 22 14 41 64 53 25 7 43 14 40 17 -3 3 -21 1 -41 -4 -29 -8 -36 -8 -36
4 0 8 6 13 13 12 6 -2 11 3 10 10 -4 15 13 16 22 1z m-74 -42 c-17 -17 -41
-17 -41 -1 0 9 4 13 9 9 5 -3 12 -1 16 5 4 6 11 7 17 4 6 -4 6 -10 -1 -17z
m-54 -19 c-3 -8 -6 -5 -6 6 -1 11 2 17 5 13 3 -3 4 -12 1 -19z m-42 -8 c7 6
16 7 19 2 3 -5 -6 -14 -19 -20 -23 -11 -25 -10 -24 16 1 18 3 21 6 9 4 -14 8
-15 18 -7z m-35 -23 c0 -7 -13 -18 -30 -24 -19 -7 -30 -8 -30 -1 0 5 9 12 20
15 11 3 20 12 20 20 0 8 5 11 10 8 6 -3 10 -12 10 -18z m95 -10 c-4 8 -1 11 7
8 21 -8 10 -83 -13 -96 -11 -5 -23 -8 -28 -5 -4 3 -17 -1 -27 -9 -16 -13 -17
-16 -4 -25 13 -9 13 -11 0 -20 -8 -5 -19 -10 -25 -10 -5 0 -4 4 3 9 10 6 7 10
-11 15 -31 7 -57 -1 -57 -20 0 -8 6 -11 15 -8 18 7 20 -7 4 -23 -6 -6 -12 -34
-14 -61 -2 -28 -6 -60 -10 -71 -8 -26 1 -26 41 -2 29 17 32 25 39 85 4 42 11
66 18 65 27 -4 47 14 47 42 0 23 4 29 23 29 19 -1 20 -2 7 -13 -10 -8 -16 -35
-18 -82 -1 -38 -8 -72 -14 -74 -7 -2 -7 -5 1 -10 17 -11 2 -111 -18 -112 -14
0 -14 -1 -1 -7 9 -4 15 -20 15 -38 0 -30 -2 -31 -103 -66 l-104 -35 7 61 c4
34 8 79 11 101 12 118 17 141 30 151 18 14 18 50 0 57 -8 3 -16 16 -19 29 -3
17 -5 15 -6 -9 -1 -22 -6 -33 -16 -33 -8 0 -15 -5 -15 -10 0 -6 -6 -10 -12 -9
-27 3 -38 -2 -38 -16 0 -10 6 -12 18 -8 14 6 15 4 4 -9 -10 -13 -10 -17 3 -21
16 -7 37 23 33 45 -2 6 5 14 16 16 13 3 16 0 10 -9 -4 -7 -9 -27 -11 -44 -11
-116 -26 -203 -40 -224 -8 -13 -10 -20 -4 -17 7 5 11 -4 11 -26 0 -29 -5 -36
-35 -50 -19 -8 -35 -11 -35 -6 0 6 -13 -4 -29 -21 -16 -17 -34 -31 -40 -31
-17 0 -13 31 7 46 16 13 16 14 -2 8 -15 -6 -17 -3 -13 12 9 29 20 220 13 213
-4 -3 -9 -35 -12 -70 -3 -35 -11 -101 -18 -147 -11 -82 -12 -83 -54 -108 l-42
-25 0 22 c0 13 6 75 12 138 12 106 13 111 18 62 5 -53 6 -54 23 -36 15 15 18
31 15 90 -2 55 0 71 10 68 6 -3 12 -10 13 -17 1 -13 17 24 18 42 2 21 -50 14
-56 -8 -3 -11 -16 -23 -28 -26 -13 -3 -26 -16 -29 -29 -3 -12 -16 -26 -28 -30
-19 -6 -20 -8 -6 -12 25 -6 5 -43 -23 -43 -16 0 -19 4 -14 23 4 12 11 26 16
32 13 13 11 27 -3 19 -7 -4 -8 -3 -4 5 4 6 11 9 16 6 4 -3 15 10 24 29 18 39
20 50 6 41 -6 -3 -7 1 -4 10 6 14 8 14 19 -2 11 -15 13 -15 25 8 7 13 26 39
44 58 17 19 25 30 17 26 -9 -5 -12 -4 -7 3 5 9 13 9 26 2 13 -7 20 -6 23 3 3
7 6 5 6 -5 1 -10 6 -18 12 -18 7 0 10 12 7 29 -4 24 1 32 34 52 26 17 38 31
38 47 0 30 22 53 40 42 11 -7 10 -11 -2 -24 -9 -8 -18 -12 -22 -9 -3 4 -6 1
-6 -5 0 -15 17 -16 25 -2 9 14 42 12 48 -2 9 -26 21 4 20 48 -1 27 2 42 8 38
6 -3 8 -12 5 -20 -3 -8 -1 -14 5 -14 6 0 8 -7 5 -16 -3 -9 -2 -12 5 -9 6 4 8
13 5 21 -5 13 6 19 28 15 4 -1 14 6 22 16 12 16 15 16 24 3 8 -13 10 -13 10 1
0 25 42 40 58 20 8 -9 11 -10 7 -4z m319 -35 c-18 -13 -17 -14 14 -10 l32 5 0
-49 c0 -26 -4 -48 -10 -48 -6 0 -6 -9 1 -26 5 -15 7 -29 5 -32 -3 -2 1 -11 9
-19 14 -14 11 -60 -4 -73 -3 -3 -7 -14 -8 -25 -1 -19 -1 -19 11 -2 18 23 30
21 46 -8 13 -24 17 -25 84 -21 58 4 47 0 -64 -19 -173 -30 -160 -31 -160 9 0
31 4 35 38 45 34 10 35 10 6 8 l-32 -3 -1 68 c-1 49 2 68 11 68 10 0 10 2 -1
9 -10 7 -12 24 -6 79 6 64 8 69 27 64 20 -5 20 -5 2 -20z m-614 -66 c0 -8 -4
-18 -10 -21 -5 -3 -10 3 -10 14 0 12 5 21 10 21 6 0 10 -6 10 -14z m690 -23
c0 -6 5 -24 11 -40 6 -15 10 -30 11 -33 0 -3 6 -20 14 -38 10 -25 11 -34 1
-36 -7 -2 -19 -6 -27 -9 -11 -3 -16 4 -17 27 -1 17 -5 63 -8 101 -4 50 -3 66
4 55 6 -8 11 -20 11 -27z m-723 -5 c-3 -7 -5 -2 -5 12 0 14 2 19 5 13 2 -7 2
-19 0 -25z m-25 -20 c-9 -9 -12 -7 -12 12 0 19 3 21 12 12 9 -9 9 -15 0 -24z
m-24 -12 c-1 -14 -6 -22 -10 -20 -12 7 -10 44 2 44 5 0 9 -11 8 -24z m-98 6
c0 -5 -9 -17 -20 -27 -11 -10 -20 -24 -20 -32 0 -8 -4 -12 -9 -9 -4 3 -17 -10
-27 -29 -10 -19 -22 -35 -26 -35 -8 0 27 62 61 108 24 31 41 41 41 24z m70
-17 c0 -8 -7 -15 -15 -15 -13 0 -14 3 -3 15 16 18 18 18 18 0z m-34 -40 c-1
-8 -8 -21 -14 -27 -9 -9 -12 -7 -12 8 0 12 3 24 7 27 11 12 21 8 19 -8z m701
-32 c-3 -10 -5 -4 -5 12 0 17 2 24 5 18 2 -7 2 -21 0 -30z m319 -190 c9 -15 5
-21 -23 -34 -29 -14 -36 -15 -48 -3 -8 9 -15 10 -18 4 -3 -6 -4 -5 -3 2 2 7 9
13 17 13 8 0 13 8 11 18 -4 24 49 23 64 0z m-76 3 c0 -2 -11 -6 -25 -8 -14 -3
-25 -1 -25 3 0 5 11 9 25 9 14 0 25 -2 25 -4z m-75 -12 c-31 -12 -145 -30
-145 -23 0 5 8 10 18 11 9 0 22 2 29 2 6 1 14 3 17 6 2 3 24 6 48 7 24 1 39 0
33 -3z m-214 -24 c35 0 20 -19 -23 -30 -69 -18 -98 -31 -91 -43 5 -8 8 -7 11
1 2 7 8 10 13 6 5 -3 9 0 9 6 0 7 6 10 14 7 7 -3 19 0 25 6 8 8 11 7 11 -4 0
-9 -26 -22 -78 -37 -93 -26 -96 -26 -88 -7 6 17 -6 18 -44 4 -25 -9 -25 -9 3
-5 18 2 27 -1 27 -11 0 -8 -8 -13 -17 -12 -10 1 -25 0 -33 -3 -8 -3 -42 -14
-75 -23 -33 -10 -72 -24 -87 -32 -25 -12 -28 -12 -28 2 0 8 6 15 13 16 10 0
10 2 0 6 -7 2 -13 8 -13 13 0 11 94 46 190 72 41 11 80 21 85 23 6 1 20 6 33
10 12 4 22 12 22 17 0 5 5 6 11 3 6 -4 27 -4 46 0 29 5 33 9 22 17 -11 8 -10
9 4 4 10 -3 27 -6 38 -6z m234 0 c3 -6 -4 -10 -17 -10 -13 0 -52 -7 -88 -14
-36 -8 -68 -11 -72 -7 -4 4 0 7 10 8 32 2 135 22 140 28 8 8 20 6 27 -5z
m-197 -36 c-4 -3 -10 -6 -15 -6 -4 0 -14 -4 -21 -10 -7 -6 -16 -8 -19 -4 -4 4
-1 11 7 16 16 10 57 14 48 4z m268 -47 c-2 -18 -8 -96 -12 -174 -5 -104 -3
-143 5 -143 18 0 12 -30 -6 -31 -10 0 -13 -3 -7 -5 18 -8 4 -44 -17 -44 -10 0
-21 -5 -25 -11 -5 -8 1 -10 20 -7 14 3 29 2 31 -2 3 -4 -30 -11 -73 -15 -42
-4 -86 -9 -97 -11 -11 -2 -41 -7 -66 -10 l-46 -6 2 109 c1 61 7 117 13 128 9
16 10 0 5 -72 -5 -84 -4 -93 12 -93 14 0 16 -6 11 -27 -6 -26 -5 -27 9 -9 11
15 17 17 29 7 10 -9 33 -10 78 -5 35 5 55 10 45 12 -18 4 -18 4 -1 24 18 19
18 20 -41 16 l-60 -3 2 75 c2 131 3 141 18 170 13 25 68 60 94 60 18 0 12 17
-11 33 -20 13 -21 15 -4 13 26 -3 56 -43 56 -72 0 -13 -4 -23 -9 -21 -9 2 -11
-3 -11 -23 0 -20 28 -9 32 13 7 38 -11 84 -45 113 -26 22 -28 26 -9 20 14 -5
22 -3 22 4 0 23 24 38 43 28 15 -7 18 -17 13 -41z m84 38 c0 -8 -7 -15 -15
-15 -16 0 -20 12 -8 23 11 12 23 8 23 -8z m-1205 -47 c-7 -34 -15 -34 -15 1 0
18 4 30 9 26 6 -3 8 -15 6 -27z m806 -73 c-4 -11 -7 -55 -6 -97 0 -43 -2 -78
-5 -78 -3 0 -6 -46 -7 -102 -2 -56 -4 -103 -6 -104 -1 -2 -33 -9 -69 -16 -39
-7 -62 -16 -55 -20 8 -5 7 -8 -5 -8 -9 0 -19 6 -21 13 -3 7 -6 5 -6 -5 -1 -11
-9 -18 -20 -18 -10 0 -34 -2 -52 -5 l-34 -5 35 15 c19 8 25 13 13 11 -21 -4
-22 -2 -18 103 2 58 8 117 14 131 9 19 10 1 5 -78 -5 -98 -5 -104 13 -98 10 3
30 8 46 12 17 4 27 13 27 25 0 10 4 19 10 19 5 0 9 24 8 53 -2 103 18 171 57
189 32 14 32 30 0 62 -31 31 -24 50 23 69 l37 15 11 -32 c6 -17 8 -40 5 -51z
m92 56 c-30 -31 -37 -33 -28 -9 5 12 35 33 53 37 2 1 -9 -12 -25 -28z m100 12
c-7 -2 -19 -2 -25 0 -7 3 -2 5 12 5 14 0 19 -2 13 -5z m-299 -38 c-4 -8 -12
-15 -20 -15 -17 0 -18 17 -1 23 22 9 27 7 21 -8z m-44 -15 c0 -18 -10 -24 -32
-21 -4 0 -5 -8 -3 -19 2 -11 -1 -19 -8 -17 -7 1 -11 -6 -11 -15 1 -10 -3 -15
-9 -11 -6 4 -8 0 -5 -8 3 -8 0 -28 -7 -44 -12 -27 -13 -23 -8 40 4 58 9 74 29
93 31 27 54 28 54 2z m-295 0 c3 -5 2 -10 -4 -10 -6 0 -8 -7 -5 -15 4 -10 -4
-20 -27 -29 -19 -8 -50 -26 -69 -41 -32 -23 -35 -24 -42 -8 -6 16 -7 15 -7 -3
-1 -26 -71 -60 -83 -40 -5 6 -8 2 -8 -11 0 -22 -65 -81 -77 -70 -8 9 -69 -70
-94 -122 -11 -24 -22 -41 -25 -38 -6 5 47 104 88 164 29 44 102 109 128 115 8
2 19 8 25 15 10 12 174 103 187 103 4 0 10 -4 13 -10z m158 -24 c12 -10 17
-27 17 -65 0 -28 -4 -51 -8 -51 -5 0 -16 16 -26 36 -9 20 -19 34 -22 32 -2 -3
3 -18 11 -34 9 -17 13 -42 10 -59 -4 -26 -4 -27 5 -7 18 41 22 23 16 -65 -14
-196 -17 -213 -36 -213 -10 0 -48 -9 -85 -21 -37 -11 -69 -18 -72 -15 -8 8 -8
61 0 151 11 113 21 108 14 -7 l-5 -97 61 22 c57 20 62 25 65 55 2 23 -1 32
-11 32 -12 0 -12 11 3 75 10 41 23 81 29 89 17 20 4 62 -26 81 -23 15 -26 15
-50 0 -28 -19 -56 -76 -47 -99 3 -9 1 -16 -6 -16 -6 0 -8 -4 -5 -10 3 -5 2
-10 -3 -10 -12 0 -3 98 12 130 7 14 20 24 29 24 9 -1 17 2 17 7 0 7 74 46 90
48 3 0 13 -6 23 -13z m334 -78 c-3 -8 -6 -5 -6 6 -1 11 2 17 5 13 3 -3 4 -12
1 -19z m330 -30 c-2 -13 -4 -5 -4 17 -1 22 1 32 4 23 2 -10 2 -28 0 -40z m73
-28 c13 -39 20 -73 16 -77 -3 -3 -1 -12 5 -19 14 -17 3 -21 -66 -25 -50 -3
-60 -1 -63 14 -2 10 3 17 12 17 9 0 16 -7 16 -15 0 -8 5 -15 10 -15 6 0 10 36
10 88 0 82 11 119 30 107 4 -3 18 -36 30 -75z m-944 -24 c-3 -34 -8 -101 -12
-151 -3 -49 -8 -94 -12 -99 -10 -16 -2 -69 11 -79 8 -6 5 -7 -7 -3 -25 8 -58
-2 -50 -16 4 -6 -1 -8 -16 -3 -14 4 -20 3 -16 -3 3 -5 -3 -12 -14 -15 -11 -3
-18 -1 -15 3 3 4 -4 6 -14 3 -13 -3 -20 1 -23 14 -5 24 18 202 27 211 4 4 4
-13 1 -38 -3 -25 -8 -66 -11 -92 -4 -27 -4 -48 0 -48 19 0 81 33 92 50 8 11
16 55 19 97 2 42 8 81 13 87 4 6 8 31 9 56 0 25 -1 39 -4 32 -4 -9 -10 -10
-19 -2 -12 10 -49 9 -60 -2 -3 -3 -14 -34 -25 -69 -19 -67 -24 -53 -13 39 6
53 6 53 62 82 73 37 84 29 77 -54z m2150 -13 c-2 -12 -13 -18 -32 -20 l-28 -2
29 19 c36 24 34 24 31 3z m-2312 -34 c-4 -83 -27 -265 -35 -274 -5 -5 -9 -24
-9 -42 0 -23 -6 -36 -22 -45 -13 -7 -26 -11 -30 -10 -5 1 -8 -2 -8 -7 0 -5 -7
-12 -16 -15 -8 -3 -13 -2 -10 3 3 4 -1 17 -9 27 -11 15 -23 6 -12 -10 4 -7
-36 -46 -47 -46 -8 0 -8 2 0 8 26 17 47 94 60 222 4 30 10 59 15 64 9 10 4
-50 -11 -154 -5 -30 -4 -59 0 -64 5 -4 11 14 15 40 9 73 13 83 14 44 0 -19 -3
-51 -9 -69 -12 -41 -5 -55 9 -18 6 14 16 29 23 34 7 4 18 17 25 29 14 26 37
204 31 238 -3 14 -1 23 3 20 5 -3 6 2 3 10 -3 9 -9 16 -13 16 -10 0 -45 -61
-52 -90 -5 -18 -7 -13 -8 22 -1 42 2 49 37 77 20 17 42 29 47 27 6 -1 9 -18 9
-37z m1023 -1 c-3 -7 -5 -2 -5 12 0 14 2 19 5 13 2 -7 2 -19 0 -25z m351 -6
c2 -7 -2 -10 -12 -6 -9 3 -16 11 -16 16 0 13 23 5 28 -10z m47 -32 c10 -11 16
-20 13 -20 -3 0 -13 9 -23 20 -10 11 -16 20 -13 20 3 0 13 -9 23 -20z m884
-17 c-1 -5 2 -17 6 -29 5 -15 13 -20 29 -17 25 5 40 -16 30 -42 -6 -15 -17
-17 -81 -20 -40 -1 -43 17 -13 75 19 37 32 51 29 33z m381 -15 c0 -13 3 -40 6
-60 l7 -38 -42 0 -41 0 0 60 0 60 35 0 c30 0 35 -3 35 -22z m-2817 -27 c-6 -3
-15 -15 -21 -26 -11 -18 -11 -16 -6 10 4 17 12 36 18 44 9 12 12 11 14 -4 2
-10 0 -20 -5 -24z m1261 33 c9 -3 16 -10 16 -16 0 -5 -4 -6 -10 -3 -5 3 -10 1
-10 -4 0 -6 10 -12 23 -12 32 -2 -61 -18 -103 -17 -25 0 -29 2 -15 6 11 4 20
14 20 22 0 21 48 36 79 24z m1236 -4 c0 -5 -2 -10 -4 -10 -3 0 -8 5 -11 10 -3
6 -1 10 4 10 6 0 11 -4 11 -10z m-1017 -27 c-18 -2 -48 -2 -65 0 -18 2 -4 4
32 4 36 0 50 -2 33 -4z m1077 -45 c0 -17 -5 -28 -14 -28 -14 0 -26 29 -26 63
0 15 3 15 20 5 12 -8 20 -24 20 -40z m825 32 c3 -5 1 -10 -4 -10 -6 0 -11 5
-11 10 0 6 2 10 4 10 3 0 8 -4 11 -10z m-1888 -6 c-3 -3 -12 -4 -19 -1 -8 3
-5 6 6 6 11 1 17 -2 13 -5z m1809 -2 c12 -7 26 -112 15 -112 -21 1 -34 24 -39
69 -4 49 1 59 24 43z m-2068 -19 c-10 -2 -26 -2 -35 0 -10 3 -2 5 17 5 19 0
27 -2 18 -5z m1502 -9 c0 -8 -5 -12 -10 -9 -6 4 -8 11 -5 16 9 14 15 11 15 -7z
m-1593 0 c-3 -3 -12 -4 -19 -1 -8 3 -5 6 6 6 11 1 17 -2 13 -5z m-94 -11 c-7
-2 -19 -2 -25 0 -7 3 -2 5 12 5 14 0 19 -2 13 -5z m594 -40 c-3 -10 -5 -4 -5
12 0 17 2 24 5 18 2 -7 2 -21 0 -30z m1393 27 c0 -5 -5 -10 -11 -10 -5 0 -7 5
-4 10 3 6 8 10 11 10 2 0 4 -4 4 -10z m38 -7 c-5 -25 -28 -28 -28 -4 0 12 6
21 16 21 9 0 14 -7 12 -17z m-2211 1 c-3 -3 -12 -4 -19 -1 -8 3 -5 6 6 6 11 1
17 -2 13 -5z m413 -10 c0 -14 -2 -15 -17 -3 -14 12 -16 12 -8 0 6 -11 4 -13
-8 -8 -9 3 -18 1 -21 -6 -5 -9 -7 -9 -12 1 -3 6 -10 12 -15 12 -6 0 -7 -5 -3
-12 5 -8 2 -9 -9 -5 -10 3 -17 2 -17 -3 0 -6 -7 -10 -15 -10 -8 0 -15 5 -15
11 0 8 -4 8 -12 1 -7 -5 -44 -13 -83 -17 -38 -4 -77 -9 -85 -10 -8 -2 -43 -6
-77 -10 -35 -4 -63 -11 -63 -15 0 -5 14 -6 30 -4 17 3 30 1 30 -3 0 -5 -9 -9
-20 -10 -12 -1 -46 -9 -76 -18 l-56 -16 4 -39 c2 -22 0 -41 -4 -42 -5 -2 -9
-38 -11 -81 -2 -73 -8 -92 -21 -64 -3 6 -3 1 0 -13 4 -14 11 -27 16 -29 5 -1
1 -9 -9 -17 -14 -11 -15 -13 -3 -14 17 0 25 -60 8 -60 -6 0 -7 -7 -4 -16 4
-10 -1 -22 -11 -30 -11 -8 -13 -13 -5 -14 16 0 17 -123 1 -148 -8 -13 -21 -17
-48 -15 -29 3 -32 1 -16 -7 16 -8 12 -9 -22 -7 -23 1 -39 -1 -37 -5 3 -5 -7
-8 -23 -9 l-28 -1 25 -8 25 -8 -27 -1 c-18 -1 -28 4 -28 13 0 15 -8 15 -105
-4 -33 -7 -77 -9 -99 -6 -26 5 -46 2 -61 -8 -20 -13 -24 -13 -29 -1 -3 8 -1
29 4 46 7 24 6 35 -3 41 -6 4 -7 8 -2 8 9 0 14 61 19 200 0 19 5 38 9 41 5 3
8 34 8 69 0 90 15 113 83 130 52 12 86 33 74 45 -3 3 -40 -6 -84 -20 -43 -14
-84 -25 -91 -25 -6 0 -19 -7 -27 -16 -9 -8 -16 -11 -16 -5 0 5 -33 -4 -73 -21
-80 -33 -76 -27 -80 -130 -1 -15 -3 -16 -18 -2 -18 16 -30 7 -48 -37 -8 -21
-10 -18 -10 24 -1 45 1 48 34 64 19 9 35 23 35 30 0 17 -4 17 -51 -7 -47 -24
-46 -22 -53 -125 -7 -114 -27 -268 -36 -280 -11 -14 -16 -82 -7 -91 4 -4 7 -2
7 4 0 7 6 11 13 9 7 -1 13 12 15 35 2 26 9 39 23 43 10 4 17 11 14 16 -4 5 -4
9 -1 9 2 0 11 2 18 5 17 7 21 -27 9 -72 -6 -22 -6 -34 2 -37 7 -4 -5 -4 -25
-1 -22 4 -38 2 -38 -4 0 -6 -17 -13 -37 -17 -21 -4 -44 -11 -50 -17 -9 -6 -13
-6 -13 1 0 6 5 12 10 14 11 3 18 37 19 88 1 18 4 21 10 11 15 -23 27 14 40
124 7 55 14 116 17 135 4 33 4 34 -11 16 -14 -19 -15 -19 -15 6 0 15 7 33 15
42 8 8 15 22 15 31 0 13 -6 11 -32 -10 -18 -15 -41 -39 -50 -54 -17 -25 -18
-25 -18 -4 0 12 5 25 10 28 6 3 10 14 10 24 0 10 9 26 20 36 11 10 17 21 15
25 -3 4 3 14 12 21 14 12 16 12 8 -1 -8 -13 -6 -13 8 -1 9 7 14 18 10 24 -3 6
-1 7 5 3 6 -4 29 5 50 19 59 39 351 149 422 159 14 2 32 6 40 9 31 12 305 59
340 59 8 0 22 2 30 5 8 3 33 7 55 9 22 2 81 8 130 14 50 5 107 8 128 6 21 -2
39 0 42 4 2 4 21 7 41 8 20 1 39 4 42 7 12 12 42 4 42 -11z m85 -5 c-8 -12
-35 -11 -35 2 0 5 5 7 10 4 6 -3 10 -1 10 5 0 6 5 8 10 5 6 -4 8 -11 5 -16z
m119 12 c3 -5 -17 -11 -45 -13 -28 -1 -52 -1 -54 2 -2 3 10 7 28 8 17 2 33 5
36 7 8 8 29 6 35 -4z m1380 -27 c9 -36 -1 -43 -14 -10 -12 33 -12 36 -1 36 5
0 12 -12 15 -26z m-2947 -16 c-3 -7 -5 -2 -5 12 0 14 2 19 5 13 2 -7 2 -19 0
-25z m810 26 c-3 -3 -12 -4 -19 -1 -8 3 -5 6 6 6 11 1 17 -2 13 -5z m779 -26
c10 -13 12 -18 4 -12 -9 6 -26 8 -40 3 -14 -4 -20 -8 -15 -8 6 -1 3 -7 -7 -14
-13 -11 -17 -45 -25 -216 -6 -159 -5 -205 4 -208 7 -3 10 -9 7 -14 -3 -5 0 -9
5 -9 6 0 11 -6 11 -14 0 -14 -36 -19 -254 -32 -77 -5 -107 -4 -102 4 3 6 -2
15 -11 21 -16 9 -16 10 5 11 13 0 22 -6 22 -15 0 -14 15 -15 118 -9 64 4 119
11 120 16 2 4 11 16 20 25 12 12 13 18 4 21 -23 7 -10 192 14 192 37 0 0 131
-41 146 -19 8 -19 24 0 24 21 0 19 18 -2 23 -10 3 -6 4 8 4 18 -1 25 -6 22
-14 -3 -9 0 -11 10 -7 8 3 17 16 20 29 2 15 0 22 -6 18 -6 -4 -8 0 -4 11 4 10
7 21 7 26 0 10 24 17 61 19 16 1 34 -8 45 -21z m-141 2 c-3 -5 -10 -10 -16
-10 -5 0 -9 5 -9 10 0 6 7 10 16 10 8 0 12 -4 9 -10z m998 3 c-13 -2 -33 -2
-45 0 -13 2 -3 4 22 4 25 0 35 -2 23 -4z m1014 -15 c-3 -8 -6 -5 -6 6 -1 11 2
17 5 13 3 -3 4 -12 1 -19z m-2050 -1 c3 -4 -15 -7 -41 -7 -26 0 -45 4 -42 9 6
9 72 8 83 -2z m-847 -7 c-34 -11 -60 -11 -35 0 11 5 29 8 40 8 16 0 15 -2 -5
-8z m660 1 c0 -6 -20 -13 -45 -17 -39 -5 -43 -8 -29 -19 15 -10 15 -12 1 -18
-12 -4 -16 -32 -21 -134 -8 -147 -16 -246 -22 -252 -2 -2 1 -10 7 -18 6 -7 8
-13 4 -13 -4 0 -2 -7 5 -15 7 -9 11 -17 9 -19 -2 -2 -33 -6 -69 -9 -36 -3 -53
-3 -38 1 25 7 83 66 58 60 -21 -5 -13 154 7 170 15 11 15 12 -3 13 -16 1 -17
2 -1 6 9 2 17 10 18 16 5 49 -20 110 -54 135 -20 15 -14 30 17 42 30 11 40 1
21 -20 -10 -11 -12 -20 -6 -24 11 -7 31 24 31 48 0 8 6 16 13 19 6 2 2 2 -10
0 -17 -2 -21 1 -17 12 4 8 1 15 -7 15 -34 0 10 16 59 21 31 3 60 7 65 8 4 0 7
-3 7 -8z m35 -1 c3 -5 1 -10 -4 -10 -6 0 -11 5 -11 10 0 6 2 10 4 10 3 0 8 -4
11 -10z m1040 0 c3 -5 -1 -10 -10 -10 -9 0 -13 5 -10 10 3 6 8 10 10 10 2 0 7
-4 10 -10z m766 -10 c11 0 17 -7 16 -19 0 -11 -4 -18 -7 -17 -14 7 -46 19 -59
22 -7 1 -19 8 -25 15 -8 9 -3 10 23 5 18 -3 42 -6 52 -6z m-1991 -8 c0 -4 -14
-9 -31 -10 -19 -2 -28 2 -24 8 7 12 55 14 55 2z m-73 -8 c-3 -3 -12 -4 -19 -1
-8 3 -5 6 6 6 11 1 17 -2 13 -5z m590 -9 c0 -8 -4 -12 -9 -9 -4 3 -8 9 -8 15
0 5 4 9 8 9 5 0 9 -7 9 -15z m1200 -8 c4 -7 -5 -8 -27 -4 -18 4 -39 7 -47 7
-8 0 -12 4 -9 8 7 11 75 2 83 -11z m524 13 c24 0 29 -4 29 -25 0 -22 -4 -25
-27 -21 -16 2 -35 5 -43 5 -9 1 -17 12 -18 27 -1 20 2 25 14 20 9 -3 29 -6 45
-6z m-2904 -6 c-3 -3 -12 -4 -19 -1 -8 3 -5 6 6 6 11 1 17 -2 13 -5z m1603
-14 c0 -5 -5 -10 -11 -10 -5 0 -7 5 -4 10 3 6 8 10 11 10 2 0 4 -4 4 -10z m77
4 c-3 -3 -12 -4 -19 -1 -8 3 -5 6 6 6 11 1 17 -2 13 -5z m-828 -46 c-12 -11
-18 -23 -13 -30 4 -7 4 -10 -1 -6 -4 4 -14 3 -22 -3 -16 -14 -18 -33 -2 -23 9
5 -4 -30 -17 -45 -1 -2 -1 20 1 49 2 29 11 60 20 69 8 10 12 21 9 24 -4 4 5 1
20 -6 l26 -12 -21 -17z m775 8 c-4 -11 -18 -16 -45 -16 -51 0 -43 28 9 32 45
4 44 4 36 -16z m451 -6 c0 -10 -14 -17 -45 -21 -43 -6 -43 -6 -10 -9 19 -1 38
-2 43 -1 4 0 7 -6 7 -14 0 -11 -12 -15 -44 -15 -25 0 -47 -4 -50 -9 -3 -4 -18
-7 -33 -6 -15 1 -40 3 -54 3 -22 2 -27 7 -25 27 1 23 5 25 45 25 32 0 42 3 38
14 -9 24 11 31 70 26 43 -4 58 -9 58 -20z m561 7 c6 13 34 6 34 -8 0 -12 -67
-12 -74 0 -9 14 18 20 27 7 6 -8 10 -8 13 1z m519 -8 c9 -27 5 -29 -37 -23
-24 4 -38 13 -41 25 -4 16 1 19 33 19 30 0 40 -4 45 -21z m-2651 -1 c16 -15 9
-41 -28 -112 -14 -27 -26 -55 -26 -63 0 -7 -4 -13 -10 -13 -5 0 -3 21 5 48 8
26 15 59 15 74 0 25 18 78 27 78 2 0 10 -6 17 -12z m2404 -4 c15 -4 22 -14 22
-30 0 -14 6 -24 14 -24 12 0 13 -7 5 -32 -12 -44 -12 -48 6 -48 8 0 15 5 15
10 0 6 6 10 14 10 8 0 17 6 19 13 3 7 6 5 6 -5 1 -10 -4 -18 -10 -18 -5 0 -7
-5 -3 -11 4 -6 19 -9 37 -5 16 3 35 1 42 -4 16 -13 30 33 17 57 -17 30 -2 53
34 53 27 0 34 -4 34 -20 0 -15 -7 -20 -25 -20 -26 0 -33 -14 -14 -26 6 -3 14
-1 18 5 7 11 41 5 41 -8 -1 -14 -27 -39 -45 -44 -19 -5 -19 -5 1 -12 19 -6 50
-52 41 -61 -1 -2 -22 -5 -45 -6 -23 -2 -42 -6 -42 -11 0 -4 -13 -1 -30 8 -16
8 -45 15 -65 15 -22 0 -34 4 -30 10 3 6 -1 10 -9 10 -9 0 -16 -5 -16 -11 0
-12 -39 -8 -75 6 -18 8 -18 7 -6 -8 12 -15 11 -17 -5 -17 -17 -1 -16 -3 5 -20
13 -11 20 -20 16 -20 -10 0 -65 47 -60 51 2 2 -18 4 -43 3 -38 -1 -49 -5 -57
-23 -12 -26 -20 -26 -37 -3 -18 25 -45 34 -52 16 -8 -21 -26 -17 -26 7 0 19 4
20 41 15 23 -3 48 -11 57 -18 13 -11 14 -9 7 12 -9 31 -25 50 -25 29 0 -11
-11 -13 -44 -11 -43 4 -44 4 -50 48 -5 41 -4 50 10 92 6 15 7 15 14 -3 7 -17
9 -17 9 -2 1 11 9 17 27 17 16 0 23 -4 18 -12 -5 -7 -3 -8 5 -4 7 5 10 14 7
21 -7 19 74 -25 88 -47 13 -22 0 -48 -32 -63 -20 -9 -23 -21 -13 -65 1 -3 8 3
16 14 11 15 23 18 60 13 34 -3 48 -1 52 9 3 8 9 11 14 8 13 -8 11 10 -3 25
-10 11 -10 13 0 7 14 -8 15 -5 6 18 -3 9 -11 13 -16 10 -6 -4 -6 1 1 13 5 11
8 37 4 57 -6 39 3 44 55 30z m712 -43 c0 -32 -6 -24 -14 19 -4 25 -3 31 4 20
5 -8 10 -26 10 -39z m-2574 -12 c18 -35 18 -55 0 -62 -10 -4 -12 0 -9 14 3 10
-1 29 -9 41 -8 13 -18 32 -21 42 -7 16 -5 17 8 6 9 -8 23 -26 31 -41z m1331
27 c10 -10 11 -51 2 -63 -9 -9 -8 -13 0 -13 7 0 9 -4 6 -10 -3 -5 -17 -10 -31
-10 -13 0 -24 -5 -24 -11 0 -8 -5 -8 -15 1 -12 10 -15 9 -16 -4 -3 -31 -4 -35
-16 -47 -10 -10 -13 -6 -13 23 0 20 5 40 10 43 6 3 10 26 10 50 0 25 5 46 13
49 12 5 67 -1 74 -8z m961 4 c6 0 12 -7 12 -15 0 -19 -37 -20 -56 -1 -20 21
-17 29 9 22 12 -3 28 -6 35 -6z m-1886 -32 c-9 -9 -12 -7 -12 12 0 19 3 21 12
12 9 -9 9 -15 0 -24z m-66 -5 c-10 -10 -19 5 -10 18 6 11 8 11 12 0 2 -7 1
-15 -2 -18z m38 12 c3 -8 1 -15 -4 -15 -6 0 -10 7 -10 15 0 8 2 15 4 15 2 0 6
-7 10 -15z m191 -25 c-2 -35 -15 -54 -15 -22 0 11 -3 27 -6 36 -4 10 -1 16 8
16 10 0 14 -10 13 -30z m1866 10 c10 -6 19 -15 19 -20 0 -17 -26 -11 -45 10
-20 22 -7 27 26 10z m-2805 -56 l4 -39 -15 45 c-18 54 -18 57 -5 44 6 -6 13
-28 16 -50z m828 34 c-10 -13 -20 -25 -21 -27 -2 -2 -3 5 -3 17 0 11 8 23 18
25 9 3 19 5 21 6 2 0 -4 -9 -15 -21z m160 6 c20 -20 20 -34 0 -34 -8 0 -12 -4
-9 -10 3 -5 0 -10 -7 -11 -10 0 -10 -2 0 -6 16 -6 16 -43 -1 -43 -10 0 -14 17
-15 60 -1 62 5 71 32 44z m-194 -4 c0 -5 -7 -7 -15 -4 -8 4 -15 8 -15 10 0 2
7 4 15 4 8 0 15 -4 15 -10z m1854 -1 c-4 -7 0 -9 13 -5 13 4 20 2 20 -7 0 -9
-10 -12 -29 -9 -28 4 -34 12 -21 25 11 11 25 8 17 -4z m-1747 -5 c-3 -3 -12
-4 -19 -1 -8 3 -5 6 6 6 11 1 17 -2 13 -5z m983 -13 c0 -5 3 -23 6 -41 6 -30
5 -31 -12 -22 -25 13 -32 72 -9 72 8 0 15 -4 15 -9z m-115 -9 c13 -9 18 -62 6
-62 -5 0 -11 -6 -14 -14 -4 -10 0 -12 14 -9 24 7 24 9 -11 -78 -16 -41 -30
-79 -30 -86 0 -6 -5 -15 -12 -19 -6 -4 -8 -3 -5 4 4 5 8 30 8 54 1 23 8 58 15
76 7 18 9 30 4 27 -11 -7 -30 35 -30 66 0 35 31 58 55 41z m1055 -2 c8 -5 11
-10 5 -10 -5 0 -17 5 -25 10 -8 5 -10 10 -5 10 6 0 17 -5 25 -10z m-3617 -42
c-1 -24 -5 -63 -8 -88 -3 -25 -9 -83 -15 -130 -5 -47 -14 -101 -20 -120 -5
-19 -10 -54 -10 -77 0 -34 -4 -43 -17 -44 -15 0 -15 -2 2 -9 17 -7 14 -9 -15
-10 -93 -6 -83 -13 -86 63 -1 37 2 89 6 115 8 40 8 37 4 -20 -5 -61 -4 -68 13
-68 30 0 63 12 58 20 -3 5 4 11 14 15 25 8 34 62 35 209 1 79 -2 110 -12 113
-6 3 -10 9 -6 14 3 5 0 9 -5 9 -6 0 -11 -5 -11 -11 0 -5 -5 -7 -10 -4 -6 4
-19 -13 -30 -37 l-20 -43 6 50 c8 60 10 65 33 65 9 0 26 7 37 15 10 8 28 15
40 15 18 0 20 -5 17 -42z m2373 12 c2 -28 -9 -40 -19 -22 -4 7 9 52 15 52 2 0
4 -13 4 -30z m1254 -7 c0 -20 -34 -12 -38 9 -2 12 2 15 17 11 12 -3 21 -12 21
-20z m-2253 -69 c13 -43 22 -86 22 -94 -2 -28 1 -39 16 -53 13 -14 8 -16 -49
-22 -80 -9 -97 -5 -107 23 -7 18 -5 22 12 22 16 0 20 -5 16 -20 -4 -15 0 -20
14 -20 21 0 22 3 24 100 3 138 5 152 17 148 7 -3 23 -40 35 -84z m363 70 c0
-8 -5 -12 -10 -9 -6 4 -8 11 -5 16 9 14 15 11 15 -7z m1705 -4 c3 -5 -1 -10
-9 -10 -9 0 -16 5 -16 10 0 6 4 10 9 10 6 0 13 -4 16 -10z m31 -5 c-3 -8 1
-33 9 -56 8 -23 13 -45 10 -49 -3 -5 2 -15 10 -23 17 -18 20 -37 4 -37 -5 0
-7 5 -4 10 3 6 1 10 -4 10 -6 0 -11 7 -11 15 0 14 -72 41 -98 36 -7 -1 -16 8
-21 21 l-8 22 -12 -22 c-16 -30 -27 -28 -35 6 -4 15 -9 35 -12 45 -5 17 -1 18
43 12 82 -10 94 -15 102 -38 8 -20 9 -19 9 9 -1 30 7 54 19 54 3 0 3 -7 -1
-15z m319 5 c3 -5 1 -10 -4 -10 -6 0 -11 5 -11 10 0 6 2 10 4 10 3 0 8 -4 11
-10z m-2154 -32 l0 -23 10 23 c10 26 29 22 25 -6 -2 -9 -13 -18 -25 -20 -17
-3 -20 -6 -11 -17 6 -8 10 -29 8 -47 -2 -25 -8 -33 -22 -33 -14 0 -22 12 -32
45 -24 78 -18 94 34 99 6 0 12 -9 13 -21z m324 -14 c46 -21 63 -52 70 -119 3
-32 8 -62 11 -66 3 -5 -18 -9 -47 -9 -41 0 -50 -3 -41 -12 7 -7 12 -25 12 -40
0 -15 5 -28 11 -28 5 0 7 5 4 10 -4 6 6 10 22 10 27 0 29 -3 31 -42 2 -24 5
-51 8 -60 4 -14 -1 -18 -20 -18 -14 0 -26 5 -26 11 0 6 -7 8 -16 5 -8 -3 -12
-2 -9 4 6 10 -11 14 -50 11 l-20 -2 20 16 c20 16 20 16 1 31 -11 8 -14 14 -8
14 7 0 12 10 12 23 0 13 5 28 12 35 9 9 8 12 -4 12 -9 0 -18 4 -20 8 -1 4 -11
0 -20 -10 -15 -15 -15 -18 -3 -18 9 0 15 -9 15 -21 0 -15 -5 -20 -22 -17 -26
3 -36 41 -18 64 11 12 7 14 -23 14 -41 0 -47 10 -47 85 0 58 15 84 65 110 38
19 59 19 100 -1z m475 6 c0 -5 -7 -10 -16 -10 -8 0 -12 5 -9 10 3 6 10 10 16
10 5 0 9 -4 9 -10z m1180 -5 c0 -8 -7 -15 -16 -15 -14 0 -14 3 -4 15 7 8 14
15 16 15 2 0 4 -7 4 -15z m115 5 c3 -5 -1 -10 -9 -10 -9 0 -16 5 -16 10 0 6 4
10 9 10 6 0 13 -4 16 -10z m-3171 -82 c-3 -46 -10 -90 -15 -98 -7 -14 -3 82 7
148 10 63 15 31 8 -50z m1211 72 c3 -5 1 -10 -4 -10 -6 0 -11 5 -11 10 0 6 2
10 4 10 3 0 8 -4 11 -10z m-40 -30 c3 -6 -4 -10 -17 -10 -18 0 -20 2 -8 10 19
12 18 12 25 0z m1880 -11 c-4 -5 1 -12 9 -15 9 -3 16 -10 16 -16 0 -5 -4 -6
-10 -3 -5 3 -10 -1 -10 -9 0 -21 -36 -21 -44 0 -5 13 -2 15 14 11 18 -5 20 -2
16 24 -2 16 0 27 5 23 5 -3 7 -10 4 -15z m-1117 -8 c3 -8 -1 -12 -9 -9 -7 2
-15 10 -17 17 -3 8 1 12 9 9 7 -2 15 -10 17 -17z m807 9 c7 -12 -12 -12 -40 0
-18 8 -17 9 7 9 15 1 30 -3 33 -9z m384 -9 c7 -5 11 -13 7 -19 -3 -6 -1 -12 6
-14 6 -2 12 -12 14 -22 2 -13 -1 -15 -11 -6 -10 8 -14 7 -18 -2 -4 -8 -6 -7
-6 5 -1 9 -5 17 -11 17 -5 0 -10 5 -10 11 0 5 5 7 10 4 6 -3 10 1 10 9 0 8 -8
17 -17 19 -13 3 -14 5 -3 6 8 0 21 -3 29 -8z m-454 -11 c-3 -5 -2 -10 2 -10 5
0 9 -9 10 -20 1 -11 -2 -20 -8 -20 -5 0 -9 6 -9 14 0 8 -3 21 -6 30 -3 9 -1
16 6 16 6 0 8 -4 5 -10z m-145 -10 c0 -5 -5 -10 -11 -10 -5 0 -7 5 -4 10 3 6
8 10 11 10 2 0 4 -4 4 -10z m280 -66 l0 -25 -30 21 c-29 20 -40 57 -23 74 12
12 53 -43 53 -70z m401 55 c27 -12 48 -24 45 -26 -2 -3 -25 4 -49 15 -25 11
-48 18 -51 14 -3 -3 -6 0 -6 6 0 16 3 15 61 -9z m-1311 1 c0 -5 -4 -10 -9 -10
-6 0 -13 5 -16 10 -3 6 1 10 9 10 9 0 16 -4 16 -10z m355 0 c3 -6 -4 -10 -17
-10 -18 0 -20 2 -8 10 19 12 18 12 25 0z m-655 -8 c0 -4 -9 -8 -20 -9 -11 -1
-18 2 -15 8 7 11 35 12 35 1z m1299 -42 c1 -13 0 -13 -9 0 -5 8 -9 24 -9 35
l0 20 9 -20 c5 -11 9 -27 9 -35z m-3824 -134 c-16 -133 -24 -171 -31 -163 -3
3 24 239 37 332 1 6 4 -1 6 -14 3 -12 -3 -82 -12 -155z m185 134 c0 -22 -3
-40 -8 -40 -4 0 -6 18 -4 40 2 22 6 40 8 40 2 0 4 -18 4 -40z m1077 3 c-3 -10
-5 -4 -5 12 0 17 2 24 5 18 2 -7 2 -21 0 -30z m1293 -13 c0 -27 -4 -50 -10
-50 -5 0 -9 23 -9 50 1 28 6 50 10 50 5 0 9 -22 9 -50z m870 40 c0 -5 -2 -10
-4 -10 -3 0 -8 5 -11 10 -3 6 -1 10 4 10 6 0 11 -4 11 -10z m726 -27 c-6 -6
-36 9 -36 18 0 5 9 4 20 -3 10 -7 18 -14 16 -15z m-1628 -24 c2 -28 1 -31 -9
-16 -6 10 -8 24 -5 32 3 8 1 16 -5 19 -5 2 -4 3 3 2 7 -1 14 -18 16 -37z m106
-16 c28 -55 13 -71 -31 -34 -23 19 -29 45 -17 75 7 19 24 5 48 -41z m-2587 15
c-3 -8 -6 -5 -6 6 -1 11 2 17 5 13 3 -3 4 -12 1 -19z m180 -15 c-3 -10 -5 -4
-5 12 0 17 2 24 5 18 2 -7 2 -21 0 -30z m2916 12 c-3 -9 -8 -14 -10 -11 -3 3
-2 9 2 15 9 16 15 13 8 -4z m-1095 -2 c-10 -2 -26 -2 -35 0 -10 3 -2 5 17 5
19 0 27 -2 18 -5z m1142 -13 c0 -13 -19 -22 -30 -15 -14 9 0 34 16 28 8 -3 14
-9 14 -13z m-1292 -7 c-15 -2 -42 -2 -60 0 -18 2 -6 4 27 4 33 0 48 -2 33 -4z
m1757 -55 c16 -14 17 -18 5 -19 -8 -1 -19 -1 -24 0 -5 1 -4 -5 4 -13 7 -9 20
-16 28 -16 13 0 12 -3 -4 -15 -10 -8 -14 -15 -9 -15 6 0 3 -5 -5 -10 -12 -8
-10 -10 10 -10 20 0 22 -2 10 -10 -13 -9 -13 -11 0 -21 11 -8 12 -12 3 -16
-25 -10 -14 -34 13 -31 19 2 27 -2 29 -14 3 -14 -4 -18 -28 -19 -31 -1 -31 -1
-7 -9 l25 -8 -27 -1 c-21 -1 -28 4 -28 18 0 11 -9 21 -22 25 -19 5 -21 8 -8
16 13 9 13 11 0 20 -13 9 -13 11 -1 19 15 10 22 61 9 61 -4 0 -8 -5 -8 -12 0
-6 -3 -9 -6 -5 -8 8 -12 117 -6 136 4 11 9 8 16 -10 6 -13 20 -32 31 -41z m95
26 c0 -8 -4 -12 -10 -9 -5 3 -10 13 -10 21 0 8 5 12 10 9 6 -3 10 -13 10 -21z
m-2825 6 c3 -5 1 -10 -4 -10 -6 0 -11 5 -11 10 0 6 2 10 4 10 3 0 8 -4 11 -10z
m862 -31 c2 -24 -1 -30 -13 -25 -8 3 -12 2 -9 -4 3 -6 -5 -10 -19 -10 -23 0
-26 4 -26 35 0 33 2 35 33 35 29 0 32 -3 34 -31z m1373 21 c0 -5 -4 -10 -10
-10 -5 0 -10 5 -10 10 0 6 5 10 10 10 6 0 10 -4 10 -10z m-1707 -6 c9 -3 12
-14 9 -29 -2 -14 -8 -22 -13 -19 -5 3 -9 0 -9 -5 0 -6 10 -11 23 -12 33 -2
-36 -16 -117 -24 -46 -5 -64 -10 -55 -16 12 -7 12 -9 -1 -9 -8 0 -73 -4 -145
-10 -189 -14 -303 -19 -281 -13 35 9 55 37 57 81 3 51 28 59 30 10 1 -31 2
-31 8 -8 6 21 13 25 49 26 59 1 66 14 7 14 -27 0 -46 3 -42 6 3 3 43 3 87 -1
73 -7 81 -9 77 -26 -4 -16 0 -19 25 -19 35 0 34 -21 -3 -32 -25 -8 75 -2 145
9 35 5 38 7 23 18 -27 20 -20 43 16 54 37 11 89 13 110 5z m75 -19 c-3 -3 -9
2 -12 12 -6 14 -5 15 5 6 7 -7 10 -15 7 -18z m1020 19 c13 -4 22 -14 22 -25 0
-17 -8 -19 -65 -19 -63 0 -65 1 -65 25 0 23 4 25 43 25 23 0 52 -3 65 -6z
m-2377 -55 c-5 -26 -9 -34 -10 -19 -1 27 9 73 15 67 2 -2 0 -23 -5 -48z m2964
40 c11 -16 1 -19 -13 -3 -7 8 -8 14 -3 14 5 0 13 -5 16 -11z m595 -10 c0 -6
-4 -7 -10 -4 -5 3 -10 11 -10 16 0 6 5 7 10 4 6 -3 10 -11 10 -16z m-2565 -9
c3 -5 1 -10 -4 -10 -6 0 -11 5 -11 10 0 6 2 10 4 10 3 0 8 -4 11 -10z m425
-11 c0 -5 -8 -10 -17 -10 -10 -1 -4 -5 12 -9 23 -6 14 -8 -35 -7 -36 0 -50 2
-31 4 26 3 31 7 20 14 -12 7 -12 10 0 18 15 10 51 3 51 -10z m1053 4 c-7 -2
-19 -2 -25 0 -7 3 -2 5 12 5 14 0 19 -2 13 -5z m-560 -10 c3 -5 -18 -7 -46 -5
-86 5 -96 9 -25 11 37 0 69 -2 71 -6z m-245 -10 c-10 -2 -26 -2 -35 0 -10 3
-2 5 17 5 19 0 27 -2 18 -5z m1298 -5 c4 -6 3 -8 -4 -4 -5 3 -13 0 -15 -6 -3
-8 -6 -6 -6 5 -1 19 14 23 25 5z m-891 -8 c4 -6 -10 -10 -34 -10 -23 0 -41 5
-41 10 0 6 15 10 34 10 19 0 38 -4 41 -10z m-2148 -32 c-3 -7 -5 -2 -5 12 0
14 2 19 5 13 2 -7 2 -19 0 -25z m1693 22 c0 -6 -33 -9 -82 -8 l-83 2 80 6 c44
3 81 7 83 8 1 1 2 -2 2 -8z m1350 -20 c-8 -14 -8 -20 0 -20 6 0 9 -4 6 -9 -4
-5 0 -12 6 -14 7 -3 1 -6 -14 -6 -34 -1 -40 17 -14 46 24 28 30 29 16 3z
m-1642 3 c-16 -2 -40 -2 -55 0 -16 2 -3 4 27 4 30 0 43 -2 28 -4z m1922 -32
c7 -26 6 -31 -9 -31 -9 0 -22 -5 -29 -12 -7 -7 -12 -10 -13 -7 0 2 -2 12 -4
22 -2 10 3 17 13 17 15 0 15 2 2 10 -13 9 -12 12 4 25 23 17 24 17 36 -24z
m-2067 22 c-7 -2 -21 -2 -30 0 -10 3 -4 5 12 5 17 0 24 -2 18 -5z m2105 -21
c6 -18 -15 -14 -22 4 -4 10 -1 14 6 12 6 -2 14 -10 16 -16z m-1523 -2 c3 -5 2
-10 -4 -10 -5 0 -13 5 -16 10 -3 6 -2 10 4 10 5 0 13 -4 16 -10z m69 -11 c-3
-5 2 -9 10 -9 9 0 16 5 16 10 0 6 5 10 11 10 5 0 7 -6 3 -12 -6 -10 -5 -10 7
-2 11 9 17 9 27 -2 11 -12 5 -14 -40 -14 -46 0 -54 3 -54 19 0 11 5 17 13 14
7 -3 10 -9 7 -14z m-297 -10 c-1 -15 -8 -19 -34 -17 -18 1 -33 6 -33 10 0 4
-4 8 -10 8 -5 0 -9 -6 -7 -12 1 -8 -10 -14 -28 -15 -16 -1 -24 0 -17 3 6 3 12
12 12 19 0 9 15 15 43 17 23 2 50 4 59 5 11 1 16 -5 15 -18z m130 5 c0 -29
-112 -32 -114 -3 -1 13 9 16 56 17 42 0 58 -4 58 -14z m27 4 c-6 -10 -5 -10 8
0 12 10 17 10 26 -1 9 -10 4 -13 -19 -15 -20 -2 -29 2 -29 13 0 8 5 15 11 15
5 0 7 -6 3 -12z m-346 -16 c-3 -16 -32 -24 -51 -14 -13 6 10 28 33 29 15 1 20
-3 18 -15z m49 7 c-14 -8 -22 -8 -30 0 -8 8 -3 11 19 11 25 -1 27 -2 11 -11z
m-110 -14 c0 -11 -12 -15 -41 -16 -23 0 -48 -2 -56 -3 -8 -2 -64 -6 -125 -10
-266 -15 -321 -19 -335 -27 -12 -7 -10 -8 8 -9 12 0 22 -5 22 -11 0 -5 -4 -8
-10 -4 -5 3 -25 -1 -44 -9 -19 -8 -36 -12 -38 -10 -3 2 -5 -19 -6 -46 -1 -60
-10 -92 -22 -85 -5 3 -6 13 -3 23 3 9 3 14 -2 10 -4 -4 -16 4 -27 17 -30 39
-40 29 -13 -11 14 -20 25 -44 25 -53 -1 -9 -7 -2 -14 15 -8 17 -29 42 -46 54
l-33 24 -33 -40 c-28 -32 -34 -35 -34 -19 -1 17 -3 17 -13 -5 l-11 -25 -4 30
c-2 16 1 31 7 33 6 2 9 8 5 13 -3 5 2 9 11 9 9 0 14 4 11 9 -9 14 20 21 83 21
31 0 62 5 69 12 9 9 12 9 12 0 0 -7 5 -12 10 -12 6 0 10 6 10 13 0 8 -15 14
-39 15 -53 4 -243 -15 -386 -38 -169 -26 -275 -40 -307 -40 -16 0 -28 -5 -28
-11 0 -7 -10 -9 -26 -5 -24 6 -26 5 -19 -16 10 -31 10 -60 1 -148 -22 -227
-25 -244 -46 -265 l-21 -20 10 27 c10 26 51 298 51 335 0 27 -21 1 -31 -39 -5
-23 -6 -12 -2 35 5 63 4 67 -16 67 -11 0 -21 -4 -21 -10 0 -5 -6 -10 -14 -10
-8 0 -17 -8 -19 -17 -3 -10 -4 1 -4 25 0 37 5 47 33 69 18 13 37 22 43 19 5
-3 12 1 15 10 4 10 14 14 26 11 12 -3 18 -1 14 5 -4 7 5 8 26 3 22 -5 30 -4
26 3 -4 7 6 10 26 9 18 0 128 13 243 31 116 17 264 36 330 41 311 27 490 38
646 40 106 1 126 -1 126 -14z m1703 -4 c0 -5 12 -12 28 -14 15 -2 3 -5 -25 -6
-41 -1 -53 2 -53 14 0 9 9 15 25 15 14 0 25 -4 25 -9z m-1060 -16 c0 -9 -9
-15 -25 -15 -14 0 -25 -4 -25 -10 0 -5 -19 -10 -42 -11 -36 -1 -39 -2 -18 -8
14 -4 24 -13 23 -19 -1 -6 -6 -114 -9 -241 -6 -201 -5 -231 8 -231 17 0 20
-32 4 -42 -6 -4 -10 -22 -9 -40 2 -29 1 -30 -5 -8 -5 14 -15 25 -24 25 -9 0
-20 3 -23 7 -4 4 -13 4 -21 1 -10 -4 -14 3 -14 26 0 21 5 31 15 31 20 0 19 17
-1 28 -13 7 -14 24 -8 110 6 87 9 102 24 102 23 0 24 50 4 113 -16 49 -13 84
7 71 8 -5 8 -1 0 14 -6 11 -9 34 -8 51 2 26 7 32 35 37 17 3 32 10 32 15 0 5
18 9 40 9 29 0 40 -4 40 -15z m1330 -15 c12 0 20 7 21 18 1 16 2 16 6 -1 2 -9
9 -15 14 -12 5 4 9 -1 9 -10 0 -13 -9 -16 -42 -14 -46 3 -60 13 -51 37 5 12 7
12 15 -2 5 -9 18 -16 28 -16z m-2983 14 c-3 -3 -12 -4 -19 -1 -8 3 -5 6 6 6
11 1 17 -2 13 -5z m-80 -10 c-3 -3 -12 -4 -19 -1 -8 3 -5 6 6 6 11 1 17 -2 13
-5z m1263 -6 c0 -5 -20 -8 -44 -8 -24 0 -58 -3 -75 -6 -21 -4 -31 -3 -31 5 0
7 4 10 9 6 5 -3 12 -2 14 2 7 10 127 11 127 1z m50 4 c0 -4 -9 -8 -20 -9 -11
-1 -20 2 -20 5 0 4 9 8 20 9 11 1 20 -2 20 -5z m540 -8 c0 -8 -4 -12 -10 -9
-5 3 -10 10 -10 16 0 5 5 9 10 9 6 0 10 -7 10 -16z m178 4 c19 -19 14 -30 -10
-26 -13 2 -24 11 -26 21 -4 20 18 23 36 5z m-958 -6 c0 -10 -77 -8 -87 1 -3 4
15 7 40 7 26 0 47 -4 47 -8z m-186 -10 c3 -5 -8 -9 -24 -10 -35 -1 -59 -21
-58 -48 0 -11 -5 -106 -12 -213 -7 -107 -10 -210 -7 -228 3 -19 1 -56 -6 -83
-10 -44 -15 -50 -37 -50 -20 0 -22 2 -10 10 10 7 12 12 4 18 -6 4 -10 15 -8
25 1 9 -1 17 -5 17 -3 0 -1 60 6 133 6 72 12 138 12 144 1 7 7 12 13 10 9 -1
13 26 15 103 2 62 -1 99 -6 91 -7 -10 -10 -11 -16 -1 -5 8 -1 18 9 26 11 8 13
14 6 19 -5 3 -8 9 -6 13 2 4 -39 6 -92 4 -53 -1 -93 0 -90 3 14 14 304 30 312
17z m1316 -4 c0 -4 -9 -8 -21 -8 -11 0 -18 4 -15 8 3 5 12 9 21 9 8 0 15 -4
15 -9z m640 -8 c0 -17 -3 -19 -19 -10 -30 16 -32 26 -5 28 18 1 24 -3 24 -18z
m-3235 -11 c-6 -33 -15 -36 -15 -6 0 15 4 27 9 27 6 0 8 -10 6 -21z m1620 11
c-3 -5 -22 -10 -41 -10 -19 0 -34 5 -34 10 0 6 18 10 41 10 24 0 38 -4 34 -10z
m491 -27 c-3 -3 -13 -2 -23 1 -17 7 -17 8 2 22 18 13 20 13 23 -1 2 -9 1 -19
-2 -22z m-2151 7 c-4 -12 -1 -28 6 -36 10 -12 9 -13 -6 -8 -12 5 -16 4 -12 -3
8 -12 -20 -39 -30 -30 -3 4 2 9 11 13 9 3 14 10 11 14 -3 4 0 22 6 39 12 34
24 44 14 11z m2980 10 c3 -5 15 -10 26 -10 31 0 17 -24 -16 -28 -38 -5 -95 7
-95 18 0 6 17 10 38 11 30 0 33 2 17 9 -19 8 -19 9 2 9 12 1 25 -3 28 -9z m38
3 c-7 -2 -19 -2 -25 0 -7 3 -2 5 12 5 14 0 19 -2 13 -5z m-1389 -105 c-11
-291 -11 -376 -2 -392 6 -11 6 -21 -1 -30 -6 -7 -8 -15 -5 -19 3 -3 -3 -3 -14
0 -14 3 -21 -1 -24 -14 -3 -14 -7 -12 -19 13 -22 44 -11 271 15 289 20 15 21
83 2 129 -14 33 -59 76 -80 76 -6 0 -3 -5 7 -11 9 -6 15 -15 11 -20 -4 -7 -10
-7 -18 0 -12 10 -46 15 -83 13 -12 -1 -39 -16 -60 -34 l-38 -32 35 37 c25 27
49 40 80 46 31 6 37 9 18 10 -37 1 -78 -16 -109 -45 l-26 -24 5 30 c3 21 10
30 23 30 10 0 22 7 26 15 8 14 30 16 209 23 l51 2 -3 -92z m206 76 c0 -2 -7
-4 -15 -4 -8 0 -15 4 -15 10 0 5 7 7 15 4 8 -4 15 -8 15 -10z m30 6 c0 -5 -5
-10 -11 -10 -5 0 -7 5 -4 10 3 6 8 10 11 10 2 0 4 -4 4 -10z m45 0 c3 -5 -1
-10 -10 -10 -9 0 -13 5 -10 10 3 6 8 10 10 10 2 0 7 -4 10 -10z m-2452 -35
c-20 -27 -33 -32 -33 -12 0 10 18 23 48 36 2 0 -5 -10 -15 -24z m2332 17 c-6
-4 -22 -18 -37 -31 -26 -23 -28 -23 -28 -5 0 11 10 24 23 30 26 13 55 18 42 6z
m-2614 -29 c-8 -15 -10 -15 -11 -2 0 17 10 32 18 25 2 -3 -1 -13 -7 -23z
m1849 -8 c0 -22 -5 -35 -13 -35 -7 0 -19 -16 -26 -35 -14 -39 -31 -47 -31 -14
0 11 3 18 8 16 4 -3 7 11 7 31 0 23 4 36 12 35 6 -2 15 6 18 17 10 32 25 23
25 -15z m880 27 c0 -5 -13 -7 -30 -4 -47 7 -81 -6 -119 -46 -23 -24 -30 -28
-20 -12 27 42 77 70 125 70 24 0 44 -4 44 -8z m629 -19 c10 -19 9 -23 -4 -23
-10 0 -15 9 -15 27 0 29 2 29 19 -4z m101 2 c0 -16 -6 -25 -15 -25 -18 0 -18
5 -5 31 14 26 20 24 20 -6z m70 10 c0 -8 -2 -15 -4 -15 -2 0 -6 7 -10 15 -3 8
-1 15 4 15 6 0 10 -7 10 -15z m30 -1 c0 -8 -4 -12 -10 -9 -5 3 -10 10 -10 16
0 5 5 9 10 9 6 0 10 -7 10 -16z m188 -12 c3 -16 -1 -20 -12 -16 -19 7 -22 48
-3 42 6 -3 13 -14 15 -26z m92 3 c0 -11 -11 -15 -40 -15 -22 0 -40 4 -40 8 0
5 14 7 30 4 18 -3 30 0 30 7 0 6 5 11 10 11 6 0 10 -7 10 -15z m258 -11 c1
-17 -2 -22 -13 -18 -18 7 -20 41 -2 41 7 0 14 -11 15 -23z m232 -10 c0 -28 -3
-29 -24 -8 -23 22 -20 43 4 37 13 -3 20 -14 20 -29z m37 4 c0 -17 -6 -28 -14
-28 -8 0 -13 11 -13 28 0 17 5 29 13 29 8 0 14 -12 14 -29z m-2944 -62 l-6
-59 -14 36 c-8 19 -21 38 -28 41 -10 3 -8 -5 5 -27 11 -18 20 -49 20 -69 0
-21 4 -38 10 -38 5 0 7 -12 5 -27 -2 -16 -6 -66 -9 -113 -5 -93 -10 -116 -32
-124 -17 -7 -17 -11 1 110 21 142 20 225 -5 256 -11 14 -31 28 -45 30 -28 6
-61 -13 -51 -30 3 -6 1 -14 -5 -18 -8 -5 -10 -2 -5 7 4 8 0 5 -9 -6 -15 -19
-16 -19 -13 18 1 20 6 37 11 37 5 0 7 7 4 15 -5 10 4 16 31 20 20 4 55 10 77
14 56 11 66 -1 58 -73z m1412 -10 c8 -27 14 -50 12 -51 -1 -2 -13 -6 -27 -9
-17 -5 -21 -4 -11 2 9 7 12 20 7 43 -3 19 -7 42 -9 52 -1 9 -5 16 -8 15 -11
-5 -39 24 -33 34 11 18 54 -36 69 -86z m178 79 c4 -8 2 -17 -3 -20 -6 -4 -10
3 -10 14 0 25 6 27 13 6z m1037 -11 c0 -2 -7 -4 -15 -4 -8 0 -15 4 -15 10 0 5
7 7 15 4 8 -4 15 -8 15 -10z m363 -4 c4 -15 0 -20 -14 -20 -12 0 -19 7 -19 20
0 11 6 20 14 20 7 0 16 -9 19 -20z m1564 14 c-3 -3 -12 -4 -19 -1 -8 3 -5 6 6
6 11 1 17 -2 13 -5z m60 0 c-3 -3 -12 -4 -19 -1 -8 3 -5 6 6 6 11 1 17 -2 13
-5z m-3637 -65 c0 -12 -20 -12 -21 1 -1 6 -2 16 -3 23 -1 6 -7 11 -14 10 -7
-2 -12 5 -12 15 1 13 6 11 25 -11 14 -15 25 -32 25 -38z m2147 46 c0 -8 -4
-15 -9 -15 -10 0 -11 14 -1 23 9 10 10 9 10 -8z m1612 5 c-14 -4 -66 -10 -115
-13 -49 -3 -82 -4 -74 -1 22 6 150 21 185 22 30 0 30 0 4 -8z m-4958 -10 c6 0
6 -8 -1 -19 -5 -11 -10 -32 -11 -48 l-1 -28 -11 27 c-15 38 -62 43 -86 9 -10
-14 -21 -33 -24 -41 -3 -8 -5 8 -4 35 l2 50 50 11 c28 7 56 10 63 8 8 -2 18
-4 23 -4z m3293 2 c3 -5 -1 -9 -9 -9 -8 0 -12 4 -9 9 3 4 7 8 9 8 2 0 6 -4 9
-8z m903 -7 c0 -8 -4 -12 -9 -9 -5 3 -6 10 -3 15 9 13 12 11 12 -6z m-4383
-11 c8 -3 13 -11 11 -17 -2 -7 -6 -25 -10 -42 -6 -25 -8 -27 -16 -13 -13 24
-37 11 -48 -26 -8 -28 -9 -26 -10 25 -1 51 1 56 27 66 15 6 28 11 29 12 1 1 8
-2 17 -5z m3836 -16 c0 -19 -2 -20 -10 -8 -13 19 -13 30 0 30 6 0 10 -10 10
-22z m700 7 c0 -8 -2 -15 -4 -15 -2 0 -6 7 -10 15 -3 8 -1 15 4 15 6 0 10 -7
10 -15z m-1450 -15 c0 -11 -5 -20 -11 -20 -5 0 -7 5 -4 10 3 6 -1 10 -9 10 -8
0 -18 5 -21 10 -4 6 5 10 19 10 19 0 26 -5 26 -20z m430 10 c0 -5 -2 -10 -4
-10 -3 0 -8 5 -11 10 -3 6 -1 10 4 10 6 0 11 -4 11 -10z m-3225 -10 c-3 -5
-12 -10 -18 -10 -7 0 -6 4 3 10 19 12 23 12 15 0z m4315 -10 c0 -5 -7 -10 -15
-10 -8 0 -15 5 -15 10 0 6 7 10 15 10 8 0 15 -4 15 -10z m65 0 c4 -6 -5 -10
-19 -10 -14 0 -26 5 -26 10 0 6 9 10 19 10 11 0 23 -4 26 -10z m-4525 -10 c0
-5 -2 -10 -4 -10 -3 0 -8 5 -11 10 -3 6 -1 10 4 10 6 0 11 -4 11 -10z m1250
-30 c0 -16 -4 -30 -10 -30 -5 0 -10 14 -10 30 0 17 5 30 10 30 6 0 10 -13 10
-30z m3095 20 c-3 -5 -19 -10 -36 -10 -16 0 -29 5 -29 10 0 6 16 10 36 10 21
0 33 -4 29 -10z m-4656 -68 c-4 -26 -15 -99 -24 -162 -20 -135 -23 -150 -36
-150 -6 0 -7 4 -4 10 3 5 0 7 -8 4 -8 -3 -18 -1 -21 5 -11 17 37 321 50 321
12 0 7 -93 -5 -98 -4 -1 -5 -19 -3 -38 3 -22 0 -39 -8 -44 -9 -5 -8 -9 3 -13
11 -4 16 14 26 91 14 117 21 148 31 132 4 -6 3 -32 -1 -58z m1161 33 c0 -19
-4 -35 -8 -35 -4 0 -6 16 -4 35 2 19 6 35 8 35 2 0 4 -16 4 -35z m-303 -17
c-3 -8 -6 -5 -6 6 -1 11 2 17 5 13 3 -3 4 -12 1 -19z m83 -3 c0 -15 -6 -25
-14 -25 -11 0 -12 5 -3 25 15 31 17 31 17 0z m337 3 c-3 -8 -6 -5 -6 6 -1 11
2 17 5 13 3 -3 4 -12 1 -19z m-1120 -35 c-3 -10 -5 -2 -5 17 0 19 2 27 5 18 2
-10 2 -26 0 -35z m234 11 c-9 -28 -9 -29 -10 -3 -1 14 2 29 6 32 11 12 13 2 4
-29z m3366 -1 c-3 -10 -5 -4 -5 12 0 17 2 24 5 18 2 -7 2 -21 0 -30z m-3431
-55 c-16 -208 -19 -228 -32 -228 -8 0 -14 4 -14 8 0 9 29 204 35 237 2 11 4
28 4 38 1 9 3 17 6 17 4 0 4 -33 1 -72z m-119 40 c-3 -8 -6 -5 -6 6 -1 11 2
17 5 13 3 -3 4 -12 1 -19z m649 -80 c-9 -149 -17 -218 -27 -224 -5 -3 -9 -13
-9 -24 0 -20 -25 -34 -57 -31 -11 1 -24 -3 -28 -8 -3 -6 2 -11 12 -12 10 0 13
-3 6 -6 -7 -2 -13 -11 -13 -19 0 -8 -4 -14 -9 -14 -12 0 -24 37 -16 49 3 6
-12 12 -32 14 -31 3 -29 4 15 5 47 2 52 4 43 20 -8 15 -5 18 16 20 15 1 28 4
30 6 9 9 40 301 32 304 -19 7 -8 22 17 22 l26 0 -6 -102z m-769 60 c-3 -7 -5
-2 -5 12 0 14 2 19 5 13 2 -7 2 -19 0 -25z m2111 7 c-3 -3 -9 2 -12 12 -6 14
-5 15 5 6 7 -7 10 -15 7 -18z m1546 3 c8 -31 7 -38 -3 -38 -5 0 -11 14 -13 30
-5 35 7 41 16 8z m973 -13 c-1 -32 -17 -52 -17 -21 0 17 -24 28 -45 20 -8 -4
-15 -1 -15 5 0 6 -5 11 -11 11 -6 0 -9 -7 -5 -15 7 -20 -18 -20 -38 0 -13 14
-16 13 -24 -1 -9 -16 -11 -15 -21 4 -10 20 -8 21 36 25 27 2 69 4 95 5 l46 2
-1 -35z m-207 6 c-11 -22 -28 -30 -52 -23 -30 8 -21 31 12 30 17 -1 33 2 37 5
12 13 14 7 3 -12z m-3583 -83 c-2 -18 -4 -4 -4 32 0 36 2 50 4 33 2 -18 2 -48
0 -65z m-920 45 c-3 -10 -5 -4 -5 12 0 17 2 24 5 18 2 -7 2 -21 0 -30z m145 2
c-2 -19 -6 -35 -8 -35 -2 0 -4 16 -4 35 0 19 4 35 8 35 4 0 6 -16 4 -35z
m2070 -16 c9 -19 15 -40 13 -46 -2 -7 0 -13 5 -13 11 0 10 -59 -2 -66 -14 -9
2 -24 25 -24 18 0 26 -10 39 -45 10 -25 16 -45 14 -45 -2 0 -17 7 -32 15 -32
17 -58 20 -50 6 3 -5 -3 -11 -14 -14 -14 -4 -23 3 -32 24 -7 16 -21 32 -32 35
-14 5 -16 8 -5 14 7 5 17 6 21 4 7 -4 11 75 11 179 -1 27 20 15 39 -24z
m-1853 -83 c-9 -8 -10 -7 -5 7 3 10 7 35 8 55 1 35 2 35 5 -7 3 -26 -1 -48 -8
-55z m-292 42 c-3 -8 -6 -5 -6 6 -1 11 2 17 5 13 3 -3 4 -12 1 -19z m63 -51
c-3 -34 -5 -78 -5 -98 1 -27 -3 -35 -17 -35 -11 0 -16 6 -14 13 3 7 11 51 17
98 14 99 27 114 19 22z m45 -14 c-3 -24 -9 -43 -11 -40 -3 3 -2 29 2 58 4 30
9 48 12 41 2 -7 1 -34 -3 -59z m-188 15 c-3 -8 -6 -5 -6 6 -1 11 2 17 5 13 3
-3 4 -12 1 -19z m70 -25 c-3 -10 -5 -4 -5 12 0 17 2 24 5 18 2 -7 2 -21 0 -30z
m850 -5 c-3 -8 -6 -5 -6 6 -1 11 2 17 5 13 3 -3 4 -12 1 -19z m-547 3 c0 -24
-13 -71 -20 -71 -4 0 -4 16 0 34 4 19 5 37 2 40 -3 4 0 6 6 6 7 0 12 -4 12 -9z
m3410 -6 c0 -8 -4 -15 -10 -15 -5 0 -10 7 -10 15 0 8 5 15 10 15 6 0 10 -7 10
-15z m-3730 -82 c-11 -17 -11 -17 -6 0 3 10 7 31 7 45 l2 27 4 -27 c2 -15 -1
-35 -7 -45z m1214 16 c-4 -13 -7 -28 -6 -32 1 -5 -2 -6 -8 -2 -11 7 -14 58 -3
69 13 13 25 -12 17 -35z m416 22 c0 -24 -11 -32 -28 -22 -16 10 -5 41 14 41 8
0 14 -9 14 -19z m2101 2 c0 -15 2 -15 9 2 6 13 9 15 9 5 0 -8 -6 -24 -14 -34
-15 -19 -15 -19 -15 3 0 12 -4 20 -9 16 -5 -3 -13 0 -17 6 -4 8 -3 9 4 5 7 -4
12 -2 12 3 0 19 20 12 21 -6z m-3599 -18 c-2 -14 -10 -25 -17 -25 -8 0 -10 9
-7 25 2 14 10 25 17 25 8 0 10 -9 7 -25z m2838 5 c0 -18 -7 -20 -65 -20 -58 0
-65 2 -65 20 0 18 7 20 65 20 58 0 65 -2 65 -20z m110 13 c-1 -16 -46 -40 -70
-38 -17 1 -26 8 -28 23 -3 20 1 22 47 22 28 0 51 -3 51 -7z m1788 -24 c-1 -20
-6 -27 -18 -26 -24 2 -22 53 2 53 12 0 16 -8 16 -27z m-4941 -11 c-3 -7 -5 -2
-5 12 0 14 2 19 5 13 2 -7 2 -19 0 -25z m4988 22 c3 -5 -3 -10 -14 -10 -12 0
-21 5 -21 10 0 6 6 10 14 10 8 0 18 -4 21 -10z m50 0 c3 -5 -3 -10 -14 -10
-12 0 -21 5 -21 10 0 6 6 10 14 10 8 0 18 -4 21 -10z m-5435 -10 c0 -5 -5 -10
-11 -10 -5 0 -7 5 -4 10 3 6 8 10 11 10 2 0 4 -4 4 -10z m4180 -15 c0 -8 -2
-15 -4 -15 -2 0 -6 7 -10 15 -3 8 -1 15 4 15 6 0 10 -7 10 -15z m-2723 -46
c-14 -20 -15 -19 -14 14 1 29 3 32 15 21 11 -12 11 -17 -1 -35z m833 41 c0 -5
-5 -10 -11 -10 -8 0 -7 -6 2 -17 8 -9 9 -14 2 -10 -6 4 -13 4 -16 0 -2 -5 -2
-2 -1 5 2 6 -4 12 -12 12 -8 0 -12 5 -9 10 4 6 11 8 16 5 5 -4 9 -1 9 4 0 6 5
11 10 11 6 0 10 -4 10 -10z m3095 0 c3 -5 -1 -10 -9 -10 -8 0 -18 5 -21 10 -3
6 1 10 9 10 8 0 18 -4 21 -10z m-3530 -40 c-3 -6 -10 -10 -16 -10 -10 0 -12
33 -2 44 9 9 26 -22 18 -34z m45 30 c8 -5 11 -10 5 -10 -5 0 -17 5 -25 10 -8
5 -10 10 -5 10 6 0 17 -5 25 -10z m440 -18 c0 -15 -2 -15 -10 -2 -13 20 -13
33 0 25 6 -3 10 -14 10 -23z m637 -9 c-3 -10 -5 -4 -5 12 0 17 2 24 5 18 2 -7
2 -21 0 -30z m303 33 c0 -2 -7 -7 -16 -10 -8 -3 -12 -2 -9 4 6 10 25 14 25 6z
m1594 -4 c-6 -4 -14 -14 -17 -22 -4 -10 -6 -8 -6 8 -1 15 5 22 17 22 10 0 13
-3 6 -8z m-2342 -34 c-7 -7 -10 -5 -7 8 5 29 6 30 12 16 3 -8 1 -18 -5 -24z
m345 21 c-14 -8 -18 -22 -16 -62 3 -64 -7 -92 -27 -76 -8 6 -12 15 -9 19 3 4
-2 24 -10 44 -17 41 -19 60 -5 51 6 -4 7 -12 4 -18 -4 -7 7 3 24 21 17 17 37
32 44 32 8 0 6 -5 -5 -11z m523 -35 c0 -40 -2 -44 -15 -30 -8 8 -25 18 -36 21
-17 6 -18 9 -8 16 7 4 18 4 25 -2 8 -6 14 -4 18 7 4 10 1 21 -6 26 -10 6 -8 8
5 8 14 0 17 -9 17 -46z m220 32 c0 -19 -31 -29 -44 -15 -8 9 -8 10 2 5 7 -4
12 -1 12 8 0 9 7 16 15 16 8 0 15 -6 15 -14z m-3158 -38 c-6 -6 -7 0 -4 19 5
21 7 23 10 9 2 -10 0 -22 -6 -28z m2773 33 c-3 -5 -2 -12 3 -15 5 -3 7 -19 4
-35 -2 -17 -8 -28 -13 -25 -10 6 -12 67 -2 77 9 10 15 8 8 -2z m238 -11 c-3
-11 -9 -17 -15 -14 -5 3 -4 12 3 20 16 19 18 18 12 -6z m404 -2 c-3 -8 -6 -5
-6 6 -1 11 2 17 5 13 3 -3 4 -12 1 -19z m647 -20 c6 2 7 0 3 -5 -12 -11 -41
-10 -49 2 -4 6 -8 19 -8 30 1 18 2 18 22 -5 11 -14 26 -23 32 -22z m-4839 22
c3 -5 -1 -10 -10 -10 -9 0 -13 5 -10 10 3 6 8 10 10 10 2 0 7 -4 10 -10z m330
0 c3 -6 -1 -7 -9 -4 -18 7 -21 14 -7 14 6 0 13 -4 16 -10z m1725 -16 c-7 -16
-7 -23 0 -19 14 9 12 -7 -3 -27 -7 -9 -25 -20 -40 -23 -25 -7 -27 -5 -27 25 0
47 16 70 50 70 28 0 29 -2 20 -26z m2415 16 c4 -6 11 -8 16 -5 8 5 29 -34 29
-54 0 -4 -16 -7 -35 -7 -34 0 -35 1 -35 38 0 36 12 49 25 28z m905 -21 c0 -11
-4 -17 -10 -14 -5 3 -10 15 -10 26 0 11 5 17 10 14 6 -3 10 -15 10 -26z m50
21 c0 -5 -4 -10 -10 -10 -5 0 -10 5 -10 10 0 6 5 10 10 10 6 0 10 -4 10 -10z
m37 4 c-3 -3 -12 -4 -19 -1 -8 3 -5 6 6 6 11 1 17 -2 13 -5z m-5191 -30 c-4
-9 -9 -15 -11 -12 -3 3 -3 13 1 22 4 9 9 15 11 12 3 -3 3 -13 -1 -22z m579 -3
c-6 -5 -25 10 -25 20 0 5 6 4 14 -3 8 -7 12 -15 11 -17z m3582 -3 c-3 -8 -6
-5 -6 6 -1 11 2 17 5 13 3 -3 4 -12 1 -19z m595 4 c-7 -2 -12 -23 -12 -55 0
-64 -5 -58 -14 15 -6 54 -5 56 16 50 12 -3 17 -7 10 -10z m-4698 -8 c5 -14 4
-15 -9 -4 -17 14 -19 20 -6 20 5 0 12 -7 15 -16z m210 1 c-4 -8 -8 -15 -10
-15 -2 0 -4 7 -4 15 0 8 4 15 10 15 5 0 7 -7 4 -15z m3469 5 c9 0 17 -4 17 -9
0 -13 -59 -11 -67 2 -3 5 -8 5 -13 -2 -4 -7 -14 -9 -26 -4 -17 6 -17 8 6 14
14 4 34 6 45 3 11 -2 28 -4 38 -4z m165 0 c17 0 32 -4 32 -10 0 -5 -25 -10
-55 -10 -44 0 -55 3 -55 16 0 12 6 15 23 10 12 -3 37 -6 55 -6z m-3678 -14 c8
-2 -9 -4 -37 -5 -29 0 -53 3 -53 7 0 7 52 6 90 -2z m4673 -29 c-4 -19 -8 -25
-13 -16 -5 7 -3 20 3 30 15 23 16 20 10 -14z m-2703 13 c0 -5 -5 -10 -11 -10
-5 0 -7 5 -4 10 3 6 8 10 11 10 2 0 4 -4 4 -10z m2914 -6 c3 -8 2 -12 -4 -9
-6 3 -10 10 -10 16 0 14 7 11 14 -7z m786 -5 c0 -6 -4 -7 -10 -4 -5 3 -10 11
-10 16 0 6 5 7 10 4 6 -3 10 -11 10 -16z m-3142 -25 c-22 -22 -51 -23 -70 -2
-17 17 -17 18 21 18 22 0 43 5 47 12 6 9 9 9 12 -1 2 -7 -2 -19 -10 -27z m441
-14 c12 -8 9 -9 -11 -4 -19 4 -28 2 -28 -6 0 -9 -12 -11 -45 -7 -27 4 -45 3
-45 -3 0 -6 12 -10 28 -11 26 0 26 -1 5 -9 -13 -5 -23 -17 -23 -26 0 -11 5
-14 18 -9 26 11 151 22 146 13 -3 -4 -13 -8 -23 -8 -35 0 -71 -39 -71 -76 0
-26 -4 -34 -18 -34 -20 0 -64 29 -44 30 6 0 12 9 12 20 0 15 -7 20 -25 20 -14
0 -24 5 -22 12 1 6 -7 14 -18 16 -11 2 -24 10 -28 18 -4 8 -17 14 -27 14 -11
0 -20 6 -20 14 0 8 -3 21 -6 30 -4 11 -1 16 10 16 9 0 16 4 16 8 0 10 199 -6
219 -18z m2657 22 c6 -4 13 -15 17 -24 9 -24 -21 -31 -33 -8 -8 14 -21 20 -45
20 -30 0 -35 -3 -35 -24 0 -14 -5 -28 -11 -32 -15 -9 -29 14 -29 49 0 27 1 27
63 27 34 0 67 -4 73 -8z m-3303 -42 c-16 -28 -43 -41 -43 -21 0 9 47 51 57 51
2 0 -4 -13 -14 -30z m94 24 c-3 -3 -12 -4 -19 -1 -8 3 -5 6 6 6 11 1 17 -2 13
-5z m-327 -18 c0 -7 -96 -56 -177 -90 -34 -14 -108 -48 -164 -76 -56 -27 -108
-50 -116 -50 -7 0 -36 -11 -63 -25 -45 -23 -50 -24 -77 -9 -26 14 -27 15 -4
12 14 -2 26 3 29 11 5 14 3 14 -80 -4 -10 -2 -20 0 -23 6 -4 5 5 9 19 9 14 0
26 6 26 13 0 9 2 9 9 -1 7 -11 9 -11 14 2 4 9 12 16 19 16 9 0 8 -3 -2 -10
-13 -8 -12 -10 3 -10 9 0 17 7 17 16 0 13 3 14 14 5 9 -7 17 -8 20 -2 3 5 0
11 -6 14 -7 2 -11 7 -8 10 3 3 12 2 20 -4 13 -8 12 -12 -5 -27 -22 -20 -30
-42 -15 -42 6 0 16 11 22 25 8 18 19 25 40 25 25 0 27 2 18 19 -6 13 -7 22 0
26 5 3 7 12 3 21 -4 11 0 14 21 10 15 -3 24 -1 21 5 -4 5 -1 9 4 9 6 0 11 9
11 19 0 21 61 48 80 36 6 -3 12 0 15 7 3 8 18 15 33 16 15 1 28 6 30 10 3 9
252 17 252 8z m540 -11 c-11 -13 -8 -15 16 -16 29 0 29 0 5 -10 -18 -7 -30 -5
-47 6 -33 21 -30 35 7 35 27 0 30 -2 19 -15z m1517 -22 c-3 -10 -5 -4 -5 12 0
17 2 24 5 18 2 -7 2 -21 0 -30z m43 -7 c0 -3 -7 -6 -15 -6 -9 0 -15 9 -15 21
0 18 2 19 15 5 8 -8 15 -17 15 -20z m1527 19 c8 -9 13 -18 11 -21 -9 -9 -38 8
-38 22 0 18 8 18 27 -1z m-47 -5 c0 -5 -2 -10 -4 -10 -3 0 -8 5 -11 10 -3 6
-1 10 4 10 6 0 11 -4 11 -10z m-2452 -7 c-16 -2 -40 -2 -55 0 -16 2 -3 4 27 4
30 0 43 -2 28 -4z m94 -3 c2 -5 21 -12 43 -13 22 -2 48 -7 58 -10 9 -4 25 -10
35 -13 15 -6 -81 -28 -158 -36 -14 -2 -27 -6 -30 -9 -3 -4 -27 -14 -55 -21
l-50 -15 -3 -62 c-2 -45 -7 -61 -17 -61 -8 0 -15 4 -15 8 0 10 -80 48 -93 44
-4 -1 -10 6 -14 15 -7 19 -22 33 -36 33 -5 0 -5 -5 -1 -12 5 -7 3 -8 -6 -3
-10 6 -8 12 9 27 13 10 20 18 17 18 -4 0 0 13 8 28 19 36 100 63 216 70 55 3
78 8 65 13 -19 7 -19 8 2 8 12 1 23 -3 25 -9z m795 4 c-3 -3 -12 -4 -19 -1 -8
3 -5 6 6 6 11 1 17 -2 13 -5z m-1044 -11 c-7 -2 -19 -2 -25 0 -7 3 -2 5 12 5
14 0 19 -2 13 -5z m2504 -9 c-3 -3 -12 -4 -19 -1 -8 3 -5 6 6 6 11 1 17 -2 13
-5z m-1420 -10 c-3 -3 -12 -4 -19 -1 -8 3 -5 6 6 6 11 1 17 -2 13 -5z m-1469
-11 c-10 -2 -26 -2 -35 0 -10 3 -2 5 17 5 19 0 27 -2 18 -5z m49 1 c-3 -3 -12
-4 -19 -1 -8 3 -5 6 6 6 11 1 17 -2 13 -5z m1080 -11 c6 4 8 -4 6 -17 -4 -17
-13 -25 -32 -28 -22 -3 -27 0 -29 19 -1 15 4 23 13 23 8 0 15 6 15 13 0 9 3 8
9 -2 5 -7 13 -11 18 -8z m393 7 c0 -5 -7 -10 -15 -10 -8 0 -15 5 -15 10 0 6 7
10 15 10 8 0 15 -4 15 -10z m40 -5 c0 -9 -6 -12 -15 -9 -8 4 -15 10 -15 15 0
5 7 9 15 9 8 0 15 -7 15 -15z m-2118 -12 c-6 -3 -10 -8 -7 -13 3 -4 -2 -11
-11 -14 -10 -4 -13 -2 -8 7 15 26 27 37 33 31 3 -4 0 -9 -7 -11z m1945 -5 c2
-18 0 -20 -7 -8 -12 18 -13 30 -2 30 4 0 9 -10 9 -22z m43 2 c0 -11 -4 -20 -9
-20 -5 0 -7 9 -4 20 3 11 7 20 9 20 2 0 4 -9 4 -20z m37 14 c-3 -3 -12 -4 -19
-1 -8 3 -5 6 6 6 11 1 17 -2 13 -5z m243 -4 c0 -13 -11 -13 -30 0 -12 8 -11
10 8 10 12 0 22 -4 22 -10z m-2780 -4 c0 -2 -7 -9 -15 -16 -13 -11 -14 -10 -9
4 5 14 24 23 24 12z m2355 -21 c288 -41 515 -89 515 -108 0 -5 -8 -6 -17 -2
-10 4 -43 9 -73 11 -30 3 -72 10 -94 15 -21 6 -41 8 -44 5 -3 -3 -12 0 -20 7
-11 9 -16 9 -19 0 -3 -8 -14 -8 -37 -2 -18 5 -47 7 -65 5 -17 -2 -34 1 -37 5
-3 5 -14 4 -25 -1 -15 -9 -19 -7 -20 7 -1 15 -2 15 -6 2 -3 -11 -12 -15 -28
-11 -14 2 -25 8 -25 13 0 5 -6 9 -14 9 -8 0 -16 3 -19 8 -2 4 -2 1 -1 -5 2 -7
-3 -13 -11 -13 -8 0 -15 -6 -15 -12 0 -9 -4 -8 -10 2 -5 8 -10 11 -10 5 0 -5
-8 -1 -16 10 -14 18 -16 19 -28 3 -12 -16 -71 -14 -61 2 3 5 17 7 30 4 14 -2
25 0 25 6 0 5 -4 10 -10 10 -5 0 -10 9 -10 20 0 24 9 24 145 5z m532 -7 c-3
-8 -6 -5 -6 6 -1 11 2 17 5 13 3 -3 4 -12 1 -19z m-1699 5 c-10 -2 -26 -2 -35
0 -10 3 -2 5 17 5 19 0 27 -2 18 -5z m-1188 -13 c0 -5 -8 -10 -17 -10 -15 0
-16 2 -3 10 19 12 20 12 20 0z m2687 -22 c-3 -7 -5 -2 -5 12 0 14 2 19 5 13 2
-7 2 -19 0 -25z m-557 0 c0 -3 8 -9 18 -11 9 -3 -16 -4 -55 -3 -77 3 -104 10
-51 14 18 2 34 4 36 6 6 7 52 1 52 -6z m-183 -4 c-10 -10 -97 -12 -97 -3 0 5
23 9 52 9 28 0 49 -3 45 -6z m-1947 -14 c0 -5 -4 -10 -9 -10 -6 0 -13 5 -16
10 -3 6 1 10 9 10 9 0 16 -4 16 -10z m1170 -12 c0 -4 -4 -8 -9 -8 -6 0 -12 4
-15 8 -3 5 1 9 9 9 8 0 15 -4 15 -9z m-1370 -12 c0 -2 -7 -7 -16 -10 -8 -3
-12 -2 -9 4 6 10 25 14 25 6z m3136 -31 c-3 -8 -1 -15 3 -15 5 0 11 6 14 13 3
6 5 2 4 -9 -1 -19 -4 -21 -32 -11 -40 13 -53 26 -21 20 15 -3 26 -1 26 6 0 6
3 11 6 11 3 0 4 -7 0 -15z m54 1 c0 -3 -4 -8 -10 -11 -5 -3 -10 -1 -10 4 0 6
5 11 10 11 6 0 10 -2 10 -4z m-3266 -14 c3 -5 -1 -9 -9 -9 -8 0 -12 4 -9 9 3
4 7 8 9 8 2 0 6 -4 9 -8z m94 -31 c-7 -9 -14 -18 -15 -20 -2 -2 -3 5 -3 16 0
11 7 20 15 20 12 0 12 -3 3 -16z m1609 13 c-3 -3 -12 -4 -19 -1 -8 3 -5 6 6 6
11 1 17 -2 13 -5z m-1667 -8 c0 -3 -4 -8 -10 -11 -5 -3 -10 -1 -10 4 0 6 5 11
10 11 6 0 10 -2 10 -4z m125 -5 c3 -5 0 -13 -6 -17 -8 -5 -9 -3 -4 6 6 10 4
12 -8 7 -10 -3 -17 -2 -17 3 0 13 27 13 35 1z m-165 -5 c0 -3 -4 -8 -10 -11
-5 -3 -10 -1 -10 4 0 6 5 11 10 11 6 0 10 -2 10 -4z m3677 -22 c-3 -3 -12 -4
-19 -1 -8 3 -5 6 6 6 11 1 17 -2 13 -5z"/>
<path d="M1796 3295 c4 -8 10 -15 15 -15 5 0 9 7 9 15 0 8 -7 15 -15 15 -9 0
-12 -6 -9 -15z"/>
<path d="M1861 2898 c-15 -24 -14 -31 4 -24 20 7 19 -4 -2 -20 -17 -12 -16
-13 7 -14 23 0 67 19 45 20 -5 0 -4 4 4 9 20 13 7 37 -22 43 -16 3 -28 -1 -36
-14z"/>
<path d="M1860 2809 c0 -5 5 -7 10 -4 6 3 10 8 10 11 0 2 -4 4 -10 4 -5 0 -10
-5 -10 -11z"/>
<path d="M1750 2718 c0 -23 3 -29 9 -19 8 12 4 51 -5 51 -2 0 -4 -15 -4 -32z"/>
<path d="M1770 2650 c-18 -12 -2 -12 25 0 13 6 15 9 5 9 -8 0 -22 -4 -30 -9z"/>
<path d="M1710 2540 c-18 -12 -2 -12 25 0 13 6 15 9 5 9 -8 0 -22 -4 -30 -9z"/>
<path d="M1353 2683 c-7 -2 -13 -11 -13 -19 0 -8 6 -11 15 -8 11 4 13 2 9 -9
-3 -8 -1 -18 4 -21 12 -7 23 30 15 50 -5 15 -10 16 -30 7z"/>
<path d="M1303 2664 c4 -4 -1 -13 -11 -20 -16 -13 -16 -13 0 -14 11 0 15 -5
12 -14 -6 -16 22 -30 32 -15 10 16 -4 56 -23 63 -10 4 -14 4 -10 0z"/>
<path d="M1403 2551 c-10 -15 -9 -22 2 -31 13 -11 15 -7 15 19 0 36 -1 37 -17
12z"/>
<path d="M1350 2520 c0 -5 5 -10 10 -10 6 0 10 5 10 10 0 6 -4 10 -10 10 -5 0
-10 -4 -10 -10z"/>
<path d="M1995 2700 c-3 -6 1 -7 9 -4 18 7 21 14 7 14 -6 0 -13 -4 -16 -10z"/>
<path d="M2020 2569 c0 -5 5 -7 10 -4 6 3 10 8 10 11 0 2 -4 4 -10 4 -5 0 -10
-5 -10 -11z"/>
<path d="M1990 2559 c0 -5 5 -7 10 -4 6 3 10 8 10 11 0 2 -4 4 -10 4 -5 0 -10
-5 -10 -11z"/>
<path d="M1728 2373 c7 -3 16 -2 19 1 4 3 -2 6 -13 5 -11 0 -14 -3 -6 -6z"/>
<path d="M1568 2343 c-27 -8 -48 -18 -48 -22 0 -7 81 15 99 26 15 10 -11 7
-51 -4z"/>
<path d="M1480 2310 c-9 -6 -10 -10 -3 -10 6 0 15 5 18 10 8 12 4 12 -15 0z"/>
<path d="M1810 2300 c0 -5 5 -10 11 -10 5 0 7 5 4 10 -3 6 -8 10 -11 10 -2 0
-4 -4 -4 -10z"/>
<path d="M1842 2240 c0 -14 2 -19 5 -12 2 6 2 18 0 25 -3 6 -5 1 -5 -13z"/>
<path d="M1765 1940 c-11 -5 -15 -9 -8 -9 7 -1 10 -9 7 -18 -5 -15 -3 -15 10
1 9 11 16 23 16 28 0 9 1 9 -25 -2z"/>
<path d="M1375 2260 c-33 -22 -29 -26 10 -8 14 6 25 15 25 20 0 11 -1 11 -35
-12z"/>
<path d="M3517 1933 c-10 -9 -9 -23 2 -23 5 0 11 7 15 15 5 15 -5 20 -17 8z"/>
<path d="M1868 1803 c6 -2 18 -2 25 0 6 3 1 5 -13 5 -14 0 -19 -2 -12 -5z"/>
<path d="M1798 1793 c6 -2 18 -2 25 0 6 3 1 5 -13 5 -14 0 -19 -2 -12 -5z"/>
<path d="M1758 1783 c7 -3 16 -2 19 1 4 3 -2 6 -13 5 -11 0 -14 -3 -6 -6z"/>
<path d="M1715 1749 c-16 -5 -48 -11 -70 -14 -77 -11 -98 -17 -119 -38 -18
-17 -18 -19 -3 -14 15 6 17 2 13 -26 -3 -17 -8 -54 -11 -82 -5 -50 -12 -90
-15 -90 -1 0 -3 -10 -4 -22 -2 -18 0 -20 11 -12 7 6 13 10 13 8 0 -2 -7 -40
-16 -84 -8 -44 -18 -110 -21 -147 -3 -38 -10 -68 -16 -68 -6 0 -8 -3 -5 -6 3
-3 25 0 48 7 l42 13 -6 74 c-8 85 2 212 16 212 6 0 7 -16 4 -37 -3 -21 -8 -64
-12 -97 l-7 -59 78 8 c43 4 86 12 95 18 13 8 19 36 27 126 6 72 7 118 1 122
-5 3 0 9 12 12 20 5 21 10 15 48 -4 25 -16 50 -29 61 -31 26 -39 22 -11 -7 14
-13 25 -34 25 -47 -1 -20 -3 -19 -15 9 -7 17 -23 34 -34 38 -12 3 -21 11 -21
16 0 13 -18 11 -36 -3 -41 -33 -64 -63 -64 -82 0 -34 -20 -96 -31 -96 -6 0 -7
5 -3 11 4 7 8 44 10 83 5 91 17 114 63 121 79 13 136 28 143 39 5 8 8 7 8 -2
0 -7 5 -10 11 -6 8 4 7 9 -2 15 -17 11 -45 10 -84 -2z"/>
<path d="M1423 1609 c-44 -16 -69 -76 -83 -204 -5 -44 -12 -102 -16 -129 l-7
-49 57 7 c81 9 92 24 104 138 12 120 14 185 7 209 -9 26 -35 38 -62 28z"/>
<path d="M1501 1594 c0 -11 3 -14 6 -6 3 7 2 16 -1 19 -3 4 -6 -2 -5 -13z"/>
<path d="M1700 1230 c0 -5 5 -10 10 -10 6 0 10 5 10 10 0 6 -4 10 -10 10 -5 0
-10 -4 -10 -10z"/>
<path d="M1408 1143 c6 -2 18 -2 25 0 6 3 1 5 -13 5 -14 0 -19 -2 -12 -5z"/>
<path d="M4310 1680 c0 -5 7 -10 15 -10 8 0 15 5 15 10 0 6 -7 10 -15 10 -8 0
-15 -4 -15 -10z"/>
<path d="M4038 1648 c7 -7 12 -20 12 -29 0 -10 4 -20 9 -24 5 -3 9 10 8 30 -2
27 -6 35 -21 35 -16 0 -17 -3 -8 -12z"/>
<path d="M4310 1650 c0 -5 7 -10 15 -10 8 0 15 5 15 10 0 6 -7 10 -15 10 -8 0
-15 -4 -15 -10z"/>
<path d="M4320 1615 c0 -8 5 -15 10 -15 6 0 10 7 10 15 0 8 -4 15 -10 15 -5 0
-10 -7 -10 -15z"/>
<path d="M4460 1575 c-10 -13 -9 -15 9 -15 12 0 21 -6 21 -14 0 -22 19 -30 26
-11 6 15 -21 55 -36 55 -4 0 -13 -7 -20 -15z"/>
<path d="M1180 1150 c0 -5 5 -10 10 -10 6 0 10 5 10 10 0 6 -4 10 -10 10 -5 0
-10 -4 -10 -10z"/>
<path d="M4640 1540 c0 -5 5 -10 10 -10 6 0 10 5 10 10 0 6 -4 10 -10 10 -5 0
-10 -4 -10 -10z"/>
<path d="M4680 1529 c0 -5 9 -9 20 -9 11 0 20 4 20 8 0 4 -9 8 -20 9 -11 1
-20 -2 -20 -8z"/>
<path d="M4598 1103 c6 -2 18 -2 25 0 6 3 1 5 -13 5 -14 0 -19 -2 -12 -5z"/>
<path d="M1916 1271 c-3 -4 0 -13 5 -21 8 -12 12 -12 16 -2 2 6 14 12 24 12
11 0 17 -4 14 -10 -3 -5 1 -10 9 -10 17 0 20 9 8 25 -8 12 -70 16 -76 6z"/>
<path d="M2010 1262 c0 -5 7 -13 16 -16 10 -4 14 -1 12 6 -5 15 -28 23 -28 10z"/>
<path d="M2088 1203 c6 -2 18 -2 25 0 6 3 1 5 -13 5 -14 0 -19 -2 -12 -5z"/>
<path d="M1670 1080 c-23 -7 -23 -8 -3 -9 12 -1 25 4 28 9 3 6 5 10 3 9 -2 -1
-14 -5 -28 -9z"/>
<path d="M1753 1083 c9 -2 23 -2 30 0 6 3 -1 5 -18 5 -16 0 -22 -2 -12 -5z"/>
<path d="M1508 1063 c7 -3 16 -2 19 1 4 3 -2 6 -13 5 -11 0 -14 -3 -6 -6z"/>
<path d="M1428 1053 c12 -2 30 -2 40 0 9 3 -1 5 -23 4 -22 0 -30 -2 -17 -4z"/>
<path d="M1128 1013 c7 -3 16 -2 19 1 4 3 -2 6 -13 5 -11 0 -14 -3 -6 -6z"/>
<path d="M831 640 c-1 -8 -4 -33 -6 -55 l-4 -40 10 34 c6 18 8 43 6 55 -2 11
-5 14 -6 6z"/>
<path d="M4640 451 c0 -6 4 -13 10 -16 6 -3 7 1 4 9 -7 18 -14 21 -14 7z"/>
<path d="M2335 240 c3 -5 8 -10 11 -10 2 0 4 5 4 10 0 6 -5 10 -11 10 -5 0 -7
-4 -4 -10z"/>
<path d="M2296 225 c-3 -8 -1 -15 4 -15 6 0 10 7 10 15 0 8 -2 15 -4 15 -2 0
-6 -7 -10 -15z"/>
<path d="M3926 292 c-3 -5 8 -6 25 -4 16 2 29 6 29 8 0 8 -49 4 -54 -4z"/>
<path d="M4854 3723 c2 -25 5 -28 36 -26 34 1 34 1 15 -15 -25 -20 -30 -61 -9
-69 13 -5 13 -8 1 -22 -27 -31 -27 -49 0 -55 13 -4 34 -4 46 0 34 11 97 56 92
65 -3 4 -1 10 5 14 5 3 10 1 10 -6 0 -7 7 -4 16 7 8 10 12 12 8 4 -5 -10 0 -9
14 4 12 11 20 21 17 24 -3 3 5 10 18 17 13 6 22 20 21 33 0 14 5 22 17 22 9 0
19 7 23 15 5 13 -18 15 -164 15 l-169 0 3 -27z"/>
<path d="M5690 3740 c-8 -5 -12 -12 -9 -15 4 -3 12 1 19 10 14 17 11 19 -10 5z"/>
<path d="M5695 3708 c-22 -23 -40 -46 -40 -51 0 -5 -11 -17 -25 -26 -24 -15
-24 -15 -11 2 17 21 3 22 -27 1 -12 -8 -19 -20 -16 -26 5 -7 2 -8 -6 -3 -8 5
-18 1 -27 -10 -7 -11 -13 -15 -13 -10 0 5 -16 -6 -35 -25 -39 -38 -46 -57 -15
-40 11 6 20 7 20 1 0 -9 -47 -26 -66 -22 -6 0 -18 -6 -25 -16 -12 -15 -12 -16
6 -10 27 10 -32 -40 -63 -53 -30 -13 -18 -33 16 -27 37 7 56 -2 41 -19 -13
-16 -33 -19 -24 -4 4 6 -17 1 -46 -10 -73 -29 -90 -40 -84 -51 4 -5 2 -9 -2
-9 -12 0 -48 -61 -49 -84 -2 -21 -22 -36 -40 -29 -7 2 -26 -3 -43 -12 -32 -16
-42 -29 -15 -18 11 4 15 1 12 -13 -3 -20 2 -21 40 -9 16 5 22 2 22 -9 0 -13 5
-14 28 -5 45 18 60 18 66 3 3 -9 11 -12 16 -9 8 5 8 11 0 20 -12 14 4 20 90
29 58 7 114 18 132 27 10 6 26 4 43 -5 15 -8 33 -13 39 -11 6 2 29 7 51 10 67
10 160 33 216 55 30 11 68 20 84 20 25 -1 19 -5 -35 -27 -36 -14 -67 -30 -70
-34 -3 -4 -32 -18 -65 -30 -45 -17 -55 -24 -41 -29 22 -7 4 -14 -199 -81 -158
-51 -260 -90 -340 -129 -33 -16 -102 -48 -152 -71 -51 -23 -93 -48 -93 -54 0
-23 -36 -43 -90 -50 -70 -9 -74 -12 -56 -40 9 -14 12 -26 6 -30 -5 -3 -14 3
-19 14 -20 36 -91 39 -91 4 0 -10 -6 -14 -20 -10 -11 3 -20 1 -20 -4 0 -5 5
-9 11 -9 5 0 7 -4 4 -10 -3 -5 -1 -10 5 -10 6 0 16 11 22 25 10 22 16 25 42
19 44 -9 46 -11 46 -49 0 -33 1 -34 26 -25 36 14 52 12 32 -4 -20 -15 -14 -26
16 -27 19 0 18 -1 -4 -11 -14 -6 -68 -25 -120 -43 -52 -18 -93 -37 -91 -42 3
-4 -8 -10 -24 -13 -43 -8 -44 -30 -2 -30 20 0 44 -3 54 -6 15 -5 15 -4 3 5
-12 8 -4 11 31 11 30 0 49 5 52 14 3 7 24 16 47 20 29 4 39 10 34 19 -5 7 -2
7 9 -2 10 -8 20 -11 24 -7 3 3 0 6 -8 6 -10 1 -8 5 5 15 19 15 19 15 -4 15
-34 0 -13 16 32 24 21 4 39 2 43 -4 3 -5 24 -10 46 -10 21 0 39 -5 39 -11 0
-5 5 -7 12 -3 7 5 9 2 5 -9 -4 -11 -2 -14 9 -10 8 3 21 0 28 -6 11 -9 35 -9
101 0 47 6 102 8 120 5 21 -4 44 -2 57 6 13 6 30 11 39 10 8 -2 32 9 53 23 39
26 62 33 50 14 -3 -6 0 -15 7 -20 11 -8 10 -12 -5 -24 -19 -14 -18 -15 12 -15
39 0 41 -10 5 -33 l-28 -17 28 6 c16 4 27 2 27 -4 0 -13 24 -10 44 7 13 11 19
11 31 1 12 -10 19 -10 27 -2 32 32 88 -2 88 -52 0 -22 3 -25 16 -18 10 5 33 5
58 0 80 -18 104 -20 110 -9 4 6 16 11 27 11 11 0 17 5 14 10 -3 6 1 10 10 10
9 0 14 -4 11 -9 -8 -12 18 -22 79 -32 28 -5 64 -11 80 -15 17 -3 42 -5 56 -5
15 1 38 -10 54 -24 24 -23 29 -24 39 -11 12 17 56 12 56 -6 0 -5 5 -6 10 -3
14 9 -7 35 -26 35 -23 0 -16 37 9 44 31 8 37 7 37 -4 0 -5 -7 -10 -15 -10 -8
0 -15 -7 -15 -16 0 -14 2 -14 22 0 12 9 30 16 40 16 17 0 18 17 18 250 0 170
-3 250 -11 250 -6 0 -20 -5 -32 -11 -21 -10 -21 -10 -3 5 11 9 26 16 33 16 7
0 13 4 13 10 0 6 -9 6 -26 -1 -15 -5 -29 -8 -31 -5 -2 2 10 8 26 14 l31 11 0
140 c0 78 -2 141 -5 141 -3 0 -18 -11 -33 -25 -15 -14 -21 -25 -14 -25 7 0 11
-4 8 -8 -6 -9 -105 -35 -121 -32 -5 1 -21 2 -35 1 -18 -1 -21 -4 -11 -10 10
-7 5 -11 -18 -16 -17 -3 -47 -22 -66 -41 -39 -38 -47 -70 -15 -61 11 3 20 1
20 -4 0 -5 -5 -9 -11 -9 -17 0 -64 -53 -61 -68 2 -7 -5 -15 -15 -18 -10 -3
-28 -10 -39 -16 -12 -5 -30 -8 -40 -6 -17 4 -16 6 6 16 22 9 16 11 -38 11 -60
1 -62 2 -50 21 7 11 18 20 25 20 7 0 14 10 14 23 1 12 2 27 4 32 1 6 3 17 3
26 1 9 11 19 23 22 14 4 18 10 13 18 -5 9 -2 10 9 6 11 -4 29 4 49 22 l32 29
-27 -3 c-35 -4 -25 12 13 20 16 3 52 17 80 31 27 13 54 24 60 24 5 0 14 9 20
21 15 27 70 50 125 51 35 0 44 4 49 22 4 18 3 19 -7 6 -11 -14 -90 -23 -81 -9
2 4 -6 10 -19 13 l-22 6 25 20 c17 13 20 20 10 20 -25 0 -140 -38 -165 -54
-34 -22 -48 -21 -36 3 6 10 23 21 38 24 15 3 37 13 48 21 19 15 18 16 -9 6
-16 -6 -31 -9 -33 -6 -7 7 29 23 68 30 19 3 44 13 55 21 18 14 17 14 -11 15
-16 0 -42 -7 -57 -14 -16 -8 -28 -12 -28 -9 0 11 60 63 72 64 7 0 2 5 -11 10
-13 5 -33 7 -45 3 -18 -5 -17 -3 7 20 28 28 37 45 14 30 -7 -5 -6 -2 3 6 9 8
17 19 17 23 1 5 5 12 9 15 4 4 4 1 -1 -7 -5 -9 -3 -12 6 -9 8 3 13 10 12 16
-2 6 4 9 12 6 9 -4 15 -1 15 7 0 7 12 24 27 36 20 18 29 20 35 11 6 -10 10
-10 18 2 5 8 10 21 10 28 0 6 8 12 18 12 9 0 23 4 31 9 11 7 11 12 -2 31 -15
21 -14 24 6 41 21 18 14 18 -283 19 -231 0 -309 -3 -319 -12 -11 -10 -13 -10
-7 0 5 8 -1 12 -20 12 -21 0 -24 -3 -15 -13 8 -11 5 -16 -14 -25 -14 -6 -25
-8 -25 -3 0 5 6 11 13 14 8 3 9 8 2 16 -8 8 -22 -1 -50 -31z m420 -378 c-3 -5
-11 -10 -16 -10 -6 0 -7 5 -4 10 3 6 11 10 16 10 6 0 7 -4 4 -10z m-719 -63
c-1 -11 -8 -23 -16 -25 -13 -5 -13 -3 -1 11 16 20 1 23 -18 5 -11 -11 -12 -10
-6 2 5 8 -3 4 -18 -9 -14 -12 -30 -20 -36 -16 -6 3 -11 0 -11 -7 0 -10 -3 -9
-10 2 -8 12 -10 12 -16 -3 -6 -18 -39 -23 -48 -8 -3 4 12 13 33 20 22 6 49 19
61 29 12 10 37 18 55 19 26 0 32 -3 31 -20z m874 -170 c0 -18 -59 -38 -79 -27
-12 7 -8 9 17 10 25 0 35 5 39 20 5 21 23 18 23 -3z m-42 -87 c-14 -4 -31 -11
-37 -15 -6 -3 -11 -2 -11 4 0 10 23 19 55 19 14 0 12 -2 -7 -8z m52 -200 c-8
-5 -19 -10 -25 -10 -5 0 -3 5 5 10 8 5 20 10 25 10 6 0 3 -5 -5 -10z m-492
-315 c22 5 24 4 13 -9 -16 -19 -52 -21 -69 -4 -14 14 -16 32 -3 23 5 -3 13 0
18 7 5 10 8 8 11 -5 3 -15 9 -17 30 -12z"/>
<path d="M4516 3613 c-6 -14 -5 -15 5 -6 7 7 10 15 7 18 -3 3 -9 -2 -12 -12z"/>
<path d="M2 3531 l1 -79 101 -21 c56 -12 111 -27 124 -32 13 -5 36 -9 53 -9
18 0 28 -4 24 -10 -9 -14 28 -26 103 -35 68 -8 86 -20 50 -34 -21 -9 -20 -10
12 -12 19 -1 41 -1 48 0 6 1 28 -2 47 -8 21 -6 33 -6 30 0 -4 5 -13 9 -21 9
-8 0 -14 5 -14 10 0 14 16 12 50 -5 35 -18 38 -10 8 22 -16 17 -18 23 -7 24 8
1 -1 4 -20 8 -19 3 -36 11 -38 16 -3 11 46 11 90 0 34 -9 35 4 2 29 -35 26
-31 36 10 29 30 -5 34 -3 29 11 -4 11 -1 16 10 16 9 0 16 5 16 10 0 6 17 10
38 10 27 0 33 3 22 10 -12 8 -8 10 15 11 33 1 36 0 -67 23 -18 4 -28 2 -28 -5
0 -7 -9 -4 -21 7 -15 14 -20 15 -17 4 2 -11 -5 -14 -27 -12 -16 2 -34 7 -40
12 -6 5 -35 9 -65 9 -86 2 -100 0 -93 -12 4 -6 0 -8 -8 -5 -8 3 -41 11 -74 18
-33 6 -89 18 -125 25 -36 7 -75 13 -87 14 -57 1 -72 4 -66 14 3 5 1 7 -5 3 -6
-3 -22 -2 -35 3 l-25 10 0 -78z m546 -208 c2 -9 -7 -13 -27 -13 -21 0 -31 5
-31 16 0 19 51 16 58 -3z"/>
<path d="M3773 3583 c-7 -2 -9 -11 -6 -20 4 -11 2 -14 -5 -9 -8 5 -10 2 -6 -9
5 -13 9 -13 23 -3 23 19 43 38 39 39 -20 5 -35 5 -45 2z"/>
<path d="M735 3541 c11 -10 35 -14 74 -12 39 2 16 13 -36 18 -30 2 -44 0 -38
-6z"/>
<path d="M1995 3450 c-3 -5 -1 -10 4 -10 6 0 11 5 11 10 0 6 -2 10 -4 10 -3 0
-8 -4 -11 -10z"/>
<path d="M6400 3425 c-11 -13 -10 -14 4 -9 9 3 16 10 16 15 0 13 -6 11 -20 -6z"/>
<path d="M2054 3422 c9 -15 48 -23 43 -9 -2 7 -14 14 -26 15 -13 2 -21 -1 -17
-6z"/>
<path d="M6400 3385 c-15 -8 -19 -14 -10 -14 18 -1 46 16 40 23 -3 2 -16 -2
-30 -9z"/>
<path d="M2150 3315 c0 -7 -7 -18 -15 -23 -13 -7 -12 -10 10 -20 25 -11 35
-32 15 -32 -5 0 -10 -4 -10 -10 0 -5 6 -10 13 -10 7 0 29 -11 49 -25 28 -19
37 -21 41 -10 3 7 1 16 -6 19 -9 5 -9 7 0 12 7 3 9 12 6 21 -5 13 -1 15 23 10
16 -3 23 -4 17 -1 -8 3 -11 15 -8 27 5 17 -1 26 -24 40 -37 21 -111 23 -111 2z
m59 -54 c8 -5 9 -11 3 -15 -5 -3 -15 1 -22 9 -14 16 -3 20 19 6z"/>
<path d="M1320 3180 c0 -9 71 -33 77 -26 2 1 -15 10 -37 19 -22 8 -40 11 -40
7z"/>
<path d="M5516 3181 c-3 -5 1 -11 9 -15 9 -3 15 0 15 9 0 16 -16 20 -24 6z"/>
<path d="M2168 3173 c6 -2 18 -2 25 0 6 3 1 5 -13 5 -14 0 -19 -2 -12 -5z"/>
<path d="M5442 3160 c-48 -11 -54 -24 -7 -15 43 7 83 25 55 24 -8 -1 -30 -5
-48 -9z"/>
<path d="M5065 3140 c-3 -5 -1 -10 4 -10 6 0 11 5 11 10 0 6 -2 10 -4 10 -3 0
-8 -4 -11 -10z"/>
<path d="M3580 3131 c0 -5 7 -12 16 -15 14 -5 15 -4 4 9 -14 17 -20 19 -20 6z"/>
<path d="M5210 3110 c-12 -7 -10 -9 8 -7 12 0 22 5 22 9 0 11 -12 10 -30 -2z"/>
<path d="M2360 3090 c0 -5 5 -10 11 -10 5 0 7 5 4 10 -3 6 -8 10 -11 10 -2 0
-4 -4 -4 -10z"/>
<path d="M2945 3090 c3 -5 11 -10 16 -10 6 0 7 5 4 10 -3 6 -11 10 -16 10 -6
0 -7 -4 -4 -10z"/>
<path d="M2520 3070 c-6 -11 -8 -20 -6 -20 3 0 10 9 16 20 6 11 8 20 6 20 -3
0 -10 -9 -16 -20z"/>
<path d="M2695 3060 c-3 -5 1 -10 9 -10 9 0 16 5 16 10 0 6 -4 10 -9 10 -6 0
-13 -4 -16 -10z"/>
<path d="M2634 3035 c3 -9 -7 -24 -27 -39 -25 -19 -41 -23 -74 -20 -30 2 -43
-1 -47 -12 -9 -23 2 -34 35 -34 27 0 40 -14 20 -22 -4 -1 0 -11 10 -22 18 -18
18 -18 25 8 5 23 11 26 49 26 48 0 66 21 40 50 -20 22 -19 57 3 69 14 9 13 10
-12 11 -21 0 -27 -4 -22 -15z m6 -75 c0 -5 -2 -10 -4 -10 -3 0 -8 5 -11 10 -3
6 -1 10 4 10 6 0 11 -4 11 -10z"/>
<path d="M2510 3031 c0 -5 7 -12 16 -15 8 -3 12 -10 9 -16 -3 -5 1 -10 9 -10
8 0 13 6 10 13 -6 16 -44 40 -44 28z"/>
<path d="M2595 2890 c-3 -5 1 -10 9 -10 9 0 16 5 16 10 0 6 -4 10 -9 10 -6 0
-13 -4 -16 -10z"/>
<path d="M2580 2713 c0 -13 15 -18 35 -13 6 2 24 4 40 5 48 4 49 5 41 12 -14
14 -116 10 -116 -4z"/>
<path d="M3012 2721 c-13 -3 -22 -10 -20 -15 5 -16 -59 -27 -94 -18 -26 7 -42
4 -79 -14 -26 -13 -77 -26 -113 -30 -37 -4 -69 -11 -72 -15 -7 -11 23 -42 34
-35 4 2 14 1 22 -5 12 -7 11 -9 -5 -10 -14 0 -16 -2 -5 -6 8 -3 23 -14 34 -25
11 -10 28 -18 37 -18 10 0 20 -4 23 -8 2 -4 33 -7 68 -7 51 1 71 7 102 28 21
15 46 27 55 27 9 0 30 7 46 16 17 9 41 18 55 20 45 5 100 22 116 35 12 10 19
10 38 -1 27 -14 66 -5 66 15 0 29 -95 36 -104 7 -11 -33 -166 -16 -166 19 0 4
13 4 30 -1 27 -8 29 -7 20 10 -12 22 -57 38 -88 31z m29 -67 c11 -14 10 -15
-11 -12 -13 1 -25 9 -28 16 -5 17 23 15 39 -4z m264 -4 c-3 -5 -12 -10 -18
-10 -7 0 -6 4 3 10 19 12 23 12 15 0z"/>
<path d="M4741 2651 c-9 -6 -10 -11 -2 -15 13 -8 31 1 31 15 0 11 -11 11 -29
0z"/>
<path d="M3158 2593 c7 -3 16 -2 19 1 4 3 -2 6 -13 5 -11 0 -14 -3 -6 -6z"/>
<path d="M4490 2480 c9 -6 9 -9 0 -15 -18 -11 6 -23 36 -17 37 7 26 34 -15 37
-19 2 -28 -1 -21 -5z"/>
<path d="M5667 2458 c-4 -12 20 -37 36 -38 14 0 7 38 -9 44 -21 8 -22 8 -27
-6z"/>
<path d="M5596 2441 c-3 -5 8 -14 26 -20 31 -11 31 -11 13 9 -20 22 -31 25
-39 11z"/>
<path d="M6371 2363 c-11 -4 -8 -10 10 -24 15 -12 17 -17 7 -13 -10 3 -18 1
-18 -5 0 -6 14 -11 30 -11 20 0 30 5 30 15 0 8 -7 15 -15 15 -21 0 -19 18 3
23 11 3 8 5 -8 5 -14 0 -31 -2 -39 -5z"/>
<path d="M1 1916 l1 -134 30 10 c22 8 26 13 16 19 -7 5 -8 9 -3 10 42 5 65 19
59 34 -4 9 8 15 35 20 23 4 41 11 41 16 0 5 -4 9 -10 9 -14 0 7 51 27 65 14
11 13 13 -12 19 -22 6 -25 10 -15 16 10 6 6 10 -16 15 -16 4 -54 13 -85 21
-31 8 -60 14 -63 14 -4 0 -6 -60 -5 -134z"/>
<path d="M6395 1736 l-30 -13 33 -5 c26 -4 32 -1 32 14 0 10 -1 18 -2 18 -2
-1 -16 -7 -33 -14z"/>
<path d="M260 1676 c0 -15 36 -36 63 -36 31 0 66 15 57 23 -9 9 -55 10 -74 2
-13 -6 -21 -4 -24 3 -3 11 -22 17 -22 8z"/>
<path d="M6353 1453 c-56 -28 -39 -50 37 -49 32 1 35 4 38 34 3 28 0 32 -20
31 -13 0 -38 -8 -55 -16z"/>
<path d="M6422 955 c0 -16 2 -22 5 -12 2 9 2 23 0 30 -3 6 -5 -1 -5 -18z"/>
<path d="M6298 965 c-12 -13 5 -45 24 -45 14 0 19 6 16 22 -3 22 -27 35 -40
23z"/>
<path d="M6360 963 c0 -19 11 -43 21 -43 13 0 11 14 -6 36 -8 10 -15 14 -15 7z"/>
<path d="M6212 938 c2 -12 8 -23 14 -25 7 -2 10 6 7 22 -6 30 -26 34 -21 3z"/>
<path d="M6254 944 c3 -9 6 -20 6 -25 0 -6 5 -7 10 -4 16 10 12 45 -6 45 -11
0 -14 -5 -10 -16z"/>
<path d="M6121 928 c-1 -16 4 -28 9 -28 12 0 12 8 0 35 -8 18 -9 17 -9 -7z"/>
<path d="M6160 933 c0 -13 5 -23 10 -23 13 0 13 11 0 30 -8 12 -10 11 -10 -7z"/>
<path d="M6238 775 c-3 -14 -1 -22 3 -19 5 3 9 -1 9 -9 0 -9 11 -13 34 -13 44
2 49 7 37 40 -12 30 -31 35 -31 7 0 -11 -5 -23 -12 -27 -7 -5 -9 -2 -6 8 3 8
-2 19 -12 26 -15 9 -19 7 -22 -13z"/>
<path d="M3901 123 c0 -29 3 -53 7 -53 4 0 6 17 4 38 -6 64 -10 69 -11 15z"/>
<path d="M4001 74 c0 -11 3 -14 6 -6 3 7 2 16 -1 19 -3 4 -6 -2 -5 -13z"/>
<path d="M4140 9 c0 -5 5 -7 10 -4 6 3 10 8 10 11 0 2 -4 4 -10 4 -5 0 -10 -5
-10 -11z"/>
</g>
</svg>
