<?xml version="1.0" standalone="no"?>
<!DOCTYPE svg PUBLIC "-//W3C//DTD SVG 20010904//EN"
 "http://www.w3.org/TR/2001/REC-SVG-20010904/DTD/svg10.dtd">
<svg version="1.0" xmlns="http://www.w3.org/2000/svg"
 width="421.000000pt" height="267.000000pt" viewBox="0 0 421.000000 267.000000"
 preserveAspectRatio="xMidYMid meet">

<g transform="translate(0.000000,267.000000) scale(0.100000,-0.100000)"
fill="#000000" stroke="none">
<path d="M2380 2128 c0 -4 24 -7 53 -7 54 1 49 5 -15 11 -21 2 -38 0 -38 -4z"/>
<path d="M1543 2123 c15 -2 39 -2 55 0 15 2 2 4 -28 4 -30 0 -43 -2 -27 -4z"/>
<path d="M1865 2100 c5 -8 17 -27 27 -42 16 -23 22 -26 38 -16 10 6 16 18 13
26 -5 11 -7 11 -14 1 -6 -11 -16 -7 -40 16 -18 17 -28 23 -24 15z"/>
<path d="M2205 2090 c-14 -16 -20 -17 -27 -8 -5 9 -8 6 -8 -9 0 -12 -4 -24 -8
-27 -5 -3 -7 9 -5 27 4 28 3 30 -8 13 -6 -11 -15 -33 -20 -50 -21 -83 -50
-193 -55 -211 -4 -13 -3 -17 4 -10 5 6 12 19 15 30 3 11 5 -20 6 -69 1 -76 3
-87 17 -82 9 3 18 6 20 6 2 0 4 4 4 10 0 5 -7 7 -17 3 -14 -5 -15 -1 -10 33 4
21 11 40 16 42 5 2 6 49 4 107 l-6 105 29 11 c16 7 57 11 90 10 45 -1 65 3 74
14 12 14 10 15 -14 9 l-28 -7 26 26 c34 34 33 52 -1 30 -25 -16 -27 -16 -15
-1 13 16 11 16 -19 8 -17 -5 -41 -17 -52 -27 -20 -18 -20 -18 -2 10 20 32 16
35 -10 7z"/>
<path d="M1732 2076 l27 -24 -27 -5 c-15 -3 -31 -1 -36 4 -16 15 -28 10 -17
-8 7 -13 24 -17 73 -18 34 -1 75 -8 91 -15 24 -12 27 -18 27 -67 l0 -53 25 16
c14 9 23 19 20 22 -3 3 3 14 12 25 18 19 17 20 -5 8 -22 -12 -23 -11 -12 8 7
13 7 21 1 21 -6 0 -8 7 -4 15 6 16 -22 55 -40 55 -5 0 -22 9 -38 21 -37 26
-37 14 -1 -25 26 -29 26 -29 2 -13 -27 19 -107 57 -118 57 -4 0 5 -11 20 -24z"/>
<path d="M1984 2059 c-19 -22 -19 -22 4 -10 12 6 22 16 22 21 0 15 -5 12 -26
-11z"/>
<path d="M2011 2047 c-13 -21 -12 -21 5 -5 10 10 16 20 13 22 -3 3 -11 -5 -18
-17z"/>
<path d="M1982 2013 c-7 -2 -17 -14 -23 -26 -11 -21 -10 -20 15 2 14 14 26 26
26 28 0 3 0 3 -18 -4z"/>
<path d="M57 1785 c-10 -7 -27 -11 -38 -8 -19 5 -20 1 -17 -63 l3 -69 42 1
c24 0 41 -4 40 -10 -1 -6 4 -10 11 -8 6 1 12 -8 12 -19 0 -17 3 -19 14 -10 10
8 16 9 21 1 3 -6 10 -8 14 -6 4 3 14 -4 21 -15 8 -10 20 -19 27 -19 22 0 14
-14 -26 -50 -22 -18 -38 -37 -35 -41 2 -4 -19 -7 -46 -7 -28 -1 -54 -3 -59 -7
-19 -11 -34 31 -18 53 6 8 6 12 -1 12 -15 0 -23 -30 -21 -82 2 -39 5 -44 23
-42 32 4 32 4 18 13 -9 5 1 8 26 7 23 -1 44 -4 47 -8 4 -4 14 -4 23 -1 10 4
13 2 8 -5 -4 -7 -2 -12 3 -12 6 0 11 3 11 8 0 7 98 8 105 0 2 -2 32 -3 66 -2
41 2 58 -1 48 -7 -10 -6 -5 -9 18 -9 17 0 34 4 38 10 8 13 275 17 275 3 0 -12
-48 -42 -60 -38 -10 4 -12 3 -5 -4 6 -6 51 -11 100 -12 227 -3 316 6 144 16
-46 3 -88 6 -94 7 -5 0 -25 -2 -43 -6 -29 -7 -33 -5 -30 9 1 9 21 23 43 31 35
12 41 12 52 -2 10 -13 12 -13 18 6 5 16 10 19 20 10 8 -7 23 -9 35 -5 14 5 31
-1 55 -19 35 -27 46 -31 44 -18 -3 19 2 30 17 36 11 4 15 2 11 -7 -3 -8 1 -14
9 -14 8 0 14 4 14 8 0 4 8 9 18 12 14 3 13 5 -6 13 l-24 10 27 12 c26 12 61 3
76 -21 6 -9 46 -12 119 -9 l34 2 -24 17 c-14 10 -33 16 -44 14 -17 -2 -35 13
-36 32 0 4 16 15 35 24 19 9 35 20 35 25 0 16 39 8 43 -9 4 -17 5 -17 6 -1 1
13 10 18 34 18 17 0 45 1 60 1 17 1 34 -7 42 -17 19 -25 18 -31 -5 -37 -14 -4
-18 -11 -14 -24 3 -10 2 -14 -3 -8 -4 6 -26 12 -48 13 -22 2 -45 8 -52 14 -7
5 -22 8 -35 7 -13 -2 -28 0 -35 4 -8 5 -8 1 0 -17 7 -14 13 -23 15 -21 2 2 15
0 27 -5 16 -6 25 -5 27 2 5 14 28 1 28 -15 0 -7 -4 -6 -10 3 -8 13 -10 13 -10
-1 0 -11 12 -19 37 -24 27 -5 33 -9 22 -16 -8 -5 -9 -9 -4 -10 25 -4 32 -7 58
-17 27 -11 39 -25 15 -17 -7 2 -31 7 -53 10 -22 3 -41 10 -43 15 -2 6 -8 10
-13 10 -6 0 -7 -4 -4 -10 3 -5 1 -10 -5 -10 -6 0 -8 -4 -5 -10 7 -12 -39 -12
-107 -1 -49 8 -65 -2 -25 -15 30 -10 166 -11 160 -1 -4 7 47 -1 56 -9 2 -2 11
2 19 9 13 9 14 9 8 0 -5 -9 -2 -11 8 -7 9 4 16 1 16 -6 0 -10 3 -10 14 -1 11
9 15 9 19 -1 4 -8 6 -7 6 5 1 10 9 17 21 17 11 0 20 5 20 11 0 5 4 8 8 5 5 -3
21 2 36 10 34 17 37 17 33 2 -1 -7 4 -12 11 -11 18 4 15 -17 -5 -24 -9 -4 -19
-1 -21 5 -2 7 -10 12 -18 12 -12 0 -11 -5 4 -20 23 -25 59 -33 66 -15 3 8 13
11 27 8 16 -4 20 -2 17 8 -3 8 -13 13 -22 13 -18 -2 -21 7 -5 23 14 14 57 4
62 -16 4 -14 5 -14 6 1 1 14 6 15 30 8 16 -4 32 -6 34 -4 2 3 21 -5 41 -17 20
-11 36 -16 36 -10 0 6 -7 11 -15 11 -8 0 -15 4 -15 9 0 5 9 7 20 4 18 -5 20 0
20 48 0 30 3 72 6 94 4 27 2 36 -4 27 -8 -12 -15 -11 -42 3 -41 21 -49 14 -14
-14 l27 -21 -24 0 c-23 0 -65 -19 -44 -20 16 0 -18 -20 -35 -20 -11 1 -10 4 5
16 14 10 16 17 8 22 -22 14 -83 111 -73 117 6 3 10 2 10 -4 0 -5 10 -13 23
-17 12 -3 30 -13 40 -22 9 -8 20 -12 24 -9 3 4 -19 31 -50 61 -55 54 -85 96
-69 96 4 0 13 -5 20 -12 9 -9 12 -9 12 0 0 6 16 1 36 -13 42 -28 62 -31 70
-11 3 8 16 13 29 11 20 -2 23 1 15 16 -18 32 -67 50 -80 28 -5 -7 -9 -5 -13 5
-4 9 -1 16 5 16 9 0 9 3 0 12 -10 10 -15 10 -22 -2 -8 -13 -10 -12 -10 3 0 9
-4 18 -10 18 -14 2 -22 5 -42 13 -9 4 -23 4 -30 0 -7 -5 -17 -9 -23 -9 -25 -2
-64 -18 -61 -24 3 -4 -28 -8 -67 -9 -77 -2 -123 -15 -125 -35 -1 -7 -3 -28 -6
-47 -2 -19 -4 -42 -5 -51 -1 -9 -7 -16 -13 -17 -59 -5 -114 -15 -116 -22 -2
-5 -19 -6 -38 -4 -23 3 -33 1 -29 -6 4 -6 -5 -5 -20 2 -23 10 -29 10 -39 -4
-8 -11 -17 -14 -27 -8 -8 5 -22 7 -31 4 -24 -7 -23 5 4 33 l22 24 -44 -7 c-25
-4 -64 -13 -87 -21 -40 -13 -103 -15 -103 -3 0 3 -20 13 -45 23 -25 11 -45 23
-45 27 0 13 -61 41 -73 33 -6 -3 -7 -1 -3 6 5 8 -14 11 -73 9 -77 -2 -99 -9
-65 -22 8 -3 12 -2 9 4 -8 13 5 13 25 0 13 -9 13 -10 0 -11 -8 -1 -25 -3 -37
-4 -14 -1 -23 3 -23 11 0 10 -14 14 -45 14 -26 0 -76 13 -122 31 -45 18 -89
29 -105 27 -16 -3 -28 -1 -28 4 0 4 -5 8 -11 8 -6 0 -25 10 -42 22 -36 26 -85
32 -110 13z m113 -33 c7 2 15 -3 18 -11 3 -11 -2 -12 -24 -7 -35 9 -38 12 -29
26 6 9 9 9 15 1 4 -7 13 -11 20 -9z m-105 -42 c-3 -5 -12 -10 -18 -10 -7 0 -6
4 3 10 19 12 23 12 15 0z m-25 -34 c-7 -7 -14 -6 -21 1 -9 9 -7 12 9 10 14 -1
18 -5 12 -11z m549 -71 c41 -14 76 -11 65 6 -6 11 76 6 94 -5 7 -4 12 -16 12
-27 0 -10 5 -19 11 -19 16 0 38 -31 39 -55 1 -11 4 -14 7 -7 5 14 33 17 33 3
0 -5 -10 -13 -22 -17 -12 -3 -29 -15 -37 -26 -14 -16 -20 -17 -48 -7 -18 6
-33 15 -33 21 0 5 -9 7 -19 3 -14 -4 -22 1 -30 22 -6 15 -22 42 -35 60 -17 24
-26 29 -35 20 -6 -6 -11 -18 -11 -26 0 -8 3 -11 7 -8 3 4 12 -1 19 -10 10 -15
8 -20 -17 -35 -39 -23 -55 -23 -62 3 -4 14 -12 20 -28 17 -12 -2 -24 3 -27 11
-3 8 0 11 6 7 17 -10 25 33 10 51 -11 14 -11 16 4 10 9 -3 22 1 28 9 15 17 18
17 69 -1z m881 -41 c0 -8 -9 -11 -22 -9 -27 6 -42 20 -34 34 9 14 56 -7 56
-25z m-365 -54 c3 -6 -1 -7 -9 -4 -18 7 -21 14 -7 14 6 0 13 -4 16 -10z m445
-84 c0 -11 -19 -15 -25 -6 -3 5 1 10 9 10 9 0 16 -2 16 -4z m-45 -76 c-3 -5
-11 -10 -16 -10 -6 0 -7 5 -4 10 3 6 11 10 16 10 6 0 7 -4 4 -10z"/>
<path d="M1346 1732 c-3 -5 1 -9 9 -9 8 0 15 4 15 9 0 4 -4 8 -9 8 -6 0 -12
-4 -15 -8z"/>
<path d="M1242 1705 c-7 -8 -10 -15 -6 -15 3 0 1 -7 -6 -15 -11 -13 -11 -18 0
-28 10 -9 11 -9 6 0 -4 7 4 22 19 35 14 12 25 25 25 30 0 13 -24 8 -38 -7z"/>
<path d="M2152 1698 c6 -18 28 -21 28 -4 0 9 -7 16 -16 16 -9 0 -14 -5 -12
-12z"/>
<path d="M1185 1670 c-3 -5 1 -10 10 -10 9 0 13 5 10 10 -3 6 -8 10 -10 10 -2
0 -7 -4 -10 -10z"/>
<path d="M2101 1496 l1 -188 37 6 c26 4 32 3 21 -4 -9 -6 -81 -10 -168 -9 -84
1 -155 -1 -159 -5 -3 -3 0 -6 8 -7 8 0 4 -4 -9 -10 -13 -5 -101 -11 -195 -14
-241 -7 -368 -14 -380 -22 -6 -4 -41 -8 -77 -9 -36 -2 -92 -11 -125 -22 -33
-11 -84 -25 -113 -32 -50 -12 -80 -30 -48 -30 8 0 17 -4 20 -8 2 -4 -75 -8
-173 -7 -124 0 -182 -4 -192 -12 -8 -6 -20 -9 -27 -5 -18 12 -132 -2 -142 -17
-4 -8 -13 -10 -19 -7 -6 4 -11 2 -11 -3 0 -6 -3 -10 -8 -10 -20 3 -42 -2 -54
-14 -7 -7 -34 -23 -61 -37 -64 -34 -132 -93 -123 -108 4 -7 34 -12 76 -12 38
0 81 -5 97 -11 l28 -12 -25 -6 c-13 -4 -45 -5 -70 -3 -25 2 -64 3 -87 3 -23 0
-58 6 -77 14 -19 8 -38 15 -40 15 -3 0 -5 -205 -6 -455 l0 -456 530 1 530 1
-3 22 c-1 13 3 21 11 19 6 -1 12 3 12 9 0 6 -7 8 -15 5 -50 -20 -48 -22 -31
18 9 21 11 34 4 30 -12 -8 -13 -10 30 76 43 84 77 124 102 117 11 -3 20 0 20
5 0 6 6 5 15 -2 8 -7 15 -9 16 -4 0 5 4 -1 9 -14 5 -12 16 -22 24 -22 10 0 13
6 10 15 -4 8 -1 15 6 15 6 0 9 -4 6 -9 -3 -5 1 -14 9 -21 19 -16 19 -28 0 -46
-8 -9 -15 -12 -15 -8 0 17 -24 -17 -27 -38 -4 -28 -9 -32 -28 -25 -8 4 -15 16
-15 27 0 11 -5 20 -12 20 -6 0 -9 -3 -5 -6 7 -8 -17 -34 -32 -34 -6 0 -11 -5
-11 -10 0 -6 6 -10 13 -9 6 1 25 1 41 0 25 -1 28 -4 24 -26 -3 -14 -1 -25 3
-25 5 0 9 -10 9 -22 0 -18 -2 -20 -10 -8 -5 8 -12 12 -15 8 -9 -9 -45 23 -39
34 3 4 -3 8 -12 8 -16 0 -16 -1 -1 -18 14 -16 15 -21 3 -37 -7 -10 -18 -15
-24 -11 -7 4 -12 3 -12 -2 0 -5 11 -14 25 -20 35 -16 43 -15 19 3 -10 8 -17
15 -14 16 25 5 50 4 50 -3 0 -4 12 -7 28 -7 42 3 54 0 47 -11 -4 -6 31 -10 99
-10 59 0 108 4 111 10 3 6 11 10 16 10 6 0 7 -5 4 -10 -4 -7 52 -10 160 -10
91 0 164 4 161 8 -3 5 1 9 9 9 8 0 12 -4 9 -9 -8 -13 31 -9 44 4 9 9 12 9 12
0 0 -7 7 -12 16 -12 10 0 14 6 11 14 -6 15 29 33 40 22 4 -3 1 -6 -5 -6 -7 0
-12 -7 -12 -16 0 -27 24 -9 34 27 9 32 10 32 13 9 5 -36 53 -56 99 -42 19 6
34 6 34 1 0 -5 17 -9 38 -8 30 0 33 2 17 9 -11 5 -16 9 -12 9 4 1 3 10 -3 21
-8 15 -7 25 3 40 8 11 17 17 20 13 4 -3 7 -1 7 5 0 15 -17 16 -26 1 -5 -8 -9
-8 -14 1 -4 7 -13 9 -19 6 -14 -9 -15 -36 -1 -36 6 0 10 -4 10 -9 0 -5 -10 -7
-22 -4 -19 4 -20 3 -8 -6 13 -10 13 -12 0 -21 -22 -14 -33 25 -24 90 4 31 9
45 12 32 2 -12 6 -22 10 -22 4 0 5 71 2 157 -3 105 -6 132 -8 80 -2 -52 -6
-75 -14 -71 -5 4 -14 0 -19 -7 -5 -9 -9 22 -11 81 l-2 95 -6 -85 c-3 -47 -7
-77 -8 -67 -1 13 -7 17 -21 12 -11 -3 -22 -1 -26 4 -3 6 6 13 20 17 25 6 25 8
25 100 0 78 -3 94 -16 94 -8 0 -12 4 -9 10 3 5 1 18 -4 29 -10 18 -5 19 110
20 127 1 159 -8 159 -44 0 -15 3 -16 9 -7 8 13 120 34 119 23 -2 -19 3 -31 11
-27 5 3 7 15 4 26 -3 11 0 20 6 20 6 0 11 -6 11 -12 0 -7 15 3 32 22 20 22 39
34 51 32 17 -3 19 0 13 23 -4 16 -3 24 3 21 5 -3 11 0 14 6 2 7 4 -4 4 -24 -1
-35 -3 -38 -28 -38 -15 0 -31 -4 -34 -10 -3 -5 1 -10 11 -10 12 0 15 -6 11
-22 -5 -16 1 -13 29 16 18 20 34 41 34 46 0 6 5 10 11 10 21 0 3 -26 -50 -75
-30 -28 -51 -44 -47 -36 7 10 3 12 -15 6 -20 -6 -22 -5 -11 6 6 7 12 20 12 28
0 11 -5 10 -21 -5 -11 -10 -25 -27 -31 -37 -8 -16 -7 -18 11 -12 12 3 21 2 21
-3 0 -15 50 -24 65 -12 9 8 15 8 20 0 3 -5 0 -10 -7 -11 -20 -1 44 -28 68 -29
31 0 64 -37 63 -68 l-2 -27 -4 27 c-4 22 -11 29 -41 34 -29 6 -33 8 -17 14 17
6 16 7 -8 12 -15 3 -31 0 -35 -6 -4 -6 -19 -11 -34 -11 -16 0 -27 -4 -26 -10
2 -5 7 -9 12 -7 4 1 17 0 27 -3 29 -10 12 -25 -27 -25 -34 0 -35 2 -34 33 1
17 2 37 1 43 -2 19 -217 19 -224 0 -3 -8 -3 -17 1 -21 3 -3 5 -21 4 -40 -2
-21 2 -35 10 -38 7 -2 6 -3 -3 -2 -10 2 -22 -8 -28 -21 -8 -19 -7 -25 7 -34
12 -6 13 -12 6 -17 -12 -8 -11 -18 1 -67 5 -19 4 -27 -3 -22 -9 5 -10 -16 -1
-34 5 -12 7 -30 8 -102 l1 -78 304 0 c234 0 305 3 309 13 4 9 7 9 18 0 17 -17
29 -16 29 1 0 22 24 38 38 24 13 -13 16 -32 4 -24 -4 2 -14 1 -22 -5 -9 -5
231 -9 623 -9 l637 0 0 525 0 525 -45 0 c-37 0 -45 3 -45 18 0 42 59 50 61 8
0 -11 3 -15 6 -8 2 6 9 10 14 6 5 -3 9 19 9 50 l0 56 -75 0 c-41 0 -75 3 -75
8 0 4 33 7 72 7 l73 0 3 98 c2 60 -1 97 -7 97 -6 0 -7 8 -4 18 6 15 5 16 -12
2 -14 -12 -19 -12 -23 -2 -3 10 -8 8 -19 -5 -10 -13 -16 -15 -19 -5 -8 18 -24
15 -17 -4 6 -15 4 -15 -18 -1 -17 11 -29 13 -39 7 -12 -8 -13 -12 -2 -19 11
-7 11 -9 -2 -14 -9 -4 -16 -3 -16 1 0 5 -7 17 -15 28 -8 10 -15 15 -14 9 3
-22 -2 -27 -16 -15 -8 7 -15 9 -15 4 0 -11 -76 -11 -86 -1 -11 10 -24 8 -24
-4 0 -5 5 -7 12 -3 7 5 8 3 3 -5 -5 -9 -11 -9 -17 -3 -6 6 -22 7 -39 2 -24 -7
-29 -6 -30 8 0 11 -2 12 -6 4 -2 -6 -9 -10 -14 -6 -5 3 -9 -1 -9 -8 -1 -8 -6
-6 -15 6 -14 18 -20 12 -16 -16 0 -4 -6 -5 -14 -2 -8 4 -15 11 -15 17 0 5 -8
0 -19 -12 l-19 -21 -6 22 c-4 13 -10 18 -12 11 -4 -8 -18 -6 -52 9 -83 36
-198 68 -245 68 -18 0 -44 8 -57 17 -74 52 -90 56 -235 58 -138 2 -233 -9
-351 -40 -32 -8 -62 -19 -68 -25 -15 -15 5 -13 46 5 20 8 48 12 63 9 16 -3 34
1 44 10 18 16 151 22 151 7 0 -5 8 -12 18 -15 9 -3 0 -4 -21 -3 -33 3 -36 1
-31 -16 4 -12 2 -17 -4 -13 -5 3 -12 -1 -16 -9 -6 -17 -26 -20 -26 -4 0 5 5 7
10 4 6 -3 10 -2 10 4 0 5 -5 13 -11 16 -11 7 -34 -17 -49 -51 -5 -12 -21 -25
-36 -28 -15 -4 -38 -16 -51 -26 l-24 -19 23 3 c13 1 36 8 51 14 16 7 33 10 38
6 13 -8 82 -14 91 -8 5 3 3 15 -3 26 -13 23 -2 33 61 55 l35 12 -25 -19 c-25
-19 -25 -20 -3 -20 19 0 49 33 45 50 0 3 8 8 19 12 10 4 19 4 19 0 0 -4 8 -12
19 -19 14 -9 24 -8 45 2 36 19 98 23 104 7 2 -7 16 -12 30 -13 16 0 21 -3 12
-6 -8 -3 -19 -12 -23 -20 -5 -7 -12 -11 -17 -8 -5 3 -12 -5 -15 -18 -7 -27
-51 -45 -119 -49 -41 -3 -65 -28 -27 -28 12 0 38 -7 57 -15 40 -16 57 -11 141
46 31 22 53 29 87 29 27 0 46 -5 46 -11 0 -7 7 -8 18 -4 9 4 24 8 32 9 9 1 21
5 27 9 11 7 95 -22 160 -55 13 -6 26 -8 30 -5 3 4 12 2 19 -4 8 -7 19 -7 29
-2 17 10 107 -26 120 -48 4 -6 19 -7 36 -4 16 4 29 2 29 -3 0 -13 -49 -22 -56
-11 -3 5 -15 9 -27 9 l-22 -1 22 -12 c17 -10 -39 -11 -280 -9 -166 2 -313 7
-327 12 -14 5 -41 9 -60 10 -19 0 -62 1 -95 3 -33 2 -68 -1 -79 -6 -12 -6 -21
-5 -25 2 -8 12 -51 11 -51 -2 0 -5 -6 -4 -14 2 -8 7 -27 12 -43 12 -15 -1 -37
-1 -48 0 -11 1 -53 2 -93 3 -39 0 -72 3 -72 4 0 2 10 12 23 23 18 15 19 18 5
19 -27 0 -48 -11 -48 -26 0 -16 9 -16 -227 -17 -101 -1 -183 1 -183 6 0 4 -10
8 -22 8 -17 1 -19 2 -5 6 11 3 17 14 17 34 0 24 4 29 26 29 14 0 23 -4 19 -10
-3 -5 3 -10 14 -10 12 0 21 5 21 11 0 7 8 9 23 4 12 -4 45 -7 72 -6 44 1 48 0
32 -13 -16 -13 -16 -14 -1 -20 10 -4 21 -2 24 4 5 8 9 7 13 -3 5 -13 11 -12
46 5 42 21 64 18 54 -7 -4 -11 3 -15 26 -15 22 0 29 4 25 15 -3 8 -15 17 -27
21 -18 6 -18 7 -4 16 23 13 39 44 24 46 -54 8 -197 16 -197 10 0 -3 -9 -4 -20
-1 -11 3 -20 12 -20 19 0 10 12 13 42 11 23 -1 43 3 45 9 2 7 -22 12 -73 13
-63 2 -81 6 -94 22 -10 10 -22 19 -28 19 -6 0 -13 9 -17 20 -3 11 -19 28 -34
39 -16 12 -31 33 -34 49 -3 15 -15 39 -26 53 l-21 24 1 -189z m26 90 c-3 -7 0
-19 6 -25 8 -8 7 -11 -6 -11 -17 0 -24 30 -10 43 11 11 15 8 10 -7z m23 -240
c0 -11 -19 -15 -25 -6 -3 5 1 10 9 10 9 0 16 -2 16 -4z m1040 -106 c0 -5 -4
-10 -10 -10 -5 0 -10 5 -10 10 0 6 5 10 10 10 6 0 10 -4 10 -10z m-936 -65 c3
-8 4 -15 2 -15 -3 0 -13 -3 -23 -6 -15 -5 -15 -4 -3 5 11 8 12 11 2 11 -7 0
-10 5 -7 10 9 15 22 12 29 -5z m-536 -27 c-2 -7 -9 -18 -16 -23 -10 -8 -11
-17 -3 -37 5 -14 8 -28 6 -29 -2 -2 8 -5 21 -5 13 -1 24 2 24 8 0 5 -4 6 -10
3 -15 -9 -12 4 5 22 8 8 13 19 10 24 -4 5 -1 9 6 9 7 0 9 -10 6 -30 -6 -25 -3
-30 13 -30 11 0 20 5 20 11 0 5 5 7 10 4 18 -11 10 -35 -11 -35 -18 0 -19 -2
-9 -15 10 -12 16 -13 28 -3 13 10 14 10 8 1 -4 -8 -1 -13 9 -13 9 0 14 4 11 8
-3 5 1 9 9 9 8 0 12 -4 9 -9 -8 -13 71 -9 84 4 9 9 12 9 12 0 0 -9 5 -10 19
-2 11 5 22 6 25 1 3 -4 25 -7 48 -5 23 1 49 -3 57 -9 10 -8 13 -8 8 -1 -5 8 6
12 32 11 23 -1 37 -5 34 -10 -3 -6 -2 -7 4 -4 5 3 23 2 39 -3 16 -4 21 -9 12
-9 -14 -1 -18 -10 -18 -38 0 -21 -3 -48 -6 -60 -5 -17 -1 -22 18 -26 12 -2
-27 -5 -89 -6 -105 -1 -163 10 -163 30 0 5 -11 4 -24 -1 -15 -5 -27 -5 -35 3
-6 6 -11 7 -11 3 0 -5 -7 -3 -15 4 -13 10 -19 9 -37 -6 -12 -11 -18 -13 -14
-6 7 12 -38 62 -56 62 -16 0 -7 -18 17 -34 24 -16 38 -75 14 -60 -6 3 -3 -8 5
-25 17 -33 16 -34 -26 -31 -14 1 -29 -4 -33 -10 -3 -5 -11 -7 -17 -4 -6 4 -5
10 3 15 10 6 8 9 -8 9 -15 0 -23 6 -24 18 -2 48 -7 64 -26 81 -15 14 -24 16
-38 9 -18 -11 -39 7 -29 24 9 14 -31 9 -54 -8 -20 -14 -23 -14 -28 1 -4 9 -4
44 0 78 4 34 7 68 8 75 2 20 18 14 18 -8 0 -11 7 -20 15 -20 9 0 18 -6 21 -13
2 -8 19 -14 37 -14 18 0 53 -4 80 -7 31 -5 47 -4 47 3 0 6 -3 10 -7 9 -5 -1
-30 2 -58 6 -43 7 -47 10 -32 21 32 23 12 44 -35 36 -5 0 -8 8 -8 18 0 16 6
19 30 16 21 -3 30 0 30 10 0 8 7 15 15 15 8 0 14 -6 13 -12z m83 -20 c12 -19
0 -24 -14 -5 -11 16 -14 16 -35 2 -12 -9 -19 -21 -16 -27 4 -7 2 -8 -4 -4 -8
5 -9 13 -2 25 5 10 7 21 3 24 -3 4 9 5 27 2 18 -2 37 -10 41 -17z m-183 -19
c-3 -43 -16 -47 -15 -4 1 19 5 35 9 35 5 0 7 -14 6 -31z m782 21 c0 -5 -4 -10
-10 -10 -5 0 -10 5 -10 10 0 6 5 10 10 10 6 0 10 -4 10 -10z m-845 -10 c3 -5
-3 -10 -15 -10 -12 0 -18 5 -15 10 3 6 10 10 15 10 5 0 12 -4 15 -10z m-45
-14 c0 -3 -4 -8 -10 -11 -5 -3 -10 -1 -10 4 0 6 5 11 10 11 6 0 10 -2 10 -4z
m77 -28 c-3 -8 -6 -5 -6 6 -1 11 2 17 5 13 3 -3 4 -12 1 -19z m701 5 c11 -21
5 -43 -11 -43 -7 0 -13 14 -13 30 -2 33 10 39 24 13z m-763 -20 c-4 -16 -8
-35 -9 -42 -2 -8 -8 -17 -15 -19 -8 -3 -10 4 -6 21 5 19 2 25 -15 30 -12 3
-19 10 -15 16 3 6 17 8 31 5 14 -4 24 -2 24 5 0 6 3 11 6 11 3 0 3 -12 -1 -27z
m592 21 c-3 -3 -12 -4 -19 -1 -8 3 -5 6 6 6 11 1 17 -2 13 -5z m223 -14 c0
-11 -4 -20 -10 -20 -5 0 -10 2 -10 4 0 2 -3 11 -6 20 -4 11 -1 16 10 16 9 0
16 -8 16 -20z m40 6 c0 -3 -4 -8 -10 -11 -5 -3 -10 -1 -10 4 0 6 5 11 10 11 6
0 10 -2 10 -4z m65 -20 c16 -16 23 -31 18 -42 -5 -13 -3 -16 10 -11 9 3 19 1
23 -5 5 -8 -3 -9 -26 -4 -32 6 -49 20 -50 39 0 5 5 5 10 2 6 -3 10 -2 10 4 0
17 -20 23 -35 11 -11 -9 -12 -7 -8 9 7 27 19 26 48 -3z m-1005 -12 c0 -8 -4
-12 -10 -9 -5 3 -10 13 -10 21 0 8 5 12 10 9 6 -3 10 -13 10 -21z m656 0 c-4
-9 -9 -15 -11 -12 -3 3 -3 13 1 22 4 9 9 15 11 12 3 -3 3 -13 -1 -22z m134 16
c0 -5 -4 -10 -9 -10 -6 0 -13 5 -16 10 -3 6 1 10 9 10 9 0 16 -4 16 -10z
m-770 -50 c0 -22 -4 -40 -8 -40 -4 0 -7 12 -6 28 1 15 3 33 3 40 1 6 3 12 6
12 3 0 5 -18 5 -40z m547 34 c-3 -3 -12 -4 -19 -1 -8 3 -5 6 6 6 11 1 17 -2
13 -5z m403 -56 c0 -16 -80 -118 -93 -118 -6 0 2 14 18 30 16 17 25 30 19 30
-5 1 2 10 16 22 16 14 21 22 13 25 -20 7 -15 23 7 23 11 0 20 -5 20 -12z
m-889 -128 c-5 -3 -11 -12 -14 -20 -3 -8 -5 23 -5 70 l0 85 13 -65 c7 -36 10
-67 6 -70z m-134 78 c-3 -7 -5 -2 -5 12 0 14 2 19 5 13 2 -7 2 -19 0 -25z
m963 23 c0 -12 -20 -25 -27 -18 -7 7 6 27 18 27 5 0 9 -4 9 -9z m-886 -10 c3
-5 -2 -11 -12 -13 -11 -3 -19 0 -19 8 0 16 23 19 31 5z m-3 -90 c-9 -6 -10
-11 -2 -15 15 -10 14 -26 -1 -26 -8 0 -14 17 -16 43 -3 40 -2 41 15 24 15 -14
15 -19 4 -26z m989 -2 c0 -6 -4 -7 -10 -4 -5 3 -10 11 -10 16 0 6 5 7 10 4 6
-3 10 -11 10 -16z m-58 -11 c-7 -7 -12 -8 -12 -2 0 14 12 26 19 19 2 -3 -1
-11 -7 -17z m-1842 1 c14 -1 52 -1 85 0 101 3 114 2 150 -13 36 -15 47 -33 20
-33 -8 0 -15 5 -15 10 0 6 -26 7 -67 2 -123 -13 -389 -1 -429 19 -14 8 -20 16
-14 18 10 3 214 1 270 -3z m2856 -26 c-11 -11 -19 6 -11 24 8 17 8 17 12 0 3
-10 2 -21 -1 -24z m-1109 10 c0 -6 -4 -10 -9 -7 -4 3 -8 -2 -8 -11 0 -9 -5
-13 -10 -10 -6 4 -8 11 -5 16 4 5 -9 8 -27 8 -24 -1 -27 -3 -10 -6 18 -4 21
-9 16 -26 -4 -11 -12 -26 -18 -32 -15 -14 -86 -17 -86 -4 0 6 -7 9 -15 5 -8
-3 -15 -1 -15 4 0 6 5 10 11 10 8 0 8 5 -1 15 -7 8 -16 12 -21 10 -4 -3 -20
-3 -34 1 -19 5 -23 10 -15 19 5 6 8 14 5 17 -3 3 50 5 118 5 92 -1 124 -4 124
-14z m-2175 -15 c10 -10 18 -19 18 -21 0 -2 -90 0 -113 2 -14 2 18 28 39 33
28 7 35 5 56 -14z m1501 15 c-7 -2 -19 -2 -25 0 -7 3 -2 5 12 5 14 0 19 -2 13
-5z m-98 -23 c8 -13 -15 -13 -35 0 -12 8 -11 10 7 10 12 0 25 -4 28 -10z m144
-27 c0 -16 -3 -22 -6 -15 -4 10 -8 10 -19 1 -11 -9 -14 -8 -14 5 0 9 8 16 18
17 14 0 14 2 -3 9 -19 8 -19 9 3 9 18 1 22 -4 21 -26z m-57 -21 c-6 -16 -44
-12 -49 5 -3 8 6 12 25 10 20 -1 28 -6 24 -15z m248 14 c0 -3 -4 -8 -10 -11
-5 -3 -10 -1 -10 4 0 6 5 11 10 11 6 0 10 -2 10 -4z m47 -28 c-3 -8 -6 -5 -6
6 -1 11 2 17 5 13 3 -3 4 -12 1 -19z m697 -20 c-3 -5 -2 -18 1 -29 5 -14 10
-18 14 -10 4 7 8 -3 8 -21 l0 -32 -21 42 c-17 35 -25 42 -50 43 -30 1 -30 1
-6 9 32 9 60 8 54 -2z m-1204 -8 c0 -5 -5 -10 -11 -10 -5 0 -7 5 -4 10 3 6 8
10 11 10 2 0 4 -4 4 -10z m130 -9 c0 -5 -7 -11 -14 -14 -10 -4 -13 -1 -9 9 6
15 23 19 23 5z m430 -16 c0 -8 -4 -15 -10 -15 -5 0 -10 7 -10 15 0 8 5 15 10
15 6 0 10 -7 10 -15z m-630 -19 c0 -8 6 -21 14 -29 15 -15 12 -23 -18 -47 -18
-14 -18 -13 -12 8 6 16 3 22 -8 22 -9 0 -16 4 -16 9 0 5 9 7 20 4 12 -3 20 0
20 6 0 7 -4 10 -8 7 -4 -2 -9 4 -9 15 -1 10 2 19 8 19 5 0 9 -6 9 -14z m50 -8
c0 6 7 12 15 12 8 0 15 -4 15 -9 0 -13 -27 -21 -45 -15 -8 4 -12 11 -9 16 4 6
10 5 15 -3 6 -10 9 -11 9 -1z m183 -26 c-18 -5 -27 3 -18 17 4 7 10 7 20 -2
11 -10 11 -13 -2 -15z m-1110 1 c-7 -2 -19 -2 -25 0 -7 3 -2 5 12 5 14 0 19
-2 13 -5z m982 -3 c9 -15 -3 -30 -20 -24 -7 3 -11 12 -8 20 6 16 19 18 28 4z
m1235 -15 c0 -2 -9 -3 -19 -2 -11 0 -18 5 -15 9 4 6 34 0 34 -7z m-2390 -11
c-100 -24 -242 -45 -259 -38 -9 4 42 16 124 29 158 25 217 29 135 9z m1700
-17 c-1 -21 -1 -21 -15 -3 -8 10 -12 23 -9 28 9 14 24 -2 24 -25z m-230 -2 c0
-8 -4 -15 -10 -15 -5 0 -10 7 -10 15 0 8 5 15 10 15 6 0 10 -7 10 -15z m-290
-10 c0 -8 -4 -15 -10 -15 -5 0 -7 7 -4 15 4 8 8 15 10 15 2 0 4 -7 4 -15z
m1298 2 c58 3 73 1 60 -7 -10 -6 -54 -10 -105 -8 -75 3 -84 5 -63 14 14 7 26
8 28 4 1 -4 37 -5 80 -3z m-754 -22 c-4 -8 -8 -15 -10 -15 -2 0 -4 7 -4 15 0
8 4 15 10 15 5 0 7 -7 4 -15z m610 7 c2 -4 -4 -9 -15 -9 -11 -1 -17 2 -14 8 7
11 22 12 29 1z m-1290 -14 c-7 -11 -34 -10 -34 1 0 6 9 9 19 8 11 0 17 -5 15
-9z m1690 -2 c47 -5 64 -11 54 -21 -5 -5 -209 -20 -265 -19 -18 0 -33 -4 -33
-8 0 -5 -8 -7 -17 -4 -10 3 -42 6 -70 7 -43 2 -51 5 -42 16 6 7 19 13 28 13
14 0 14 2 1 10 -9 6 -10 10 -3 10 6 0 14 -4 17 -9 7 -10 145 -14 193 -5 18 3
31 9 29 13 -4 7 27 6 108 -3z m-1729 -108 c0 -16 5 -25 14 -24 9 1 16 -9 17
-26 2 -21 -3 -27 -23 -33 -17 -4 -23 -11 -19 -21 3 -9 2 -12 -5 -9 -6 4 -8 13
-5 20 3 8 -2 19 -10 25 -11 10 -14 9 -14 -8 0 -17 -6 -20 -27 -19 -24 2 -28 7
-31 38 -2 19 2 46 7 59 l11 25 -3 -24 c-1 -16 4 -25 16 -27 11 -1 17 4 17 16
0 20 28 42 45 36 6 -2 10 -14 10 -28z m1035 25 c0 -5 -4 -14 -9 -21 -7 -11 -9
-11 -14 1 -3 8 -3 18 0 21 9 8 23 7 23 -1z m526 -20 c16 3 23 4 16 1 -6 -3
-10 -10 -6 -15 6 -10 -99 -11 -132 -1 -19 6 -20 9 -8 20 8 7 14 9 14 4 0 -16
48 -10 55 6 5 13 7 13 19 -3 9 -13 21 -16 42 -12z m239 7 c-3 -5 -14 -10 -23
-9 -14 0 -13 2 3 9 27 11 27 11 20 0z m-2023 -17 c-5 -10 -7 -34 -6 -53 2 -27
1 -30 -6 -15 -5 11 -9 16 -9 10 -1 -5 -5 -3 -10 4 -7 10 -3 24 10 43 23 31 34
37 21 11z m1875 1 c-3 -3 -12 -4 -19 -1 -8 3 -5 6 6 6 11 1 17 -2 13 -5z m50
0 c-3 -3 -12 -4 -19 -1 -8 3 -5 6 6 6 11 1 17 -2 13 -5z m-2197 -44 c-6 -12
-9 -24 -6 -27 8 -9 -15 -34 -25 -28 -8 6 8 51 26 71 15 18 18 8 5 -16z m2431
15 c42 -2 59 -11 59 -31 0 -18 -27 -18 -46 1 -12 11 -20 12 -35 5 -11 -6 -19
-7 -19 -1 0 5 -19 7 -42 5 -24 -2 -37 -1 -30 2 6 3 12 13 12 21 0 12 7 14 33
8 17 -4 48 -9 68 -10z m-2356 -57 c-14 -24 -27 -51 -31 -60 -3 -10 -10 -18
-15 -18 -5 0 0 18 11 39 12 25 16 42 10 46 -15 9 -1 27 16 21 7 -3 16 -1 19 4
4 6 8 10 10 10 2 0 -7 -19 -20 -42z m1751 33 c7 -1 14 -10 17 -21 4 -16 0 -20
-18 -20 -13 0 -27 5 -31 12 -4 7 -3 8 4 4 7 -4 12 -3 12 3 0 15 -24 19 -35 5
-8 -11 -14 -10 -30 3 -20 15 -20 15 3 10 12 -3 22 -1 22 4 0 5 10 7 23 5 12
-3 27 -5 33 -5z m111 3 c-3 -3 -12 -4 -19 -1 -8 3 -5 6 6 6 11 1 17 -2 13 -5z
m-1798 -46 c-42 -78 -61 -109 -66 -105 -10 10 69 147 84 147 2 0 -6 -19 -18
-42z m675 26 c5 -14 4 -15 -9 -4 -17 14 -19 20 -6 20 5 0 12 -7 15 -16z m-473
-37 c-8 -8 -11 -3 -11 19 1 25 2 27 11 11 8 -14 8 -22 0 -30z m859 21 c0 -6
-6 -5 -15 2 -10 9 -15 9 -15 1 0 -6 -12 -11 -27 -11 -30 0 -21 15 12 22 25 5
45 -1 45 -14z m353 15 c-7 -2 -19 -2 -25 0 -7 3 -2 5 12 5 14 0 19 -2 13 -5z
m90 0 c-7 -2 -19 -2 -25 0 -7 3 -2 5 12 5 14 0 19 -2 13 -5z m974 1 c-3 -3
-12 -4 -19 -1 -8 3 -5 6 6 6 11 1 17 -2 13 -5z m-1827 -19 c0 -8 -7 -15 -15
-15 -16 0 -20 12 -8 23 11 12 23 8 23 -8z m976 -10 c30 -16 25 -19 -13 -9 -13
4 -23 10 -23 15 0 12 3 11 36 -6z m-1924 -23 c-6 -2 -12 -19 -12 -38 0 -24 -5
-34 -15 -34 -9 0 -15 -9 -15 -22 0 -12 -3 -18 -7 -14 -11 11 -12 105 -2 112 5
3 7 9 4 14 -3 5 9 4 27 -2 18 -6 27 -13 20 -16z m868 8 c0 -11 -7 -20 -15 -20
-13 0 -13 3 -3 20 7 11 14 20 15 20 2 0 3 -9 3 -20z m34 -1 c-3 -5 -10 -7 -15
-3 -5 3 -7 10 -3 15 3 5 10 7 15 3 5 -3 7 -10 3 -15z m451 1 c-3 -5 -11 -10
-16 -10 -6 0 -7 5 -4 10 3 6 11 10 16 10 6 0 7 -4 4 -10z m-1184 -27 c-12 -20
-14 -14 -5 12 4 9 9 14 11 11 3 -2 0 -13 -6 -23z m519 -23 c0 -5 -4 -10 -10
-10 -5 0 -10 5 -10 10 0 6 5 10 10 10 6 0 10 -4 10 -10z m-392 -34 c2 -18 11
-30 23 -33 10 -3 19 -9 19 -13 0 -22 -14 -40 -32 -40 -26 0 -58 -18 -58 -33 0
-7 4 -6 10 3 8 12 10 9 10 -12 0 -29 -24 -40 -33 -15 -2 6 -3 4 -2 -5 2 -9 -2
-20 -9 -23 -6 -3 -1 -3 11 -1 16 3 20 0 16 -13 -3 -12 -1 -11 11 3 9 11 16 23
16 28 0 4 4 8 10 8 5 0 7 -7 4 -15 -4 -8 1 -17 10 -21 9 -3 16 -10 16 -15 0
-10 -69 -7 -87 4 -7 5 -10 0 -7 -15 2 -13 2 -17 -2 -10 -8 18 -24 15 -25 -5 0
-14 -2 -15 -6 -3 -3 8 -9 17 -14 20 -4 3 -5 17 -2 33 4 19 12 27 27 28 21 0
21 0 -1 11 -22 11 -33 48 -14 48 5 0 17 3 25 6 12 5 15 2 10 -10 -4 -12 -2
-15 9 -10 20 7 30 40 36 117 2 28 26 14 29 -17z m972 4 c8 5 18 6 22 3 5 -2
16 1 24 8 13 10 17 10 24 -1 4 -7 7 -22 5 -32 -4 -17 6 -22 45 -19 8 0 10 -2
4 -5 -7 -3 -10 -14 -7 -24 8 -28 -4 -51 -22 -44 -8 3 -12 10 -9 15 3 5 0 9 -5
9 -6 0 -12 10 -12 23 l-2 22 -4 -22 c-2 -13 -9 -23 -15 -23 -6 0 -8 11 -6 25
3 13 1 22 -4 19 -4 -3 -11 2 -14 10 -3 9 -14 16 -23 16 -9 0 -27 10 -41 21
l-25 21 26 -15 c16 -9 31 -12 39 -7z m141 -13 c-10 -9 -11 -8 -5 6 3 10 9 15
12 12 3 -3 0 -11 -7 -18z m799 -10 c0 -5 -4 -5 -10 -2 -5 3 -10 0 -11 -7 0 -7
-4 -4 -8 7 -5 12 -4 23 3 27 10 7 26 -8 26 -25z m80 13 c0 -13 -11 -13 -30 0
-12 8 -11 10 8 10 12 0 22 -4 22 -10z m-2370 -20 c0 -5 -2 -10 -4 -10 -3 0 -8
5 -11 10 -3 6 -1 10 4 10 6 0 11 -4 11 -10z m1557 -22 c-3 -8 -6 -5 -6 6 -1
11 2 17 5 13 3 -3 4 -12 1 -19z m1044 0 c10 -18 109 -15 120 4 8 12 13 4 10
-14 0 -5 16 -9 37 -9 32 -1 30 -3 -18 -10 -30 -5 -65 -6 -77 -4 -17 4 -21 2
-17 -10 5 -12 -2 -15 -35 -15 -23 0 -41 4 -41 10 0 6 -9 6 -26 0 -33 -13 -34
-13 -34 5 0 9 9 15 25 15 37 0 29 32 -10 43 -11 3 -2 4 19 2 22 -2 43 -9 47
-17z m-1267 6 c9 -3 16 -10 16 -16 0 -5 -4 -6 -10 -3 -5 3 -10 2 -10 -4 0 -5
8 -15 18 -20 9 -6 12 -11 5 -11 -6 0 -15 5 -19 11 -4 6 -20 8 -40 4 -23 -4
-34 -2 -34 6 0 6 7 9 15 5 9 -3 20 3 27 14 7 11 14 20 15 20 1 0 8 -3 17 -6z
m-884 -14 c-10 -7 -11 -10 -2 -10 9 0 8 -7 -5 -26 -9 -15 -19 -22 -20 -17 -6
17 16 63 29 63 9 0 8 -3 -2 -10z m2015 -47 c22 -4 42 -9 45 -12 11 -13 51 -31
69 -31 10 0 24 6 31 14 6 8 18 12 26 9 8 -3 23 2 34 12 17 15 27 16 72 7 53
-10 78 -7 78 9 0 5 5 9 10 9 6 0 9 -3 9 -8 -5 -29 3 -52 19 -52 16 -1 16 -1 0
-10 -21 -13 -48 -2 -41 16 3 9 -2 14 -16 14 -26 0 -27 -18 -3 -37 9 -8 11 -12
5 -8 -7 3 -13 2 -13 -2 0 -5 6 -15 13 -22 6 -8 0 -6 -15 3 -15 10 -26 23 -24
29 1 7 -2 2 -8 -11 -5 -12 -13 -22 -17 -22 -11 0 -22 38 -14 49 3 5 1 12 -5
16 -9 6 -14 -14 -11 -43 1 -6 -5 -12 -14 -12 -8 0 -15 4 -15 9 0 5 -13 9 -29
9 -15 -1 -33 2 -39 5 -5 4 -13 0 -16 -9 -5 -12 -10 -14 -20 -5 -7 6 -16 8 -19
4 -4 -3 -7 1 -7 10 0 9 -5 17 -11 17 -5 0 -7 -4 -4 -10 3 -5 -1 -10 -9 -10 -9
0 -16 5 -16 10 0 6 -8 5 -20 -2 -17 -11 -22 -11 -29 0 -4 7 -15 10 -24 6 -12
-4 -17 -1 -17 12 0 9 -8 26 -17 37 -17 20 -17 20 2 13 11 -5 38 -10 60 -13z
m-2065 -20 c0 -22 -1 -22 -20 -6 -11 10 -20 20 -20 23 0 3 9 6 20 6 14 0 20
-7 20 -23z m877 21 c-3 -3 -12 -4 -19 -1 -8 3 -5 6 6 6 11 1 17 -2 13 -5z
m-54 -34 c3 -13 0 -20 -9 -20 -8 0 -14 9 -14 20 0 11 4 20 9 20 5 0 11 -9 14
-20z m101 5 c11 -8 16 -15 11 -15 -5 0 0 -7 11 -15 18 -13 17 -14 -11 -6 -16
5 -29 14 -27 21 2 7 -3 10 -12 7 -9 -4 -18 -2 -21 3 -3 4 1 11 7 13 19 8 21 8
42 -8z m-876 -13 c2 -6 -6 -10 -16 -9 -12 1 -18 6 -15 14 6 16 25 13 31 -5z
m952 2 c0 -2 -9 -4 -21 -4 -11 0 -18 4 -14 10 5 8 35 3 35 -6z m1010 1 c0 -8
-2 -15 -4 -15 -2 0 -6 7 -10 15 -3 8 -1 15 4 15 6 0 10 -7 10 -15z m-1637 -59
c-3 -20 -10 -36 -15 -36 -5 0 -8 6 -6 12 1 7 -3 23 -10 36 -8 14 -9 22 -2 22
5 0 10 7 10 16 0 13 2 14 15 1 10 -10 12 -26 8 -51z m385 41 c-1 -2 3 -11 11
-20 9 -11 10 -17 2 -17 -6 0 -11 3 -12 8 0 4 -2 15 -4 25 -2 11 -1 17 2 14 2
-3 3 -7 1 -10z m112 -13 c0 -10 -6 -14 -14 -11 -9 4 -16 -1 -18 -11 -3 -16 -4
-15 -11 1 -6 16 8 28 41 36 1 1 2 -6 2 -15z m155 6 c3 -5 2 -10 -4 -10 -5 0
-13 5 -16 10 -3 6 -2 10 4 10 5 0 13 -4 16 -10z m84 -6 c2 -2 2 -6 0 -9 -8 -7
-49 7 -49 17 0 8 38 2 49 -8z m24 -36 c-2 -5 -10 -8 -16 -7 -9 0 -9 2 -1 5 7
3 10 15 8 27 -4 21 -4 21 5 2 4 -11 7 -23 4 -27z m-818 22 c-3 -5 -1 -10 5
-10 6 0 8 -5 5 -10 -4 -6 -11 -8 -16 -5 -12 8 -11 35 2 35 5 0 7 -4 4 -10z
m2165 -25 c-6 -7 -8 -14 -5 -16 2 -3 -7 -5 -20 -5 -14 0 -25 4 -25 8 0 4 5 8
12 8 9 0 9 3 0 12 -21 21 -13 27 18 15 20 -8 26 -15 20 -22z m-1830 -1 c0 -8
-19 -13 -24 -6 -3 5 1 9 9 9 8 0 15 -2 15 -3z m92 -9 c0 -5 -5 -11 -11 -13 -6
-2 -11 4 -11 13 0 9 5 15 11 13 6 -2 11 -8 11 -13z m58 5 c0 -5 -2 -10 -4 -10
-3 0 -8 5 -11 10 -3 6 -1 10 4 10 6 0 11 -4 11 -10z"/>
<path d="M1580 1043 c0 -5 7 -18 15 -29 13 -18 14 -18 8 4 -5 22 -23 41 -23
25z"/>
<path d="M1625 999 c5 -16 4 -19 -5 -14 -8 5 -11 3 -8 -6 3 -8 11 -13 17 -11
6 1 11 -2 11 -6 0 -4 19 -9 43 -10 31 -2 38 0 27 8 -20 13 5 14 30 0 12 -6 21
-6 25 -1 3 5 -15 13 -40 16 -26 4 -42 11 -39 17 8 13 -15 28 -44 28 -19 0 -22
-4 -17 -21z"/>
<path d="M2187 951 c-4 -17 -3 -21 5 -13 5 5 8 16 6 23 -3 8 -7 3 -11 -10z"/>
<path d="M2101 884 c0 -11 3 -14 6 -6 3 7 2 16 -1 19 -3 4 -6 -2 -5 -13z"/>
<path d="M2151 884 c0 -11 3 -14 6 -6 3 7 2 16 -1 19 -3 4 -6 -2 -5 -13z"/>
<path d="M590 295 c0 -19 5 -35 10 -35 6 0 10 16 10 35 0 19 -4 35 -10 35 -5
0 -10 -16 -10 -35z"/>
<path d="M826 63 c-6 -14 -5 -15 5 -6 7 7 10 15 7 18 -3 3 -9 -2 -12 -12z"/>
<path d="M1930 230 c0 -6 7 -10 15 -10 8 0 15 2 15 4 0 2 -7 6 -15 10 -8 3
-15 1 -15 -4z"/>
<path d="M1986 181 c-3 -5 1 -11 9 -14 9 -4 12 -1 8 9 -6 16 -10 17 -17 5z"/>
<path d="M3226 132 c-2 -4 -1 -14 4 -22 7 -11 9 -9 7 8 -1 24 -3 26 -11 14z"/>
<path d="M65 1610 c-3 -5 -1 -10 4 -10 6 0 11 5 11 10 0 6 -2 10 -4 10 -3 0
-8 -4 -11 -10z"/>
<path d="M1914 1558 l-19 -23 23 19 c21 18 27 26 19 26 -2 0 -12 -10 -23 -22z"/>
<path d="M2270 1512 c0 -14 11 -21 26 -15 21 8 17 23 -6 23 -11 0 -20 -4 -20
-8z"/>
<path d="M2531 1463 c-14 -11 -14 -12 4 -12 11 0 28 6 39 14 18 13 17 14 -4
12 -12 -1 -30 -7 -39 -14z"/>
<path d="M2468 1463 c6 -2 18 -2 25 0 6 3 1 5 -13 5 -14 0 -19 -2 -12 -5z"/>
<path d="M3021 1457 c2 -1 12 -9 22 -16 14 -12 17 -11 17 3 0 10 -8 16 -22 16
-12 0 -19 -1 -17 -3z"/>
<path d="M2755 1429 c-4 -6 -5 -12 -2 -15 2 -3 7 2 10 11 7 17 1 20 -8 4z"/>
<path d="M1318 1393 c7 -3 16 -2 19 1 4 3 -2 6 -13 5 -11 0 -14 -3 -6 -6z"/>
<path d="M2620 1390 c0 -5 5 -10 10 -10 6 0 10 5 10 10 0 6 -4 10 -10 10 -5 0
-10 -4 -10 -10z"/>
<path d="M506 1365 c-3 -8 -1 -15 3 -15 5 0 11 7 15 15 3 8 1 15 -3 15 -5 0
-11 -7 -15 -15z"/>
<path d="M206 1362 c-4 -6 -29 -10 -56 -8 -27 1 -46 -2 -43 -7 3 -5 -3 -7 -13
-4 -60 16 -76 18 -72 5 3 -7 13 -14 24 -15 10 -2 34 -6 52 -9 18 -4 38 -2 46
5 9 8 60 9 168 5 133 -5 155 -4 155 9 0 13 -19 15 -121 12 -75 -2 -123 1 -127
7 -4 7 -9 7 -13 0z"/>
<path d="M565 1360 c-18 -8 -17 -9 8 -9 16 -1 26 3 22 9 -3 6 -7 10 -8 9 -1 0
-11 -4 -22 -9z"/>
<path d="M2950 1353 c0 -6 -12 -16 -27 -21 -16 -6 -22 -11 -15 -11 7 -1 10 -5
7 -11 -3 -5 -2 -10 4 -10 14 0 46 49 37 57 -3 3 -6 1 -6 -4z"/>
<path d="M1 1303 c0 -30 3 -53 9 -53 6 0 5 -9 -2 -21 -11 -18 -11 -23 0 -26
10 -4 10 -8 1 -19 -8 -10 -8 -14 0 -14 6 0 11 4 11 9 0 5 14 16 30 25 30 15
31 14 28 -11 -2 -14 3 -28 10 -30 7 -3 11 1 10 9 -2 9 9 12 42 11 79 -4 86 -4
116 12 23 11 25 15 9 15 -23 0 -9 16 18 22 16 2 14 7 -14 27 -17 13 -29 19
-25 12 4 -6 2 -11 -3 -11 -17 0 -13 18 7 29 13 9 8 10 -25 8 -22 -1 -39 -6
-36 -10 3 -5 11 -6 19 -3 17 6 19 -15 3 -31 -8 -8 -5 -15 11 -26 16 -11 18
-16 7 -20 -16 -6 -39 6 -37 19 1 5 -3 10 -9 12 -7 2 -9 -4 -5 -15 5 -16 5 -17
-6 -1 -6 9 -17 15 -24 12 -7 -3 -20 1 -27 8 -8 7 -24 13 -36 14 -19 0 -21 -2
-10 -15 10 -12 9 -14 -5 -8 -10 3 -18 2 -18 -3 0 -6 -4 -10 -10 -10 -5 0 -10
11 -10 25 0 20 5 25 25 25 16 0 25 6 25 15 0 8 -5 15 -11 15 -5 0 -7 -6 -4
-12 4 -7 -2 -3 -13 10 -11 12 -25 22 -30 22 -6 0 -13 8 -15 18 -3 9 -5 -7 -6
-35z m254 -63 c-3 -5 -12 -10 -20 -10 -8 0 -17 5 -20 10 -4 6 5 10 20 10 15 0
24 -4 20 -10z"/>
<path d="M1078 1343 c7 -3 16 -2 19 1 4 3 -2 6 -13 5 -11 0 -14 -3 -6 -6z"/>
<path d="M1123 1343 c9 -2 23 -2 30 0 6 3 -1 5 -18 5 -16 0 -22 -2 -12 -5z"/>
<path d="M1750 1336 c0 -2 7 -6 15 -10 8 -3 15 -1 15 4 0 6 -7 10 -15 10 -8 0
-15 -2 -15 -4z"/>
<path d="M2305 1330 c-4 -6 -14 -9 -24 -5 -12 5 -13 3 -5 -5 17 -17 56 -9 45
9 -6 10 -10 10 -16 1z"/>
<path d="M2240 1320 c0 -5 5 -10 10 -10 6 0 10 5 10 10 0 6 -4 10 -10 10 -5 0
-10 -4 -10 -10z"/>
<path d="M2865 1310 c4 -6 11 -8 16 -5 14 9 11 15 -7 15 -8 0 -12 -5 -9 -10z"/>
<path d="M1140 1306 c0 -2 7 -7 16 -10 8 -3 12 -2 9 4 -6 10 -25 14 -25 6z"/>
<path d="M90 1290 c0 -5 5 -10 10 -10 6 0 10 5 10 10 0 6 -4 10 -10 10 -5 0
-10 -4 -10 -10z"/>
<path d="M373 1293 c15 -2 37 -2 50 0 12 2 0 4 -28 4 -27 0 -38 -2 -22 -4z"/>
<path d="M518 1293 c7 -3 16 -2 19 1 4 3 -2 6 -13 5 -11 0 -14 -3 -6 -6z"/>
<path d="M588 1293 c7 -3 16 -2 19 1 4 3 -2 6 -13 5 -11 0 -14 -3 -6 -6z"/>
<path d="M440 1272 c0 -5 7 -9 15 -9 8 0 15 4 15 9 0 4 -7 8 -15 8 -8 0 -15
-4 -15 -8z"/>
<path d="M365 1227 c11 -9 23 -13 27 -11 5 3 8 0 8 -5 0 -6 11 -11 25 -11 14
0 33 -8 43 -18 23 -23 202 -32 202 -10 0 8 3 9 8 3 4 -5 25 -11 47 -13 36 -2
38 -1 22 12 -18 14 -18 14 0 19 10 3 -7 4 -37 2 -68 -4 -136 8 -133 22 1 6 -4
14 -12 17 -9 3 -12 0 -9 -8 7 -18 -16 -32 -26 -16 -5 9 -19 10 -45 6 -20 -4
-42 -3 -48 2 -7 5 -30 13 -52 16 -37 7 -38 6 -20 -7z"/>
<path d="M340 1200 c0 -5 5 -10 11 -10 5 0 7 5 4 10 -3 6 -8 10 -11 10 -2 0
-4 -4 -4 -10z"/>
<path d="M188 1152 c-10 -2 -18 -7 -18 -12 0 -10 59 -5 69 6 3 4 -2 4 -11 1
-9 -3 -18 -3 -20 1 -2 4 -11 6 -20 4z"/>
<path d="M2050 570 c0 -23 25 -27 45 -6 12 12 11 15 -8 20 -34 9 -37 8 -37
-14z"/>
<path d="M2145 569 c-3 -5 -1 -19 6 -31 l12 -22 8 22 c7 18 15 21 49 19 35 -2
38 -4 23 -14 -15 -12 -15 -13 5 -13 15 0 22 6 22 20 0 17 -7 20 -42 21 -24 0
-51 2 -60 4 -10 2 -20 -1 -23 -6z"/>
<path d="M2194 535 c-18 -14 -18 -14 4 -8 12 3 22 9 22 14 0 12 -3 11 -26 -6z"/>
<path d="M2332 538 c2 -6 11 -13 19 -16 12 -3 12 -2 0 6 -11 8 -11 10 0 15 10
4 8 6 -4 6 -10 1 -17 -4 -15 -11z"/>
<path d="M1204 242 c-6 -4 -8 -16 -4 -26 6 -19 7 -19 12 1 5 17 11 20 29 16
13 -3 21 -2 16 2 -10 12 -40 16 -53 7z"/>
<path d="M1075 160 c-3 -6 1 -7 9 -4 18 7 21 14 7 14 -6 0 -13 -4 -16 -10z"/>
<path d="M1210 160 c0 -5 5 -10 10 -10 6 0 10 5 10 10 0 6 -4 10 -10 10 -5 0
-10 -4 -10 -10z"/>
<path d="M1113 153 c-17 -6 -17 -23 0 -23 8 0 14 7 14 15 0 8 -1 15 -1 14 -1
0 -7 -3 -13 -6z"/>
<path d="M1090 100 c0 -17 2 -19 14 -8 14 13 12 28 -5 28 -5 0 -9 -9 -9 -20z"/>
<path d="M2100 90 c0 -5 5 -10 10 -10 6 0 10 5 10 10 0 6 -4 10 -10 10 -5 0
-10 -4 -10 -10z"/>
<path d="M1075 10 c-3 -5 1 -10 10 -10 9 0 13 5 10 10 -3 6 -8 10 -10 10 -2 0
-7 -4 -10 -10z"/>
<path d="M2008 3 c7 -3 16 -2 19 1 4 3 -2 6 -13 5 -11 0 -14 -3 -6 -6z"/>
</g>
</svg>
