<?xml version="1.0" standalone="no"?>
<!DOCTYPE svg PUBLIC "-//W3C//DTD SVG 20010904//EN"
 "http://www.w3.org/TR/2001/REC-SVG-20010904/DTD/svg10.dtd">
<svg version="1.0" xmlns="http://www.w3.org/2000/svg"
 width="489.000000pt" height="289.000000pt" viewBox="0 0 489.000000 289.000000"
 preserveAspectRatio="xMidYMid meet">

<g transform="translate(0.000000,289.000000) scale(0.100000,-0.100000)"
fill="#000000" stroke="none">
<path d="M1120 2881 c0 -5 9 -13 21 -16 13 -4 18 -12 15 -22 -4 -10 3 -8 24 7
20 14 37 19 51 15 25 -8 149 -12 149 -5 0 3 28 5 62 5 40 0 63 4 66 13 3 9
-40 12 -192 12 -115 0 -196 -4 -196 -9z m70 -11 c0 -5 -4 -10 -10 -10 -5 0
-10 5 -10 10 0 6 5 10 10 10 6 0 10 -4 10 -10z"/>
<path d="M1525 2880 c-3 -5 -1 -10 4 -10 6 0 11 5 11 10 0 6 -2 10 -4 10 -3 0
-8 -4 -11 -10z"/>
<path d="M1580 2880 c8 -5 26 -10 40 -10 14 0 32 5 40 10 11 7 -1 10 -40 10
-39 0 -51 -3 -40 -10z"/>
<path d="M1706 2883 c-4 -5 -12 -9 -17 -9 -22 -3 -23 -5 -10 -13 12 -8 72 7
84 21 1 1 13 -5 27 -15 13 -9 37 -17 52 -17 14 0 34 -7 42 -16 12 -11 42 -16
126 -18 63 -1 110 1 110 7 0 5 12 6 26 3 21 -6 25 -4 21 8 -4 10 -1 16 8 16 8
0 15 5 15 11 0 6 21 9 53 7 37 -2 51 -7 49 -16 -2 -10 8 -13 33 -11 19 2 40
-2 47 -9 18 -18 59 -16 52 3 -8 20 45 20 127 -1 58 -15 64 -15 74 0 7 9 19 16
28 16 12 0 27 19 27 36 0 7 -967 4 -974 -3z"/>
<path d="M2101 2347 c-44 -27 -211 -195 -211 -211 0 -7 -13 -30 -30 -51 -16
-21 -30 -44 -30 -51 0 -24 -39 -54 -69 -54 -16 0 -34 -7 -41 -15 -17 -20 -147
-21 -186 -1 -15 8 -31 13 -35 10 -4 -2 -61 -6 -126 -9 -89 -4 -131 -1 -172 11
-38 11 -103 16 -216 17 -143 2 -164 4 -190 22 -27 18 -47 20 -175 20 -135 0
-317 -11 -349 -21 -10 -3 -11 -8 -2 -18 9 -10 8 -15 -2 -19 -15 -6 -41 29 -32
43 4 6 -6 15 -20 20 -15 6 -42 22 -61 36 -46 35 -119 44 -139 18 -21 -27 -22
-324 -1 -324 8 0 14 11 14 26 0 14 4 30 9 35 16 16 83 -97 74 -126 -2 -5 -3
-25 -2 -43 0 -33 -18 -37 -20 -4 0 11 -2 12 -6 4 -2 -6 -8 -10 -13 -7 -4 3 -6
-4 -3 -15 3 -11 9 -23 14 -26 5 -3 9 -18 9 -33 0 -16 11 -54 25 -85 25 -57 25
-57 4 -51 -14 5 -19 4 -15 -4 4 -7 1 -9 -7 -5 -23 8 -30 -13 -17 -52 10 -30
10 -38 -1 -45 -12 -7 -11 -9 1 -9 8 -1 2 -7 -15 -15 -16 -7 -24 -14 -17 -14 7
-1 10 -6 7 -11 -4 -6 -14 -8 -24 -5 -12 3 -17 -1 -17 -15 0 -11 3 -20 7 -20 4
0 9 -9 12 -21 4 -15 2 -19 -9 -15 -8 3 -14 -1 -14 -9 0 -8 9 -15 19 -15 11 0
23 -5 26 -11 4 -6 13 -8 21 -5 7 3 16 1 19 -5 4 -5 11 -7 16 -4 5 4 9 -1 9 -9
0 -8 6 -19 14 -23 18 -11 27 -95 9 -89 -7 3 -13 1 -13 -4 0 -6 7 -10 16 -10
12 0 15 -7 11 -27 -7 -38 5 -56 48 -73 30 -12 35 -18 33 -40 -3 -21 -7 -24
-32 -22 -39 5 -125 44 -155 71 -44 39 -48 20 -50 -221 l-2 -221 31 6 c28 6 30
5 20 -13 -5 -10 -15 -22 -20 -25 -6 -4 -8 -11 -5 -16 4 -5 2 -9 -3 -9 -5 0 -8
-17 -7 -37 2 -32 6 -38 24 -35 12 2 21 -2 21 -7 0 -6 -6 -11 -14 -11 -25 0
-29 -20 -10 -42 13 -14 19 -36 19 -73 0 -42 4 -58 20 -69 27 -21 91 -51 139
-66 36 -12 40 -11 62 15 13 16 24 32 24 38 0 5 15 31 34 57 49 68 70 111 52
104 -8 -3 -17 -17 -21 -32 -4 -15 -9 -22 -12 -15 -2 6 3 27 11 46 10 25 11 37
3 40 -6 2 -7 9 -3 16 6 9 11 8 22 -6 13 -17 15 -17 34 5 11 13 22 39 26 57 5
29 29 53 40 42 2 -2 0 -28 -6 -57 -17 -88 -13 -102 20 -80 13 9 13 11 1 19
-12 8 -12 13 2 34 12 19 22 23 43 19 23 -4 25 -2 20 15 -5 15 -1 22 12 25 10
3 25 20 34 38 8 17 26 37 39 44 13 6 29 22 35 35 7 13 22 28 35 35 22 11 34
52 17 62 -5 3 -15 0 -23 -6 -13 -10 -15 -8 -15 14 0 19 -7 29 -26 36 -18 7
-24 15 -20 26 4 11 1 14 -12 10 -11 -4 -28 4 -46 20 -28 27 -37 25 -49 -10 -2
-5 -11 -7 -20 -3 -21 8 -23 57 -3 57 8 0 17 6 19 13 4 9 8 8 16 -3 8 -12 13
-12 23 -2 6 6 33 12 59 12 55 0 83 21 75 54 -4 16 -1 22 13 23 18 2 18 0 0
-37 -26 -53 -24 -58 8 -24 15 16 26 35 25 42 -3 14 14 16 23 2 3 -5 11 -7 18
-4 7 2 21 -9 30 -26 10 -17 23 -28 28 -25 5 4 9 2 9 -3 0 -6 7 -9 16 -8 26 2
27 -39 1 -52 -16 -8 -18 -11 -6 -11 9 -1 20 -11 24 -24 6 -19 8 -19 12 -5 2
10 8 18 13 18 12 0 60 49 60 61 0 6 4 8 10 4 5 -3 7 -12 3 -20 -3 -8 0 -15 6
-15 6 0 11 6 11 14 0 8 7 13 16 12 23 -2 29 21 7 27 -15 4 -14 5 3 6 16 1 22
8 22 26 0 31 -14 33 -21 3 -4 -12 -9 -19 -13 -15 -4 4 -13 2 -21 -4 -7 -6 -13
-8 -13 -4 0 4 -7 2 -15 -5 -8 -7 -15 -9 -15 -4 0 5 16 20 35 33 33 22 34 25
19 42 -15 17 -18 17 -41 2 -24 -16 -26 -16 -39 2 -12 16 -14 17 -20 2 -3 -10
-11 -17 -17 -17 -5 0 -2 9 8 20 10 11 24 20 32 20 9 0 12 6 8 19 -3 10 1 24
10 31 13 11 15 8 15 -19 0 -29 2 -31 40 -31 27 0 38 -4 35 -12 -3 -7 6 -25 20
-40 14 -16 21 -28 15 -28 -16 0 -12 -27 5 -34 9 -3 19 3 25 14 8 15 8 20 -2
20 -7 1 1 7 17 14 17 7 35 11 40 7 6 -3 18 -4 29 -2 10 1 15 -2 12 -7 -9 -14
18 -22 35 -10 11 7 11 11 1 15 -6 2 -9 10 -5 16 4 6 0 8 -10 4 -13 -5 -17 -1
-17 15 0 17 2 18 15 8 12 -10 18 -10 30 0 8 7 25 10 40 6 18 -5 25 -2 25 8 0
9 14 18 36 22 25 5 34 11 30 21 -3 8 -6 17 -6 19 0 2 -7 4 -15 4 -8 0 -15 6
-15 13 0 16 -58 39 -66 26 -3 -5 -10 -7 -15 -3 -5 3 -7 9 -4 14 3 4 -2 11 -11
14 -23 9 -23 8 -21 -20 1 -15 -4 -29 -10 -31 -8 -3 -13 5 -13 22 0 14 -7 33
-15 41 -21 21 -19 51 3 51 35 0 42 3 42 18 0 9 11 20 25 25 14 5 25 15 25 21
0 7 7 17 15 23 10 7 12 16 6 25 -8 12 -11 12 -23 0 -8 -8 -13 -20 -10 -27 2
-6 -1 -12 -7 -12 -6 0 -11 7 -11 15 0 16 -34 38 -44 28 -3 -3 -1 -12 4 -18 7
-8 7 -21 1 -36 -5 -13 -10 -18 -10 -11 -1 7 -6 10 -13 6 -8 -5 -9 -2 -4 11 6
16 4 16 -11 4 -15 -12 -16 -12 -10 3 4 12 1 16 -12 15 -16 -1 -17 -6 -10 -31
11 -36 -5 -60 -36 -52 -19 5 -22 1 -23 -31 -1 -20 -9 -45 -19 -55 -15 -17 -15
-21 -3 -28 20 -13 3 -13 -20 0 -13 7 -21 7 -25 0 -10 -15 -65 -12 -65 4 0 16
99 146 111 146 5 0 9 9 9 20 0 12 10 25 23 31 25 11 32 39 10 39 -15 0 -18 16
-4 25 5 3 16 -4 25 -16 9 -13 21 -19 30 -16 23 9 9 34 -22 42 -29 7 -42 21
-42 45 1 10 9 6 25 -12 24 -28 40 -33 69 -22 12 5 13 10 6 25 -8 15 -7 17 5
13 8 -4 15 -16 15 -28 1 -20 2 -20 14 -3 7 9 20 17 29 17 8 0 17 6 20 14 9 22
65 25 84 4 15 -17 15 -18 -3 -18 -16 0 -17 -2 -4 -10 31 -20 57 -12 64 20 4
22 11 30 26 30 17 0 19 4 14 25 -4 18 -2 25 9 25 16 0 30 -27 21 -41 -3 -5 6
-4 21 3 17 8 24 17 20 27 -5 13 -4 14 6 3 17 -16 29 -15 29 4 0 8 5 12 10 9 6
-3 10 -2 10 3 0 14 -28 23 -35 12 -8 -13 -55 -13 -55 0 0 6 -12 10 -26 10 -20
0 -25 4 -20 16 3 9 2 12 -5 9 -5 -4 -22 -4 -37 0 -20 5 -23 8 -12 15 13 8 13
11 1 22 -11 10 -14 10 -18 1 -3 -7 -13 -13 -23 -13 -21 0 -44 -25 -35 -40 3
-5 2 -10 -4 -10 -5 0 -13 5 -16 10 -3 6 -12 10 -18 10 -7 0 -6 -4 3 -10 13 -8
12 -10 -3 -10 -14 0 -16 -6 -12 -30 3 -16 1 -30 -4 -30 -6 0 -13 17 -16 38 -3
20 -9 54 -14 74 -5 25 -4 39 3 43 8 3 8 7 0 10 -7 3 -9 16 -6 27 5 21 6 21 13
2 7 -16 8 -17 8 -1 1 9 6 17 11 17 6 0 10 7 10 16 0 10 -6 14 -14 11 -10 -4
-13 -1 -9 9 3 8 11 13 17 11 8 -3 12 11 13 44 0 27 6 55 12 63 10 11 8 16 -5
24 -32 18 -100 -21 -71 -40 7 -5 2 -8 -14 -8 -30 0 -44 -21 -26 -39 8 -8 6
-11 -8 -11 -19 -1 -19 -1 -1 -15 10 -7 15 -18 12 -24 -4 -5 -2 -12 4 -16 5 -3
10 -11 10 -17 0 -7 -6 -6 -15 2 -8 7 -15 18 -15 26 0 19 -20 28 -33 15 -8 -8
-8 -11 2 -11 7 0 10 -4 7 -9 -3 -5 -14 -7 -24 -4 -10 2 -26 -5 -36 -16 -11
-12 -16 -21 -12 -21 4 0 -3 -18 -15 -40 -13 -22 -29 -40 -38 -40 -8 0 -11 -3
-8 -7 4 -3 -5 -12 -19 -20 -36 -18 -54 -17 -26 3 12 8 22 21 22 29 0 9 6 12
15 9 8 -4 15 -1 15 5 0 6 -7 11 -15 11 -20 0 -19 19 1 27 9 3 20 0 25 -8 7
-11 9 -11 9 4 0 9 6 17 13 17 6 0 4 5 -6 11 -10 6 -24 8 -31 6 -24 -10 -34 8
-39 71 -4 61 -4 62 22 63 14 0 20 3 14 6 -7 2 -13 9 -13 14 0 6 15 2 33 -7 60
-31 67 -34 88 -34 12 0 39 16 60 35 22 19 44 35 50 35 8 0 8 4 0 14 -9 10 -8
15 3 19 7 3 17 2 22 -3 5 -5 20 -10 34 -12 14 -1 29 -12 34 -24 5 -11 19 -25
30 -30 12 -5 23 -18 25 -29 2 -11 18 -33 35 -50 18 -16 41 -45 51 -62 29 -49
61 -43 85 15 11 28 17 32 34 27 12 -4 31 -8 43 -9 15 -1 19 -5 14 -16 -4 -8
-4 -28 0 -45 3 -16 7 -24 8 -17 0 7 6 10 11 7 8 -5 7 -11 0 -20 -16 -19 -6
-31 32 -39 26 -5 30 -9 18 -16 -12 -8 -10 -10 10 -10 25 -1 25 -1 5 -17 -18
-14 -18 -15 -2 -9 10 3 23 6 29 6 6 0 4 8 -5 18 -10 10 -17 25 -17 33 0 8 3
10 8 4 4 -5 16 -12 26 -13 17 -3 18 -2 7 12 -15 18 -51 22 -51 6 0 -6 -6 -5
-14 2 -8 7 -10 16 -5 19 11 6 8 59 -3 59 -4 0 -8 -5 -8 -11 0 -5 -5 -7 -11 -3
-6 3 -9 15 -6 25 3 11 1 19 -4 19 -16 0 -10 19 13 40 13 12 31 19 40 16 11 -2
15 0 12 6 -5 7 6 8 32 4 42 -8 94 -56 119 -111 7 -17 29 -48 49 -68 20 -21 36
-46 36 -56 0 -9 7 -26 16 -37 15 -19 15 -19 11 1 -3 15 1 21 16 22 10 1 22 5
26 8 9 10 2 178 -8 188 -5 5 -5 22 -1 38 9 31 -1 45 -22 33 -7 -4 6 14 30 39
24 26 41 51 38 56 -3 5 3 16 14 26 11 10 20 24 20 30 0 7 11 16 25 19 14 4 25
11 25 16 0 6 5 10 11 10 7 0 9 -10 5 -25 -5 -18 -2 -27 8 -31 10 -4 12 -12 7
-27 -5 -13 -2 -42 6 -72 14 -49 21 -78 22 -102 1 -7 8 -13 16 -13 19 0 19 -18
-1 -65 -13 -31 -13 -39 -2 -47 10 -7 10 -10 -4 -18 -18 -11 -17 -42 4 -123 12
-52 52 -71 78 -39 23 28 30 28 30 -3 0 -21 5 -25 29 -25 16 0 31 -5 33 -11 3
-8 10 -6 21 5 9 10 17 12 17 6 0 -6 4 -9 9 -6 5 4 11 2 13 -3 1 -5 10 -11 18
-13 11 -2 15 9 16 47 8 147 29 185 29 50 0 -54 4 -88 13 -97 9 -9 12 -8 12 8
0 11 5 25 11 31 7 7 11 55 10 132 0 83 3 121 11 121 6 0 4 8 -5 18 -15 16 -20
62 -7 62 11 0 30 -24 30 -39 0 -8 8 -24 18 -35 16 -20 16 -20 -2 -6 -21 17
-22 30 3 -139 7 -44 17 -71 32 -85 l22 -21 -8 25 c-4 14 -10 63 -12 108 l-4
84 38 -37 c35 -35 38 -36 41 -15 3 17 6 19 18 9 8 -6 14 -18 14 -26 0 -25 36
-55 58 -49 11 4 23 3 26 -2 3 -5 -9 -12 -26 -16 -30 -6 -38 -1 -52 29 -6 14
-46 -33 -46 -54 0 -24 17 -46 37 -47 10 0 26 -4 36 -9 15 -6 16 -10 5 -16 -11
-7 -10 -10 1 -21 10 -10 12 -10 7 0 -5 8 0 12 13 12 12 0 22 -3 22 -7 1 -5 3
-20 5 -36 1 -15 17 -40 36 -57 18 -17 28 -30 21 -30 -6 0 -16 7 -23 15 -7 8
-16 12 -21 10 -4 -3 -12 3 -18 12 -18 32 -31 3 -20 -44 l11 -41 58 -7 c66 -8
102 -38 104 -87 1 -31 19 -48 51 -47 17 0 16 2 -5 10 -31 13 -32 13 -24 33 7
18 25 22 21 5 -1 -6 4 -14 12 -17 8 -3 11 0 7 7 -13 21 7 11 28 -14 19 -22 33
-28 91 -39 22 -4 75 -51 75 -67 0 -20 51 -43 78 -35 11 4 23 2 27 -4 6 -10
125 -15 125 -5 0 3 -7 16 -16 29 -13 21 -25 111 -28 214 -1 21 -5 31 -13 27
-7 -2 -13 0 -13 5 0 6 4 10 9 10 13 0 2 63 -13 75 -16 12 -33 60 -18 51 14 -8
20 104 9 174 -7 48 -12 91 -16 138 -1 6 -8 12 -16 12 -16 0 -26 31 -22 72 1
16 3 28 4 28 6 0 32 -58 27 -62 -2 -3 16 -23 41 -44 65 -55 135 -124 128 -124
-4 0 1 -6 12 -13 10 -8 15 -19 11 -25 -6 -11 -31 -11 -42 1 -4 4 -11 7 -16 7
-5 0 3 -11 17 -24 15 -14 26 -27 26 -30 -3 -19 0 -26 11 -26 6 0 25 -10 42
-23 17 -12 44 -28 60 -35 16 -7 38 -24 48 -38 16 -20 26 -24 52 -19 17 3 66 8
109 10 42 2 85 9 95 14 14 8 14 11 2 12 -8 0 -4 4 10 8 14 4 28 3 31 -2 4 -5
29 -6 60 -2 46 7 51 9 31 16 -13 5 -28 7 -32 4 -5 -3 -11 -1 -14 4 -14 22 94
31 120 11 17 -14 18 -13 6 1 -10 14 -10 18 3 23 9 3 13 10 10 16 -3 5 1 10 10
10 9 0 19 -9 22 -20 6 -22 23 -28 23 -7 0 6 -13 21 -29 31 -28 19 -32 46 -6
46 6 0 27 7 45 16 26 13 37 14 51 5 23 -14 59 -15 59 -1 0 6 -5 10 -12 10 -6
0 -8 3 -5 7 4 3 1 13 -6 21 -10 12 -6 12 20 -1 46 -24 60 -21 68 13 4 16 10
30 13 31 4 0 15 2 25 4 12 2 21 -5 28 -22 9 -23 6 -30 -22 -55 -17 -16 -37
-27 -43 -25 -7 3 -13 -3 -13 -13 -2 -17 0 -17 33 2 19 11 34 24 34 29 0 5 5 9
10 9 11 0 26 11 58 41 26 25 62 41 78 35 8 -3 14 -1 14 4 0 6 -8 10 -17 11
-15 0 -15 2 2 9 28 12 65 13 46 1 -11 -7 -10 -12 8 -27 11 -10 21 -22 21 -27
0 -20 -43 -52 -73 -53 -55 -2 -89 -15 -82 -31 4 -12 0 -14 -15 -10 -22 6 -27
-12 -8 -31 16 -16 28 -15 28 3 0 10 10 15 31 15 27 0 31 3 26 21 -4 16 -3 18
8 9 10 -8 14 -7 18 7 4 17 5 17 6 1 0 -10 6 -18 12 -18 17 0 79 40 79 51 0 5
5 9 11 9 14 0 -2 -44 -59 -162 -2 -5 7 -8 20 -9 23 0 23 0 2 -9 -34 -13 -39
-30 -10 -30 23 0 31 -9 27 -32 0 -5 3 -8 9 -8 5 0 10 7 10 16 0 19 41 15 48
-5 3 -8 0 -11 -6 -7 -12 7 -62 -35 -62 -53 0 -16 18 -14 22 4 5 25 28 1 35
-37 4 -31 2 -38 -18 -48 -21 -12 -26 -9 -56 26 -26 31 -32 45 -28 68 4 25 2
28 -15 23 -11 -3 -20 -1 -20 3 0 12 -58 30 -97 30 -37 0 -72 -30 -73 -62 0
-10 -5 -18 -11 -18 -6 0 -8 9 -5 20 3 11 9 29 12 40 5 21 -10 28 -21 10 -3 -6
-16 -8 -29 -4 -19 4 -24 0 -34 -34 -18 -59 -16 -82 8 -82 11 0 42 -13 68 -30
27 -16 52 -30 56 -30 4 0 37 -17 74 -38 38 -22 88 -42 112 -46 24 -4 62 -16
84 -28 69 -35 76 -38 81 -38 2 0 4 121 4 270 1 293 4 276 -52 272 -10 -1 -25
2 -33 6 -10 6 1 12 36 21 l50 13 0 178 c0 122 -4 181 -11 186 -8 4 -10 28 -6
70 6 57 4 64 -12 64 -10 0 -30 -11 -45 -25 -35 -33 -52 -32 -65 5 -5 17 -16
30 -24 30 -8 0 -21 9 -28 20 -17 25 -103 30 -137 9 -27 -17 -27 -24 -3 -48 23
-23 23 -59 1 -71 -8 -4 -53 -11 -100 -15 -47 -4 -89 -9 -93 -12 -16 -10 -112
-11 -123 -2 -7 6 -56 12 -110 14 -65 3 -102 9 -109 17 -18 23 -76 39 -92 26
-8 -6 -35 -11 -61 -11 -26 0 -56 -6 -67 -13 -29 -21 -85 -17 -111 7 l-21 20
-38 -25 c-35 -24 -39 -25 -66 -11 -15 9 -32 14 -36 14 -4 -1 -26 6 -48 16 -22
10 -51 17 -65 16 -596 -39 -719 -40 -761 -10 -16 11 -44 19 -66 19 -38 0 -64
17 -98 65 -13 17 -16 18 -25 5 -9 -13 -12 -12 -25 5 -9 11 -14 26 -13 35 3 15
-8 31 -55 78 -15 16 -37 46 -48 68 -12 21 -28 51 -36 66 -25 48 -72 88 -103
88 -16 0 -34 2 -42 4 -7 2 -28 -5 -47 -17z m78 -324 c0 -5 -4 -17 -9 -28 -8
-18 -9 -17 -9 8 -1 15 4 27 9 27 6 0 10 -3 9 -7z m-9 -99 c0 -8 -5 -12 -10 -9
-6 4 -8 11 -5 16 9 14 15 11 15 -7z m370 -83 c0 -48 -17 -28 -26 29 -6 42 -5
44 10 25 8 -11 16 -36 16 -54z m1470 59 c0 -5 -4 -10 -10 -10 -5 0 -10 5 -10
10 0 6 5 10 10 10 6 0 10 -4 10 -10z m-1754 -50 c-2 -45 -16 -67 -16 -26 0 15
-5 36 -10 47 -9 16 -7 19 9 19 16 0 19 -6 17 -40z m131 -32 c-3 -8 -6 -5 -6 6
-1 11 2 17 5 13 3 -3 4 -12 1 -19z m-1274 -21 c-3 -5 4 -6 15 -3 11 4 23 2 27
-4 10 -17 3 -19 -34 -11 -25 5 -35 12 -36 28 -1 18 1 19 16 10 10 -6 15 -15
12 -20z m1384 1 c-3 -7 -5 -2 -5 12 0 14 2 19 5 13 2 -7 2 -19 0 -25z m-127
18 c0 -3 -4 -8 -10 -11 -5 -3 -10 -1 -10 4 0 6 5 11 10 11 6 0 10 -2 10 -4z
m189 -70 c-9 -8 -10 -7 -5 7 3 10 7 24 7 30 1 7 3 4 6 -7 3 -10 -1 -23 -8 -30z
m-219 16 c0 -11 9 -29 20 -42 11 -13 20 -29 20 -37 0 -17 -24 -12 -26 5 -3 25
-5 26 -19 8 -12 -16 -15 -17 -15 -4 0 9 -7 18 -14 21 -13 5 -13 10 0 36 17 35
34 41 34 13z m-53 -14 c-3 -8 -6 -5 -6 6 -1 11 2 17 5 13 3 -3 4 -12 1 -19z
m163 -13 c0 -8 -4 -17 -10 -20 -6 -4 -10 5 -10 20 0 15 4 24 10 20 6 -3 10
-12 10 -20z m-2030 5 c-10 -7 -11 -10 -2 -11 6 -1 17 -2 24 -3 7 0 15 -12 19
-26 4 -14 7 -19 8 -12 1 11 3 11 14 0 15 -16 20 -61 6 -52 -6 3 -8 12 -5 19 3
8 -4 13 -20 13 -24 0 -33 -21 -14 -33 6 -4 8 -11 4 -16 -3 -5 -9 -7 -14 -4 -5
3 3 -12 17 -34 21 -33 29 -38 41 -29 8 7 12 23 10 40 -7 46 10 36 67 -39 21
-29 47 -56 57 -59 10 -3 16 -10 13 -15 -4 -5 3 -9 14 -9 12 0 21 -4 21 -8 0
-5 12 -14 27 -21 23 -11 29 -10 39 4 10 14 15 10 34 -30 24 -49 40 -59 32 -20
-3 18 0 25 11 25 9 0 19 9 22 20 5 15 12 19 28 16 12 -3 16 -3 9 0 -6 3 -10 9
-7 13 2 5 -8 6 -23 3 -23 -4 -25 -3 -15 10 7 8 10 18 6 21 -3 4 3 7 15 7 12 0
22 -3 22 -7 0 -5 15 -25 33 -45 34 -39 57 -49 57 -24 0 10 7 12 22 8 12 -3 17
-7 10 -10 -7 -2 -10 -8 -6 -13 3 -5 1 -9 -4 -9 -6 0 -12 -7 -15 -14 -4 -10 -1
-13 9 -9 21 8 17 -15 -5 -29 -15 -9 -17 -15 -9 -26 9 -10 6 -14 -10 -19 -12
-3 -22 -9 -22 -14 0 -5 -7 -9 -15 -9 -8 0 -19 -9 -25 -19 -13 -26 -13 -34 2
-25 6 4 8 3 5 -3 -8 -12 -59 -26 -102 -27 -16 -1 -36 -5 -42 -9 -16 -10 -17
-28 -1 -25 6 2 14 -5 16 -14 3 -15 -2 -17 -26 -12 -25 5 -31 2 -37 -16 -4 -13
-19 -33 -34 -46 -27 -24 -47 -32 -36 -13 5 7 -3 9 -21 6 -45 -8 -63 -17 -69
-38 -4 -11 -22 -34 -41 -52 -64 -60 -62 -59 -76 -37 -7 11 -18 20 -24 20 -23
0 -80 78 -75 105 1 6 -5 1 -14 -9 -12 -16 -17 -17 -30 -6 -23 19 -48 5 -41
-25 5 -19 2 -25 -9 -25 -21 0 -30 27 -16 44 10 11 8 15 -6 20 -10 3 -6 4 10 2
31 -4 44 9 28 28 -6 7 -7 17 -3 21 4 5 1 5 -6 1 -7 -4 -15 -1 -18 9 -4 9 -13
13 -23 10 -12 -3 -17 1 -18 15 -2 21 30 29 42 10 15 -24 24 -7 10 20 -8 16
-15 37 -14 47 0 14 3 12 12 -7 14 -31 29 -42 38 -28 4 6 10 -2 13 -19 5 -20
13 -29 26 -29 27 0 25 18 -5 51 -20 21 -23 30 -15 41 9 10 8 21 -3 44 -15 28
-14 30 4 30 10 0 19 5 19 10 0 6 7 10 15 10 8 0 15 -7 15 -16 0 -14 3 -14 15
-4 18 15 19 8 3 -23 -31 -60 -31 -60 -12 -74 21 -16 34 -17 34 -3 0 6 4 10 9
10 4 0 8 -18 8 -40 0 -35 -2 -38 -18 -29 -11 5 -19 16 -19 23 0 8 -7 16 -15
20 -19 7 -19 5 0 -30 10 -20 13 -43 9 -77 -6 -41 -4 -51 14 -67 12 -11 26 -20
31 -20 6 0 8 -7 5 -15 -6 -16 4 -19 30 -9 9 3 13 10 10 15 -3 5 3 9 13 10 13
1 11 3 -6 8 -39 11 -36 30 8 49 39 16 40 18 27 43 -7 14 -15 44 -18 67 -5 34
-3 42 10 43 16 1 16 2 1 6 -19 5 -32 63 -18 77 8 9 14 -5 10 -27 -1 -4 8 -3
19 3 33 18 24 63 -15 73 -18 4 -18 5 3 6 12 0 22 6 22 11 0 6 -10 14 -22 19
-13 5 -29 18 -37 30 -12 15 -18 18 -28 9 -22 -18 -38 5 -18 25 12 12 13 21 6
35 -16 30 -1 34 21 7 24 -31 44 -33 24 -2 -10 15 -12 27 -6 37 7 11 3 21 -13
35 -13 11 -33 34 -45 51 -18 27 -20 35 -9 58 7 16 18 24 26 21 11 -4 11 -3 2
9 -14 16 -7 36 12 36 7 0 6 -4 -3 -10z m1842 -34 c4 -17 1 -23 -9 -19 -14 6
-18 43 -4 43 5 0 11 -11 13 -24z m145 -8 c-3 -8 -6 -5 -6 6 -1 11 2 17 5 13 3
-3 4 -12 1 -19z m193 -11 c0 -6 -7 -2 -16 9 -15 18 -15 18 -9 -3 4 -14 2 -23
-4 -23 -12 0 -15 33 -4 43 8 8 33 -12 33 -26z m-1385 2 c11 -16 1 -19 -13 -3
-7 8 -8 14 -3 14 5 0 13 -5 16 -11z m-355 -52 c0 -5 -4 -5 -10 -2 -5 3 -10 14
-10 23 0 15 2 15 10 2 5 -8 10 -19 10 -23z m1800 23 c0 -5 -2 -10 -4 -10 -3 0
-8 5 -11 10 -3 6 -1 10 4 10 6 0 11 -4 11 -10z m-1783 -22 c-3 -8 -6 -5 -6 6
-1 11 2 17 5 13 3 -3 4 -12 1 -19z m63 3 c0 -6 -10 -8 -21 -6 -33 6 -36 15 -6
15 15 0 27 -4 27 -9z m-566 -13 c-3 -4 -11 -5 -19 -1 -21 7 -19 12 4 10 11 0
18 -5 15 -9z m3345 -18 c-5 -4 -7 -14 -3 -24 5 -13 0 -11 -20 7 -36 33 -34 48
4 34 16 -6 25 -14 19 -17z m-2769 4 c0 -2 -7 -4 -15 -4 -8 0 -15 4 -15 10 0 5
7 7 15 4 8 -4 15 -8 15 -10z m1370 -5 c0 -6 -4 -7 -10 -4 -5 3 -10 11 -10 16
0 6 5 7 10 4 6 -3 10 -11 10 -16z m386 -16 c-11 -11 -19 6 -11 24 8 17 8 17
12 0 3 -10 2 -21 -1 -24z m-1821 17 c-3 -5 -13 -10 -21 -10 -8 0 -12 5 -9 10
3 6 13 10 21 10 8 0 12 -4 9 -10z m3853 -13 c7 -9 18 -14 24 -11 7 4 8 2 4 -5
-6 -8 -12 -9 -20 -2 -8 7 -24 7 -46 1 -36 -10 -55 -6 -21 5 12 3 21 13 21 21
0 18 21 14 38 -9z m-2456 -9 c-17 -17 -15 -48 2 -48 8 0 16 10 19 23 2 12 3 1
4 -25 0 -56 -18 -64 -41 -17 -12 23 -13 36 -4 55 6 13 16 24 22 24 6 0 5 -5
-2 -12z m110 -34 c-5 -29 -8 -30 -22 -4 -13 24 -5 41 14 34 8 -3 11 -15 8 -30z
m589 23 c-1 -12 -15 -9 -19 4 -3 6 1 10 8 8 6 -3 11 -8 11 -12z m-2626 -55
c26 -29 35 -47 27 -49 -6 -3 -9 -9 -6 -14 10 -16 12 -99 3 -93 -5 3 -9 11 -9
19 0 17 -31 28 -44 15 -7 -7 -2 -10 15 -10 23 -1 23 -1 5 -15 -29 -22 -34 -19
-42 23 -4 20 -11 42 -15 48 -5 6 -7 31 -5 55 3 24 5 52 5 61 1 24 19 13 66
-40z m841 32 c-5 -17 -3 -23 4 -19 5 3 10 1 10 -4 0 -6 -7 -11 -15 -11 -8 0
-15 -5 -15 -11 0 -5 -5 -7 -12 -3 -8 5 -9 2 -5 -9 7 -19 6 -20 -17 -11 -23 9
-19 21 9 28 14 4 25 11 25 17 0 6 -4 8 -9 4 -5 -3 -12 -1 -16 5 -3 6 4 10 17
10 22 1 22 1 4 15 -19 15 -19 15 3 15 20 0 22 -4 17 -26z m-56 -14 c0 -5 -5
-10 -11 -10 -5 0 -7 5 -4 10 3 6 8 10 11 10 2 0 4 -4 4 -10z m3425 -10 c3 -5
2 -10 -4 -10 -5 0 -13 5 -16 10 -3 6 -2 10 4 10 5 0 13 -4 16 -10z m-1611 -16
c3 -8 2 -12 -4 -9 -6 3 -10 10 -10 16 0 14 7 11 14 -7z m-427 -26 c-3 -7 -5
-2 -5 12 0 14 2 19 5 13 2 -7 2 -19 0 -25z m-157 3 c0 -5 -7 -11 -14 -14 -10
-4 -13 -1 -9 9 6 15 23 19 23 5z m-1660 -11 c24 -15 7 -18 -20 -3 -14 7 -18
13 -10 13 8 0 22 -4 30 -10z m50 0 c0 -5 -8 -10 -17 -10 -15 0 -16 2 -3 10 19
12 20 12 20 0z m-493 -6 c-3 -3 -12 -4 -19 -1 -8 3 -5 6 6 6 11 1 17 -2 13 -5z
m913 -51 c0 -6 6 -14 13 -16 9 -4 9 -6 0 -6 -7 -1 -17 8 -23 19 -6 11 -17 20
-25 20 -9 0 -15 9 -15 21 0 21 0 21 25 -2 13 -13 25 -29 25 -36z m2031 34
c-10 -9 -11 -8 -5 6 3 10 9 15 12 12 3 -3 0 -11 -7 -18z m704 13 c-3 -5 -12
-10 -18 -10 -7 0 -6 4 3 10 19 12 23 12 15 0z m-2535 -4 c0 -11 -19 -15 -25
-6 -3 5 1 10 9 10 9 0 16 -2 16 -4z m-1156 -22 c5 -14 4 -15 -9 -4 -17 14 -19
20 -6 20 5 0 12 -7 15 -16z m50 -9 c3 -8 0 -17 -6 -21 -11 -7 -28 13 -28 33 0
16 27 6 34 -12z m2097 -21 c-9 -28 -9 -29 -10 -3 -1 14 2 29 6 32 11 12 13 2
4 -29z m546 30 c-3 -3 -12 -4 -19 -1 -8 3 -5 6 6 6 11 1 17 -2 13 -5z m-1542
-24 c3 -5 -1 -10 -9 -10 -9 0 -16 5 -16 10 0 6 4 10 9 10 6 0 13 -4 16 -10z
m2520 -10 c-3 -5 -12 -10 -18 -10 -7 0 -6 4 3 10 19 12 23 12 15 0z m-2742
-27 c-5 -13 -2 -15 15 -11 14 4 19 2 15 -8 -2 -7 -11 -10 -19 -7 -17 6 -36 38
-27 46 11 11 22 -3 16 -20z m194 13 c4 -8 12 -15 18 -15 5 0 11 -4 13 -9 3
-11 -48 -3 -65 11 -7 5 -13 13 -13 18 0 15 38 10 47 -5z m1511 -11 c-3 -3 -9
2 -12 12 -6 14 -5 15 5 6 7 -7 10 -15 7 -18z m-1408 1 c0 -2 -7 -7 -16 -10 -8
-3 -12 -2 -9 4 6 10 25 14 25 6z m2387 -12 c-3 -3 -12 -4 -19 -1 -8 3 -5 6 6
6 11 1 17 -2 13 -5z m-2547 -13 c0 -12 -20 -25 -27 -18 -7 7 6 27 18 27 5 0 9
-4 9 -9z m-133 -17 c-3 -3 -12 -4 -19 -1 -8 3 -5 6 6 6 11 1 17 -2 13 -5z
m3713 -24 c-6 -11 -18 -20 -27 -20 -14 0 -14 2 2 20 10 11 22 20 27 20 5 0 4
-9 -2 -20z m-3690 0 c0 -5 -7 -10 -15 -10 -8 0 -15 5 -15 10 0 6 7 10 15 10 8
0 15 -4 15 -10z m2875 -20 c3 -5 -1 -10 -10 -10 -9 0 -13 5 -10 10 3 6 8 10
10 10 2 0 7 -4 10 -10z m-893 -65 c-6 -34 -12 -32 -12 6 0 16 4 28 9 25 4 -3
6 -17 3 -31z m1683 25 c-3 -5 -11 -10 -16 -10 -6 0 -7 5 -4 10 3 6 11 10 16
10 6 0 7 -4 4 -10z m-3778 -36 c-9 -9 -28 6 -21 18 4 6 10 6 17 -1 6 -6 8 -13
4 -17z m13 -38 c0 -3 -4 -8 -10 -11 -5 -3 -10 -1 -10 4 0 6 5 11 10 11 6 0 10
-2 10 -4z m-243 -12 c-3 -3 -12 -4 -19 -1 -8 3 -5 6 6 6 11 1 17 -2 13 -5z
m-646 -30 c12 -14 11 -16 -5 -13 -11 2 -21 10 -24 17 -5 17 13 15 29 -4z
m2969 -14 c0 -5 -2 -10 -4 -10 -3 0 -8 5 -11 10 -3 6 -1 10 4 10 6 0 11 -4 11
-10z m-3 -62 c-3 -7 -5 -2 -5 12 0 14 2 19 5 13 2 -7 2 -19 0 -25z m1706 22
c-16 -6 -20 -14 -16 -31 5 -18 3 -20 -14 -15 -13 4 -25 1 -33 -9 -10 -12 -15
-13 -20 -4 -13 20 -32 -1 -26 -27 5 -19 2 -24 -14 -24 -11 0 -20 4 -20 10 0 5
-7 7 -16 3 -12 -4 -15 -1 -13 12 3 10 20 24 42 31 21 8 52 25 69 39 16 14 42
25 56 24 26 0 26 -1 5 -9z m-4097 -52 c-15 -10 -19 -3 -10 24 7 22 7 22 14 3
4 -11 3 -23 -4 -27z m108 27 c-4 -8 -10 -15 -15 -15 -4 0 -6 7 -3 15 4 8 10
15 15 15 4 0 6 -7 3 -15z m332 -27 c5 -8 2 -9 -9 -5 -10 4 -17 1 -17 -5 0 -6
-3 -9 -6 -5 -7 7 4 27 16 27 5 0 12 -5 16 -12z m-356 -7 c0 -6 -4 -13 -10 -16
-5 -3 -7 -23 -5 -43 4 -29 3 -33 -5 -19 -6 9 -15 17 -19 17 -9 0 -8 -31 2 -47
10 -17 -28 -26 -53 -13 -11 6 -20 14 -20 18 1 4 21 27 45 52 25 25 45 48 45
53 0 4 5 7 10 7 6 0 10 -4 10 -9z m340 -81 c4 0 6 -9 3 -21 -3 -11 -11 -18
-19 -15 -7 3 -16 0 -20 -6 -5 -7 -11 -3 -16 12 -7 18 -4 26 12 37 11 8 21 24
22 36 1 12 3 8 5 -10 2 -18 8 -33 13 -33z m-923 3 c-3 -3 -10 -2 -16 2 -7 4
-7 10 2 20 10 11 13 11 15 -2 2 -8 1 -17 -1 -20z m833 17 c10 -16 0 -51 -12
-44 -5 3 -6 14 -3 25 4 11 2 19 -4 19 -6 0 -11 -3 -11 -7 0 -15 -49 -8 -59 9
-9 14 -5 16 36 13 25 -1 49 -8 53 -15z m238 -2 c-3 -7 -11 -13 -18 -13 -7 0
-15 6 -17 13 -3 7 4 12 17 12 13 0 20 -5 18 -12z m-908 -23 c10 -12 10 -15 -3
-15 -8 0 -17 7 -21 15 -3 8 -2 15 3 15 5 0 14 -7 21 -15z m-318 -72 c29 -32
46 -42 70 -45 12 -2 32 -10 43 -18 22 -16 31 -40 15 -40 -5 0 -10 3 -10 8 0 8
-12 15 -76 46 -22 10 -47 29 -57 42 -21 28 -9 32 15 7z m309 -14 c-9 -22 -10
-22 -10 -3 -1 11 2 24 6 27 12 12 14 0 4 -24z m533 -16 c-4 -10 -7 -28 -7 -40
1 -25 -4 -28 -27 -13 -9 6 -10 10 -3 10 6 0 14 14 18 30 4 17 11 30 17 30 6 0
7 -7 2 -17z m-563 -7 c-9 -11 -9 -15 1 -20 7 -3 1 -3 -14 0 -18 4 -29 1 -35
-11 -13 -23 -20 -23 -37 0 -9 11 -16 14 -16 8 0 -18 -17 -16 -24 2 -5 15 12
16 45 1 10 -4 30 1 50 13 40 25 45 26 30 7z m196 -131 c-3 -34 -21 -64 -32
-53 -3 3 -1 16 4 29 5 13 12 32 15 42 9 28 15 20 13 -18z m-257 14 c0 -6 7 -9
15 -5 10 4 15 -1 15 -14 0 -14 -7 -20 -21 -20 -11 0 -45 -14 -76 -31 -44 -25
-57 -28 -64 -18 -8 14 6 21 65 34 20 5 45 33 46 53 0 15 20 16 20 1z m205 1
c4 -6 -5 -9 -19 -8 -15 1 -26 6 -26 10 0 12 38 10 45 -2z m-162 -57 c7 -6 -40
-43 -54 -43 -4 0 -9 6 -12 14 -4 11 1 14 21 13 17 -1 26 3 25 11 -3 13 9 16
20 5z m-75 -48 c-3 -3 -9 2 -12 12 -6 14 -5 15 5 6 7 -7 10 -15 7 -18z m312
-7 c0 -5 -4 -8 -10 -8 -5 0 -10 5 -10 11 0 5 -4 7 -10 4 -5 -3 -10 1 -10 9 0
14 3 14 20 4 11 -7 20 -16 20 -20z m-440 -23 c-13 -14 -28 -25 -34 -25 -13 0
35 49 48 49 5 1 -1 -10 -14 -24z m292 -30 c-7 -15 -16 -24 -21 -20 -15 9 -24
-16 -11 -28 10 -9 14 -9 17 1 4 10 8 10 19 1 20 -17 -1 -39 -37 -39 -31 0 -31
-1 -17 97 1 7 5 10 9 8 3 -3 12 2 19 11 20 24 36 1 22 -31z m101 25 c-3 -11
-9 -20 -14 -20 -11 0 -11 3 -3 24 9 23 23 20 17 -4z m-228 -40 c0 -17 -6 -35
-14 -39 -7 -5 -10 -14 -7 -20 4 -6 3 -11 -2 -11 -6 0 -19 -14 -30 -31 -18 -29
-20 -30 -37 -13 -16 16 -16 19 -1 29 9 7 16 17 16 24 0 6 5 11 10 11 6 0 10 5
10 11 0 11 41 67 50 68 3 1 5 -13 5 -29z m-215 6 c0 -11 -19 -15 -25 -6 -3 5
1 10 9 10 9 0 16 -2 16 -4z m-83 -12 c-3 -3 -12 -4 -19 -1 -8 3 -5 6 6 6 11 1
17 -2 13 -5z m513 -24 c0 -5 -4 -10 -10 -10 -5 0 -10 5 -10 10 0 6 5 10 10 10
6 0 10 -4 10 -10z m-330 -47 c0 -5 -11 -8 -24 -8 -13 0 -22 3 -19 8 2 4 13 7
24 7 10 0 19 -3 19 -7z m320 3 c0 -3 -4 -8 -10 -11 -5 -3 -10 -1 -10 4 0 6 5
11 10 11 6 0 10 -2 10 -4z m-170 -36 c0 -5 -2 -10 -4 -10 -3 0 -8 5 -11 10 -3
6 -1 10 4 10 6 0 11 -4 11 -10z m-50 -4 c0 -3 -4 -8 -10 -11 -5 -3 -10 -1 -10
4 0 6 5 11 10 11 6 0 10 -2 10 -4z m-82 -68 c-6 -17 -78 -23 -78 -8 0 8 10 9
30 5 19 -4 30 -3 30 4 0 6 5 11 11 11 6 0 9 -6 7 -12z m-152 -65 c-10 -10 -19
5 -10 18 6 11 8 11 12 0 2 -7 1 -15 -2 -18z"/>
<path d="M435 1690 c3 -5 8 -10 11 -10 2 0 4 5 4 10 0 6 -5 10 -11 10 -5 0 -7
-4 -4 -10z"/>
<path d="M499 1523 c0 -5 -2 -18 -3 -30 -2 -13 3 -23 9 -23 7 0 10 11 7 30 -4
28 -11 40 -13 23z"/>
<path d="M860 1430 c0 -5 5 -10 11 -10 5 0 7 5 4 10 -3 6 -8 10 -11 10 -2 0
-4 -4 -4 -10z"/>
<path d="M946 1395 c4 -8 7 -15 9 -15 2 0 5 7 9 15 3 9 0 15 -9 15 -9 0 -12
-6 -9 -15z"/>
<path d="M757 1379 c7 -7 15 -10 18 -7 3 3 -2 9 -12 12 -14 6 -15 5 -6 -5z"/>
<path d="M720 1376 c0 -3 9 -10 20 -16 11 -6 20 -8 20 -6 0 3 -9 10 -20 16
-11 6 -20 8 -20 6z"/>
<path d="M820 1350 c0 -5 5 -10 10 -10 6 0 10 5 10 10 0 6 -4 10 -10 10 -5 0
-10 -4 -10 -10z"/>
<path d="M841 1246 c-10 -12 -8 -13 8 -9 12 3 18 9 15 14 -7 12 -10 11 -23 -5z"/>
<path d="M775 930 c-3 -5 -1 -10 4 -10 6 0 11 5 11 10 0 6 -2 10 -4 10 -3 0
-8 -4 -11 -10z"/>
<path d="M2140 1810 c0 -5 5 -10 11 -10 5 0 7 5 4 10 -3 6 -8 10 -11 10 -2 0
-4 -4 -4 -10z"/>
<path d="M1096 1671 c-3 -5 0 -11 8 -14 8 -3 17 1 20 9 6 15 -19 20 -28 5z"/>
<path d="M35 1650 c3 -5 8 -10 11 -10 2 0 4 5 4 10 0 6 -5 10 -11 10 -5 0 -7
-4 -4 -10z"/>
<path d="M2075 1640 c3 -6 8 -52 9 -103 4 -104 10 -126 35 -124 13 1 16 7 13
24 -2 13 -7 23 -11 23 -3 0 -7 21 -8 48 -4 63 -23 142 -35 142 -5 0 -6 -5 -3
-10z"/>
<path d="M2581 1624 c0 -11 3 -14 6 -6 3 7 2 16 -1 19 -3 4 -6 -2 -5 -13z"/>
<path d="M46 1612 c6 -4 14 -16 17 -26 4 -10 10 -16 13 -13 9 8 -15 47 -29 47
-8 0 -9 -3 -1 -8z"/>
<path d="M1410 1570 c0 -5 5 -10 10 -10 6 0 10 5 10 10 0 6 -4 10 -10 10 -5 0
-10 -4 -10 -10z"/>
<path d="M1735 1570 c3 -5 8 -10 11 -10 2 0 4 5 4 10 0 6 -5 10 -11 10 -5 0
-7 -4 -4 -10z"/>
<path d="M1880 1556 c0 -8 4 -17 9 -20 5 -4 7 3 4 14 -6 23 -13 26 -13 6z"/>
<path d="M1827 1524 c5 -13 3 -16 -10 -11 -12 4 -17 1 -17 -11 0 -11 8 -18 20
-18 14 0 20 7 20 23 0 12 -4 25 -10 28 -6 4 -7 -1 -3 -11z"/>
<path d="M1440 1526 c0 -2 7 -7 16 -10 8 -3 12 -2 9 4 -6 10 -25 14 -25 6z"/>
<path d="M4688 1503 c7 -3 16 -2 19 1 4 3 -2 6 -13 5 -11 0 -14 -3 -6 -6z"/>
<path d="M1890 1475 c0 -3 9 -15 20 -27 23 -25 38 -18 19 9 -13 17 -39 29 -39
18z"/>
<path d="M1826 1455 c4 -8 11 -15 16 -15 6 0 5 6 -2 15 -7 8 -14 15 -16 15 -2
0 -1 -7 2 -15z"/>
<path d="M1692 1429 c2 -7 10 -15 17 -17 8 -3 12 1 9 9 -2 7 -10 15 -17 17 -8
3 -12 -1 -9 -9z"/>
<path d="M1750 1428 c0 -11 12 -10 30 2 12 7 10 9 -8 7 -12 0 -22 -5 -22 -9z"/>
<path d="M2700 1404 c5 -19 12 -39 16 -42 4 -4 4 1 1 11 -4 10 -7 30 -7 43 0
13 -4 24 -9 24 -5 0 -5 -15 -1 -36z"/>
<path d="M3435 1430 c-3 -5 -1 -10 4 -10 6 0 11 5 11 10 0 6 -2 10 -4 10 -3 0
-8 -4 -11 -10z"/>
<path d="M4303 1423 c9 -9 20 -13 24 -9 4 4 1 11 -7 16 -25 16 -35 11 -17 -7z"/>
<path d="M4518 1433 c6 -2 18 -2 25 0 6 3 1 5 -13 5 -14 0 -19 -2 -12 -5z"/>
<path d="M1820 1400 c-9 -6 -10 -10 -3 -10 6 0 15 5 18 10 8 12 4 12 -15 0z"/>
<path d="M1892 1398 c-6 -6 -31 -21 -54 -33 -53 -27 -59 -47 -18 -62 28 -11
30 -10 25 8 -9 28 9 23 25 -6 8 -15 28 -29 49 -35 47 -13 51 -13 51 5 0 10
-10 15 -29 15 -16 0 -35 7 -42 16 -12 15 -10 16 16 10 82 -16 95 -16 95 -1 0
10 -10 15 -32 16 -85 2 -102 19 -20 19 56 0 62 2 62 21 0 11 -4 18 -9 14 -5
-3 -12 -1 -15 3 -3 5 -16 7 -30 5 -13 -3 -33 0 -43 6 -14 7 -23 7 -31 -1z"/>
<path d="M4470 1400 c-13 -8 -12 -10 3 -10 9 0 17 5 17 10 0 12 -1 12 -20 0z"/>
<path d="M1670 1370 c0 -18 -3 -19 -21 -10 -18 10 -20 9 -17 -6 3 -19 46 -25
88 -13 l25 7 -27 1 c-17 1 -28 7 -28 15 0 8 -4 18 -10 21 -5 3 -10 -3 -10 -15z"/>
<path d="M2126 1381 c-4 -5 -2 -12 3 -15 5 -4 12 -2 15 3 4 5 2 12 -3 15 -5 4
-12 2 -15 -3z"/>
<path d="M4290 1368 c0 -4 6 -8 14 -8 8 0 17 4 20 8 2 4 -4 8 -15 8 -10 0 -19
-4 -19 -8z"/>
<path d="M3460 1360 c0 -5 5 -10 11 -10 5 0 7 5 4 10 -3 6 -8 10 -11 10 -2 0
-4 -4 -4 -10z"/>
<path d="M2210 1345 c0 -8 5 -15 10 -15 6 0 10 7 10 15 0 8 -4 15 -10 15 -5 0
-10 -7 -10 -15z"/>
<path d="M4495 1350 c-11 -5 -15 -9 -8 -9 6 -1 18 -4 26 -7 8 -3 17 2 20 10 7
18 -7 20 -38 6z"/>
<path d="M1561 1333 c-12 -13 -12 -16 0 -24 23 -14 39 -10 39 10 0 25 -21 32
-39 14z"/>
<path d="M3590 1320 c0 -5 5 -10 11 -10 5 0 7 5 4 10 -3 6 -8 10 -11 10 -2 0
-4 -4 -4 -10z"/>
<path d="M4450 1309 c0 -11 5 -19 11 -17 6 2 10 8 9 13 -1 5 7 12 17 16 14 6
12 8 -9 8 -22 1 -28 -4 -28 -20z"/>
<path d="M2072 1304 c-17 -19 -7 -34 22 -34 13 0 35 -9 49 -20 32 -26 57 -26
57 0 0 20 -30 41 -65 47 -11 2 -21 8 -23 13 -5 14 -25 12 -40 -6z m88 -34 c0
-5 -7 -7 -15 -4 -8 4 -15 8 -15 10 0 2 7 4 15 4 8 0 15 -4 15 -10z"/>
<path d="M3569 1288 c-1 -18 -1 -53 1 -77 1 -31 -1 -41 -10 -36 -6 4 -10 16
-7 26 3 11 1 19 -4 19 -21 0 -3 -58 28 -88 16 -17 17 -32 1 -32 -10 0 -10 -2
0 -9 10 -6 8 -10 -8 -14 -20 -5 -21 -7 -6 -36 9 -16 24 -35 33 -40 17 -10 17
-10 1 -11 -23 0 -23 -16 -2 -24 9 -4 24 0 33 8 15 14 20 14 45 1 46 -24 89
-19 124 14 19 19 32 25 35 18 3 -9 11 -8 33 3 16 8 32 19 36 25 4 6 12 3 20
-8 13 -17 15 -17 40 6 28 26 37 20 33 -20 -1 -13 1 -21 3 -18 10 10 31 -17 25
-32 -8 -22 23 -43 64 -43 26 0 33 4 33 20 0 13 5 18 15 14 8 -4 15 -16 15 -29
0 -19 -4 -22 -22 -17 -14 3 -19 2 -14 -6 4 -7 13 -12 21 -12 7 0 23 -12 35
-27 26 -34 57 -52 88 -53 13 0 20 -4 17 -10 -4 -6 5 -20 19 -31 14 -11 26 -26
26 -33 0 -6 9 -30 21 -51 11 -22 22 -65 25 -95 2 -30 6 -65 9 -78 4 -15 1 -21
-7 -20 -7 2 -12 -5 -12 -14 1 -10 -1 -16 -5 -14 -4 3 -18 -4 -31 -15 -23 -17
-23 -19 -5 -19 19 -1 19 -2 -4 -20 -13 -11 -29 -20 -36 -20 -8 0 -13 -9 -12
-20 1 -23 12 -26 24 -7 4 7 20 20 34 29 15 9 42 31 60 47 36 33 83 41 93 16 3
-9 0 -15 -8 -15 -12 0 -31 -29 -24 -35 2 -2 37 29 78 67 51 48 65 65 44 55
-17 -9 -35 -13 -39 -9 -5 4 -5 2 -2 -4 10 -17 -34 -42 -60 -35 l-22 6 30 48
c18 29 42 54 61 61 21 9 27 16 18 21 -10 6 -9 10 3 17 11 6 26 2 49 -13 30
-19 31 -20 7 -15 -24 5 -26 3 -25 -24 1 -30 16 -44 16 -15 0 8 6 12 14 9 34
-13 55 96 22 118 -16 11 -80 10 -92 -2 -13 -13 -57 18 -50 36 3 8 0 14 -8 14
-16 0 -76 53 -76 68 0 37 -139 122 -200 122 -23 0 -30 4 -30 20 0 13 -7 20
-19 20 -16 0 -37 37 -26 48 10 11 55 8 55 -4 0 -9 10 -11 34 -7 21 3 36 1 41
-7 6 -9 4 -11 -5 -5 -10 6 -12 4 -7 -8 4 -12 1 -17 -11 -17 -16 -1 -16 -1 1
-11 9 -5 22 -7 27 -4 6 3 10 1 10 -5 0 -7 6 -10 13 -7 7 3 24 -1 38 -9 13 -7
18 -13 10 -14 -11 0 -12 -3 -3 -12 8 -8 15 -8 26 2 13 10 17 9 22 -4 3 -9 42
-35 85 -57 104 -54 259 -199 259 -242 0 -44 19 -29 62 49 33 59 38 75 33 113
-4 34 -13 51 -38 73 -17 16 -31 37 -29 46 2 14 1 14 -7 3 -7 -11 -14 -9 -35
14 -27 29 -51 45 -95 65 -19 8 -26 8 -33 -2 -6 -10 -8 -8 -8 5 0 9 -6 17 -14
17 -7 0 -30 11 -50 25 -20 13 -60 34 -89 46 -28 11 -60 25 -69 30 -28 15 -38
11 -38 -15 0 -36 -18 -78 -30 -71 -8 5 -7 12 2 23 7 9 8 13 3 10 -6 -4 -15 5
-22 18 -6 13 -7 24 -2 24 5 0 9 5 9 11 0 6 10 19 23 30 13 11 17 18 8 19 -7 0
-22 -11 -33 -26 -18 -22 -26 -24 -63 -20 -32 3 -45 1 -49 -10 -6 -16 -46 -20
-46 -4 0 5 7 7 15 4 8 -4 15 -1 15 5 0 6 -13 11 -30 11 -16 0 -30 -4 -30 -10
0 -5 5 -10 12 -10 6 0 9 -2 7 -4 -2 -2 -29 0 -59 4 -37 5 -58 4 -63 -4 -5 -7
-12 -5 -22 8 -8 11 -15 15 -15 8 0 -6 -11 -14 -25 -18 -14 -3 -25 -10 -25 -16
0 -5 -4 -6 -10 -3 -5 3 -10 2 -10 -3 0 -6 -10 -8 -22 -6 -13 2 -17 2 -10 -2 6
-3 12 -11 12 -17 0 -6 -8 -4 -17 6 -16 16 -16 18 2 32 11 8 25 13 32 10 6 -2
19 3 30 10 16 13 15 14 -19 13 -25 -1 -38 -6 -38 -15 0 -20 -20 -16 -41 10
-18 21 -18 21 -19 2 -1 -17 -2 -18 -10 -4 -5 9 -12 31 -15 50 -3 19 -18 46
-32 62 -15 15 -28 34 -29 44 -2 9 -9 22 -17 30 -12 13 -17 12 -33 -4 -16 -17
-17 -17 -11 0 4 12 1 17 -11 17 -10 0 -28 7 -40 16 -21 15 -22 14 -23 -18z
m121 -210 c0 -5 9 -17 19 -27 19 -19 19 -20 -9 -26 -16 -4 -28 -11 -27 -18 3
-17 -50 -18 -64 -1 -17 20 5 60 38 69 22 5 23 8 11 22 -12 15 -11 15 10 2 12
-8 22 -17 22 -21z m80 -38 c0 -5 -4 -10 -9 -10 -6 0 -13 5 -16 10 -3 6 1 10 9
10 9 0 16 -4 16 -10z m296 -5 c23 -12 25 -15 11 -21 -23 -8 -47 2 -47 21 0 18
1 18 36 0z m644 -219 c0 -3 -4 -8 -10 -11 -5 -3 -10 -1 -10 4 0 6 5 11 10 11
6 0 10 -2 10 -4z"/>
<path d="M4261 1304 c0 -11 3 -14 6 -6 3 7 2 16 -1 19 -3 4 -6 -2 -5 -13z"/>
<path d="M4145 1300 c3 -5 10 -10 16 -10 5 0 9 5 9 10 0 6 -7 10 -16 10 -8 0
-12 -4 -9 -10z"/>
<path d="M4400 1300 c0 -4 7 -13 15 -20 10 -9 15 -9 15 -1 0 6 1 14 3 18 1 3
-6 7 -15 9 -10 1 -18 -1 -18 -6z"/>
<path d="M1535 1281 c44 -9 82 -15 84 -14 17 12 -66 33 -124 32 -32 -1 -24 -4
40 -18z"/>
<path d="M1730 1280 c0 -5 7 -10 15 -10 8 0 15 5 15 10 0 6 -7 10 -15 10 -8 0
-15 -4 -15 -10z"/>
<path d="M2243 1270 c3 -11 1 -23 -4 -26 -15 -9 0 -24 23 -24 18 0 19 2 7 16
-10 12 1 9 36 -8 28 -14 55 -24 60 -22 6 2 17 -11 25 -29 9 -20 24 -33 38 -35
12 -2 22 -8 22 -13 0 -5 14 -23 30 -41 33 -34 37 -48 15 -48 -8 0 -15 -4 -15
-10 0 -5 9 -10 20 -10 11 0 20 -4 20 -10 0 -5 -4 -10 -10 -10 -5 0 -10 -9 -10
-20 0 -18 4 -20 35 -14 31 5 35 4 35 -15 0 -11 9 -25 20 -31 11 -6 18 -15 15
-20 -4 -6 1 -7 11 -3 13 5 15 3 9 -7 -5 -8 -4 -11 2 -7 6 4 22 -3 37 -14 14
-11 26 -18 26 -14 0 3 12 -2 26 -12 25 -16 27 -16 40 2 18 24 18 39 0 32 -8
-3 -23 4 -33 16 -31 34 -36 47 -19 47 9 0 13 -6 10 -14 -9 -23 37 -32 52 -11
12 16 15 16 46 -3 24 -14 40 -17 61 -11 23 6 26 5 18 -5 -8 -10 -7 -17 4 -26
21 -17 11 -27 -35 -35 -22 -4 -38 -10 -35 -15 3 -4 14 -6 25 -3 11 3 20 1 20
-4 0 -5 -19 -10 -42 -12 -55 -3 -63 -11 -12 -11 21 0 48 -7 58 -15 11 -8 36
-15 55 -14 20 0 30 3 24 6 -7 2 -13 17 -13 31 l1 27 13 -24 c13 -23 13 -23 19
-2 3 13 13 21 26 21 19 0 20 -2 9 -20 -7 -11 -16 -20 -20 -20 -5 0 -8 -4 -8
-10 0 -5 17 -8 38 -7 23 2 36 7 35 15 -4 15 24 16 29 2 2 -6 20 -13 41 -16 30
-3 37 -1 37 13 0 15 2 16 10 3 5 -8 10 -10 10 -4 0 7 15 10 39 8 32 -3 42 1
54 20 18 27 6 46 -28 46 -18 -1 -18 -1 -2 -11 25 -15 21 -32 -5 -23 -13 5 -52
9 -88 9 -78 2 -120 17 -120 44 0 14 -9 21 -31 26 -37 8 -28 21 24 30 24 5 37
4 37 -4 0 -6 6 -11 13 -11 16 0 17 41 2 57 -15 15 -47 20 -62 10 -7 -5 -21 -3
-30 3 -16 10 -16 11 -1 6 12 -3 15 -1 11 9 -5 15 -64 36 -73 27 -3 -3 1 -7 8
-9 6 -3 12 -9 12 -14 0 -6 -9 -5 -21 2 -14 7 -25 7 -31 1 -13 -13 25 -26 52
-17 11 4 20 2 20 -4 0 -16 -67 -13 -94 4 -23 15 -61 11 -51 -5 21 -34 -76 -11
-100 23 -20 29 -19 13 1 -18 16 -24 15 -25 -11 -35 -21 -8 -35 -7 -58 5 -16 8
-36 15 -44 15 -8 0 -25 12 -38 28 -19 20 -23 34 -19 55 4 21 1 32 -12 42 -11
7 -22 11 -26 9 -5 -3 -8 10 -8 30 0 19 4 36 9 38 4 2 5 12 0 23 -7 19 -8 19
-8 -2 -1 -18 -7 -23 -26 -23 -13 0 -28 6 -32 14 -4 8 -17 15 -28 17 -11 2 -22
15 -25 29 -5 23 -6 24 -13 5 -5 -11 -11 -15 -15 -10 -6 9 -58 37 -106 57 -15
7 -17 5 -13 -12z m807 -315 c10 -12 10 -15 -4 -15 -9 0 -16 7 -16 15 0 8 2 15
4 15 2 0 9 -7 16 -15z m-275 -13 c-3 -3 -11 0 -18 7 -9 10 -8 11 6 5 10 -3 15
-9 12 -12z m185 -38 c0 -2 -9 -4 -21 -4 -11 0 -18 4 -14 10 5 8 35 3 35 -6z
m85 -84 c3 -5 1 -10 -4 -10 -6 0 -11 5 -11 10 0 6 2 10 4 10 3 0 8 -4 11 -10z
m-125 -15 c0 -8 -4 -15 -9 -15 -5 0 -14 7 -21 15 -10 13 -9 15 9 15 12 0 21
-6 21 -15z"/>
<path d="M4345 1280 c3 -5 8 -10 11 -10 2 0 4 5 4 10 0 6 -5 10 -11 10 -5 0
-7 -4 -4 -10z"/>
<path d="M2450 1270 c0 -5 5 -10 11 -10 5 0 7 5 4 10 -3 6 -8 10 -11 10 -2 0
-4 -4 -4 -10z"/>
<path d="M2788 1273 c7 -3 16 -2 19 1 4 3 -2 6 -13 5 -11 0 -14 -3 -6 -6z"/>
<path d="M4225 1269 c-4 -6 -5 -13 -2 -16 7 -7 27 6 27 18 0 12 -17 12 -25 -2z"/>
<path d="M1520 1256 c25 -7 52 -10 60 -7 9 3 -2 8 -25 13 -63 11 -85 7 -35 -6z"/>
<path d="M2048 1249 c24 -10 55 -28 69 -39 28 -22 57 -27 51 -8 -2 6 -35 24
-74 39 -78 32 -113 38 -46 8z"/>
<path d="M1427 1250 c4 -4 34 -15 67 -24 68 -20 69 -34 0 -17 -48 12 -70 7
-44 -9 8 -6 24 -10 36 -10 20 0 44 -17 44 -32 0 -4 -7 -8 -15 -8 -8 0 -15 7
-15 15 0 10 -10 15 -29 15 -16 0 -36 7 -45 15 -18 18 -59 20 -54 3 3 -7 22
-17 44 -22 67 -14 83 -25 29 -20 -62 7 -43 -12 23 -22 23 -3 42 -10 42 -13 0
-9 72 -32 79 -25 3 3 -5 7 -18 11 -18 5 -21 10 -16 32 14 58 15 66 7 78 -4 7
-38 19 -76 27 -37 8 -64 10 -59 6z"/>
<path d="M1808 1253 c7 -3 16 -2 19 1 4 3 -2 6 -13 5 -11 0 -14 -3 -6 -6z"/>
<path d="M1980 1239 c0 -8 58 -39 75 -39 17 0 0 19 -30 33 -42 20 -45 20 -45
6z"/>
<path d="M2410 1234 c0 -8 5 -12 10 -9 6 3 10 10 10 16 0 5 -4 9 -10 9 -5 0
-10 -7 -10 -16z"/>
<path d="M2443 1235 c2 -5 10 -10 17 -10 7 0 15 5 17 10 2 6 -6 11 -17 11 -11
0 -19 -5 -17 -11z"/>
<path d="M2508 1243 c7 -3 16 -2 19 1 4 3 -2 6 -13 5 -11 0 -14 -3 -6 -6z"/>
<path d="M3946 1237 c3 -10 9 -15 12 -12 3 3 0 11 -7 18 -10 9 -11 8 -5 -6z"/>
<path d="M3980 1240 c0 -5 5 -10 10 -10 6 0 10 5 10 10 0 6 -4 10 -10 10 -5 0
-10 -4 -10 -10z"/>
<path d="M1630 1226 c0 -2 7 -7 16 -10 8 -3 12 -2 9 4 -6 10 -25 14 -25 6z"/>
<path d="M3750 1219 c0 -11 21 -11 39 0 9 6 5 9 -13 9 -14 0 -26 -4 -26 -9z"/>
<path d="M3888 1223 c7 -3 16 -2 19 1 4 3 -2 6 -13 5 -11 0 -14 -3 -6 -6z"/>
<path d="M3820 1214 c0 -1 6 -7 14 -13 10 -9 15 -8 19 3 4 10 0 14 -14 13 -10
-1 -19 -2 -19 -3z"/>
<path d="M1600 1196 c0 -16 22 -26 53 -26 22 1 22 1 -2 20 -27 23 -51 26 -51
6z"/>
<path d="M2190 1200 c0 -14 39 -32 52 -24 7 4 2 12 -13 20 -29 16 -39 17 -39
4z"/>
<path d="M2260 1202 c0 -6 -3 -17 -6 -26 -4 -11 3 -20 26 -30 60 -25 13 -26
-54 -1 -39 15 -68 21 -71 15 -4 -6 2 -13 12 -16 43 -15 103 -47 103 -55 0 -12
-6 -11 -40 6 -57 29 -80 36 -80 21 0 -17 46 -41 75 -38 29 2 41 -14 26 -32 -9
-10 -8 -15 4 -19 10 -4 17 2 21 18 7 30 24 33 24 5 0 -25 5 -25 37 -1 13 11
30 19 36 17 7 -1 9 -1 5 1 -5 3 -8 13 -8 24 0 13 -7 19 -21 19 -14 0 -19 5
-16 14 7 17 -20 76 -33 76 -5 0 -15 3 -24 6 -9 3 -16 2 -16 -4z"/>
<path d="M2569 1208 c-7 -25 -5 -36 6 -31 8 2 11 11 8 19 -5 12 -12 18 -14 12z"/>
<path d="M4310 1200 c-13 -8 -12 -10 3 -10 9 0 17 5 17 10 0 12 -1 12 -20 0z"/>
<path d="M1350 1182 c0 -12 19 -26 26 -19 2 2 -2 10 -11 17 -9 8 -15 8 -15 2z"/>
<path d="M2077 1173 c18 -9 36 -13 40 -9 11 10 -18 26 -47 25 -24 0 -23 -1 7
-16z"/>
<path d="M3777 1183 c-10 -15 9 -34 38 -39 26 -5 27 -3 14 12 -11 15 -12 16 0
10 9 -6 12 -4 9 5 -5 16 -53 25 -61 12z"/>
<path d="M3859 1178 c-10 -36 -7 -46 13 -40 13 3 17 7 11 9 -7 3 -9 11 -6 19
3 8 0 14 -6 14 -6 0 -11 -1 -12 -2z"/>
<path d="M1323 1151 c3 -11 0 -22 -7 -24 -6 -2 -8 -8 -4 -12 6 -7 80 -26 85
-22 1 1 -17 19 -39 40 -31 29 -39 33 -35 18z"/>
<path d="M1590 1161 c0 -5 18 -13 40 -19 22 -5 40 -6 40 -1 0 5 -12 11 -27 15
-16 3 -34 7 -40 10 -7 2 -13 0 -13 -5z"/>
<path d="M1270 1130 c-13 -8 -12 -10 3 -10 9 0 17 5 17 10 0 12 -1 12 -20 0z"/>
<path d="M1380 1132 c0 -5 20 -15 45 -21 57 -14 59 -14 63 -3 1 5 -10 12 -26
15 -17 3 -41 9 -56 13 -15 3 -26 2 -26 -4z"/>
<path d="M1580 1130 c0 -5 15 -10 33 -9 27 0 29 2 12 9 -28 12 -45 12 -45 0z"/>
<path d="M4125 1126 c24 -19 65 -21 65 -3 0 7 -17 13 -43 15 -39 3 -41 2 -22
-12z"/>
<path d="M2745 1121 c-6 -11 33 -36 42 -27 3 3 3 12 0 21 -7 17 -33 20 -42 6z"/>
<path d="M2011 1110 c-9 -5 -10 -10 -2 -14 6 -4 11 -20 11 -37 0 -16 4 -29 9
-29 6 0 10 8 10 18 -1 9 2 27 6 38 7 23 -13 38 -34 24z"/>
<path d="M1285 1100 c-8 -12 24 -61 39 -58 18 3 86 -43 86 -58 0 -8 5 -14 11
-14 6 0 8 6 5 13 -3 6 -9 20 -12 29 -3 10 -15 20 -25 23 -10 4 -19 14 -19 24
0 25 -11 33 -27 20 -9 -8 -13 -8 -13 -1 0 16 -37 34 -45 22z"/>
<path d="M4030 1100 c-12 -8 -11 -10 8 -10 12 0 22 5 22 10 0 13 -11 13 -30 0z"/>
<path d="M109 1093 c-1 -5 -1 -12 0 -16 1 -5 -8 -6 -19 -2 -11 3 -20 2 -20 -4
0 -5 -3 -18 -6 -28 -6 -15 -4 -16 7 -5 7 6 19 12 27 12 19 0 39 23 34 38 -4
13 -21 17 -23 5z"/>
<path d="M1200 1090 c0 -5 5 -10 10 -10 6 0 10 5 10 10 0 6 -4 10 -10 10 -5 0
-10 -4 -10 -10z"/>
<path d="M1410 1090 c0 -8 72 -44 90 -44 12 -1 49 -40 44 -48 -3 -4 2 -8 10
-8 19 0 27 12 18 27 -7 12 -139 83 -153 83 -5 0 -9 -5 -9 -10z"/>
<path d="M1486 1092 c-7 -11 121 -58 131 -48 14 14 -9 34 -44 39 -21 2 -48 8
-59 12 -12 4 -25 2 -28 -3z"/>
<path d="M1644 1086 c-6 -17 2 -36 17 -36 12 0 12 37 -1 45 -6 3 -13 -1 -16
-9z"/>
<path d="M1750 1075 c0 -14 4 -25 9 -25 12 0 23 29 15 41 -10 18 -24 9 -24
-16z"/>
<path d="M2950 1082 c0 -16 -6 -22 -22 -22 -22 -1 -23 -1 -4 -15 30 -23 44
-18 42 14 -2 35 -16 55 -16 23z"/>
<path d="M1056 1082 c-2 -4 4 -14 15 -20 19 -12 19 -11 9 8 -12 22 -16 24 -24
12z"/>
<path d="M1393 1057 c5 -15 37 -22 37 -9 0 5 -9 12 -21 15 -13 3 -19 1 -16 -6z"/>
<path d="M1875 1060 c3 -5 8 -10 11 -10 2 0 4 5 4 10 0 6 -5 10 -11 10 -5 0
-7 -4 -4 -10z"/>
<path d="M2806 1055 c4 -8 8 -15 10 -15 2 0 4 7 4 15 0 8 -4 15 -10 15 -5 0
-7 -7 -4 -15z"/>
<path d="M1017 1040 c-6 -22 0 -25 22 -11 7 5 10 14 7 20 -11 17 -23 13 -29
-9z"/>
<path d="M17 1043 c-30 -8 -18 -55 15 -64 47 -12 45 21 -2 40 -18 7 -20 10 -7
10 9 1 17 6 17 11 0 6 -1 9 -2 9 -2 -1 -11 -3 -21 -6z"/>
<path d="M1452 1040 c2 -7 18 -18 36 -26 40 -16 32 0 -10 22 -20 10 -29 12
-26 4z"/>
<path d="M1904 1039 c-10 -16 5 -26 31 -22 13 3 23 9 20 13 -8 12 -44 19 -51
9z"/>
<path d="M2356 1043 c-3 -3 -3 -10 0 -14 7 -12 34 -11 34 0 0 11 -26 22 -34
14z"/>
<path d="M2570 1030 c0 -5 5 -10 10 -10 6 0 10 5 10 10 0 6 -4 10 -10 10 -5 0
-10 -4 -10 -10z"/>
<path d="M2603 1025 c0 -8 4 -15 9 -15 4 0 8 7 8 15 0 8 -4 15 -8 15 -5 0 -9
-7 -9 -15z"/>
<path d="M1430 1011 c0 -4 6 -15 13 -24 10 -13 15 -14 29 -3 15 11 14 13 -13
23 -16 6 -29 8 -29 4z"/>
<path d="M2037 1013 c-10 -10 13 -32 27 -27 8 3 15 -5 18 -20 3 -14 1 -23 -3
-20 -5 3 -9 0 -9 -6 0 -6 6 -13 14 -16 8 -3 19 -19 25 -34 10 -29 11 -29 75
-26 59 4 66 2 66 -15 0 -10 7 -19 15 -19 8 0 15 -9 15 -20 0 -11 5 -20 11 -20
5 0 8 4 5 9 -4 5 17 9 46 8 l53 -2 1 34 c1 18 -2 28 -6 21 -6 -9 -13 -9 -28
-1 -31 17 -35 14 -28 -20 5 -26 4 -30 -8 -20 -11 9 -12 20 -5 44 12 41 11 47
-2 47 -7 0 -18 8 -26 18 -12 15 -13 15 -8 -8 6 -25 4 -25 -54 -28 -72 -4 -97
10 -131 70 -29 53 -47 68 -63 51z"/>
<path d="M2660 1006 c0 -9 5 -16 10 -16 6 0 10 4 10 9 0 6 -4 13 -10 16 -5 3
-10 -1 -10 -9z"/>
<path d="M1597 1004 c-9 -10 2 -24 18 -24 9 0 12 6 9 15 -6 16 -17 19 -27 9z"/>
<path d="M1643 993 c9 -9 19 -14 23 -11 10 10 -6 28 -24 28 -15 0 -15 -1 1
-17z"/>
<path d="M2765 1000 c4 -6 11 -8 16 -5 14 9 11 15 -7 15 -8 0 -12 -5 -9 -10z"/>
<path d="M1730 991 c0 -14 18 -23 31 -15 8 4 7 9 -2 15 -18 11 -29 11 -29 0z"/>
<path d="M1862 978 c-25 -16 -25 -17 -4 -15 12 1 22 5 22 9 0 4 10 6 23 6 56
-4 117 3 117 12 0 17 -129 7 -158 -12z"/>
<path d="M2340 979 c0 -12 5 -19 12 -17 18 6 20 25 3 31 -10 5 -15 0 -15 -14z"/>
<path d="M2628 993 c7 -3 16 -2 19 1 4 3 -2 6 -13 5 -11 0 -14 -3 -6 -6z"/>
<path d="M1535 970 c-3 -5 -2 -10 4 -10 5 0 13 5 16 10 3 6 2 10 -4 10 -5 0
-13 -4 -16 -10z"/>
<path d="M1688 973 c7 -3 16 -2 19 1 4 3 -2 6 -13 5 -11 0 -14 -3 -6 -6z"/>
<path d="M2160 970 c12 -8 12 -10 -5 -11 -15 0 -12 -4 13 -15 18 -8 35 -21 38
-29 4 -8 17 -15 30 -15 l24 0 -26 40 c-22 33 -32 40 -58 40 -24 0 -27 -3 -16
-10z"/>
<path d="M2648 973 c7 -3 16 -2 19 1 4 3 -2 6 -13 5 -11 0 -14 -3 -6 -6z"/>
<path d="M3494 972 c3 -5 0 -13 -6 -15 -9 -4 -10 -6 -1 -6 17 -1 25 16 12 25
-7 4 -9 3 -5 -4z"/>
<path d="M1490 959 c0 -5 5 -7 10 -4 6 3 10 8 10 11 0 2 -4 4 -10 4 -5 0 -10
-5 -10 -11z"/>
<path d="M1998 963 c6 -2 18 -2 25 0 6 3 1 5 -13 5 -14 0 -19 -2 -12 -5z"/>
<path d="M3535 950 c-10 -11 -13 -20 -7 -20 16 0 15 -27 0 -33 -7 -2 -9 -8 -5
-13 4 -5 12 -2 17 5 7 12 11 11 25 -3 12 -11 21 -14 27 -8 7 7 22 5 44 -4 18
-8 42 -14 53 -14 11 0 24 -7 29 -15 5 -10 33 -19 73 -25 74 -11 161 -53 153
-75 -4 -9 9 -18 42 -27 38 -10 54 -22 75 -53 32 -47 47 -89 29 -83 -6 2 -11 6
-10 8 1 3 -24 32 -56 64 -56 59 -57 59 -74 39 -26 -33 -54 -36 -81 -10 -41 39
-145 127 -151 127 -3 0 -8 -9 -11 -20 -3 -11 -12 -20 -21 -20 -23 0 -21 -5 29
-70 62 -81 89 -100 140 -100 38 0 47 -5 88 -48 56 -61 56 -93 -3 -111 -46 -14
-50 -14 -50 0 0 5 4 7 10 4 13 -8 -20 64 -48 103 -18 25 -31 32 -55 32 -22 0
-43 10 -65 29 -17 17 -32 27 -32 23 0 -3 -22 18 -50 48 -37 40 -47 57 -39 66
14 17 -29 29 -66 20 -25 -6 -26 -6 -20 39 3 30 2 44 -5 40 -5 -3 -10 -13 -10
-22 0 -8 -9 -26 -20 -40 -25 -31 -25 -49 -3 -57 14 -6 15 -9 4 -15 -9 -6 -6
-10 13 -15 36 -9 51 -40 36 -77 l-12 -29 -59 48 c-39 32 -58 54 -58 70 -1 13
-6 32 -11 42 -6 11 -6 21 -1 24 15 9 1 45 -21 51 -29 10 -51 -14 -44 -47 4
-21 2 -28 -9 -28 -8 0 -15 -5 -15 -10 0 -7 -6 -7 -19 0 -12 6 -22 6 -26 1 -7
-12 27 -23 48 -16 10 4 21 -4 33 -24 10 -17 23 -31 29 -31 5 0 4 -4 -4 -9 -8
-5 -20 -7 -28 -4 -9 3 -13 -3 -13 -21 0 -24 -2 -25 -25 -14 -17 8 -32 8 -52 0
-15 -6 -43 -14 -61 -17 -18 -4 -37 -15 -42 -25 -12 -23 -52 -20 -134 9 -44 15
-63 18 -73 10 -12 -10 -17 -6 -15 12 1 3 -24 12 -55 19 -36 8 -64 21 -80 38
-17 18 -34 26 -58 26 -18 0 -31 4 -29 8 3 4 3 12 0 17 -9 13 -57 -12 -51 -26
2 -7 -1 -12 -7 -10 -6 1 -13 -4 -15 -11 -3 -7 1 -13 8 -11 35 4 56 -2 57 -18
1 -25 -19 -73 -30 -73 -5 0 -6 5 -3 10 3 6 2 10 -4 10 -5 0 -11 -6 -14 -12 -3
-10 -7 -10 -19 0 -11 9 -18 10 -23 2 -3 -5 -21 -10 -38 -10 -28 0 -78 -19 -52
-20 6 0 3 -4 -5 -9 -10 -7 -19 -2 -32 19 -11 19 -31 33 -57 40 -42 11 -121 4
-121 -11 0 -5 5 -9 11 -9 5 0 7 -4 4 -10 -12 -19 -33 -11 -28 10 6 24 -3 26
-24 5 -14 -14 -17 -14 -32 -1 -25 23 -91 48 -109 41 -9 -3 -21 3 -29 15 -18
26 -29 25 -36 -1 -5 -17 -9 -19 -26 -10 -27 15 -31 14 -31 -7 0 -10 -5 -23
-10 -28 -7 -7 -2 -20 17 -40 26 -28 26 -29 5 -32 -13 -2 -40 11 -68 32 -26 20
-52 36 -59 36 -17 0 -27 -81 -12 -99 24 -29 102 -71 131 -71 16 0 26 -3 23 -7
-4 -3 -2 -12 4 -19 7 -9 7 -19 0 -32 -6 -11 -7 -23 -3 -27 4 -4 -2 -5 -13 -3
-14 3 -19 11 -18 26 2 15 -2 20 -11 16 -16 -6 -54 16 -99 56 -15 14 -40 32
-55 40 -54 31 -83 53 -93 73 -6 11 -7 17 -1 14 26 -17 48 36 43 100 -1 13 -99
12 -121 -2 -6 -4 -17 -2 -25 5 -9 7 -15 8 -19 1 -7 -11 -68 -3 -76 10 -9 13
-80 5 -89 -10 -5 -8 -11 -9 -15 -3 -5 8 -36 9 -78 3 -14 -2 -8 -16 12 -29 15
-9 26 -10 41 -1 11 6 23 9 25 6 8 -8 -8 -37 -20 -35 -6 2 -13 -1 -15 -7 -1 -5
-7 -16 -13 -23 -6 -6 -7 -12 -3 -12 4 0 2 -7 -5 -15 -7 -8 -15 -13 -19 -11 -3
2 -12 -7 -18 -21 -11 -22 -8 -28 23 -62 19 -21 57 -48 84 -60 45 -19 52 -20
65 -7 15 15 4 33 -14 22 -5 -3 -12 1 -15 9 -4 13 -10 14 -26 5 -13 -7 -20 -7
-20 0 0 5 -7 10 -16 10 -12 0 -15 6 -10 24 7 29 -1 38 -25 25 -15 -8 -19 -6
-19 9 0 27 9 32 36 22 14 -6 33 -6 46 0 13 5 18 9 11 9 -7 1 -17 10 -23 21
-10 18 -9 19 16 10 29 -11 46 -6 38 13 -2 7 6 13 21 13 14 1 25 -3 25 -10 0
-6 4 -5 9 3 8 12 18 11 68 -8 32 -13 70 -22 84 -22 15 1 29 -5 33 -14 4 -12 2
-13 -13 -3 -14 8 -25 7 -50 -5 -17 -9 -29 -13 -27 -9 2 4 -2 16 -10 27 -9 12
-14 14 -14 5 0 -10 -4 -10 -17 3 -23 20 -94 21 -86 1 5 -14 16 -18 41 -15 6 1
12 -3 12 -8 0 -6 18 -20 40 -31 22 -11 40 -26 40 -33 1 -8 5 -6 13 4 7 9 25
19 41 23 27 7 28 6 16 -10 -13 -14 -11 -19 15 -40 17 -13 36 -22 43 -19 25 9
32 -5 12 -25 -11 -11 -20 -27 -20 -35 0 -8 -6 -15 -12 -15 -16 0 -40 15 -39
24 2 16 0 18 -14 6 -22 -18 -31 -4 -12 18 18 20 23 37 8 28 -5 -4 -11 -1 -13
5 -3 8 -17 5 -43 -9 -22 -12 -34 -21 -27 -22 6 0 12 -7 12 -15 0 -8 6 -15 13
-15 8 0 7 -4 -3 -10 -8 -5 -11 -10 -5 -10 5 0 -1 -7 -13 -16 -22 -15 -30 -44
-12 -44 6 0 10 -4 10 -10 0 -5 -6 -7 -14 -4 -8 3 -24 0 -37 -6 -20 -11 -20
-10 5 23 19 24 23 37 15 42 -6 4 -15 2 -19 -4 -7 -12 -43 2 -169 62 -14 7 -40
28 -58 47 -31 34 -32 34 -33 11 0 -34 -14 -16 -16 20 -1 21 3 29 15 29 27 1
-18 30 -46 30 -28 0 -31 -26 -4 -35 12 -4 18 -12 15 -20 -5 -12 -8 -12 -21 0
-8 9 -19 13 -24 10 -4 -3 -19 1 -33 10 -13 9 -30 14 -37 13 -7 -2 -15 7 -17
19 -5 31 -27 47 -74 52 -4 1 -13 8 -21 16 -13 13 -16 11 -26 -15 -8 -23 -7
-33 5 -45 9 -8 11 -15 5 -15 -19 0 -12 -17 9 -23 17 -4 20 -2 15 16 -6 21 -5
21 8 4 11 -13 22 -16 42 -11 28 7 50 -10 38 -29 -3 -5 -9 -3 -14 4 -11 18 -19
8 -24 -29 -2 -17 -6 -41 -10 -52 -7 -21 -30 -27 -40 -10 -3 5 -14 10 -23 10
-9 0 -29 6 -44 14 -20 11 -28 11 -32 3 -2 -7 -5 -4 -5 6 -1 10 -9 17 -22 17
-11 0 -17 4 -14 10 3 5 1 10 -4 10 -10 0 -12 -6 -10 -27 0 -5 8 -7 17 -5 14 2
14 0 -2 -13 -25 -19 -29 -19 -51 5 -18 20 -18 21 0 34 17 12 16 14 -16 25 -19
7 -47 17 -64 21 -16 4 -39 11 -50 16 -17 7 -18 5 -8 -7 9 -12 10 -18 1 -27 -9
-9 -5 -14 13 -21 23 -9 23 -10 2 -10 -33 -1 -76 18 -95 42 -17 22 -18 22 -18
1 0 -11 -9 -29 -19 -38 -19 -18 -37 -61 -20 -50 9 5 13 -15 11 -48 -1 -10 3
-18 8 -18 6 0 10 -5 10 -11 0 -8 -17 -10 -55 -6 -30 3 -57 1 -61 -4 -3 -5 -10
-7 -15 -4 -5 4 -9 1 -9 -4 0 -6 7 -11 16 -11 8 0 13 -4 9 -10 -3 -5 -12 -7
-20 -4 -20 8 -30 -22 -17 -52 12 -25 4 -32 -16 -12 -9 9 -18 9 -38 -1 -15 -6
-24 -14 -21 -18 4 -3 13 0 21 6 24 20 40 2 20 -20 -14 -15 -20 -17 -27 -7 -7
10 -10 10 -14 0 -2 -6 -10 -9 -15 -6 -6 4 -16 0 -22 -8 -6 -8 -19 -17 -28 -21
-19 -7 -25 -27 -8 -27 6 0 9 -10 9 -22 -1 -17 -2 -19 -6 -5 -7 27 -37 20 -56
-13 -18 -29 -18 -30 2 -30 11 0 22 -4 25 -9 4 -5 18 -6 34 -1 15 5 73 23 129
41 56 17 121 32 145 32 41 0 140 -29 201 -59 20 -10 34 -11 47 -4 13 7 19 6
23 -4 4 -9 26 -14 67 -15 34 -1 70 -6 80 -11 25 -14 883 -13 875 0 -3 6 3 10
14 10 12 0 21 -5 21 -10 0 -7 206 -10 643 -8 l642 3 53 27 c30 16 61 28 69 28
9 0 33 18 55 40 37 40 46 64 30 85 -9 13 -133 17 -148 4 -12 -10 -28 13 -17
25 3 3 6 25 7 48 1 24 5 57 9 73 4 17 4 24 1 18 -14 -31 -43 -2 -44 44 0 20
37 25 75 9 30 -13 35 -19 30 -36 -6 -19 8 -27 40 -20 6 1 7 -2 3 -5 -4 -4 4
-24 17 -44 14 -19 25 -42 25 -51 0 -34 96 -113 110 -90 4 7 10 8 12 4 3 -5 3
-4 2 3 -2 6 1 25 5 41 10 33 1 53 -42 96 -23 23 -28 36 -25 63 4 35 -3 39 -58
34 -12 -1 -24 5 -27 13 -4 11 8 13 63 12 67 -1 69 -2 99 -40 17 -21 38 -44 47
-51 13 -9 14 -16 5 -33 -17 -33 -14 -43 14 -36 30 7 33 -6 5 -24 -32 -20 -23
-34 10 -17 17 9 35 26 40 39 4 13 22 29 39 36 19 8 31 20 31 31 0 11 3 18 8
17 10 -3 72 35 72 44 0 4 7 8 15 8 8 0 15 -5 15 -11 0 -6 9 -9 20 -6 23 6 27
-11 5 -19 -8 -4 -15 -14 -15 -23 0 -10 -3 -21 -7 -25 -5 -4 -8 -12 -8 -16 0
-5 -9 -16 -20 -24 -11 -8 -17 -18 -13 -22 4 -3 19 2 34 12 15 11 35 24 46 30
37 22 91 87 91 110 0 13 2 24 6 24 10 0 7 64 -3 71 -21 16 8 28 56 23 63 -6
71 -11 65 -36 -3 -11 -2 -30 3 -43 6 -16 4 -26 -8 -38 -9 -9 -21 -21 -27 -27
-5 -6 -19 -17 -30 -25 -20 -15 -20 -15 3 -21 12 -3 22 -11 22 -16 0 -5 -4 -6
-10 -3 -5 3 -10 2 -10 -4 0 -24 22 -19 67 13 26 19 56 44 65 55 10 12 27 21
38 21 21 0 27 15 10 25 -5 3 -10 1 -10 -5 0 -6 -4 -9 -9 -6 -13 8 12 76 28 76
9 0 7 6 -8 19 -12 11 -18 22 -12 25 5 3 7 16 3 28 -4 16 -2 19 8 13 10 -6 12
-2 7 16 -4 13 -7 30 -7 37 0 6 -10 12 -22 12 -23 1 -23 1 -3 16 17 13 18 16 5
24 -8 5 -19 10 -24 10 -4 0 -6 9 -3 20 3 11 -2 25 -10 32 -9 7 -27 31 -41 53
-39 62 -67 79 -133 81 -35 2 -68 9 -85 21 -35 22 -150 63 -158 55 -3 -3 -6
-20 -6 -38 0 -50 -30 -57 -125 -28 -87 27 -82 24 -62 35 22 13 22 30 0 22 -12
-5 -15 -2 -10 10 9 23 -6 21 -28 -3z m-1998 -306 c-9 -9 -28 6 -21 18 4 6 10
6 17 -1 6 -6 8 -13 4 -17z m66 -34 c-3 -11 -7 -20 -9 -20 -2 0 -4 9 -4 20 0
11 4 20 9 20 5 0 7 -9 4 -20z m1172 -40 c-4 -13 -1 -22 9 -26 16 -6 30 -34 17
-34 -4 0 -18 9 -31 20 -13 11 -29 20 -37 20 -18 0 -16 10 5 26 26 20 44 17 37
-6z m629 2 c2 -4 24 -9 48 -11 50 -2 50 -3 42 -25 -6 -16 -34 -23 -34 -8 0 5
-18 15 -40 22 -22 7 -40 17 -40 22 0 10 17 11 24 0z m186 -22 c-6 -11 -13 -20
-16 -20 -2 0 0 9 6 20 6 11 13 20 16 20 2 0 0 -9 -6 -20z m-2540 6 c0 -3 -4
-8 -10 -11 -5 -3 -10 -1 -10 4 0 6 5 11 10 11 6 0 10 -2 10 -4z m548 -31 c-3
-3 -9 2 -12 12 -6 14 -5 15 5 6 7 -7 10 -15 7 -18z m690 19 c12 -4 22 -11 22
-16 0 -6 -7 -8 -15 -4 -10 4 -15 -1 -15 -14 0 -11 -4 -20 -9 -20 -5 0 -7 9 -4
20 4 14 0 20 -11 20 -9 0 -16 5 -16 10 0 11 15 12 48 4z m1042 2 c0 -3 -4 -8
-10 -11 -5 -3 -10 -1 -10 4 0 6 5 11 10 11 6 0 10 -2 10 -4z m80 -23 c0 -10
-5 -25 -10 -33 -7 -11 -9 -6 -7 17 2 34 17 47 17 16z m-419 -16 c-10 -9 -11
-8 -5 6 3 10 9 15 12 12 3 -3 0 -11 -7 -18z m-768 -6 c6 -25 -23 -53 -42 -42
-8 5 -10 14 -6 21 6 9 10 9 17 -1 7 -11 8 -9 4 4 -6 20 0 37 13 37 5 0 11 -9
14 -19z m592 -1 c18 15 68 2 61 -16 -3 -9 5 -16 22 -21 75 -18 157 -67 146
-85 -3 -5 0 -9 7 -7 26 3 39 -1 39 -12 0 -8 -5 -8 -15 1 -12 10 -15 9 -15 -6
0 -16 -2 -16 -16 4 -17 25 -42 29 -50 7 -4 -8 -13 -15 -21 -15 -9 0 -13 6 -10
14 8 20 -22 32 -118 50 -11 2 -33 9 -48 15 -15 6 -48 12 -72 13 -48 1 -48 5
-5 49 23 23 27 24 53 12 21 -11 32 -11 42 -3z m-741 4 c23 -9 20 -27 -9 -54
-14 -13 -25 -18 -25 -11 0 6 6 14 14 17 21 8 28 33 8 30 -9 -2 -18 -8 -20 -14
-7 -22 -22 -12 -22 13 0 26 19 32 54 19z m1286 -7 c0 -7 9 -21 21 -30 19 -17
22 -17 38 -3 22 20 31 20 31 2 0 -14 -29 -26 -68 -26 -13 0 -21 -4 -18 -8 2
-4 -5 -8 -16 -8 -16 0 -19 6 -15 29 2 15 0 30 -5 33 -15 10 -8 24 12 24 11 0
20 -6 20 -13z m-800 -36 c0 -6 -4 -12 -8 -15 -5 -3 -9 1 -9 9 0 8 4 15 9 15 4
0 8 -4 8 -9z m632 -16 c-4 -26 -22 -45 -22 -25 0 12 18 50 24 50 2 0 1 -11 -2
-25z m-1990 -17 c-5 -5 -23 -3 -41 3 -21 7 -29 14 -21 19 15 9 73 -11 62 -22z
m2393 3 c-6 -5 -25 10 -25 20 0 5 6 4 14 -3 8 -7 12 -15 11 -17z m-315 10 c0
-6 -9 -9 -19 -8 -11 0 -17 5 -15 9 7 11 34 10 34 -1z m-670 -5 c0 -3 -4 -8
-10 -11 -5 -3 -10 -1 -10 4 0 6 5 11 10 11 6 0 10 -2 10 -4z m-1950 -26 c11
-11 27 -20 36 -20 8 0 13 -4 9 -9 -4 -8 -73 -4 -83 5 -5 3 8 44 14 44 2 0 13
-9 24 -20z m1550 10 c0 -5 -7 -7 -15 -4 -8 4 -15 8 -15 10 0 2 7 4 15 4 8 0
15 -4 15 -10z m-1358 -40 c2 -16 8 -24 18 -22 8 2 12 0 7 -4 -4 -4 0 -15 9
-25 9 -10 11 -19 5 -23 -5 -4 -12 3 -16 14 -4 11 -11 18 -16 14 -6 -3 -19 2
-29 11 -18 16 -20 16 -26 1 -8 -21 8 -40 57 -65 49 -26 49 -26 49 -1 0 11 5
20 10 20 13 0 13 -3 -1 -34 -7 -14 -15 -23 -20 -21 -4 3 -10 1 -13 -4 -4 -5 7
-19 23 -30 35 -26 41 -26 42 -3 0 11 2 12 6 4 3 -7 -3 -22 -13 -33 -15 -17
-20 -18 -29 -6 -5 7 -23 17 -38 21 -34 8 -47 35 -23 48 14 8 15 13 5 24 -6 8
-19 12 -29 9 -9 -3 -28 3 -41 14 -27 21 -67 29 -86 18 -8 -5 -13 -4 -13 3 0
10 9 15 78 40 39 15 40 25 5 44 -28 15 -27 15 24 14 48 -2 52 -4 55 -28z
m1719 11 c12 20 41 -9 33 -34 -4 -13 -2 -17 5 -13 6 4 11 0 11 -8 0 -9 11 -18
24 -22 14 -3 27 -15 30 -29 4 -17 11 -21 31 -18 18 4 26 0 31 -13 4 -11 18
-29 32 -41 15 -12 23 -26 18 -30 -4 -4 -12 0 -17 10 -6 9 -19 17 -29 17 -10 0
-24 8 -29 18 -9 15 -10 15 -11 -5 0 -20 -2 -21 -25 -11 -14 6 -25 18 -25 25 0
8 4 12 8 9 5 -3 9 1 9 9 0 11 -4 12 -13 4 -8 -7 -17 -5 -29 8 -17 16 -16 17 1
24 16 5 12 8 -16 16 -27 8 -37 7 -43 -4 -7 -12 -12 -12 -28 3 -25 22 -24 38 1
31 29 -7 25 12 -5 23 -14 5 -25 13 -25 18 0 17 13 21 33 11 14 -8 22 -8 28 2z
m-1251 -32 c0 -5 -7 -9 -15 -9 -9 0 -15 9 -15 21 0 18 2 19 15 9 8 -7 15 -16
15 -21z m1384 -21 c-7 -11 -34 -10 -34 2 0 5 8 7 18 3 14 -5 15 -3 5 8 -7 7
-13 20 -13 29 1 9 6 6 14 -10 8 -14 12 -28 10 -32z m-466 24 c2 -7 -6 -12 -20
-12 -21 -1 -22 -2 -5 -14 9 -7 17 -19 17 -27 0 -8 5 -5 14 7 8 11 18 15 23 10
4 -5 2 -11 -4 -13 -7 -3 -13 -18 -13 -34 0 -25 -4 -29 -27 -30 -18 -1 -22 -3
-10 -6 14 -4 16 -8 6 -19 -14 -17 2 -19 31 -4 14 8 25 3 50 -20 18 -17 36 -28
40 -25 5 3 7 -4 5 -16 -3 -13 0 -28 6 -35 5 -7 6 -14 2 -17 -15 -8 -68 -18
-57 -10 14 10 25 55 16 68 -12 18 -66 38 -70 26 -4 -11 -61 -4 -75 9 -17 15 5
58 35 71 l30 12 -31 13 c-23 10 -31 19 -31 39 0 36 57 59 68 27z m532 -2 c0
-5 -5 -10 -11 -10 -5 0 -7 5 -4 10 3 6 8 10 11 10 2 0 4 -4 4 -10z m-860 -10
c0 -5 -4 -10 -10 -10 -5 0 -10 5 -10 10 0 6 5 10 10 10 6 0 10 -4 10 -10z
m1120 0 c0 -5 -4 -10 -9 -10 -6 0 -13 5 -16 10 -3 6 1 10 9 10 9 0 16 -4 16
-10z m192 -25 c-2 -14 -9 -25 -14 -25 -6 0 -7 7 -4 16 3 9 6 22 6 30 0 9 4 13
9 10 4 -3 6 -17 3 -31z m-1525 10 c0 -8 -4 -15 -9 -15 -10 0 -11 14 -1 23 9
10 10 9 10 -8z m1442 -31 c7 -9 0 -13 -23 -16 -45 -5 -56 0 -56 23 0 11 4 18
9 15 5 -3 15 1 22 10 12 14 14 14 26 -3 7 -10 17 -23 22 -29z m-2109 -29 c-14
-36 -13 -42 6 -49 10 -4 21 0 28 9 10 15 14 14 35 -4 l24 -21 -36 0 c-19 0
-42 -7 -51 -15 -13 -13 -15 -13 -21 5 -3 11 -11 20 -16 20 -6 0 -7 5 -4 10 3
6 0 13 -9 16 -8 3 -12 12 -10 19 3 7 -3 16 -14 19 -11 4 -26 14 -34 23 -12 15
-10 16 17 10 17 -4 40 -9 53 -13 17 -5 22 -2 22 12 1 17 2 17 10 2 7 -11 7
-26 0 -43z m360 51 c0 -3 -4 -8 -10 -11 -5 -3 -10 -1 -10 4 0 6 5 11 10 11 6
0 10 -2 10 -4z m446 -12 c-3 -9 -6 -18 -6 -20 0 -2 -4 -4 -9 -4 -5 0 -7 9 -4
20 3 11 10 20 15 20 6 0 7 -7 4 -16z m105 -32 c-6 -2 -11 -12 -11 -23 0 -11
-7 -19 -16 -19 -8 0 -13 3 -11 8 2 4 13 25 23 47 17 37 19 38 22 15 2 -13 -1
-26 -7 -28z m776 26 c-3 -8 -6 -5 -6 6 -1 11 2 17 5 13 3 -3 4 -12 1 -19z
m-1269 6 c12 -4 22 -10 22 -15 0 -15 -48 -10 -54 6 -6 16 -2 18 32 9z m550
-25 c-7 -4 -16 -3 -20 4 -11 18 2 29 18 16 12 -10 12 -14 2 -20z m484 15 c4
-3 2 -16 -4 -29 -6 -13 -15 -22 -19 -19 -5 3 -9 1 -9 -4 0 -11 -67 -14 -74 -3
-3 4 6 6 19 3 28 -5 33 5 9 22 -9 7 -13 18 -8 30 6 14 13 16 43 11 20 -4 39
-9 43 -11z m-1402 -4 c0 -5 -7 -10 -15 -10 -8 0 -15 5 -15 10 0 6 7 10 15 10
8 0 15 -4 15 -10z m780 0 c0 -5 -2 -10 -4 -10 -3 0 -8 5 -11 10 -3 6 -1 10 4
10 6 0 11 -4 11 -10z m1780 0 c0 -5 -5 -10 -11 -10 -5 0 -7 5 -4 10 3 6 8 10
11 10 2 0 4 -4 4 -10z m-2526 -16 c8 -21 8 -24 -3 -24 -5 0 -11 9 -14 20 -6
24 8 27 17 4z m1846 -5 c0 -5 -4 -9 -10 -9 -5 0 -10 7 -10 16 0 8 5 12 10 9 6
-3 10 -10 10 -16z m-1297 -4 c-3 -9 -8 -14 -10 -11 -3 3 -2 9 2 15 9 16 15 13
8 -4z m1206 -43 c20 -20 8 -24 -24 -8 -15 8 -34 12 -41 9 -8 -3 -14 0 -14 7 0
7 -8 9 -22 5 -18 -5 -20 -4 -8 4 8 6 11 11 7 11 -5 0 -6 4 -3 9 7 11 84 -17
105 -37z m-859 12 c0 -25 -20 -54 -37 -54 -5 0 -9 18 -10 40 -2 36 0 40 23 40
19 0 24 -5 24 -26z m1057 -6 c-3 -7 -5 -2 -5 12 0 14 2 19 5 13 2 -7 2 -19 0
-25z m-1353 0 c9 -35 8 -38 -13 -38 -25 0 -37 18 -17 26 8 3 12 12 9 20 -3 8
-1 14 5 14 5 0 12 -10 16 -22z m1455 6 c9 6 7 -82 -2 -90 -4 -4 -2 -15 4 -26
8 -15 7 -19 -3 -17 -35 4 -40 -3 -10 -16 17 -8 32 -19 32 -25 0 -14 -23 -13
-38 2 -9 9 -12 9 -12 -2 0 -9 -6 -8 -20 5 -12 10 -19 24 -16 31 3 7 -4 14 -15
17 -18 5 -19 8 -8 29 22 41 74 106 77 97 2 -5 7 -7 11 -5z m-2419 -35 c0 -12
7 -19 20 -19 13 0 20 -7 20 -20 0 -12 5 -17 14 -14 20 8 30 -14 16 -32 -11
-12 -14 -12 -26 3 -8 11 -13 13 -14 6 0 -7 -5 -13 -11 -13 -7 0 -9 10 -5 24 3
14 2 28 -4 31 -5 3 -10 1 -10 -4 0 -6 -7 -11 -15 -11 -8 0 -15 9 -15 21 0 12
-4 17 -11 13 -6 -3 -3 5 6 20 19 28 35 26 35 -5z m780 16 c7 -9 20 -13 28 -10
12 5 13 3 2 -10 -7 -9 -19 -14 -26 -11 -6 2 -15 2 -19 -2 -4 -4 -11 -7 -16 -7
-5 0 -8 -3 -6 -6 1 -3 -5 -12 -13 -21 -8 -9 -22 -25 -30 -37 -8 -11 -20 -21
-26 -21 -7 0 -14 -7 -16 -15 -2 -10 -8 -12 -17 -5 -12 7 -13 11 -1 24 7 9 15
14 18 11 3 -2 13 5 23 17 21 24 23 29 10 26 -13 -4 -71 34 -71 46 0 4 6 6 14
3 7 -3 19 0 25 6 8 8 16 7 29 -6 15 -16 15 -19 2 -27 -20 -13 -8 -13 25 0 14
5 24 14 21 19 -3 5 1 12 10 15 8 3 12 10 9 16 -10 16 11 12 25 -5z m861 -24
c9 -16 13 -34 9 -41 -10 -16 -31 -4 -24 14 3 7 -5 18 -18 25 -13 6 -15 9 -6 7
12 -4 15 -1 11 10 -10 25 12 15 28 -15z m49 13 c0 -8 -5 -12 -10 -9 -6 4 -8
11 -5 16 9 14 15 11 15 -7z m-495 -4 c3 -5 -1 -10 -9 -10 -9 0 -16 5 -16 10 0
6 4 10 9 10 6 0 13 -4 16 -10z m-633 -10 c6 0 8 -6 5 -14 -3 -8 3 -23 14 -34
13 -15 15 -23 7 -28 -6 -4 -18 2 -27 13 -22 26 -53 33 -82 17 -30 -16 -59 -18
-59 -3 0 6 9 9 20 6 10 -3 24 1 31 9 6 8 17 14 24 14 7 0 16 7 19 16 4 10 12
14 22 10 9 -3 20 -6 26 -6z m1638 -5 c0 -9 -6 -12 -15 -9 -8 4 -22 1 -30 -6
-12 -10 -15 -9 -15 7 0 14 8 19 30 21 21 2 30 -2 30 -13z m120 6 c0 -5 -8 -12
-17 -15 -10 -4 -26 -22 -35 -41 -15 -31 -16 -35 -2 -43 14 -8 14 -10 0 -21 -9
-8 -16 -20 -16 -28 0 -7 -7 -16 -15 -19 -8 -4 -12 -11 -9 -16 4 -6 1 -8 -7 -6
-8 3 -13 11 -11 17 1 6 -8 11 -20 11 -19 0 -20 -2 -8 -10 12 -8 11 -10 -7 -10
-13 0 -23 3 -23 6 0 3 32 43 71 89 59 71 77 88 97 94 1 1 2 -3 2 -8z m-575
-38 c-22 -16 -35 -17 -35 -3 0 6 7 10 15 10 8 0 15 5 15 11 0 5 5 7 12 3 7 -5
5 -11 -7 -21z m-301 1 c6 -15 4 -15 -11 -3 -10 7 -20 15 -22 16 -2 2 3 3 11 3
9 0 19 -7 22 -16z m516 -4 c0 -5 -7 -10 -16 -10 -8 0 -12 5 -9 10 3 6 10 10
16 10 5 0 9 -4 9 -10z m-692 -22 c-2 -13 3 -23 10 -24 6 -1 17 -2 22 -3 6 0
10 -5 10 -10 0 -4 -11 -6 -24 -4 -13 3 -33 0 -45 -6 -14 -8 -21 -8 -21 -1 0 5
5 10 10 10 6 0 10 7 10 15 0 8 4 15 10 15 5 0 7 7 4 15 -4 8 -1 15 6 15 6 0
10 -10 8 -22z m128 2 c13 0 24 -3 24 -8 0 -4 -22 -7 -49 -7 -40 0 -47 2 -39
13 6 7 18 10 25 7 8 -3 26 -5 39 -5z m130 -8 c-10 -2 -22 0 -28 6 -6 6 0 7 19
4 21 -5 23 -7 9 -10z m-1886 -52 c0 -5 -7 -10 -15 -10 -8 0 -15 5 -15 10 0 6
7 10 15 10 8 0 15 -4 15 -10z m1930 -31 c0 -5 -11 -9 -25 -9 -17 0 -23 4 -19
14 6 15 44 10 44 -5z m-137 1 c8 0 8 -3 0 -11 -13 -13 -43 -5 -43 12 0 6 7 8
16 5 9 -3 21 -6 27 -6z m34 -26 c-3 -3 -12 -4 -19 -1 -8 3 -5 6 6 6 11 1 17
-2 13 -5z"/>
<path d="M3125 130 c-3 -5 -1 -10 4 -10 6 0 11 5 11 10 0 6 -2 10 -4 10 -3 0
-8 -4 -11 -10z"/>
<path d="M1443 953 c-7 -3 -13 -19 -13 -36 0 -24 3 -28 10 -17 7 11 12 12 21
3 7 -7 24 -9 40 -6 31 6 37 -4 17 -26 -11 -11 -10 -14 0 -18 10 -4 10 -8 1
-19 -9 -11 -9 -18 1 -29 9 -10 9 -15 1 -15 -6 0 -11 5 -11 11 0 6 -7 9 -15 5
-8 -3 -15 -1 -15 4 0 6 -7 10 -16 10 -26 0 9 -29 44 -36 25 -5 33 -1 52 26 19
26 20 34 9 41 -8 5 -17 9 -21 9 -18 0 -6 20 12 20 11 0 20 -5 20 -11 0 -8 5
-7 16 2 8 7 13 21 10 32 -4 17 -1 19 27 14 18 -3 39 -8 47 -11 11 -5 16 0 16
14 0 13 -7 20 -19 20 -10 0 -28 5 -39 11 -13 7 -18 7 -14 1 9 -15 -146 -20
-159 -6 -5 7 -16 10 -22 7z m145 -35 c-6 -16 -36 -34 -44 -26 -3 4 -4 14 -1
23 7 17 51 21 45 3z"/>
<path d="M1788 953 c7 -3 16 -2 19 1 4 3 -2 6 -13 5 -11 0 -14 -3 -6 -6z"/>
<path d="M1893 938 c3 -16 -71 -24 -86 -9 -16 16 -37 13 -31 -3 3 -8 22 -16
42 -18 20 -3 44 -8 53 -12 13 -5 21 1 32 23 13 26 13 31 1 31 -8 0 -13 -6 -11
-12z"/>
<path d="M2525 940 c3 -5 8 -10 11 -10 2 0 4 5 4 10 0 6 -5 10 -11 10 -5 0 -7
-4 -4 -10z"/>
<path d="M1723 923 c9 -9 19 -14 23 -11 10 10 -6 28 -24 28 -15 0 -15 -1 1
-17z"/>
<path d="M1370 916 c0 -2 9 -6 20 -9 11 -3 18 -1 14 4 -5 9 -34 13 -34 5z"/>
<path d="M1832 888 c-18 -18 -14 -46 8 -53 11 -3 20 -11 20 -16 0 -5 5 -9 10
-9 6 0 10 9 10 19 0 11 5 23 10 26 18 11 10 25 -14 25 -13 0 -26 5 -28 10 -2
7 -8 6 -16 -2z"/>
<path d="M2352 889 c2 -7 10 -15 17 -17 8 -3 12 1 9 9 -2 7 -10 15 -17 17 -8
3 -12 -1 -9 -9z"/>
<path d="M1310 881 c0 -6 5 -13 10 -16 6 -3 10 1 10 9 0 9 -4 16 -10 16 -5 0
-10 -4 -10 -9z"/>
<path d="M1658 883 c-10 -2 -18 -13 -18 -24 0 -14 7 -19 28 -20 15 -1 46 -3
69 -4 24 -2 49 2 60 11 17 13 16 13 -7 15 -36 2 -64 -2 -75 -11 -5 -4 -23 -1
-40 6 l-30 13 28 1 c15 0 27 5 27 10 0 10 -12 11 -42 3z"/>
<path d="M1738 883 c7 -3 16 -2 19 1 4 3 -2 6 -13 5 -11 0 -14 -3 -6 -6z"/>
<path d="M1477 866 c-9 -9 -24 -13 -34 -10 -16 5 -16 4 2 -10 18 -15 21 -15
39 4 11 11 17 22 14 25 -3 3 -13 -1 -21 -9z"/>
<path d="M1997 873 c-2 -4 -8 -23 -12 -41 -4 -18 -14 -36 -22 -39 -13 -5 -13
-7 1 -15 11 -6 15 -17 11 -31 -5 -20 -4 -20 4 -2 22 51 38 162 18 128z"/>
<path d="M2056 856 c-5 -19 -3 -32 5 -36 6 -4 8 -13 5 -19 -4 -6 -3 -11 3 -11
5 0 12 -8 14 -17 3 -10 5 -2 5 17 1 19 -5 49 -12 65 l-13 30 -7 -29z"/>
<path d="M2840 870 c-13 -8 -12 -10 3 -10 9 0 17 5 17 10 0 12 -1 12 -20 0z"/>
<path d="M2451 854 c-22 -11 -22 -12 -5 -23 17 -10 17 -10 -5 -11 -20 0 -21
-2 -11 -15 9 -11 17 -12 30 -5 22 12 33 13 26 2 -2 -4 4 -19 15 -32 l19 -25
30 34 c23 28 32 32 43 22 12 -9 16 -9 20 2 7 18 -12 47 -20 30 -7 -19 -41 -16
-71 5 -41 29 -45 30 -71 16z"/>
<path d="M784 834 c-2 -23 -1 -24 12 -7 17 23 17 33 2 33 -7 0 -14 -11 -14
-26z"/>
<path d="M1300 845 c7 -9 15 -13 17 -11 7 7 -7 26 -19 26 -6 0 -6 -6 2 -15z"/>
<path d="M1615 850 c3 -5 8 -10 11 -10 2 0 4 5 4 10 0 6 -5 10 -11 10 -5 0 -7
-4 -4 -10z"/>
<path d="M2104 843 c3 -8 9 -25 12 -38 4 -17 16 -26 37 -31 18 -3 34 -9 37
-13 3 -4 18 -15 33 -25 28 -17 29 -17 24 1 -3 10 -9 40 -13 66 -5 37 -10 47
-21 43 -8 -3 -19 -6 -24 -6 -5 0 -9 -7 -9 -15 0 -17 -16 -20 -24 -6 -4 5 -1
11 5 13 6 2 -5 9 -26 15 -32 10 -36 10 -31 -4z"/>
<path d="M1170 816 c0 -8 -6 -17 -12 -19 -10 -4 -10 -6 0 -6 8 -1 10 -9 6 -26
-4 -15 -2 -25 5 -25 6 0 11 19 11 45 0 25 -2 45 -5 45 -3 0 -5 -6 -5 -14z"/>
<path d="M1816 805 c17 -26 38 -32 49 -15 6 9 -1 12 -22 9 -3 0 -10 6 -15 15
-5 9 -13 16 -19 16 -5 0 -2 -11 7 -25z"/>
<path d="M1753 805 c-19 -21 -16 -25 17 -25 28 0 29 2 18 20 -15 23 -19 24
-35 5z"/>
<path d="M2666 785 c-20 -31 -18 -36 12 -28 23 6 27 19 13 41 -6 10 -12 7 -25
-13z"/>
<path d="M2730 806 c0 -2 9 -6 20 -9 11 -3 18 -1 14 4 -5 9 -34 13 -34 5z"/>
<path d="M1230 789 c-22 -6 -20 -7 13 -8 38 -1 47 3 25 11 -7 3 -24 1 -38 -3z"/>
<path d="M1593 780 c-1 -11 2 -20 8 -20 14 0 11 -28 -3 -33 -26 -9 10 -29 59
-33 32 -2 40 -1 24 4 -14 4 -26 12 -28 17 -4 12 64 18 80 8 7 -5 28 -8 48 -9
34 0 35 1 26 26 -9 24 -12 25 -83 22 -63 -4 -74 -2 -74 12 0 9 -6 16 -14 16
-8 0 -21 2 -28 5 -9 4 -14 -2 -15 -15z"/>
<path d="M1670 790 c0 -6 7 -10 15 -10 8 0 15 2 15 4 0 2 -7 6 -15 10 -8 3
-15 1 -15 -4z"/>
<path d="M2638 790 c-1 -5 -15 -11 -30 -12 -15 -1 -25 -5 -23 -8 2 -4 -4 -12
-15 -20 -15 -11 -16 -17 -7 -32 17 -26 30 -22 51 16 10 19 25 37 32 40 8 3 14
10 14 16 0 13 -17 13 -22 0z"/>
<path d="M777 783 c-4 -3 -7 -11 -7 -17 0 -6 5 -5 12 2 6 6 9 14 7 17 -3 3 -9
2 -12 -2z"/>
<path d="M1315 780 c-3 -5 1 -10 9 -10 9 0 16 5 16 10 0 6 -4 10 -9 10 -6 0
-13 -4 -16 -10z"/>
<path d="M1409 768 l-12 -23 24 20 c13 11 26 21 28 22 2 2 -3 3 -12 3 -9 0
-22 -10 -28 -22z"/>
<path d="M1537 767 c-9 -15 -13 -27 -8 -27 5 0 8 -8 7 -17 -2 -25 31 -28 44
-4 8 17 8 21 -4 21 -9 0 -16 11 -18 27 l-3 27 -18 -27z"/>
<path d="M2392 772 c2 -9 11 -18 22 -20 12 -3 17 1 14 14 -1 9 -11 18 -21 20
-12 2 -17 -3 -15 -14z"/>
<path d="M791 755 c-30 -33 -10 -32 25 0 16 15 21 25 13 25 -8 0 -25 -12 -38
-25z"/>
<path d="M1097 773 c-13 -12 -7 -33 8 -33 8 0 15 5 15 10 0 6 -6 10 -12 10 -9
0 -8 4 2 10 8 5 10 10 4 10 -6 0 -14 -3 -17 -7z"/>
<path d="M2295 738 c7 -43 20 -68 36 -68 5 0 6 13 3 28 l-6 28 81 -2 c73 -1
81 1 81 17 0 20 -16 26 -22 8 -2 -6 -26 -10 -58 -9 -97 3 -100 4 -100 23 0 9
-5 17 -11 17 -7 0 -8 -14 -4 -42z"/>
<path d="M704 745 c-10 -8 -14 -14 -9 -14 6 0 19 6 29 14 11 8 15 15 10 15 -6
0 -19 -7 -30 -15z"/>
<path d="M1455 750 c3 -6 -1 -13 -10 -16 -12 -5 -13 -9 -4 -14 14 -9 69 8 69
20 0 16 -18 20 -24 5 -3 -8 -11 -15 -18 -15 -10 0 -10 2 0 9 11 7 10 9 -3 14
-9 4 -14 3 -10 -3z"/>
<path d="M1858 740 c-5 -15 -3 -27 5 -32 17 -11 27 -10 27 2 0 6 -4 10 -9 10
-5 0 -11 10 -13 23 -3 22 -4 22 -10 -3z"/>
<path d="M2090 737 c0 -17 19 -34 40 -36 45 -4 99 -11 125 -16 24 -5 21 -1
-18 20 -27 15 -58 25 -70 24 -19 -2 -45 5 -69 18 -5 2 -8 -2 -8 -10z"/>
<path d="M1260 730 c0 -4 11 -10 25 -12 14 -3 25 -2 25 2 0 4 -11 10 -25 12
-14 3 -25 2 -25 -2z"/>
<path d="M1331 723 c-1 -14 5 -23 14 -23 8 0 15 5 15 11 0 5 -4 8 -9 4 -5 -3
-12 3 -14 12 -4 14 -5 13 -6 -4z"/>
<path d="M1053 723 c-12 -2 -26 -17 -34 -34 -10 -26 -16 -29 -38 -24 -14 4
-28 10 -31 14 -8 11 -51 11 -44 0 3 -5 0 -16 -6 -24 -10 -12 -7 -17 15 -25 14
-5 33 -10 41 -10 8 0 23 -9 33 -19 19 -19 20 -19 26 10 5 24 12 29 36 29 36 0
38 16 4 32 -25 11 -34 28 -15 28 6 0 10 -4 10 -9 0 -15 30 -21 51 -11 22 12
26 35 4 26 -8 -3 -14 0 -12 6 2 13 -11 17 -40 11z"/>
<path d="M2513 705 c0 -13 3 -22 8 -19 5 3 9 14 9 25 0 10 -4 19 -9 19 -5 0
-8 -11 -8 -25z"/>
<path d="M1968 702 c-10 -2 -18 -8 -18 -13 0 -5 3 -8 8 -7 4 1 20 -4 36 -11
16 -6 34 -10 40 -7 7 3 7 5 -1 5 -7 1 -10 7 -7 15 5 14 -27 25 -58 18z"/>
<path d="M2457 703 c-14 -13 -6 -33 13 -33 22 0 23 1 14 24 -7 17 -16 20 -27
9z"/>
<path d="M3228 698 c6 -6 18 -8 28 -6 14 3 12 5 -9 10 -19 3 -25 2 -19 -4z"/>
<path d="M1223 693 c-25 -9 -13 -23 20 -22 17 1 24 3 14 6 -9 2 -15 9 -12 14
7 10 -2 11 -22 2z"/>
<path d="M1753 693 c9 -2 23 -2 30 0 6 3 -1 5 -18 5 -16 0 -22 -2 -12 -5z"/>
<path d="M820 680 c0 -5 5 -10 11 -10 5 0 7 5 4 10 -3 6 -8 10 -11 10 -2 0 -4
-4 -4 -10z"/>
<path d="M1285 670 c-3 -6 -3 -14 0 -20 9 -14 -16 -12 -65 5 -56 20 -67 19
-73 -4 -4 -17 3 -22 45 -32 27 -7 54 -20 60 -29 10 -12 10 -13 -2 -2 -20 17
-38 15 -42 -5 -2 -12 6 -22 27 -29 16 -7 44 -18 62 -25 38 -15 52 -6 34 23 -7
11 -8 17 -2 13 6 -3 18 0 26 8 15 15 8 24 -45 57 -11 7 -12 12 -4 18 9 5 8 10
-2 19 -8 8 -15 9 -19 3z m15 -94 c0 -2 -7 -6 -15 -10 -8 -3 -15 -1 -15 4 0 6
7 10 15 10 8 0 15 -2 15 -4z"/>
<path d="M3196 671 c-4 -6 -1 -11 6 -11 7 0 2 -6 -11 -13 -14 -6 -26 -18 -29
-24 -4 -15 24 -17 33 -3 3 6 18 10 33 10 15 0 34 5 42 10 12 8 11 10 -7 11
-40 3 -44 4 -52 18 -6 9 -11 10 -15 2z"/>
<path d="M767 633 c4 -11 9 -11 22 -1 9 7 18 14 20 15 3 2 -7 2 -21 1 -17 -1
-24 -7 -21 -15z"/>
<path d="M1120 605 c7 -9 15 -13 17 -11 7 7 -7 26 -19 26 -6 0 -6 -6 2 -15z"/>
<path d="M817 596 c-3 -7 -1 -18 5 -24 6 -6 5 -16 -3 -30 -16 -25 2 -52 34
-52 19 0 19 1 3 19 -11 12 -13 21 -7 25 6 4 17 -7 26 -25 16 -29 17 -30 35
-14 22 20 68 12 50 -10 -8 -9 -2 -18 22 -37 18 -13 45 -29 60 -35 25 -11 26
-10 24 13 -2 19 -17 33 -57 56 -30 17 -56 32 -58 34 -3 3 5 18 18 34 12 17 17
30 12 30 -5 0 -17 7 -26 16 -13 14 -21 15 -41 5 -31 -14 -74 -14 -74 -1 0 15
-17 12 -23 -4z"/>
<path d="M1165 566 c9 -13 14 -30 13 -37 -5 -22 29 -22 35 1 4 15 0 20 -13 20
-10 0 -22 9 -25 20 -3 11 -11 20 -16 20 -5 0 -2 -11 6 -24z"/>
<path d="M1473 504 c-18 -18 -17 -19 22 -43 l36 -21 8 23 c10 26 -16 49 -30
26 -6 -10 -10 -9 -16 8 -7 17 -10 19 -20 7z"/>
<path d="M4850 488 c0 -10 -7 -18 -16 -18 -29 0 -8 -25 24 -28 30 -3 32 -1 32
30 0 25 -3 29 -10 18 -9 -13 -11 -13 -20 0 -8 13 -10 12 -10 -2z"/>
<path d="M4718 463 c6 -2 18 -2 25 0 6 3 1 5 -13 5 -14 0 -19 -2 -12 -5z"/>
<path d="M1550 440 c0 -5 5 -10 11 -10 5 0 7 5 4 10 -3 6 -8 10 -11 10 -2 0
-4 -4 -4 -10z"/>
<path d="M4765 404 c-8 -9 -24 -14 -35 -11 -11 3 -24 -1 -31 -9 -9 -12 -4 -14
35 -14 30 0 46 4 46 13 1 8 5 6 13 -4 7 -9 17 -18 22 -20 6 -2 9 -7 8 -11 -2
-5 2 -8 7 -8 14 0 13 23 -2 38 -9 9 -8 12 4 12 9 0 24 -7 32 -16 15 -14 16
-14 16 4 0 24 -59 40 -72 20 -5 -9 -8 -8 -8 5 0 21 -14 22 -35 1z"/>
<path d="M527 384 c6 -15 23 -19 23 -5 0 5 -7 11 -14 14 -10 4 -13 1 -9 -9z"/>
<path d="M4392 375 c-13 -7 -20 -15 -15 -18 4 -3 19 3 32 14 26 21 18 24 -17
4z"/>
<path d="M4610 370 c0 -15 21 -23 32 -12 6 6 2 11 -11 15 -12 3 -21 1 -21 -3z"/>
<path d="M570 359 c0 -5 5 -7 10 -4 6 3 10 8 10 11 0 2 -4 4 -10 4 -5 0 -10
-5 -10 -11z"/>
<path d="M1525 360 c3 -5 11 -10 16 -10 6 0 7 5 4 10 -3 6 -11 10 -16 10 -6 0
-7 -4 -4 -10z"/>
<path d="M4670 351 c0 -5 11 -11 25 -13 28 -6 34 6 9 16 -22 8 -34 7 -34 -3z"/>
<path d="M3516 331 c-8 -13 16 -20 49 -13 26 5 27 6 10 13 -28 11 -53 11 -59
0z"/>
<path d="M4750 325 c-7 -8 -9 -15 -4 -15 4 0 3 -5 -4 -12 -14 -14 2 -48 22
-48 8 0 16 -7 20 -15 4 -11 -2 -15 -24 -15 -17 0 -30 -5 -30 -11 0 -5 -4 -7
-10 -4 -6 3 -7 -1 -4 -9 3 -9 10 -16 15 -16 4 0 6 -6 3 -14 -7 -17 -42 -28
-50 -15 -3 5 0 9 5 9 6 0 11 5 11 10 0 18 -22 11 -45 -14 -15 -16 -19 -27 -12
-30 7 -2 0 -5 -15 -5 -16 -1 -28 -6 -28 -12 0 -7 -12 -10 -30 -7 -16 3 -30 1
-30 -4 0 -5 -5 -6 -12 -2 -18 12 -59 9 -100 -6 -35 -13 -43 -21 -39 -42 2 -11
-17 -10 -24 2 -4 6 -15 6 -31 0 -35 -14 -44 -12 -44 5 0 8 -6 15 -12 16 -7 0
-4 4 7 9 19 8 19 9 -3 9 -17 1 -26 -7 -33 -29 -6 -16 -12 -30 -13 -30 -22 0
-67 27 -72 42 -4 15 -8 17 -14 8 -4 -7 -12 -10 -18 -6 -6 4 -10 -2 -9 -14 1
-14 8 -20 24 -20 12 0 27 -8 32 -18 8 -16 26 -18 132 -20 88 -1 125 2 131 11
6 9 10 9 20 -1 9 -9 68 -12 220 -12 l208 0 0 135 c0 88 -4 135 -11 135 -5 0
-7 -5 -4 -10 8 -14 -46 -2 -60 13 -7 6 -3 8 12 4 26 -6 36 4 27 27 -4 10 -18
16 -38 16 -18 0 -37 5 -42 10 -8 8 -15 6 -24 -5z m70 -25 c0 -5 -4 -10 -9 -10
-6 0 -13 5 -16 10 -3 6 1 10 9 10 9 0 16 -4 16 -10z m-50 -24 c0 -3 -4 -8 -10
-11 -5 -3 -10 -1 -10 4 0 6 5 11 10 11 6 0 10 -2 10 -4z m44 -48 c-4 -6 -10
-5 -15 3 -14 22 -10 33 6 19 8 -7 12 -17 9 -22z m-174 -153 c0 -10 -10 -15
-32 -14 -22 1 -26 3 -13 6 11 3 24 9 30 14 13 12 15 11 15 -6z m-134 -16 c3
-5 -2 -6 -11 -3 -8 4 -22 1 -30 -6 -15 -13 -59 -4 -50 10 7 11 84 10 91 -1z
m-301 -39 c3 -5 1 -10 -4 -10 -6 0 -11 5 -11 10 0 6 2 10 4 10 3 0 8 -4 11
-10z"/>
<path d="M4579 326 c-1 -3 -2 -9 -3 -13 -1 -5 -5 -13 -9 -20 -4 -7 0 -14 12
-18 11 -3 22 -12 25 -21 4 -11 2 -12 -14 -4 -13 7 -27 7 -47 -1 -16 -6 -22
-13 -15 -16 27 -10 10 -20 -23 -13 -20 4 -35 4 -35 -1 0 -5 9 -9 19 -9 11 0
27 -7 35 -16 10 -9 16 -11 16 -4 0 6 6 10 13 7 6 -2 27 2 45 9 18 7 40 10 49
7 9 -4 21 0 27 8 6 9 19 18 29 22 33 13 9 26 -29 16 -36 -11 -70 3 -58 22 3 5
0 9 -5 9 -6 0 -11 6 -11 14 0 14 -19 33 -21 22z m-9 -86 c0 -5 -5 -10 -11 -10
-5 0 -7 5 -4 10 3 6 8 10 11 10 2 0 4 -4 4 -10z"/>
<path d="M4659 328 c-7 -24 -5 -38 6 -38 8 0 11 7 8 20 -5 17 -11 26 -14 18z"/>
<path d="M4170 305 c-11 -13 -10 -14 4 -9 9 3 16 10 16 15 0 13 -6 11 -20 -6z"/>
<path d="M4490 286 c0 -2 7 -6 15 -10 8 -3 15 -1 15 4 0 6 -7 10 -15 10 -8 0
-15 -2 -15 -4z"/>
<path d="M4530 280 c0 -5 5 -10 10 -10 6 0 10 5 10 10 0 6 -4 10 -10 10 -5 0
-10 -4 -10 -10z"/>
<path d="M4120 259 c0 -5 5 -7 10 -4 6 3 10 8 10 11 0 2 -4 4 -10 4 -5 0 -10
-5 -10 -11z"/>
<path d="M4150 240 c20 -13 40 -13 40 0 0 6 -12 10 -27 10 -22 0 -25 -2 -13
-10z"/>
<path d="M4445 230 c3 -5 8 -10 11 -10 2 0 4 5 4 10 0 6 -5 10 -11 10 -5 0 -7
-4 -4 -10z"/>
<path d="M4364 219 c-3 -6 -15 -8 -26 -6 -16 5 -17 3 -7 -9 6 -8 23 -13 38
-12 14 1 41 -6 60 -15 41 -21 52 -16 17 7 -16 10 -23 22 -20 31 5 11 -1 15
-24 15 -17 0 -34 -5 -38 -11z"/>
<path d="M3740 209 c0 -5 -13 -15 -29 -20 -16 -6 -32 -17 -35 -25 -9 -23 10
-16 54 21 25 21 36 35 26 35 -9 0 -16 -5 -16 -11z"/>
<path d="M3886 195 c-3 -8 -1 -15 4 -15 6 0 10 7 10 15 0 8 -2 15 -4 15 -2 0
-6 -7 -10 -15z"/>
<path d="M4575 172 c-50 -19 -51 -20 -37 -34 9 -9 13 -7 18 5 3 9 17 17 29 17
13 0 27 5 30 11 11 17 2 18 -40 1z"/>
<path d="M4182 158 c17 -6 34 -6 45 1 14 8 8 10 -27 9 -41 -1 -43 -2 -18 -10z"/>
<path d="M4500 160 c0 -5 5 -10 11 -10 5 0 7 5 4 10 -3 6 -8 10 -11 10 -2 0
-4 -4 -4 -10z"/>
<path d="M3781 120 c-6 -18 -17 -30 -28 -30 -10 0 -29 -9 -43 -20 -17 -12 -34
-17 -55 -14 -26 5 -28 4 -11 -6 11 -8 34 -10 60 -6 22 4 56 9 74 11 18 2 37 7
42 10 5 3 18 -3 30 -15 19 -19 19 -20 1 -20 -10 0 -21 -7 -25 -15 -4 -12 3
-15 29 -15 21 0 35 5 35 13 0 9 2 9 8 0 5 -9 38 -12 101 -12 78 0 92 3 87 16
-3 8 -6 22 -6 30 0 10 -6 14 -18 11 -12 -3 -19 0 -19 9 0 11 9 14 29 11 16 -3
33 1 39 9 9 10 0 13 -47 12 -32 -1 -67 -7 -77 -13 -15 -9 -22 -6 -42 19 -13
16 -27 26 -31 22 -4 -4 -4 -7 0 -7 4 0 2 -9 -3 -19 -8 -13 -22 -19 -47 -19
-24 0 -32 3 -23 8 11 7 9 14 -11 34 -30 33 -36 33 -49 -4z m169 -41 c0 -4 -7
-6 -15 -3 -8 4 -15 10 -15 15 0 4 7 6 15 3 8 -4 15 -10 15 -15z m50 -30 c11
-19 10 -20 -9 -10 -27 15 -36 31 -17 31 8 0 20 -9 26 -21z m-40 -19 c0 -5 -2
-10 -4 -10 -3 0 -8 5 -11 10 -3 6 -1 10 4 10 6 0 11 -4 11 -10z m100 -4 c0 -3
-4 -8 -10 -11 -5 -3 -10 -1 -10 4 0 6 5 11 10 11 6 0 10 -2 10 -4z"/>
<path d="M4454 135 c31 -17 80 -20 71 -5 -3 5 -12 7 -20 3 -8 -3 -15 0 -15 6
0 6 -15 11 -32 11 l-33 0 29 -15z"/>
<path d="M4030 125 c7 -8 17 -15 22 -15 6 0 5 7 -2 15 -7 8 -17 15 -22 15 -6
0 -5 -7 2 -15z"/>
<path d="M4142 124 c4 -21 22 -23 26 -1 2 10 -3 17 -13 17 -10 0 -15 -6 -13
-16z"/>
<path d="M3450 111 c0 -25 6 -27 13 -6 4 8 2 17 -3 20 -6 4 -10 -3 -10 -14z"/>
<path d="M4337 123 c-14 -14 -6 -18 33 -18 41 0 52 8 24 19 -21 8 -49 8 -57
-1z"/>
<path d="M3705 100 c-3 -5 -1 -10 4 -10 6 0 11 5 11 10 0 6 -2 10 -4 10 -3 0
-8 -4 -11 -10z"/>
<path d="M3405 86 c-20 -12 -32 -36 -17 -36 11 0 47 39 41 43 -2 2 -13 -1 -24
-7z"/>
<path d="M69 83 c-1 -5 -1 -16 0 -25 1 -10 -3 -26 -9 -38 -10 -19 -8 -20 54
-20 59 0 64 2 59 20 -3 11 -9 20 -14 20 -4 0 -19 11 -33 25 -24 24 -55 33 -57
18z"/>
<path d="M0 38 l0 -43 19 30 c13 21 15 34 8 43 -18 22 -27 12 -27 -30z"/>
<path d="M4186 65 c4 -8 10 -12 15 -9 11 6 2 24 -11 24 -5 0 -7 -7 -4 -15z"/>
<path d="M550 30 c0 -5 -6 -10 -14 -10 -8 0 -18 -4 -21 -10 -4 -6 10 -10 34
-10 42 0 58 21 25 34 -21 8 -24 8 -24 -4z"/>
<path d="M635 30 c-3 -5 -2 -10 4 -10 5 0 13 5 16 10 3 6 2 10 -4 10 -5 0 -13
-4 -16 -10z"/>
<path d="M3510 31 c0 -5 7 -15 17 -22 15 -13 15 -12 4 9 -12 23 -21 28 -21 13z"/>
<path d="M3605 30 c-3 -5 3 -10 15 -10 12 0 18 5 15 10 -3 6 -10 10 -15 10 -5
0 -12 -4 -15 -10z"/>
<path d="M3430 8 c0 -4 12 -8 26 -8 14 0 23 4 19 9 -6 11 -45 10 -45 -1z"/>
<path d="M4130 10 c-9 -6 -10 -10 -3 -10 6 0 15 5 18 10 8 12 4 12 -15 0z"/>
<path d="M3698 3 c6 -2 18 -2 25 0 6 3 1 5 -13 5 -14 0 -19 -2 -12 -5z"/>
</g>
</svg>
