<?xml version="1.0" standalone="no"?>
<!DOCTYPE svg PUBLIC "-//W3C//DTD SVG 20010904//EN"
 "http://www.w3.org/TR/2001/REC-SVG-20010904/DTD/svg10.dtd">
<svg version="1.0" xmlns="http://www.w3.org/2000/svg"
 width="506.000000pt" height="262.000000pt" viewBox="0 0 506.000000 262.000000"
 preserveAspectRatio="xMidYMid meet">

<g transform="translate(0.000000,262.000000) scale(0.100000,-0.100000)"
fill="#000000" stroke="none">
<path d="M1999 2605 c-16 -17 -167 -29 -184 -15 -6 5 -32 4 -59 -1 -26 -5 -52
-6 -58 -3 -5 3 -14 1 -21 -4 -14 -11 -93 -22 -208 -27 -46 -2 -106 -11 -134
-20 -36 -11 -64 -14 -100 -8 -27 4 -57 7 -65 8 -8 0 -20 3 -26 7 -6 4 -26 0
-44 -8 -25 -13 -37 -14 -56 -5 -29 13 -64 15 -64 3 0 -25 -137 -55 -245 -55
-101 0 -311 13 -360 22 -32 6 -54 5 -62 -1 -8 -6 -28 -6 -58 0 -25 5 -78 8
-117 6 -40 -2 -88 -4 -105 -4 l-33 0 0 -495 0 -496 23 -10 22 -10 -23 5 -22 4
0 -148 0 -149 28 -4 27 -4 -27 -2 c-26 -1 -28 -4 -28 -49 0 -26 6 -54 13 -61
10 -11 9 -13 -1 -7 -16 9 -17 -75 0 -92 8 -8 8 -15 -1 -26 -9 -11 -8 -14 5
-12 25 2 28 -21 5 -29 -18 -5 -21 -15 -21 -69 l0 -63 166 -7 c92 -4 171 -3
175 1 5 5 13 26 18 48 l11 40 -4 -48 -4 -47 242 -1 c132 -1 266 -5 296 -9 35
-5 0 -7 -100 -3 -152 4 -156 4 -183 -19 -19 -17 -27 -33 -27 -56 0 -18 1 -33
3 -33 1 -1 127 -3 281 -5 153 -2 281 -6 284 -9 3 -3 -23 -5 -57 -5 -84 0 -101
-10 -101 -60 0 -33 3 -40 20 -40 11 0 20 -4 20 -8 0 -4 -42 -7 -92 -6 -99 2
-340 -9 -528 -25 -63 -6 -173 -13 -245 -16 -195 -9 -175 8 -175 -151 0 -74 4
-133 8 -130 5 3 67 8 138 12 71 3 149 10 174 16 25 5 112 18 194 28 82 11 152
23 155 27 3 4 60 9 126 10 70 2 112 -1 100 -6 -11 -4 -23 -19 -26 -32 -7 -24
-7 -24 -8 3 -1 24 -4 26 -38 22 -193 -21 -466 -57 -498 -66 -22 -5 -98 -14
-170 -19 -71 -5 -136 -10 -142 -11 -9 -1 -13 -27 -13 -90 l0 -88 836 0 836 0
-6 26 c-5 17 -3 23 4 19 5 -3 10 -15 10 -26 0 -19 20 -19 1275 -19 1325 0
1302 -1 1263 38 -7 7 -8 12 -2 12 6 0 16 -11 22 -25 7 -15 20 -25 32 -25 19 0
20 1 5 37 -8 20 -13 38 -10 41 4 4 11 -11 30 -65 2 -7 21 -13 40 -13 26 0 34
4 29 13 -6 10 -4 10 7 0 7 -7 35 -13 62 -13 l48 0 -20 26 c-11 14 -22 24 -25
22 -7 -4 -38 53 -32 59 2 2 28 -21 58 -51 53 -54 57 -56 110 -56 30 0 57 3 60
6 3 3 -15 24 -40 47 -26 23 -48 45 -50 50 -2 4 -9 7 -17 7 -7 0 -18 7 -25 15
-7 8 -16 12 -21 9 -5 -3 -8 -2 -7 3 2 4 -1 8 -5 8 -11 0 -30 35 -23 42 2 3 24
-10 48 -29 42 -34 76 -53 91 -50 4 1 7 -4 7 -11 0 -7 20 -32 43 -55 l44 -43
74 3 74 3 -59 60 c-65 66 -66 66 -82 -20 -4 -22 -9 -33 -11 -24 -2 9 1 36 6
60 10 43 10 45 -24 77 -20 18 -40 30 -45 27 -6 -3 -10 -2 -10 3 0 17 -70 54
-75 39 -10 -34 -15 -39 -11 -14 2 20 -3 33 -22 47 -13 11 -28 17 -33 14 -15
-9 -10 13 6 26 10 8 15 9 15 1 0 -6 19 -20 43 -32 23 -12 53 -30 67 -41 14
-10 57 -42 95 -70 39 -29 94 -76 124 -105 l54 -53 99 0 c97 0 99 1 96 22 -2
16 -14 26 -38 34 -70 22 -97 38 -108 63 -15 30 -96 97 -117 95 -8 -1 -12 2
-10 7 12 18 -221 145 -282 155 -40 6 -50 13 -37 26 9 10 157 -41 176 -60 7 -7
17 -12 23 -12 7 0 40 -18 74 -40 34 -22 64 -40 67 -40 4 0 15 -11 25 -24 11
-14 28 -28 39 -31 11 -4 20 -12 20 -18 0 -24 67 -75 118 -91 l52 -15 0 99 0
98 -32 7 c-47 9 -108 36 -108 48 0 6 -3 8 -6 4 -3 -3 -18 5 -32 18 -14 13 -29
22 -33 20 -3 -3 -10 -24 -15 -47 l-8 -43 -4 34 c-2 18 1 38 7 44 6 6 11 15 11
19 0 10 -102 60 -108 54 -2 -2 -7 -26 -12 -53 l-9 -48 4 52 c2 33 0 55 -8 60
-26 20 -147 46 -147 32 0 -4 -12 -1 -27 7 -16 7 -36 14 -45 14 -9 0 -19 4 -22
9 -7 11 34 22 48 13 6 -3 20 -7 31 -8 11 0 30 -4 43 -8 16 -5 22 -3 22 8 0 8
4 18 10 21 6 3 7 -1 4 -9 -3 -9 0 -18 7 -20 8 -2 23 -7 34 -12 11 -4 22 -8 25
-8 3 -1 16 -9 30 -18 14 -9 36 -18 50 -20 14 -2 31 -11 38 -20 7 -10 20 -18
28 -18 8 0 32 -11 52 -25 20 -14 42 -25 49 -25 7 0 13 -4 13 -9 0 -9 82 -51
100 -51 6 0 10 37 10 94 l0 93 -42 6 c-24 3 -44 4 -46 3 -1 -2 -5 -26 -9 -54
-3 -28 -10 -49 -14 -46 -5 3 -7 15 -5 27 17 82 17 96 -2 106 -10 6 -30 12 -43
15 -13 2 -32 7 -42 11 -10 4 -24 1 -34 -6 -14 -12 -15 -11 -9 9 6 18 3 22 -12
22 -11 0 -33 3 -49 6 -30 6 -31 4 -41 -43 l-11 -48 5 49 c6 54 -2 66 -48 66
-25 0 -28 -4 -29 -32 -2 -29 -2 -30 -6 -7 -5 32 -28 38 -118 34 -57 -3 -93 2
-178 23 -44 12 -117 -12 -117 -38 0 -13 -1 -13 -10 0 -8 12 -10 9 -10 -11 0
-29 -28 -48 -41 -27 -9 15 -1 31 12 23 5 -4 9 1 9 9 0 8 -13 24 -30 36 -31 22
-34 19 -30 -27 1 -18 -3 -21 -15 -17 -13 6 -14 9 -3 16 9 6 5 7 -11 3 -16 -5
-21 -4 -17 4 4 6 -7 17 -26 25 l-33 14 32 1 c25 1 31 5 27 16 -4 10 -13 13
-25 10 -16 -6 -18 -1 -15 35 4 43 -8 60 -27 40 -9 -10 -9 -14 1 -17 22 -8 13
-23 -15 -23 -24 -1 -25 -2 -10 -11 9 -5 17 -15 17 -20 0 -6 -4 -7 -10 -4 -14
9 -12 -8 3 -24 10 -11 9 -13 -5 -8 -10 3 -20 2 -23 -3 -4 -6 -2 -10 2 -10 5 0
14 -10 22 -23 13 -20 13 -21 -2 -9 -30 25 -25 -4 7 -46 38 -47 57 -46 24 2
l-22 31 27 -24 c20 -18 25 -30 20 -49 -4 -17 -2 -23 6 -18 18 11 13 40 -14 81
-15 20 -24 39 -21 42 8 8 107 -48 101 -57 -4 -6 -16 -3 -31 6 -29 20 -33 2 -5
-23 19 -16 19 -39 0 -28 -5 4 -9 2 -9 -4 0 -5 4 -13 10 -16 15 -9 32 -45 22
-45 -5 0 -14 12 -21 26 -14 33 -22 27 -27 -21 -2 -29 0 -34 10 -26 9 7 16 7
24 -1 15 -15 16 -38 2 -38 -7 0 -7 -7 0 -20 6 -11 15 -18 20 -15 6 4 7 -1 3
-11 -6 -15 -8 -15 -25 6 -21 26 -23 46 -5 53 9 3 9 7 0 17 -8 9 -13 7 -18 -10
-6 -20 -8 -18 -27 17 -50 92 -98 126 -98 69 0 -15 -3 -17 -9 -7 -5 7 -6 21 -4
31 3 11 -3 22 -15 29 -23 12 -19 53 4 44 9 -3 12 -13 9 -24 -4 -12 1 -21 15
-29 18 -10 20 -8 19 17 0 15 -3 22 -6 16 -2 -7 -9 -13 -14 -13 -6 0 -6 7 0 17
9 18 7 70 -3 80 -3 3 -8 -2 -12 -11 -4 -10 -2 -22 5 -29 17 -17 13 -29 -7 -18
-13 7 -18 19 -16 41 2 27 -9 35 -12 9 -1 -5 -2 -13 -3 -17 0 -5 -8 -9 -16 -9
-8 0 -12 4 -9 8 2 4 0 10 -5 14 -5 3 -8 15 -6 27 3 11 2 18 -2 15 -3 -4 -11 4
-18 17 -15 29 -13 309 3 346 10 24 11 24 12 -10 0 -34 1 -34 13 -11 19 38 45
50 62 28 7 -11 11 -25 9 -32 -6 -16 -53 -37 -65 -30 -5 4 -9 2 -9 -3 0 -6 6
-12 14 -15 8 -3 12 -16 11 -31 -2 -14 1 -28 6 -32 5 -3 9 7 9 21 0 25 3 26 27
20 34 -8 83 -58 83 -85 0 -11 5 -20 11 -20 6 0 9 -7 5 -15 -3 -8 0 -15 5 -15
6 0 9 9 6 20 -3 11 -1 20 5 20 6 0 8 9 5 20 -8 32 8 32 31 0 12 -15 40 -39 62
-51 41 -23 51 -39 26 -39 -29 0 -72 22 -93 48 -28 34 -30 18 -3 -25 11 -19 41
-43 70 -58 43 -22 49 -29 40 -41 -10 -11 -10 -17 0 -29 11 -14 7 -19 -12 -16
-17 2 -7 -29 12 -39 26 -14 40 -5 40 25 0 15 11 33 30 47 17 12 30 29 31 37 0
11 2 12 6 3 3 -9 19 -11 51 -7 33 4 65 0 107 -14 55 -19 57 -20 18 -15 -32 4
-43 2 -43 -8 -1 -9 -5 -8 -14 5 -15 20 -42 23 -49 5 -4 -10 -6 -10 -6 0 -1 9
-11 11 -38 6 -40 -7 -83 -44 -83 -71 0 -13 3 -13 27 2 20 14 40 16 90 12 53
-4 63 -2 64 12 1 9 4 5 8 -9 5 -17 16 -27 36 -30 34 -6 52 6 52 35 -1 77 18
98 95 99 l43 1 0 48 c-1 52 0 51 -53 42 -29 -5 -41 -13 -50 -33 -8 -19 -10
-21 -6 -4 4 16 1 22 -11 22 -45 0 45 39 125 54 14 3 40 9 58 15 17 5 32 7 32
4 0 -3 11 2 24 11 14 8 51 17 82 19 46 3 59 7 64 23 7 18 7 18 14 -3 6 -18 12
-21 37 -16 19 3 29 1 29 -6 0 -8 14 -11 38 -9 l37 3 3 82 c2 69 0 83 -13 83
-19 0 -19 19 0 44 20 27 22 681 2 689 -9 4 -9 6 1 6 9 1 12 87 12 397 0 356
-2 395 -15 384 -9 -7 -30 -13 -48 -12 -33 1 -79 -22 -140 -71 -30 -23 -38 -26
-59 -17 -18 9 -30 8 -51 -3 -22 -12 -35 -12 -58 -3 -26 9 -36 8 -71 -12 -30
-16 -44 -19 -54 -11 -16 13 -79 -6 -112 -36 -20 -17 -36 -20 -105 -18 -45 1
-95 7 -112 14 -16 7 -44 13 -60 14 -17 1 -36 5 -44 9 -7 5 -18 3 -24 -4 -9
-10 -9 -11 1 -6 6 4 12 2 12 -3 0 -14 -11 -14 -44 -1 -15 5 -28 6 -31 0 -5 -9
-69 -5 -85 5 -5 3 -11 1 -14 -4 -11 -16 -59 -2 -114 35 -50 33 -57 35 -144 35
-75 0 -95 4 -118 20 -30 23 -118 33 -138 17 -7 -6 -15 -8 -19 -5 -3 4 -11 3
-17 -2 -14 -11 -110 3 -159 24 -43 18 -81 19 -109 4 -42 -23 -303 -27 -344 -6
-48 24 -84 29 -90 13 -4 -11 -13 -12 -42 -4 -20 6 -61 7 -92 4 -66 -8 -62 -8
-175 -3 -66 2 -102 9 -137 25 -59 28 -223 32 -249 7z m2178 -181 c-3 -3 -12
-4 -19 -1 -8 3 -5 6 6 6 11 1 17 -2 13 -5z m-3740 -260 c-3 -3 -12 -4 -19 -1
-8 3 -5 6 6 6 11 1 17 -2 13 -5z m3663 1 c0 -2 -10 -10 -22 -16 -21 -11 -22
-11 -9 4 13 16 31 23 31 12z m15 -105 c3 -5 13 -6 22 -3 10 4 14 2 10 -4 -6
-9 35 -24 60 -22 3 0 13 -15 21 -33 12 -29 15 -31 21 -14 12 30 20 5 14 -40
-5 -38 -7 -41 -37 -40 -17 1 -34 6 -38 11 -4 6 -8 2 -8 -7 0 -10 -4 -18 -9
-18 -13 0 0 43 18 58 14 12 14 13 -2 8 -15 -5 -17 -2 -11 17 4 12 12 25 18 29
7 5 5 8 -6 8 -9 0 -19 6 -21 13 -3 7 -6 5 -6 -5 -1 -11 -9 -18 -21 -18 -13 0
-18 5 -14 15 5 11 2 13 -11 9 -14 -6 -16 -3 -11 14 5 15 2 22 -11 25 -16 4
-16 5 -1 6 9 0 19 -3 23 -9z m-25 -25 c0 -8 -8 -15 -17 -14 -13 0 -14 2 -4 6
11 5 11 7 0 14 -11 7 -10 9 4 9 9 0 17 -7 17 -15z m-50 -4 c0 -5 -9 -7 -20 -4
-11 3 -20 7 -20 9 0 2 9 4 20 4 11 0 20 -4 20 -9z m-3727 -49 c15 -10 34 -27
43 -38 8 -10 13 -13 9 -6 -3 6 -2 12 4 12 5 0 13 -9 16 -20 12 -37 56 -80 82
-80 14 0 23 -5 21 -11 -5 -14 -58 -22 -58 -9 0 5 -6 7 -14 4 -9 -4 -20 7 -31
30 -9 19 -38 57 -65 85 -51 54 -53 63 -7 33z m3618 -4 c8 -15 6 -18 -11 -18
-12 0 -20 7 -21 18 0 10 -3 12 -6 5 -2 -7 -9 -13 -14 -13 -4 0 -6 6 -3 14 8
20 43 16 55 -6z m159 -20 c0 -5 -7 -8 -15 -8 -17 0 -18 2 -9 25 5 13 8 14 15
3 5 -7 9 -16 9 -20z m26 -5 c-10 -10 -19 5 -10 18 6 11 8 11 12 0 2 -7 1 -15
-2 -18z m-66 7 c0 -6 -11 -9 -25 -7 -36 4 -38 12 -5 15 17 1 30 -2 30 -8z
m-1350 -35 c0 -19 -5 -25 -23 -25 -19 0 -57 30 -57 45 0 3 18 5 40 5 36 0 40
-2 40 -25z m970 -36 c0 -5 -7 -9 -16 -9 -8 0 -12 -5 -9 -10 4 -6 12 -7 18 -4
9 5 9 4 0 -6 -6 -7 -9 -19 -6 -26 3 -9 -1 -14 -12 -14 -9 0 -14 -4 -10 -9 3
-5 1 -13 -5 -16 -8 -5 -7 -11 1 -21 11 -13 6 -18 -14 -15 -11 2 -28 -49 -20
-62 3 -7 3 -9 -2 -5 -4 4 -15 2 -23 -5 -17 -13 -18 -14 13 57 l16 39 -25 -5
c-14 -3 -27 -2 -28 3 -2 4 -10 9 -18 11 -8 2 -18 7 -21 12 -4 4 -16 5 -28 1
-32 -10 -25 -51 8 -47 19 2 21 0 12 -11 -6 -8 -8 -17 -4 -20 3 -4 1 -7 -4 -7
-6 0 -13 6 -15 12 -3 9 -11 8 -31 -5 -25 -16 -27 -16 -36 1 -9 16 -10 16 -17
-1 -6 -17 -7 -17 -20 0 -11 15 -16 16 -33 6 -15 -10 -21 -10 -25 0 -3 9 -7 8
-15 -3 -7 -10 -7 -18 0 -27 8 -9 2 -11 -27 -6 -25 4 -35 3 -31 -4 4 -6 1 -13
-7 -16 -9 -4 -16 3 -19 19 -3 20 0 24 20 24 25 0 57 23 46 34 -4 3 -20 6 -37
6 -27 0 -33 5 -43 37 -9 29 -9 39 0 45 8 5 13 0 15 -12 2 -11 8 -20 14 -20 5
0 8 6 5 14 -8 20 28 49 51 42 11 -4 31 -2 46 3 29 12 36 -2 9 -18 -10 -6 -13
-11 -6 -11 6 0 19 10 28 22 l15 23 25 -27 c25 -27 26 -27 67 -12 38 13 43 13
51 -1 8 -15 11 -15 30 2 12 10 19 14 15 9 -4 -5 -3 -15 4 -23 9 -11 13 -10 22
8 6 12 16 21 21 21 6 -1 16 10 23 24 12 23 32 25 32 3z m70 11 c-8 -5 -24 -9
-35 -9 l-20 0 20 9 c11 5 27 9 35 9 13 1 13 0 0 -9z m875 -10 c-3 -5 -11 -10
-16 -10 -6 0 -7 5 -4 10 3 6 11 10 16 10 6 0 7 -4 4 -10z m-4011 -19 c4 -5 -3
-7 -14 -4 -23 6 -26 13 -6 13 8 0 17 -4 20 -9z m2857 -5 c5 3 9 0 9 -5 0 -6
-11 -10 -24 -9 -20 2 -23 5 -13 16 7 10 13 10 15 3 2 -6 8 -9 13 -5z m-2888
-33 c9 -21 19 -48 22 -60 9 -34 60 -83 86 -83 22 0 22 0 3 15 -26 20 -10 19
29 -2 37 -20 127 -25 120 -6 -3 7 9 11 34 11 l38 0 -30 -13 c-17 -7 -25 -15
-20 -16 6 -1 -19 -5 -55 -9 l-65 -7 63 -1 62 -2 0 -35 c0 -19 -4 -35 -10 -35
-5 0 -10 11 -10 25 0 16 -6 25 -15 25 -8 0 -15 -4 -15 -10 0 -5 -7 -6 -17 -3
-12 5 -14 3 -9 -8 4 -8 1 -6 -7 4 -34 41 -49 5 -23 -56 24 -57 48 -74 146
-104 8 -3 1 4 -16 15 -33 21 -74 80 -74 103 1 8 10 -3 21 -23 23 -45 51 -65
99 -71 48 -7 49 -8 20 -17 l-25 -8 28 -1 c18 -1 27 4 27 14 0 8 5 15 10 15 6
0 10 -6 10 -12 0 -9 4 -8 11 2 8 12 12 12 16 2 4 -9 8 -10 18 -2 9 8 15 8 20
0 3 -5 11 -10 16 -10 6 0 7 5 3 12 -5 7 -2 9 8 5 9 -3 21 0 28 6 10 9 11 9 6
0 -9 -16 -4 -16 28 1 28 14 144 14 167 0 7 -4 26 -8 43 -9 39 -1 56 -11 56
-33 0 -12 3 -13 8 -5 5 8 13 9 22 3 21 -13 70 -12 70 1 0 7 10 9 25 7 19 -4
25 -1 25 12 0 13 6 16 26 12 20 -3 26 0 31 17 4 17 8 19 19 10 15 -12 34 -4
34 16 0 8 7 11 20 8 20 -5 24 7 23 85 0 12 4 22 9 22 5 0 4 9 -2 20 -8 15 -8
20 1 20 19 0 49 -31 49 -52 0 -15 8 -18 60 -18 33 0 60 -4 60 -9 0 -4 20 -19
45 -32 25 -13 45 -28 45 -32 0 -5 5 -5 10 -2 6 3 10 2 10 -4 0 -5 16 -15 35
-21 19 -6 35 -16 35 -21 0 -6 5 -7 10 -4 6 3 13 0 16 -9 3 -8 12 -12 20 -9 8
3 14 0 14 -7 0 -7 8 -9 20 -5 13 4 20 2 20 -7 1 -8 4 -7 10 4 8 12 17 14 38 8
15 -4 26 -12 25 -18 -1 -5 7 -8 17 -5 13 4 20 0 20 -10 0 -8 9 -17 20 -20 11
-3 19 -11 18 -18 -2 -7 3 -13 11 -14 8 0 19 -15 25 -33 6 -18 15 -30 18 -26 7
7 15 -10 36 -73 16 -50 0 -40 -38 25 -49 81 -129 143 -182 141 -13 0 -17 -3
-10 -6 6 -2 12 -9 12 -14 0 -16 -30 3 -31 20 0 10 -2 11 -6 3 -2 -6 -10 -10
-16 -7 -7 3 -3 0 7 -7 11 -7 28 -21 38 -30 10 -10 21 -18 25 -17 4 0 9 -5 12
-12 2 -7 -1 -9 -9 -4 -7 4 -4 -4 5 -19 17 -26 33 -37 19 -13 -4 7 -3 8 2 4 5
-5 9 -16 9 -25 0 -9 5 -16 12 -15 8 2 10 -4 6 -14 -4 -10 -2 -14 4 -10 6 4 14
0 17 -9 4 -10 2 -13 -7 -9 -6 4 -3 -1 7 -9 11 -9 16 -16 10 -16 -5 0 -2 -6 6
-13 26 -21 56 -61 40 -52 -12 6 -13 5 -2 -6 16 -18 15 -29 -4 -29 -10 0 -14
-7 -12 -24 1 -13 -3 -31 -11 -40 -8 -9 -11 -19 -7 -23 3 -3 6 -1 6 6 0 7 5 9
12 5 6 -4 17 1 25 11 7 11 13 14 13 9 0 -18 -42 -55 -56 -50 -7 3 -16 0 -20
-6 -4 -7 -3 -8 4 -4 7 4 12 2 12 -3 0 -6 -7 -11 -15 -11 -8 0 -15 -5 -15 -12
0 -6 -3 -8 -6 -5 -4 4 1 18 10 32 16 24 16 26 -6 49 -68 72 -68 72 -70 137
l-1 64 -6 -54 c-6 -55 -20 -73 -40 -49 -6 7 -20 24 -31 37 -11 13 -20 21 -20
17 0 -3 -16 8 -35 25 -19 18 -35 38 -35 46 0 7 -7 13 -15 13 -11 0 -15 13 -17
48 l-1 47 -4 -44 -4 -45 -22 26 c-12 14 -33 29 -47 33 -44 14 -67 34 -85 76
-14 30 -23 39 -37 36 -16 -5 -18 2 -18 63 l0 68 30 -14 c17 -9 30 -20 30 -25
0 -6 5 -7 10 -4 6 3 13 -1 16 -9 3 -9 10 -13 15 -10 5 3 9 1 9 -5 0 -6 15 -18
33 -27 31 -16 31 -16 17 1 -14 17 -14 17 15 2 33 -17 79 -52 55 -42 -8 4 -6
-1 4 -9 23 -19 38 -20 53 -5 12 12 -21 40 -87 74 -16 8 -45 28 -63 44 -25 23
-46 31 -90 35 l-57 5 0 -75 c0 -72 -1 -74 -20 -64 -11 6 -25 8 -30 5 -6 -3
-10 3 -10 15 0 12 -6 28 -14 35 -12 12 -14 9 -18 -21 -3 -28 -1 -34 11 -29 9
3 3 -6 -14 -20 -35 -29 -39 -27 -25 9 7 20 7 25 -2 20 -8 -5 -9 -2 -5 9 3 10
2 17 -3 17 -6 0 -10 -19 -10 -41 0 -68 -47 -87 -115 -49 l-37 21 7 -21 c4 -11
2 -20 -4 -20 -6 0 -14 -12 -18 -27 -7 -26 -8 -25 -14 17 l-6 45 -1 -42 c-2
-33 -5 -41 -17 -37 -8 4 -15 14 -15 23 0 11 -3 12 -8 4 -4 -7 -29 -14 -55 -16
-26 -3 -44 0 -41 5 3 5 -5 8 -18 7 -12 -1 -38 1 -55 6 -28 6 -33 12 -34 39 -2
30 -2 30 -6 4 -4 -23 -9 -28 -33 -28 -17 0 -33 7 -39 18 -6 9 -11 11 -11 5 0
-7 -11 -13 -25 -13 -21 0 -25 5 -25 32 l0 31 -20 -23 c-11 -13 -20 -28 -20
-34 0 -6 -7 -3 -14 7 -8 10 -16 14 -17 8 -2 -5 -17 -13 -32 -16 -24 -6 -29 -4
-34 14 -5 20 -6 20 -19 4 -12 -17 -13 -16 -14 6 0 20 -2 21 -15 11 -12 -10
-15 -9 -16 6 -1 16 -2 16 -6 2 -4 -17 -43 -21 -43 -5 0 4 -4 6 -9 3 -29 -18
-60 43 -76 151 -6 40 -10 44 -48 55 -47 14 -60 26 -83 78 -44 102 -58 130 -66
130 -4 0 -8 5 -8 10 0 25 28 6 43 -27z m3847 3 c0 5 5 2 10 -6 8 -13 11 -13
19 -1 6 9 18 11 36 7 27 -7 27 -9 22 -58 -4 -28 -8 -52 -9 -54 -7 -7 -157 20
-152 27 3 5 -2 6 -10 3 -9 -3 -16 -1 -16 6 0 6 -5 8 -12 4 -9 -5 -9 -3 1 9 7
9 17 14 22 11 17 -10 51 7 45 22 -8 21 16 45 32 32 6 -6 12 -7 12 -2z m-292
-4 c15 -10 5 -42 -13 -42 -7 0 -15 -6 -18 -12 -2 -7 -7 -11 -10 -8 -4 3 0 18
7 32 8 15 12 29 8 32 -8 9 11 7 26 -2z m-92 -29 c-10 -10 -19 5 -10 18 6 11 8
11 12 0 2 -7 1 -15 -2 -18z m-2766 -14 c0 -5 -9 -9 -20 -9 -22 0 -27 16 -7 23
15 5 27 -1 27 -14z m-59 -34 c5 4 9 2 9 -3 0 -5 -18 -16 -40 -25 -24 -9 -40
-11 -40 -5 0 6 -8 1 -17 -10 -24 -26 -94 -52 -129 -47 -16 2 -35 4 -41 4 -7 1
-13 10 -13 21 0 11 6 20 13 21 6 0 19 2 27 4 8 2 41 10 73 18 32 8 60 17 63
20 3 2 21 1 40 -3 32 -7 34 -6 35 19 2 23 2 24 6 3 2 -12 9 -20 14 -17z m2726
3 c-3 -7 -5 -2 -5 12 0 14 2 19 5 13 2 -7 2 -19 0 -25z m-2625 -24 c4 -38 -7
-53 -25 -35 -8 8 -8 11 1 11 7 0 12 12 11 28 0 15 -3 22 -5 15 -3 -7 -12 -9
-20 -6 -18 7 -11 18 14 20 16 1 21 -6 24 -33z m2743 -4 c39 0 39 -1 15 -13
-15 -8 -28 -9 -31 -4 -4 5 -10 0 -14 -12 -6 -21 -21 -28 -27 -12 -1 4 -14 12
-28 16 l-25 7 20 -20 c11 -11 22 -20 25 -20 29 0 30 -3 13 -33 -10 -17 -24
-33 -30 -36 -7 -3 -13 -11 -13 -18 0 -8 -4 -16 -9 -19 -19 -12 2 33 25 55 31
29 30 39 -2 39 -16 0 -23 4 -18 12 5 7 3 8 -7 3 -7 -5 -30 -10 -50 -12 -26 -3
-36 0 -36 11 0 8 6 12 15 8 10 -3 13 -1 8 6 -4 7 -5 12 -2 12 2 0 13 3 23 7
16 6 17 5 3 -12 -14 -17 -14 -17 7 -4 18 11 20 15 8 22 -8 4 -23 3 -34 -3 -25
-13 -41 -13 -41 1 0 5 4 8 9 5 4 -3 17 1 27 9 14 11 35 14 74 11 30 -3 73 -5
95 -6z m275 -46 c0 -8 -5 -12 -10 -9 -6 4 -8 11 -5 16 9 14 15 11 15 -7z m111
1 c59 -6 66 -8 62 -26 -3 -10 -9 -16 -15 -13 -5 3 -15 1 -22 -5 -10 -8 -20 -5
-40 14 -31 28 -51 33 -42 9 9 -23 -14 -12 -33 15 -14 22 -14 23 4 18 11 -3 50
-8 86 -12z m-2526 -5 c4 -6 11 -8 16 -5 5 4 9 2 9 -4 0 -18 -18 -21 -34 -5 -9
8 -16 17 -16 20 0 8 19 4 25 -6z m1062 3 c-4 -3 1 -12 11 -19 15 -12 14 -13
-13 -14 -16 -1 -24 -4 -17 -7 7 -3 -2 -14 -24 -29 -19 -13 -40 -22 -45 -19 -5
4 -14 -5 -21 -19 -14 -31 -19 -32 -35 -7 -11 17 -9 21 7 26 11 4 18 10 15 15
-7 11 5 40 15 40 5 0 16 -7 24 -16 19 -18 43 -9 26 11 -7 9 -7 15 2 22 21 17
69 31 55 16z m576 -50 c-10 -21 -22 -45 -29 -53 -6 -8 -17 -32 -25 -52 -7 -21
-16 -38 -20 -38 -11 0 35 101 78 173 13 22 10 2 -4 -30z m-767 -22 c14 -1 28
-31 14 -31 -5 0 -16 7 -24 16 -14 14 -18 13 -42 -11 -21 -21 -29 -24 -35 -13
-5 7 -9 16 -9 19 0 8 53 26 70 23 8 -1 20 -3 26 -3z m1564 5 c0 -2 -7 -7 -16
-10 -8 -3 -12 -2 -9 4 6 10 25 14 25 6z m90 -37 c-10 -18 -9 -19 14 -13 20 5
26 2 26 -11 0 -12 -5 -15 -16 -11 -9 3 -25 6 -37 6 -16 0 -18 3 -9 12 7 7 12
20 12 31 0 10 5 15 10 12 7 -4 7 -13 0 -26z m-1760 -9 c0 -5 -4 -10 -10 -10
-5 0 -10 5 -10 10 0 6 5 10 10 10 6 0 10 -4 10 -10z m360 1 c0 -5 -9 -19 -21
-32 l-20 -24 17 33 c19 33 24 38 24 23z m-2415 -20 c-3 -6 -11 -11 -17 -11 -6
0 -6 6 2 15 14 17 26 13 15 -4z m2160 9 c-3 -5 -12 -10 -18 -10 -7 0 -6 4 3
10 19 12 23 12 15 0z m1590 -36 c-2 -10 -4 -25 -4 -32 -1 -7 -6 -10 -11 -7 -6
4 -8 11 -4 16 3 6 -2 17 -12 24 -18 13 -18 14 1 29 23 17 36 4 30 -30z m-4260
26 c-27 -12 -43 -12 -25 0 8 5 22 9 30 9 10 0 8 -3 -5 -9z m2530 -20 c-10 -11
-25 -20 -34 -20 -12 0 -9 6 9 20 33 26 48 26 25 0z m216 -13 c-10 -9 -11 -8
-5 6 3 10 9 15 12 12 3 -3 0 -11 -7 -18z m1554 13 c3 -5 -1 -10 -10 -10 -9 0
-13 5 -10 10 3 6 8 10 10 10 2 0 7 -4 10 -10z m-1716 -22 c-8 -5 -23 -14 -34
-20 -17 -9 -16 -7 4 15 13 15 28 24 34 20 5 -3 3 -9 -4 -15z m1734 -15 c-4
-11 -3 -14 5 -9 7 4 12 2 12 -3 0 -6 -2 -11 -4 -11 -2 0 -11 -3 -19 -6 -16 -6
-18 11 -4 34 12 17 17 15 10 -5z m47 0 c0 -10 -5 -25 -10 -33 -7 -11 -10 -7
-10 18 0 17 5 32 10 32 6 0 10 -8 10 -17z m-540 -14 c0 -6 -4 -7 -10 -4 -5 3
-10 11 -10 16 0 6 5 7 10 4 6 -3 10 -11 10 -16z m-3435 1 c-3 -5 -11 -10 -16
-10 -6 0 -7 5 -4 10 3 6 11 10 16 10 6 0 7 -4 4 -10z m2476 -13 c-10 -9 -11
-8 -5 6 3 10 9 15 12 12 3 -3 0 -11 -7 -18z m1104 13 c-3 -5 -1 -10 6 -10 7 0
10 -3 6 -6 -9 -9 -28 6 -22 17 4 5 8 9 11 9 3 0 2 -4 -1 -10z m-1435 -20 c0
-5 -5 -10 -11 -10 -5 0 -7 5 -4 10 3 6 8 10 11 10 2 0 4 -4 4 -10z m150 0 c0
-5 -5 -10 -11 -10 -5 0 -7 5 -4 10 3 6 8 10 11 10 2 0 4 -4 4 -10z m653 -17
c-4 -10 -15 -29 -25 -42 -10 -13 -18 -29 -18 -36 0 -6 -9 -20 -20 -30 -26 -23
-26 -8 0 25 11 14 20 30 20 36 0 11 38 64 45 64 3 0 1 -8 -2 -17z m586 -13
c-13 -16 -25 -28 -27 -25 -5 5 37 55 45 55 2 0 -6 -13 -18 -30z m406 20 c-3
-5 -1 -10 6 -10 7 0 10 -3 6 -6 -3 -3 -15 -3 -28 1 -17 6 -19 9 -8 16 19 12
32 11 24 -1z m-522 -6 c8 -9 -29 -47 -42 -43 -8 3 -6 12 4 27 16 22 27 27 38
16z m-1856 -10 c-3 -3 -12 -4 -19 -1 -8 3 -5 6 6 6 11 1 17 -2 13 -5z m553 -4
c0 -5 -7 -10 -16 -10 -8 0 -12 5 -9 10 3 6 10 10 16 10 5 0 9 -4 9 -10z
m-2200 -14 c0 -2 -9 -6 -20 -9 -11 -3 -18 -1 -14 4 5 9 34 13 34 5z m2610 -19
c0 -8 -11 -24 -25 -37 -14 -13 -25 -18 -25 -12 0 6 5 14 10 17 6 3 10 11 10
16 0 6 -4 7 -10 4 -5 -3 -10 0 -10 7 0 8 11 15 25 16 15 1 25 -3 25 -11z
m-450 -12 c0 -1 -8 -9 -17 -16 -11 -10 -14 -10 -9 -1 9 15 -6 16 -22 0 -7 -7
-12 -8 -12 -4 0 14 33 34 47 29 7 -3 13 -6 13 -8z m-2220 1 c0 -2 -8 -10 -17
-17 -16 -13 -17 -12 -4 4 13 16 21 21 21 13z m115 -6 c-27 -12 -43 -12 -25 0
8 5 22 9 30 9 10 0 8 -3 -5 -9z m3530 -10 c-2 -29 -10 -33 -13 -5 -1 14 2 25
6 25 5 0 8 -9 7 -20z m-3690 -20 c-3 -5 -12 -10 -18 -10 -7 0 -6 4 3 10 19 12
23 12 15 0z m3586 -33 c4 -26 2 -38 -9 -42 -23 -9 -37 7 -18 21 18 13 18 43 1
57 -6 5 -4 7 5 4 8 -2 18 -20 21 -40z m-3341 19 c0 -8 -6 -16 -14 -19 -10 -4
-12 0 -9 14 6 22 23 26 23 5z m-215 -26 c-3 -5 -12 -10 -18 -10 -7 0 -6 4 3
10 19 12 23 12 15 0z m43 -10 c-17 -27 -42 -37 -28 -11 8 16 19 24 38 30 1 1
-3 -8 -10 -19z m2539 7 c0 -7 -11 -21 -24 -31 l-25 -18 16 31 c17 32 33 41 33
18z m1051 -7 c-7 -10 -14 -18 -15 -16 -6 6 9 36 18 36 5 0 4 -9 -3 -20z
m-3677 -13 c-10 -9 -11 -8 -5 6 3 10 9 15 12 12 3 -3 0 -11 -7 -18z m349 -21
c0 -2 -7 -7 -16 -10 -8 -3 -12 -2 -9 4 6 10 25 14 25 6z m2670 -56 c-30 -43
-38 -30 -9 16 12 21 25 32 27 26 2 -6 -6 -26 -18 -42z m-3195 -10 c-3 -5 3
-10 14 -10 12 0 21 -5 21 -11 0 -6 -7 -8 -16 -5 -9 3 -23 6 -31 6 -13 0 -13 3
-3 15 14 17 24 20 15 5z m426 -13 c-10 -9 -11 -8 -5 6 3 10 9 15 12 12 3 -3 0
-11 -7 -18z m299 2 c-7 -11 -14 -18 -17 -15 -3 3 0 12 7 21 18 21 23 19 10 -6z
m3036 8 c4 -4 2 -7 -5 -7 -10 0 -9 -7 4 -26 9 -15 12 -23 6 -19 -9 5 -11 -5
-7 -33 3 -30 1 -42 -11 -46 -30 -12 -31 -7 -24 116 1 25 20 33 37 15z m1094 3
c-8 -5 -19 -10 -25 -10 -5 0 -3 5 5 10 8 5 20 10 25 10 6 0 3 -5 -5 -10z
m-2052 -47 c-2 -9 -13 -17 -26 -18 -21 -2 -21 -1 -5 17 20 23 35 23 31 1z
m1972 13 c0 -2 -31 -22 -70 -45 -38 -23 -69 -47 -67 -53 1 -6 -5 -13 -13 -15
-13 -4 -13 -3 0 7 13 9 12 11 -5 8 -11 -2 -20 -10 -20 -18 0 -8 -8 -14 -18
-14 -9 1 -26 -13 -37 -31 -16 -26 -30 -35 -63 -40 -23 -4 -82 -21 -131 -37
-48 -16 -90 -27 -93 -24 -5 5 112 66 150 77 16 4 27 4 27 -2 0 -12 37 7 67 33
12 11 26 17 32 13 6 -3 11 -2 11 3 0 10 80 63 165 109 64 35 65 35 65 29z
m-4602 -20 c-2 -6 8 -27 22 -46 14 -19 39 -59 56 -89 34 -62 47 -68 139 -70
58 -1 61 -2 72 -31 l11 -30 -75 1 c-64 1 -76 4 -80 19 -3 10 -11 21 -19 24
-14 5 -53 -11 -65 -26 -3 -5 -28 -2 -57 6 -29 7 -52 10 -52 7 0 -6 -85 -7
-105 -1 -5 1 -14 2 -20 0 -26 -5 -75 12 -75 27 0 10 5 13 18 8 38 -16 55 -18
48 -7 -4 7 -15 12 -24 12 -15 0 -15 2 -2 10 8 5 26 9 40 8 23 -1 23 -1 3 -5
-18 -4 -20 -7 -10 -18 10 -11 15 -11 34 0 28 19 118 18 103 0 -8 -9 -4 -14 15
-17 28 -6 32 1 13 21 -11 11 -7 13 21 7 18 -3 42 -6 53 -6 10 0 16 -4 13 -10
-3 -5 1 -10 9 -10 27 0 18 29 -15 45 -23 12 -29 21 -24 36 5 13 -6 38 -34 79
-23 33 -41 61 -41 63 0 2 7 4 15 4 8 0 14 -5 13 -11z m123 -6 c4 0 10 -7 13
-16 5 -13 -1 -15 -31 -12 -31 2 -73 26 -73 42 0 2 19 0 43 -5 23 -4 45 -8 48
-9z m2859 -15 c-7 -8 -18 -15 -25 -15 -7 0 -18 -7 -25 -15 -14 -17 -30 -20
-30 -4 0 5 4 8 9 5 5 -3 24 10 42 29 32 32 56 32 29 0z m-2636 -5 c91 -13 97
-15 89 -35 -7 -19 -69 -20 -76 -1 -3 7 -17 16 -31 18 -22 4 -24 3 -15 -13 13
-25 -5 -25 -23 -1 -7 11 -21 19 -31 19 -16 0 -16 -2 0 -19 25 -28 2 -20 -36
12 -19 16 -36 28 -38 26 -7 -6 57 -71 69 -71 6 0 12 -12 12 -27 1 -16 10 -36
21 -45 18 -17 18 -17 6 0 -17 21 -9 22 30 2 29 -15 31 -42 3 -31 -16 6 -19
-10 -4 -19 6 -4 8 -11 5 -16 -4 -5 -1 -9 5 -9 7 0 10 7 6 15 -3 8 -1 15 4 15
6 0 10 -4 10 -10 0 -5 5 -10 11 -10 5 0 7 5 4 10 -3 6 3 10 14 10 12 0 21 -4
21 -9 0 -5 7 -12 16 -15 11 -4 15 -2 11 8 -14 35 66 25 92 -12 8 -11 21 -18
31 -15 10 3 31 -2 46 -11 l29 -15 -25 -2 c-42 -3 -95 2 -103 11 -5 4 -23 4
-40 0 -18 -4 -41 -5 -52 -3 -11 2 -37 4 -57 4 -21 1 -36 5 -35 8 3 11 -81 150
-119 198 -48 58 -42 59 150 33z m4366 10 c0 -5 -8 -10 -19 -10 -10 0 -30 -11
-45 -25 -28 -25 -56 -33 -56 -15 0 16 -20 12 -46 -9 -36 -29 -85 -11 -50 18
17 14 143 41 161 35 7 -3 16 -1 20 5 8 14 35 14 35 1z m-4890 -24 c0 -11 -19
-15 -25 -6 -3 5 1 10 9 10 9 0 16 -2 16 -4z m843 -28 c26 -5 47 -14 47 -20 0
-10 -12 -8 -55 7 -14 5 -16 4 -6 -3 17 -12 -3 -27 -24 -18 -18 6 -18 5 -5 -28
6 -17 6 -26 0 -26 -10 0 -15 27 -12 63 2 15 -5 16 -44 12 -31 -4 -44 -2 -39 5
3 5 4 10 1 10 -2 0 -12 3 -21 6 -16 6 -16 5 0 -26 9 -18 37 -58 61 -89 24 -30
41 -57 38 -60 -2 -3 -12 6 -21 19 -15 21 -17 21 -28 6 -11 -14 -14 -15 -25 -1
-12 15 -4 20 23 16 12 -2 8 11 -10 31 -9 10 -22 18 -29 18 -7 0 -11 6 -8 14 3
8 -2 26 -11 40 -26 39 -12 49 59 41 33 -3 82 -11 109 -17z m388 -1 c-10 -9
-11 -8 -5 6 3 10 9 15 12 12 3 -3 0 -11 -7 -18z m-865 -35 c-4 -3 -13 3 -21
14 -22 28 -18 37 6 13 11 -11 18 -23 15 -27z m2398 15 c-7 -18 -24 -23 -24 -8
0 22 13 42 22 33 5 -5 6 -16 2 -25z m376 14 c0 -14 -40 -61 -52 -61 -7 0 -1
11 12 25 13 14 20 25 16 25 -4 0 -4 5 -1 10 8 12 25 13 25 1z m1723 2 c-7 -2
-19 -2 -25 0 -7 3 -2 5 12 5 14 0 19 -2 13 -5z m-4728 -23 c3 -5 1 -10 -4 -10
-6 0 -11 5 -11 10 0 6 2 10 4 10 3 0 8 -4 11 -10z m414 -12 c-10 -6 -6 -7 10
-3 19 6 23 4 18 -9 -4 -9 -2 -16 3 -16 16 0 22 21 10 35 -15 18 -3 19 34 5 15
-5 32 -24 41 -46 20 -48 19 -51 -7 -27 -29 25 -59 43 -40 22 28 -30 -6 -41
-45 -14 -13 9 -23 11 -25 5 -4 -13 -88 26 -88 40 0 14 23 12 39 -2 11 -11 13
-10 7 2 -5 9 -2 8 7 -2 8 -10 20 -18 27 -18 9 0 7 7 -6 22 -10 12 -13 18 -6
14 6 -4 12 -2 12 4 0 6 5 8 11 4 8 -4 7 -9 -2 -16z m4328 -23 c-6 -19 -12 -33
-14 -31 -8 7 9 76 17 71 5 -3 3 -21 -3 -40z m-4782 25 c3 -5 1 -10 -4 -10 -6
0 -11 5 -11 10 0 6 2 10 4 10 3 0 8 -4 11 -10z m2745 -5 c0 -8 -9 -15 -20 -15
-13 0 -18 5 -14 15 4 8 12 15 20 15 8 0 14 -7 14 -15z m1957 -17 c-3 -7 -5 -2
-5 12 0 14 2 19 5 13 2 -7 2 -19 0 -25z m-4832 12 c3 -5 1 -10 -4 -10 -6 0
-11 5 -11 10 0 6 2 10 4 10 3 0 8 -4 11 -10z m1002 -42 c45 -61 65 -95 33 -58
-52 60 -59 69 -70 89 -19 36 -4 23 37 -31z m-562 21 c3 -4 -4 -7 -15 -6 -10 1
-22 7 -24 13 -5 13 31 7 39 -7z m430 11 c3 -5 2 -10 -4 -10 -5 0 -13 5 -16 10
-3 6 -2 10 4 10 5 0 13 -4 16 -10z m1919 4 c13 -5 12 -9 -4 -27 -22 -23 -27
-52 -7 -41 6 4 3 -2 -8 -13 -11 -11 -24 -18 -29 -15 -5 3 -6 -5 -3 -17 3 -13
3 -20 0 -17 -4 3 -13 -4 -21 -16 -14 -19 -13 -23 8 -40 12 -10 21 -20 19 -22
-2 -3 -17 7 -33 21 -19 16 -25 27 -18 32 6 4 24 33 39 66 27 59 29 65 32 85 1
12 4 12 25 4z m541 -4 c3 -5 1 -10 -4 -10 -6 0 -11 5 -11 10 0 6 2 10 4 10 3
0 8 -4 11 -10z m-3262 -20 c4 0 5 6 1 13 -6 9 -5 9 8 0 8 -7 19 -9 23 -5 5 4
5 1 1 -6 -4 -7 -11 -10 -16 -7 -4 3 -11 -1 -14 -7 -5 -11 -7 -11 -12 0 -3 6
-9 10 -13 8 -4 -3 -8 2 -8 10 0 10 4 11 11 4 5 -5 14 -10 19 -10z m281 8 c-3
-4 -11 -5 -19 -1 -21 7 -19 12 4 10 11 0 18 -5 15 -9z m1085 -35 c14 -11 14
-12 0 -13 -9 0 -20 7 -23 16 -4 9 -13 14 -21 10 -13 -5 -14 -2 -4 16 11 21 12
21 22 2 6 -10 18 -24 26 -31z m1541 37 c0 -5 -5 -10 -11 -10 -5 0 -7 5 -4 10
3 6 8 10 11 10 2 0 4 -4 4 -10z m1700 -2 c0 -4 -3 -8 -7 -9 -5 0 -16 -2 -26
-4 -14 -3 -15 0 -8 9 12 14 41 17 41 4z m-3705 -39 c8 -34 -8 -54 -35 -43 -8
4 -26 9 -40 12 -27 5 -40 19 -40 42 1 11 4 10 12 -4 10 -18 12 -18 23 -3 10
14 14 13 38 -9 30 -27 36 -21 11 14 -14 20 -14 22 5 22 14 0 21 -9 26 -31z
m1866 9 c-5 -13 -17 -24 -27 -26 -11 -2 -15 0 -8 5 6 4 13 16 17 26 3 9 11 17
16 17 7 0 7 -9 2 -22z m276 8 c-3 -7 -2 -17 3 -22 12 -13 -7 -54 -25 -55 -23
-2 -29 -4 -41 -11 -16 -10 -54 20 -48 37 4 8 14 15 24 15 9 0 30 11 46 25 32
28 49 32 41 11z m557 -1 c4 -11 0 -14 -17 -11 -12 3 -25 5 -29 5 -5 1 -8 6 -8
11 0 16 47 12 54 -5z m224 -6 c-16 -11 -28 -26 -28 -32 0 -5 3 -8 6 -5 3 4 18
2 34 -2 22 -6 32 -4 42 8 11 13 10 15 -4 9 -10 -3 -18 -3 -18 2 0 12 43 22 52
13 11 -11 -29 -52 -50 -52 -15 -1 -15 -2 2 -15 17 -13 17 -15 3 -15 -9 0 -22
8 -29 19 -7 10 -23 21 -35 25 -13 4 -23 12 -23 17 0 5 -10 9 -22 9 l-23 0 25
20 c14 11 40 20 60 19 l35 0 -27 -20z m929 -1 c-3 -8 -6 -5 -6 6 -1 11 2 17 5
13 3 -3 4 -12 1 -19z m-4432 2 c3 -6 -1 -7 -9 -4 -18 7 -21 14 -7 14 6 0 13
-4 16 -10z m4218 -5 c-3 -9 -8 -14 -10 -11 -3 3 -2 9 2 15 9 16 15 13 8 -4z
m-4628 -5 c-3 -5 -13 -10 -21 -10 -8 0 -12 5 -9 10 3 6 13 10 21 10 8 0 12 -4
9 -10z m1595 0 c0 -5 -4 -10 -9 -10 -6 0 -13 5 -16 10 -3 6 1 10 9 10 9 0 16
-4 16 -10z m-736 -9 c3 -5 -1 -11 -9 -14 -9 -4 -12 -1 -8 9 6 16 10 17 17 5z
m387 -13 c11 -21 11 -22 -4 -9 -10 7 -17 17 -17 22 0 15 9 10 21 -13z m436 16
c-3 -3 -12 -4 -19 -1 -8 3 -5 6 6 6 11 1 17 -2 13 -5z m1731 -27 c11 -9 9 -14
-9 -28 -15 -11 -20 -22 -15 -34 5 -15 16 -17 79 -12 l72 6 -53 -14 c-57 -14
-77 -25 -47 -25 28 0 11 -11 -27 -17 -18 -2 -37 -9 -43 -14 -12 -12 -52 -12
-60 0 -3 5 -1 12 4 16 7 4 7 15 1 31 -8 19 -6 26 5 30 20 8 19 44 0 44 -8 0
-15 4 -15 10 0 5 10 8 23 6 12 -3 27 -5 32 -5 6 -1 3 -6 -5 -11 -13 -8 -12
-10 3 -10 9 0 17 7 17 15 0 8 -4 15 -10 15 -5 0 -10 5 -10 11 0 12 37 3 58
-14z m-978 9 c0 -3 -4 -8 -10 -11 -5 -3 -10 -1 -10 4 0 6 5 11 10 11 6 0 10
-2 10 -4z m30 0 c0 -2 -7 -9 -15 -16 -13 -11 -14 -10 -9 4 5 14 24 23 24 12z
m1584 -2 c23 -9 10 -23 -17 -17 -18 4 -19 3 -7 -6 8 -6 10 -11 4 -11 -18 0
-24 13 -13 27 13 15 12 15 33 7z m-2599 -24 c10 -11 16 -20 13 -20 -3 0 -13 9
-23 20 -10 11 -16 20 -13 20 3 0 13 -9 23 -20z m1375 -1 c-7 -11 -14 -18 -17
-15 -4 3 -12 1 -20 -5 -7 -6 -13 -8 -13 -3 0 7 42 38 58 43 1 1 -2 -8 -8 -20z
m182 14 c-10 -4 -9 -8 5 -19 17 -13 17 -13 -3 -14 -30 0 -52 27 -27 33 25 6
41 7 25 0z m-1455 -29 c9 -2 21 -8 27 -15 8 -9 5 -10 -14 -5 -14 3 -34 6 -45
7 -11 0 -14 3 -7 6 10 4 10 8 0 21 -12 15 -11 16 6 2 10 -8 25 -15 33 -16z
m634 13 c-6 -8 -8 -17 -4 -20 3 -4 1 -7 -5 -7 -15 0 -15 13 0 28 16 16 23 15
9 -1z m1383 -9 c-3 -5 4 -12 17 -15 22 -6 22 -7 3 -14 -17 -6 -16 -7 9 -14 31
-8 36 -25 7 -25 -11 0 -20 4 -20 9 0 5 -7 8 -16 7 -9 0 -19 5 -22 13 -3 9 0
11 8 6 9 -5 11 -4 6 3 -4 7 -19 12 -34 13 -16 0 -21 3 -12 6 8 3 18 12 23 19
4 7 14 11 22 8 8 -4 12 -10 9 -16z m-1604 2 c0 -5 -5 -10 -11 -10 -5 0 -7 5
-4 10 3 6 8 10 11 10 2 0 4 -4 4 -10z m1545 0 c-11 -5 -27 -9 -35 -9 -13 -1
-13 0 0 9 8 5 24 9 35 9 l20 0 -20 -9z m570 1 c3 -5 -9 -17 -26 -25 -41 -21
-41 -20 -16 9 24 27 33 30 42 16z m-768 -7 c-3 -3 -12 -4 -19 -1 -8 3 -5 6 6
6 11 1 17 -2 13 -5z m-2196 -19 c19 -3 43 -8 54 -10 11 -2 40 -4 65 -5 25 -1
39 -4 31 -7 -11 -4 -11 -7 0 -14 7 -4 11 -11 7 -14 -3 -3 -12 0 -19 7 -8 7
-27 14 -44 16 -23 2 -26 0 -15 -8 13 -9 13 -10 0 -11 -40 -3 -76 4 -90 18 -11
12 -12 14 -1 8 9 -5 12 -4 7 3 -11 18 -36 15 -30 -3 7 -17 -7 -19 -80 -9 -25
4 -46 11 -46 16 0 5 5 6 10 3 6 -3 10 -1 10 4 0 16 -20 13 -26 -4 -7 -17 -30
-20 -39 -5 -16 25 104 34 206 15z m3009 -5 c0 -5 -9 -12 -20 -15 -11 -3 -20
-11 -20 -16 0 -5 -7 -9 -16 -9 -9 0 -12 -5 -8 -12 5 -9 2 -8 -9 1 -16 13 -15
16 15 41 30 25 58 30 58 10z m244 11 c3 -5 -6 -11 -21 -14 -26 -5 -26 -4 -8 9
22 17 22 17 29 5z m-3040 -20 c13 -15 14 -20 4 -23 -7 -3 1 -5 19 -5 18 0 30
4 27 9 -3 4 2 5 10 2 8 -3 17 -11 19 -18 9 -22 -57 -18 -88 5 l-27 22 7 -24
c5 -18 4 -21 -4 -13 -12 11 -5 64 9 64 4 0 15 -9 24 -19z m358 12 c-6 -2 -10
-9 -6 -14 3 -5 1 -9 -5 -9 -5 0 -12 4 -15 9 -6 9 10 19 29 19 6 0 4 -2 -3 -5z
m-194 -28 c-3 -3 -9 2 -12 12 -6 14 -5 15 5 6 7 -7 10 -15 7 -18z m732 4 c0
-6 -4 -7 -10 -4 -5 3 -10 11 -10 16 0 6 5 7 10 4 6 -3 10 -11 10 -16z m730 15
c0 -8 -67 -34 -87 -33 -10 0 -1 9 22 19 41 19 65 24 65 14z m1357 -10 c-3 -3
-12 -4 -19 -1 -8 3 -5 6 6 6 11 1 17 -2 13 -5z m-2869 -16 c-2 -6 8 -15 22
-19 25 -7 25 -7 2 -8 -13 -1 -30 5 -38 13 -13 14 -11 18 14 25 1 1 1 -4 0 -11z
m292 2 c0 -5 -2 -10 -4 -10 -3 0 -8 5 -11 10 -3 6 -1 10 4 10 6 0 11 -4 11
-10z m-1083 -32 c-3 -7 -5 -2 -5 12 0 14 2 19 5 13 2 -7 2 -19 0 -25z m300
-13 l-7 -45 50 0 c30 0 50 -4 50 -11 0 -7 -9 -9 -22 -5 -13 3 -48 6 -78 7 -30
1 -45 4 -33 6 17 3 23 14 29 49 3 24 9 44 11 44 3 0 3 -20 0 -45z m578 27 c-3
-3 -11 0 -18 7 -9 10 -8 11 6 5 10 -3 15 -9 12 -12z m141 4 c16 -17 18 -26 4
-26 -5 0 -14 9 -20 20 -12 23 -5 26 16 6z m2536 1 c-16 -19 -92 -60 -92 -49 0
12 70 61 89 61 10 1 11 -2 3 -12z m-656 -12 c-36 -19 -45 -19 -20 0 10 8 26
14 34 15 8 0 2 -7 -14 -15z m170 5 c27 0 14 -15 -27 -33 -23 -10 -49 -15 -57
-12 -13 5 -10 11 13 30 17 13 36 22 43 20 8 -3 20 -5 28 -5z m-1971 -10 c13
-6 15 -9 5 -9 -8 0 -22 4 -30 9 -18 12 -2 12 25 0z m1053 -19 c-14 -23 -29
-28 -25 -9 2 14 30 39 35 33 2 -2 -3 -12 -10 -24z m849 23 c-3 -3 -12 -4 -19
-1 -8 3 -5 6 6 6 11 1 17 -2 13 -5z m-1029 -29 c-3 -3 -9 2 -12 12 -6 14 -5
15 5 6 7 -7 10 -15 7 -18z m-1568 5 c0 -5 -7 -10 -15 -10 -8 0 -15 5 -15 10 0
6 7 10 15 10 8 0 15 -4 15 -10z m1297 -5 c0 -8 -4 -12 -9 -9 -5 3 -6 10 -3 15
9 13 12 11 12 -6z m363 5 c0 -5 -5 -10 -11 -10 -5 0 -7 5 -4 10 3 6 8 10 11
10 2 0 4 -4 4 -10z m804 -12 c21 -22 20 -28 -4 -28 -11 0 -20 -5 -20 -11 0 -5
4 -8 9 -5 5 3 23 1 41 -5 21 -8 34 -8 39 -2 3 6 17 14 31 18 24 8 24 7 7 -18
-16 -24 -15 -25 6 -20 20 4 20 3 4 -7 -9 -6 -23 -8 -29 -4 -7 4 -26 9 -42 11
-17 2 -33 7 -36 13 -7 12 -35 -5 -35 -22 0 -7 -7 -13 -15 -13 -17 0 -15 46 2
56 6 4 3 11 -8 17 -14 7 -24 7 -37 -3 -23 -16 -22 -23 6 -28 15 -3 12 -5 -13
-6 -19 -2 -29 -5 -22 -8 24 -9 12 -23 -20 -23 -27 1 -30 2 -15 11 9 5 17 17
17 24 0 8 5 15 11 15 6 0 9 7 5 15 -4 11 2 15 20 15 13 0 27 7 30 15 8 19 45
15 68 -7z m-2350 -3 c-4 -8 -10 -15 -15 -15 -5 0 -9 7 -9 15 0 8 7 15 15 15 9
0 12 -6 9 -15z m3221 5 c22 -6 13 -8 -36 -7 -36 0 -70 -3 -76 -6 -7 -4 -14 -3
-17 2 -11 17 77 24 129 11z m-2635 -4 c0 -3 -4 -8 -10 -11 -5 -3 -10 -1 -10 4
0 6 5 11 10 11 6 0 10 -2 10 -4z m906 -33 c-7 -7 -26 7 -26 19 0 6 6 6 15 -2
9 -7 13 -15 11 -17z m153 -5 c-7 -13 -14 -18 -16 -11 -3 7 2 19 9 27 18 20 22
12 7 -16z m1392 -3 c-21 -19 -42 -35 -46 -35 -10 0 67 69 78 70 4 0 -10 -16
-32 -35z m-1873 10 c-12 -10 -58 -14 -58 -5 0 6 4 9 8 6 4 -2 14 -1 22 4 12 7
38 3 28 -5z m1036 -1 c5 -13 2 -15 -14 -11 -11 3 -23 1 -26 -4 -3 -5 -10 -9
-15 -9 -13 0 11 25 31 33 8 3 16 6 16 6 1 1 5 -6 8 -15z m201 -2 c-3 -3 -11 0
-18 7 -9 10 -8 11 6 5 10 -3 15 -9 12 -12z m748 5 c3 -8 -1 -14 -9 -14 -8 0
-14 6 -14 14 0 7 4 13 9 13 5 0 11 -6 14 -13z m-1833 -13 c0 -2 -11 -3 -24 -2
-14 1 -23 5 -20 9 4 7 44 0 44 -7z m-1393 0 c-3 -3 -12 -4 -19 -1 -8 3 -5 6 6
6 11 1 17 -2 13 -5z m86 -1 c-13 -2 -35 -2 -50 0 -16 2 -5 4 22 4 28 0 40 -2
28 -4z m461 -13 l51 -8 -59 1 c-41 2 -61 6 -64 16 -3 9 0 11 8 6 6 -4 35 -11
64 -15z m-196 3 c-114 -4 -118 -4 -119 -26 l-2 -22 -4 22 c-4 19 -12 23 -61
26 -31 2 24 3 123 3 108 0 133 -2 63 -3z m1849 1 c-3 -3 -12 -4 -19 -1 -8 3
-5 6 6 6 11 1 17 -2 13 -5z m425 -3 c-12 -7 -62 -4 -62 5 0 2 17 4 38 4 23 0
32 -3 24 -9z m-1995 -7 c-3 -3 -12 -4 -19 -1 -8 3 -5 6 6 6 11 1 17 -2 13 -5z
m-880 -51 c-3 -10 -5 -2 -5 17 0 19 2 27 5 18 2 -10 2 -26 0 -35z m1083 27
c-8 -14 -8 -20 0 -20 6 0 8 -5 4 -12 -5 -8 -11 -5 -20 7 -10 14 -11 22 -3 32
17 20 31 15 19 -7z m103 -17 c-9 -13 -17 -23 -19 -23 -2 0 -4 10 -4 23 0 16 6
23 19 23 17 0 17 -2 4 -23z m47 18 c0 -6 -4 -13 -10 -16 -5 -3 -10 1 -10 9 0
9 5 16 10 16 6 0 10 -4 10 -9z m77 -13 c-3 -8 -6 -5 -6 6 -1 11 2 17 5 13 3
-3 4 -12 1 -19z m1423 12 c12 -7 8 -10 -15 -10 -16 0 -37 5 -45 10 -12 7 -8
10 15 10 17 0 37 -5 45 -10z m-1764 -12 c4 -7 4 -10 -1 -6 -4 4 -14 3 -22 -3
-10 -9 -13 -8 -13 5 0 19 26 22 36 4z m-86 -17 c0 -6 -4 -13 -10 -16 -5 -3
-10 1 -10 9 0 9 5 16 10 16 6 0 10 -4 10 -9z m2507 -6 c0 -8 -4 -12 -9 -9 -5
3 -6 10 -3 15 9 13 12 11 12 -6z m-2867 -28 c41 -3 39 -4 -17 -7 -116 -5 -123
-5 -123 1 0 12 25 17 53 12 19 -4 27 -1 27 8 0 10 2 11 8 2 4 -6 28 -13 52
-16z m169 3 c33 0 42 -3 38 -14 -4 -10 0 -14 14 -11 10 2 19 0 19 -4 0 -10
-48 -51 -60 -51 -14 0 -12 44 2 58 9 9 -5 12 -62 13 -53 0 -69 3 -55 9 11 5
29 7 40 5 11 -3 40 -5 64 -5z m84 -7 c-7 -2 -19 -2 -25 0 -7 3 -2 5 12 5 14 0
19 -2 13 -5z m181 -8 c-4 -8 -1 -15 7 -15 7 0 10 -3 6 -6 -3 -3 -15 0 -26 8
-21 15 -18 28 5 28 8 0 11 -6 8 -15z m93 -6 c1 -10 -5 -23 -13 -30 -9 -7 -14
-8 -14 -1 0 6 6 13 13 16 10 5 10 7 0 12 -17 7 -17 21 0 21 7 0 14 -8 14 -18z
m-211 -11 c-1 -24 -15 -40 -28 -32 -6 4 18 54 27 54 1 0 2 -10 1 -22z m39 12
c-3 -5 -10 -10 -16 -10 -5 0 -9 5 -9 10 0 6 7 10 16 10 8 0 12 -4 9 -10z m334
-30 c0 -10 -3 -8 -9 5 -12 27 -12 43 0 25 5 -8 9 -22 9 -30z m44 15 c4 -25 4
-25 -14 -9 -22 20 -24 34 -5 34 7 0 16 -11 19 -25z m437 5 c0 -5 -7 -10 -15
-10 -8 0 -15 5 -15 10 0 6 7 10 15 10 8 0 15 -4 15 -10z m-1140 -14 c0 -3 -4
-8 -10 -11 -5 -3 -10 -1 -10 4 0 6 5 11 10 11 6 0 10 -2 10 -4z m2898 -44 c2
-7 11 -12 21 -12 9 0 21 -4 27 -9 5 -5 18 -11 29 -14 16 -4 15 -5 -5 -6 -14 0
-45 8 -69 19 -50 23 -72 25 -89 8 -9 -9 -12 -9 -12 1 0 9 -9 11 -30 6 -35 -8
-40 1 -7 15 29 13 130 6 135 -8z m-2468 -2 c0 -5 -4 -10 -10 -10 -5 0 -10 5
-10 10 0 6 5 10 10 10 6 0 10 -4 10 -10z m290 0 c0 -5 -4 -10 -10 -10 -5 0
-10 5 -10 10 0 6 5 10 10 10 6 0 10 -4 10 -10z m2357 -22 c-3 -7 -5 -2 -5 12
0 14 2 19 5 13 2 -7 2 -19 0 -25z m-3100 16 c-3 -3 -12 -4 -19 -1 -8 3 -5 6 6
6 11 1 17 -2 13 -5z m348 -6 c-11 -6 -22 -14 -25 -18 -3 -4 -14 -4 -25 1 -18
7 -18 8 -2 8 10 1 16 4 14 9 -3 4 9 8 26 9 29 2 30 1 12 -9z m132 -3 c0 -8 -4
-12 -9 -9 -5 3 -6 10 -3 15 9 13 12 11 12 -6z m-564 -2 c-13 -2 -33 -2 -45 0
-13 2 -3 4 22 4 25 0 35 -2 23 -4z m117 -3 c0 -5 -4 -10 -10 -10 -5 0 -10 5
-10 10 0 6 5 10 10 10 6 0 10 -4 10 -10z m49 1 c22 -14 9 -30 -17 -20 -13 5
-20 13 -17 19 8 12 16 12 34 1z m-351 -6 c-8 -8 -98 -9 -105 -1 -4 3 20 6 52
6 32 0 56 -2 53 -5z m659 -11 c0 -6 -9 -9 -19 -6 -10 2 -18 7 -18 11 0 4 8 7
18 7 10 0 19 -5 19 -12z m74 -1 c13 -16 12 -17 -3 -4 -17 13 -22 21 -14 21 2
0 10 -8 17 -17z m907 -8 c-3 -3 -9 2 -12 12 -6 14 -5 15 5 6 7 -7 10 -15 7
-18z m1512 -18 c14 -6 34 -19 45 -28 11 -10 36 -22 55 -27 27 -8 30 -10 12
-11 -25 -1 -92 26 -103 41 -10 15 -69 27 -104 21 -22 -3 -35 -2 -35 5 0 6 17
12 38 14 41 4 56 1 92 -15z m-2960 -13 c0 -8 -5 -12 -10 -9 -6 4 -8 11 -5 16
9 14 15 11 15 -7z m590 12 c0 -3 -4 -8 -10 -11 -5 -3 -10 -1 -10 4 0 6 5 11
10 11 6 0 10 -2 10 -4z m497 -11 c-4 -8 -2 -17 3 -20 13 -8 13 -35 0 -35 -5 0
-10 9 -10 19 0 11 -5 23 -10 26 -12 7 -4 25 12 25 5 0 8 -7 5 -15z m1569 -77
c8 -16 13 -28 11 -28 -6 0 -77 108 -77 117 0 10 48 -56 66 -89z m99 82 c3 -5
2 -10 -4 -10 -5 0 -13 5 -16 10 -3 6 -2 10 4 10 5 0 13 -4 16 -10z m-3578 -22
c-3 -8 -6 -5 -6 6 -1 11 2 17 5 13 3 -3 4 -12 1 -19z m-390 -20 c-3 -8 -6 -5
-6 6 -1 11 2 17 5 13 3 -3 4 -12 1 -19z m1393 6 c0 -8 4 -13 9 -10 5 3 11 -1
15 -9 7 -20 -3 -19 -26 2 -20 18 -24 33 -8 33 6 0 10 -7 10 -16z m2425 -11
l18 -28 -21 19 c-12 11 -22 23 -22 28 0 14 7 9 25 -19z m-3108 -5 c-3 -8 -6
-5 -6 6 -1 11 2 17 5 13 3 -3 4 -12 1 -19z m620 -42 c-9 -26 -32 -10 -35 24
l-2 35 20 -24 c11 -13 19 -29 17 -35z m2800 43 c15 -5 42 -24 59 -40 17 -17
49 -37 70 -45 l39 -15 -40 7 c-24 3 -57 20 -82 40 -23 19 -65 40 -95 48 -51
14 -52 15 -16 15 20 1 49 -4 65 -10z m-3148 -8 c8 -5 -13 -10 -58 -13 -49 -2
-75 -8 -81 -18 -8 -12 -10 -12 -10 -1 0 10 -15 12 -67 7 -128 -11 -198 -17
-277 -21 -74 -3 -234 -21 -284 -31 -19 -4 -22 -11 -24 -57 l-2 -52 -3 53 -4
53 -82 -6 c-45 -3 -106 -11 -134 -16 l-53 -10 0 -39 c0 -21 -3 -41 -7 -43 -5
-3 -8 19 -8 48 l0 54 75 6 c41 4 147 15 235 25 171 20 208 23 440 40 143 10
314 25 325 28 3 1 11 -2 19 -7z m-982 -33 c-3 -7 -5 -2 -5 12 0 14 2 19 5 13
2 -7 2 -19 0 -25z m1243 12 c0 -5 -2 -10 -4 -10 -3 0 -8 5 -11 10 -3 6 -1 10
4 10 6 0 11 -4 11 -10z m2585 -27 c14 -21 25 -31 25 -22 0 8 -5 20 -12 27 -6
6 -9 14 -7 17 3 3 18 -14 33 -37 19 -29 25 -49 21 -66 l-6 -25 -15 21 c-8 12
-21 19 -28 16 -7 -3 -16 2 -20 12 -5 14 -4 15 9 4 19 -16 19 -7 0 30 -8 16
-21 27 -28 25 -16 -6 -44 12 -34 22 5 4 12 1 17 -7 8 -13 10 -12 10 3 0 25 6
21 35 -20z m-828 11 c-3 -3 -12 -4 -19 -1 -8 3 -5 6 6 6 11 1 17 -2 13 -5z
m1104 -20 c40 -20 136 -118 110 -111 -11 3 -22 0 -25 -7 -2 -6 -5 -2 -5 10 -1
33 -62 91 -109 103 -23 7 -42 14 -42 16 0 11 43 4 71 -11z m-1979 -16 c-7 -7
-12 -8 -12 -2 0 14 12 26 19 19 2 -3 -1 -11 -7 -17z m-1042 -6 c0 -14 -12 -20
-60 -28 -33 -6 -60 -7 -60 -3 0 3 23 9 50 13 31 4 53 13 57 21 7 20 13 19 13
-3z m249 -3 c-8 -16 -14 -18 -22 -10 -9 9 -8 14 3 21 24 16 31 11 19 -11z
m1221 1 c-8 -5 -17 -7 -19 -4 -3 3 1 9 9 14 8 5 17 7 19 4 3 -3 -1 -9 -9 -14z
m1787 -2 c-3 -8 -6 -5 -6 6 -1 11 2 17 5 13 3 -3 4 -12 1 -19z m-3800 -30 c-3
-7 -5 -2 -5 12 0 14 2 19 5 13 2 -7 2 -19 0 -25z m348 2 c30 0 56 -4 60 -9 3
-6 -3 -23 -13 -40 -15 -25 -21 -28 -32 -18 -8 8 -11 8 -7 1 4 -7 0 -14 -8 -18
-18 -7 -26 6 -15 24 5 8 5 19 0 25 -6 7 1 12 22 13 18 2 34 5 37 9 4 3 -32 3
-79 0 -47 -2 -73 -3 -57 0 19 3 27 11 28 26 1 17 2 18 6 5 4 -14 15 -18 58
-18z m2305 6 c0 -3 -4 -8 -10 -11 -5 -3 -10 -1 -10 4 0 6 5 11 10 11 6 0 10
-2 10 -4z m920 -39 c55 -54 66 -67 75 -98 7 -21 6 -22 -9 -10 -9 7 -16 18 -16
23 0 22 -63 87 -103 107 -36 18 -38 21 -17 21 16 0 41 -15 70 -43z m-1773 1
c-3 -8 -6 -5 -6 6 -1 11 2 17 5 13 3 -3 4 -12 1 -19z m1502 -22 c-3 -3 -11 5
-18 17 -13 21 -12 21 5 5 10 -10 16 -20 13 -22z m-2619 14 c0 -5 -5 -10 -11
-10 -5 0 -7 5 -4 10 3 6 8 10 11 10 2 0 4 -4 4 -10z m-420 -30 c5 0 11 4 14 9
3 5 15 11 26 14 11 3 18 1 14 -4 -3 -5 -11 -9 -18 -9 -8 0 -19 -7 -26 -15 -16
-19 -30 -10 -29 18 1 17 2 18 6 5 2 -10 8 -18 13 -18z m3238 10 c20 0 81 -69
108 -122 26 -52 28 -58 16 -58 -4 0 -16 22 -26 49 -20 56 -38 76 -61 67 -8 -3
-14 -2 -14 2 4 26 -4 44 -25 52 -13 5 -27 15 -31 22 -6 10 -5 11 6 1 7 -7 19
-13 27 -13z m-2508 0 c0 -5 -2 -10 -4 -10 -3 0 -8 5 -11 10 -3 6 -1 10 4 10 6
0 11 -4 11 -10z m-316 -46 c-1 -15 -8 -32 -15 -38 -9 -8 -11 -7 -6 5 3 9 0 22
-6 29 -9 10 -9 11 1 6 7 -4 12 -1 12 8 0 9 4 16 9 16 4 0 7 -12 5 -26z m2830
-33 c-6 -7 -54 29 -54 40 0 6 13 0 29 -13 15 -13 27 -25 25 -27z m-2513 6
c-10 -9 -11 -8 -5 6 3 10 9 15 12 12 3 -3 0 -11 -7 -18z m-148 -8 c3 -12 10
-18 15 -15 6 3 12 -1 16 -9 3 -10 -1 -16 -14 -16 -11 -1 -26 -2 -32 -3 -7 -1
-16 -5 -20 -11 -4 -5 -8 2 -8 18 0 27 15 37 23 15 2 -7 7 -10 11 -7 3 3 4 14
0 23 -4 11 -13 15 -28 11 -17 -5 -18 -4 -6 4 23 16 37 13 43 -10z m485 -7 c3
-9 -2 -13 -14 -10 -9 1 -19 9 -22 16 -3 9 2 13 14 10 9 -1 19 -9 22 -16z
m2002 8 c0 -5 -5 -10 -11 -10 -5 0 -7 5 -4 10 3 6 8 10 11 10 2 0 4 -4 4 -10z
m-3202 -7 c-16 -2 -28 -11 -28 -19 0 -8 -8 -14 -17 -14 -15 0 -16 2 -3 10 12
8 8 10 -15 11 l-30 1 30 8 c17 4 44 7 60 7 30 0 30 0 3 -4z m82 -8 c0 -8 -7
-15 -16 -15 -14 0 -14 3 -4 15 7 8 14 15 16 15 2 0 4 -7 4 -15z m555 6 c-3 -6
2 -14 10 -19 15 -8 14 -10 -2 -22 -10 -8 -15 -10 -11 -6 4 5 0 15 -10 22 -15
12 -15 15 -2 24 19 12 23 13 15 1z m-25 -37 c0 -7 -6 -14 -14 -17 -10 -4 -13
0 -11 14 2 11 0 17 -5 14 -5 -3 -12 0 -16 6 -4 7 -3 9 4 5 6 -3 14 -1 18 5 7
12 24 -6 24 -27z m1130 26 c0 -5 -4 -10 -10 -10 -5 0 -10 5 -10 10 0 6 5 10
10 10 6 0 10 -4 10 -10z m-1823 -26 c2 -7 -6 -11 -22 -10 -25 1 -31 7 -18 20
10 10 36 3 40 -10z m174 -7 c-10 -9 -11 -8 -5 6 3 10 9 15 12 12 3 -3 0 -11
-7 -18z m404 3 c-3 -5 -14 -6 -26 -3 -15 4 -17 8 -8 13 15 10 41 1 34 -10z
m31 -5 c-3 -20 -16 -32 -16 -15 0 11 -3 11 -12 2 -15 -15 -28 -15 -28 -1 0 5
4 7 10 4 5 -3 15 3 22 14 13 22 27 19 24 -4z m36 1 c6 4 9 1 6 -7 -2 -7 6 -22
20 -34 l24 -20 -26 -3 c-14 -1 -26 3 -26 9 0 5 5 7 10 4 6 -3 10 -1 10 4 0 6
-4 11 -9 11 -17 0 -41 31 -34 43 5 8 8 8 11 -1 2 -7 8 -9 14 -6z m2803 -4 c-3
-3 -11 0 -18 7 -9 10 -8 11 6 5 10 -3 15 -9 12 -12z m66 -4 c11 -21 11 -22 -4
-9 -10 7 -17 17 -17 22 0 15 9 10 21 -13z m-3778 -5 c-13 -2 -23 -8 -23 -12 0
-4 -15 -5 -32 -2 l-33 5 35 7 c19 3 44 6 55 6 16 0 16 -1 -2 -4z m327 -3 c0
-5 -4 -10 -10 -10 -5 0 -10 5 -10 10 0 6 5 10 10 10 6 0 10 -4 10 -10z m770 0
c-8 -5 -19 -10 -25 -10 -5 0 -3 5 5 10 8 5 20 10 25 10 6 0 3 -5 -5 -10z
m-346 -15 c-4 -8 -10 -12 -15 -9 -11 6 -2 24 11 24 5 0 7 -7 4 -15z m-861 -2
c-13 -2 -33 -2 -45 0 -13 2 -3 4 22 4 25 0 35 -2 23 -4z m1302 -3 c3 -5 2 -10
-4 -10 -5 0 -13 5 -16 10 -3 6 -2 10 4 10 5 0 13 -4 16 -10z m-1382 -7 c-7 -2
-19 -2 -25 0 -7 3 -2 5 12 5 14 0 19 -2 13 -5z m1031 -9 c9 -24 2 -26 -12 -4
-7 11 -8 20 -3 20 5 0 12 -7 15 -16z m186 -3 c0 -6 -4 -13 -10 -16 -5 -3 -10
1 -10 9 0 9 5 16 10 16 6 0 10 -4 10 -9z m-1373 -7 c-3 -3 -12 -4 -19 -1 -8 3
-5 6 6 6 11 1 17 -2 13 -5z m4051 -14 c7 -11 9 -20 4 -20 -4 0 -13 9 -20 20
-7 11 -9 20 -4 20 4 0 13 -9 20 -20z m-4103 0 c-11 -5 -29 -9 -40 -9 l-20 0
20 9 c11 5 29 9 40 9 l20 0 -20 -9z m1644 -4 c7 -8 8 -17 3 -20 -6 -3 -12 3
-15 14 -6 24 -4 25 12 6z"/>
<path d="M3380 1861 c0 -6 4 -13 10 -16 6 -3 7 1 4 9 -7 18 -14 21 -14 7z"/>
<path d="M3250 1809 c0 -11 27 -12 34 -1 2 4 -4 9 -15 9 -10 1 -19 -2 -19 -8z"/>
<path d="M3371 1778 c5 -18 9 -35 9 -38 1 -3 14 10 30 29 16 19 27 37 24 40
-3 3 -10 -1 -15 -9 -8 -11 -12 -12 -16 -2 -2 6 -13 12 -23 12 -16 0 -17 -4 -9
-32z"/>
<path d="M3300 1781 c0 -13 16 -26 34 -29 11 -2 15 1 11 7 -3 6 -1 11 4 11 6
0 11 4 11 9 0 5 -13 9 -30 9 -16 -1 -30 -4 -30 -7z"/>
<path d="M1248 1473 c6 -2 18 -2 25 0 6 3 1 5 -13 5 -14 0 -19 -2 -12 -5z"/>
<path d="M1300 1465 c0 -10 66 -38 100 -42 l35 -5 -25 19 c-35 28 -56 33 -70
20 -10 -9 -11 -9 -6 1 5 8 0 12 -13 12 -12 0 -21 -2 -21 -5z"/>
<path d="M2100 1426 c0 -2 7 -7 16 -10 8 -3 12 -2 9 4 -6 10 -25 14 -25 6z"/>
<path d="M1150 1416 c0 -2 7 -7 16 -10 8 -3 12 -2 9 4 -6 10 -25 14 -25 6z"/>
<path d="M2312 1100 c0 -19 2 -27 5 -17 2 9 2 25 0 35 -3 9 -5 1 -5 -18z"/>
<path d="M4390 1785 c0 -8 5 -15 10 -15 6 0 10 7 10 15 0 8 -4 15 -10 15 -5 0
-10 -7 -10 -15z"/>
<path d="M4538 963 c7 -3 16 -2 19 1 4 3 -2 6 -13 5 -11 0 -14 -3 -6 -6z"/>
<path d="M350 999 c0 -5 5 -7 10 -4 6 3 10 8 10 11 0 2 -4 4 -10 4 -5 0 -10
-5 -10 -11z"/>
<path d="M330 936 c0 -2 7 -7 16 -10 8 -3 12 -2 9 4 -6 10 -25 14 -25 6z"/>
<path d="M450 910 c0 -6 16 -8 43 -4 58 9 59 14 4 14 -26 0 -47 -5 -47 -10z"/>
<path d="M3160 941 c0 -5 5 -13 10 -16 6 -3 10 -2 10 4 0 5 -4 13 -10 16 -5 3
-10 2 -10 -4z"/>
<path d="M3925 980 c-3 -5 -1 -10 4 -10 6 0 11 5 11 10 0 6 -2 10 -4 10 -3 0
-8 -4 -11 -10z"/>
<path d="M3410 871 c0 -9 30 -24 36 -18 2 1 -6 8 -16 15 -11 7 -20 8 -20 3z"/>
<path d="M3405 830 c-3 -6 1 -7 9 -4 18 7 21 14 7 14 -6 0 -13 -4 -16 -10z"/>
<path d="M1093 863 c9 -2 23 -2 30 0 6 3 -1 5 -18 5 -16 0 -22 -2 -12 -5z"/>
<path d="M4000 333 c0 -5 7 -18 15 -29 15 -18 15 -18 13 5 -3 23 -28 44 -28
24z"/>
<path d="M3373 2609 c11 -7 23 -7 35 0 14 9 11 10 -18 10 -29 0 -32 -1 -17
-10z"/>
<path d="M3993 2600 c14 -11 32 -20 41 -20 8 0 19 -8 25 -17 8 -15 25 -18 92
-20 45 -1 92 -4 103 -7 82 -20 208 -27 300 -15 98 11 99 12 70 27 -49 26 -89
31 -125 15 -22 -9 -51 -13 -81 -9 -26 3 -50 1 -53 -5 -4 -5 -18 -7 -33 -4 -15
3 -51 7 -81 11 -52 5 -106 21 -86 25 12 2 36 6 93 15 88 14 36 24 -124 24
l-167 0 26 -20z"/>
<path d="M4378 2613 c7 -3 16 -2 19 1 4 3 -2 6 -13 5 -11 0 -14 -3 -6 -6z"/>
<path d="M4570 2611 c8 -4 38 -5 65 -1 l50 7 -65 1 c-39 1 -59 -2 -50 -7z"/>
<path d="M520 2580 c0 -5 10 -8 23 -6 12 2 33 -1 47 -6 22 -9 287 -1 278 7 -9
10 -248 15 -248 6 0 -7 -9 -7 -26 -1 -33 13 -74 13 -74 0z"/>
<path d="M260 2570 c8 -5 28 -10 44 -10 39 0 30 6 -19 13 -27 4 -35 3 -25 -3z"/>
<path d="M4775 2554 c22 -8 51 -11 65 -8 l25 7 -25 7 c-14 5 -43 8 -65 9 l-40
0 40 -15z"/>
<path d="M3832 900 c0 -14 2 -19 5 -12 2 6 2 18 0 25 -3 6 -5 1 -5 -13z"/>
<path d="M4884 902 c17 -3 16 -5 -5 -16 -19 -9 -25 -21 -27 -54 -2 -23 -7 -42
-13 -42 -12 0 -7 83 6 92 14 10 -1 22 -20 15 -9 -4 -15 -19 -15 -37 0 -18 -4
-29 -10 -25 -6 3 -7 18 -4 32 6 23 4 25 -12 19 -10 -4 -32 -10 -48 -13 -18 -4
-31 -14 -34 -27 -6 -21 -6 -21 -11 1 -10 40 -35 10 -35 -43 l-1 -48 40 2 c22
2 63 5 92 6 28 2 80 -2 115 -10 86 -18 96 -18 101 9 3 16 5 14 6 -9 1 -25 6
-33 26 -36 l25 -5 0 83 c0 76 -2 84 -19 84 -11 0 -22 -6 -24 -12 -3 -8 -6 -6
-6 4 -1 19 -19 25 -96 31 -27 2 -41 2 -31 -1z m-137 -74 c-3 -8 -6 -5 -6 6 -1
11 2 17 5 13 3 -3 4 -12 1 -19z m260 -10 c-3 -8 -6 -5 -6 6 -1 11 2 17 5 13 3
-3 4 -12 1 -19z"/>
<path d="M3953 886 c3 -8 1 -17 -6 -19 -7 -2 -8 -8 -4 -13 4 -5 12 -2 17 6 13
20 12 40 -1 40 -6 0 -9 -6 -6 -14z"/>
<path d="M3873 864 c0 -7 6 -10 14 -7 7 3 13 8 13 12 0 4 -6 8 -13 8 -8 0 -14
-6 -14 -13z"/>
<path d="M3866 823 c17 -13 17 -13 -1 -13 -14 0 -16 -3 -8 -11 6 -6 9 -19 6
-28 -4 -13 -3 -13 5 -2 8 12 15 9 35 -13 22 -24 36 -83 16 -70 -5 3 -1 -9 9
-25 13 -23 19 -27 25 -16 4 8 3 23 -3 34 -13 26 -13 34 2 25 8 -5 9 -2 5 10
-4 10 -7 28 -7 41 0 15 -7 26 -20 30 -15 5 -19 12 -15 25 3 10 0 22 -6 26 -9
5 -10 2 -6 -9 3 -10 2 -17 -4 -17 -5 0 -12 6 -15 13 -3 8 -12 14 -21 14 -13 0
-13 -2 3 -14z m47 -44 c26 -30 15 -34 -13 -4 -13 14 -19 25 -14 25 5 0 18 -9
27 -21z m35 -124 c-3 -3 -9 2 -12 12 -6 14 -5 15 5 6 7 -7 10 -15 7 -18z"/>
<path d="M3966 773 c-4 -9 -4 -14 0 -10 4 4 13 2 20 -4 17 -14 44 -4 44 16 0
12 -4 13 -18 6 -13 -7 -22 -7 -29 0 -7 7 -13 5 -17 -8z"/>
<path d="M0 700 c0 -56 3 -69 16 -72 9 -2 134 1 278 5 179 6 265 12 272 20 6
7 14 31 17 55 l5 42 -111 1 c-62 0 -134 3 -162 5 -82 7 -95 0 -97 -49 l-1 -42
-6 45 c-6 44 -7 45 -46 47 -22 1 -68 4 -102 7 l-63 5 0 -69z"/>
<path d="M4675 722 c-3 -3 -23 -5 -45 -4 -34 2 -42 -1 -50 -20 -6 -17 -9 -19
-9 -5 -1 11 -9 17 -25 17 -26 0 -36 -16 -36 -61 l0 -30 73 1 c39 1 74 1 77 0
3 -1 24 -3 48 -6 l42 -4 0 55 c0 30 -3 56 -7 57 -23 4 -63 4 -68 0z"/>
<path d="M4766 714 c-3 -9 -6 -35 -6 -59 0 -46 8 -53 66 -61 31 -4 31 -3 37
49 3 28 8 60 12 70 5 13 2 17 -13 17 -11 0 -23 -6 -25 -12 -4 -10 -6 -10 -6 0
-1 18 -58 15 -65 -4z"/>
<path d="M4886 711 c-4 -5 -9 -37 -12 -70 -7 -59 -6 -61 20 -71 15 -5 29 -10
31 -10 4 0 11 37 20 102 6 43 5 46 -15 41 -11 -3 -20 0 -20 6 0 13 -17 15 -24
2z"/>
<path d="M4960 661 c-5 -20 -10 -52 -10 -72 0 -31 4 -38 30 -49 16 -7 35 -18
41 -26 6 -8 18 -14 25 -14 11 0 14 20 14 88 l0 87 -45 11 -45 10 -10 -35z"/>
<path d="M4090 660 c0 -5 5 -10 10 -10 6 0 10 5 10 10 0 6 -4 10 -10 10 -5 0
-10 -4 -10 -10z"/>
<path d="M413 622 l-53 -3 -1 -37 c0 -20 -5 -46 -10 -57 -7 -14 -8 -4 -5 36
l4 56 -174 -1 -174 -1 0 -69 0 -68 143 7 c78 3 211 13 296 21 85 8 175 14 201
14 45 0 48 2 54 31 16 81 20 78 -111 76 -65 -1 -142 -3 -170 -5z m-356 -74
c-2 -13 -4 -5 -4 17 -1 22 1 32 4 23 2 -10 2 -28 0 -40z m-10 -50 c-3 -8 -6
-5 -6 6 -1 11 2 17 5 13 3 -3 4 -12 1 -19z"/>
<path d="M715 618 c-13 -43 -14 -86 -3 -90 7 -3 73 -3 146 0 l132 5 0 42 c0
53 -5 55 -158 55 -81 0 -114 -3 -117 -12z"/>
<path d="M3960 532 c0 -6 16 -33 36 -59 47 -62 46 -61 34 -27 -12 33 -70 105
-70 86z"/>
</g>
</svg>
