<?xml version="1.0" standalone="no"?>
<!DOCTYPE svg PUBLIC "-//W3C//DTD SVG 20010904//EN"
 "http://www.w3.org/TR/2001/REC-SVG-20010904/DTD/svg10.dtd">
<svg version="1.0" xmlns="http://www.w3.org/2000/svg"
 width="506.000000pt" height="368.000000pt" viewBox="0 0 506.000000 368.000000"
 preserveAspectRatio="xMidYMid meet">

<g transform="translate(0.000000,368.000000) scale(0.100000,-0.100000)"
fill="#000000" stroke="none">
<path d="M0 3480 c0 -166 2 -200 14 -200 8 0 16 -3 18 -7 3 -7 114 -39 268
-78 30 -8 113 -30 185 -48 72 -19 164 -38 205 -42 51 -5 80 -13 92 -25 19 -20
177 -44 226 -34 22 4 40 1 57 -10 14 -9 46 -19 72 -21 46 -5 73 -18 61 -30
-12 -12 -183 -11 -209 1 -14 7 -50 15 -80 18 -30 3 -78 10 -108 15 -29 6 -75
11 -102 11 -26 0 -60 5 -76 11 -15 6 -125 35 -243 65 -118 31 -248 64 -289 75
-94 24 -91 24 -91 -9 0 -22 37 -80 85 -130 10 -10 164 -62 185 -62 15 0 30 -4
35 -8 13 -12 121 -49 165 -58 19 -3 46 -12 60 -19 14 -7 36 -17 50 -23 14 -6
55 -24 91 -41 40 -19 83 -31 110 -32 82 -1 151 -15 161 -32 5 -10 18 -17 29
-17 11 0 36 -7 57 -16 20 -8 54 -18 76 -21 21 -3 53 -11 70 -18 39 -16 172
-39 189 -32 7 3 54 -3 105 -13 l92 -17 -6 21 c-3 12 -14 39 -24 61 -10 22 -17
41 -16 42 1 1 26 -1 56 -6 30 -5 60 -6 67 -4 7 3 13 0 13 -6 0 -6 7 -11 15
-11 8 0 15 7 15 15 0 8 -6 15 -14 15 -10 0 -14 10 -14 31 1 28 3 30 13 15 7
-9 26 -16 45 -16 18 0 30 -3 27 -7 -12 -11 48 -31 77 -26 25 5 77 -19 75 -35
-4 -23 3 -34 17 -28 9 4 40 -9 75 -31 80 -49 177 -64 162 -26 -5 13 -3 15 13
8 10 -4 47 -9 81 -10 34 -1 68 -6 75 -12 7 -6 27 -13 43 -17 17 -3 41 -9 55
-11 45 -10 60 -16 60 -26 0 -5 13 -9 29 -9 17 0 32 -4 35 -9 3 -5 23 -12 43
-15 21 -4 72 -20 113 -36 113 -43 171 -58 213 -55 20 2 37 -1 37 -6 0 -5 9 -9
19 -9 11 0 22 -6 24 -12 4 -10 6 -10 6 0 1 10 6 9 24 -2 36 -22 77 -29 77 -12
0 10 9 14 28 12 15 -2 29 -5 32 -6 3 -1 16 -2 30 -1 18 1 21 -1 12 -7 -11 -7
-10 -10 3 -16 24 -9 37 -7 30 3 -3 6 3 15 14 20 12 7 21 26 26 57 8 55 -3 66
-80 83 -90 20 -139 32 -170 41 -28 8 -29 9 -8 15 19 6 20 10 11 30 -6 14 -16
21 -24 18 -8 -3 -22 -2 -31 2 -10 4 -32 9 -49 11 -31 3 -62 21 -135 77 -20 15
-42 27 -50 27 -8 0 -20 9 -26 19 -13 21 -139 84 -153 76 -13 -8 -40 5 -40 20
0 7 -10 25 -21 39 -15 19 -23 46 -26 89 -5 74 -22 96 -82 104 -33 5 -39 8 -30
19 6 8 9 21 5 29 -8 22 -37 18 -43 -5 -7 -26 -31 -25 -60 2 -16 15 -34 21 -55
20 -17 -1 -42 5 -56 14 -16 10 -27 13 -31 6 -4 -7 -21 -4 -50 9 -24 10 -56 19
-71 19 -38 0 -47 -27 -15 -42 14 -6 25 -18 25 -26 0 -8 7 -20 16 -26 8 -6 16
-26 16 -42 1 -36 -26 -82 -37 -64 -4 6 -4 14 -1 17 16 16 -79 101 -120 107
-15 2 -42 28 -80 78 -11 15 -51 52 -87 83 l-67 57 0 54 c0 29 5 56 10 59 18
11 11 52 -13 76 -19 19 -23 32 -19 62 2 22 10 37 18 37 7 0 16 5 19 10 4 7
-273 10 -824 10 l-831 0 0 -200z m1590 110 c14 -8 18 -18 15 -42 -2 -18 -9
-34 -15 -36 -5 -2 -8 -8 -4 -13 10 -17 -33 -9 -48 9 -28 31 -31 60 -8 67 11 3
20 11 20 16 0 12 17 12 40 -1z m506 -437 c-10 -10 -19 5 -10 18 6 11 8 11 12
0 2 -7 1 -15 -2 -18z m-49 -489 c-3 -3 -12 -4 -19 -1 -8 3 -5 6 6 6 11 1 17
-2 13 -5z m933 -69 c0 -11 -41 -25 -53 -18 -8 5 -4 9 13 14 33 9 40 10 40 4z
m97 -181 c-3 -3 -12 -4 -19 -1 -8 3 -5 6 6 6 11 1 17 -2 13 -5z"/>
<path d="M1862 3668 c7 -21 87 -78 101 -72 8 3 19 -6 25 -20 10 -22 9 -27 -8
-36 -23 -12 -26 -55 -8 -96 10 -22 10 -28 0 -32 -7 -2 -9 -8 -6 -14 4 -7 9 -6
14 2 5 8 20 -1 46 -30 32 -34 43 -41 65 -36 18 3 32 0 41 -11 11 -14 10 -15
-11 -8 -16 5 -21 4 -17 -4 4 -6 12 -11 17 -11 6 0 20 -11 32 -25 15 -18 35
-26 64 -29 23 -2 55 -12 70 -22 40 -26 56 -26 75 1 17 22 17 23 -2 18 -11 -3
-20 -1 -20 4 0 10 16 13 56 13 13 0 24 8 27 20 3 11 13 20 22 20 25 0 89 -54
131 -111 20 -27 49 -56 65 -65 16 -8 29 -21 29 -28 0 -17 57 -68 155 -141 83
-62 147 -94 185 -95 14 0 45 -14 70 -30 25 -16 50 -30 56 -30 6 0 24 -12 40
-26 16 -14 41 -32 57 -40 28 -15 34 -33 18 -49 -6 -6 -5 -16 2 -26 17 -23 78
-59 100 -59 9 0 17 -4 17 -9 0 -5 -19 -7 -41 -4 -39 6 -41 5 -30 -15 6 -11 27
-26 48 -33 31 -10 38 -9 48 5 16 21 21 20 53 -5 67 -51 100 -67 112 -56 8 8
11 8 7 1 -9 -16 55 -13 71 3 7 7 28 13 47 13 18 0 35 6 38 13 3 9 7 9 20 -2
11 -9 17 -10 17 -2 0 18 18 13 23 -6 4 -14 5 -12 6 5 1 15 7 22 21 22 11 0 20
-4 20 -10 0 -5 5 -10 10 -10 6 0 10 10 10 23 0 14 3 18 8 10 5 -8 13 -9 22 -3
8 6 33 10 55 11 22 1 32 3 23 6 -10 2 -18 9 -18 14 0 12 32 12 64 -1 18 -7 26
-6 26 1 0 8 4 8 13 2 16 -13 97 -4 98 11 1 6 5 0 9 -14 8 -24 8 -24 9 -2 1 20
5 22 54 21 61 -2 157 11 157 21 0 10 54 -1 61 -13 4 -5 12 0 18 12 12 22 51
30 51 10 0 -8 5 -8 15 1 8 7 15 9 15 4 0 -4 16 9 36 30 21 22 41 35 50 32 8
-3 14 -2 14 3 0 10 16 12 117 12 88 1 127 -7 117 -22 -4 -6 13 -7 46 -3 31 4
55 3 59 -3 3 -5 23 -13 44 -16 l37 -6 0 515 0 514 -840 0 c-510 0 -840 -4
-840 -9 0 -15 69 -127 95 -155 15 -16 30 -23 43 -19 27 7 42 -35 18 -49 -9 -5
-16 -15 -16 -22 0 -17 -33 -26 -51 -15 -47 30 -51 -14 -9 -96 35 -69 35 -67
13 -64 -10 1 -31 -3 -46 -9 -36 -15 -37 -15 -37 6 -1 16 -1 16 -11 0 -14 -24
-28 -23 -22 2 3 12 -10 50 -31 93 -41 84 -47 112 -14 77 25 -27 53 -78 62
-115 4 -14 13 -25 21 -25 17 0 20 16 5 25 -5 3 -10 29 -10 56 0 53 -15 132
-31 161 -17 32 -9 43 12 18 17 -20 19 -21 14 -5 -4 11 -13 47 -19 80 l-11 60
-743 3 c-594 2 -743 0 -740 -10z"/>
<path d="M3415 3440 c3 -5 8 -10 11 -10 2 0 4 5 4 10 0 6 -5 10 -11 10 -5 0
-7 -4 -4 -10z"/>
<path d="M0 3060 c0 -5 5 -10 11 -10 5 0 7 5 4 10 -3 6 -8 10 -11 10 -2 0 -4
-4 -4 -10z"/>
<path d="M6 3005 c4 -8 12 -15 20 -15 19 0 18 16 -2 24 -22 9 -24 8 -18 -9z"/>
<path d="M52 2998 c6 -18 28 -21 28 -4 0 9 -7 16 -16 16 -9 0 -14 -5 -12 -12z"/>
<path d="M15 2940 c-3 -5 1 -10 10 -10 9 0 13 5 10 10 -3 6 -8 10 -10 10 -2 0
-7 -4 -10 -10z"/>
<path d="M70 2923 c0 -13 5 -23 10 -23 13 0 13 11 0 30 -8 12 -10 11 -10 -7z"/>
<path d="M108 2897 c6 -23 25 -47 38 -47 5 0 3 5 -3 11 -6 6 -9 17 -6 24 2 8
-4 18 -15 24 -18 9 -19 8 -14 -12z"/>
<path d="M80 2880 c-9 -6 -10 -10 -3 -10 6 0 15 5 18 10 8 12 4 12 -15 0z"/>
<path d="M0 2841 c0 -5 5 -13 10 -16 5 -3 10 -2 10 4 0 5 -4 13 -10 16 -5 3
-10 2 -10 -4z"/>
<path d="M110 2824 c0 -15 36 -50 48 -46 7 2 10 -2 7 -10 -6 -16 50 -84 58
-71 7 11 -19 59 -30 55 -4 -1 -9 9 -11 24 -2 16 -11 28 -23 31 -10 3 -16 9
-13 14 3 5 -4 9 -15 9 -12 0 -21 -3 -21 -6z"/>
<path d="M5 2800 c3 -5 8 -10 11 -10 2 0 4 5 4 10 0 6 -5 10 -11 10 -5 0 -7
-4 -4 -10z"/>
<path d="M55 2790 c10 -11 20 -20 22 -20 2 0 -1 9 -7 20 -6 11 -16 20 -22 20
-6 0 -3 -9 7 -20z"/>
<path d="M1690 2740 c0 -5 5 -10 11 -10 5 0 7 5 4 10 -3 6 -8 10 -11 10 -2 0
-4 -4 -4 -10z"/>
<path d="M50 2693 c1 -18 18 -35 24 -24 4 6 4 16 1 21 -7 12 -25 13 -25 3z"/>
<path d="M30 2665 c7 -9 15 -13 17 -11 7 7 -7 26 -19 26 -6 0 -6 -6 2 -15z"/>
<path d="M225 2650 c3 -5 10 -10 16 -10 5 0 9 5 9 10 0 6 -7 10 -16 10 -8 0
-12 -4 -9 -10z"/>
<path d="M20 2621 c0 -5 6 -14 14 -21 8 -6 13 -17 10 -24 -2 -6 7 -23 21 -36
14 -13 25 -18 25 -12 0 7 -9 17 -20 24 -24 15 -26 28 -5 28 24 0 17 14 -15 32
-17 9 -30 13 -30 9z"/>
<path d="M256 2607 c3 -12 7 -22 8 -23 22 -9 55 -37 51 -43 -2 -5 5 -15 18
-24 34 -22 77 -69 72 -77 -2 -4 4 -15 15 -25 11 -10 20 -13 20 -7 0 15 22 5
91 -40 31 -20 59 -45 63 -54 11 -28 0 -27 -24 3 -13 15 -20 20 -17 11 4 -11 1
-18 -6 -18 -8 0 -6 -4 3 -10 8 -5 10 -10 4 -10 -5 0 -19 7 -30 15 -15 12 -16
16 -5 24 10 6 11 13 2 27 -6 12 -11 14 -11 5 0 -10 -3 -11 -14 -2 -10 8 -16 9
-21 1 -3 -5 0 -13 8 -16 9 -3 18 -16 21 -30 4 -13 20 -38 37 -55 25 -25 33
-29 40 -18 5 8 9 17 9 20 0 3 9 15 20 27 12 12 18 22 15 22 -2 0 3 9 12 19 15
18 40 20 29 3 -2 -4 17 -7 42 -7 108 -1 192 -10 192 -21 0 -15 57 -26 79 -15
10 6 23 6 33 0 10 -6 26 -5 43 1 42 16 55 12 55 -15 0 -14 5 -25 10 -25 6 0
10 -7 10 -16 0 -8 4 -13 9 -10 4 3 6 -5 3 -19 -3 -19 0 -24 17 -22 12 1 21 4
21 8 0 4 22 30 49 58 28 29 53 61 56 71 9 27 33 38 80 35 61 -3 87 -14 80 -34
-7 -23 67 -66 91 -53 15 8 15 10 0 15 -9 4 -16 13 -16 22 0 8 -5 15 -11 15 -5
0 -7 -5 -3 -11 4 -7 -1 -10 -12 -7 -9 1 -16 7 -15 12 2 5 -2 12 -8 15 -6 4
-12 18 -14 31 -2 14 -9 26 -15 26 -7 1 -17 2 -23 3 -11 1 -3 21 9 21 16 0 33
-18 36 -35 3 -23 13 -28 95 -51 41 -12 57 -20 46 -24 -16 -5 -16 -7 -1 -19 9
-8 19 -11 23 -8 3 4 12 2 20 -5 11 -9 15 -7 20 10 7 27 15 28 38 2 14 -15 21
-17 32 -9 10 9 13 8 13 -5 0 -9 5 -16 10 -16 6 0 10 5 10 10 0 6 7 10 15 10
17 0 19 -9 6 -28 -5 -9 -17 -11 -37 -6 l-28 7 17 -26 c11 -17 13 -28 6 -32 -6
-5 -7 -11 0 -18 11 -14 10 -67 -2 -67 -9 0 2 -50 16 -67 6 -9 6 -13 -2 -13 -6
0 -11 -7 -11 -16 0 -12 8 -9 34 13 34 27 46 53 26 53 -5 0 -10 9 -10 20 0 11
5 20 10 20 6 0 10 -4 10 -10 0 -5 7 -7 15 -4 11 4 15 0 15 -16 l0 -22 29 24
c32 25 41 44 16 35 -8 -4 -17 -2 -19 2 -3 5 -20 12 -38 16 l-33 8 30 6 c20 4
33 2 40 -7 6 -7 15 -13 20 -12 23 5 33 -1 28 -18 -2 -10 3 -31 11 -47 9 -17
16 -44 16 -62 0 -37 14 -50 35 -33 23 19 19 43 -5 35 -15 -5 -18 -3 -14 9 3 9
10 13 15 10 6 -3 16 -1 24 6 7 6 15 7 17 3 11 -20 6 -108 -7 -139 -14 -34 -15
-34 -46 -21 -30 12 -60 57 -39 57 8 0 15 29 8 31 -2 0 -57 4 -122 9 -80 6
-122 13 -127 22 -7 11 -11 10 -19 -2 -17 -27 -11 -57 13 -65 48 -16 -14 -17
-76 -1 -34 9 -71 13 -82 10 -11 -3 -29 1 -39 9 -19 14 -19 15 1 21 23 7 37 32
27 48 -7 12 -41 -18 -49 -43 -8 -25 -51 -25 -58 0 -3 13 3 23 22 32 l26 13
-35 4 c-19 2 -39 9 -45 15 -12 16 -52 19 -61 6 -8 -14 -107 1 -117 17 -10 18
-37 18 -37 0 0 -16 -59 -26 -90 -14 -21 8 -21 8 4 35 19 20 28 24 38 15 8 -6
29 -11 48 -11 29 0 65 -2 133 -10 5 -1 5 -7 1 -13 -5 -10 -4 -10 6 -1 28 26
-30 79 -81 75 -16 -1 -29 2 -29 7 0 11 -38 23 -70 21 -14 0 -34 -12 -45 -26
-12 -13 -26 -24 -33 -24 -7 0 -12 -7 -12 -15 0 -8 -4 -15 -10 -15 -8 0 -40
-51 -40 -65 0 -3 25 -2 55 1 59 7 68 -1 35 -31 -12 -11 -20 -31 -20 -51 0 -27
-3 -31 -20 -27 -11 3 -20 11 -20 19 0 13 -34 12 -78 -2 -7 -2 -15 3 -18 11 -8
21 -22 19 -56 -10 -16 -14 -34 -23 -39 -19 -15 9 -10 -3 8 -21 10 -10 12 -19
6 -23 -5 -4 -12 -15 -16 -24 -3 -10 -14 -18 -23 -18 -13 0 -15 -7 -9 -39 4
-24 2 -42 -4 -46 -22 -13 -10 -25 24 -25 19 0 35 -5 35 -11 0 -6 6 -9 14 -6
18 7 126 -22 146 -39 8 -7 27 -16 43 -19 28 -7 36 -32 16 -52 -8 -8 -8 -17 0
-32 10 -17 9 -21 -4 -21 -8 0 -15 -5 -15 -10 0 -17 31 -24 40 -10 6 9 9 8 13
-6 15 -54 17 -83 6 -89 -8 -6 -5 -14 12 -27 17 -14 19 -18 6 -14 -12 4 -16 2
-11 -5 4 -6 1 -14 -5 -18 -6 -4 -9 -15 -5 -24 3 -9 10 -15 15 -12 4 3 6 12 2
20 -6 17 8 20 24 4 12 -12 27 288 22 419 -3 64 -1 76 16 88 10 8 13 14 7 14
-7 0 -12 13 -12 30 0 24 4 30 23 30 54 0 64 -9 65 -56 1 -37 -2 -44 -18 -44
-28 0 -33 -17 -7 -23 l22 -6 -3 -234 -3 -235 28 -22 c24 -19 37 -21 91 -17 62
5 90 15 64 24 -6 3 -9 9 -6 15 4 6 6 100 6 208 -1 160 1 200 13 210 12 10 10
15 -12 34 -43 37 -23 49 74 44 87 -5 92 8 7 17 -26 3 -51 10 -56 17 -6 10 -8
10 -8 1 0 -7 -6 -13 -14 -13 -9 0 -12 8 -8 25 4 21 10 25 41 25 20 0 43 6 50
13 9 7 12 8 7 0 -4 -7 8 -13 36 -18 101 -15 97 -12 100 -63 2 -26 0 -61 -5
-79 -4 -17 -6 -122 -5 -233 3 -191 4 -204 23 -214 63 -35 63 -36 -13 -36 -57
0 -72 3 -72 15 0 8 8 15 18 16 11 0 12 2 4 6 -9 3 -10 9 -3 17 5 6 11 104 12
223 2 251 3 249 -84 255 -49 4 -57 2 -55 -11 2 -10 16 -17 36 -19 32 -3 41
-15 21 -28 -7 -4 -2 -11 12 -18 14 -7 26 -24 30 -45 l7 -33 -59 6 c-39 5 -59
3 -59 -4 0 -5 22 -10 49 -10 28 0 52 -4 56 -10 3 -5 -14 -7 -45 -3 l-51 6 3
-129 3 -129 32 -3 c25 -3 34 -9 39 -28 3 -13 3 -32 -2 -41 -4 -10 -7 -20 -6
-23 0 -3 -89 -3 -199 -2 -125 3 -199 0 -199 -6 0 -5 9 -20 19 -33 21 -26 20
-26 199 -28 92 -1 112 -4 112 -16 0 -8 -5 -15 -11 -15 -16 0 14 -26 39 -34 23
-8 29 -21 12 -31 -5 -3 -7 -12 -4 -19 3 -8 1 -17 -5 -21 -18 -11 -12 -30 12
-40 21 -10 22 -14 27 -210 l5 -200 29 2 c16 1 31 5 35 8 9 10 8 227 -1 247 -5
9 -4 20 2 23 6 4 8 10 5 15 -3 4 -5 43 -6 85 -1 85 12 114 36 81 8 -10 12 -23
9 -27 -3 -5 4 -9 16 -9 22 0 22 -1 19 -202 l-4 -203 33 -3 32 -3 -6 225 c-3
125 -1 232 3 239 4 6 8 37 8 67 l0 55 40 -3 c46 -4 111 -35 107 -51 -1 -6 9
-16 22 -22 15 -7 22 -17 19 -26 -4 -9 5 -18 26 -26 17 -6 31 -15 31 -19 0 -11
-18 -10 -24 1 -8 12 -56 20 -56 10 0 -5 7 -9 16 -9 10 0 14 -6 10 -15 -4 -10
1 -15 16 -15 20 0 21 -2 14 -172 -8 -185 -1 -232 32 -226 16 3 17 22 17 226 0
185 2 224 15 232 21 13 4 25 -34 22 -21 -2 -37 3 -47 14 -13 16 -11 17 23 11
26 -4 38 -2 42 9 4 9 -2 14 -17 14 -17 0 -19 2 -7 9 8 6 18 7 22 5 4 -3 8 2 8
10 0 9 5 16 10 16 6 0 10 -15 10 -34 0 -19 5 -36 11 -38 8 -3 8 -14 1 -40 -6
-21 -6 -53 -1 -79 4 -24 8 -117 9 -205 l0 -161 41 -7 c22 -4 43 -4 47 -2 8 4
7 41 0 306 -3 69 -1 133 4 142 5 11 3 22 -5 29 -18 17 -9 67 14 79 14 8 21 6
30 -11 8 -15 8 -24 0 -32 -15 -15 -14 -27 3 -27 17 0 15 -45 -2 -62 -20 -20
-13 -38 13 -38 l25 0 0 -104 c0 -87 -4 -117 -25 -174 -41 -115 -49 -108 125
-115 83 -4 205 -12 272 -18 67 -6 188 -9 270 -7 122 3 147 1 143 -11 -4 -9 0
-11 11 -7 8 3 25 6 35 6 11 0 17 5 14 10 -3 6 1 10 9 10 10 0 13 6 10 15 -4 8
-12 15 -20 15 -10 0 -14 11 -13 38 1 27 3 30 6 12 6 -33 17 -43 40 -36 16 5
19 15 17 67 -1 40 -7 66 -17 77 -15 14 -17 13 -26 -11 -14 -37 -22 -34 -15 7
7 48 -67 158 -111 166 -17 3 -29 9 -27 13 1 4 2 14 2 22 0 8 6 15 14 15 8 0
14 10 15 23 3 77 1 111 -9 121 -19 19 -10 23 42 18 l51 -5 -22 31 c-12 18 -30
37 -40 44 -21 15 -111 123 -111 133 0 4 7 5 15 1 8 -3 15 -2 15 3 0 5 9 11 20
14 17 4 20 2 15 -13 -4 -13 1 -22 15 -30 16 -9 18 -15 10 -29 -8 -16 -4 -22
30 -39 22 -11 40 -16 40 -11 0 5 9 9 19 9 11 0 22 6 25 13 3 9 8 8 18 -5 8 -9
31 -20 52 -24 25 -4 40 -13 43 -25 3 -10 13 -17 24 -16 22 1 24 10 8 38 -9 17
-8 19 8 10 10 -5 26 -12 36 -15 22 -7 17 -32 -6 -30 -9 1 -13 -4 -10 -12 3 -8
0 -14 -6 -14 -5 0 -19 -9 -30 -21 -11 -12 -24 -18 -30 -14 -20 12 -11 -17 14
-47 14 -17 25 -41 24 -56 l-1 -27 -7 24 c-7 25 -31 42 -31 22 0 -6 5 -11 10
-11 6 0 10 -7 10 -16 0 -8 -4 -12 -10 -9 -5 3 -10 -2 -10 -11 0 -10 3 -15 6
-11 8 7 57 -51 72 -86 16 -37 15 -48 -3 -41 -24 10 -17 -14 8 -27 12 -6 31
-19 42 -29 11 -10 49 -25 85 -33 36 -8 64 -19 63 -25 -2 -6 3 -9 11 -6 8 3 17
1 21 -5 3 -6 0 -11 -8 -11 -8 0 -17 -7 -21 -15 -3 -9 0 -15 10 -15 8 0 12 5 9
10 -3 6 -1 10 5 10 6 0 18 6 25 14 12 12 12 16 0 26 -8 7 -15 17 -15 22 0 13
26 38 39 38 6 0 11 5 11 10 0 6 6 10 14 10 8 0 13 -8 12 -17 -1 -12 7 -19 23
-21 20 -3 22 -1 16 15 -4 10 -10 30 -12 44 -4 22 0 27 31 36 24 7 38 8 42 1 3
-5 16 -7 28 -4 61 19 109 11 74 -11 -9 -5 -3 -9 17 -13 29 -5 30 -6 27 -57 -3
-42 0 -56 17 -74 15 -16 21 -18 21 -8 0 10 12 15 39 15 22 1 68 9 103 18 69
19 143 12 143 -14 0 -7 5 -15 12 -17 7 -3 9 3 6 16 -4 16 -1 21 15 21 13 0 22
-9 26 -25 5 -19 13 -25 34 -25 l27 0 -30 21 -30 21 56 -6 c47 -5 63 -2 114 23
55 27 62 28 91 16 31 -13 107 -15 119 -3 3 3 -7 13 -22 23 -19 13 -28 15 -31
6 -3 -8 -8 -7 -16 4 -7 9 -27 17 -46 18 -18 1 -35 8 -38 15 -5 15 8 15 43 2
23 -9 25 -8 15 9 -12 23 -83 81 -99 81 -6 0 -11 7 -11 15 0 8 -8 15 -18 15
-10 0 -27 7 -38 15 -18 14 -17 14 15 15 20 0 56 -13 87 -31 30 -17 62 -28 71
-26 15 4 15 6 -4 12 -15 5 -23 15 -23 30 0 23 -22 47 -52 58 -10 4 -18 2 -18
-3 0 -13 -79 -6 -120 12 -19 8 -48 18 -65 23 -26 6 -27 8 -11 14 18 7 18 8 2
14 -10 4 -23 4 -29 1 -7 -3 -4 1 6 10 18 14 17 15 -15 18 -18 2 -53 0 -78 -3
-29 -4 -48 -3 -52 4 -8 12 -9 11 -27 -18 -9 -14 -11 -15 -7 -3 8 28 -10 30
-22 3 -7 -14 -19 -25 -28 -25 -9 0 -27 -9 -41 -20 -30 -24 -48 -26 -39 -5 21
52 21 51 3 36 -12 -9 -17 -10 -17 -2 0 7 -5 9 -12 4 -7 -4 -40 -8 -73 -8 -50
0 -60 -3 -63 -19 -3 -13 1 -17 15 -12 23 7 44 -6 47 -30 2 -11 12 -20 24 -22
24 -4 29 -31 11 -49 -8 -8 -8 -13 0 -17 27 -17 4 -23 -86 -20 -116 2 -133 -1
-133 -27 0 -18 -1 -18 -20 -2 -11 10 -20 28 -20 40 0 13 -9 28 -20 35 -11 7
-20 16 -20 19 0 10 53 3 77 -9 36 -20 47 -15 28 14 -9 14 -14 29 -10 32 4 4
11 -1 16 -11 14 -25 69 -23 69 2 0 11 -4 23 -10 26 -5 3 -10 0 -10 -8 0 -10
-7 -13 -20 -10 -10 3 -18 10 -17 15 1 6 -11 12 -28 15 -16 2 -40 15 -52 28
-25 29 -33 31 -33 10 0 -8 -4 -15 -10 -15 -5 0 -9 5 -7 12 1 6 -19 18 -44 25
-40 12 -46 17 -41 35 3 13 -1 24 -12 30 -22 12 -20 28 3 28 11 0 23 5 26 10 3
6 0 10 -7 10 -10 0 -11 2 0 8 7 5 10 16 6 25 -7 20 -45 22 -62 5 -9 -9 -15 -9
-24 1 -11 10 -8 16 12 31 l25 20 -25 0 c-39 0 -57 -15 -41 -34 7 -8 11 -23 9
-33 -4 -15 -7 -13 -18 10 -14 28 -37 39 -26 12 21 -52 21 -51 2 -35 -10 8 -28
14 -40 15 -16 0 -22 7 -24 29 -3 26 -2 28 12 13 9 -8 16 -21 16 -27 0 -6 5 -8
10 -5 20 12 10 45 -15 51 -14 4 -29 4 -32 0 -4 -3 -15 1 -24 10 -24 22 -73 28
-65 8 3 -8 1 -14 -4 -14 -6 0 -10 6 -10 13 0 7 -9 13 -20 13 -35 0 -18 -28 19
-33 19 -2 38 -9 43 -16 10 -16 -19 -22 -37 -7 -9 7 -15 8 -20 0 -8 -13 -82
-13 -90 0 -3 6 -1 10 5 10 6 0 19 7 27 16 14 13 14 17 2 25 -8 5 -18 9 -22 9
-5 0 -6 4 -2 9 3 6 -4 15 -15 21 -22 12 -27 1 -7 -19 10 -11 9 -13 -3 -9 -8 3
-18 18 -21 34 -5 23 -7 24 -8 7 -1 -24 -34 -33 -47 -12 -3 6 -14 9 -24 6 -16
-4 -18 0 -13 29 5 29 3 34 -15 34 -11 0 -30 13 -41 29 l-21 29 27 7 c18 4 31
1 42 -10 15 -16 14 -17 -8 -10 -33 10 -19 -10 21 -29 38 -20 44 -20 29 -2 -9
11 -7 15 9 19 13 3 18 10 14 21 -3 9 -1 16 5 16 25 0 9 19 -21 25 -18 4 -37
11 -43 15 -16 13 -64 0 -58 -16 7 -18 -6 -18 -21 0 -15 19 -66 30 -66 15 0 -8
-6 -7 -17 3 -10 9 -29 19 -43 23 -14 4 -29 13 -33 19 -6 7 -7 6 -4 -4 2 -8 18
-19 35 -24 33 -9 40 -20 22 -31 -6 -3 -10 -2 -10 4 0 6 -12 6 -35 0 -45 -13
-59 -4 -51 32 3 16 2 29 -3 29 -5 0 -12 11 -15 24 -4 17 -13 24 -31 24 -15 0
-25 -6 -25 -15 0 -10 7 -14 20 -10 18 4 20 0 20 -35 0 -21 5 -48 10 -59 8 -14
7 -19 -2 -19 -18 0 -52 -75 -44 -95 6 -16 -39 -105 -52 -105 -4 0 -8 63 -9
139 l-2 140 27 10 c17 6 21 10 10 10 -11 1 -18 9 -18 21 0 11 -6 20 -12 20 -8
0 -14 15 -15 35 -3 34 -2 35 31 35 20 0 36 6 39 14 8 19 -1 26 -35 26 -16 0
-28 5 -28 13 1 16 25 47 36 47 13 0 51 -43 65 -73 7 -15 18 -27 25 -27 7 0 15
-6 17 -12 4 -10 6 -9 6 1 1 11 4 11 16 1 13 -11 13 -14 0 -27 -8 -8 -15 -19
-15 -24 0 -6 7 -3 17 6 15 15 17 15 25 1 7 -12 24 -16 66 -15 31 1 59 0 62 -1
3 0 22 -3 44 -5 21 -2 47 -11 56 -20 13 -12 20 -13 25 -5 6 9 10 9 16 -1 6
-10 9 -11 9 -2 0 7 -17 21 -37 30 -20 10 -39 25 -41 33 -4 12 -2 13 10 3 11
-10 17 -10 26 -1 9 9 16 8 29 -5 10 -8 23 -16 28 -18 26 -5 37 -14 46 -35 5
-13 12 -23 16 -22 12 4 54 -28 47 -35 -3 -3 -12 -3 -19 -1 -10 4 -12 -1 -8
-16 4 -13 11 -19 20 -16 8 3 22 6 31 7 9 0 12 3 6 5 -7 3 -10 13 -7 23 4 17
-30 61 -48 61 -4 0 -11 9 -14 20 -4 11 -11 18 -16 15 -5 -4 -9 1 -9 9 0 23
-45 48 -87 49 -21 0 -30 2 -21 4 10 3 15 10 11 19 -6 15 -33 20 -33 5 0 -4
-12 -7 -27 -6 -16 1 -43 3 -60 3 -18 1 -33 6 -33 11 0 4 11 6 25 3 18 -3 25 0
25 12 0 19 -43 49 -78 52 -15 2 -32 11 -39 20 -7 10 -13 14 -13 10 0 -5 -6 -3
-13 3 -8 6 -17 8 -20 4 -4 -3 -7 6 -7 20 0 15 5 27 11 27 5 0 7 -5 4 -10 -4
-6 9 -17 28 -25 19 -8 38 -22 41 -32 6 -15 8 -15 17 -3 6 10 11 12 17 4 4 -6
20 -14 36 -18 16 -4 30 -15 33 -26 3 -11 9 -17 14 -14 18 10 8 24 -30 43 -21
11 -41 27 -44 36 -4 8 -18 15 -32 15 -15 0 -24 4 -21 9 4 5 -3 7 -14 4 -11 -3
-20 0 -20 6 0 6 6 11 13 11 17 1 -35 29 -54 30 -9 0 -25 -12 -35 -28 -10 -15
-28 -35 -41 -45 -13 -10 -23 -24 -23 -30 0 -17 -63 -15 -74 2 -6 10 -10 11
-16 1 -13 -21 -30 -1 -30 33 0 24 -9 41 -32 63 -42 38 -70 56 -45 27 19 -21
23 -53 7 -53 -5 0 -10 4 -10 9 0 6 -11 22 -24 36 -14 15 -22 33 -20 40 3 7 1
16 -5 20 -6 3 -9 0 -5 -8 4 -11 -3 -14 -33 -11 -33 2 -36 1 -20 -10 16 -13 16
-14 -3 -19 -16 -4 -20 0 -20 23 0 15 -7 33 -15 40 -8 7 -15 11 -16 9 0 -2 -3
-15 -5 -28 -6 -31 -8 -33 -28 -25 -13 5 -14 9 -5 20 9 11 6 16 -12 23 -13 5
-27 7 -31 5 -4 -3 -12 5 -18 16 -6 11 -18 20 -28 19 -10 0 -12 -3 -4 -6 6 -2
12 -9 12 -15 0 -14 70 -78 86 -78 7 0 15 -4 18 -8 7 -12 -45 -13 -60 -1 -11 9
-14 8 -15 -2 -1 -8 -4 -3 -8 11 -4 15 -21 32 -43 42 -23 11 -39 28 -46 48 -8
20 -18 30 -31 30 -12 0 -21 5 -21 11 0 5 -4 8 -9 5 -14 -9 -63 46 -52 57 7 7
17 3 30 -11 11 -14 25 -20 35 -16 9 3 16 1 16 -5 0 -6 5 -11 10 -11 17 0 11
20 -7 27 -10 3 -30 20 -45 36 -16 17 -33 27 -42 24 -8 -3 -22 0 -32 7 -9 7
-25 11 -33 9 -9 -2 -27 7 -40 21 -17 18 -20 26 -11 26 8 0 3 8 -10 17 -14 9
-29 23 -33 30 -4 7 -15 13 -22 13 -18 0 -19 12 -3 28 7 7 8 12 2 12 -5 0 -17
-9 -27 -20 -12 -14 -24 -19 -41 -14 -22 5 -25 2 -28 -27 -3 -30 -5 -31 -18
-17 -9 8 -29 22 -45 31 -17 9 -24 16 -17 17 7 0 24 -7 38 -16 13 -9 26 -15 27
-13 27 48 27 48 8 44 -17 -3 -121 22 -121 30 0 2 18 2 39 2 21 -1 36 -6 33
-11 -3 -5 2 -6 12 -3 10 4 27 7 39 7 39 0 4 18 -62 31 -57 12 -64 12 -76 -4
-6 -9 -15 -14 -19 -10 -3 3 -18 -4 -32 -18 -14 -13 -27 -23 -30 -21 -2 1 -7 2
-11 1 -5 -1 -18 0 -29 0 -12 1 -24 -5 -28 -15 -6 -15 -8 -15 -30 -1 -15 10
-27 12 -33 6 -6 -6 -27 -2 -57 12 -26 11 -54 18 -62 15 -8 -3 -14 -1 -14 4 0
6 -8 10 -18 10 -10 0 -33 11 -52 25 -34 25 -67 34 -55 15 3 -5 -10 -16 -29
-24 -33 -14 -38 -13 -90 14 -31 15 -72 41 -93 57 -74 58 -135 80 -155 56 -9
-11 -24 -14 -60 -10 -26 3 -50 2 -53 -4 -4 -5 0 -9 8 -9 7 0 14 -7 14 -15 0
-12 -8 -14 -36 -9 -20 4 -45 11 -56 17 -11 6 -55 23 -98 38 -77 27 -78 27 -71
6z m179 -176 c-3 -6 -11 -8 -17 -5 -6 4 -5 9 3 15 16 10 23 4 14 -10z m1095
-71 c0 -5 -4 -10 -10 -10 -5 0 -10 5 -10 10 0 6 5 10 10 10 6 0 10 -4 10 -10z
m306 -125 c11 -23 10 -24 -7 -14 -10 5 -19 16 -19 24 0 23 14 18 26 -10z m20
-39 c10 -8 16 -18 11 -22 -9 -10 -58 16 -51 28 7 12 17 10 40 -6z m-706 -60
c0 -3 -4 -8 -10 -11 -5 -3 -10 -1 -10 4 0 6 5 11 10 11 6 0 10 -2 10 -4z
m1040 -76 c0 -5 -2 -10 -4 -10 -3 0 -8 5 -11 10 -3 6 -1 10 4 10 6 0 11 -4 11
-10z m-4 -29 c-7 -10 22 -24 34 -16 4 3 11 -2 14 -10 4 -10 15 -14 32 -12 20
2 36 -5 60 -30 19 -19 34 -29 34 -23 0 12 10 13 30 0 12 -7 12 -12 3 -21 -9
-9 -10 -16 -1 -26 18 -22 2 -25 -28 -6 -55 34 -194 135 -199 144 -4 5 1 9 10
9 9 0 14 -4 11 -9z m-996 -61 c0 -21 -25 -4 -28 20 -4 21 -2 22 12 7 9 -8 16
-21 16 -27z m74 31 c4 -5 0 -12 -6 -14 -7 -3 -3 -6 9 -6 16 -1 21 -6 17 -16
-5 -13 -10 -13 -35 2 -18 11 -24 20 -17 24 7 4 2 9 -13 12 -20 3 -18 5 8 6 17
0 34 -3 37 -8z m-31 -68 c-7 -2 -21 -2 -30 0 -10 3 -4 5 12 5 17 0 24 -2 18
-5z m979 -71 c-49 -5 -62 3 -62 38 l0 31 48 -33 47 -33 -33 -3z m-292 38 c0
-5 -7 -10 -16 -10 -8 0 -12 5 -9 10 3 6 10 10 16 10 5 0 9 -4 9 -10z m750 -5
c11 -13 8 -15 -14 -15 -14 0 -26 6 -27 13 0 10 -2 10 -6 0 -6 -17 -20 -16 -27
2 -4 11 2 15 28 15 18 0 39 -7 46 -15z m-1001 -4 c10 -6 -1 -8 -30 -4 -24 3
-46 7 -48 9 -10 9 65 3 78 -5z m-729 -16 c0 -8 -6 -12 -13 -10 -6 3 -18 -4
-25 -15 -12 -20 -6 -25 21 -21 4 0 7 -4 7 -10 0 -6 -12 -9 -27 -7 -22 3 -26 8
-27 36 -1 19 3 31 10 28 6 -2 17 0 25 5 20 13 29 11 29 -6z m37 9 c-3 -3 -12
-4 -19 -1 -8 3 -5 6 6 6 11 1 17 -2 13 -5z m979 -20 c16 -4 21 -14 22 -40 1
-19 4 -38 6 -42 3 -5 1 -14 -3 -21 -7 -10 -24 -11 -70 -6 -37 4 -59 11 -55 17
4 6 19 7 35 4 16 -3 29 -3 29 -1 0 9 -55 32 -67 28 -7 -3 -13 1 -13 9 0 11 -2
11 -9 -1 -5 -8 -11 -9 -15 -3 -10 16 13 25 29 12 12 -10 15 -9 15 4 0 16 9 20
48 16 12 -1 22 1 22 5 0 3 -10 10 -22 15 -23 9 -23 9 2 9 14 1 34 -2 46 -5z
m339 -4 c3 -5 2 -10 -4 -10 -5 0 -13 5 -16 10 -3 6 -2 10 4 10 5 0 13 -4 16
-10z m461 -8 c-10 -2 -22 0 -28 6 -6 6 0 7 19 4 21 -5 23 -7 9 -10z m-422 -52
c5 -5 8 -119 8 -253 -2 -267 -4 -256 57 -284 24 -10 21 -11 -30 -12 -39 -1
-60 4 -69 14 -9 11 -9 15 -1 15 7 0 9 5 6 10 -3 6 -1 10 5 10 15 0 6 380 -10
409 -9 17 -20 21 -60 21 -38 0 -50 -4 -50 -15 0 -9 9 -15 25 -15 27 0 32 -9
13 -28 -9 -9 -7 -12 10 -12 22 0 42 -26 42 -54 0 -12 -12 -16 -47 -18 l-48 -1
46 -6 c37 -5 46 -9 43 -24 -4 -28 -14 -34 -14 -9 0 19 -6 22 -36 22 l-37 0 7
-37 c3 -21 6 -71 6 -110 0 -69 1 -73 23 -73 12 0 28 -4 35 -9 17 -11 13 -91
-5 -91 -7 0 -13 -4 -13 -10 0 -5 -5 -10 -11 -10 -5 0 -7 5 -4 10 4 6 -7 10
-27 10 -39 0 -63 13 -54 29 4 6 1 11 -6 11 -8 0 -6 5 5 11 16 9 18 27 16 182
0 95 2 180 6 190 5 11 1 25 -10 37 -10 11 -14 24 -9 32 4 7 7 28 5 46 l-3 33
89 -6 c48 -4 92 -10 97 -15z m328 -22 c-9 -9 -12 -7 -12 12 0 19 3 21 12 12 9
-9 9 -15 0 -24z m131 2 c-4 -15 0 -20 16 -20 12 0 21 -6 21 -15 0 -12 -7 -14
-27 -9 -54 13 -68 38 -30 54 12 5 23 9 24 9 0 1 -1 -8 -4 -19z m-53 -11 c0
-11 -4 -18 -10 -14 -5 3 -7 12 -3 20 7 21 13 19 13 -6z m-28 -24 c3 -14 4 -25
2 -25 -12 0 -34 14 -34 22 0 5 5 6 11 2 8 -4 9 1 4 16 -4 14 -3 20 3 16 5 -3
12 -17 14 -31z m-892 -26 c0 -11 49 -6 84 7 7 3 21 -7 30 -21 l18 -27 -29 6
c-15 3 -50 8 -77 12 -47 6 -48 6 -41 -17 11 -35 23 -45 37 -31 7 7 33 12 59
12 44 0 48 2 63 35 9 19 22 35 28 35 6 0 7 -6 2 -17 -13 -27 -17 -346 -4 -392
6 -25 17 -41 30 -44 11 -3 20 -10 20 -17 0 -8 -14 -9 -47 -4 -27 3 -49 8 -51
9 -1 1 2 14 8 29 13 36 13 346 0 346 -6 0 -10 -65 -10 -174 0 -113 -4 -177
-11 -181 -6 -4 -8 -13 -5 -20 3 -9 -9 -14 -44 -17 -26 -1 -46 0 -44 4 2 3 -12
6 -31 5 -39 -1 -56 10 -36 22 7 5 10 14 7 20 -4 6 -3 11 1 11 5 0 8 82 8 183
-1 173 6 237 26 237 5 0 9 -5 9 -11z m-253 -216 c-2 -21 -4 -6 -4 32 0 39 2
55 4 38 2 -18 2 -50 0 -70z m1348 -93 c-3 -5 -11 -10 -16 -10 -6 0 -7 5 -4 10
3 6 11 10 16 10 6 0 7 -4 4 -10z m299 -94 c-7 -30 -10 -31 -31 -11 -14 14 -14
18 3 36 22 24 37 11 28 -25z m-39 -15 c10 -17 -9 -20 -30 -5 -18 14 -18 14 2
14 12 0 24 -4 28 -9z m-695 -41 c0 -5 -10 -10 -22 -10 -19 0 -20 2 -8 10 19
13 30 13 30 0z m-382 -14 c-13 -14 -28 -12 -28 5 0 5 9 9 20 9 17 0 19 -2 8
-14z m-428 -62 c0 -9 -11 -14 -30 -14 -33 0 -39 14 -13 28 21 12 43 5 43 -14z
m770 10 c0 -18 -23 -43 -44 -48 -17 -4 -23 -11 -20 -21 5 -11 -2 -14 -25 -12
-17 1 -32 5 -32 10 -6 24 -1 32 21 38 l25 7 -27 1 c-27 1 -35 10 -21 24 8 8
123 9 123 1z m1677 -30 c-3 -3 -12 -4 -19 -1 -8 3 -5 6 6 6 11 1 17 -2 13 -5z
m-2442 -15 c4 -6 13 -8 21 -5 20 8 24 -7 8 -29 -8 -11 -14 -14 -14 -6 0 10 -3
11 -14 2 -20 -17 -66 3 -66 29 0 15 7 20 29 20 17 0 33 -5 36 -11z m1749 -40
c-8 -13 -21 -11 -27 5 -4 10 0 12 14 9 10 -3 16 -9 13 -14z m-1074 -99 c-3
-51 -10 -94 -17 -102 -10 -10 -13 7 -13 83 0 95 3 109 24 109 8 0 9 -29 6 -90z
m1243 53 c-5 -12 -7 -12 -14 -1 -5 7 -9 19 -9 27 0 11 3 11 14 1 8 -6 12 -18
9 -27z m244 31 c-3 -3 -12 -4 -19 -1 -8 3 -5 6 6 6 11 1 17 -2 13 -5z m-327
-38 c0 -3 -4 -8 -10 -11 -5 -3 -10 -1 -10 4 0 6 5 11 10 11 6 0 10 -2 10 -4z"/>
<path d="M1830 1620 c-10 -6 -11 -10 -2 -10 9 0 12 -28 12 -105 l0 -105 41 0
c36 0 40 -2 34 -20 -4 -11 -2 -20 4 -20 7 0 11 45 11 130 0 104 -3 130 -14
130 -7 0 -26 2 -42 5 -16 3 -36 1 -44 -5z"/>
<path d="M1848 1383 c7 -3 16 -2 19 1 4 3 -2 6 -13 5 -11 0 -14 -3 -6 -6z"/>
<path d="M200 2602 c0 -7 7 -20 15 -28 19 -20 20 -4 0 22 -9 12 -14 14 -15 6z"/>
<path d="M90 2571 c0 -13 7 -18 24 -18 23 0 23 0 5 18 -11 11 -21 19 -24 19
-3 0 -5 -8 -5 -19z"/>
<path d="M3180 2580 c20 -13 33 -13 25 0 -3 6 -14 10 -23 10 -15 0 -15 -2 -2
-10z"/>
<path d="M168 2553 c6 -2 18 -2 25 0 6 3 1 5 -13 5 -14 0 -19 -2 -12 -5z"/>
<path d="M190 2520 c0 -5 5 -10 11 -10 5 0 7 5 4 10 -3 6 -8 10 -11 10 -2 0
-4 -4 -4 -10z"/>
<path d="M1630 2510 c0 -13 11 -13 30 0 12 8 11 10 -7 10 -13 0 -23 -4 -23
-10z"/>
<path d="M147 2488 c6 -7 13 -22 17 -32 5 -16 4 -17 -9 -6 -12 10 -15 10 -15
-4 0 -9 7 -16 15 -16 8 0 15 -5 15 -12 0 -6 2 -9 5 -6 12 12 -8 88 -23 88 -10
0 -12 -4 -5 -12z"/>
<path d="M1540 2490 c0 -5 5 -10 11 -10 5 0 7 5 4 10 -3 6 -8 10 -11 10 -2 0
-4 -4 -4 -10z"/>
<path d="M185 2480 c3 -5 8 -10 11 -10 2 0 4 5 4 10 0 6 -5 10 -11 10 -5 0 -7
-4 -4 -10z"/>
<path d="M261 2480 c0 -8 4 -22 9 -30 12 -18 12 -2 0 25 -6 13 -9 15 -9 5z"/>
<path d="M195 2450 c-3 -6 1 -13 10 -16 19 -8 30 0 20 15 -8 14 -22 14 -30 1z"/>
<path d="M80 2438 c0 -4 7 -8 15 -8 8 0 15 4 15 8 0 5 -7 9 -15 9 -8 0 -15 -4
-15 -9z"/>
<path d="M1210 2440 c0 -5 5 -10 10 -10 6 0 10 5 10 10 0 6 -4 10 -10 10 -5 0
-10 -4 -10 -10z"/>
<path d="M1370 2439 c0 -5 5 -7 10 -4 6 3 10 8 10 11 0 2 -4 4 -10 4 -5 0 -10
-5 -10 -11z"/>
<path d="M325 2430 c3 -5 11 -10 16 -10 6 0 7 5 4 10 -3 6 -11 10 -16 10 -6 0
-7 -4 -4 -10z"/>
<path d="M1616 2415 c4 -8 10 -15 15 -15 5 0 9 7 9 15 0 8 -7 15 -15 15 -9 0
-12 -6 -9 -15z"/>
<path d="M1740 2408 c24 -20 24 -20 2 -14 -22 7 -21 6 4 -21 18 -19 28 -24 31
-15 3 7 11 18 17 25 10 8 4 15 -23 29 -47 24 -62 22 -31 -4z"/>
<path d="M1790 2420 c0 -5 5 -10 11 -10 5 0 7 5 4 10 -3 6 -8 10 -11 10 -2 0
-4 -4 -4 -10z"/>
<path d="M170 2386 c0 -9 5 -16 10 -16 6 0 10 4 10 9 0 6 -4 13 -10 16 -5 3
-10 -1 -10 -9z"/>
<path d="M210 2385 c7 -9 15 -13 17 -11 7 7 -7 26 -19 26 -6 0 -6 -6 2 -15z"/>
<path d="M240 2389 c0 -5 5 -7 10 -4 6 3 10 8 10 11 0 2 -4 4 -10 4 -5 0 -10
-5 -10 -11z"/>
<path d="M450 2390 c0 -5 5 -10 10 -10 6 0 10 5 10 10 0 6 -4 10 -10 10 -5 0
-10 -4 -10 -10z"/>
<path d="M300 2380 c0 -5 5 -10 10 -10 6 0 10 5 10 10 0 6 -4 10 -10 10 -5 0
-10 -4 -10 -10z"/>
<path d="M100 2360 c-12 -7 -11 -13 10 -34 13 -15 33 -26 44 -26 20 0 19 1 -2
16 -13 9 -27 24 -30 35 -5 13 -11 16 -22 9z"/>
<path d="M177 2353 c-2 -4 0 -19 5 -33 9 -23 10 -24 20 -6 8 13 6 22 -5 33 -8
8 -17 11 -20 6z"/>
<path d="M369 2358 c-6 -22 -7 -45 -1 -53 11 -16 49 -34 56 -28 8 8 -24 43
-40 43 -7 0 -10 8 -7 20 3 11 3 20 -1 20 -3 0 -6 -1 -7 -2z"/>
<path d="M1825 2340 c-3 -5 -1 -10 4 -10 6 0 11 5 11 10 0 6 -2 10 -4 10 -3 0
-8 -4 -11 -10z"/>
<path d="M320 2314 c0 -17 22 -14 28 4 2 7 -3 12 -12 12 -9 0 -16 -7 -16 -16z"/>
<path d="M216 2298 c7 -23 49 -68 63 -68 4 0 13 -16 21 -35 8 -19 20 -35 27
-35 17 0 17 -17 1 -24 -7 -3 -4 -4 7 -3 11 1 20 -4 21 -10 1 -7 2 -17 3 -23 0
-5 6 -10 12 -10 14 0 59 -46 74 -75 6 -11 17 -20 25 -20 8 0 25 -6 38 -13 25
-14 30 -1 7 22 -21 21 -19 25 20 42 19 8 35 21 35 29 0 10 10 15 27 15 30 0
21 16 -12 22 -11 2 -20 10 -20 18 0 8 -10 23 -22 33 -13 10 -23 24 -23 31 0 7
-11 23 -26 36 -21 21 -27 22 -34 10 -15 -23 -12 -57 6 -64 8 -3 12 -2 9 4 -3
5 0 7 7 5 16 -6 21 -42 7 -51 -5 -3 -16 0 -24 6 -13 11 -15 7 -15 -19 0 -38 7
-38 44 -1 16 17 33 30 38 30 12 0 10 -7 -8 -24 -8 -9 -12 -21 -8 -28 5 -7 11
-3 17 13 l10 24 5 -23 c5 -31 -5 -38 -56 -41 -7 -1 -11 -5 -8 -10 3 -5 -3 -11
-15 -14 -16 -4 -19 -2 -14 14 5 15 1 19 -14 19 -12 0 -21 6 -21 14 0 7 -8 20
-17 27 -16 13 -17 12 -5 -3 7 -9 9 -19 4 -22 -13 -8 -22 4 -22 31 0 15 -9 27
-25 35 -14 6 -24 16 -24 22 1 6 -2 26 -6 44 -8 35 -25 53 -25 28 0 -19 -7 -20
-25 -3 -9 10 -10 18 -2 33 10 18 10 18 -10 1 -16 -14 -23 -15 -29 -6 -4 7 -2
15 4 17 20 6 13 22 -9 22 -17 0 -19 -4 -13 -22z"/>
<path d="M470 2300 c0 -5 5 -10 11 -10 5 0 7 5 4 10 -3 6 -8 10 -11 10 -2 0
-4 -4 -4 -10z"/>
<path d="M1908 2303 c-14 -3 -12 -8 8 -29 32 -31 55 -32 26 -1 -12 13 -19 27
-15 30 3 4 4 6 2 6 -2 -1 -11 -3 -21 -6z"/>
<path d="M1285 2290 c-3 -5 -4 -14 -1 -19 4 -5 0 -12 -6 -14 -8 -4 -4 -8 10
-12 12 -4 22 -11 22 -16 0 -6 38 -6 59 0 11 3 -24 31 -40 31 -24 0 -25 16 -1
29 15 9 13 10 -10 11 -15 0 -30 -4 -33 -10z"/>
<path d="M378 2262 c-6 -22 46 -79 57 -62 7 12 -4 74 -12 66 -3 -3 -14 -1 -23
4 -14 7 -19 5 -22 -8z"/>
<path d="M20 2252 c0 -12 19 -26 26 -19 2 2 -2 10 -11 17 -9 8 -15 8 -15 2z"/>
<path d="M500 2251 c0 -5 5 -13 10 -16 6 -3 10 -2 10 4 0 5 -4 13 -10 16 -5 3
-10 2 -10 -4z"/>
<path d="M1380 2244 c0 -8 5 -12 10 -9 6 3 10 10 10 16 0 5 -4 9 -10 9 -5 0
-10 -7 -10 -16z"/>
<path d="M340 2236 c0 -9 5 -16 10 -16 6 0 10 4 10 9 0 6 -4 13 -10 16 -5 3
-10 -1 -10 -9z"/>
<path d="M1530 2240 c0 -8 25 -20 41 -20 20 0 7 18 -16 22 -14 3 -25 2 -25 -2z"/>
<path d="M1970 2236 c0 -7 3 -16 8 -20 4 -4 7 -13 7 -19 0 -7 11 -14 25 -15
14 -2 30 -8 36 -13 6 -5 14 -6 17 -2 11 10 8 23 -4 23 -6 0 -20 11 -30 24 -21
27 -59 41 -59 22z"/>
<path d="M1420 2230 c0 -5 7 -10 16 -10 8 0 12 5 9 10 -3 6 -10 10 -16 10 -5
0 -9 -4 -9 -10z"/>
<path d="M115 2219 c-5 -7 -1 -17 8 -24 9 -7 14 -15 10 -18 -3 -4 -1 -7 5 -7
14 0 10 36 -5 51 -8 8 -13 7 -18 -2z"/>
<path d="M1530 2200 c0 -5 5 -10 11 -10 5 0 7 5 4 10 -3 6 -8 10 -11 10 -2 0
-4 -4 -4 -10z"/>
<path d="M1616 2201 c-7 -10 9 -51 20 -51 5 0 -3 50 -10 57 -2 2 -7 0 -10 -6z"/>
<path d="M1691 2175 c12 -19 25 -32 30 -29 9 5 -29 62 -43 63 -4 1 2 -15 13
-34z"/>
<path d="M1310 2190 c0 -5 5 -10 10 -10 6 0 10 5 10 10 0 6 -4 10 -10 10 -5 0
-10 -4 -10 -10z"/>
<path d="M635 2170 c3 -5 8 -10 11 -10 2 0 4 5 4 10 0 6 -5 10 -11 10 -5 0 -7
-4 -4 -10z"/>
<path d="M1353 2160 c-13 -5 -23 -14 -23 -19 0 -10 39 -27 53 -23 4 1 7 -2 7
-8 0 -5 -11 -10 -24 -10 -13 0 -26 -7 -30 -15 -4 -12 3 -15 34 -13 36 1 44 7
42 29 -1 4 12 9 28 13 35 7 40 26 7 26 -13 0 -32 7 -43 15 -22 17 -22 17 -51
5z"/>
<path d="M2005 2160 c3 -5 8 -10 11 -10 2 0 4 5 4 10 0 6 -5 10 -11 10 -5 0
-7 -4 -4 -10z"/>
<path d="M2106 2140 c8 -41 4 -36 32 -44 12 -4 22 -3 22 2 0 14 38 22 44 8 2
-6 5 -3 5 6 1 18 -23 29 -54 24 -11 -2 -28 5 -38 18 -18 21 -18 21 -11 -14z"/>
<path d="M410 2145 c7 -9 15 -13 17 -11 7 7 -7 26 -19 26 -6 0 -6 -6 2 -15z"/>
<path d="M1265 2140 c3 -5 10 -10 16 -10 5 0 9 5 9 10 0 6 -7 10 -16 10 -8 0
-12 -4 -9 -10z"/>
<path d="M1485 2141 c-6 -10 19 -22 54 -27 28 -3 18 7 -21 24 -15 6 -30 7 -33
3z"/>
<path d="M0 2125 c0 -38 12 -66 26 -61 8 3 14 1 14 -4 0 -6 9 -10 20 -10 18 0
19 2 8 20 -7 11 -18 20 -25 20 -7 0 -13 4 -13 8 0 5 -7 17 -15 28 -14 19 -14
19 -15 -1z"/>
<path d="M252 2131 c-9 -6 -8 -12 7 -25 16 -14 19 -15 24 -2 7 18 -15 37 -31
27z"/>
<path d="M2000 2111 c0 -5 7 -12 16 -15 24 -9 28 -7 14 9 -14 17 -30 20 -30 6z"/>
<path d="M97 2103 c-10 -10 -8 -52 3 -74 12 -22 11 -23 -27 -8 -15 5 -25 7
-21 4 9 -10 -25 -42 -40 -37 -17 6 -16 -62 2 -77 10 -8 15 -9 18 -1 2 6 11 8
22 4 14 -5 15 -9 4 -15 -7 -5 -8 -9 -3 -9 6 1 19 7 29 15 16 12 17 17 6 30 -7
8 -17 12 -24 8 -6 -4 -5 1 3 10 17 21 28 15 36 -22 9 -40 25 -51 53 -36 21 11
21 13 5 26 -11 9 -14 10 -9 2 4 -7 2 -13 -3 -13 -6 0 -11 7 -11 16 0 8 -5 12
-10 9 -14 -9 -24 21 -14 43 4 9 6 20 6 25 -1 4 2 7 8 7 6 0 10 -4 10 -10 0 -5
7 -10 15 -10 8 0 15 -4 15 -10 0 -5 9 -10 20 -10 15 0 20 7 20 25 0 18 -5 25
-19 25 -11 0 -21 5 -23 11 -3 9 -9 9 -25 0 -20 -10 -21 -9 -18 11 8 42 -9 80
-28 61z"/>
<path d="M910 2091 c0 -6 4 -13 10 -16 6 -3 7 1 4 9 -7 18 -14 21 -14 7z"/>
<path d="M1459 2086 c10 -12 22 -15 43 -11 17 4 28 2 28 -4 0 -6 7 -11 15 -11
8 0 15 7 15 15 0 9 -9 15 -24 15 -13 0 -39 3 -57 7 -31 6 -33 5 -20 -11z"/>
<path d="M657 2083 c-11 -3 -16 -11 -13 -19 3 -8 1 -14 -5 -14 -6 0 -7 -4 -4
-10 7 -12 26 -14 23 -2 -1 4 3 17 10 30 7 12 11 21 10 21 -2 -1 -11 -3 -21 -6z"/>
<path d="M710 2066 c0 -20 17 -29 23 -14 4 10 8 9 16 -2 7 -10 6 -17 -2 -23
-7 -5 -3 -6 10 -2 18 5 22 3 17 -9 -3 -9 -10 -13 -15 -10 -5 3 -9 1 -9 -4 0
-6 7 -12 15 -16 9 -3 15 0 15 8 0 17 44 13 48 -5 3 -17 103 -21 101 -4 -1 6
-33 22 -72 37 -40 14 -85 33 -102 42 -37 20 -45 20 -45 2z"/>
<path d="M897 2063 c-4 -3 -7 -13 -7 -22 0 -12 2 -13 8 -3 5 8 16 10 28 6 10
-4 17 -5 14 -3 -22 20 -38 28 -43 22z"/>
<path d="M1495 2061 c-3 -6 -11 -9 -16 -6 -5 4 -17 1 -26 -4 -15 -9 -13 -10
14 -11 29 0 52 15 40 26 -3 3 -8 0 -12 -5z"/>
<path d="M1677 2057 c-3 -8 -1 -20 4 -28 6 -10 9 -8 9 10 0 16 4 21 15 17 8
-3 15 -1 15 4 0 15 -37 12 -43 -3z"/>
<path d="M182 2048 c2 -6 10 -14 16 -16 7 -2 10 2 6 12 -7 18 -28 22 -22 4z"/>
<path d="M217 2044 c6 -15 23 -19 23 -5 0 5 -7 11 -14 14 -10 4 -13 1 -9 -9z"/>
<path d="M260 2044 c0 -12 56 -74 68 -74 20 0 14 25 -13 54 -21 23 -55 36 -55
20z"/>
<path d="M365 2030 c-3 -6 1 -7 9 -4 9 3 16 1 16 -6 0 -6 5 -8 11 -4 8 4 7 9
-2 15 -18 11 -26 11 -34 -1z"/>
<path d="M223 1983 c3 -16 1 -23 -9 -23 -18 0 -18 -14 1 -50 17 -33 30 -40 20
-11 -3 10 -1 29 4 43 6 17 5 29 -6 43 -15 20 -15 19 -10 -2z"/>
<path d="M260 1985 c0 -8 4 -15 10 -15 5 0 7 7 4 15 -4 8 -8 15 -10 15 -2 0
-4 -7 -4 -15z"/>
<path d="M440 1980 c6 -11 12 -20 14 -20 2 0 2 9 -1 20 -3 11 -9 20 -15 20 -5
0 -4 -9 2 -20z"/>
<path d="M552 1991 c-10 -6 -10 -11 3 -21 19 -16 30 -7 18 14 -5 9 -13 12 -21
7z"/>
<path d="M400 1970 c0 -5 7 -10 16 -10 8 0 12 5 9 10 -3 6 -10 10 -16 10 -5 0
-9 -4 -9 -10z"/>
<path d="M646 1953 c-6 -14 -5 -15 5 -6 7 7 10 15 7 18 -3 3 -9 -2 -12 -12z"/>
<path d="M497 1945 c-4 -8 -2 -17 3 -20 6 -4 10 -4 10 -1 0 2 3 11 6 20 3 9 2
16 -4 16 -5 0 -12 -7 -15 -15z"/>
<path d="M280 1940 c0 -5 -7 -7 -15 -4 -10 4 -15 0 -15 -16 0 -11 5 -18 10
-15 6 3 10 1 10 -5 0 -7 7 -10 15 -6 11 4 15 -1 15 -17 0 -12 -3 -17 -8 -11
-12 18 -40 24 -46 8 -3 -8 -1 -14 5 -14 22 0 49 -44 43 -72 -7 -34 5 -36 35
-4 22 23 22 25 6 50 -15 23 -14 30 6 28 13 -2 -31 76 -46 81 -8 4 -15 2 -15
-3z"/>
<path d="M460 1935 c7 -9 15 -13 17 -11 7 7 -7 26 -19 26 -6 0 -6 -6 2 -15z"/>
<path d="M525 1940 c-5 -8 10 -50 18 -50 2 0 4 11 5 25 2 26 -12 42 -23 25z"/>
<path d="M564 1891 c3 -5 17 -8 31 -8 13 0 22 3 19 8 -3 5 -16 9 -30 9 -14 0
-23 -4 -20 -9z"/>
<path d="M1190 1891 c0 -6 4 -13 10 -16 6 -3 7 1 4 9 -7 18 -14 21 -14 7z"/>
<path d="M1 1854 c-1 -29 4 -44 14 -48 17 -6 20 5 6 20 -5 5 -11 23 -14 39 -3
24 -4 22 -6 -11z"/>
<path d="M167 1866 c-7 -18 1 -26 29 -26 12 0 24 -6 27 -12 2 -8 8 -9 13 -4 5
5 4 11 -3 13 -7 3 -13 13 -13 24 0 23 -45 27 -53 5z"/>
<path d="M480 1870 c0 -6 7 -10 15 -10 8 0 15 2 15 4 0 2 -7 6 -15 10 -8 3
-15 1 -15 -4z"/>
<path d="M357 1856 c-10 -25 -9 -28 5 -20 8 5 9 2 5 -9 -3 -10 -2 -17 3 -17
12 0 12 17 1 44 -7 18 -8 18 -14 2z"/>
<path d="M85 1850 c-3 -5 -4 -10 0 -10 3 0 1 -9 -5 -20 -9 -16 -8 -20 6 -20
10 0 14 6 11 14 -3 7 -1 18 5 24 6 6 6 12 0 16 -6 3 -13 2 -17 -4z"/>
<path d="M515 1850 c-3 -5 -3 -15 1 -21 6 -11 23 6 24 24 0 10 -18 9 -25 -3z"/>
<path d="M55 1830 c3 -5 8 -10 11 -10 2 0 4 5 4 10 0 6 -5 10 -11 10 -5 0 -7
-4 -4 -10z"/>
<path d="M468 1828 c7 -7 12 -20 12 -29 0 -10 13 -21 31 -28 17 -6 28 -15 24
-20 -3 -6 -13 -7 -23 -4 -14 6 -15 4 -4 -9 10 -12 10 -18 -2 -27 -12 -10 -24
-7 -60 14 -25 15 -46 31 -46 36 0 5 -9 9 -21 9 -11 0 -17 4 -14 10 3 6 -1 7
-9 4 -10 -4 -16 -19 -16 -40 0 -36 -8 -42 -28 -22 -17 17 -23 6 -29 -56 -5
-52 -3 -56 21 -67 14 -7 26 -18 26 -26 0 -7 5 -13 10 -13 6 0 10 8 10 17 0 15
1 15 13 -2 8 -11 19 -15 26 -10 8 4 7 -4 -3 -24 -19 -36 -29 -38 -56 -11 -24
24 -31 25 -24 5 3 -8 15 -17 26 -21 13 -4 17 -9 10 -16 -9 -9 -5 -43 13 -98 7
-22 6 -23 -9 -11 -9 7 -16 19 -16 27 0 10 -7 10 -35 -2 -33 -13 -35 -13 -35 6
0 12 5 17 14 14 25 -10 25 11 0 23 -13 6 -22 7 -19 3 3 -5 -4 -15 -15 -23 -12
-9 -18 -20 -14 -30 4 -12 1 -14 -15 -10 -12 3 -21 12 -21 20 0 9 -6 13 -15 9
-8 -3 -15 -1 -15 3 0 5 -13 13 -28 19 -23 8 -31 6 -40 -7 -8 -12 -13 -13 -19
-4 -8 11 -53 8 -53 -4 0 -12 27 -29 39 -25 10 3 13 -2 9 -22 -4 -21 -1 -26 14
-26 15 0 18 5 13 20 -4 11 -2 20 4 20 6 0 8 7 4 16 -4 12 -2 15 8 12 8 -3 13
-13 11 -22 -3 -14 1 -16 16 -12 13 4 22 1 26 -9 6 -17 36 -21 36 -5 0 6 5 10
10 10 20 0 9 -31 -14 -40 -41 -15 -48 -42 -21 -76 13 -16 24 -33 25 -37 0 -5
-25 -7 -55 -6 -51 2 -59 0 -98 -33 l-42 -35 -3 -222 c-3 -181 -1 -221 10 -221
8 0 19 5 26 12 7 7 42 12 82 12 60 1 70 -1 70 -16 0 -24 -18 -32 -37 -16 -9 7
-14 8 -10 2 7 -12 -36 -29 -60 -25 -7 1 -13 -3 -13 -10 0 -7 14 -9 43 -6 84
11 110 19 114 38 4 15 9 16 24 9 10 -6 16 -17 13 -24 -7 -18 10 -28 55 -32 20
-1 47 -6 61 -9 23 -6 23 -5 8 8 -10 8 -15 17 -12 20 10 10 -46 39 -66 34 -19
-5 -26 8 -21 37 1 4 -6 14 -16 22 -10 7 -13 14 -6 14 18 0 63 -22 63 -32 0 -4
5 -8 11 -8 5 0 7 5 3 12 -11 17 71 3 104 -18 27 -18 76 -29 68 -15 -3 4 8 6
23 3 30 -4 52 14 28 24 -24 9 -8 44 19 44 13 0 24 -5 24 -11 0 -6 -7 -9 -15
-5 -13 5 -13 2 1 -19 9 -14 20 -25 23 -25 15 0 20 14 10 26 -8 9 -5 11 10 7
12 -3 21 -11 21 -18 0 -20 29 -45 44 -39 8 3 17 1 21 -5 3 -6 20 -11 36 -11
28 0 29 1 17 23 -6 12 -11 34 -9 49 2 19 -3 28 -19 33 -26 8 -38 -1 -22 -17
15 -15 16 -58 2 -58 -5 0 -11 11 -12 25 -1 14 -2 38 -3 54 -2 35 -13 53 -28
48 -16 -5 -35 15 -43 47 -4 16 -2 26 5 26 6 0 11 5 11 11 0 6 -7 9 -14 6 -10
-4 -13 -1 -9 9 3 7 13 14 22 14 14 1 14 2 -1 11 -10 5 -18 21 -18 34 0 24 -16
42 -28 31 -3 -4 -7 -30 -8 -59 -3 -56 21 -116 58 -151 15 -14 17 -21 7 -26 -7
-5 -18 -6 -26 -3 -7 3 -13 -1 -13 -8 -1 -9 -4 -8 -11 4 -6 9 -14 15 -20 12 -5
-4 -9 -1 -9 4 0 6 -11 11 -25 11 -24 0 -26 3 -29 50 -1 8 -8 16 -17 18 -11 2
-15 10 -11 27 3 18 0 25 -12 25 -9 0 -16 6 -16 14 0 24 -29 41 -49 29 -13 -8
-22 -6 -40 8 -13 10 -28 16 -35 12 -6 -4 -3 5 7 20 20 31 25 89 5 69 -18 -18
-25 -15 -32 13 -4 14 -10 25 -15 25 -22 0 16 52 42 57 29 6 35 18 15 26 -7 3
2 6 20 6 19 1 31 5 27 11 -4 6 8 10 29 10 19 0 38 5 41 10 3 6 -3 10 -15 10
-28 0 -21 23 9 30 27 6 29 20 4 34 -18 10 -23 12 -43 15 -24 3 -7 21 20 21 17
0 30 -4 30 -10 0 -5 6 -10 14 -10 8 0 28 -11 44 -25 17 -14 38 -25 48 -25 38
0 63 -12 57 -26 -3 -8 -1 -14 4 -14 5 0 30 -14 56 -31 26 -17 52 -27 58 -23 7
4 9 3 5 -4 -10 -16 35 -27 45 -11 18 27 5 53 -29 60 -18 4 -35 3 -38 -2 -9
-16 -40 -10 -60 12 -14 16 -15 22 -5 28 18 11 5 68 -18 81 -10 5 -21 7 -24 3
-4 -3 -9 2 -13 11 -3 9 -10 13 -15 10 -14 -8 -29 39 -15 49 7 5 3 7 -9 6 -42
-3 -43 1 -19 49 13 26 24 54 24 63 0 9 11 27 24 41 12 14 26 33 30 43 3 9 12
15 18 13 7 -3 20 5 29 16 15 19 15 22 -3 47 -11 15 -18 31 -14 37 3 5 -3 17
-13 26 -16 15 -19 14 -40 -8 l-22 -23 30 -13 c17 -7 36 -19 43 -28 11 -13 9
-15 -17 -10 -16 4 -38 2 -49 -4 -22 -12 -66 7 -66 29 0 20 -30 63 -45 63 -6 0
-17 11 -23 25 -6 14 -17 25 -24 25 -9 0 -9 -3 0 -12z m-83 -78 c3 -5 1 -10 -4
-10 -6 0 -11 5 -11 10 0 6 2 10 4 10 3 0 8 -4 11 -10z m43 -45 c36 -7 42 -29
11 -45 -15 -9 -19 -18 -15 -35 8 -33 -9 -40 -22 -10 -7 14 -16 25 -22 25 -5 0
-10 5 -10 11 0 7 -8 17 -17 24 -15 11 -15 15 -4 29 8 9 21 14 30 12 9 -2 31
-7 49 -11z m172 -85 c0 -5 -4 -10 -10 -10 -5 0 -10 5 -10 10 0 6 5 10 10 10 6
0 10 -4 10 -10z m-93 -225 c-9 -8 -22 -15 -29 -15 -7 0 -2 9 12 20 28 21 40
19 17 -5z m121 -16 c18 -18 30 -34 27 -37 -3 -3 -12 4 -21 16 -8 12 -21 22
-28 22 -8 0 -19 7 -26 15 -25 30 15 16 48 -16z m-379 0 c-16 -10 -23 -4 -14
10 3 6 11 8 17 5 6 -4 5 -9 -3 -15z m47 7 c3 -8 15 -16 26 -19 12 -4 17 -10
13 -17 -4 -7 -16 -10 -26 -7 -11 3 -26 -1 -34 -9 -12 -13 -15 -12 -25 6 -6 12
-7 20 -1 20 5 0 13 9 16 20 7 23 23 26 31 6z m257 -3 c-7 -2 -19 -2 -25 0 -7
3 -2 5 12 5 14 0 19 -2 13 -5z m-263 -227 c0 -2 -8 -10 -17 -17 -16 -13 -17
-12 -4 4 13 16 21 21 21 13z m159 -221 c9 5 24 -41 20 -61 -4 -22 3 -37 37
-74 20 -22 34 -43 32 -46 -3 -3 -34 3 -69 12 -35 9 -75 18 -89 19 -14 1 -32 4
-40 8 -8 3 -26 7 -40 9 -19 2 -26 10 -28 31 -2 15 2 27 8 27 6 0 9 4 6 8 -2 4
-1 14 4 22 5 9 5 20 -2 28 -8 9 -8 16 2 25 10 9 13 9 17 0 3 -7 13 -13 23 -13
18 0 18 -2 5 -34 -8 -19 -11 -37 -6 -40 5 -3 11 2 13 12 3 10 12 19 21 19 12
0 14 -5 6 -18 -13 -26 -11 -31 9 -20 23 12 27 57 5 69 -10 6 -14 16 -10 26 6
15 9 15 37 1 17 -9 35 -13 39 -10z"/>
<path d="M320 830 c0 -5 5 -10 10 -10 6 0 10 5 10 10 0 6 -4 10 -10 10 -5 0
-10 -4 -10 -10z"/>
<path d="M130 1805 c0 -8 -8 -15 -17 -15 -17 -1 -17 -1 0 -11 14 -9 22 -7 32
8 19 24 18 33 0 33 -8 0 -15 -7 -15 -15z"/>
<path d="M1180 1810 c0 -5 5 -10 10 -10 6 0 10 5 10 10 0 6 -4 10 -10 10 -5 0
-10 -4 -10 -10z"/>
<path d="M1608 1813 c7 -3 16 -2 19 1 4 3 -2 6 -13 5 -11 0 -14 -3 -6 -6z"/>
<path d="M400 1791 c0 -5 7 -14 15 -21 16 -14 18 -10 9 14 -6 17 -24 22 -24 7z"/>
<path d="M1205 1780 l-30 -6 28 -6 c15 -3 30 -1 33 4 9 13 3 15 -31 8z"/>
<path d="M2550 1780 c0 -5 5 -10 11 -10 5 0 7 5 4 10 -3 6 -8 10 -11 10 -2 0
-4 -4 -4 -10z"/>
<path d="M220 1750 c0 -5 5 -10 11 -10 5 0 7 5 4 10 -3 6 -8 10 -11 10 -2 0
-4 -4 -4 -10z"/>
<path d="M450 1752 c0 -12 23 -32 37 -32 9 0 8 6 -4 20 -18 21 -33 26 -33 12z"/>
<path d="M20 1740 c0 -5 5 -10 11 -10 5 0 7 5 4 10 -3 6 -8 10 -11 10 -2 0 -4
-4 -4 -10z"/>
<path d="M67 1743 c-14 -14 -6 -33 14 -33 11 0 17 -4 14 -10 -3 -5 3 -10 13
-10 11 0 26 -8 33 -17 8 -10 9 -14 2 -10 -6 4 -14 3 -17 -2 -3 -5 4 -12 17
-15 21 -7 21 -7 2 -16 -11 -5 -15 -9 -8 -9 6 -1 16 -14 22 -31 9 -28 7 -34
-12 -31 -14 2 12 -36 41 -61 16 -13 27 -29 25 -35 -7 -19 16 -24 25 -6 20 38
12 82 -18 105 l-29 21 20 26 21 26 -43 38 c-23 21 -48 36 -55 33 -7 -3 -22 6
-33 19 -20 27 -24 29 -34 18z"/>
<path d="M250 1739 c0 -5 5 -7 10 -4 6 3 10 8 10 11 0 2 -4 4 -10 4 -5 0 -10
-5 -10 -11z"/>
<path d="M2590 1720 c0 -5 5 -10 10 -10 6 0 10 5 10 10 0 6 -4 10 -10 10 -5 0
-10 -4 -10 -10z"/>
<path d="M0 1666 c0 -29 24 -50 47 -41 17 6 17 7 -1 21 -11 8 -16 14 -12 14 5
0 3 7 -4 15 -18 22 -30 18 -30 -9z"/>
<path d="M2970 1659 c0 -5 5 -7 10 -4 6 3 10 8 10 11 0 2 -4 4 -10 4 -5 0 -10
-5 -10 -11z"/>
<path d="M239 1648 c8 -11 9 -18 1 -23 -5 -3 -10 -11 -10 -18 0 -6 7 -4 17 6
16 16 16 18 -2 35 -16 14 -17 14 -6 0z"/>
<path d="M689 1631 c-18 -16 -28 -34 -24 -40 4 -7 1 -19 -6 -27 -7 -8 -14 -37
-16 -64 -3 -49 -3 -50 24 -50 21 0 24 3 15 12 -15 15 -16 58 -1 58 6 0 8 9 4
20 -4 11 -2 20 4 20 6 0 11 6 11 14 0 25 26 39 49 24 27 -17 38 -3 17 21 -10
11 -15 25 -11 30 14 23 -35 9 -66 -18z"/>
<path d="M802 1651 c-6 -4 -6 -16 -1 -29 8 -20 11 -21 31 -11 19 9 21 9 11 -2
-17 -18 -16 -29 2 -29 8 0 15 -7 15 -16 0 -8 4 -13 9 -10 10 6 61 -16 61 -26
0 -5 7 -8 15 -8 8 0 15 -4 15 -10 0 -5 7 -10 15 -10 20 0 19 12 -6 44 -12 15
-30 26 -44 26 -30 0 -57 27 -50 49 3 12 -4 19 -30 27 -19 6 -38 8 -43 5z"/>
<path d="M925 1640 c3 -15 -3 -24 -18 -29 -26 -10 -18 -15 56 -31 56 -12 78
-4 47 17 -12 8 -19 21 -16 29 4 10 -3 14 -24 14 -17 0 -30 5 -30 10 0 6 -4 10
-9 10 -6 0 -8 -9 -6 -20z"/>
<path d="M2540 1620 c0 -5 5 -10 10 -10 6 0 10 5 10 10 0 6 -4 10 -10 10 -5 0
-10 -4 -10 -10z"/>
<path d="M2977 1583 c-4 -3 -7 -11 -7 -17 0 -6 5 -5 12 2 6 6 9 14 7 17 -3 3
-9 2 -12 -2z"/>
<path d="M750 1570 c0 -5 9 -10 21 -10 11 0 17 5 14 10 -3 6 -13 10 -21 10 -8
0 -14 -4 -14 -10z"/>
<path d="M19 1556 c6 -8 22 -16 34 -19 22 -6 22 -6 -2 14 -27 22 -49 26 -32 5z"/>
<path d="M3035 1560 c3 -5 8 -10 11 -10 2 0 4 5 4 10 0 6 -5 10 -11 10 -5 0
-7 -4 -4 -10z"/>
<path d="M3100 1545 c4 -35 0 -38 -26 -20 -29 19 -38 16 -28 -9 4 -9 13 -15
20 -12 7 3 16 1 19 -3 3 -5 22 -7 44 -4 30 4 39 2 45 -13 8 -20 -8 -42 -18
-25 -4 5 -13 8 -21 5 -8 -4 -29 -1 -46 5 -40 14 -52 6 -14 -9 18 -7 25 -15 21
-25 -3 -8 -1 -15 4 -15 6 0 10 5 10 11 0 6 8 8 18 6 61 -17 72 -17 72 -2 0 9
5 13 10 10 20 -13 8 31 -16 59 -19 22 -28 26 -34 16 -4 -7 -15 -10 -25 -7 -9
4 -14 11 -11 16 3 5 -1 15 -10 22 -14 11 -16 10 -14 -6z"/>
<path d="M2954 1539 c-4 -7 0 -17 9 -24 10 -7 17 -17 17 -22 0 -6 7 -16 15
-23 12 -10 16 -9 21 3 12 32 -45 93 -62 66z"/>
<path d="M3005 1540 c3 -5 8 -10 11 -10 2 0 4 5 4 10 0 6 -5 10 -11 10 -5 0
-7 -4 -4 -10z"/>
<path d="M801 1504 c12 -15 11 -16 -8 -10 -12 4 -24 2 -28 -4 -4 -7 2 -14 14
-17 12 -3 21 -11 21 -19 0 -7 6 -11 14 -8 8 3 17 1 21 -5 3 -6 11 -11 16 -11
6 0 1 13 -10 29 -12 16 -18 36 -15 45 4 12 0 16 -16 16 -20 0 -21 -2 -9 -16z"/>
<path d="M850 1510 c-10 -6 -11 -10 -2 -10 6 0 11 -5 10 -10 -3 -12 57 -41 66
-33 14 14 4 34 -24 48 -34 18 -31 17 -50 5z"/>
<path d="M15 1500 c3 -5 11 -10 16 -10 6 0 7 5 4 10 -3 6 -11 10 -16 10 -6 0
-7 -4 -4 -10z"/>
<path d="M723 1503 c9 -2 23 -2 30 0 6 3 -1 5 -18 5 -16 0 -22 -2 -12 -5z"/>
<path d="M92 1488 c6 -18 25 -20 31 -3 5 10 0 15 -14 15 -12 0 -19 -5 -17 -12z"/>
<path d="M690 1480 c0 -5 7 -7 15 -4 8 4 15 8 15 10 0 2 -7 4 -15 4 -8 0 -15
-4 -15 -10z"/>
<path d="M953 1473 c0 -10 8 -26 18 -36 17 -18 17 -18 24 3 5 15 1 26 -12 35
-24 19 -30 18 -30 -2z"/>
<path d="M725 1459 c-8 -13 -6 -15 23 -23 26 -9 32 18 6 28 -21 8 -22 8 -29
-5z"/>
<path d="M895 1420 c3 -5 11 -10 16 -10 6 0 7 5 4 10 -3 6 -11 10 -16 10 -6 0
-7 -4 -4 -10z"/>
<path d="M1000 1410 c-13 -8 -12 -10 3 -10 9 0 17 5 17 10 0 12 -1 12 -20 0z"/>
<path d="M3230 1411 c0 -11 31 -24 39 -16 3 3 -1 10 -9 15 -19 12 -30 12 -30
1z"/>
<path d="M924 1375 c21 -16 32 -13 21 4 -3 6 -14 11 -23 11 -15 -1 -15 -2 2
-15z"/>
<path d="M3 1311 c0 -54 1 -58 15 -44 22 21 23 64 2 86 -16 16 -17 14 -17 -42z"/>
<path d="M4670 1346 c0 -14 -5 -28 -11 -32 -7 -4 -8 -19 -5 -37 6 -29 5 -30
-8 -12 -9 12 -12 30 -9 44 4 17 2 22 -8 19 -8 -3 -13 -10 -12 -16 1 -6 -10 -7
-32 -2 -30 7 -35 5 -35 -11 0 -10 -4 -19 -9 -19 -16 0 -33 29 -27 48 5 15 2
19 -14 18 -20 -1 -40 -21 -40 -40 0 -4 7 -6 15 -2 17 6 19 -2 5 -24 -6 -10
-10 -11 -10 -2 0 6 -7 12 -16 12 -11 0 -14 -5 -10 -16 3 -9 9 -33 12 -55 7
-44 -9 -54 -23 -14 l-8 26 -12 -31 c-6 -16 -7 -30 -2 -30 5 0 9 -9 9 -20 0
-11 6 -21 13 -21 6 -1 23 -2 37 -3 23 -2 125 -86 104 -86 -5 0 0 -6 11 -14 11
-7 43 -16 71 -20 57 -6 180 -79 167 -99 -4 -6 0 -8 10 -4 9 3 21 -1 29 -10 9
-11 10 -17 2 -20 -8 -3 -5 -16 7 -41 11 -20 19 -42 19 -49 0 -7 7 -10 15 -7 8
4 15 1 15 -4 0 -6 15 -13 33 -15 l32 -4 -32 -1 c-18 -1 -33 -6 -33 -12 0 -10
85 -8 96 3 4 4 2 7 -5 7 -7 0 -9 5 -6 10 4 6 15 8 26 5 18 -6 19 1 19 159 0
147 -2 166 -17 175 -17 10 -17 10 0 11 15 0 17 10 17 75 l0 76 -25 -18 c-13
-10 -25 -22 -25 -26 0 -5 -9 -22 -21 -39 -20 -28 -22 -29 -41 -11 -18 16 -18
18 -1 24 16 7 15 8 -4 8 -28 1 -54 -66 -32 -80 19 -11 -2 -32 -24 -23 -19 7
-21 59 -4 82 6 8 6 12 -2 12 -6 0 -11 9 -11 20 0 11 5 20 10 20 6 0 10 7 10
15 0 8 5 15 10 15 13 0 13 39 -1 79 -14 40 -23 39 -37 -1 -5 -18 -10 -25 -11
-15 -1 24 -16 21 -39 -8 l-20 -25 -10 30 c-8 23 -17 30 -36 30 -14 0 -28 5
-31 10 -12 20 -35 10 -35 -14z m25 -56 c4 -6 11 -8 16 -5 5 3 6 -1 3 -9 -3 -8
-12 -12 -20 -9 -8 3 -12 9 -9 13 3 5 -1 11 -7 13 -9 4 -10 6 -1 6 6 1 15 -4
18 -9z m185 -220 c0 -5 -4 -10 -10 -10 -5 0 -10 5 -10 10 0 6 5 10 10 10 6 0
10 -4 10 -10z m100 -160 c0 -5 -2 -10 -4 -10 -3 0 -8 5 -11 10 -3 6 -1 10 4
10 6 0 11 -4 11 -10z m-30 -55 c0 -8 -9 -15 -20 -15 -17 0 -19 2 -8 15 17 19
28 19 28 0z"/>
<path d="M722 1334 c4 -21 22 -23 26 -1 2 10 -3 17 -13 17 -10 0 -15 -6 -13
-16z"/>
<path d="M4796 1333 c-6 -14 -5 -15 5 -6 7 7 10 15 7 18 -3 3 -9 -2 -12 -12z"/>
<path d="M852 1315 c-24 -14 -49 -22 -54 -19 -6 4 -9 1 -6 -7 3 -8 18 -14 37
-14 20 -1 30 4 27 11 -3 7 2 15 10 18 9 3 14 -1 14 -14 0 -24 12 -31 30 -19 8
5 10 9 4 9 -16 0 -24 36 -11 49 19 19 -6 12 -51 -14z"/>
<path d="M970 1327 c0 -8 7 -21 16 -28 14 -11 15 -10 12 11 -3 26 -28 41 -28
17z"/>
<path d="M90 1321 c8 -6 17 -8 22 -5 4 2 12 -5 18 -17 11 -19 10 -20 -9 -14
-12 4 -21 2 -21 -4 0 -6 6 -11 14 -11 8 0 22 -3 31 -6 14 -6 14 -3 3 22 -15
35 -26 44 -53 44 -16 0 -17 -2 -5 -9z"/>
<path d="M3450 1320 c0 -5 9 -10 20 -10 11 0 20 5 20 10 0 6 -9 10 -20 10 -11
0 -20 -4 -20 -10z"/>
<path d="M1070 1261 c0 -20 6 -30 19 -34 23 -6 34 15 18 33 -9 10 -8 12 6 7 9
-4 17 -3 17 2 0 8 -32 20 -52 21 -5 0 -8 -13 -8 -29z"/>
<path d="M515 1270 c-3 -5 -1 -10 4 -10 6 0 11 5 11 10 0 6 -2 10 -4 10 -3 0
-8 -4 -11 -10z"/>
<path d="M990 1268 c0 -4 -10 -8 -23 -8 -13 0 -31 -6 -40 -12 -14 -11 -14 -16
-3 -31 13 -17 15 -16 45 9 17 14 37 24 45 21 7 -3 20 3 29 13 14 17 13 18 -19
17 -19 -1 -34 -5 -34 -9z"/>
<path d="M3525 1241 c-8 -13 35 -41 62 -41 14 0 23 -6 23 -15 0 -8 5 -15 10
-15 6 0 10 2 10 4 0 11 -30 60 -42 67 -18 12 -55 11 -63 0z"/>
<path d="M885 1230 c3 -5 8 -10 11 -10 2 0 4 5 4 10 0 6 -5 10 -11 10 -5 0 -7
-4 -4 -10z"/>
<path d="M976 1215 c-3 -8 -1 -15 4 -15 6 0 10 7 10 15 0 8 -2 15 -4 15 -2 0
-6 -7 -10 -15z"/>
<path d="M3055 1220 c3 -5 8 -10 11 -10 2 0 4 5 4 10 0 6 -5 10 -11 10 -5 0
-7 -4 -4 -10z"/>
<path d="M440 1211 c32 -18 60 -23 60 -9 0 8 -14 14 -38 15 -24 2 -32 0 -22
-6z"/>
<path d="M1124 1199 c-4 -7 -3 -9 4 -5 6 3 12 -3 14 -16 2 -12 8 -23 15 -25 8
-3 9 4 4 23 -8 31 -25 41 -37 23z"/>
<path d="M3765 1200 c3 -5 8 -10 11 -10 2 0 4 5 4 10 0 6 -5 10 -11 10 -5 0
-7 -4 -4 -10z"/>
<path d="M3810 1200 c0 -5 5 -10 10 -10 6 0 10 5 10 10 0 6 -4 10 -10 10 -5 0
-10 -4 -10 -10z"/>
<path d="M4345 1170 c3 -5 11 -10 16 -10 6 0 7 5 4 10 -3 6 -11 10 -16 10 -6
0 -7 -4 -4 -10z"/>
<path d="M1073 1163 c-10 -3 -9 -8 3 -20 8 -9 12 -23 9 -32 -12 -30 -10 -36
12 -39 15 -2 26 -15 33 -38 18 -53 21 -36 6 31 -8 32 -12 65 -9 73 9 22 -24
38 -54 25z"/>
<path d="M1243 1163 c9 -2 25 -2 35 0 9 3 1 5 -18 5 -19 0 -27 -2 -17 -5z"/>
<path d="M1388 1163 c12 -2 32 -2 45 0 12 2 2 4 -23 4 -25 0 -35 -2 -22 -4z"/>
<path d="M3036 1155 c-3 -9 -6 -26 -6 -38 0 -19 2 -18 15 7 9 17 12 33 7 38
-6 6 -12 3 -16 -7z"/>
<path d="M3945 1160 c3 -5 8 -10 11 -10 2 0 4 5 4 10 0 6 -5 10 -11 10 -5 0
-7 -4 -4 -10z"/>
<path d="M1010 1150 c0 -5 5 -10 11 -10 5 0 7 5 4 10 -3 6 -8 10 -11 10 -2 0
-4 -4 -4 -10z"/>
<path d="M3071 1134 c-6 -15 -9 -29 -6 -32 2 -3 0 -10 -5 -17 -6 -8 -5 -18 5
-31 14 -18 14 -18 15 3 0 12 3 29 6 38 5 13 9 14 15 3 7 -11 11 -10 19 2 8 12
10 12 8 -5 -3 -37 2 -55 15 -55 6 0 27 -21 46 -45 36 -48 49 -56 47 -27 -2 24
-18 47 -38 55 -9 3 -21 20 -25 38 -5 19 -26 46 -49 65 l-41 34 -12 -26z"/>
<path d="M385 1139 c-4 -5 1 -19 10 -29 13 -15 14 -22 4 -37 -10 -16 -8 -23 7
-41 20 -24 58 -29 70 -10 4 6 -2 19 -15 29 l-22 18 26 -2 c26 -2 45 -21 41
-41 -2 -6 -1 -8 1 -5 2 4 13 5 23 2 26 -7 26 14 1 22 -11 3 -22 12 -25 20 -3
9 -18 15 -36 15 -24 0 -30 4 -28 18 2 11 -2 16 -12 14 -12 -3 -13 -1 -2 9 16
17 15 29 -3 29 -8 0 -15 -4 -15 -10 0 -5 -5 -10 -11 -10 -5 0 -7 5 -4 10 3 6
4 10 1 10 -3 0 -8 -5 -11 -11z"/>
<path d="M1267 1133 c-20 -19 -5 -33 36 -33 38 0 42 -2 43 -25 2 -19 -3 -25
-20 -25 -11 0 -29 -7 -40 -15 -19 -15 -22 -14 74 -28 14 -3 6 -5 -20 -7 -84
-4 -101 -18 -24 -19 l71 -1 -5 -112 c-2 -68 -9 -116 -16 -120 -8 -6 -7 -8 2
-8 6 0 12 -6 12 -14 0 -8 7 -16 15 -20 8 -3 15 -10 15 -16 0 -6 -8 -5 -20 2
-17 11 -22 10 -30 -2 -15 -23 -13 -27 20 -40 17 -7 30 -19 30 -26 0 -8 5 -14
11 -14 8 0 10 17 6 55 -3 33 -2 53 4 50 12 -8 12 2 -1 25 -7 13 -7 21 0 25 6
4 8 10 5 14 -7 13 -10 285 -2 298 4 6 20 13 37 16 16 4 30 11 30 17 0 7 -5 8
-12 3 -24 -15 -67 -9 -72 10 -3 14 -16 17 -73 17 -38 0 -73 -3 -76 -7z m123
-93 c0 -5 -2 -10 -4 -10 -3 0 -8 5 -11 10 -3 6 -1 10 4 10 6 0 11 -4 11 -10z"/>
<path d="M1835 1122 c-10 -26 -5 -32 23 -27 26 6 27 6 7 -11 -18 -15 -18 -16
-2 -10 10 3 27 6 37 6 20 0 22 28 3 47 -15 16 -61 13 -68 -5z"/>
<path d="M3615 1130 c3 -5 14 -10 23 -10 15 0 15 2 2 10 -20 13 -33 13 -25 0z"/>
<path d="M2995 1087 c-4 -10 -5 -21 -1 -24 10 -10 18 4 13 24 -4 17 -4 17 -12
0z"/>
<path d="M1280 1060 c0 -5 4 -10 9 -10 6 0 13 5 16 10 3 6 -1 10 -9 10 -9 0
-16 -4 -16 -10z"/>
<path d="M1197 1039 c-4 -15 -2 -19 10 -15 8 3 16 6 19 6 2 0 1 7 -2 15 -9 21
-21 19 -27 -6z"/>
<path d="M1780 1041 c0 -11 5 -23 10 -26 6 -3 10 0 10 7 0 10 11 12 39 10 23
-2 42 1 46 8 5 8 -4 11 -33 9 -23 -2 -44 0 -48 4 -13 13 -24 7 -24 -12z"/>
<path d="M3038 1024 c12 -8 22 -21 22 -29 0 -9 6 -12 16 -8 13 5 15 2 9 -15
-5 -18 -2 -22 14 -22 14 0 21 6 21 18 0 21 -29 52 -48 52 -7 0 -12 5 -12 10 0
6 -10 10 -22 10 l-22 0 22 -16z"/>
<path d="M3730 1030 c0 -5 5 -10 10 -10 6 0 10 5 10 10 0 6 -4 10 -10 10 -5 0
-10 -4 -10 -10z"/>
<path d="M3665 1020 c4 -6 11 -8 16 -5 14 9 11 15 -7 15 -8 0 -12 -5 -9 -10z"/>
<path d="M1854 1010 c-19 -7 -22 -19 -28 -127 -3 -65 -7 -129 -9 -142 -2 -30
31 -42 78 -29 19 5 31 4 33 -2 2 -5 9 -10 15 -10 9 0 11 40 8 150 -3 135 -1
150 14 150 9 0 13 5 10 10 -7 12 -91 12 -121 0z"/>
<path d="M2971 1011 c-16 -10 -6 -31 15 -31 13 0 52 29 42 31 -30 7 -46 7 -57
0z"/>
<path d="M680 1005 c0 -22 34 -65 50 -65 31 0 25 37 -10 55 -31 16 -40 18 -40
10z"/>
<path d="M866 989 c4 -7 -8 -10 -38 -8 -45 3 -68 -5 -68 -22 0 -12 37 -12 45
1 3 5 25 7 50 3 41 -5 43 -4 38 16 -3 11 -12 21 -20 21 -8 0 -11 -5 -7 -11z"/>
<path d="M490 981 c0 -10 24 -21 46 -21 8 0 14 5 14 11 0 6 -9 9 -20 6 -11 -3
-20 -1 -20 4 0 5 -4 9 -10 9 -5 0 -10 -4 -10 -9z"/>
<path d="M4608 973 c7 -3 16 -2 19 1 4 3 -2 6 -13 5 -11 0 -14 -3 -6 -6z"/>
<path d="M4715 960 c-3 -5 1 -10 10 -10 9 0 13 5 10 10 -3 6 -8 10 -10 10 -2
0 -7 -4 -10 -10z"/>
<path d="M4525 951 c-3 -5 -1 -12 5 -16 5 -3 10 1 10 9 0 18 -6 21 -15 7z"/>
<path d="M530 940 c0 -5 7 -10 16 -10 8 0 12 5 9 10 -3 6 -10 10 -16 10 -5 0
-9 -4 -9 -10z"/>
<path d="M670 942 c0 -5 7 -13 16 -16 10 -4 14 -1 12 6 -5 15 -28 23 -28 10z"/>
<path d="M1310 935 c0 -23 30 -65 46 -65 16 0 8 60 -10 72 -18 13 -36 9 -36
-7z"/>
<path d="M830 927 c0 -14 35 -47 50 -47 15 0 12 7 -12 35 -24 27 -38 32 -38
12z"/>
<path d="M3668 895 c-13 -26 -14 -41 -6 -78 9 -43 12 -46 46 -51 20 -2 44 -4
54 -4 16 1 17 1 -12 58 -5 11 -10 25 -10 32 -1 7 -13 27 -28 44 l-27 32 -17
-33z m47 -105 c3 -5 -1 -10 -9 -10 -9 0 -16 5 -16 10 0 6 4 10 9 10 6 0 13 -4
16 -10z"/>
<path d="M761 899 c10 -20 9 -21 -12 -16 -22 6 -23 5 -5 -8 10 -7 15 -18 12
-24 -4 -5 -2 -12 4 -16 11 -7 30 35 30 66 0 12 -7 19 -20 19 -18 0 -19 -3 -9
-21z"/>
<path d="M4770 910 c0 -5 5 -10 10 -10 6 0 10 5 10 10 0 6 -4 10 -10 10 -5 0
-10 -4 -10 -10z"/>
<path d="M954 878 c6 -34 38 -68 44 -48 2 5 8 8 13 4 5 -3 9 4 9 14 0 12 -14
28 -36 41 l-37 22 7 -33z"/>
<path d="M1015 900 c3 -6 21 -17 38 -26 l32 -15 -28 25 c-28 26 -54 35 -42 16z"/>
<path d="M4603 855 c27 -25 50 -45 52 -45 1 0 6 7 9 16 9 23 -13 57 -33 51
-10 -2 -26 2 -36 9 -42 31 -37 11 8 -31z"/>
<path d="M4795 890 c-3 -5 -1 -10 4 -10 6 0 11 5 11 10 0 6 -2 10 -4 10 -3 0
-8 -4 -11 -10z"/>
<path d="M791 853 c0 -4 4 -17 9 -28 8 -19 9 -19 9 2 1 12 -3 25 -9 28 -5 3
-10 3 -9 -2z"/>
<path d="M4736 845 c7 -18 -7 -20 -24 -3 -15 15 -26 4 -19 -17 4 -8 16 -15 27
-15 18 0 21 -5 18 -32 -2 -20 2 -33 11 -36 8 -3 11 0 7 7 -4 6 -1 11 7 11 19
0 17 47 -3 78 -17 25 -32 30 -24 7z"/>
<path d="M4785 833 c4 -16 8 -37 9 -48 1 -15 8 -19 26 -17 13 1 26 4 28 6 9
10 -47 86 -64 86 -3 0 -3 -12 1 -27z"/>
<path d="M3130 835 c0 -8 2 -15 4 -15 2 0 6 7 10 15 3 8 1 15 -4 15 -6 0 -10
-7 -10 -15z"/>
<path d="M880 818 c0 -10 5 -18 10 -18 6 0 10 -7 10 -15 0 -8 -6 -15 -14 -15
-8 0 -16 -10 -19 -22 -3 -22 -4 -22 -15 5 -6 15 -16 27 -21 27 -12 0 -22 -27
-15 -44 6 -16 64 -25 93 -14 18 6 19 11 11 33 -13 33 -13 48 0 40 6 -3 10 -1
10 5 0 7 -6 10 -12 7 -7 -2 -18 3 -25 12 -11 14 -12 14 -13 -1z"/>
<path d="M3227 753 c-27 -77 -25 -103 9 -103 7 0 15 -4 19 -9 3 -6 -8 -8 -28
-4 -44 7 -117 -29 -117 -58 0 -16 -6 -19 -34 -17 -32 2 -66 -15 -66 -32 0 -4
13 -7 30 -6 17 1 30 7 30 14 0 16 25 15 39 -2 10 -11 5 -16 -26 -24 -34 -9
-28 -10 53 -11 52 -1 94 3 101 10 6 6 27 11 46 13 20 1 38 4 42 7 9 10 -23 77
-42 88 -14 8 -16 12 -5 22 9 10 12 10 12 1 0 -7 5 -12 10 -12 6 0 10 7 10 15
0 8 -5 15 -12 15 -6 0 -4 7 5 18 10 10 14 22 10 25 -3 4 -2 7 3 7 5 0 15 4 23
9 12 8 8 17 -22 50 -20 23 -37 46 -37 51 0 6 -6 10 -14 10 -7 0 -24 -32 -39
-77z"/>
<path d="M983 806 c-13 -6 -23 -19 -23 -30 0 -22 40 -96 52 -96 10 0 11 127 1
133 -5 2 -18 -1 -30 -7z"/>
<path d="M3560 790 l23 -20 -21 0 c-28 0 -28 -13 1 -35 17 -13 22 -24 19 -43
-4 -23 -2 -24 26 -20 21 3 29 1 25 -8 -2 -7 -11 -10 -19 -7 -7 3 -21 -2 -29
-11 -14 -13 -14 -16 -2 -16 26 0 88 30 82 40 -3 6 1 10 9 10 9 0 16 7 16 15 0
8 -7 15 -16 15 -13 0 -14 3 -5 14 8 10 9 16 1 21 -5 3 -18 -7 -28 -24 -18 -32
-42 -42 -42 -17 0 8 7 16 15 20 8 3 15 12 15 21 0 8 5 15 11 15 5 0 7 5 4 10
-3 6 -15 10 -26 10 -10 0 -19 7 -19 15 0 10 -10 15 -32 15 l-31 0 23 -20z m47
-46 c-3 -3 -12 -4 -19 -1 -8 3 -5 6 6 6 11 1 17 -2 13 -5z"/>
<path d="M4860 800 c0 -5 5 -10 11 -10 5 0 7 5 4 10 -3 6 -8 10 -11 10 -2 0
-4 -4 -4 -10z"/>
<path d="M790 785 c0 -8 4 -15 9 -15 5 0 11 7 15 15 3 9 0 15 -9 15 -8 0 -15
-7 -15 -15z"/>
<path d="M4420 785 c-9 -11 -16 -12 -31 -2 -15 9 -21 8 -33 -8 -14 -19 -12
-20 26 -23 55 -4 74 3 58 23 -11 13 -8 14 21 10 27 -4 30 -3 14 4 -29 14 -41
13 -55 -4z"/>
<path d="M1055 780 c-3 -5 1 -10 9 -10 9 0 16 5 16 10 0 6 -4 10 -9 10 -6 0
-13 -4 -16 -10z"/>
<path d="M4110 780 c0 -5 5 -10 11 -10 5 0 7 -4 4 -10 -3 -6 4 -10 16 -10 21
0 22 1 4 20 -20 22 -35 26 -35 10z"/>
<path d="M4565 780 c3 -5 18 -10 33 -9 24 0 25 1 7 9 -28 12 -47 12 -40 0z"/>
<path d="M1330 770 c0 -5 5 -10 11 -10 5 0 7 5 4 10 -3 6 -8 10 -11 10 -2 0
-4 -4 -4 -10z"/>
<path d="M4017 774 c-8 -8 1 -24 14 -24 5 0 9 7 9 15 0 15 -12 20 -23 9z"/>
<path d="M3400 753 c0 -7 11 -13 24 -13 36 0 41 17 6 22 -20 3 -30 0 -30 -9z"/>
<path d="M378 748 c6 -6 18 -8 28 -6 14 3 12 5 -9 10 -19 3 -25 2 -19 -4z"/>
<path d="M3895 740 c-18 -19 -18 -21 -1 -33 17 -12 17 -15 -3 -50 -11 -20 -21
-39 -21 -42 0 -3 0 -8 0 -12 0 -5 -4 -2 -9 5 -7 11 -10 11 -22 0 -8 -7 -21
-13 -29 -13 -8 0 -14 -7 -12 -16 2 -12 -5 -15 -29 -11 -28 4 -30 3 -21 -14 5
-11 7 -25 4 -33 -3 -8 0 -11 7 -7 6 4 11 3 11 -3 0 -6 -12 -13 -27 -17 -48
-10 -49 -11 -20 -23 16 -6 25 -15 22 -21 -3 -5 1 -10 9 -10 9 0 16 -4 16 -9 0
-5 14 -11 31 -13 24 -4 33 -1 36 13 4 14 12 16 39 12 22 -4 42 0 59 11 27 18
58 21 118 10 26 -4 37 -3 37 6 0 8 12 10 41 5 29 -5 40 -4 35 4 -4 6 -3 11 2
11 5 0 12 9 15 19 5 21 -20 51 -44 51 -12 0 -11 2 1 10 13 9 13 12 -1 23 -8 6
-18 20 -22 31 -4 11 -13 16 -22 12 -13 -4 -13 -2 -5 14 8 15 6 22 -12 35 -20
13 -23 14 -26 1 -2 -9 -10 -12 -19 -9 -8 3 -19 0 -24 -8 -7 -11 -9 -11 -9 -1
0 9 -12 12 -40 9 -21 -2 -37 0 -34 5 3 4 12 8 19 8 9 0 12 6 9 15 -5 12 -9 13
-21 3 -11 -9 -16 -9 -23 2 -6 9 -3 18 7 25 10 7 12 14 6 18 -6 4 -18 -2 -28
-13z m135 -94 c0 -3 -4 -8 -10 -11 -5 -3 -10 -1 -10 4 0 6 5 11 10 11 6 0 10
-2 10 -4z"/>
<path d="M4468 753 c6 -2 18 -2 25 0 6 3 1 5 -13 5 -14 0 -19 -2 -12 -5z"/>
<path d="M4588 753 c7 -3 16 -2 19 1 4 3 -2 6 -13 5 -11 0 -14 -3 -6 -6z"/>
<path d="M4670 750 c19 -13 30 -13 30 0 0 6 -10 10 -22 10 -19 0 -20 -2 -8
-10z"/>
<path d="M3990 735 c0 -8 7 -15 15 -15 9 0 12 6 9 15 -4 8 -10 15 -15 15 -5 0
-9 -7 -9 -15z"/>
<path d="M4303 743 c9 -2 17 -9 17 -14 0 -5 8 -9 18 -9 15 1 15 2 -2 15 -11 8
-27 14 -35 14 -13 -1 -12 -2 2 -6z"/>
<path d="M4558 735 c19 -14 30 -15 60 -7 l37 10 -35 0 c-19 0 -46 3 -60 7
l-25 7 23 -17z"/>
<path d="M4850 740 c0 -5 9 -10 21 -10 11 0 17 5 14 10 -3 6 -13 10 -21 10 -8
0 -14 -4 -14 -10z"/>
<path d="M615 720 c-18 -20 -17 -20 10 -20 19 0 26 4 22 14 -3 8 -1 17 6 20 7
2 5 5 -4 5 -9 1 -24 -8 -34 -19z"/>
<path d="M380 708 c0 -4 7 -8 15 -8 8 0 15 4 15 8 0 5 -7 9 -15 9 -8 0 -15 -4
-15 -9z"/>
<path d="M3825 710 c3 -5 10 -10 16 -10 5 0 9 5 9 10 0 6 -7 10 -16 10 -8 0
-12 -4 -9 -10z"/>
<path d="M3725 700 c3 -5 8 -10 11 -10 2 0 4 5 4 10 0 6 -5 10 -11 10 -5 0 -7
-4 -4 -10z"/>
<path d="M4120 700 c0 -5 12 -10 26 -10 14 0 23 4 19 10 -3 6 -15 10 -26 10
-10 0 -19 -4 -19 -10z"/>
<path d="M4000 689 c0 -5 5 -7 10 -4 6 3 10 8 10 11 0 2 -4 4 -10 4 -5 0 -10
-5 -10 -11z"/>
<path d="M7 683 c-4 -3 -6 -18 -6 -32 1 -21 2 -22 6 -6 3 11 13 25 22 32 14
11 14 12 0 13 -9 0 -19 -3 -22 -7z"/>
<path d="M3417 670 c-4 -15 0 -20 15 -20 18 0 19 2 7 18 -7 9 -14 18 -15 20
-1 1 -4 -6 -7 -18z"/>
<path d="M4475 680 c-3 -5 1 -10 9 -10 9 0 16 5 16 10 0 6 -4 10 -9 10 -6 0
-13 -4 -16 -10z"/>
<path d="M1055 670 c-4 -6 7 -10 24 -10 17 0 31 5 31 10 0 6 -11 10 -24 10
-14 0 -28 -4 -31 -10z"/>
<path d="M3790 670 c0 -5 6 -10 14 -10 8 0 18 5 21 10 3 6 -3 10 -14 10 -12 0
-21 -4 -21 -10z"/>
<path d="M4870 670 c0 -5 5 -10 10 -10 6 0 10 5 10 10 0 6 -4 10 -10 10 -5 0
-10 -4 -10 -10z"/>
<path d="M450 645 c5 -14 6 -25 2 -26 -67 -7 -110 -29 -58 -29 15 0 36 -5 47
-10 16 -9 21 -7 28 13 10 27 46 30 62 6 7 -9 8 -4 3 16 -9 40 -17 48 -59 52
-33 3 -34 3 -25 -22z"/>
<path d="M680 657 c0 -13 24 -17 55 -8 30 8 29 8 -12 12 -24 3 -43 1 -43 -4z"/>
<path d="M3677 664 c-13 -13 5 -24 29 -18 19 5 24 2 24 -14 0 -22 22 -35 45
-26 19 8 20 24 1 24 -8 0 -17 7 -20 16 -3 8 -10 13 -15 9 -5 -3 -12 -1 -16 5
-7 11 -38 14 -48 4z"/>
<path d="M4198 663 c7 -3 16 -2 19 1 4 3 -2 6 -13 5 -11 0 -14 -3 -6 -6z"/>
<path d="M655 650 c-3 -5 -1 -10 4 -10 6 0 11 5 11 10 0 6 -2 10 -4 10 -3 0
-8 -4 -11 -10z"/>
<path d="M550 624 c15 -39 -19 -71 -41 -40 -4 5 -12 -2 -19 -14 -11 -21 -10
-22 9 -17 14 3 21 0 21 -10 0 -11 10 -13 43 -11 37 3 42 6 40 26 -2 12 2 22 7
22 6 0 10 -8 10 -17 0 -9 3 -13 7 -10 3 4 12 2 19 -4 11 -9 13 -4 12 25 -1 20
-6 36 -12 37 -31 2 -50 9 -57 21 -7 10 -9 10 -9 1 0 -7 -4 -13 -10 -13 -5 0
-10 7 -10 15 0 8 -4 15 -10 15 -6 0 -6 -9 0 -26z"/>
<path d="M1350 640 c0 -5 5 -10 11 -10 5 0 7 5 4 10 -3 6 -8 10 -11 10 -2 0
-4 -4 -4 -10z"/>
<path d="M4500 638 c0 -5 5 -8 12 -8 9 0 9 -3 1 -11 -14 -14 -6 -39 14 -39 8
0 12 4 9 9 -3 5 4 12 17 16 12 3 17 9 10 11 -7 3 -9 12 -6 19 4 11 -3 14 -26
12 -17 -1 -31 -5 -31 -9z"/>
<path d="M867 625 c24 -17 72 -24 79 -13 10 15 -4 22 -51 23 -38 2 -42 0 -28
-10z"/>
<path d="M1490 615 l-25 -14 28 -1 c17 0 27 5 27 15 0 18 1 18 -30 0z"/>
<path d="M1950 620 c-9 -6 -10 -10 -3 -10 6 0 15 5 18 10 8 12 4 12 -15 0z"/>
<path d="M3475 620 c3 -5 8 -10 11 -10 2 0 4 5 4 10 0 6 -5 10 -11 10 -5 0 -7
-4 -4 -10z"/>
<path d="M3514 604 c3 -9 6 -18 6 -20 0 -9 49 -3 55 6 3 6 -3 10 -14 10 -11 0
-23 5 -26 10 -10 16 -28 11 -21 -6z"/>
<path d="M3604 609 c-4 -7 -1 -10 7 -7 7 2 20 -4 29 -14 10 -12 22 -16 38 -12
32 9 27 24 -7 24 -17 0 -33 5 -36 10 -8 13 -22 13 -31 -1z"/>
<path d="M4155 609 c-9 -14 0 -22 18 -17 13 2 13 5 2 15 -10 9 -16 9 -20 2z"/>
<path d="M4890 608 c0 -14 18 -17 28 -5 8 10 6 13 -9 13 -10 0 -19 -4 -19 -8z"/>
<path d="M35 600 c-3 -5 -4 -14 0 -19 3 -5 -5 -13 -17 -17 l-23 -7 24 -9 c13
-4 32 -6 41 -3 17 5 17 8 3 35 -16 33 -19 35 -28 20z"/>
<path d="M268 603 c6 -2 18 -2 25 0 6 3 1 5 -13 5 -14 0 -19 -2 -12 -5z"/>
<path d="M3393 603 c-7 -2 -13 -11 -13 -20 0 -20 34 -12 38 10 3 17 -3 20 -25
10z"/>
<path d="M5028 603 c7 -3 16 -2 19 1 4 3 -2 6 -13 5 -11 0 -14 -3 -6 -6z"/>
<path d="M716 591 c-9 -14 17 -29 39 -21 19 7 19 7 -2 18 -26 14 -30 15 -37 3z"/>
<path d="M3445 589 c-10 -15 -4 -18 28 -12 21 4 25 8 15 14 -18 12 -36 11 -43
-2z"/>
<path d="M4242 589 c-36 -13 -26 -27 24 -31 41 -3 75 5 64 15 -16 14 -68 23
-88 16z"/>
<path d="M4350 585 c0 -9 6 -12 15 -9 8 4 15 2 15 -4 0 -5 -10 -13 -22 -17
-21 -6 -21 -8 -4 -12 25 -7 39 10 31 36 -7 24 -35 29 -35 6z"/>
<path d="M2960 579 c0 -5 6 -9 13 -10 6 0 1 -5 -12 -10 -32 -13 -15 -29 22
-22 19 4 26 10 23 20 -3 8 -6 18 -6 22 0 4 -9 7 -20 8 -11 1 -20 -2 -20 -8z"/>
<path d="M4658 583 c7 -3 16 -2 19 1 4 3 -2 6 -13 5 -11 0 -14 -3 -6 -6z"/>
<path d="M4978 583 c-21 -5 -24 -23 -4 -23 29 0 76 13 76 21 0 9 -41 10 -72 2z"/>
<path d="M4708 573 c7 -3 16 -2 19 1 4 3 -2 6 -13 5 -11 0 -14 -3 -6 -6z"/>
<path d="M1130 550 c0 -8 10 -21 21 -29 19 -11 21 -11 15 4 -10 26 27 14 39
-13 5 -12 16 -22 23 -22 8 0 12 3 10 8 -28 57 -31 60 -69 64 -30 3 -39 0 -39
-12z"/>
<path d="M2187 563 c-12 -12 -7 -21 15 -26 30 -8 43 2 21 19 -21 15 -27 17
-36 7z"/>
<path d="M2750 555 c0 -10 7 -15 18 -13 21 4 19 22 -2 26 -10 2 -16 -3 -16
-13z"/>
<path d="M2857 563 c-4 -3 -7 -11 -7 -17 0 -6 5 -5 12 2 6 6 9 14 7 17 -3 3
-9 2 -12 -2z"/>
<path d="M320 550 c0 -5 5 -10 11 -10 5 0 7 5 4 10 -3 6 -8 10 -11 10 -2 0 -4
-4 -4 -10z"/>
<path d="M1395 540 c4 -13 2 -20 -6 -20 -7 0 -10 -3 -6 -6 3 -3 15 -3 26 1 22
7 19 30 -5 39 -12 4 -14 1 -9 -14z"/>
<path d="M2900 551 c0 -7 -10 -16 -22 -21 -20 -8 -18 -9 12 -7 35 2 50 25 23
35 -7 2 -13 -1 -13 -7z"/>
<path d="M4840 550 c0 -5 5 -10 10 -10 6 0 10 5 10 10 0 6 -4 10 -10 10 -5 0
-10 -4 -10 -10z"/>
<path d="M350 535 c0 -8 5 -15 11 -15 8 0 7 -5 -2 -16 -10 -13 -10 -17 2 -25
8 -5 24 -9 37 -9 20 0 23 4 20 28 -2 15 -8 26 -15 25 -7 -2 -13 5 -13 15 0 14
-2 15 -10 2 -6 -10 -10 -11 -10 -2 0 6 -4 12 -10 12 -5 0 -10 -7 -10 -15z"/>
<path d="M2256 535 c-9 -26 -7 -32 5 -12 6 10 9 21 6 23 -2 3 -7 -2 -11 -11z"/>
<path d="M2574 535 c-17 -12 -16 -14 19 -20 47 -9 55 -3 23 18 -20 14 -26 14
-42 2z"/>
<path d="M5020 539 c0 -5 5 -7 10 -4 6 3 10 8 10 11 0 2 -4 4 -10 4 -5 0 -10
-5 -10 -11z"/>
<path d="M3484 525 c-10 -8 -26 -15 -35 -15 -9 0 -16 -7 -16 -16 0 -13 7 -14
36 -9 20 4 38 10 41 14 3 4 13 10 23 14 9 3 17 11 17 17 0 15 -43 12 -66 -5z"/>
<path d="M1921 523 c-41 -8 -68 -32 -90 -78 -13 -29 -28 -45 -43 -48 -17 -3
-14 -5 10 -6 18 0 43 -6 54 -12 21 -11 21 -12 2 -26 -19 -15 -19 -15 1 -9 12
3 39 8 60 10 52 6 98 16 104 22 3 3 -1 9 -8 13 -19 12 -3 33 20 26 30 -10 22
11 -10 25 -22 9 -34 9 -50 0 -17 -9 -22 -8 -27 5 -10 26 4 48 27 42 12 -3 32
-1 46 4 21 8 23 12 13 24 -12 15 -57 18 -109 8z"/>
<path d="M2700 520 c8 -5 20 -10 25 -10 6 0 3 5 -5 10 -8 5 -19 10 -25 10 -5
0 -3 -5 5 -10z"/>
<path d="M542 511 c2 -8 17 -19 34 -24 16 -6 32 -15 36 -20 4 -7 14 -7 30 0
l23 11 -28 11 c-16 6 -38 11 -51 11 -12 0 -28 6 -35 13 -11 10 -13 9 -9 -2z"/>
<path d="M705 501 c-8 -26 1 -39 16 -24 8 8 8 17 1 29 -9 16 -10 15 -17 -5z"/>
<path d="M2775 510 c-3 -5 1 -10 9 -10 9 0 16 5 16 10 0 6 -4 10 -9 10 -6 0
-13 -4 -16 -10z"/>
<path d="M4305 510 c-3 -5 -17 -10 -30 -10 -18 0 -23 -4 -19 -15 4 -8 1 -15
-5 -15 -6 0 -11 -4 -11 -10 0 -16 30 -12 36 5 4 9 19 15 38 15 39 0 50 8 35
27 -13 15 -35 17 -44 3z"/>
<path d="M2887 496 c-6 -14 0 -26 14 -26 3 0 9 9 12 20 6 23 -18 28 -26 6z"/>
<path d="M3602 497 c-8 -10 -2 -12 29 -9 21 2 39 8 39 13 0 14 -56 11 -68 -4z"/>
<path d="M4885 500 c-8 -13 5 -13 25 0 13 8 13 10 -2 10 -9 0 -20 -4 -23 -10z"/>
<path d="M2565 490 c3 -5 13 -10 21 -10 8 0 14 5 14 10 0 6 -9 10 -21 10 -11
0 -17 -4 -14 -10z"/>
<path d="M150 475 c-7 -9 -19 -14 -25 -11 -18 7 -63 -27 -58 -44 4 -13 3 -13
-6 -1 -7 12 -15 13 -34 4 -24 -11 -24 -13 -25 -152 -1 -147 -1 -150 42 -142 5
1 25 4 45 6 20 3 56 10 81 16 25 6 52 11 60 11 32 -1 71 10 85 25 22 21 19 36
-4 23 -25 -13 -34 -13 -26 0 3 6 2 10 -3 10 -6 0 -9 11 -8 25 0 14 3 25 6 25
12 -1 39 -28 33 -33 -3 -4 -1 -7 5 -7 7 0 12 6 12 14 0 7 11 21 25 30 14 9 25
21 25 27 0 7 -10 9 -25 5 -21 -5 -25 -3 -25 16 -1 21 -2 22 -14 5 -13 -16 -15
-16 -30 8 -14 22 -15 25 -1 25 8 0 15 5 15 10 0 6 10 11 23 11 18 1 18 2 4 6
-11 3 -16 11 -13 19 3 8 1 14 -4 14 -6 0 -10 5 -10 11 0 5 5 7 10 4 6 -4 10 5
10 19 0 21 -5 26 -24 26 -14 0 -28 -5 -32 -12 -5 -8 0 -9 15 -5 17 4 21 2 17
-10 -3 -8 -6 -16 -6 -19 0 -2 -6 -1 -14 2 -7 3 -21 -2 -30 -11 -9 -9 -16 -12
-16 -6 0 18 -18 12 -22 -6 -3 -14 -7 -10 -20 14 -14 28 -14 33 0 47 15 15 14
16 -5 16 -11 0 -26 -7 -33 -15z m-9 -48 c-10 -9 -11 -8 -5 6 3 10 9 15 12 12
3 -3 0 -11 -7 -18z m-21 -11 c0 -3 -4 -8 -10 -11 -5 -3 -10 -1 -10 4 0 6 5 11
10 11 6 0 10 -2 10 -4z m51 -19 c-13 -13 -26 -3 -16 12 3 6 11 8 17 5 6 -4 6
-10 -1 -17z m114 9 c12 -12 12 -15 -1 -20 -23 -9 -24 -8 -24 14 0 24 6 25 25
6z m-236 -20 c10 -12 8 -13 -8 -9 -12 3 -18 9 -15 14 7 12 10 11 23 -5z m65
-20 c28 -25 34 -46 13 -46 -8 0 -20 12 -28 28 -8 15 -18 30 -24 34 -6 5 -6 8
2 8 7 0 23 -11 37 -24z m70 -1 c-9 -14 -21 -25 -27 -25 -6 0 0 11 13 25 13 14
25 25 27 25 2 0 -4 -11 -13 -25z m76 -11 c0 -20 -4 -25 -22 -22 -25 4 -37 28
-14 28 9 0 16 7 16 16 0 8 5 12 10 9 6 -3 10 -17 10 -31z m0 -55 c0 -22 -35
-31 -66 -17 -26 12 -34 34 -9 25 8 -4 17 -2 20 3 10 16 55 7 55 -11z m-25 -41
c4 4 6 0 3 -8 -7 -21 -31 -19 -34 3 -2 14 1 15 10 8 7 -6 16 -7 21 -3z m-132
-6 c3 9 9 8 19 -6 15 -19 44 -14 33 5 -4 5 3 9 14 9 12 0 21 -7 21 -16 0 -8
-4 -13 -9 -10 -10 7 -24 -22 -16 -34 3 -5 1 -11 -5 -15 -5 -3 -10 -1 -10 4 0
20 -37 50 -48 39 -13 -13 -32 -2 -32 19 0 12 3 13 14 4 11 -9 15 -9 19 1z"/>
<path d="M205 470 c-19 -21 -19 -30 0 -30 8 0 15 7 15 15 0 8 6 15 14 15 8 0
17 4 20 8 9 15 -35 8 -49 -8z"/>
<path d="M4210 480 c-13 -8 -12 -10 3 -10 9 0 17 5 17 10 0 12 -1 12 -20 0z"/>
<path d="M2463 473 c9 -2 23 -2 30 0 6 3 -1 5 -18 5 -16 0 -22 -2 -12 -5z"/>
<path d="M2655 470 c3 -5 10 -10 16 -10 5 0 9 5 9 10 0 6 -7 10 -16 10 -8 0
-12 -4 -9 -10z"/>
<path d="M3061 472 c-1 -9 -13 -13 -33 -12 -61 4 -73 0 -105 -30 -18 -17 -37
-30 -42 -30 -6 0 -11 -9 -11 -19 0 -11 -4 -23 -10 -26 -5 -3 -10 -1 -10 4 0 6
-4 11 -10 11 -5 0 -10 -8 -10 -19 0 -10 -9 -30 -21 -45 -11 -14 -19 -34 -16
-44 3 -12 6 -10 12 11 8 31 41 34 39 4 -1 -9 3 -14 9 -10 5 3 68 7 139 8 77 1
133 6 140 13 7 7 19 7 34 2 18 -7 24 -6 24 4 0 12 30 23 84 29 10 1 21 -4 23
-10 3 -9 -7 -13 -31 -13 -20 0 -36 -4 -36 -10 0 -13 46 -13 86 2 27 9 31 16
30 42 -1 29 -11 46 -29 46 -5 0 -6 -4 -3 -9 3 -5 -1 -11 -9 -15 -8 -3 -17 -1
-20 4 -4 6 -1 10 6 10 7 0 10 2 7 5 -11 12 -37 -7 -31 -23 5 -12 2 -14 -11 -9
-10 4 -26 2 -37 -3 -15 -9 -19 -7 -19 5 0 8 -12 20 -27 26 -22 8 -24 12 -13
19 12 7 12 10 -3 16 -22 8 -26 5 -30 -27 -2 -13 -7 -23 -10 -21 -4 1 -12 2
-18 2 -6 0 -3 7 5 16 21 20 20 38 0 30 -14 -5 -16 -1 -11 24 5 22 3 30 -7 30
-8 0 -17 6 -19 13 -4 9 -6 9 -6 -1z m-204 -148 c-3 -3 -12 -4 -19 -1 -8 3 -5
6 6 6 11 1 17 -2 13 -5z"/>
<path d="M2060 463 c0 -5 9 -19 20 -33 l20 -25 -12 33 c-11 28 -28 44 -28 25z"/>
<path d="M2570 460 c0 -5 5 -10 11 -10 5 0 7 5 4 10 -3 6 -8 10 -11 10 -2 0
-4 -4 -4 -10z"/>
<path d="M2600 456 c0 -9 5 -16 10 -16 6 0 10 4 10 9 0 6 -4 13 -10 16 -5 3
-10 -1 -10 -9z"/>
<path d="M3215 450 c-31 -14 -40 -24 -40 -44 -1 -14 2 -26 5 -27 56 -10 90 9
48 28 -20 9 -18 11 30 28 28 10 51 20 49 20 -16 13 -59 10 -92 -5z"/>
<path d="M3394 453 c-3 -13 -12 -23 -20 -23 -7 0 -12 -9 -11 -20 1 -11 4 -20
8 -20 4 0 14 -3 22 -6 19 -7 33 48 18 73 -10 17 -11 16 -17 -4z"/>
<path d="M2477 453 c-12 -11 -8 -23 8 -23 8 0 15 7 15 15 0 16 -12 20 -23 8z"/>
<path d="M4401 454 c-1 -7 -11 -14 -23 -18 -16 -4 -20 -8 -12 -16 6 -6 19 -7
31 -3 15 6 18 13 12 28 -4 11 -8 15 -8 9z"/>
<path d="M1442 414 c-36 -44 -46 -80 -23 -90 10 -5 -10 -12 -54 -20 l-70 -12
77 1 c103 0 188 15 188 33 0 8 -6 11 -17 7 -11 -4 -14 -3 -9 6 4 6 13 11 19
10 26 -3 47 2 47 11 0 5 -8 7 -17 3 -15 -5 -15 -3 2 11 19 17 19 17 -12 12
-19 -3 -33 -1 -33 4 0 6 4 10 9 10 6 0 9 8 8 18 -1 12 -9 17 -31 16 -17 -1
-36 3 -42 8 -8 6 -22 -3 -42 -28z"/>
<path d="M2361 434 c-19 -14 -25 -14 -32 -3 -8 12 -12 11 -22 -3 -10 -12 -17
-14 -31 -6 -13 7 -25 7 -40 -1 -28 -16 -31 -51 -5 -58 23 -6 25 -26 3 -47 -18
-19 -17 -19 -47 -5 -21 9 -32 7 -70 -15 -29 -17 -48 -23 -52 -16 -10 16 -45
12 -45 -5 0 -16 15 -18 129 -15 50 1 61 -1 55 -12 -6 -11 -5 -11 8 0 9 7 39
15 68 19 50 6 52 5 41 -14 -9 -18 -7 -20 14 -20 24 0 29 7 26 35 -1 8 12 12
39 12 36 0 40 3 40 24 0 23 2 24 36 13 26 -8 40 -8 54 1 14 9 20 8 23 -1 3 -7
6 -5 6 5 1 10 -10 19 -29 23 -17 4 -28 10 -25 15 3 5 1 11 -4 15 -6 3 -8 12
-5 19 3 8 -4 16 -15 19 -12 3 -21 2 -21 -3 0 -15 -50 3 -55 21 -8 23 -14 24
-44 3z m40 -44 c5 0 9 -8 9 -17 0 -11 -3 -14 -8 -7 -4 6 -16 16 -27 23 -17 10
-17 12 -2 7 10 -3 23 -6 28 -6z"/>
<path d="M726 414 c-4 -10 -13 -13 -28 -9 -18 5 -20 4 -8 -4 14 -10 7 -16 -15
-11 -5 1 -2 -7 8 -18 27 -30 21 -49 -20 -60 -32 -9 -23 -10 62 -10 55 0 112
-3 127 -7 36 -9 55 3 31 21 -17 12 -16 13 7 14 20 0 26 6 28 25 2 33 -13 40
-37 16 -20 -20 -20 -20 -23 6 -3 29 -28 45 -28 19 0 -16 -12 -21 -23 -9 -4 3
-2 12 3 18 8 9 4 14 -15 17 -14 3 -25 1 -25 -4 0 -5 -9 -4 -19 1 -15 8 -20 7
-25 -5z"/>
<path d="M1636 408 c-9 -33 -8 -38 8 -38 9 0 13 9 11 25 -3 35 -11 40 -19 13z"/>
<path d="M3615 420 c-3 -5 -2 -10 4 -10 5 0 13 5 16 10 3 6 2 10 -4 10 -5 0
-13 -4 -16 -10z"/>
<path d="M4720 420 c0 -5 9 -10 19 -10 11 0 23 5 26 10 4 6 -5 10 -19 10 -14
0 -26 -4 -26 -10z"/>
<path d="M5025 420 c-3 -5 1 -10 9 -10 9 0 16 5 16 10 0 6 -4 10 -9 10 -6 0
-13 -4 -16 -10z"/>
<path d="M586 393 c-28 -15 -41 -42 -23 -48 6 -2 23 -2 37 -1 14 2 36 4 50 6
14 1 19 4 13 7 -8 3 -11 14 -8 26 5 18 2 22 -20 22 -14 0 -37 -5 -49 -12z"/>
<path d="M3726 401 c-4 -7 -5 -15 -2 -18 9 -9 19 4 14 18 -4 11 -6 11 -12 0z"/>
<path d="M3928 403 c7 -3 16 -2 19 1 4 3 -2 6 -13 5 -11 0 -14 -3 -6 -6z"/>
<path d="M374 385 c-8 -21 1 -29 19 -18 13 7 13 10 1 21 -12 11 -15 10 -20 -3z"/>
<path d="M4258 370 c3 -22 0 -30 -11 -30 -8 0 -17 -7 -21 -15 -3 -8 -12 -15
-20 -15 -10 0 -13 -7 -11 -20 2 -11 0 -18 -6 -15 -5 4 -9 1 -9 -5 0 -6 -5 -8
-10 -5 -6 4 -8 16 -4 27 5 16 3 18 -7 12 -20 -12 -38 -14 -45 -3 -8 14 -24 11
-24 -6 0 -8 4 -15 9 -15 12 0 19 -32 12 -53 -6 -16 -9 -16 -28 7 -12 13 -19
27 -16 30 4 3 -1 6 -10 6 -9 0 -17 -8 -17 -17 0 -15 -2 -16 -10 -3 -9 13 -14
7 -11 -12 0 -5 -4 -8 -10 -8 -6 0 -8 9 -4 20 6 19 4 19 -19 9 -27 -13 -37 -33
-12 -23 15 6 48 -34 40 -48 -3 -4 2 -11 10 -14 21 -8 21 -24 0 -24 -8 0 -13 4
-9 9 5 9 -32 27 -40 19 -5 -5 27 -70 42 -86 16 -16 8 -33 -12 -26 -7 3 -23 -4
-34 -15 -17 -17 -34 -21 -93 -21 -40 -1 -86 -7 -103 -15 -26 -12 8 -13 275
-14 248 -1 310 2 333 14 18 9 25 10 20 2 -9 -16 29 14 40 31 4 6 17 12 29 12
17 0 18 2 8 15 -10 12 -10 15 3 15 10 0 14 6 11 14 -3 8 4 23 15 33 28 23 27
35 -2 24 -22 -8 -23 -7 -19 15 2 13 8 24 13 24 5 0 9 4 9 9 0 14 -43 21 -57 9
-10 -8 -12 -7 -8 5 4 8 -2 24 -11 36 -17 19 -19 19 -36 4 -18 -16 -18 -16 -12
3 6 15 4 17 -6 7 -10 -10 -20 -4 -48 27 -19 22 -41 40 -48 40 -9 0 -12 10 -10
30 2 19 -1 30 -9 30 -7 0 -10 -11 -7 -30z"/>
<path d="M4970 390 c0 -5 12 -10 26 -10 14 0 23 4 19 10 -3 6 -15 10 -26 10
-10 0 -19 -4 -19 -10z"/>
<path d="M523 370 c-1 -11 2 -20 7 -20 10 0 20 26 13 34 -12 11 -19 6 -20 -14z"/>
<path d="M4218 383 c7 -3 16 -2 19 1 4 3 -2 6 -13 5 -11 0 -14 -3 -6 -6z"/>
<path d="M4315 380 c-3 -5 -2 -10 4 -10 5 0 13 5 16 10 3 6 2 10 -4 10 -5 0
-13 -4 -16 -10z"/>
<path d="M3567 366 c-3 -8 -1 -17 6 -19 15 -5 57 13 57 25 0 14 -58 9 -63 -6z"/>
<path d="M4165 360 c-3 -5 1 -10 9 -10 9 0 16 5 16 10 0 6 -4 10 -9 10 -6 0
-13 -4 -16 -10z"/>
<path d="M5018 358 c9 -9 15 -9 24 0 9 9 7 12 -12 12 -19 0 -21 -3 -12 -12z"/>
<path d="M415 350 c-3 -6 1 -7 9 -4 18 7 21 14 7 14 -6 0 -13 -4 -16 -10z"/>
<path d="M3515 350 c-3 -5 -1 -10 4 -10 6 0 11 5 11 10 0 6 -2 10 -4 10 -3 0
-8 -4 -11 -10z"/>
<path d="M1764 325 c-15 -14 -35 -25 -45 -25 -18 0 -26 -23 -19 -55 1 -5 -4
-4 -12 3 -7 7 -13 18 -14 25 0 7 -2 21 -3 32 -1 12 -4 16 -9 9 -9 -14 -62 -24
-59 -11 1 5 -3 11 -10 14 -7 3 -9 -3 -6 -16 3 -12 1 -21 -6 -21 -6 0 -11 5
-11 11 0 6 -7 3 -15 -5 -9 -9 -24 -20 -33 -25 -11 -6 -16 -20 -14 -41 2 -25
-1 -31 -13 -26 -9 3 -15 0 -15 -10 0 -11 6 -14 23 -8 21 6 21 6 5 -12 -19 -22
-21 -34 -7 -51 7 -7 6 -13 0 -18 -21 -12 -197 -55 -231 -55 -19 0 -42 -5 -50
-10 -11 -7 2 -10 45 -11 50 -1 55 -3 30 -10 -36 -9 175 -5 219 5 16 4 34 2 42
-5 12 -9 13 -9 9 3 -7 17 30 39 72 42 16 2 34 5 39 9 26 16 44 -37 19 -55 -5
-4 2 -8 18 -8 15 0 27 5 27 11 0 6 9 9 20 6 11 -3 20 0 20 6 0 7 4 6 9 -2 14
-22 137 -26 168 -6 21 14 24 14 29 0 7 -18 54 -21 54 -3 0 9 3 9 12 0 14 -14
68 -16 68 -2 0 6 -5 10 -12 10 -6 0 -8 3 -5 6 4 4 13 1 21 -6 9 -6 21 -10 28
-7 8 3 5 6 -6 6 -14 1 -16 4 -7 14 6 8 8 17 4 21 -4 4 0 4 10 0 11 -4 17 -1
17 9 0 8 6 17 13 20 6 2 0 4 -15 4 -16 0 -28 -3 -28 -8 0 -5 -7 -6 -15 -3 -9
4 -14 14 -13 23 2 12 -5 16 -29 17 -18 1 -30 -2 -28 -6 2 -4 -7 -13 -20 -20
-20 -11 -28 -10 -50 4 -31 20 -45 14 -21 -9 21 -22 20 -28 -3 -15 -18 9 -19 8
-11 -20 5 -18 5 -30 -1 -30 -5 0 -9 7 -9 15 0 21 -30 31 -41 14 -6 -10 -9 -10
-9 -1 0 6 -5 12 -11 12 -6 0 -9 -7 -6 -15 7 -18 -9 -30 -19 -14 -5 9 -11 7
-21 -6 -12 -18 -13 -18 -13 3 0 12 -9 39 -20 59 -13 25 -16 41 -10 47 15 15
12 36 -5 36 -8 0 -15 9 -15 19 0 10 -7 21 -15 24 -19 8 -11 46 14 63 12 9 17
21 14 34 -4 14 0 20 11 20 9 0 16 5 16 10 0 17 -18 11 -46 -15z m-133 -58 c-1
-4 -4 -7 -8 -6 -3 0 -10 -6 -15 -15 -5 -9 -14 -16 -21 -16 -8 0 -9 3 -1 8 6 4
14 15 17 25 7 17 29 21 28 4z m123 -109 c8 -5 7 -8 -1 -8 -7 0 -13 -4 -13 -10
0 -5 6 -10 14 -10 8 0 16 -7 20 -15 4 -11 -2 -15 -22 -15 -21 0 -24 2 -12 10
13 8 13 10 -2 10 -9 0 -20 -4 -23 -10 -3 -5 -10 -10 -15 -10 -6 0 0 21 12 46
13 25 24 39 27 32 2 -7 9 -16 15 -20z m334 -81 c8 -10 6 -13 -9 -14 -19 -2
-25 8 -12 20 8 9 9 9 21 -6z m-335 -3 c3 -4 2 -16 -4 -26 -13 -24 -35 -9 -26
16 7 17 19 21 30 10z m294 -30 c-3 -3 -12 -4 -19 -1 -8 3 -5 6 6 6 11 1 17 -2
13 -5z m-127 -24 c0 -5 -7 -10 -16 -10 -8 0 -12 5 -9 10 3 6 10 10 16 10 5 0
9 -4 9 -10z"/>
<path d="M2225 340 c-3 -5 -1 -10 4 -10 6 0 11 5 11 10 0 6 -2 10 -4 10 -3 0
-8 -4 -11 -10z"/>
<path d="M2755 330 c-7 -21 0 -40 16 -40 12 0 12 47 0 55 -5 3 -12 -4 -16 -15z"/>
<path d="M3670 346 c0 -2 7 -7 16 -10 8 -3 12 -2 9 4 -6 10 -25 14 -25 6z"/>
<path d="M4905 340 c-3 -5 3 -10 15 -10 12 0 18 5 15 10 -3 6 -10 10 -15 10
-5 0 -12 -4 -15 -10z"/>
<path d="M3545 330 c-4 -6 -12 -7 -18 -4 -7 4 -1 -3 12 -16 23 -22 24 -23 37
-5 7 10 11 22 8 26 -7 12 -31 11 -39 -1z"/>
<path d="M4848 333 c7 -3 16 -2 19 1 4 3 -2 6 -13 5 -11 0 -14 -3 -6 -6z"/>
<path d="M1820 321 c0 -5 5 -11 12 -13 9 -3 9 -6 0 -12 -7 -4 -12 -2 -12 3 0
6 -5 11 -11 11 -6 0 -9 -6 -6 -14 3 -7 1 -18 -5 -24 -8 -8 -6 -13 8 -18 10 -4
22 -12 26 -18 5 -7 8 -7 8 2 0 14 36 17 44 3 3 -5 -3 -11 -13 -14 -14 -3 -17
-11 -14 -31 4 -21 2 -25 -11 -20 -11 4 -16 1 -16 -10 0 -9 -4 -16 -10 -16 -5
0 -10 -3 -10 -7 0 -7 28 -8 103 -4 30 2 22 64 -12 97 -17 15 -28 31 -25 36 3
4 -1 5 -9 2 -10 -3 -16 5 -20 25 -6 28 -27 45 -27 22z"/>
<path d="M4026 321 c-3 -5 1 -14 9 -21 13 -10 15 -9 15 9 0 21 -14 28 -24 12z"/>
<path d="M4680 322 c0 -13 38 -23 46 -11 3 5 1 9 -5 9 -5 0 -16 3 -25 6 -9 3
-16 2 -16 -4z"/>
<path d="M3372 313 c-6 -3 -10 -8 -7 -13 5 -9 55 -1 55 9 0 8 -30 10 -48 4z"/>
<path d="M4880 310 c0 -12 8 -12 35 0 18 8 17 9 -7 9 -16 1 -28 -3 -28 -9z"/>
<path d="M3710 280 c0 -6 7 -10 15 -10 8 0 15 2 15 4 0 2 -7 6 -15 10 -8 3
-15 1 -15 -4z"/>
<path d="M4970 277 c0 -17 21 -27 56 -27 31 0 31 16 0 24 -13 3 -31 9 -40 12
-10 4 -16 1 -16 -9z"/>
<path d="M3660 260 c-8 -15 -17 -19 -33 -15 -17 5 -19 4 -7 -4 18 -13 67 -13
95 -1 16 7 17 9 3 9 -9 1 -23 8 -32 16 -13 14 -16 13 -26 -5z"/>
<path d="M4849 263 c-12 -14 -12 -16 1 -11 8 3 23 1 34 -4 14 -8 17 -7 11 4
-3 7 0 4 9 -7 31 -41 37 -45 64 -45 15 0 40 -7 55 -15 l28 -14 -3 33 c-2 30
-4 32 -40 33 -22 0 -38 -4 -38 -11 0 -6 -7 -2 -15 8 -8 11 -17 17 -21 14 -3
-4 -14 2 -25 13 -23 23 -42 24 -60 2z"/>
<path d="M2894 251 c9 -13 -16 -20 -117 -31 -51 -6 -110 -16 -132 -22 -33 -9
-37 -12 -20 -18 11 -4 37 -5 58 -2 24 3 37 1 37 -7 0 -6 -5 -11 -12 -11 -6 0
-9 -2 -6 -5 3 -3 16 -1 29 4 13 5 18 10 10 10 -26 2 -3 13 36 18 21 2 53 9 70
14 18 6 48 10 65 8 18 -1 44 3 58 9 16 7 19 11 9 11 -9 1 -22 8 -29 16 -13 16
-65 21 -56 6z"/>
<path d="M3028 253 c7 -3 16 -2 19 1 4 3 -2 6 -13 5 -11 0 -14 -3 -6 -6z"/>
<path d="M3078 253 c7 -3 16 -2 19 1 4 3 -2 6 -13 5 -11 0 -14 -3 -6 -6z"/>
<path d="M3245 250 c-3 -5 1 -10 10 -10 9 0 13 5 10 10 -3 6 -8 10 -10 10 -2
0 -7 -4 -10 -10z"/>
<path d="M2601 233 c-9 -10 -8 -13 6 -12 10 1 29 4 43 8 25 7 25 8 -6 12 -18
3 -35 0 -43 -8z"/>
<path d="M2778 238 c5 -5 16 -8 23 -6 8 3 3 7 -10 11 -17 4 -21 3 -13 -5z"/>
<path d="M3313 239 c7 -5 27 -4 43 1 27 8 25 8 -14 7 -27 0 -38 -3 -29 -8z"/>
<path d="M3114 223 c-16 -17 -16 -18 -1 -21 9 -2 23 -2 31 0 12 2 13 6 1 21
-12 17 -13 17 -31 0z"/>
<path d="M4856 225 c-6 -17 11 -31 48 -41 38 -9 31 14 -11 37 -26 14 -32 15
-37 4z"/>
<path d="M1952 218 c-17 -17 -15 -41 3 -34 10 4 15 -1 15 -15 0 -11 4 -18 9
-15 12 8 2 46 -11 46 -6 0 -8 7 -4 15 7 18 4 19 -12 3z"/>
<path d="M2350 223 c-42 -13 -42 -17 0 -23 53 -9 68 -3 43 16 -20 15 -21 15
-43 7z"/>
<path d="M3386 221 c-4 -7 -5 -15 -2 -18 9 -9 19 4 14 18 -4 11 -6 11 -12 0z"/>
<path d="M3025 210 c-3 -5 1 -10 9 -10 9 0 16 5 16 10 0 6 -4 10 -9 10 -6 0
-13 -4 -16 -10z"/>
<path d="M3945 210 c-3 -5 1 -10 10 -10 9 0 13 5 10 10 -3 6 -8 10 -10 10 -2
0 -7 -4 -10 -10z"/>
<path d="M2542 185 c-11 -13 -8 -15 18 -15 20 0 30 5 30 15 0 19 -31 19 -48 0z"/>
<path d="M4545 190 c-3 -5 1 -10 10 -10 9 0 13 5 10 10 -3 6 -8 10 -10 10 -2
0 -7 -4 -10 -10z"/>
<path d="M2035 179 c-3 -3 1 -11 8 -16 28 -22 34 -22 30 1 -4 21 -29 31 -38
15z"/>
<path d="M2825 162 c-5 -24 -12 -32 -28 -33 -20 -1 -20 -2 3 -8 14 -5 29 -5
34 0 5 4 15 5 22 2 8 -3 14 0 14 7 0 6 -5 8 -12 4 -7 -5 -9 -2 -5 8 3 9 0 24
-7 34 -12 16 -14 15 -21 -14z"/>
<path d="M2900 180 c0 -5 7 -10 15 -10 8 0 15 5 15 10 0 6 -7 10 -15 10 -8 0
-15 -4 -15 -10z"/>
<path d="M3416 181 c-3 -5 4 -11 16 -14 25 -7 33 -3 23 12 -8 13 -32 14 -39 2z"/>
<path d="M3593 179 c-33 -12 -29 -31 5 -23 34 8 32 7 24 21 -4 6 -15 7 -29 2z"/>
<path d="M4740 181 c0 -13 27 -21 45 -15 25 10 17 24 -15 24 -16 0 -30 -4 -30
-9z"/>
<path d="M2345 170 c-4 -6 -10 -8 -15 -5 -10 6 -32 -29 -24 -37 2 -3 -3 -11
-12 -19 -13 -11 -18 -11 -21 -1 -3 6 -12 12 -21 12 -15 0 -15 -2 -2 -11 12 -8
10 -9 -7 -4 -12 3 -24 1 -28 -5 -4 -7 2 -14 14 -17 21 -5 30 -33 11 -33 -5 0
-10 5 -10 11 0 6 -9 8 -22 3 -28 -8 -24 -3 -32 -36 -6 -25 -3 -28 17 -28 16 0
23 6 23 17 -1 27 18 31 29 6 14 -34 70 -32 79 1 3 14 15 28 26 31 11 3 20 13
20 21 0 13 -2 13 -16 0 -20 -21 -29 -15 -32 24 -2 19 1 29 8 25 5 -3 10 -2 10
4 0 6 8 8 18 5 13 -5 14 -4 3 4 -8 6 -11 17 -8 26 7 18 2 22 -8 6z m-49 -94
c-3 -19 -17 -36 -26 -31 -12 8 -1 42 15 42 7 0 12 -5 11 -11z"/>
<path d="M3375 170 c-3 -5 -1 -10 4 -10 6 0 11 5 11 10 0 6 -2 10 -4 10 -3 0
-8 -4 -11 -10z"/>
<path d="M4963 167 c4 -11 -8 -13 -54 -12 -43 1 -59 -2 -59 -12 0 -7 11 -13
25 -13 31 0 31 -6 3 -31 -26 -20 -43 -25 -32 -8 4 8 0 9 -15 4 -22 -7 -53 6
-52 21 2 17 -24 9 -27 -8 -2 -11 3 -18 12 -18 9 0 16 -4 16 -9 0 -12 24 -20
77 -25 32 -3 46 1 59 15 17 19 17 20 0 13 -14 -5 -17 -3 -14 12 3 16 12 19 53
19 50 0 50 0 50 33 0 27 -4 32 -24 32 -15 0 -21 -5 -18 -13z"/>
<path d="M2176 155 c-3 -8 -1 -15 3 -15 5 0 16 -3 25 -6 9 -3 16 -1 16 5 0 6
-3 10 -7 10 -20 -3 -26 2 -13 11 13 8 13 10 -1 10 -9 0 -19 -7 -23 -15z"/>
<path d="M2660 160 c-13 -8 -12 -10 3 -10 10 0 20 -7 23 -15 4 -8 14 -15 23
-15 14 1 14 2 -1 11 -10 5 -18 17 -18 24 0 17 -9 19 -30 5z"/>
<path d="M2950 155 c0 -8 5 -15 10 -15 6 0 10 7 10 15 0 8 -4 15 -10 15 -5 0
-10 -7 -10 -15z"/>
<path d="M2985 160 c3 -5 8 -10 11 -10 2 0 4 5 4 10 0 6 -5 10 -11 10 -5 0 -7
-4 -4 -10z"/>
<path d="M2465 150 c-3 -5 -1 -10 4 -10 6 0 11 5 11 10 0 6 -2 10 -4 10 -3 0
-8 -4 -11 -10z"/>
<path d="M2493 133 l-23 -23 28 6 c36 9 46 19 30 31 -9 6 -20 2 -35 -14z"/>
<path d="M2245 140 c-3 -5 -1 -10 4 -10 6 0 11 5 11 10 0 6 -2 10 -4 10 -3 0
-8 -4 -11 -10z"/>
<path d="M3380 135 c-9 -11 -6 -14 19 -13 36 1 38 4 12 17 -14 8 -22 7 -31 -4z"/>
<path d="M3498 133 c7 -3 16 -2 19 1 4 3 -2 6 -13 5 -11 0 -14 -3 -6 -6z"/>
<path d="M3250 119 c0 -5 5 -7 10 -4 6 3 10 8 10 11 0 2 -4 4 -10 4 -5 0 -10
-5 -10 -11z"/>
<path d="M2155 110 c3 -5 8 -10 11 -10 2 0 4 5 4 10 0 6 -5 10 -11 10 -5 0 -7
-4 -4 -10z"/>
<path d="M3058 106 c-24 -17 -23 -26 3 -26 12 0 18 4 13 11 -3 6 0 15 7 20 8
5 10 9 4 9 -5 -1 -18 -7 -27 -14z"/>
<path d="M4570 110 c-12 -8 -10 -10 8 -10 13 0 20 4 17 10 -7 12 -6 12 -25 0z"/>
<path d="M210 100 c0 -5 5 -10 11 -10 5 0 7 5 4 10 -3 6 -8 10 -11 10 -2 0 -4
-4 -4 -10z"/>
<path d="M1805 101 c-3 -5 -1 -12 5 -16 5 -3 10 1 10 9 0 18 -6 21 -15 7z"/>
<path d="M2015 100 c4 -6 11 -8 16 -5 14 9 11 15 -7 15 -8 0 -12 -5 -9 -10z"/>
<path d="M3710 100 c0 -5 5 -10 10 -10 6 0 10 5 10 10 0 6 -4 10 -10 10 -5 0
-10 -4 -10 -10z"/>
<path d="M3960 101 c0 -5 7 -12 16 -15 24 -9 27 -7 10 9 -17 17 -26 19 -26 6z"/>
<path d="M1840 90 c0 -5 7 -10 15 -10 8 0 15 5 15 10 0 6 -7 10 -15 10 -8 0
-15 -4 -15 -10z"/>
<path d="M2788 93 c7 -3 16 -2 19 1 4 3 -2 6 -13 5 -11 0 -14 -3 -6 -6z"/>
<path d="M3295 80 c20 -23 29 -21 19 4 -3 9 -13 16 -22 16 -13 0 -12 -3 3 -20z"/>
<path d="M3660 90 c-12 -8 -12 -10 2 -15 20 -8 41 2 33 16 -8 11 -16 11 -35
-1z"/>
<path d="M3805 90 c-4 -7 0 -19 9 -28 15 -16 16 -15 13 5 -4 29 -13 38 -22 23z"/>
<path d="M145 80 c-3 -5 3 -10 14 -10 11 0 23 5 26 10 3 6 -3 10 -14 10 -11 0
-23 -4 -26 -10z"/>
<path d="M2944 75 c8 -8 18 -15 22 -15 3 0 1 7 -6 15 -7 8 -17 15 -22 15 -5 0
-3 -7 6 -15z"/>
<path d="M2387 74 c-3 -3 -3 -12 0 -19 6 -17 33 -8 33 11 0 14 -21 19 -33 8z"/>
<path d="M3541 64 c0 -11 3 -14 6 -6 3 7 2 16 -1 19 -3 4 -6 -2 -5 -13z"/>
<path d="M4520 69 c0 -4 7 -10 16 -13 22 -8 26 -8 20 3 -4 5 0 11 6 14 7 2 1
4 -14 3 -16 0 -28 -4 -28 -7z"/>
<path d="M2460 60 c0 -5 5 -10 11 -10 5 0 7 5 4 10 -3 6 -8 10 -11 10 -2 0 -4
-4 -4 -10z"/>
<path d="M505 50 c3 -5 8 -10 11 -10 2 0 4 5 4 10 0 6 -5 10 -11 10 -5 0 -7
-4 -4 -10z"/>
<path d="M3240 56 c0 -2 7 -6 15 -10 8 -3 15 -1 15 4 0 6 -7 10 -15 10 -8 0
-15 -2 -15 -4z"/>
<path d="M75 40 c4 -6 11 -8 16 -5 14 9 11 15 -7 15 -8 0 -12 -5 -9 -10z"/>
<path d="M4953 43 c9 -2 25 -2 35 0 9 3 1 5 -18 5 -19 0 -27 -2 -17 -5z"/>
<path d="M545 19 c-4 -6 -5 -12 -2 -15 2 -3 7 2 10 11 7 17 1 20 -8 4z"/>
<path d="M2341 13 c-14 -11 -12 -12 15 -13 18 0 34 6 37 13 6 17 -30 17 -52 0z"/>
<path d="M3058 23 c7 -3 16 -2 19 1 4 3 -2 6 -13 5 -11 0 -14 -3 -6 -6z"/>
<path d="M3105 20 c-3 -6 1 -7 9 -4 18 7 21 14 7 14 -6 0 -13 -4 -16 -10z"/>
<path d="M3565 20 c3 -5 8 -10 11 -10 2 0 4 5 4 10 0 6 -5 10 -11 10 -5 0 -7
-4 -4 -10z"/>
<path d="M3596 22 c-2 -4 4 -9 15 -9 10 -1 19 2 19 8 0 11 -27 12 -34 1z"/>
<path d="M4675 10 c-4 -6 11 -10 36 -10 48 0 49 4 2 13 -18 4 -35 2 -38 -3z"/>
<path d="M4950 10 c0 -5 12 -10 26 -10 14 0 23 4 19 10 -3 6 -15 10 -26 10
-10 0 -19 -4 -19 -10z"/>
<path d="M2443 3 c9 -2 23 -2 30 0 6 3 -1 5 -18 5 -16 0 -22 -2 -12 -5z"/>
</g>
</svg>
