<?xml version="1.0" standalone="no"?>
<!DOCTYPE svg PUBLIC "-//W3C//DTD SVG 20010904//EN"
 "http://www.w3.org/TR/2001/REC-SVG-20010904/DTD/svg10.dtd">
<svg version="1.0" xmlns="http://www.w3.org/2000/svg"
 width="508.000000pt" height="289.000000pt" viewBox="0 0 508.000000 289.000000"
 preserveAspectRatio="xMidYMid meet">

<g transform="translate(0.000000,289.000000) scale(0.100000,-0.100000)"
fill="#000000" stroke="none">
<path d="M0 2721 c0 -185 -1 -181 61 -181 17 0 32 6 35 15 7 17 49 20 59 5 3
-5 19 -10 36 -10 16 0 29 5 29 10 0 6 13 10 29 10 16 0 32 6 34 13 4 10 6 10
6 0 1 -15 61 -18 61 -3 0 6 15 11 33 11 l32 2 -35 7 -35 7 33 2 c17 0 32 6 32
11 0 6 14 10 30 10 21 0 39 10 61 33 20 21 32 28 36 20 5 -15 63 -18 63 -4 0
5 -5 11 -12 13 -6 2 -8 10 -4 17 6 9 11 9 22 0 11 -9 14 -8 14 5 0 9 -4 16 -8
16 -4 0 -8 10 -9 21 -2 21 0 22 92 16 78 -5 96 -4 103 9 6 12 20 13 65 8 31
-4 57 -11 57 -15 0 -5 5 -9 11 -9 8 0 7 5 -1 15 -15 18 -14 19 24 32 40 13 45
33 9 33 -17 0 -33 3 -36 7 -9 9 13 34 24 27 5 -3 9 0 9 5 0 6 -18 11 -41 11
-36 0 -40 -2 -34 -20 5 -16 2 -20 -14 -20 -14 0 -21 6 -21 20 0 20 -7 20 -425
20 l-425 0 0 -169z"/>
<path d="M3052 2881 c-10 -6 -10 -10 3 -21 8 -7 15 -20 15 -29 0 -14 15 -16
107 -17 60 0 119 -2 133 -4 23 -3 95 8 197 30 23 5 57 19 75 30 l33 20 -275 0
c-151 0 -281 -4 -288 -9z"/>
<path d="M2280 2825 c0 -14 4 -25 9 -25 5 0 8 11 7 25 -1 33 -16 33 -16 0z"/>
<path d="M2279 2785 c-1 -5 -2 -26 -3 -47 -1 -27 2 -34 11 -26 6 5 9 16 6 24
-3 8 1 14 8 14 10 0 10 3 3 8 -6 4 -14 14 -17 22 -3 8 -6 11 -8 5z"/>
<path d="M1025 2670 c3 -5 8 -10 11 -10 2 0 4 5 4 10 0 6 -5 10 -11 10 -5 0
-7 -4 -4 -10z"/>
<path d="M1065 2650 c3 -5 8 -10 11 -10 2 0 4 5 4 10 0 6 -5 10 -11 10 -5 0
-7 -4 -4 -10z"/>
<path d="M3498 2608 c-16 -5 -28 -14 -28 -20 0 -6 8 -7 18 -3 9 3 30 9 45 12
21 4 25 8 15 14 -15 10 -15 10 -50 -3z"/>
<path d="M960 2583 c1 -22 40 -44 40 -23 0 6 10 15 23 20 18 7 15 9 -20 9 -24
1 -43 -2 -43 -6z"/>
<path d="M3516 2581 c-4 -7 -5 -15 -2 -18 9 -9 19 4 14 18 -4 11 -6 11 -12 0z"/>
<path d="M3547 2576 c-4 -10 -1 -13 8 -9 8 3 12 9 9 14 -7 12 -11 11 -17 -5z"/>
<path d="M1020 2546 c0 -8 5 -18 10 -21 6 -3 10 3 10 14 0 12 -4 21 -10 21 -5
0 -10 -6 -10 -14z"/>
<path d="M1055 2540 c3 -5 8 -10 11 -10 2 0 4 5 4 10 0 6 -5 10 -11 10 -5 0
-7 -4 -4 -10z"/>
<path d="M3495 2495 l-30 -15 35 6 c19 3 39 10 45 15 14 14 -16 10 -50 -6z"/>
<path d="M983 2473 c-18 -7 -16 -20 4 -27 10 -4 14 -4 10 0 -4 4 -2 13 4 21
12 13 5 16 -18 6z"/>
<path d="M4640 2422 c-44 -21 -46 -31 -59 -311 -6 -117 -13 -216 -15 -219 -3
-3 -17 0 -30 6 -19 8 -26 8 -29 -1 -9 -25 4 -36 30 -26 13 5 26 9 27 9 3 0 2
-47 -5 -250 l-1 -35 -9 40 c-4 22 -8 66 -8 98 -1 39 -5 57 -13 57 -10 0 -12
-23 -10 -90 3 -76 2 -90 -11 -90 -14 0 -14 -3 -1 -27 12 -25 12 -29 -2 -40
-10 -7 -11 -13 -5 -18 6 -3 11 -15 11 -26 0 -11 7 -19 16 -19 8 0 12 -5 9 -10
-4 -6 -11 -8 -16 -5 -5 4 -9 1 -9 -5 0 -6 -5 -8 -11 -4 -7 4 -25 7 -40 6 -18
0 -29 4 -29 13 0 18 -25 26 -39 12 -8 -8 -11 -8 -11 1 0 6 -7 9 -17 5 -9 -4
-14 -2 -11 3 3 5 2 32 -2 59 -7 49 -7 48 -9 -25 l-1 -75 -20 25 c-19 24 -20
24 -20 4 0 -19 -7 -21 -93 -27 -52 -3 -110 -4 -129 -1 l-35 6 -2 72 c-1 39 -6
96 -11 126 -5 30 -12 96 -15 145 -7 135 -16 238 -21 247 -6 10 -65 10 -81 0
-8 -5 -14 -87 -18 -277 -4 -158 -11 -274 -17 -280 -7 -7 -8 0 -4 20 6 26 -16
95 -29 95 -2 0 -13 -15 -24 -34 -17 -27 -20 -43 -15 -82 7 -56 -7 -52 -25 6
l-10 35 5 -42 c6 -43 6 -43 -26 -43 -17 0 -38 7 -46 15 -9 8 -22 15 -30 15 -8
0 -14 -7 -14 -15 0 -9 -9 -15 -25 -15 -23 0 -25 4 -25 43 0 58 -17 114 -37
121 -18 7 -53 -20 -53 -42 0 -9 -6 -12 -15 -8 -26 9 -31 -24 -7 -43 13 -10 18
-21 14 -28 -6 -9 -12 -7 -25 7 -9 11 -17 24 -17 28 0 8 -37 42 -45 42 -3 0 -5
-7 -5 -15 0 -8 -4 -15 -9 -15 -17 0 -21 -32 -6 -53 21 -30 19 -34 -20 -39 -20
-2 -35 0 -35 7 -1 21 -20 201 -26 238 -4 27 -11 37 -24 37 -26 0 -29 -17 -31
-162 -2 -70 -6 -125 -10 -122 -5 2 -6 11 -2 19 3 8 0 15 -6 15 -6 0 -11 -6
-11 -14 0 -13 -28 -31 -36 -23 -2 1 -8 63 -14 137 -6 74 -15 139 -19 143 -17
17 -46 2 -48 -23 -1 -14 -5 -73 -8 -132 -6 -96 -9 -106 -25 -105 -23 1 -30 28
-36 127 -6 103 -11 122 -32 118 -14 -3 -18 -20 -23 -118 -3 -70 -6 -91 -7 -55
-4 106 -12 135 -37 135 -28 0 -35 -29 -35 -141 0 -61 -3 -79 -14 -79 -14 0
-18 15 -32 128 -5 42 -9 52 -25 52 -10 0 -19 -5 -19 -11 0 -6 -7 -8 -15 -5 -9
3 -18 -1 -21 -9 -4 -8 -15 -15 -25 -15 -10 0 -19 -4 -19 -10 0 -5 -7 -10 -15
-10 -8 0 -15 -7 -15 -16 0 -8 -4 -13 -9 -10 -12 8 -21 -18 -22 -67 -2 -32 -3
-35 -6 -12 -6 53 -13 75 -23 75 -6 0 -11 -12 -11 -27 -2 -25 -2 -25 -6 -5 -4
18 -9 22 -26 16 -12 -3 -29 -13 -38 -20 -8 -8 -23 -14 -32 -14 -10 0 -17 -10
-19 -27 -3 -28 -4 -28 -68 -25 -36 1 -71 -2 -79 -7 -16 -10 -64 7 -55 20 3 5
0 18 -6 29 -6 12 -7 20 -1 20 5 0 9 23 7 50 l-2 50 38 0 c21 0 38 5 38 11 0 5
-8 9 -17 8 -36 -3 -43 2 -43 30 0 17 -5 33 -11 37 -8 4 -9 -1 -4 -16 5 -16 4
-21 -6 -18 -8 3 -19 -4 -26 -16 -12 -21 -12 -21 -13 3 0 29 -5 25 -14 -11 -5
-21 -3 -28 8 -28 9 0 14 -13 14 -42 1 -75 -38 -123 -102 -127 -67 -3 -96 7
-96 35 0 17 -6 24 -20 24 -17 0 -20 7 -20 40 0 31 -4 40 -17 40 -12 0 -14 -3
-6 -8 18 -11 13 -51 -5 -44 -8 3 -21 -3 -28 -13 -13 -18 -14 -18 -14 2 0 16
-5 20 -20 16 -16 -4 -20 -14 -20 -47 -1 -38 -2 -40 -15 -22 -13 17 -15 18 -15
3 0 -9 -4 -17 -9 -17 -11 0 -21 36 -21 82 0 51 -8 67 -31 61 -15 -4 -19 -15
-20 -47 -1 -22 -3 -33 -6 -23 -11 43 -32 9 -34 -56 l-2 -42 -7 50 c-5 28 -9
71 -9 98 -1 39 -4 47 -19 47 -24 0 -34 -10 -23 -24 5 -6 5 -42 1 -81 -4 -38
-8 -63 -9 -55 -2 11 -5 9 -11 -5 -6 -15 -9 -8 -10 30 -1 38 -4 45 -10 30 -5
-11 -9 -32 -9 -47 -1 -21 -6 -28 -21 -28 -18 0 -20 7 -21 73 -1 39 -4 99 -8
132 -6 56 -8 60 -34 63 l-27 3 0 -94 c0 -65 -5 -104 -15 -123 -10 -19 -13 -44
-10 -69 4 -32 3 -36 -6 -22 -6 10 -9 32 -8 50 1 18 1 94 0 170 l-1 138 -37 -3
-38 -3 0 -55 c-2 -160 -6 -230 -15 -230 -5 0 -12 11 -16 25 -11 45 -28 27 -38
-40 -2 -10 -8 -21 -14 -23 -9 -3 -12 26 -12 101 0 57 -3 145 -7 196 -6 86 -7
92 -30 97 -14 4 -28 3 -33 -2 -4 -5 -13 -71 -19 -147 -8 -93 -17 -147 -27
-163 -10 -14 -14 -37 -12 -54 3 -20 0 -30 -9 -30 -7 0 -13 8 -13 19 0 24 -25
45 -45 37 -8 -3 -16 -18 -16 -33 -1 -15 -10 44 -20 132 -36 324 -32 300 -54
300 -19 0 -21 -11 -31 -164 -7 -90 -11 -193 -9 -228 l2 -63 -40 0 c-26 0 -44
6 -53 18 -13 16 -13 16 -14 -1 0 -16 -2 -16 -24 -2 -14 9 -32 15 -42 13 -14
-2 -20 5 -24 27 -5 29 -6 29 -22 -20 -13 -39 -17 -44 -17 -23 -1 31 -16 44
-35 29 -7 -6 -16 -8 -19 -4 -4 3 -7 0 -7 -7 0 -7 -2 -11 -5 -8 -3 2 2 20 11
38 17 32 16 88 -1 300 -2 25 -7 83 -10 130 -9 127 -11 130 -55 130 -21 0 -42
-6 -47 -12 -6 -7 -13 -78 -17 -158 -13 -281 -18 -331 -31 -313 -7 9 -17 13
-23 9 -7 -4 -12 -2 -12 3 0 6 -6 11 -14 11 -20 0 -27 -39 -20 -109 l7 -61 -28
0 c-16 0 -43 5 -61 12 -25 9 -39 9 -58 0 -19 -8 -26 -8 -30 1 -3 9 -5 9 -5 0
-1 -7 -12 -13 -26 -13 -22 0 -25 4 -25 38 0 34 4 40 34 52 47 18 53 44 11 47
-19 2 -38 -3 -45 -12 -7 -8 -28 -15 -46 -15 -32 0 -47 -14 -23 -22 6 -2 4 -14
-6 -33 l-17 -30 5 27 c2 15 0 33 -4 40 -7 10 -9 10 -9 1 0 -7 -5 -13 -12 -13
-6 0 -3 9 7 20 11 13 14 20 6 20 -7 0 -11 10 -9 24 3 27 -35 75 -61 77 -11 0
-12 2 -3 6 6 2 12 9 12 14 0 4 -7 6 -15 3 -10 -4 -18 3 -25 20 -8 22 -16 26
-50 26 l-40 0 0 -195 0 -195 50 0 c28 0 50 5 50 10 0 12 27 13 32 2 2 -5 47
-6 100 -4 54 2 95 8 92 13 -5 8 29 10 174 12 23 0 42 4 42 9 0 4 5 8 10 8 6 0
10 -7 10 -16 0 -14 11 -15 78 -10 42 3 212 8 377 11 165 3 330 8 368 10 64 5
68 4 79 -20 13 -29 48 -33 72 -9 21 21 21 21 -20 22 -20 1 -40 4 -43 8 -10 10
92 2 114 -9 23 -12 117 -9 125 3 9 14 160 18 160 5 0 -13 -21 -17 -227 -40
-70 -8 -159 -19 -198 -24 -38 -5 -99 -12 -135 -15 -131 -13 -186 -19 -233 -26
-27 -4 -66 -5 -87 -3 -21 3 -47 0 -57 -5 -10 -6 -66 -15 -123 -22 -58 -6 -125
-15 -150 -20 -25 -5 -76 -11 -115 -14 -82 -6 -136 -16 -150 -27 -11 -8 -136 4
-167 16 -23 9 -45 -4 -27 -16 10 -6 5 -9 -16 -9 -21 0 -26 -3 -16 -9 26 -17
-10 -24 -90 -17 l-79 7 0 -69 0 -69 30 5 c16 2 35 10 41 18 12 15 39 19 39 7
0 -13 106 -9 122 4 22 19 125 44 198 49 36 2 79 9 95 14 17 5 68 14 115 20 47
6 110 15 140 21 30 5 69 11 85 13 17 2 50 7 74 11 32 6 42 5 37 -3 -4 -7 -22
-12 -40 -12 -18 0 -46 -4 -62 -9 -65 -19 -141 -34 -166 -33 -15 1 -29 -2 -33
-8 -3 -5 -27 -10 -53 -10 -26 0 -65 -5 -87 -10 -22 -5 -68 -10 -102 -12 -50
-2 -65 -7 -79 -25 -16 -21 -32 -27 -114 -37 -48 -6 -141 -26 -165 -37 -11 -4
-31 -9 -45 -11 -23 -3 -25 -8 -28 -58 -1 -34 1 -50 6 -42 9 13 30 20 142 47
30 7 84 22 120 33 36 12 103 28 150 36 47 8 104 21 127 30 l41 15 6 -47 c3
-26 8 -123 11 -217 4 -93 11 -180 17 -192 12 -24 50 -31 77 -14 8 5 16 40 21
92 12 119 30 317 34 362 2 21 7 42 12 47 11 11 148 40 186 40 15 0 30 5 33 10
3 6 15 10 25 10 20 0 23 -19 36 -225 3 -55 10 -104 15 -109 16 -18 30 9 40 80
5 38 11 83 13 99 3 17 8 64 11 106 6 65 5 77 -9 82 -9 4 -23 4 -31 1 -9 -4
-15 0 -15 10 0 9 -8 16 -17 16 -14 -1 -12 -6 10 -25 23 -20 25 -25 10 -25 -24
1 -48 21 -49 42 -2 17 46 38 87 38 8 0 71 11 140 24 68 14 148 28 178 31 l55
7 -17 -25 c-14 -21 -16 -49 -14 -161 1 -101 5 -136 14 -137 27 -3 32 -4 39
-12 4 -4 16 -7 28 -7 15 0 17 3 8 12 -13 13 -17 140 -5 152 11 10 12 36 2 36
-5 0 -9 26 -9 58 0 68 23 102 69 102 16 0 44 3 62 6 19 3 29 2 24 -3 -7 -5 -7
-19 2 -43 l12 -35 2 40 c1 22 1 43 0 47 0 6 67 23 132 32 43 5 51 -11 10 -20
-52 -11 -55 -13 -49 -37 3 -12 6 -32 6 -44 0 -13 5 -23 10 -23 6 0 11 10 11
23 1 12 5 4 8 -18 5 -31 10 -40 26 -40 17 0 21 9 27 67 7 77 17 102 29 72 7
-17 8 -17 8 -1 2 38 21 14 21 -26 0 -36 3 -43 20 -44 11 -1 20 3 20 8 0 6 8 6
20 -1 11 -6 20 -7 20 -3 0 4 7 -1 15 -11 14 -19 15 -18 15 12 0 25 4 32 20 32
15 0 20 7 20 29 0 17 5 33 11 36 20 13 66 16 92 6 24 -10 27 -16 27 -61 0 -28
5 -60 10 -70 13 -23 -2 -89 -37 -169 -25 -57 -30 -129 -12 -163 8 -15 8 -19 0
-14 -14 9 -14 -17 0 -31 8 -8 8 -17 0 -31 -20 -38 -13 -109 19 -177 42 -91 41
-104 -12 -99 -24 3 -63 5 -88 7 l-45 2 2 -47 c1 -27 -2 -48 -7 -48 -6 0 -10
12 -11 28 l-1 27 -8 -25 c-4 -14 -9 -54 -9 -90 -1 -46 -4 -61 -11 -50 -7 11
-10 7 -10 -17 0 -38 -10 -42 -28 -13 -7 11 -21 20 -32 20 -22 0 -27 -16 -7
-23 10 -4 10 -7 0 -18 -10 -9 -13 -10 -13 -1 0 7 -7 12 -16 12 -8 0 -12 5 -8
11 4 7 -1 10 -12 7 -15 -3 -18 -11 -16 -36 4 -36 -13 -44 -23 -11 -4 12 -12
18 -21 15 -8 -3 -14 -1 -14 4 0 6 -7 10 -15 10 -8 0 -15 7 -15 15 0 8 -4 15
-10 15 -5 0 -10 -10 -10 -23 0 -37 -32 -65 -69 -59 -17 2 -31 8 -31 13 0 5 -7
9 -15 9 -9 0 -27 7 -41 16 -13 9 -28 13 -32 9 -4 -4 -1 -10 6 -12 18 -7 15
-20 -8 -26 -28 -7 -76 8 -72 22 1 7 -2 10 -7 6 -6 -3 -8 -12 -4 -20 4 -11 -2
-15 -21 -15 -21 0 -26 5 -26 26 0 14 -4 23 -10 19 -6 -4 -8 -11 -5 -16 4 -5
-1 -9 -9 -9 -9 0 -16 -4 -16 -9 0 -5 -11 -9 -24 -9 -17 0 -23 5 -19 14 3 8 1
14 -3 14 -13 0 -41 -20 -29 -20 6 0 4 -4 -4 -9 -10 -6 -20 -3 -32 12 -10 12
-18 17 -19 11 0 -6 7 -17 15 -24 21 -18 19 -40 -5 -40 -11 0 -20 4 -20 9 0 6
-15 7 -34 4 -28 -4 -34 -2 -39 16 -8 31 -28 26 -25 -6 2 -20 -2 -28 -17 -32
-11 -3 -22 -15 -23 -26 -6 -33 -19 -38 -14 -5 5 38 -5 38 -43 -1 l-30 -31 -5
49 c-4 43 -6 46 -17 28 -8 -13 -15 -16 -20 -9 -6 7 -16 6 -33 -3 -21 -11 -22
-13 -5 -13 15 0 17 -2 6 -12 -10 -11 -15 -9 -27 6 -8 12 -14 15 -14 7 0 -9 -9
-11 -27 -7 -16 3 -22 3 -15 0 6 -3 12 -11 12 -18 0 -8 -18 -12 -58 -11 -31 1
-65 -2 -75 -7 -21 -11 -23 -32 -2 -24 8 3 15 2 15 -3 0 -19 -16 -19 -47 0 -37
23 -54 19 -32 -7 13 -16 12 -17 -9 -12 -16 5 -25 0 -34 -15 -6 -12 -11 -23
-10 -24 8 -12 -1 -13 -15 -2 -15 13 -16 12 -11 -8 6 -24 -7 -33 -14 -11 -4 10
-10 10 -31 1 -22 -10 -27 -10 -27 1 0 7 -6 19 -14 26 -12 9 -17 7 -28 -9 -7
-12 -19 -21 -26 -21 -7 0 -10 -5 -7 -10 4 -6 54 -10 116 -10 71 0 108 4 104
10 -3 5 1 10 10 10 9 0 13 -5 10 -10 -4 -7 586 -10 1763 -10 l1769 0 -1 23
c-1 33 -16 38 -47 16 -34 -24 -41 -24 -57 1 -14 24 -44 28 -36 5 5 -11 2 -13
-10 -9 -9 3 -16 10 -16 15 0 5 -8 9 -17 9 -15 0 -16 -2 -3 -10 8 -5 12 -12 8
-15 -7 -8 -44 10 -40 19 1 3 2 7 1 9 -6 17 -4 47 3 47 5 0 6 4 3 10 -12 19
-30 10 -44 -22 -8 -18 -16 -27 -18 -21 -3 7 -11 9 -19 6 -9 -3 -14 2 -14 16 0
12 6 21 15 21 8 0 15 5 15 10 0 15 -40 12 -40 -2 -1 -19 -29 -53 -37 -45 -3 4
2 17 13 28 19 22 19 22 -1 11 -22 -11 -75 -5 -75 9 0 5 -8 9 -18 9 -10 0 -22
3 -26 7 -11 12 -46 13 -46 2 0 -6 -7 -3 -16 6 -13 13 -19 13 -32 3 -31 -25
-57 -53 -57 -62 0 -5 -6 -11 -12 -14 -16 -5 -17 24 -3 33 8 5 7 11 -1 21 -6 8
-8 15 -3 15 5 1 14 2 19 3 6 0 25 7 44 15 30 13 32 16 16 27 -14 11 -20 10
-32 -2 -19 -19 -30 -10 -13 11 7 8 9 15 4 16 -50 4 -65 16 -42 33 10 7 15 16
11 20 -9 8 -9 13 -18 137 -4 57 -8 117 -10 132 -1 17 4 30 12 33 48 15 48 15
33 24 -8 5 -17 7 -21 5 -3 -3 -12 15 -19 40 -7 25 -19 50 -26 56 -8 6 -12 15
-9 18 2 4 -2 8 -9 8 -8 0 -12 -7 -8 -15 3 -10 1 -13 -6 -8 -9 5 -12 -7 -12
-43 0 -31 -4 -51 -11 -51 -7 0 -5 -9 4 -24 20 -29 35 -286 18 -286 -25 0 -10
-38 19 -49 36 -12 40 -25 5 -19 -15 3 -22 1 -18 -5 3 -6 -1 -15 -9 -21 -8 -6
-17 -18 -21 -26 -4 -12 -6 -11 -6 3 -1 9 -6 17 -12 17 -5 0 -7 5 -4 10 4 6
-11 10 -36 10 -39 0 -41 -1 -24 -14 11 -8 25 -12 32 -9 7 3 13 0 13 -7 0 -8
-9 -10 -27 -6 -16 4 -35 8 -43 10 -8 1 -15 9 -15 17 0 7 -8 15 -19 17 -11 3
-16 0 -12 -7 4 -6 0 -11 -9 -11 -11 0 -15 5 -11 15 3 8 0 15 -6 15 -6 0 -17 8
-24 18 -12 16 -13 15 -14 -5 0 -13 5 -23 12 -23 9 0 9 -3 1 -11 -17 -17 -42
-4 -36 19 4 17 0 19 -29 18 -20 -1 -38 4 -44 13 -10 13 -14 13 -28 2 -9 -7
-23 -10 -32 -7 -9 4 -23 1 -32 -6 -12 -10 -16 -10 -19 -1 -2 7 -11 9 -20 6
-12 -5 -14 -3 -8 7 5 9 4 11 -4 6 -6 -4 -9 -11 -6 -16 3 -5 1 -11 -4 -14 -5
-4 -12 -2 -16 4 -4 6 -11 8 -16 5 -5 -4 -9 1 -9 9 0 19 -21 21 -39 4 -11 -10
-13 -10 -7 0 8 13 -10 17 -18 3 -8 -12 -55 -20 -61 -10 -3 4 4 10 15 14 11 3
20 10 20 15 0 14 -18 21 -25 10 -3 -5 -18 -10 -32 -10 -19 0 -24 -4 -19 -16 3
-8 2 -12 -4 -9 -5 3 -25 6 -45 7 -25 1 -34 5 -31 15 6 16 -10 18 -20 2 -6 -11
-44 -8 -76 6 -11 4 -18 3 -18 -4 0 -6 7 -11 15 -11 15 0 22 -19 8 -21 -52 -8
-62 -7 -56 7 3 8 9 14 14 14 5 0 9 5 9 10 0 19 -17 10 -28 -14 -15 -33 -110
-134 -134 -141 -10 -4 -18 -15 -18 -25 0 -19 -19 -30 -51 -30 -10 0 -19 -6
-20 -12 -1 -20 -28 44 -29 68 0 12 7 24 15 28 10 3 15 19 15 44 0 28 7 45 25
62 23 22 25 29 21 94 -3 39 -8 86 -12 104 -4 22 -2 32 5 32 7 0 9 4 6 10 -3 5
11 44 31 87 34 74 36 82 30 148 -4 38 -12 72 -18 76 -8 5 -7 23 5 65 11 38 13
62 7 68 -6 6 -10 18 -10 27 0 9 -7 22 -15 29 -8 7 -12 16 -9 21 3 5 -2 19 -10
31 -9 12 -16 31 -16 41 0 10 -7 31 -15 48 -13 24 -18 27 -29 17 -8 -7 -12 -16
-9 -20 2 -4 -2 -5 -10 -2 -15 5 -16 31 -3 53 6 9 3 17 -8 23 -18 10 -22 28 -5
28 5 0 7 -4 4 -10 -3 -5 -1 -10 4 -10 18 0 12 17 -11 34 -16 12 -18 16 -5 12
9 -3 18 0 18 7 5 41 -2 68 -21 87 -23 23 -19 40 11 40 18 0 79 -54 79 -71 0
-5 24 -6 53 -4 52 5 53 5 62 -27 6 -18 16 -33 23 -33 8 0 20 -8 27 -18 7 -10
31 -20 54 -23 l41 -5 1 43 c0 33 2 38 9 23 5 -11 9 -34 9 -51 1 -19 7 -34 16
-38 8 -3 15 -12 15 -20 0 -15 21 -26 51 -26 10 0 19 -4 19 -10 0 -5 9 -10 20
-10 11 0 20 -7 20 -15 0 -8 8 -15 19 -15 16 0 20 11 26 85 5 63 10 85 21 85
10 0 14 -12 14 -37 0 -86 13 -144 33 -154 27 -15 41 2 39 50 -1 22 3 43 8 46
6 4 10 -21 10 -67 0 -47 5 -81 14 -93 13 -18 14 -18 25 3 6 11 11 54 11 94 0
97 7 120 34 116 22 -3 26 -18 41 -170 5 -54 10 -67 26 -71 30 -8 39 22 39 122
l0 91 26 0 c41 0 51 -19 56 -110 3 -47 11 -98 17 -114 10 -26 14 -28 27 -15
10 11 17 47 21 118 3 56 9 99 12 94 7 -9 4 -8 92 -22 61 -10 89 -28 89 -57 0
-6 6 -14 14 -17 8 -3 16 -16 19 -29 4 -21 4 -21 6 -2 0 12 8 27 16 34 8 7 15
19 15 27 0 14 32 10 55 -7 6 -4 30 -11 55 -14 105 -15 171 -29 175 -37 5 -7
26 -205 41 -374 6 -73 10 -81 49 -89 57 -11 60 -3 62 171 3 297 -1 263 34 263
17 0 67 -9 112 -21 45 -11 118 -27 162 -35 153 -27 185 -35 185 -49 0 -8 12
-15 28 -17 29 -3 31 -9 45 -188 3 -36 13 -114 22 -175 8 -60 14 -119 11 -130
-2 -11 1 -67 8 -124 l11 -105 49 -29 c36 -23 66 -32 117 -36 92 -9 100 -3 100
67 -1 163 9 610 14 631 8 33 23 15 27 -34 5 -65 37 -66 38 -1 0 22 4 27 17 22
9 -4 20 -1 25 6 5 8 8 0 8 -22 0 -19 4 -42 10 -50 5 -9 9 65 10 203 0 169 -3
217 -12 217 -10 0 -10 2 0 8 9 6 12 34 11 94 l-1 85 -217 6 c-119 4 -292 7
-385 7 -93 0 -166 3 -163 7 4 3 178 5 387 4 l380 -2 0 331 c0 232 -3 329 -11
325 -6 -4 -8 -13 -5 -21 3 -8 0 -11 -10 -7 -14 5 -14 3 -3 -15 10 -17 10 -23
-3 -36 -15 -14 -17 -14 -23 2 -6 16 -7 16 -16 -1 -11 -18 -29 -14 -29 6 0 7 4
6 11 -3 9 -13 10 -13 6 0 -2 8 -11 13 -18 11 -8 -2 -22 -4 -31 -5 -15 0 -17
-7 -12 -44 4 -38 3 -44 -11 -38 -11 4 -15 2 -12 -6 4 -15 46 -17 64 -5 21 15
36 -3 19 -21 -8 -10 -15 -21 -16 -27 0 -5 -14 -9 -30 -9 -22 1 -27 -2 -23 -15
4 -13 2 -13 -10 2 -19 23 -30 90 -32 187 -3 133 -42 413 -56 404 -5 -3 -7 1
-4 8 10 28 -12 40 -81 43 -49 2 -79 -2 -104 -13z m302 -730 c-19 -5 -36 13
-27 28 5 8 12 6 25 -7 14 -15 15 -19 2 -21z m68 -56 c0 -3 -4 -8 -10 -11 -5
-3 -10 -1 -10 4 0 6 5 11 10 11 6 0 10 -2 10 -4z m-1530 -161 c0 -14 -4 -25
-10 -25 -11 0 -14 33 -3 43 11 11 13 8 13 -18z m-3208 -30 c-5 -41 -17 -46
-26 -10 -7 29 -1 45 18 45 8 0 11 -12 8 -35z m-90 0 c-4 -26 -22 -45 -22 -25
0 6 -4 8 -10 5 -13 -8 -13 1 2 25 18 28 36 25 30 -5z m-79 -16 c-4 -13 -11
-18 -21 -14 -8 3 -19 0 -23 -7 -7 -10 -11 -10 -20 -1 -7 7 -11 14 -8 15 28 18
65 34 71 31 3 -1 4 -12 1 -24z m1308 -30 c-10 -23 -10 -22 -7 6 6 39 7 42 12
29 3 -6 0 -22 -5 -35z m3579 4 c0 -7 -8 -13 -17 -13 -13 0 -15 2 -5 8 7 5 10
17 6 28 -5 16 -4 16 5 4 6 -8 11 -21 11 -27z m-4963 -45 c-3 -8 -6 -5 -6 6 -1
11 2 17 5 13 3 -3 4 -12 1 -19z m173 3 c0 -15 8 -21 33 -24 19 -2 9 -4 -26 -5
-34 -1 -56 2 -52 7 3 5 1 12 -5 16 -20 12 -10 25 20 25 23 0 30 -5 30 -19z
m1845 5 c6 -2 -18 -5 -52 -7 -39 -3 -64 0 -67 7 -4 9 86 9 119 0z m65 10 c0
-2 -9 -6 -20 -9 -11 -3 -20 -1 -20 4 0 5 9 9 20 9 11 0 20 -2 20 -4z m215 -28
c5 2 6 0 4 -20 0 -10 -2 -10 -5 -1 -3 7 -11 10 -17 7 -7 -2 -13 7 -14 23 -1
27 -1 27 13 8 8 -11 17 -19 19 -17z m648 25 c-7 -2 -21 -2 -30 0 -10 3 -4 5
12 5 17 0 24 -2 18 -5z m524 1 c-3 -3 -12 -4 -19 -1 -8 3 -5 6 6 6 11 1 17 -2
13 -5z m111 -1 c-15 -2 -42 -2 -60 0 -18 2 -6 4 27 4 33 0 48 -2 33 -4z m325
0 c-18 -2 -48 -2 -65 0 -18 2 -4 4 32 4 36 0 50 -2 33 -4z m265 0 c-38 -2 -98
-2 -135 0 -38 2 -7 3 67 3 74 0 105 -1 68 -3z m-2153 -33 c-3 -5 -21 -9 -38
-9 l-32 1 30 8 c43 11 47 11 40 0z m-1992 -17 c-7 -2 -21 -2 -30 0 -10 3 -5 5
12 5 17 0 24 -2 18 -5z m4360 -100 c-7 -2 -19 -2 -25 0 -7 3 -2 5 12 5 14 0
19 -2 13 -5z m44 1 c-3 -3 -12 -4 -19 -1 -8 3 -5 6 6 6 11 1 17 -2 13 -5z
m459 -39 c44 -2 92 -9 105 -15 19 -8 15 -9 -26 -5 -27 2 -108 10 -180 16 -71
6 -133 14 -137 18 -4 4 29 3 75 -1 45 -4 118 -10 163 -13z m-2589 -27 c-3 -7
-5 -2 -5 12 0 14 2 19 5 13 2 -7 2 -19 0 -25z m-1737 -123 c0 -8 -7 -15 -15
-15 -26 0 -18 20 13 29 1 1 2 -6 2 -14z m-305 -55 c-3 -5 -11 -10 -16 -10 -6
0 -7 5 -4 10 3 6 11 10 16 10 6 0 7 -4 4 -10z m35 -5 c0 -8 -2 -15 -4 -15 -2
0 -6 7 -10 15 -3 8 -1 15 4 15 6 0 10 -7 10 -15z m1890 -145 c0 -5 -2 -10 -4
-10 -3 0 -8 5 -11 10 -3 6 -1 10 4 10 6 0 11 -4 11 -10z m20 -541 c0 -6 -4 -7
-10 -4 -5 3 -10 11 -10 16 0 6 5 7 10 4 6 -3 10 -11 10 -16z m960 -54 c27 -15
20 -19 -17 -9 -13 4 -23 10 -23 15 0 12 11 11 40 -6z m-1946 -57 c-3 -4 -14
-8 -25 -8 -11 0 -18 4 -15 8 2 4 14 8 25 8 11 0 17 -4 15 -8z m1046 -36 c0
-11 -6 -8 -20 8 -11 13 -20 28 -20 33 0 6 9 2 20 -8 11 -10 20 -25 20 -33z
m-1280 24 c0 -3 -4 -8 -10 -11 -5 -3 -10 -1 -10 4 0 6 5 11 10 11 6 0 10 -2
10 -4z m-73 -40 c0 -11 -5 -13 -19 -5 -10 5 -18 12 -18 14 0 3 8 5 18 5 10 0
19 -7 19 -14z m-77 -16 c0 -5 -4 -10 -10 -10 -5 0 -10 5 -10 10 0 6 5 10 10
10 6 0 10 -4 10 -10z m223 -24 c-3 -13 -16 -30 -30 -37 -23 -12 -27 -11 -44
10 -25 31 -24 39 9 44 64 10 69 8 65 -17z m-253 4 c13 -9 13 -10 0 -10 -8 0
-22 5 -30 10 -13 9 -13 10 0 10 8 0 22 -5 30 -10z m3031 -13 c-1 -12 -15 -9
-19 4 -3 6 1 10 8 8 6 -3 11 -8 11 -12z"/>
<path d="M2190 2335 c-11 -13 -10 -14 4 -9 9 3 16 10 16 15 0 13 -6 11 -20 -6z"/>
<path d="M2098 2328 c-27 -6 -48 -14 -48 -19 0 -11 44 -12 54 -1 8 7 14 9 47
11 11 0 17 6 14 11 -3 6 -9 9 -13 9 -4 -1 -28 -6 -54 -11z"/>
<path d="M2093 2247 c-24 -5 -43 -13 -43 -17 0 -4 20 -3 45 3 25 6 45 14 45
19 0 4 -1 7 -2 7 -2 -1 -22 -6 -45 -12z"/>
<path d="M2158 2253 c7 -3 16 -2 19 1 4 3 -2 6 -13 5 -11 0 -14 -3 -6 -6z"/>
<path d="M2594 2202 c-18 -11 -13 -59 7 -78 18 -16 19 -16 19 7 0 14 -5 30
-11 36 -12 12 5 19 63 26 15 2 30 6 34 10 10 9 -98 9 -112 -1z"/>
<path d="M1841 2189 c-16 -6 -21 -13 -14 -20 6 -6 19 -6 37 1 15 5 56 11 92
12 37 1 59 5 52 10 -18 11 -138 9 -167 -3z"/>
<path d="M3488 2183 c-26 -6 -22 -23 5 -23 30 0 67 11 67 19 0 8 -47 11 -72 4z"/>
<path d="M2648 2158 c-3 -7 4 -21 14 -31 16 -15 19 -15 24 -2 4 8 4 22 0 30
-7 18 -32 20 -38 3z"/>
<path d="M960 2151 c0 -9 22 -31 32 -31 18 0 7 36 -12 37 -11 1 -20 -2 -20 -6z"/>
<path d="M1860 2135 c0 -14 4 -25 9 -25 12 0 23 29 15 41 -10 18 -24 9 -24
-16z"/>
<path d="M1917 2154 c-11 -11 -8 -54 3 -54 6 0 10 5 10 10 0 6 7 10 16 10 9 0
14 7 12 17 -3 19 -29 29 -41 17z"/>
<path d="M2720 2144 c0 -8 5 -12 10 -9 6 4 8 11 5 16 -9 14 -15 11 -15 -7z"/>
<path d="M1987 2144 c-13 -13 -7 -23 13 -21 11 1 19 6 17 11 -4 13 -21 18 -30
10z"/>
<path d="M2846 2115 c-3 -8 -1 -15 4 -15 6 0 10 7 10 15 0 8 -2 15 -4 15 -2 0
-6 -7 -10 -15z"/>
<path d="M1730 2106 c0 -17 14 -29 23 -20 8 8 -3 34 -14 34 -5 0 -9 -6 -9 -14z"/>
<path d="M2257 2005 c-38 -26 -49 -42 -22 -31 10 4 15 -1 15 -15 0 -11 4 -18
9 -14 5 3 12 1 16 -5 3 -5 21 -10 38 -10 36 0 65 -15 54 -26 -4 -5 -23 -8 -42
-8 -19 0 -35 -4 -35 -9 0 -4 -4 -5 -10 -2 -6 4 -10 -12 -10 -41 0 -52 8 -56
12 -7 2 23 7 31 20 30 10 -1 18 -7 18 -14 0 -7 -7 -10 -16 -6 -12 4 -15 0 -12
-17 2 -15 11 -24 26 -26 19 -3 22 0 22 31 0 19 5 35 11 35 6 0 18 8 27 18 10
9 14 13 10 8 -13 -16 -9 -44 9 -61 14 -14 14 -18 2 -26 -11 -7 -9 -9 7 -9 11
0 25 -5 32 -12 9 -9 12 2 12 52 0 83 -22 128 -75 156 -65 35 -77 36 -118 9z"/>
<path d="M2666 1991 c-3 -4 10 -21 29 -37 19 -16 35 -37 35 -46 0 -10 5 -18
10 -18 6 0 10 14 10 30 0 47 -65 102 -84 71z"/>
<path d="M1923 1979 c9 -6 15 -14 12 -20 -4 -5 4 -9 16 -9 l22 0 -23 20 c-13
11 -28 20 -34 20 -6 0 -3 -5 7 -11z"/>
<path d="M5005 1980 c-3 -5 -1 -10 4 -10 6 0 11 5 11 10 0 6 -2 10 -4 10 -3 0
-8 -4 -11 -10z"/>
<path d="M1717 1973 c-13 -12 -7 -53 7 -53 8 0 17 -11 20 -25 10 -41 22 -29
21 21 -2 50 -27 79 -48 57z"/>
<path d="M1972 1920 c0 -14 2 -19 5 -12 2 6 2 18 0 25 -3 6 -5 1 -5 -13z"/>
<path d="M3470 1890 c-12 -8 -12 -10 3 -16 9 -3 14 -10 11 -15 -6 -10 11 -11
43 -3 13 4 20 10 17 15 -3 5 2 9 10 9 9 0 16 5 16 10 0 13 -80 13 -100 0z"/>
<path d="M3580 1890 c0 -5 7 -7 15 -4 8 4 15 8 15 10 0 2 -7 4 -15 4 -8 0 -15
-4 -15 -10z"/>
<path d="M2734 1871 c4 -5 1 -11 -6 -13 -6 -2 -8 -10 -4 -16 12 -20 26 -13 26
13 0 14 -5 25 -11 25 -5 0 -8 -4 -5 -9z"/>
<path d="M950 1860 c0 -5 5 -10 10 -10 6 0 10 -8 10 -17 1 -16 2 -16 15 1 21
28 19 36 -10 36 -14 0 -25 -4 -25 -10z"/>
<path d="M2670 1850 c0 -13 5 -20 13 -17 6 2 12 10 12 17 0 7 -6 15 -12 18 -8
2 -13 -5 -13 -18z"/>
<path d="M1917 1854 c-8 -8 3 -34 14 -34 5 0 9 9 9 20 0 19 -11 26 -23 14z"/>
<path d="M1510 1840 c0 -5 6 -10 14 -10 8 0 18 5 21 10 3 6 -3 10 -14 10 -12
0 -21 -4 -21 -10z"/>
<path d="M1740 1841 c0 -6 5 -13 10 -16 6 -3 10 1 10 9 0 9 -4 16 -10 16 -5 0
-10 -4 -10 -9z"/>
<path d="M1971 1834 c0 -11 3 -14 6 -6 3 7 2 16 -1 19 -3 4 -6 -2 -5 -13z"/>
<path d="M5 1829 c4 -6 13 -8 21 -5 8 3 14 0 14 -7 0 -8 3 -8 9 2 7 11 9 11
13 0 3 -9 6 -8 11 4 5 14 0 17 -34 17 -26 0 -38 -4 -34 -11z"/>
<path d="M4510 1830 c0 -20 5 -25 20 -22 23 6 26 12 10 22 -20 13 -30 12 -30
0z"/>
<path d="M11 1776 c11 -9 69 -15 64 -6 -3 6 -20 10 -37 10 -17 0 -29 -2 -27
-4z"/>
<path d="M2390 1754 c0 -8 5 -12 10 -9 6 4 8 11 5 16 -9 14 -15 11 -15 -7z"/>
<path d="M1717 1743 c-14 -13 -6 -30 18 -41 22 -10 25 -9 25 6 0 28 -28 51
-43 35z"/>
<path d="M2721 1722 c13 -38 29 -51 29 -24 0 10 -9 27 -20 37 -20 18 -20 18
-9 -13z"/>
<path d="M1967 1709 c4 -13 8 -18 11 -10 2 7 -1 18 -6 23 -8 8 -9 4 -5 -13z"/>
<path d="M2301 1684 c0 -11 3 -14 6 -6 3 7 2 16 -1 19 -3 4 -6 -2 -5 -13z"/>
<path d="M1730 1676 c0 -2 7 -6 15 -10 8 -3 15 -1 15 4 0 6 -7 10 -15 10 -8 0
-15 -2 -15 -4z"/>
<path d="M2420 1669 c0 -5 5 -7 10 -4 6 3 10 8 10 11 0 2 -4 4 -10 4 -5 0 -10
-5 -10 -11z"/>
<path d="M1925 1617 c-4 -10 -5 -21 -1 -24 10 -10 18 4 13 24 -4 17 -4 17 -12
0z"/>
<path d="M2417 1624 c-14 -14 -6 -24 19 -24 16 0 24 5 22 13 -5 14 -31 21 -41
11z"/>
<path d="M2670 1615 c0 -8 5 -15 10 -15 6 0 10 7 10 15 0 8 -4 15 -10 15 -5 0
-10 -7 -10 -15z"/>
<path d="M2732 1621 c-11 -6 -10 -10 4 -15 20 -8 32 0 18 14 -5 5 -15 5 -22 1z"/>
<path d="M3220 1615 c0 -9 6 -12 15 -9 8 4 15 7 15 9 0 2 -7 5 -15 9 -9 3 -15
0 -15 -9z"/>
<path d="M3455 1620 c-3 -5 -1 -10 4 -10 6 0 11 5 11 10 0 6 -2 10 -4 10 -3 0
-8 -4 -11 -10z"/>
<path d="M2149 1610 c-6 -4 4 -10 22 -14 18 -3 37 -2 42 3 10 10 -48 20 -64
11z"/>
<path d="M1431 1594 c0 -11 3 -14 6 -6 3 7 2 16 -1 19 -3 4 -6 -2 -5 -13z"/>
<path d="M3478 1583 c7 -3 16 -2 19 1 4 3 -2 6 -13 5 -11 0 -14 -3 -6 -6z"/>
<path d="M948 1553 c7 -3 16 -2 19 1 4 3 -2 6 -13 5 -11 0 -14 -3 -6 -6z"/>
<path d="M937 1323 c-1 0 -81 -2 -177 -4 -96 -1 -179 -5 -185 -8 -5 -3 -77 -7
-160 -7 -200 -2 -405 -10 -412 -18 -4 -3 12 -6 35 -6 46 0 59 -19 15 -21 -16
-1 -34 -1 -41 0 -9 2 -12 -7 -10 -26 2 -21 8 -27 23 -25 11 1 54 2 95 2 41 0
95 3 120 6 38 6 41 8 22 15 -40 15 -27 38 21 37 43 -2 103 -28 63 -28 -17 0
-15 -14 2 -16 4 0 15 -4 25 -9 10 -4 21 -5 24 -1 3 3 12 1 18 -4 9 -7 22 -7
41 1 16 6 58 13 92 14 35 2 68 7 74 13 6 6 16 8 23 6 7 -3 15 6 19 21 4 15 11
23 17 19 6 -3 8 -15 6 -26 -5 -16 -2 -18 21 -14 15 4 63 8 107 10 121 6 205
18 205 27 0 5 -7 9 -15 9 -8 0 -15 4 -15 9 0 5 8 7 19 4 10 -3 22 0 25 6 4 6
1 12 -6 12 -26 2 -90 4 -91 2z m-341 -44 c8 -14 -18 -31 -30 -19 -9 9 0 30 14
30 5 0 12 -5 16 -11z m-450 -56 c-3 -4 -6 -1 -6 6 0 7 -4 10 -9 7 -10 -7 -23
19 -14 28 4 3 13 -3 21 -15 8 -11 11 -23 8 -26z m404 23 c0 -2 -7 -6 -15 -10
-8 -3 -15 -1 -15 4 0 6 7 10 15 10 8 0 15 -2 15 -4z"/>
<path d="M1095 1320 c3 -5 10 -10 16 -10 5 0 9 5 9 10 0 6 -7 10 -16 10 -8 0
-12 -4 -9 -10z"/>
<path d="M1095 1290 c-3 -5 -1 -10 4 -10 6 0 11 5 11 10 0 6 -2 10 -4 10 -3 0
-8 -4 -11 -10z"/>
<path d="M1045 1280 c-3 -6 1 -7 9 -4 18 7 21 14 7 14 -6 0 -13 -4 -16 -10z"/>
<path d="M1735 1269 c-4 -6 -4 -35 0 -66 5 -41 4 -53 -5 -48 -9 6 -9 2 -1 -12
5 -11 13 -34 16 -51 4 -25 1 -32 -15 -37 -25 -8 -27 -35 -2 -35 33 0 39 15 41
85 0 39 4 94 7 123 5 48 4 52 -14 52 -12 0 -24 -5 -27 -11z"/>
<path d="M1585 1244 c-13 -10 -15 -32 -13 -125 3 -110 4 -114 26 -117 29 -4
32 6 40 141 7 114 7 115 -15 113 -13 0 -30 -6 -38 -12z"/>
<path d="M1378 1213 c7 -3 16 -2 19 1 4 3 -2 6 -13 5 -11 0 -14 -3 -6 -6z"/>
<path d="M1300 1173 c-14 -3 -29 -8 -33 -13 -11 -10 11 -304 24 -308 5 -2 7
-8 3 -13 -10 -17 23 -9 39 9 13 14 18 51 23 175 8 174 12 162 -56 150z"/>
<path d="M1085 1160 c3 -5 10 -10 16 -10 5 0 9 5 9 10 0 6 -7 10 -16 10 -8 0
-12 -4 -9 -10z"/>
<path d="M2410 1167 c0 -2 9 -14 20 -27 14 -16 17 -26 9 -31 -8 -5 -8 -8 0
-13 6 -4 9 -12 6 -17 -4 -5 -1 -9 4 -9 6 0 11 21 11 50 0 47 -2 50 -25 50 -14
0 -25 -2 -25 -3z"/>
<path d="M2680 1154 c0 -8 5 -12 10 -9 6 3 10 10 10 16 0 5 -4 9 -10 9 -5 0
-10 -7 -10 -16z"/>
<path d="M110 1140 c0 -5 7 -7 15 -4 8 4 15 8 15 10 0 2 -7 4 -15 4 -8 0 -15
-4 -15 -10z"/>
<path d="M2953 1063 c9 -2 23 -2 30 0 6 3 -1 5 -18 5 -16 0 -22 -2 -12 -5z"/>
<path d="M1960 1045 c-10 -12 -10 -15 4 -15 9 0 16 7 16 15 0 8 -2 15 -4 15
-2 0 -9 -7 -16 -15z"/>
<path d="M2738 1053 c7 -3 16 -2 19 1 4 3 -2 6 -13 5 -11 0 -14 -3 -6 -6z"/>
<path d="M2681 1020 c10 -7 49 -2 49 5 0 2 -14 3 -31 3 -17 -1 -25 -4 -18 -8z"/>
<path d="M2682 933 c4 -39 28 -42 28 -4 0 21 -5 31 -16 31 -11 0 -14 -8 -12
-27z"/>
<path d="M2736 939 c-11 -13 -14 -25 -8 -32 6 -8 5 -25 -4 -47 -7 -19 -13 -30
-13 -25 -2 11 -40 -35 -41 -47 0 -5 19 -8 43 -7 23 0 36 3 29 6 -10 4 -8 9 7
20 18 12 20 23 18 78 -1 35 -5 66 -8 69 -3 3 -13 -4 -23 -15z"/>
<path d="M3510 928 c-11 -12 -20 -25 -20 -29 0 -14 29 -18 65 -8 31 9 34 13
24 25 -26 32 -47 35 -69 12z"/>
<path d="M1725 932 c-16 -6 -21 -17 -23 -61 -2 -30 -8 -62 -15 -70 -10 -12
-13 -8 -18 25 -4 25 -6 7 -7 -53 -1 -78 2 -92 17 -96 14 -3 17 -15 15 -81 -2
-45 2 -76 7 -76 6 0 8 4 5 9 -8 13 5 72 15 66 4 -3 18 5 30 17 12 13 19 18 15
11 -3 -6 -2 -14 4 -18 6 -4 10 5 10 19 0 14 5 26 11 26 7 0 9 29 5 88 -2 48
-6 102 -7 119 -1 18 -5 30 -10 27 -5 -3 -9 9 -9 25 0 32 -7 35 -45 23z"/>
<path d="M1973 933 c-7 -2 -13 -9 -13 -14 0 -6 4 -8 9 -4 14 8 -9 -69 -23 -77
-7 -5 -6 -8 4 -9 8 0 -2 -9 -24 -19 -36 -16 -37 -19 -19 -29 15 -7 29 -7 52 2
31 11 31 12 31 84 0 40 -1 73 -2 72 -2 0 -9 -3 -15 -6z"/>
<path d="M1920 905 c0 -16 6 -25 15 -25 9 0 15 9 15 25 0 16 -6 25 -15 25 -9
0 -15 -9 -15 -25z"/>
<path d="M963 895 c-10 -22 -9 -25 7 -25 11 0 22 5 25 10 3 6 2 10 -4 10 -5 0
-11 7 -13 15 -2 10 -7 7 -15 -10z"/>
<path d="M3523 815 c2 -46 6 -60 17 -60 8 0 14 6 13 13 -2 6 2 12 7 12 6 0 3
11 -6 25 -9 14 -14 32 -10 40 3 9 2 14 -3 10 -5 -3 -12 1 -15 7 -3 7 -4 -14
-3 -47z"/>
<path d="M1522 835 c0 -16 2 -22 5 -12 2 9 2 23 0 30 -3 6 -5 -1 -5 -18z"/>
<path d="M971 804 c0 -11 3 -14 6 -6 3 7 2 16 -1 19 -3 4 -6 -2 -5 -13z"/>
<path d="M1530 756 c0 -19 -5 -36 -12 -38 -7 -3 -6 -7 5 -11 14 -5 17 0 17 38
0 25 -2 45 -5 45 -3 0 -5 -15 -5 -34z"/>
<path d="M2030 704 c0 -31 -5 -61 -12 -67 -16 -15 -91 -21 -83 -7 3 6 14 10
23 11 14 0 13 2 -3 9 -30 13 -35 12 -35 -11 0 -11 -4 -17 -10 -14 -5 3 -10 2
-10 -4 0 -5 5 -13 10 -16 6 -3 10 -17 10 -31 0 -14 -4 -22 -10 -19 -5 3 -10
14 -10 24 0 20 -22 71 -31 71 -4 0 -9 -19 -13 -42 -4 -23 -12 -46 -19 -50 -9
-5 -8 -11 4 -20 9 -7 19 -24 23 -38 7 -27 53 -67 64 -55 4 4 1 10 -6 12 -6 3
-10 9 -6 14 3 5 2 9 -3 9 -4 0 -9 11 -9 25 -2 22 2 25 35 25 20 0 41 4 47 9 5
5 20 11 34 14 16 3 9 5 -18 6 -39 1 -42 3 -32 21 9 17 14 18 31 7 16 -10 21
-9 29 3 10 15 14 170 5 170 -3 0 -5 -25 -5 -56z"/>
<path d="M2090 746 c0 -7 7 -13 15 -13 8 0 15 4 15 8 0 4 -7 9 -15 13 -9 3
-15 0 -15 -8z"/>
<path d="M972 671 c0 -54 -4 -86 -12 -91 -16 -10 -9 -42 10 -48 8 -3 12 -1 8
3 -10 10 11 37 23 29 5 -3 9 -1 9 5 0 5 -4 13 -10 16 -5 3 -11 30 -11 58 -2
95 -17 120 -17 28z"/>
<path d="M2811 674 c0 -11 3 -14 6 -6 3 7 2 16 -1 19 -3 4 -6 -2 -5 -13z"/>
<path d="M1540 663 c0 -14 -2 -15 -9 -5 -7 11 -9 11 -14 -2 -9 -23 14 -32 30
-11 16 22 17 35 3 35 -5 0 -10 -8 -10 -17z"/>
<path d="M3041 658 c17 -34 19 -34 19 -5 0 18 -5 27 -15 27 -13 0 -14 -4 -4
-22z"/>
<path d="M2865 640 c3 -5 10 -10 16 -10 5 0 9 5 9 10 0 6 -7 10 -16 10 -8 0
-12 -4 -9 -10z"/>
<path d="M2625 630 c-4 -6 -11 -8 -16 -5 -5 4 -9 -19 -9 -53 0 -57 22 -122 41
-122 13 0 11 17 -3 24 -10 5 -10 7 0 12 6 3 12 12 12 20 0 9 -4 12 -10 9 -5
-3 -10 -1 -10 4 0 6 5 11 11 11 5 0 7 5 4 10 -4 6 6 10 24 10 56 0 131 21 131
36 0 13 -3 13 -22 0 -14 -10 -44 -16 -75 -16 l-53 0 0 35 c0 34 -12 46 -25 25z"/>
<path d="M2695 631 c-3 -6 -11 -8 -17 -5 -6 4 -9 1 -6 -6 6 -18 20 -22 38 -10
11 7 12 12 4 20 -9 9 -14 9 -19 1z"/>
<path d="M2746 631 c-4 -7 -5 -15 -2 -18 9 -9 19 4 14 18 -4 11 -6 11 -12 0z"/>
<path d="M2513 563 c-13 -2 -23 -8 -23 -12 0 -10 59 -1 66 10 5 9 -4 10 -43 2z"/>
<path d="M980 403 c0 -98 -3 -122 -15 -127 -21 -8 -19 -43 4 -55 14 -8 24 -6
41 9 20 18 21 21 6 35 -10 10 -16 35 -17 63 -1 26 -2 77 -3 114 -2 118 -16 85
-16 -39z"/>
<path d="M2576 465 c-3 -8 -1 -15 4 -15 6 0 10 7 10 15 0 8 -2 15 -4 15 -2 0
-6 -7 -10 -15z"/>
<path d="M2682 395 c0 -16 2 -22 5 -12 2 9 2 23 0 30 -3 6 -5 -1 -5 -18z"/>
<path d="M1590 294 c0 -8 5 -12 10 -9 6 4 8 11 5 16 -9 14 -15 11 -15 -7z"/>
<path d="M1633 296 c19 -15 6 -33 -15 -20 -7 4 -8 3 -4 -5 7 -10 42 -7 55 5 8
7 -22 34 -38 34 -14 -1 -14 -2 2 -14z"/>
<path d="M2800 290 c0 -5 5 -10 10 -10 6 0 10 5 10 10 0 6 -4 10 -10 10 -5 0
-10 -4 -10 -10z"/>
<path d="M1465 269 c-4 -6 -5 -12 -2 -15 2 -3 7 2 10 11 7 17 1 20 -8 4z"/>
<path d="M0 150 c1 -103 2 -113 15 -96 32 42 32 143 1 188 -15 21 -16 16 -16
-92z"/>
<path d="M1685 250 c3 -5 10 -10 16 -10 5 0 9 5 9 10 0 6 -7 10 -16 10 -8 0
-12 -4 -9 -10z"/>
<path d="M1093 225 c-3 -9 -3 -18 -1 -21 3 -3 8 4 11 16 6 23 -1 27 -10 5z"/>
<path d="M1040 185 c0 -8 5 -15 10 -15 6 0 10 7 10 15 0 8 -4 15 -10 15 -5 0
-10 -7 -10 -15z"/>
<path d="M3830 161 c0 -6 5 -13 10 -16 6 -3 10 1 10 9 0 9 -4 16 -10 16 -5 0
-10 -4 -10 -9z"/>
<path d="M4067 113 c-12 -11 -8 -23 8 -23 8 0 15 7 15 15 0 16 -12 20 -23 8z"/>
<path d="M4147 79 c7 -7 15 -10 18 -7 3 3 -2 9 -12 12 -14 6 -15 5 -6 -5z"/>
<path d="M358 43 c7 -3 16 -2 19 1 4 3 -2 6 -13 5 -11 0 -14 -3 -6 -6z"/>
<path d="M395 40 c3 -5 8 -10 11 -10 2 0 4 5 4 10 0 6 -5 10 -11 10 -5 0 -7
-4 -4 -10z"/>
</g>
</svg>
